<?xml version="1.0" encoding="UTF-8"?>
<svg version="1.1" xmlns="http://www.w3.org/2000/svg" width="877" height="285">
<path d="M0 0 C1.18529297 1.12535156 1.18529297 1.12535156 2.39453125 2.2734375 C13.52333615 13.67907834 17.2829406 27.24702863 17.37109375 42.765625 C17.38012222 43.76205017 17.3891507 44.75847534 17.39845276 45.78509521 C17.41287066 47.87590565 17.42182075 49.96676034 17.42553711 52.05761719 C17.43751993 55.25531727 17.4868605 58.45113855 17.53710938 61.6484375 C17.54656556 63.68749065 17.55380443 65.72655555 17.55859375 67.765625 C17.57812607 68.71777893 17.59765839 69.66993286 17.61778259 70.65093994 C17.58731956 75.11949048 17.46291518 77.34050154 14.84008789 81.07714844 C9.46837946 84.71400699 3.31487361 84.1205253 -2.94287109 84.02172852 C-3.8215686 84.01212097 -4.70026611 84.00251343 -5.60559082 83.99261475 C-8.49495834 83.95977063 -11.38416768 83.9193832 -14.2734375 83.87890625 C-16.28267874 83.85459086 -18.29192575 83.83074802 -20.30117798 83.80735779 C-25.57837518 83.74465804 -30.85546968 83.67555167 -36.13256836 83.60510254 C-41.52192525 83.5342914 -46.91135471 83.46955101 -52.30078125 83.40429688 C-62.86726726 83.27546648 -73.43365471 83.13986652 -84 83 C-83.9475585 86.33455608 -83.85235976 89.66663231 -83.75 93 C-83.73582031 93.93457031 -83.72164062 94.86914062 -83.70703125 95.83203125 C-83.4372738 103.54709432 -81.8326638 109.09989183 -76.375 114.6875 C-65.90350039 122.54778597 -55.34213896 124.00138171 -42.5390625 122.76171875 C-34.57583779 121.33868762 -26.64137311 117.54662711 -21.6875 111.0625 C-21.29949219 110.45535156 -20.91148437 109.84820312 -20.51171875 109.22265625 C-19 108 -19 108 -16.26367188 108.23046875 C-12.77611588 109.05278895 -10.34168129 110.2607572 -7.26953125 112.08984375 C-6.21958984 112.70923828 -5.16964844 113.32863281 -4.08789062 113.96679688 C-3.00701172 114.61712891 -1.92613281 115.26746094 -0.8125 115.9375 C0.27998047 116.58396484 1.37246094 117.23042969 2.49804688 117.89648438 C6.38050226 120.20012241 10.24333241 122.49555494 14 125 C13.08520078 133.03308068 5.74939838 138.75307977 -0.1875 143.6875 C-17.48975348 156.330313 -39.70585364 162.60440694 -61 160 C-70.58094882 158.34608202 -80.44274754 155.70478422 -89 151 C-89.79148438 150.58234375 -90.58296875 150.1646875 -91.3984375 149.734375 C-104.40520771 142.45058368 -116.33409614 130.8380733 -120.5322113 116.13618469 C-122.46530106 107.74891376 -122.30917732 99.33758405 -122.30078125 90.78515625 C-122.30467716 89.12186071 -122.30901364 87.45856614 -122.31376648 85.79527283 C-122.32119175 82.32319908 -122.3209641 78.85122709 -122.31567383 75.37915039 C-122.3098798 70.95688159 -122.32682656 66.5350317 -122.3500185 62.11283207 C-122.36483605 58.68189612 -122.36561677 55.25105926 -122.36250877 51.82009697 C-122.36301782 50.19081225 -122.36817613 48.56152136 -122.37832069 46.93226814 C-122.48346354 27.690317 -117.67454415 14.25113916 -104.390625 0.23828125 C-102 -2 -102 -2 -100 -2 C-100 -2.66 -100 -3.32 -100 -4 C-69.08480579 -21.63224005 -27.85245017 -26.73446351 0 0 Z M-81.4375 31.6875 C-85.94725869 38.36194286 -84 42.46344196 -84 52 C-62.88 52 -41.76 52 -20 52 C-18.91631211 39.52048517 -18.91631211 39.52048517 -23.32421875 29.60546875 C-31.92341566 21.36707731 -41.18377584 18.49065223 -52.90649414 18.578125 C-64.40916138 18.98821188 -73.7160746 23.17413353 -81.4375 31.6875 Z " fill="#010101" transform="translate(222,118)"/>
<path d="M0 0 C1.3921875 1.3303125 1.3921875 1.3303125 2.8125 2.6875 C2.8125 3.3475 2.8125 4.0075 2.8125 4.6875 C3.4725 4.6875 4.1325 4.6875 4.8125 4.6875 C12.79538192 15.02985441 16.90135501 25.77215596 16.97363281 38.78759766 C16.97859772 39.47145538 16.98356262 40.15531311 16.98867798 40.8598938 C17.00319963 43.10712723 17.01008626 45.35428998 17.015625 47.6015625 C17.01986607 48.76235888 17.01986607 48.76235888 17.02419281 49.94660568 C17.03914808 54.04529914 17.04839954 58.14395776 17.05273438 62.24267578 C17.05820091 66.44522471 17.08220077 70.6474467 17.11070633 74.84989357 C17.12947103 78.10843795 17.13454569 81.36690591 17.13607025 84.62549973 C17.1390683 86.17302606 17.14699859 87.72055199 17.16025543 89.26802444 C17.25243502 100.85922198 16.35214455 111.65014265 10.875 122.125 C10.39160156 123.07246094 9.90820312 124.01992187 9.41015625 124.99609375 C0.81329434 139.4783379 -15.74335627 148.31109263 -31.59228516 152.53735352 C-52.89626984 157.87700291 -74.66183687 157.26164721 -94.1875 146.6875 C-94.99445312 146.29691406 -95.80140625 145.90632812 -96.6328125 145.50390625 C-108.897407 139.32887522 -119.13935228 128.43105402 -124.1875 115.6875 C-127.01495494 105.78638797 -127.63679092 96.17962676 -127.5859375 85.9375 C-127.58796705 84.4664699 -127.59088573 82.99544079 -127.59463501 81.52441406 C-127.59901709 78.4653958 -127.59276229 75.40664321 -127.57861328 72.34765625 C-127.56152365 68.46831091 -127.57138729 64.58958871 -127.58933067 60.71026611 C-127.60028127 57.67980433 -127.59667121 54.64948514 -127.5889473 51.61901855 C-127.58697624 50.19038821 -127.58929271 48.76174398 -127.59638596 47.33312988 C-127.643597 35.15942891 -126.79173526 22.99657874 -120.5 12.3125 C-119.87738281 11.23226562 -119.25476563 10.15203125 -118.61328125 9.0390625 C-118.14277344 8.26304687 -117.67226563 7.48703125 -117.1875 6.6875 C-116.5275 6.6875 -115.8675 6.6875 -115.1875 6.6875 C-114.95417969 6.11515625 -114.72085938 5.5428125 -114.48046875 4.953125 C-108.2770679 -5.91688253 -91.71886107 -13.1475668 -80.25 -16.6875 C-51.84762457 -23.88404783 -22.95328951 -18.89728654 0 0 Z M-85.75 28.3125 C-88.99534768 32.37607982 -89.31768242 35.7777106 -89.34863281 40.8996582 C-89.35824036 42.18141434 -89.3678479 43.46317047 -89.37774658 44.7837677 C-89.382595 46.1852704 -89.38687372 47.58677518 -89.390625 48.98828125 C-89.39637936 50.42693584 -89.40213706 51.86559043 -89.40789795 53.304245 C-89.41840039 56.32124183 -89.4242478 59.33821207 -89.42773438 62.35522461 C-89.43321343 66.21207317 -89.45723168 70.06856769 -89.48570633 73.92530537 C-89.50437617 76.8979544 -89.50954064 79.87051896 -89.51107025 82.84322166 C-89.51408821 84.26452759 -89.52208773 85.68583233 -89.53525543 87.10708046 C-89.55240275 89.10036806 -89.54857837 91.09380223 -89.54394531 93.0871582 C-89.54759094 94.21950394 -89.55123657 95.35184967 -89.55499268 96.51850891 C-88.80701156 102.96855716 -85.51408077 106.98529196 -80.7109375 111.01171875 C-71.25373042 117.29212407 -60.34791376 119.62077502 -49.1875 118.6875 C-41.82880222 117.12938678 -33.89396445 114.83979336 -28.1875 109.6875 C-27.85105469 108.9965625 -27.51460937 108.305625 -27.16796875 107.59375 C-26.1875 105.6875 -26.1875 105.6875 -23.1875 104.6875 C-19.19287396 97.80786626 -20.03514826 87.96899651 -20.0546875 80.234375 C-20.05325241 78.9403476 -20.05325241 78.9403476 -20.05178833 77.62017822 C-20.05111313 75.80847093 -20.05292091 73.99676112 -20.05712891 72.18505859 C-20.06246002 69.45795053 -20.05717482 66.73100912 -20.05078125 64.00390625 C-18.97634197 43.05856841 -18.97634197 43.05856841 -27.5625 25.0625 C-43.12537176 13.01125059 -72.24272814 13.14082497 -85.75 28.3125 Z " fill="#010101" transform="translate(765.1875,120.3125)"/>
<path d="M0 0 C8.93132518 8.68444302 15.00111526 21.03980818 15.54278564 33.58985901 C15.54961365 34.82163376 15.55644165 36.05340851 15.56347656 37.32250977 C15.56844147 38.00622147 15.57340637 38.68993317 15.57852173 39.3943634 C15.59307403 41.64703397 15.59993592 43.89963397 15.60546875 46.15234375 C15.60970982 47.31451573 15.60970982 47.31451573 15.61403656 48.50016594 C15.629006 52.60533867 15.63824793 56.71047651 15.64257812 60.81567383 C15.6480403 65.02609854 15.67202669 69.23619619 15.70055008 73.4465189 C15.71931693 76.70935448 15.7243896 79.97211375 15.725914 83.2349987 C15.72891263 84.78531609 15.73684498 86.33563305 15.75009918 87.88589668 C15.88579096 104.98607311 12.94588339 119.25053631 0.8359375 131.95703125 C-12.44091058 144.93552319 -30.80390871 153.53049118 -49.59765625 154.3359375 C-50.67015625 154.3875 -51.74265625 154.4390625 -52.84765625 154.4921875 C-70.48440056 154.93310611 -90.2197965 151.20994908 -104.59765625 140.3359375 C-105.4175 139.7275 -106.23734375 139.1190625 -107.08203125 138.4921875 C-119.38819144 129.02591043 -126.45426962 117.96060373 -128.59765625 102.3359375 C-128.86628497 97.33815856 -128.85594034 92.34701289 -128.828125 87.34375 C-128.82692913 85.90705405 -128.8264809 84.47035731 -128.82673645 83.03366089 C-128.82518161 80.03655022 -128.81697191 77.03956067 -128.8034668 74.04248047 C-128.7865097 70.23474936 -128.78265236 66.42715112 -128.78341198 62.61938667 C-128.78313764 59.65594252 -128.77761412 56.69252637 -128.77041054 53.72909164 C-128.76726767 52.32672207 -128.76526694 50.92434937 -128.76451683 49.52197647 C-128.74281397 30.15604136 -127.21124503 15.15176114 -113.7109375 0.25390625 C-82.52580073 -29.86202583 -31.68353815 -27.26366131 0 0 Z M-85.66015625 25.7734375 C-91.27337075 33.19736635 -91.03913108 40.07263889 -90.99609375 49.1171875 C-90.99811827 50.45805011 -91.00103285 51.79891164 -91.00479126 53.13977051 C-91.00919691 55.94045568 -91.00284095 58.74085245 -90.98876953 61.54150391 C-90.97167822 65.11572481 -90.98152895 68.68926972 -90.99948692 72.26346588 C-91.01037279 75.02944959 -91.00685658 77.79527534 -90.99910355 80.56126404 C-90.9961539 82.51484623 -91.00520007 84.46843477 -91.01449585 86.42199707 C-90.95179731 94.36594913 -90.6431584 99.88971139 -85.22265625 106.0234375 C-83.92328125 107.168125 -83.92328125 107.168125 -82.59765625 108.3359375 C-81.89640625 109.0165625 -81.19515625 109.6971875 -80.47265625 110.3984375 C-71.73330142 116.28800271 -60.96961412 118.28713464 -50.59765625 117.3359375 C-39.10618009 114.75703645 -29.20622078 110.57921252 -22.59765625 100.3359375 C-21.50683834 96.98123874 -21.45292794 93.81412382 -21.4206543 90.30151367 C-21.40781906 89.08312302 -21.39498383 87.86473236 -21.38175964 86.60942078 C-21.37437271 85.29585098 -21.36698578 83.98228119 -21.359375 82.62890625 C-21.35529947 81.95729273 -21.35122395 81.28567921 -21.34702492 80.59371376 C-21.32620417 77.03896014 -21.31188511 73.48424466 -21.30249023 69.92944336 C-21.29143208 66.2710198 -21.2570286 62.6132055 -21.21731853 58.95499706 C-21.19109154 56.12985657 -21.1827931 53.30486004 -21.17920876 50.47960854 C-21.17201176 48.47941529 -21.14560162 46.47932072 -21.11882019 44.47929382 C-21.13826515 36.31833512 -21.92620104 31.8983325 -27.0625 25.515625 C-35.16540832 18.33692107 -46.62302046 14.96763391 -57.34375 15.19140625 C-67.97722457 15.8732755 -77.25580074 19.08425658 -85.66015625 25.7734375 Z " fill="#010101" transform="translate(518.59765625,121.6640625)"/>
<path d="M0 0 C0.99 0.99 0.99 0.99 2 2 C1.9375 3.875 1.9375 3.875 1 6 C0.23042969 6.56589844 -0.53914062 7.13179687 -1.33203125 7.71484375 C-4.50182352 10.42981956 -5.81854015 12.93847715 -7.625 16.6875 C-8.0727478 17.61199951 -8.0727478 17.61199951 -8.52954102 18.55517578 C-10.77123116 23.27510704 -12.53219174 27.99218357 -14 33 C-17.96 32.34 -21.92 31.68 -26 31 C-35.57 29.68 -45.14 28.36 -55 27 C-55 71.55 -55 116.1 -55 162 C-67.54 162 -80.08 162 -93 162 C-93 117.45 -93 72.9 -93 27 C-112.13519526 29.29231801 -112.13519526 29.29231801 -131 33 C-134 33.125 -134 33.125 -136 33 C-136.17015625 32.31035156 -136.3403125 31.62070313 -136.515625 30.91015625 C-138.98853645 21.32104748 -141.47307768 13.90226731 -148.70703125 6.921875 C-150 5 -150 5 -149.69921875 2.265625 C-149.46847656 1.51796875 -149.23773438 0.7703125 -149 0 C-145.76536774 -0.69652766 -142.53005209 -1.38913893 -139.29296875 -2.07421875 C-136.39199909 -2.69217282 -133.50153702 -3.34477659 -130.61328125 -4.01953125 C-90.16426274 -13.30775997 -39.50112839 -13.29595713 0 0 Z " fill="#010101" transform="translate(389,113)"/>
<path d="M0 0 C0.78375 0.04125 1.5675 0.0825 2.375 0.125 C2.375 0.785 2.375 1.445 2.375 2.125 C3.035 2.125 3.695 2.125 4.375 2.125 C5.55964303 6.25285552 5.23109483 8.25464666 3.3125 12.0625 C2.61060547 13.51462891 2.61060547 13.51462891 1.89453125 14.99609375 C1.39308594 16.02863281 0.89164062 17.06117187 0.375 18.125 C-14.99104307 50.13358131 -14.99104307 50.13358131 -17.08203125 84.44140625 C-14.98717302 89.62445925 -11.65061684 91.99952256 -6.62109375 94.2265625 C0.49933994 96.36176426 7.99994282 96.16651064 15.375 96.125 C15.375 100.125 15.375 100.125 13.87109375 101.9140625 C13.19175781 102.51992187 12.51242188 103.12578125 11.8125 103.75 C-6.76833069 121.51012262 -8.02442221 143.72525795 -8.58081055 167.97631836 C-8.59539307 168.6853833 -8.60997559 169.39444824 -8.625 170.125 C-14.75282568 170.34935975 -20.06705649 169.63298821 -26 168.125 C-27.28861938 167.80039795 -27.28861938 167.80039795 -28.60327148 167.46923828 C-50.07233259 161.74074784 -50.07233259 161.74074784 -56.15795898 155.57080078 C-57.67471129 153.86360747 -57.67471129 153.86360747 -60.625 153.125 C-62.39173642 151.50549162 -64.00145185 149.87983237 -65.625 148.125 C-66.45064453 147.27228516 -66.45064453 147.27228516 -67.29296875 146.40234375 C-75.6975731 137.36693024 -80.92663144 127.11980816 -80.875 114.625 C-80.88015625 113.3771875 -80.8853125 112.129375 -80.890625 110.84375 C-80.40748937 104.0798512 -78.06126049 98.41378435 -75.0625 92.4375 C-74.71388916 91.74197021 -74.36527832 91.04644043 -74.00610352 90.32983398 C-70.56508568 83.67618107 -66.34224808 77.94772125 -61.625 72.125 C-60.2878898 70.44049107 -58.95421797 68.75324351 -57.625 67.0625 C-57.068125 66.37027344 -56.51125 65.67804688 -55.9375 64.96484375 C-54.43803255 63.05328045 -54.43803255 63.05328045 -53.625 60.125 C-51.98364546 58.43339992 -50.31348201 56.76956196 -48.625 55.125 C-47.18415819 53.43700649 -45.7676746 51.72794811 -44.375 50 C-43.59382813 49.03578125 -42.81265625 48.0715625 -42.0078125 47.078125 C-41.22148438 46.10359375 -40.43515625 45.1290625 -39.625 44.125 C-35.32818124 38.83425519 -31.01215014 33.56560708 -26.58398438 28.38427734 C-21.47599394 22.40649973 -16.62200248 16.29824746 -11.9140625 10 C-9.64870598 7.15477406 -7.24230782 4.64601891 -4.625 2.125 C-2.625 0.125 -2.625 0.125 0 0 Z " fill="#010101" transform="translate(92.625,6.875)"/>
<path d="M0 0 C2.859375 -0.484375 2.859375 -0.484375 6 0 C8.203125 1.984375 8.203125 1.984375 10.25 4.75 C11.01441406 5.7503125 11.77882813 6.750625 12.56640625 7.78125 C12.96230957 8.30976563 13.35821289 8.83828125 13.76611328 9.3828125 C15.82116047 12.07624989 18.00665823 14.6582214 20.1875 17.25 C21.02539062 18.25417969 21.86328125 19.25835938 22.7265625 20.29296875 C24.49200163 22.39511534 26.26791102 24.48533762 28.0625 26.5625 C34.51351674 34.06158109 40.67800355 41.77911336 46.63769531 49.67236328 C48.62734516 52.29198784 50.64777993 54.7054638 53 57 C54.21032265 58.43944831 55.39658663 59.89935154 56.5625 61.375 C57.16191406 62.12523437 57.76132812 62.87546875 58.37890625 63.6484375 C60.02012621 66.02919513 61.03519075 68.28317396 62 71 C62.66 71 63.32 71 64 71 C65.1574707 72.40185547 65.1574707 72.40185547 66.42578125 74.3671875 C66.89048828 75.08318115 67.35519531 75.7991748 67.83398438 76.53686523 C68.32189453 77.30844971 68.80980469 78.08003418 69.3125 78.875 C69.80943359 79.65496338 70.30636719 80.43492676 70.81835938 81.23852539 C79.01844478 94.24495203 84.78270945 106.2247032 83 122 C80.94305004 130.38602675 77.86033731 137.62705635 72 144 C71.10474609 145.01320312 71.10474609 145.01320312 70.19140625 146.046875 C65.37404865 151.20348314 60.23410139 154.74337987 54 158 C52.87464844 158.58910156 51.74929688 159.17820313 50.58984375 159.78515625 C38.17794527 166.03667046 25.83648672 168.9519732 12 170 C11.98541748 169.38705078 11.97083496 168.77410156 11.95581055 168.14257812 C11.29480246 143.15974238 9.03556126 121.31453631 -10 103.125 C-10.86625 102.35542969 -10.86625 102.35542969 -11.75 101.5703125 C-13 100 -13 100 -13 96 C-11.515 95.505 -11.515 95.505 -10 95 C-9.34 95.33 -8.68 95.66 -8 96 C0.76626112 96.16495653 8.76674136 95.2721787 16 90 C20.83955954 84.38522498 20.62755756 78.2679553 20.21777344 71.12890625 C18.29360768 52.31867602 9.60401542 32.78084306 1.52612305 15.89624023 C-0.48388722 11.60572989 -1.76975768 7.81147405 -2 3 C-1.34 2.01 -0.68 1.02 0 0 Z " fill="#010101" transform="translate(787,7)"/>
<path d="M0 0 C0.93650391 -0.00386719 1.87300781 -0.00773437 2.83789062 -0.01171875 C4.19237305 -0.00978516 4.19237305 -0.00978516 5.57421875 -0.0078125 C6.38850342 -0.00668457 7.20278809 -0.00555664 8.04174805 -0.00439453 C10.25684203 0.12182844 12.18564871 0.5112332 14.3125 1.125 C14.8075 3.6 14.8075 3.6 15.3125 6.125 C13.81510417 7.32942708 12.31770833 8.53385417 10.8203125 9.73828125 C9.05957893 11.24770545 9.05957893 11.24770545 7.3125 14.125 C6.6525 14.125 5.9925 14.125 5.3125 14.125 C5.3125 14.785 5.3125 15.445 5.3125 16.125 C4.260625 17.115 4.260625 17.115 3.1875 18.125 C-1.29650552 22.43015629 -4.99148383 28.24099455 -6.44921875 34.28125 C-7.6875 37.125 -7.6875 37.125 -10.6640625 38.62890625 C-11.86804688 38.97824219 -13.07203125 39.32757813 -14.3125 39.6875 C-22.35461395 42.21824952 -28.83226809 44.93925678 -33.6875 52.125 C-34.916467 54.58293399 -34.82305347 56.20306813 -34.83898926 58.95240784 C-34.85150475 60.48153305 -34.85150475 60.48153305 -34.86427307 62.04154968 C-34.86845749 63.16422745 -34.87264191 64.28690521 -34.87695312 65.44360352 C-34.88524643 66.62247131 -34.89353973 67.80133911 -34.90208435 69.01593018 C-34.92407396 72.25337052 -34.94176459 75.49080274 -34.95789146 78.72827649 C-34.97602539 82.1111105 -35.00048282 85.49389751 -35.02453613 88.87669373 C-35.08977499 98.21290261 -35.14520342 107.54916502 -35.20052338 116.88543701 C-35.25132497 125.44340995 -35.30416975 134.00135664 -35.36504889 142.5592646 C-35.38878928 145.93006458 -35.41036447 149.3008514 -35.42713928 152.6716938 C-35.4464212 156.42643521 -35.47159336 160.18109434 -35.49804688 163.93579102 C-35.50223129 165.06049301 -35.50641571 166.18519501 -35.51072693 167.34397888 C-35.52324242 168.86887436 -35.52324242 168.86887436 -35.53601074 170.42457581 C-35.54116447 171.31335198 -35.54631821 172.20212816 -35.55162811 173.11783695 C-35.6875 175.125 -35.6875 175.125 -36.6875 176.125 C-39.25771843 176.22594226 -41.80048032 176.26471237 -44.37109375 176.2578125 C-45.52714867 176.25924759 -45.52714867 176.25924759 -46.70655823 176.26071167 C-48.33993613 176.26139349 -49.97331673 176.25953909 -51.60668945 176.25537109 C-54.11090172 176.25003007 -56.61493403 176.25531224 -59.11914062 176.26171875 C-60.7031254 176.26105783 -62.28711006 176.25977637 -63.87109375 176.2578125 C-64.6232164 176.25983673 -65.37533905 176.26186096 -66.1502533 176.26394653 C-71.45758751 176.23995624 -71.45758751 176.23995624 -73.6875 175.125 C-73.75778064 159.16468112 -73.81058107 143.20440446 -73.84293652 127.24396896 C-73.85836331 119.8321895 -73.87937203 112.42050655 -73.91381836 105.00878906 C-73.94384973 98.54390813 -73.96310539 92.07909714 -73.96976548 85.61414838 C-73.97365466 82.19536246 -73.9827057 78.77677653 -74.00469017 75.35805511 C-74.02659829 71.52862389 -74.02946127 67.69960141 -74.02807617 63.87011719 C-74.038862 62.75376892 -74.04964783 61.63742065 -74.0607605 60.48724365 C-74.02222516 50.58380269 -72.50319694 41.11146353 -67.1875 32.625 C-66.5996875 31.6659375 -66.011875 30.706875 -65.40625 29.71875 C-62.27896341 24.99939024 -62.27896341 24.99939024 -60.6875 23.125 C-60.0275 23.125 -59.3675 23.125 -58.6875 23.125 C-58.6875 22.465 -58.6875 21.805 -58.6875 21.125 C-43.46951442 5.59063218 -21.12716105 -0.08833656 0 0 Z " fill="#010101" transform="translate(627.6875,100.875)"/>
<path d="M0 0 C0.66 0 1.32 0 2 0 C2.33 0.99 2.66 1.98 3 3 C2.67 3.33 2.34 3.66 2 4 C1.87047627 6.28796908 1.81137289 8.57993691 1.77880859 10.87133789 C1.7673027 11.59015137 1.75579681 12.30896484 1.74394226 13.04956055 C1.70708442 15.44054822 1.67752745 17.83156231 1.6484375 20.22265625 C1.62532266 21.88358433 1.60193233 23.5445086 1.57827759 25.20542908 C1.52972584 28.69673273 1.48482329 32.18806024 1.44238281 35.67944336 C1.38784231 40.13921723 1.32395129 44.59879807 1.25720787 49.05840397 C1.20691078 52.49431061 1.16187736 55.93027139 1.11836624 59.36627007 C1.09689495 61.00921311 1.07376306 62.65213537 1.0489006 64.29503059 C1.01470472 66.60428898 0.9876771 68.91352931 0.96240234 71.22290039 C0.94543304 72.53448624 0.92846375 73.84607208 0.91098022 75.19740295 C1.00505946 79.21612131 1.43681153 83.02329955 2 87 C1.34 86.67 0.68 86.34 0 86 C-1.07487334 81.49106186 -1.14306308 77.01634525 -1.12939453 72.40576172 C-1.13114685 71.67003937 -1.13289917 70.93431702 -1.13470459 70.17630005 C-1.13908186 67.76073807 -1.13620031 65.34525014 -1.1328125 62.9296875 C-1.13348658 61.24390651 -1.13445748 59.55812562 -1.13571167 57.87234497 C-1.13718293 54.3470161 -1.13505193 50.82171263 -1.13037109 47.29638672 C-1.12466537 42.77929101 -1.12796176 38.26225461 -1.13394356 33.74516106 C-1.13755712 30.26733961 -1.13640707 26.78953223 -1.13381577 23.31171036 C-1.13314916 21.64594643 -1.13396563 19.98018122 -1.13629532 18.31441879 C-1.13883583 15.98806115 -1.13496188 13.6617997 -1.12939453 11.33544922 C-1.13141876 10.64860046 -1.13344299 9.96175171 -1.13552856 9.25408936 C-1.12120422 6.02174964 -0.98674337 3.09221217 0 0 Z " fill="#0E0E0E" transform="translate(101,146)"/>
<path d="M0 0 C1.32 0 2.64 0 4 0 C4 0.66 4 1.32 4 2 C5.61068359 2.39832031 5.61068359 2.39832031 7.25390625 2.8046875 C8.6901201 3.16139421 10.12631712 3.51816866 11.5625 3.875 C12.61920898 4.13603516 12.61920898 4.13603516 13.69726562 4.40234375 C17.06159775 5.23955082 20.39136016 6.11510593 23.71875 7.09375 C26.51442922 7.86588998 29.06021026 8.35940402 31.9375 8.625 C32.70964844 8.69976562 33.48179687 8.77453125 34.27734375 8.8515625 C35.13005859 8.92503906 35.13005859 8.92503906 36 9 C30.97685455 12.34876363 25.7389104 10.5218686 20.02734375 9.43359375 C13.24129077 7.90125921 6.90560516 5.75135925 1 2 C0.67 1.34 0.34 0.68 0 0 Z " fill="#141313" transform="translate(130,266)"/>
<path d="M0 0 C-3 2 -3 2 -5.43359375 1.5390625 C-6.42488281 1.23742187 -7.41617187 0.93578125 -8.4375 0.625 C-17.55097807 -1.72053234 -26.65366048 -1.25159638 -36 -1 C-36 -1.66 -36 -2.32 -36 -3 C-23.87131013 -4.94925373 -11.62863931 -3.91727468 0 0 Z " fill="#111111" transform="translate(486,104)"/>
<path d="M0 0 C0.65742187 0.06058594 1.31484375 0.12117188 1.9921875 0.18359375 C11.31741542 1.00492141 20.65273392 1.51186499 30 2 C22.51795068 6.72550483 10.04744538 4.14968287 1.87890625 2.4375 C0.94884766 2.2209375 0.94884766 2.2209375 0 2 C0 1.34 0 0.68 0 0 Z " fill="#090909" transform="translate(691,272)"/>
<path d="M0 0 C0.66 0.66 1.32 1.32 2 2 C-8.92502532 4.27859001 -19.97588189 5.10705621 -31 3 C-30.67 2.34 -30.34 1.68 -30 1 C-28.84999512 1.00785522 -28.84999512 1.00785522 -27.67675781 1.01586914 C-24.20118022 1.03666364 -20.72561573 1.04966809 -17.25 1.0625 C-15.44015625 1.07506836 -15.44015625 1.07506836 -13.59375 1.08789062 C-12.43359375 1.09111328 -11.2734375 1.09433594 -10.078125 1.09765625 C-9.00981445 1.10289307 -7.94150391 1.10812988 -6.84082031 1.11352539 C-4.06636773 1.11213107 -4.06636773 1.11213107 -1.74511719 0.36889648 C-1.16922852 0.24716064 -0.59333984 0.1254248 0 0 Z " fill="#090809" transform="translate(479,272)"/>
<path d="M0 0 C0.66 0.66 1.32 1.32 2 2 C-13.56036446 6.59225513 -13.56036446 6.59225513 -22 6 C-21.01 5.67 -20.02 5.34 -19 5 C-19 4.34 -19 3.68 -19 3 C-15.87798775 2.4400497 -12.75219316 1.90518505 -9.625 1.375 C-8.73554688 1.21515625 -7.84609375 1.0553125 -6.9296875 0.890625 C-6.07890625 0.74882812 -5.228125 0.60703125 -4.3515625 0.4609375 C-3.17327881 0.25670166 -3.17327881 0.25670166 -1.97119141 0.04833984 C-1.32069824 0.0323877 -0.67020508 0.01643555 0 0 Z " fill="#111114" transform="translate(195,272)"/>
<path d="M0 0 C0.66 0 1.32 0 2 0 C2.12117187 1.16917969 2.24234375 2.33835937 2.3671875 3.54296875 C2.53608401 5.09118671 2.70537568 6.63936161 2.875 8.1875 C2.95363281 8.95642578 3.03226563 9.72535156 3.11328125 10.51757812 C3.58180954 14.71631241 4.40410853 18.06778093 6 22 C5.67 22.99 5.34 23.98 5 25 C0.45574813 16.53116696 -0.27958584 9.45932095 0 0 Z " fill="#121212" transform="translate(12,117)"/>
<path d="M0 0 C4.93916169 1.89967757 9.6931193 4.17159507 14.47265625 6.43359375 C17.94395168 8.06755705 21.4186791 9.62256889 25 11 C21.66493962 12.14201547 19.97851689 11.90014922 16.77734375 10.48828125 C15.99166016 10.14216797 15.20597656 9.79605469 14.39648438 9.43945312 C13.58501953 9.06755859 12.77355469 8.69566406 11.9375 8.3125 C11.12216797 7.95994141 10.30683594 7.60738281 9.46679688 7.24414062 C2.1524593 3.9565953 2.1524593 3.9565953 0 0 Z " fill="#111111" transform="translate(35,160)"/>
<path d="M0 0 C3.24998112 -0.02909763 6.49992857 -0.04683161 9.75 -0.0625 C10.67039062 -0.07087891 11.59078125 -0.07925781 12.5390625 -0.08789062 C13.42851563 -0.09111328 14.31796875 -0.09433594 15.234375 -0.09765625 C16.05131836 -0.10289307 16.86826172 -0.10812988 17.70996094 -0.11352539 C19.93968135 -0.00299021 21.86133755 0.37944433 24 1 C24.33 2.32 24.66 3.64 25 5 C22 5 22 5 20.390625 3.51171875 C16.6814638 1.16621975 13.03819727 1.68184399 8.75 1.8125 C7.48929688 1.83280273 7.48929688 1.83280273 6.203125 1.85351562 C4.13514062 1.88876536 2.06748729 1.9425698 0 2 C0 1.34 0 0.68 0 0 Z " fill="#131313" transform="translate(618,101)"/>
<path d="M0 0 C4.81775674 7.22663511 4.22786088 14.58180626 4 23 C3.67 23 3.34 23 3 23 C3 20.03 3 17.06 3 14 C2.34 14 1.68 14 1 14 C0.93941406 13.31292969 0.87882813 12.62585938 0.81640625 11.91796875 C0.73261719 11.01691406 0.64882813 10.11585937 0.5625 9.1875 C0.48128906 8.29417969 0.40007813 7.40085937 0.31640625 6.48046875 C0.06510233 3.87256441 0.06510233 3.87256441 -1 1 C-0.67 0.67 -0.34 0.34 0 0 Z " fill="#121212" transform="translate(866,105)"/>
<path d="M0 0 C0.99 0.33 1.98 0.66 3 1 C5.39490986 1.06970052 7.79167691 1.08448003 10.1875 1.0625 C11.45980469 1.05347656 12.73210938 1.04445313 14.04296875 1.03515625 C15.01878906 1.02355469 15.99460937 1.01195313 17 1 C16.67 1.66 16.34 2.32 16 3 C10.06 3.33 4.12 3.66 -2 4 C-2 3.01 -2 2.02 -2 1 C-1.34 0.67 -0.68 0.34 0 0 Z " fill="#121214" transform="translate(776,102)"/>
<path d="M0 0 C4.67105792 1.55701931 8.08705685 4.08447373 12 7 C11.01 7.495 11.01 7.495 10 8 C5.93483504 6.02235218 3.08632611 3.2626876 0 0 Z " fill="#0D0D0D" transform="translate(409,257)"/>
<path d="M0 0 C0.66 1.32 1.32 2.64 2 4 C0.03533587 5.06775224 -1.96855359 6.06553465 -4 7 C-4.66 6.67 -5.32 6.34 -6 6 C-4.625 4.5 -4.625 4.5 -3 3 C-2.34 3 -1.68 3 -1 3 C-0.67 2.01 -0.34 1.02 0 0 Z " fill="#0F0F0F" transform="translate(493,225)"/>
<path d="M0 0 C2.97 0.495 2.97 0.495 6 1 C6.33 2.32 6.66 3.64 7 5 C3.47967572 5 2.5614657 4.29648649 0 2 C0 1.34 0 0.68 0 0 Z " fill="#0D0D0D" transform="translate(636,101)"/>
<path d="M0 0 C0.33 0 0.66 0 1 0 C1 4.29 1 8.58 1 13 C0.67 13 0.34 13 0 13 C0 10.03 0 7.06 0 4 C-0.66 4 -1.32 4 -2 4 C-1.34 2.68 -0.68 1.36 0 0 Z " fill="#0B0B0B" transform="translate(869,115)"/>
<path d="M0 0 C0 0.66 0 1.32 0 2 C0.99 2.33 1.98 2.66 3 3 C-0.3 3 -3.6 3 -7 3 C-4.74624683 0.74624683 -3.20799182 0 0 0 Z " fill="#0C0C0C" transform="translate(168,275)"/>
<path d="" fill="#FFFFFF" transform="translate(0,0)"/>
<path d="" fill="#FFFFFF" transform="translate(0,0)"/>
<path d="" fill="#FFFFFF" transform="translate(0,0)"/>
<path d="" fill="#FFFFFF" transform="translate(0,0)"/>
<path d="" fill="#FFFFFF" transform="translate(0,0)"/>
<path d="" fill="#FFFFFF" transform="translate(0,0)"/>
<path d="" fill="#FFFFFF" transform="translate(0,0)"/>
<path d="" fill="#FFFFFF" transform="translate(0,0)"/>
<path d="" fill="#FFFFFF" transform="translate(0,0)"/>
<path d="" fill="#FFFFFF" transform="translate(0,0)"/>
<path d="" fill="#FFFFFF" transform="translate(0,0)"/>
<path d="" fill="#FFFFFF" transform="translate(0,0)"/>
<path d="" fill="#FFFFFF" transform="translate(0,0)"/>
<path d="" fill="#FFFFFF" transform="translate(0,0)"/>
<path d="" fill="#FFFFFF" transform="translate(0,0)"/>
<path d="" fill="#FFFFFF" transform="translate(0,0)"/>
<path d="" fill="#FFFFFF" transform="translate(0,0)"/>
<path d="" fill="#FFFFFF" transform="translate(0,0)"/>
<path d="" fill="#FFFFFF" transform="translate(0,0)"/>
<path d="" fill="#FFFFFF" transform="translate(0,0)"/>
<path d="" fill="#FFFFFF" transform="translate(0,0)"/>
<path d="" fill="#FFFFFF" transform="translate(0,0)"/>
<path d="" fill="#FFFFFF" transform="translate(0,0)"/>
<path d="" fill="#FFFFFF" transform="translate(0,0)"/>
<path d="" fill="#FFFFFF" transform="translate(0,0)"/>
<path d="" fill="#FFFFFF" transform="translate(0,0)"/>
<path d="" fill="#FFFFFF" transform="translate(0,0)"/>
<path d="" fill="#FFFFFF" transform="translate(0,0)"/>
<path d="" fill="#FFFFFF" transform="translate(0,0)"/>
<path d="" fill="#FFFFFF" transform="translate(0,0)"/>
<path d="" fill="#FFFFFF" transform="translate(0,0)"/>
<path d="" fill="#FFFFFF" transform="translate(0,0)"/>
<path d="" fill="#FFFFFF" transform="translate(0,0)"/>
<path d="" fill="#FFFFFF" transform="translate(0,0)"/>
<path d="" fill="#FFFFFF" transform="translate(0,0)"/>
<path d="" fill="#FFFFFF" transform="translate(0,0)"/>
<path d="" fill="#FFFFFF" transform="translate(0,0)"/>
<path d="" fill="#FFFFFF" transform="translate(0,0)"/>
<path d="" fill="#FFFFFF" transform="translate(0,0)"/>
<path d="" fill="#FFFFFF" transform="translate(0,0)"/>
<path d="" fill="#FFFFFF" transform="translate(0,0)"/>
<path d="" fill="#FFFFFF" transform="translate(0,0)"/>
<path d="" fill="#FFFFFF" transform="translate(0,0)"/>
<path d="" fill="#FFFFFF" transform="translate(0,0)"/>
<path d="" fill="#FFFFFF" transform="translate(0,0)"/>
<path d="" fill="#FFFFFF" transform="translate(0,0)"/>
<path d="" fill="#FFFFFF" transform="translate(0,0)"/>
<path d="" fill="#FFFFFF" transform="translate(0,0)"/>
<path d="" fill="#FFFFFF" transform="translate(0,0)"/>
</svg>
