<?xml version="1.0" encoding="UTF-8"?>
<svg version="1.1" xmlns="http://www.w3.org/2000/svg" width="1116" height="223">
<path d="M0 0 C22.692414 0.10096736 22.692414 0.10096736 28.19921875 5.265625 C30.92397584 13.36195327 30.51337856 22.57230838 30.44921875 31.015625 C30.44535156 32.26174561 30.44148437 33.50786621 30.4375 34.79174805 C30.32885558 46.67397674 29.44351294 58.45310342 28.19921875 70.265625 C28.84503906 69.81832031 29.49085938 69.37101562 30.15625 68.91015625 C43.2067766 60.53710977 56.75023178 57.84713217 72.13671875 57.765625 C73.15403076 57.75926025 74.17134277 57.75289551 75.21948242 57.74633789 C93.41009143 58.05205 108.29046457 65.61578566 121.19921875 78.265625 C132.05963234 90.8940129 138.66236634 106.53372501 139.19921875 123.265625 C139.23789062 124.24112305 139.23789062 124.24112305 139.27734375 125.23632812 C139.60766843 134.5432259 139.2671165 143.5560731 137.82421875 152.765625 C137.69821289 153.57249756 137.57220703 154.37937012 137.44238281 155.21069336 C136.82229442 158.81099462 136.25009727 161.18930722 134.19921875 164.265625 C133.18988281 164.46865234 133.18988281 164.46865234 132.16015625 164.67578125 C131.18949219 164.96775391 131.18949219 164.96775391 130.19921875 165.265625 C129.26777732 167.24782004 129.26777732 167.24782004 128.82421875 169.703125 C125.60801647 181.63200223 118.82731942 188.64383048 108.4140625 194.953125 C98.55396805 200.26138581 87.38252315 203.49436263 76.19921875 204.265625 C75.56757812 204.3171875 74.9359375 204.36875 74.28515625 204.421875 C58.93209255 205.11190033 44.97983982 199.24786066 31.19921875 193.265625 C30.86921875 195.575625 30.53921875 197.885625 30.19921875 200.265625 C4.08630189 201.91403558 4.08630189 201.91403558 -4.80078125 200.265625 C-5.94673891 197.97370968 -5.93728527 196.66832144 -5.95899963 194.1192627 C-5.9687894 193.24756502 -5.97857916 192.37586735 -5.98866558 191.47775459 C-5.9944201 190.51636511 -6.00017462 189.55497562 -6.00610352 188.56445312 C-6.02094017 187.04314443 -6.02094017 187.04314443 -6.03607655 185.49110222 C-6.0679095 182.09305072 -6.09259655 178.69498607 -6.1171875 175.296875 C-6.13795362 172.89832244 -6.15908904 170.49977305 -6.18057251 168.10122681 C-6.23674247 161.65615492 -6.28619521 155.21104892 -6.33361435 148.76590729 C-6.36295947 144.78173329 -6.39409581 140.79757428 -6.42544556 136.81341553 C-6.56780038 118.63092123 -6.69135673 100.44834621 -6.80078125 82.265625 C-6.80749344 81.16263565 -6.81420563 80.0596463 -6.82112122 78.92323303 C-6.8932071 66.97888074 -6.95191216 55.03463728 -6.97702026 43.09008789 C-6.98360991 39.96912714 -6.99447047 36.84822829 -7.00906372 33.72729492 C-7.02542156 30.12670323 -7.03190975 26.52623682 -7.03004074 22.92560959 C-7.03120201 21.03890253 -7.04184029 19.15220852 -7.05288696 17.26553345 C-7.04985565 16.15455292 -7.04682434 15.04357239 -7.04370117 13.89892578 C-7.04512619 12.94752716 -7.04655121 11.99612854 -7.04801941 11.01589966 C-6.58990338 5.91982181 -5.79437524 0.54953629 0 0 Z M36.35546875 103.25 C27.62431482 114.29234174 27.2034388 126.71967991 28.19921875 140.265625 C28.92640449 145.57083233 30.04149242 151.09809083 33.91796875 154.9921875 C35.62215162 156.16922906 37.40902291 157.22405651 39.19921875 158.265625 C39.91078125 159.503125 39.91078125 159.503125 40.63671875 160.765625 C44.08336071 166.28025213 49.96105641 168.41186433 56.01171875 170.140625 C66.59234364 172.45057322 75.77356786 170.53142196 85.19921875 165.265625 C94.72415563 158.5397991 99.52411111 150.5010771 102.19921875 139.265625 C103.38014779 127.74506394 103.17125025 116.36101879 96.3515625 106.62890625 C89.37447837 98.15763713 80.46665483 92.23883192 69.55078125 90.45703125 C56.95874999 89.43209847 44.99893449 93.94728687 36.35546875 103.25 Z " fill="#020202" transform="translate(542.80078125,8.734375)"/>
<path d="M0 0 C16.74535087 -0.46274194 36.29319864 1.36187769 50.16015625 11.78515625 C68.62157898 30.00928563 66.53675056 59.92194965 67.28515625 83.66015625 C67.37173203 86.23700155 67.45896641 88.81382482 67.546875 91.390625 C67.75889384 97.64690166 67.96278866 103.90340113 68.16015625 110.16015625 C68.77503906 110.28132813 69.38992188 110.4025 70.0234375 110.52734375 C70.83167969 110.69492188 71.63992188 110.8625 72.47265625 111.03515625 C73.27316406 111.19757813 74.07367187 111.36 74.8984375 111.52734375 C77.16015625 112.16015625 77.16015625 112.16015625 80.16015625 114.16015625 C83.8630126 122.7175935 83.10339738 132.88074818 80.20703125 141.5859375 C79.16015625 143.16015625 79.16015625 143.16015625 77.36621094 143.74584961 C65.62717651 145.9504912 50.22395648 145.57612014 39.9921875 139.1796875 C37.30196531 137.25322928 34.70718635 135.27098237 32.16015625 133.16015625 C29.22658998 134.54143185 26.67347012 136.15620947 24.03515625 138.03515625 C10.13967841 147.35945398 -7.05226031 149.26048335 -23.33984375 146.41015625 C-36.70930136 143.16976229 -48.31518423 135.15148932 -56.578125 124.28515625 C-60.16839528 118.23838526 -60.15665215 112.42896045 -60.08984375 105.59765625 C-60.08380127 104.62127197 -60.07775879 103.6448877 -60.0715332 102.63891602 C-59.79644508 82.51080171 -59.79644508 82.51080171 -54.83984375 76.16015625 C-52.4363118 74.67792977 -50.19560991 73.46200158 -47.65234375 72.28515625 C-46.72905273 71.83462891 -46.72905273 71.83462891 -45.78710938 71.375 C-44.37463675 70.69579334 -42.95305797 70.03538031 -41.52563477 69.38818359 C-39.50069847 68.46231962 -37.4935241 67.49746463 -35.49584961 66.51416016 C-24.2960402 61.14374695 -12.91963178 58.64147736 -0.77734375 56.28515625 C1.16243394 55.89353126 3.10188998 55.50030965 5.04101562 55.10546875 C12.39501303 53.62088617 19.72097761 52.14937879 27.16015625 51.16015625 C23.83629113 43.07421515 20.04762327 38.10388976 12.16015625 34.16015625 C0.19047395 33.31795186 0.19047395 33.31795186 -10.83984375 37.16015625 C-12.12621497 39.07701863 -13.02734008 40.97264757 -13.92578125 43.09765625 C-15.98752677 47.74979999 -18.94240015 50.99354763 -23.65234375 53.03515625 C-24.70421875 53.40640625 -25.75609375 53.77765625 -26.83984375 54.16015625 C-26.34484375 56.14015625 -26.34484375 56.14015625 -25.83984375 58.16015625 C-27.48984375 58.16015625 -29.13984375 58.16015625 -30.83984375 58.16015625 C-30.83984375 56.51015625 -30.83984375 54.86015625 -30.83984375 53.16015625 C-31.98453125 53.40765625 -31.98453125 53.40765625 -33.15234375 53.66015625 C-41.02419249 54.72752557 -47.74705371 55.01493345 -54.83984375 51.16015625 C-56.78539686 49.21460314 -56.05918837 45.73520838 -56.08984375 43.16015625 C-56.0754083 34.43289696 -54.91790775 27.50146989 -48.83203125 20.9765625 C-44.4588547 16.98925447 -39.65633227 13.5853534 -34.83984375 10.16015625 C-34.0509375 9.56589844 -33.26203125 8.97164062 -32.44921875 8.359375 C-22.67726626 1.27646699 -11.7177442 0.48873602 0 0 Z M4.66015625 83.84765625 C3.06494141 84.21407227 3.06494141 84.21407227 1.4375 84.58789062 C-6.51990054 86.51621775 -14.09935572 89.04308289 -20.46484375 94.34765625 C-23.07592336 99.68850091 -22.49816576 105.03029093 -20.77734375 110.59765625 C-18.31313343 113.85677312 -15.67068158 115.04719421 -11.83984375 116.16015625 C-8.68128896 116.5664693 -5.58320608 116.58063323 -2.40234375 116.53515625 C-1.19094727 116.55255859 -1.19094727 116.55255859 0.04492188 116.5703125 C9.36754875 116.52523936 15.46935506 113.67455255 22.171875 107.23828125 C28.25017847 100.88531966 28.52802906 96.1102732 28.45336914 87.58203125 C28.65448313 84.07650093 28.65448313 84.07650093 27.16015625 81.16015625 C19.39977489 80.35229644 12.14901867 81.99132611 4.66015625 83.84765625 Z " fill="#020202" transform="translate(748.83984375,65.83984375)"/>
<path d="M0 0 C15.70197047 13.29909317 20.41064985 33.25286855 23.140625 52.87109375 C23.38574995 56.57520403 23.44605919 60.17194629 23.140625 63.87109375 C11.78948894 70.14939158 -3.4767057 67.93909473 -15.92669678 67.5944519 C-21.94018206 67.42819873 -27.95447811 67.29823198 -33.96875 67.1640625 C-35.1576181 67.13657425 -36.34648621 67.109086 -37.57138062 67.08076477 C-47.95994635 66.84804592 -58.34353913 66.77689128 -68.734375 66.80859375 C-69.47697571 66.81054749 -70.21957642 66.81250122 -70.98468018 66.81451416 C-74.9429678 66.825981 -78.90116146 66.84443221 -82.859375 66.87109375 C-82.29126099 67.81359985 -82.29126099 67.81359985 -81.71166992 68.77514648 C-79.25065333 72.86605194 -76.79688471 76.95896674 -74.41015625 81.09375 C-74.03697266 81.73376953 -73.66378906 82.37378906 -73.27929688 83.03320312 C-72.52274193 84.33148877 -71.77303353 85.63378211 -71.02929688 86.93945312 C-68.81759047 90.89784416 -68.81759047 90.89784416 -64.859375 92.87109375 C-53.85278541 93.80157153 -42.85777788 93.96149124 -32.859375 88.87109375 C-31.96863281 88.48566406 -31.07789063 88.10023438 -30.16015625 87.703125 C-26.01401839 85.8328234 -22.91071907 84.3500058 -20.296875 80.55859375 C-17.859375 77.87109375 -17.859375 77.87109375 -15.5625 77.4921875 C-13.29715916 77.49570511 -11.1081646 77.60653027 -8.859375 77.87109375 C-8.364375 76.38609375 -8.364375 76.38609375 -7.859375 74.87109375 C-7.034375 75.22171875 -6.209375 75.57234375 -5.359375 75.93359375 C-1.03034251 77.09315602 1.73679076 76.53166889 6.140625 75.87109375 C6.800625 76.20109375 7.460625 76.53109375 8.140625 76.87109375 C10.01119291 77.09859525 11.88748458 77.28072186 13.765625 77.43359375 C15.26996094 77.55927734 15.26996094 77.55927734 16.8046875 77.6875 C17.57554687 77.74808594 18.34640625 77.80867188 19.140625 77.87109375 C20.44854402 80.85314912 20.08903132 82.01817945 18.98828125 85.15625 C18.40944668 86.42290191 17.81333517 87.68175508 17.203125 88.93359375 C16.884646 89.5975415 16.56616699 90.26148926 16.23803711 90.94555664 C7.83445763 107.91829331 -5.4144024 120.56835781 -23.34375 127.1328125 C-32.15945779 129.72003109 -41.69441339 130.68637359 -50.859375 130.87109375 C-51.189375 130.54109375 -51.519375 130.21109375 -51.859375 129.87109375 C-54.06437233 129.59320368 -56.2737491 129.34993701 -58.484375 129.12109375 C-66.71956417 128.14054834 -74.1390057 125.83483741 -81.859375 122.87109375 C-82.61734375 122.5978125 -83.3753125 122.32453125 -84.15625 122.04296875 C-91.17124172 119.0862367 -96.51536901 113.13265364 -101.859375 107.87109375 C-102.60703125 107.15953125 -103.3546875 106.44796875 -104.125 105.71484375 C-117.97724098 91.53538448 -121.97812328 72.41015423 -121.83203125 53.29296875 C-120.94374085 34.31388604 -115.09719023 16.18804367 -100.88671875 3.046875 C-99.54148281 1.85197372 -98.17938295 0.67577783 -96.80078125 -0.48046875 C-94.88589857 -2.063218 -94.88589857 -2.063218 -93.32421875 -3.65234375 C-67.87490368 -28.25551791 -25.5522733 -19.02457506 0 0 Z M-78.359375 28.30859375 C-80.4768076 31.53968218 -80.4768076 31.53968218 -80.859375 38.87109375 C-60.399375 38.87109375 -39.939375 38.87109375 -18.859375 38.87109375 C-19.87163573 29.76074719 -20.44245776 27.21035378 -26.609375 21.18359375 C-30.23659837 18.60268481 -33.62473756 17.13977055 -37.859375 15.87109375 C-38.45234375 15.68675781 -39.0453125 15.50242188 -39.65625 15.3125 C-55.44142913 12.14986659 -67.19996063 17.42816474 -78.359375 28.30859375 Z " fill="#020202" transform="translate(1085.859375,83.12890625)"/>
<path d="M0 0 C1.010625 0.721875 2.02125 1.44375 3.0625 2.1875 C9.39288403 7.61501249 11.92338535 15.80854179 13.6875 23.6875 C13.89536133 24.59975342 14.10322266 25.51200684 14.31738281 26.4519043 C18.73944033 46.92406835 18.64488666 68.13954996 19 89 C19.0143811 89.82191833 19.02876221 90.64383667 19.0435791 91.49066162 C19.13125175 96.70471483 19.19432349 101.91838611 19.23016357 107.13305664 C19.24330857 108.82580905 19.26119485 110.51853177 19.28399658 112.21118164 C19.3137923 114.58237986 19.32363291 116.95285458 19.328125 119.32421875 C19.34042145 120.0280217 19.3527179 120.73182465 19.36538696 121.45695496 C19.34156506 126.77180036 17.89860664 129.78495893 14.5 133.75 C10.03575993 137.47020006 3.01366701 136.1844427 -2.4375 136.1875 C-3.58283203 136.19974609 -4.72816406 136.21199219 -5.90820312 136.22460938 C-7.56045898 136.22750977 -7.56045898 136.22750977 -9.24609375 136.23046875 C-10.75707642 136.23663208 -10.75707642 136.23663208 -12.29858398 136.24291992 C-15.07234743 135.99349429 -16.67560376 135.50282544 -19 134 C-20.44921875 131.86328125 -20.44921875 131.86328125 -21.6875 129.3125 C-22.10386719 128.48363281 -22.52023437 127.65476563 -22.94921875 126.80078125 C-25.24809329 120.67329781 -25.14831333 114.27944279 -25.1328125 107.82421875 C-25.13422241 106.94919708 -25.13563232 106.07417542 -25.13708496 105.17263794 C-25.13921063 102.34421683 -25.13294858 99.51590966 -25.125 96.6875 C-25.1234491 95.72613129 -25.12189819 94.76476257 -25.12030029 93.77426147 C-25.09817111 82.11692282 -25.02680031 70.46383942 -24.625 58.8125 C-24.59422363 57.80727295 -24.56344727 56.8020459 -24.53173828 55.76635742 C-24.30029207 50.24093918 -23.53673905 45.31611759 -22 40 C-22.928125 39.319375 -23.85625 38.63875 -24.8125 37.9375 C-27.62360855 35.67568853 -28.00027304 34.99910504 -29.125 31.3125 C-30.62377113 27.83446634 -30.62377113 27.83446634 -33.49609375 27.07421875 C-40.12900162 25.83213282 -46.37244364 25.82450436 -53 27 C-53.721875 27.12503906 -54.44375 27.25007813 -55.1875 27.37890625 C-62.4842233 28.91287649 -67.41501943 32.4760194 -71.58938599 38.53469849 C-76.75123746 47.55596167 -76.39787912 58.18623816 -76.2578125 68.2578125 C-76.24964749 69.696434 -76.24299484 71.13506479 -76.23776245 72.57369995 C-76.22080846 76.32804236 -76.18666459 80.08201058 -76.14770508 83.83618164 C-76.08805972 89.84881902 -76.0543195 95.86164235 -76.02193832 101.87447739 C-76.0081703 103.95377689 -75.986557 106.03287471 -75.96365356 108.11209106 C-75.81636502 127.45978607 -75.81636502 127.45978607 -78.33230591 130.7336731 C-81.04770095 132.79554872 -84.15089866 132.5809241 -87.4375 132.6875 C-88.14817627 132.72020996 -88.85885254 132.75291992 -89.59106445 132.78662109 C-106.39410219 133.49971734 -106.39410219 133.49971734 -113 132 C-115.01686845 126.1158279 -115.32425771 120.76740209 -115.37890625 114.57421875 C-115.3955835 113.56701279 -115.41226074 112.55980682 -115.42944336 111.52207947 C-115.48220112 108.24395383 -115.52230738 104.96580155 -115.5625 101.6875 C-115.61448635 98.25775052 -115.66979779 94.82806627 -115.72557068 91.39837646 C-115.76266616 89.11604376 -115.79876975 86.83369471 -115.83387756 84.55133057 C-115.95515045 76.88609952 -116.15608132 69.22769576 -116.42456055 61.56640625 C-116.90716302 47.77678786 -117.15584077 33.98857329 -117.23117065 20.19085693 C-117.24362379 18.2045313 -117.26105924 16.21823002 -117.28372192 14.23199463 C-117.31353088 11.46049554 -117.32349049 8.68960983 -117.328125 5.91796875 C-117.34657722 4.6750985 -117.34657722 4.6750985 -117.36540222 3.40711975 C-117.34780889 -1.18911574 -117.06480403 -4.31352732 -114 -8 C-109.03547183 -9.65484272 -103.88519837 -9.18456179 -98.6875 -9.1875 C-97.55892578 -9.19974609 -96.43035156 -9.21199219 -95.26757812 -9.22460938 C-94.17251953 -9.22654297 -93.07746094 -9.22847656 -91.94921875 -9.23046875 C-90.95237061 -9.23457764 -89.95552246 -9.23868652 -88.9284668 -9.24291992 C-85.66544108 -8.97224793 -83.02651119 -8.2384037 -80 -7 C-78.7578125 -5.0546875 -78.7578125 -5.0546875 -78.125 -2.875 C-77.90070313 -2.15054688 -77.67640625 -1.42609375 -77.4453125 -0.6796875 C-77.29835938 -0.12539062 -77.15140625 0.42890625 -77 1 C-76.55011719 0.61328125 -76.10023438 0.2265625 -75.63671875 -0.171875 C-55.88822447 -16.1606359 -19.95450757 -15.20343434 0 0 Z " fill="#010101" transform="translate(501,77)"/>
<path d="M0 0 C13.79877639 11.24205488 24.57669076 28.26167276 27 46 C28.02478581 61.11304849 28.37138645 76.65857544 23 91 C22.49146484 92.36318359 22.49146484 92.36318359 21.97265625 93.75390625 C15.23371523 109.07840201 0.27144482 121.90837405 -14.7578125 128.78515625 C-39.78773688 138.16383876 -64.85162144 134.02902019 -89.06103516 123.90283203 C-102.73373715 117.53646941 -111.59756784 98.86333507 -116.90234375 85.3046875 C-122.4701648 68.54178141 -125.56256864 50.940144 -117.765625 34.46484375 C-117.18296875 33.32144531 -116.6003125 32.17804688 -116 31 C-115.18789062 29.39318359 -115.18789062 29.39318359 -114.359375 27.75390625 C-110.46721035 20.61523978 -105.66260597 14.80282288 -100 9 C-99.195625 8.154375 -98.39125 7.30875 -97.5625 6.4375 C-96.716875 5.633125 -95.87125 4.82875 -95 4 C-94.29488281 3.30003906 -93.58976562 2.60007812 -92.86328125 1.87890625 C-69.45457639 -20.50084455 -26.00972591 -17.02586515 0 0 Z M-73 31 C-81.90880065 41.93814021 -84.24249044 54.2208826 -83 68 C-81.36420786 75.60877029 -77.64367775 81.84334453 -73 88 C-72.53722656 88.65097656 -72.07445312 89.30195313 -71.59765625 89.97265625 C-65.91102386 97.39205751 -58.11301268 99.46383322 -49.1328125 100.75 C-41.85992514 101.33038004 -35.08607918 101.37110154 -29 97 C-28.0409375 95.5459375 -28.0409375 95.5459375 -27.0625 94.0625 C-24.77128712 90.66039602 -22.42179433 89.17750548 -19 87 C-19 86.34 -19 85.68 -19 85 C-18.34 85 -17.68 85 -17 85 C-9.47280291 74.95674817 -6.79851747 65.02904166 -8.28125 52.65234375 C-10.11631127 42.64773086 -15.00307213 34.28714699 -23 28 C-38.39589326 18.21230608 -59.27461008 17.1517878 -73 31 Z " fill="#020202" transform="translate(278,79)"/>
<path d="M0 0 C3.75268543 3.07387203 7.16603974 6.15322777 10.2890625 9.875 C10.89105469 10.59042969 11.49304688 11.30585937 12.11328125 12.04296875 C17.30943602 19.27398133 17.58398707 27.28232226 16.2890625 35.875 C11.24213613 39.23961758 5.23126143 38.61415401 -0.7109375 38.875 C-1.66742187 38.91753906 -2.62390625 38.96007812 -3.609375 39.00390625 C-8.66223387 39.12051069 -13.10755983 39.13483995 -17.7109375 36.875 C-19.06017319 35.110832 -20.36782882 33.31459833 -21.6484375 31.5 C-27.34047194 24.0053247 -33.94647563 23.42427356 -42.7109375 21.875 C-45.06572958 21.26526703 -47.38198941 20.57973364 -49.7109375 19.875 C-49.9378125 20.431875 -50.1646875 20.98875 -50.3984375 21.5625 C-52.68697809 25.59469057 -55.88681648 28.32558599 -59.7109375 30.875 C-58.39914646 33.80910268 -57.0536119 35.80525319 -54.6484375 37.9375 C-54.12121094 38.42347656 -53.59398437 38.90945312 -53.05078125 39.41015625 C-45.27779998 44.27637992 -36.5861482 44.54457843 -27.6484375 45.0625 C-26.40126953 45.14435547 -25.15410156 45.22621094 -23.86914062 45.31054688 C-20.81691881 45.50935059 -17.76444384 45.69722191 -14.7109375 45.875 C-13.7209375 48.845 -13.7209375 48.845 -12.7109375 51.875 C-11.75840088 52.01748169 -11.75840088 52.01748169 -10.78662109 52.1628418 C-7.88284265 52.60902698 -4.98479827 53.08544914 -2.0859375 53.5625 C-1.08691406 53.71138672 -0.08789062 53.86027344 0.94140625 54.01367188 C7.18729807 55.06844169 10.98489009 56.12954809 15.2890625 60.875 C18.26186032 65.56748804 19.30669912 70.50650232 20.4140625 75.875 C20.66736328 77.04675781 20.66736328 77.04675781 20.92578125 78.2421875 C21.39781194 80.44995311 21.84838152 82.66078893 22.2890625 84.875 C22.58683594 86.36193359 22.58683594 86.36193359 22.890625 87.87890625 C23.42092676 91.86656754 23.51238082 95.79357245 23.5390625 99.8125 C23.5596875 100.58529297 23.5803125 101.35808594 23.6015625 102.15429688 C23.64609809 108.73999683 22.28733598 114.36997181 17.6015625 119.3125 C11.89198617 124.69477577 4.3750686 127.71460872 -2.7109375 130.875 C-3.68675781 131.31199219 -4.66257812 131.74898437 -5.66796875 132.19921875 C-26.98626475 140.79685237 -54.85701692 138.61240654 -75.7109375 129.875 C-88.89938419 121.72302255 -97.04070021 111.09888368 -100.7109375 95.875 C-101.1742074 93.17657225 -101.17930298 91.62664722 -100.7109375 88.875 C-97.89420153 85.9611352 -95.03530593 84.93012768 -90.98364258 84.76147461 C-89.91009521 84.76671143 -88.83654785 84.77194824 -87.73046875 84.77734375 C-86.56708984 84.78056641 -85.40371094 84.78378906 -84.20507812 84.78710938 C-82.99013672 84.79548828 -81.77519531 84.80386719 -80.5234375 84.8125 C-79.29689453 84.81701172 -78.07035156 84.82152344 -76.80664062 84.82617188 C-73.77469082 84.83796935 -70.74283844 84.85443079 -67.7109375 84.875 C-67.35902344 85.85082031 -67.00710938 86.82664062 -66.64453125 87.83203125 C-66.14715579 89.11769989 -65.64838346 90.40282874 -65.1484375 91.6875 C-64.92091797 92.33009766 -64.69339844 92.97269531 -64.45898438 93.63476562 C-63.11292859 97.0086457 -61.94418949 98.72507527 -58.87890625 100.6953125 C-53.00843508 102.70181362 -46.71538181 103.22880269 -40.5859375 103.9375 C-38.69294922 104.20723633 -38.69294922 104.20723633 -36.76171875 104.48242188 C-30.55536121 105.49013961 -30.55536121 105.49013961 -24.83691406 103.66357422 C-23.31670113 101.88381141 -23.31670113 101.88381141 -21.7109375 98.875 C-20.7209375 98.215 -19.7309375 97.555 -18.7109375 96.875 C-18.8553125 95.616875 -18.9996875 94.35875 -19.1484375 93.0625 C-19.22964844 92.35480469 -19.31085938 91.64710938 -19.39453125 90.91796875 C-20.13919256 86.10984696 -22.02951455 84.80125926 -25.7109375 81.875 C-25.7109375 81.215 -25.7109375 80.555 -25.7109375 79.875 C-26.86207031 79.92140625 -28.01320313 79.9678125 -29.19921875 80.015625 C-49.29227337 80.57619288 -73.15493865 76.96846904 -88.7109375 62.875 C-95.3691454 54.97942603 -98.2663309 46.80345383 -98.0859375 36.5625 C-98.07578613 35.72799316 -98.06563477 34.89348633 -98.05517578 34.03369141 C-97.76124372 22.30147285 -94.81535426 13.34193959 -86.671875 4.71484375 C-65.66641741 -15.14013825 -23.41112672 -16.81542229 0 0 Z " fill="#020202" transform="translate(934.7109375,76.125)"/>
<path d="M0 0 C0.76957031 0.28617187 1.53914063 0.57234375 2.33203125 0.8671875 C7.97003249 3.30349396 11.27839903 7.22511574 15 12 C15.78890625 12.928125 15.78890625 12.928125 16.59375 13.875 C20.45874415 18.6076459 22.71463762 23.58566748 24.921875 29.265625 C26.61960862 33.75077816 26.61960862 33.75077816 29.5234375 37.46875 C31.35008881 39.36305506 31.86486578 40.99406301 32.625 43.5 C32.86476562 44.2734375 33.10453125 45.046875 33.3515625 45.84375 C33.67253906 46.91109375 33.67253906 46.91109375 34 48 C34.33 48.99 34.66 49.98 35 51 C33.47969758 51.31507274 31.958724 51.62690732 30.4375 51.9375 C29.16712891 52.19853516 29.16712891 52.19853516 27.87109375 52.46484375 C16.50399964 54.58360823 2.16784012 56.85144782 -8 50 C-11.83296494 46.42078536 -14.96727811 42.45226516 -18 38.1875 C-22.61034233 33.14493808 -28.90650323 31.38356882 -35.54296875 30.76171875 C-45.86383538 30.4720637 -55.24685254 34.07426353 -63 41 C-70.88123084 51.53393781 -71.91333948 65.09642856 -70.4375 77.8125 C-68.65529536 87.52610544 -62.95092551 94.35835065 -55 100 C-50.05354174 103.03192981 -46.08915046 103.54691165 -40.4375 103.5 C-39.25256958 103.49250732 -39.25256958 103.49250732 -38.04370117 103.48486328 C-28.31448709 103.19914459 -19.43985854 100.34404877 -12.46484375 93.33203125 C-11 92 -11 92 -8.97265625 91.07421875 C-6.52261821 89.74003962 -5.82188093 88.42940278 -4.5 86 C-2.7392978 82.76411488 -1.48521164 81.30294284 2 80 C10.14562311 78.27486803 21.14376734 77.77002052 28.75 81.5 C31 83 31 83 32 84 C32.38316322 89.39165382 31.42398573 93.7657352 29.5 98.75 C29.23445312 99.44665771 28.96890625 100.14331543 28.6953125 100.86108398 C26.09101114 107.34271819 22.45038482 112.62697442 18 118 C17.53078125 118.64195312 17.0615625 119.28390625 16.578125 119.9453125 C4.97837297 135.16145782 -17.08145389 140.31105906 -35 143 C-53.47349784 144.91272127 -71.95368054 137.19976534 -86.375 126 C-87.92908151 124.68115788 -89.47195051 123.34891758 -91 122 C-91.61230469 121.49339844 -92.22460938 120.98679687 -92.85546875 120.46484375 C-104.80974486 109.76891249 -110.79939087 93.43121356 -111.921875 77.79296875 C-111.94765625 76.87128906 -111.9734375 75.94960937 -112 75 C-112.02852051 74.02824829 -112.02852051 74.02824829 -112.05761719 73.03686523 C-112.15338912 67.16177505 -111.59425122 61.49712025 -110.75 55.6875 C-110.61650146 54.76686768 -110.48300293 53.84623535 -110.34545898 52.89770508 C-108.8101489 42.93967158 -106.03288452 33.76696013 -101 25 C-98 23 -98 23 -94 23 C-93.979375 22.175 -93.95875 21.35 -93.9375 20.5 C-92.42031894 14.83585737 -88.76478503 10.87106435 -83.93359375 7.6015625 C-80.2483243 5.62955873 -77.26178912 4.46727636 -73 5 C-72.9175 4.401875 -72.835 3.80375 -72.75 3.1875 C-71.75321681 0.28021571 -70.59875209 -0.37848247 -68 -2 C-65.01171875 -2.9140625 -65.01171875 -2.9140625 -61.6875 -3.625 C-60.59824219 -3.86476563 -59.50898437 -4.10453125 -58.38671875 -4.3515625 C-39.27570914 -8.01064854 -18.26540315 -6.87818529 0 0 Z " fill="#020202" transform="translate(119,72)"/>
<path d="M0 0 C3.10517863 2.97975957 3.95132479 4.53604883 4.40600586 8.86987305 C4.38398442 10.35511097 4.33992749 11.84013658 4.27734375 13.32421875 C4.26001694 14.12172043 4.24269012 14.91922211 4.22483826 15.7408905 C4.16839366 18.16152125 4.0854536 20.58024422 4 23 C3.96922363 24.30404785 3.93844727 25.6080957 3.90673828 26.95166016 C3.82866625 30.19734678 3.73347476 33.44197243 3.62960815 36.68692017 C3.07105559 54.37848216 2.75942327 72.07472799 2.47089767 89.77233505 C2.43782681 91.79253619 2.40417907 93.81272699 2.37039185 95.83291626 C2.32724367 98.43369502 2.28503103 101.0344895 2.24382019 103.63529968 C2.2041568 106.11102095 2.16191502 108.58670246 2.11689758 111.06233215 C2.03265898 116.10333389 1.97073296 121.12627441 2.14892578 126.16552734 C2.18144188 127.27754768 2.18144188 127.27754768 2.21461487 128.41203308 C2.27845377 130.2556558 2.37383413 132.09811986 2.47290039 133.94018555 C1.80709401 138.24816248 0.2078933 140.10304298 -3 143 C-6.22973633 143.68115234 -6.22973633 143.68115234 -9.83203125 143.5859375 C-11.12431641 143.56660156 -12.41660156 143.54726562 -13.74804688 143.52734375 C-15.10288903 143.47721901 -16.45770674 143.42642942 -17.8125 143.375 C-19.18679094 143.34488122 -20.56114499 143.31750872 -21.93554688 143.29296875 C-25.29196969 143.22230722 -28.64518065 143.12367705 -32 143 C-33.16466695 140.6706661 -33.13694599 139.29258867 -33.15821838 136.69735718 C-33.1680072 135.79429337 -33.17779602 134.89122955 -33.18788147 133.96080017 C-33.19651466 132.47079247 -33.19651466 132.47079247 -33.20532227 130.95068359 C-33.21522186 129.90675949 -33.22512146 128.86283539 -33.23532104 127.78727722 C-33.26699921 124.324354 -33.29171844 120.86141704 -33.31640625 117.3984375 C-33.33697032 115.00232581 -33.35796664 112.60621779 -33.37937927 110.21011353 C-33.43465641 103.8939511 -33.48404078 97.57775562 -33.53222656 91.26153564 C-33.58240044 84.82016041 -33.63810795 78.37883333 -33.69335938 71.9375 C-33.80100994 59.29170806 -33.90262734 46.64587504 -34 34 C-35.19238281 33.95101562 -36.38476562 33.90203125 -37.61328125 33.8515625 C-39.17971068 33.77652396 -40.74611579 33.7009766 -42.3125 33.625 C-43.09818359 33.5940625 -43.88386719 33.563125 -44.69335938 33.53125 C-45.45068359 33.49257812 -46.20800781 33.45390625 -46.98828125 33.4140625 C-47.68477783 33.3826416 -48.38127441 33.3512207 -49.09887695 33.31884766 C-51 33 -51 33 -54 31 C-54.63183594 28.97216797 -54.63183594 28.97216797 -54.984375 26.4921875 C-55.11457031 25.58726563 -55.24476563 24.68234375 -55.37890625 23.75 C-55.50136719 22.80125 -55.62382812 21.8525 -55.75 20.875 C-55.88792969 19.94945313 -56.02585937 19.02390625 -56.16796875 18.0703125 C-56.92978231 12.50985889 -57.57355075 7.43480221 -56 2 C-50.86986085 -1.30866687 -44.97771548 -1.89399313 -39 -2.6875 C-38.07445312 -2.8119751 -37.14890625 -2.9364502 -36.1953125 -3.06469727 C-23.95273489 -4.61515529 -11.41100857 -5.74666954 0 0 Z " fill="#010101" transform="translate(363,69)"/>
<path d="M0 0 C4.3492018 2.95830447 8.04323913 6.91069702 10.40625 11.63671875 C11.11310188 20.8026177 10.9249435 29.39674824 6.40625 37.63671875 C2.41147434 42.06336205 -2.3497993 43.45011982 -8.2421875 43.7890625 C-11.03522041 43.82349715 -13.80339371 43.75642338 -16.59375 43.63671875 C-17.83125 43.59546875 -19.06875 43.55421875 -20.34375 43.51171875 C-25.33196108 42.16873884 -29.15877552 39.12497416 -31.75390625 34.625 C-32.9992695 31.67667491 -33.3391346 28.7939497 -33.59375 25.63671875 C-33.68269531 24.71117188 -33.77164062 23.785625 -33.86328125 22.83203125 C-34.30176472 14.81696134 -32.4756961 10.82814518 -27.59375 4.63671875 C-26.9440625 3.21359375 -26.9440625 3.21359375 -26.28125 1.76171875 C-19.93965662 -6.22399143 -7.84071773 -4.22285569 0 0 Z " fill="#030303" transform="translate(358.59375,14.36328125)"/>
<path d="" fill="#FFFFFF" transform="translate(0,0)"/>
<path d="" fill="#FFFFFF" transform="translate(0,0)"/>
<path d="" fill="#FFFFFF" transform="translate(0,0)"/>
<path d="" fill="#000000" transform="translate(0,0)"/>
<path d="" fill="#FFFFFF" transform="translate(0,0)"/>
<path d="" fill="#000000" transform="translate(0,0)"/>
<path d="" fill="#FFFFFF" transform="translate(0,0)"/>
<path d="" fill="#000000" transform="translate(0,0)"/>
<path d="" fill="#FFFFFF" transform="translate(0,0)"/>
<path d="" fill="#FFFFFF" transform="translate(0,0)"/>
<path d="" fill="#FFFFFF" transform="translate(0,0)"/>
<path d="" fill="#000000" transform="translate(0,0)"/>
<path d="" fill="#FFFFFF" transform="translate(0,0)"/>
<path d="" fill="#000000" transform="translate(0,0)"/>
<path d="" fill="#FFFFFF" transform="translate(0,0)"/>
<path d="" fill="#FFFFFF" transform="translate(0,0)"/>
<path d="" fill="#000000" transform="translate(0,0)"/>
<path d="" fill="#FFFFFF" transform="translate(0,0)"/>
<path d="" fill="#FFFFFF" transform="translate(0,0)"/>
<path d="" fill="#FFFFFF" transform="translate(0,0)"/>
<path d="" fill="#FFFFFF" transform="translate(0,0)"/>
<path d="" fill="#FFFFFF" transform="translate(0,0)"/>
<path d="" fill="#FFFFFF" transform="translate(0,0)"/>
<path d="" fill="#FFFFFF" transform="translate(0,0)"/>
<path d="" fill="#FFFFFF" transform="translate(0,0)"/>
<path d="" fill="#FFFFFF" transform="translate(0,0)"/>
<path d="" fill="#FFFFFF" transform="translate(0,0)"/>
<path d="" fill="#000000" transform="translate(0,0)"/>
<path d="" fill="#FFFFFF" transform="translate(0,0)"/>
<path d="" fill="#FFFFFF" transform="translate(0,0)"/>
<path d="" fill="#000000" transform="translate(0,0)"/>
<path d="" fill="#FFFFFF" transform="translate(0,0)"/>
<path d="" fill="#FFFFFF" transform="translate(0,0)"/>
<path d="" fill="#FFFFFF" transform="translate(0,0)"/>
<path d="" fill="#FFFFFF" transform="translate(0,0)"/>
<path d="" fill="#FFFFFF" transform="translate(0,0)"/>
<path d="" fill="#FFFFFF" transform="translate(0,0)"/>
<path d="" fill="#FFFFFF" transform="translate(0,0)"/>
<path d="" fill="#FFFFFF" transform="translate(0,0)"/>
<path d="" fill="#FFFFFF" transform="translate(0,0)"/>
<path d="" fill="#FFFFFF" transform="translate(0,0)"/>
<path d="" fill="#FFFFFF" transform="translate(0,0)"/>
<path d="" fill="#FFFFFF" transform="translate(0,0)"/>
<path d="" fill="#000000" transform="translate(0,0)"/>
<path d="" fill="#FFFFFF" transform="translate(0,0)"/>
</svg>
