<?xml version="1.0" encoding="UTF-8"?>
<svg version="1.1" xmlns="http://www.w3.org/2000/svg" width="745" height="299">
<path d="M0 0 C1.25490234 0.08894531 1.25490234 0.08894531 2.53515625 0.1796875 C17.44143158 2.22027945 30.46867924 12.17439434 39.8125 23.375 C43.39998267 28.23709415 45.83997555 33.37444182 48 39 C48.32097656 39.78246094 48.64195312 40.56492188 48.97265625 41.37109375 C54.05315847 56.13999556 52.25280341 73.91540243 46 88 C43.96214866 91.93720793 41.68342142 95.47450073 39 99 C38.40445313 99.78890625 37.80890625 100.5778125 37.1953125 101.390625 C28.37109831 112.15543401 15.52473684 119.8208103 1.55664062 121.25 C-12.1908475 122.08507901 -23.59509694 120.03398988 -36 114 C-37.09209539 117.52889733 -37.11435421 120.78371753 -37.09765625 124.46508789 C-37.09435303 125.77647232 -37.0910498 127.08785675 -37.08764648 128.4389801 C-37.08146805 129.48599185 -37.08146805 129.48599185 -37.07516479 130.55415535 C-37.06237633 132.74383135 -37.05587944 134.93344663 -37.05102539 137.12315369 C-37.03961045 141.76962974 -37.02036286 146.41605567 -37 151.0625 C-36.97640589 156.45069969 -36.95601593 161.83887074 -36.94406128 167.22710991 C-36.93757631 169.38476769 -36.92506979 171.54233767 -36.91235352 173.69996643 C-36.90905029 175.0081987 -36.90574707 176.31643097 -36.90234375 177.66430664 C-36.89710693 178.8180629 -36.89187012 179.97181915 -36.88647461 181.16053772 C-37 184 -37 184 -38 187 C-42.06822441 189.03411221 -47.20745969 188.48996736 -51.6875 188.6875 C-52.76451172 188.74744141 -53.84152344 188.80738281 -54.95117188 188.86914062 C-56.52801758 188.9397168 -56.52801758 188.9397168 -58.13671875 189.01171875 C-59.09280029 189.05772217 -60.04888184 189.10372559 -61.03393555 189.15112305 C-64.57076052 188.97091935 -67.61622201 188.01122197 -71 187 C-71.15693036 171.11318527 -71.30476378 155.22631037 -71.4429636 139.33932304 C-71.50738568 131.95566407 -71.57437355 124.57204804 -71.64819336 117.18847656 C-71.94777658 87.08035044 -72.14132798 56.98945832 -71.58984375 26.8828125 C-71.56947115 25.71453793 -71.54909855 24.54626335 -71.5281086 23.34258652 C-71.46921962 20.10207533 -71.40253232 16.86185382 -71.33178711 13.62158203 C-71.31367666 12.66641819 -71.29556622 11.71125435 -71.27690697 10.72714615 C-71.2449092 9.43015604 -71.2449092 9.43015604 -71.21226501 8.10696411 C-71.19540114 7.35682604 -71.17853727 6.60668797 -71.16116238 5.83381844 C-71 4 -71 4 -70 2 C-65.37616909 1.26296831 -60.67550914 1.17590164 -56 1 C-54.92057129 0.95697754 -54.92057129 0.95697754 -53.81933594 0.91308594 C-51.65030248 0.83709763 -49.48250092 0.78831902 -47.3125 0.75 C-46.28854126 0.717854 -46.28854126 0.717854 -45.24389648 0.68505859 C-42.35619687 0.66546621 -40.4713887 0.66040773 -38.0859375 2.37890625 C-36.84619897 4.22959507 -36.37678136 5.81466811 -36 8 C-34.7315625 7.13375 -34.7315625 7.13375 -33.4375 6.25 C-23.21229904 0.47770914 -11.51505982 -0.87384787 0 0 Z M-34.34765625 44.62109375 C-39.17359894 51.83406186 -38.47654029 61.8574164 -37.62890625 70.140625 C-35.96147572 77.72173772 -30.33359309 83.76856307 -24 88 C-16.76784605 92.30990664 -7.71322856 91.963222 0.36328125 90.6015625 C7.3785803 88.43652031 13.67084333 82.64058143 17.4375 76.4375 C21.1296509 68.31476801 22.39289338 60.90551401 19.75 52.3125 C16.79561962 44.43415231 12.02746227 38.53327803 4.48828125 34.734375 C-10.41436752 28.69678263 -24.08813279 32.27992784 -34.34765625 44.62109375 Z " fill="#000000" transform="translate(676,88)"/>
<path d="M0 0 C0.78310547 -0.00386719 1.56621094 -0.00773437 2.37304688 -0.01171875 C8.05868506 -0.00190747 8.05868506 -0.00190747 10.3125 1.125 C12.02144438 26.10187943 10.95839177 51.12398271 10.3125 76.125 C15.06968573 74.10499108 15.06968573 74.10499108 19.76953125 71.95703125 C30.52395191 67.30213276 42.78952169 67.55724978 53.8125 71.1875 C59.95793258 73.68564332 65.10297567 77.06177572 70.3125 81.125 C71.7975 82.115 71.7975 82.115 73.3125 83.125 C73.3125 83.785 73.3125 84.445 73.3125 85.125 C73.8796875 85.3415625 74.446875 85.558125 75.03125 85.78125 C82.67721524 90.28503775 87.91107354 100.87724363 90.3125 109.125 C91.34067349 113.31223257 91.45445169 117.36608255 91.44189453 121.65332031 C91.44452301 122.76391312 91.44452301 122.76391312 91.44720459 123.89694214 C91.45158898 126.33236059 91.44869837 128.76770587 91.4453125 131.203125 C91.44598623 132.89752211 91.44695684 134.59191913 91.44821167 136.28631592 C91.44968377 139.83020959 91.44754868 143.37407801 91.44287109 146.91796875 C91.43715664 151.47013976 91.4404667 156.02225204 91.44644356 160.57442093 C91.45004749 164.06927945 91.44891167 167.56412391 91.44631577 171.05898285 C91.44564693 172.73839067 91.44647341 174.41779976 91.44879532 176.09720612 C91.45132096 178.4362581 91.44748334 180.7752131 91.44189453 183.11425781 C91.44391876 183.81346344 91.44594299 184.51266907 91.44802856 185.23306274 C91.42676646 190.01073354 91.42676646 190.01073354 90.3125 191.125 C88.03302208 191.2252093 85.75042865 191.25581303 83.46875 191.2578125 C82.44231384 191.25924759 82.44231384 191.25924759 81.3951416 191.26071167 C79.94588123 191.2613933 78.49661782 191.25954023 77.04736328 191.25537109 C74.82187072 191.25002252 72.59657999 191.2553166 70.37109375 191.26171875 C68.96614539 191.26105797 67.56119715 191.2597768 66.15625 191.2578125 C64.86912109 191.25668457 63.58199219 191.25555664 62.25585938 191.25439453 C59.3125 191.125 59.3125 191.125 58.3125 190.125 C58.21495585 188.0918305 58.18733784 186.05528329 58.18652344 184.01977539 C58.18271667 182.71073746 58.17890991 181.40169952 58.17498779 180.05299377 C58.17479393 179.34804842 58.17460007 178.64310307 58.17440033 177.91679573 C58.17098688 174.95101308 58.1496146 171.98545003 58.12916946 169.01974392 C58.09119267 163.49645286 58.05987085 157.97338758 58.06201172 152.44995117 C58.06280392 148.60997695 58.03921096 144.77079525 58.0001297 140.93102837 C57.98973521 139.47400931 57.98809696 138.01689801 57.99578094 136.55986214 C58.04138163 126.94418752 57.35110697 118.61664 50.57147217 111.22743225 C45.80750844 106.73764868 40.4811443 104.02195105 33.875 103.75 C26.32005802 104.04551644 20.67131547 106.76618453 15.3125 112.125 C9.88157203 118.93026498 10.72617223 126.75402553 10.73828125 135.05078125 C10.72582538 136.60541857 10.71148819 138.16004185 10.69535828 139.71464539 C10.65745849 143.78926532 10.64216476 147.86364251 10.63256836 151.93841553 C10.61276527 158.47742831 10.55603822 165.01625743 10.50380516 171.55507469 C10.48844781 173.83851617 10.48126783 176.1218657 10.47566223 178.40534973 C10.46864886 179.79798427 10.46154817 181.19061838 10.4543457 182.58325195 C10.45086624 183.80123978 10.44738678 185.0192276 10.44380188 186.27412415 C10.3125 189.125 10.3125 189.125 9.3125 191.125 C4.91593827 191.14965504 0.5194128 191.16783842 -3.87719727 191.17993164 C-5.37394918 191.18497121 -6.87069616 191.19180287 -8.36743164 191.20043945 C-10.51449807 191.21252159 -12.66149962 191.21823191 -14.80859375 191.22265625 C-16.1020874 191.22789307 -17.39558105 191.23312988 -18.72827148 191.23852539 C-21.6875 191.125 -21.6875 191.125 -22.6875 190.125 C-22.78519053 187.6838998 -22.81746385 185.27112708 -22.80775452 182.82957458 C-22.80860894 182.05692876 -22.80946337 181.28428294 -22.81034368 180.48822361 C-22.81200082 177.87941446 -22.80647331 175.27066854 -22.80102539 172.66186523 C-22.80074354 170.79967246 -22.8009012 168.93747957 -22.8014679 167.07528687 C-22.80175597 162.00318414 -22.79585771 156.93110485 -22.78889394 151.8590076 C-22.78266197 146.56453999 -22.78205673 141.2700719 -22.78086853 135.9756012 C-22.77775475 125.94228576 -22.76954073 115.90898115 -22.75951904 105.87567049 C-22.74835935 94.45627715 -22.74284782 83.03688331 -22.73782361 71.61748588 C-22.72735815 48.11998457 -22.70975781 24.62249289 -22.6875 1.125 C-20.62798081 0.95944361 -18.56829611 0.79594542 -16.50854492 0.63330078 C-15.36157639 0.54202911 -14.21460785 0.45075745 -13.03288269 0.35671997 C-8.68242452 0.05538283 -4.35902243 -0.02276252 0 0 Z " fill="#000000" transform="translate(422.6875,20.875)"/>
<path d="M0 0 C4.75988209 4.12101886 9.07001707 8.27304247 12.1484375 13.79296875 C12.2421875 16.0859375 12.2421875 16.0859375 11.1484375 18.79296875 C8.79180938 21.24632846 6.15292819 23.28342277 3.4609375 25.35546875 C2.75259766 25.91943359 2.04425781 26.48339844 1.31445312 27.06445312 C-0.71986116 28.67049072 -2.77944172 30.23616732 -4.8515625 31.79296875 C-5.68421631 32.45014893 -5.68421631 32.45014893 -6.53369141 33.12060547 C-8.97865073 34.94395169 -10.46929726 35.79075912 -13.5546875 35.80859375 C-16.4575781 34.52500267 -17.11407422 33.31594072 -18.6015625 30.54296875 C-22.06067393 24.91519161 -26.58372728 22.0857499 -32.86328125 20.18359375 C-41.59470864 18.46818562 -49.62439521 20.45181436 -57.0390625 25.23046875 C-63.12722953 30.20836885 -66.28213209 36.84792209 -67.39453125 44.5546875 C-67.76091355 54.34798736 -65.72894252 61.0772363 -59.5390625 68.60546875 C-51.28738859 75.32194751 -44.57756164 77.85250588 -33.8515625 76.79296875 C-24.66560522 74.06963579 -19.49983256 68.94227626 -14.8515625 60.79296875 C-10.31434068 61.07654511 -7.80308939 63.12245886 -4.38671875 65.84765625 C-2.36523256 67.39881207 -0.3401817 68.82732398 1.77734375 70.23828125 C2.41422119 70.66955322 3.05109863 71.1008252 3.70727539 71.54516602 C4.98835235 72.40990504 6.27785938 73.2623009 7.57592773 74.10131836 C11.95573167 77.10097963 11.95573167 77.10097963 12.8359375 80.26171875 C10.71365823 88.07556516 0.9050481 95.74895688 -5.8515625 99.79296875 C-16.34419852 105.31624171 -26.2841116 108.35583507 -38.1640625 108.23046875 C-39.1737207 108.22289551 -40.18337891 108.21532227 -41.22363281 108.20751953 C-49.08073241 108.03451686 -55.62372449 107.05058588 -62.8515625 103.79296875 C-63.78742188 103.38046875 -64.72328125 102.96796875 -65.6875 102.54296875 C-80.12656662 95.42454935 -89.78216388 83.61031078 -95.80859375 68.9453125 C-101.4501701 51.89380646 -100.20646415 34.27815994 -92.2890625 18.16796875 C-83.13347634 2.53198029 -69.48218499 -6.97648981 -52.2578125 -11.95703125 C-33.91718855 -16.24444983 -14.77398222 -11.43465747 0 0 Z " fill="#000000" transform="translate(358.8515625,102.20703125)"/>
<path d="M0 0 C1.03511719 -0.00128906 2.07023438 -0.00257812 3.13671875 -0.00390625 C4.20792969 -0.00003906 5.27914062 0.00382812 6.3828125 0.0078125 C7.44628906 0.00394531 8.50976562 0.00007813 9.60546875 -0.00390625 C11.16201172 -0.00197266 11.16201172 -0.00197266 12.75 0 C13.6869873 0.00112793 14.62397461 0.00225586 15.58935547 0.00341797 C18.94196785 0.15206148 22.19411191 0.61393573 25.5078125 1.1328125 C26.23684159 26.25135459 26.61795828 51.36345447 26.63119507 76.49222183 C26.63280027 78.49256813 26.63658221 80.49291228 26.64038086 82.49325562 C26.68827237 113.15651436 26.68827237 113.15651436 25.5078125 122.1328125 C23.7748827 123.8657423 21.54566914 123.26101296 19.23632812 123.27175903 C18.50091797 123.2697348 17.76550781 123.26771057 17.0078125 123.265625 C16.25693359 123.26658173 15.50605469 123.26753845 14.73242188 123.26852417 C13.14192623 123.26920588 11.55142783 123.26735222 9.9609375 123.26318359 C7.51816595 123.25783517 5.07557829 123.26312884 2.6328125 123.26953125 C1.09114543 123.26887047 -0.45052153 123.2675893 -1.9921875 123.265625 C-2.72759766 123.26764923 -3.46300781 123.26967346 -4.22070312 123.27175903 C-9.37723589 123.24776411 -9.37723589 123.24776411 -10.4921875 122.1328125 C-11.60089715 115.32990507 -11.63661651 108.43589022 -11.62158203 101.56176758 C-11.62333435 100.55718002 -11.62508667 99.55259247 -11.62689209 98.51756287 C-11.6312586 95.22913842 -11.62839172 91.94076865 -11.625 88.65234375 C-11.62567437 86.35169972 -11.62664552 84.05105577 -11.62789917 81.75041199 C-11.62936896 76.94338295 -11.62724414 72.13637256 -11.62255859 67.3293457 C-11.61685209 61.17600177 -11.62015071 55.02270137 -11.62613106 48.86935902 C-11.62974785 44.12440158 -11.6285931 39.37945444 -11.62600327 34.63449669 C-11.6253376 32.36554649 -11.62614982 30.09659535 -11.62848282 27.82764626 C-11.63102874 24.65696364 -11.62714179 21.48635123 -11.62158203 18.31567383 C-11.62360626 17.3840744 -11.62563049 16.45247498 -11.62771606 15.49264526 C-11.61185668 10.59818423 -11.3211693 5.95856245 -10.4921875 1.1328125 C-6.93452052 0.32172564 -3.6461257 0.00439974 0 0 Z " fill="#000000" transform="translate(553.4921875,88.8671875)"/>
<path d="M0 0 C9.57 0 19.14 0 29 0 C31.25 7.125 31.25 7.125 31.93066406 9.33251953 C34.72585453 17.93507984 39.16126414 22.68742687 47 27 C53.92661709 30.45080563 60.4762002 30.60664475 68 29 C74.01227728 26.82889987 78.88214318 23.96565087 83 19 C83.70125 18.154375 84.4025 17.30875 85.125 16.4375 C87.41349 12.241935 88.36367099 8.15829879 89.38671875 3.51171875 C90 1 90 1 91 0 C93.0605531 -0.09993532 95.1245259 -0.13080906 97.1875 -0.1328125 C98.44304687 -0.13410156 99.69859375 -0.13539063 100.9921875 -0.13671875 C101.64928711 -0.13462402 102.30638672 -0.1325293 102.98339844 -0.13037109 C104.99161335 -0.12502234 106.99960459 -0.13031691 109.0078125 -0.13671875 C110.89113281 -0.13478516 110.89113281 -0.13478516 112.8125 -0.1328125 C113.97394531 -0.13168457 115.13539063 -0.13055664 116.33203125 -0.12939453 C119 0 119 0 120 1 C120.8184827 8.77558567 118.63347413 15.15166801 116.19140625 22.42578125 C115.3484541 24.95463769 114.58048417 27.40450183 114 30 C113.34 30 112.68 30 112 30 C111.79375 30.66 111.5875 31.32 111.375 32 C105.36773828 45.10675284 93.11430454 53.06433894 80 58 C64.57289206 63.49629757 47.49447518 62.39871307 32.71484375 55.45703125 C18.73014303 47.7309703 7.02743591 35.44339428 2 20 C0.05307891 13.02259495 0 7.49527771 0 0 Z " fill="#000000" transform="translate(51,150)"/>
<path d="M0 0 C10.24178568 6.97969612 16.90068674 17.10867909 20.0703125 29.0859375 C23.3968359 48.43599615 23.3968359 48.43599615 19.1875 54.75 C16.31420898 55.10644531 16.31420898 55.10644531 12.68359375 55.078125 C11.38615234 55.07296875 10.08871094 55.0678125 8.75195312 55.0625 C8.07527588 55.0521875 7.39859863 55.041875 6.70141602 55.03125 C4.62953718 55.00006828 2.55841842 54.99027769 0.48632812 54.984375 C-9.65884242 54.90365758 -9.65884242 54.90365758 -10.8125 53.75 C-10.98341518 50.10001131 -11.10941185 46.45637575 -11.15429688 42.80273438 C-11.35885237 37.03236669 -12.52540353 32.55880611 -15.8125 27.75 C-19.29112556 24.64434048 -22.83184091 23.75 -27.4375 23.75 C-31.31628788 24.89927048 -33.74372059 26.09969051 -36.8125 28.75 C-39.74865649 34.25704949 -40.2973103 38.9466395 -40.4375 45.125 C-40.70579268 53.64329268 -40.70579268 53.64329268 -41.8125 54.75 C-44.03105264 54.83783542 -46.25238496 54.85694609 -48.47265625 54.84765625 C-49.46935585 54.84553383 -49.46935585 54.84553383 -50.4861908 54.84336853 C-52.61583899 54.83775518 -54.74538339 54.82520054 -56.875 54.8125 C-58.31575369 54.80748671 -59.75650903 54.80292351 -61.19726562 54.79882812 C-64.73571102 54.78778145 -68.27409539 54.77050792 -71.8125 54.75 C-74.02967537 38.7766271 -72.61771269 23.18182347 -62.76953125 10.01953125 C-57.87364263 4.1531302 -52.67073698 0.08025165 -45.8125 -3.25 C-44.99394531 -3.6625 -44.17539062 -4.075 -43.33203125 -4.5 C-28.92530671 -10.77706001 -13.12237678 -7.78083942 0 0 Z " fill="#000000" transform="translate(91.8125,67.25)"/>
<path d="M0 0 C1.25232422 -0.00128906 2.50464844 -0.00257812 3.79492188 -0.00390625 C5.10912109 -0.00003906 6.42332031 0.00382812 7.77734375 0.0078125 C9.09541016 0.00394531 10.41347656 0.00007813 11.77148438 -0.00390625 C13.02251953 -0.00261719 14.27355469 -0.00132813 15.5625 0 C16.71758057 0.00112793 17.87266113 0.00225586 19.06274414 0.00341797 C21.71484375 0.1328125 21.71484375 0.1328125 22.71484375 1.1328125 C22.8243087 2.93228835 22.86393358 4.73605635 22.87597656 6.53881836 C22.88558411 7.69349106 22.89519165 8.84816376 22.90509033 10.03782654 C22.90934021 11.29507034 22.91359009 12.55231415 22.91796875 13.84765625 C22.92366882 15.12886856 22.9293689 16.41008087 22.9352417 17.7301178 C22.94575909 20.44630329 22.951597 23.16245911 22.95507812 25.87866211 C22.9605667 29.36380523 22.9845987 32.84855838 23.01305008 36.33357906 C23.03612191 39.65076465 23.03812244 42.96789451 23.04296875 46.28515625 C23.05531555 47.54037582 23.06766235 48.7955954 23.0803833 50.08885193 C23.0773822 51.24667679 23.0743811 52.40450165 23.07128906 53.59741211 C23.07493469 54.62031845 23.07858032 55.64322479 23.08233643 56.6971283 C22.96106384 57.50090408 22.83979126 58.30467987 22.71484375 59.1328125 C19.29974534 61.40954478 18.06742561 61.37954879 14.05859375 61.36328125 C12.95386719 61.36134766 11.84914062 61.35941406 10.7109375 61.35742188 C9.55722656 61.34517578 8.40351563 61.33292969 7.21484375 61.3203125 C6.06113281 61.31966797 4.90742188 61.31902344 3.71875 61.31835938 C-4.86371193 61.27329394 -4.86371193 61.27329394 -8.28515625 60.1328125 C-8.28515625 40.6628125 -8.28515625 21.1928125 -8.28515625 1.1328125 C-5.4791336 -0.27019883 -3.13497258 0.0030583 0 0 Z " fill="#000000" transform="translate(148.28515625,60.8671875)"/>
<path d="M0 0 C11.88 0 23.76 0 36 0 C36.62123517 6.83358685 37.18151366 13.42557083 37.1875 20.25 C37.19974609 21.00023438 37.21199219 21.75046875 37.22460938 22.5234375 C37.22654297 23.26335938 37.22847656 24.00328125 37.23046875 24.765625 C37.23457764 25.41305664 37.23868652 26.06048828 37.24291992 26.72753906 C36.90491667 29.88948301 35.87360177 32.9423938 35 36 C23.45 36 11.9 36 0 36 C-1.00755302 32.97734095 -1.12898994 30.93359889 -1.1328125 27.7734375 C-1.13410156 26.74089844 -1.13539063 25.70835938 -1.13671875 24.64453125 C-1.13285156 23.56558594 -1.12898437 22.48664062 -1.125 21.375 C-1.12886719 20.31925781 -1.13273438 19.26351562 -1.13671875 18.17578125 C-1.13542969 17.13550781 -1.13414062 16.09523438 -1.1328125 15.0234375 C-1.13168457 14.08419434 -1.13055664 13.14495117 -1.12939453 12.17724609 C-0.96351495 8.10411994 -0.45017439 4.05156954 0 0 Z " fill="#000000" transform="translate(543,40)"/>
<path d="" fill="#000000" transform="translate(0,0)"/>
<path d="" fill="#FFFFFF" transform="translate(0,0)"/>
<path d="" fill="#FFFFFF" transform="translate(0,0)"/>
<path d="" fill="#FFFFFF" transform="translate(0,0)"/>
<path d="" fill="#000000" transform="translate(0,0)"/>
<path d="" fill="#FFFFFF" transform="translate(0,0)"/>
<path d="" fill="#000000" transform="translate(0,0)"/>
<path d="" fill="#FFFFFF" transform="translate(0,0)"/>
<path d="" fill="#FFFFFF" transform="translate(0,0)"/>
<path d="" fill="#000000" transform="translate(0,0)"/>
<path d="" fill="#000000" transform="translate(0,0)"/>
<path d="" fill="#FFFFFF" transform="translate(0,0)"/>
<path d="" fill="#FFFFFF" transform="translate(0,0)"/>
<path d="" fill="#FFFFFF" transform="translate(0,0)"/>
<path d="" fill="#FFFFFF" transform="translate(0,0)"/>
<path d="" fill="#FFFFFF" transform="translate(0,0)"/>
<path d="" fill="#FFFFFF" transform="translate(0,0)"/>
<path d="" fill="#FFFFFF" transform="translate(0,0)"/>
<path d="" fill="#FFFFFF" transform="translate(0,0)"/>
<path d="" fill="#000000" transform="translate(0,0)"/>
<path d="" fill="#000000" transform="translate(0,0)"/>
<path d="" fill="#FFFFFF" transform="translate(0,0)"/>
<path d="" fill="#FFFFFF" transform="translate(0,0)"/>
<path d="" fill="#FFFFFF" transform="translate(0,0)"/>
<path d="" fill="#000000" transform="translate(0,0)"/>
<path d="" fill="#FFFFFF" transform="translate(0,0)"/>
<path d="" fill="#FFFFFF" transform="translate(0,0)"/>
<path d="" fill="#FFFFFF" transform="translate(0,0)"/>
<path d="" fill="#FFFFFF" transform="translate(0,0)"/>
<path d="" fill="#FFFFFF" transform="translate(0,0)"/>
<path d="" fill="#FFFFFF" transform="translate(0,0)"/>
<path d="" fill="#000000" transform="translate(0,0)"/>
<path d="" fill="#FFFFFF" transform="translate(0,0)"/>
<path d="" fill="#FFFFFF" transform="translate(0,0)"/>
<path d="" fill="#FFFFFF" transform="translate(0,0)"/>
<path d="" fill="#FFFFFF" transform="translate(0,0)"/>
<path d="" fill="#FFFFFF" transform="translate(0,0)"/>
<path d="" fill="#FFFFFF" transform="translate(0,0)"/>
<path d="" fill="#FFFFFF" transform="translate(0,0)"/>
<path d="" fill="#FFFFFF" transform="translate(0,0)"/>
<path d="" fill="#FFFFFF" transform="translate(0,0)"/>
<path d="" fill="#FFFFFF" transform="translate(0,0)"/>
<path d="" fill="#FFFFFF" transform="translate(0,0)"/>
<path d="" fill="#FFFFFF" transform="translate(0,0)"/>
<path d="" fill="#FFFFFF" transform="translate(0,0)"/>
<path d="" fill="#000000" transform="translate(0,0)"/>
<path d="" fill="#FFFFFF" transform="translate(0,0)"/>
<path d="" fill="#FFFFFF" transform="translate(0,0)"/>
<path d="" fill="#000000" transform="translate(0,0)"/>
<path d="" fill="#FFFFFF" transform="translate(0,0)"/>
<path d="" fill="#FFFFFF" transform="translate(0,0)"/>
<path d="" fill="#000000" transform="translate(0,0)"/>
<path d="" fill="#FFFFFF" transform="translate(0,0)"/>
<path d="" fill="#FFFFFF" transform="translate(0,0)"/>
<path d="" fill="#FFFFFF" transform="translate(0,0)"/>
<path d="" fill="#FFFFFF" transform="translate(0,0)"/>
<path d="" fill="#000000" transform="translate(0,0)"/>
<path d="" fill="#FFFFFF" transform="translate(0,0)"/>
<path d="" fill="#FFFFFF" transform="translate(0,0)"/>
<path d="" fill="#FFFFFF" transform="translate(0,0)"/>
<path d="" fill="#000000" transform="translate(0,0)"/>
<path d="" fill="#FFFFFF" transform="translate(0,0)"/>
<path d="" fill="#FFFFFF" transform="translate(0,0)"/>
<path d="" fill="#FFFFFF" transform="translate(0,0)"/>
<path d="" fill="#FFFFFF" transform="translate(0,0)"/>
<path d="" fill="#000100" transform="translate(0,0)"/>
<path d="" fill="#FFFFFF" transform="translate(0,0)"/>
<path d="" fill="#FFFFFF" transform="translate(0,0)"/>
<path d="" fill="#FFFFFF" transform="translate(0,0)"/>
<path d="" fill="#FFFFFF" transform="translate(0,0)"/>
<path d="" fill="#FFFFFF" transform="translate(0,0)"/>
<path d="" fill="#FFFFFF" transform="translate(0,0)"/>
<path d="" fill="#000000" transform="translate(0,0)"/>
<path d="" fill="#000000" transform="translate(0,0)"/>
<path d="" fill="#FFFFFF" transform="translate(0,0)"/>
<path d="" fill="#FFFFFF" transform="translate(0,0)"/>
</svg>
