<?xml version="1.0" standalone="no"?>
<!DOCTYPE svg PUBLIC "-//W3C//DTD SVG 20010904//EN"
 "http://www.w3.org/TR/2001/REC-SVG-20010904/DTD/svg10.dtd">
<svg version="1.0" xmlns="http://www.w3.org/2000/svg"
 width="1080.000000pt" height="1080.000000pt" viewBox="0 0 1080.000000 1080.000000"
 preserveAspectRatio="xMidYMid meet">
<metadata>
Created by potrace 1.16, written by Peter Selinger 2001-2019
</metadata>
<g transform="translate(0.000000,1080.000000) scale(0.100000,-0.100000)"
fill="#000000" stroke="none">
<path d="M4211 10364 c-188 -50 -345 -218 -380 -406 l-13 -65 -62 33 c-103 55
-284 88 -336 62 -33 -17 -67 -87 -76 -156 -6 -51 5 -165 20 -202 5 -13 -7 -14
-83 -12 -106 5 -176 -13 -247 -60 -27 -18 -57 -49 -66 -68 -24 -48 -23 -143 2
-198 28 -61 118 -152 216 -217 46 -31 84 -59 84 -64 0 -5 -7 -15 -16 -22 -9
-8 -27 -30 -40 -50 -17 -27 -32 -38 -59 -43 -43 -8 -99 -56 -125 -106 -17 -33
-24 -38 -65 -42 -27 -3 -67 -19 -96 -37 -47 -29 -52 -30 -72 -16 -28 19 -107
19 -154 0 -29 -12 -43 -13 -70 -4 -39 12 -118 -1 -164 -28 -23 -14 -33 -15
-54 -5 -63 29 -176 -1 -241 -63 -37 -35 -48 -40 -91 -41 -28 0 -65 -10 -89
-22 -39 -20 -104 -83 -104 -102 0 -5 -24 -14 -53 -20 -70 -14 -123 -58 -153
-127 -16 -35 -30 -53 -41 -53 -35 0 -142 -59 -182 -100 -38 -40 -62 -92 -77
-170 -4 -26 -19 -45 -59 -77 -66 -53 -146 -170 -175 -258 -17 -53 -21 -83 -18
-148 4 -90 20 -133 72 -193 l32 -37 -24 -46 c-28 -56 -24 -117 13 -191 21 -42
75 -100 93 -100 4 0 6 -20 4 -44 -6 -70 41 -135 121 -165 17 -7 27 -18 27 -31
0 -39 29 -78 75 -100 31 -15 45 -28 45 -41 0 -56 56 -107 143 -131 30 -8 47
-18 47 -28 0 -26 38 -78 69 -95 17 -8 55 -15 85 -15 49 0 54 -2 49 -20 -5 -20
21 -51 91 -108 19 -16 26 -29 21 -40 -19 -48 -17 -72 9 -117 35 -59 97 -94
242 -135 120 -35 220 -85 217 -110 -1 -8 -11 -40 -22 -70 -40 -109 -24 -265
40 -392 35 -69 126 -167 177 -189 17 -7 32 -16 32 -19 0 -3 -15 -7 -32 -8 -44
-3 -134 -30 -178 -52 -53 -27 -133 -103 -170 -160 -18 -28 -44 -85 -58 -128
-24 -70 -26 -92 -27 -242 0 -187 9 -250 66 -425 50 -155 139 -333 284 -570 65
-104 131 -216 148 -247 l30 -57 -30 -38 c-99 -124 -124 -293 -56 -373 70 -84
192 -85 299 -3 25 19 49 32 52 29 10 -11 -37 -52 -103 -91 -36 -21 -65 -40
-65 -43 0 -3 33 -2 73 1 81 7 152 29 244 75 34 18 64 28 66 24 2 -4 8 -25 12
-46 13 -77 72 -171 171 -276 23 -25 61 -72 84 -105 l42 -60 -6 65 c-4 36 -9
94 -12 130 l-5 65 20 -25 c84 -102 69 -363 -26 -459 l-34 -34 33 7 c58 12 111
46 192 124 43 42 80 72 82 66 22 -57 100 -159 211 -275 185 -192 226 -261 253
-419 23 -136 94 -312 178 -439 54 -82 186 -210 273 -264 176 -109 394 -166
634 -167 451 0 778 172 974 514 55 97 106 241 126 358 16 91 69 222 101 249
10 8 123 -26 496 -150 266 -89 491 -161 501 -161 34 0 115 49 155 95 57 65 75
126 70 234 -6 98 -34 184 -76 229 -31 33 -92 49 -397 107 l-170 32 -13 39
c-22 62 -11 198 21 268 14 31 31 56 36 56 14 0 14 -4 -5 -122 -17 -111 -14
-141 9 -86 8 20 54 73 101 119 69 66 93 97 125 163 22 44 45 103 52 129 6 26
14 47 18 45 3 -2 41 -20 83 -41 42 -21 107 -44 145 -52 123 -26 180 -14 100
21 -45 20 -117 80 -117 96 0 6 16 -2 35 -16 178 -136 368 -60 352 140 -5 72
-47 171 -96 226 -17 20 -31 39 -31 42 0 10 94 171 205 351 182 295 269 494
311 710 23 121 24 335 1 429 -39 158 -134 277 -274 343 -134 64 -260 65 -377
4 l-53 -28 -21 32 c-12 17 -22 34 -22 37 0 2 24 10 54 17 108 24 178 92 237
230 37 87 36 95 -7 66 -75 -51 -222 -57 -351 -14 -57 19 -150 75 -140 85 2 2
24 -3 48 -11 97 -35 218 -29 270 14 l23 19 -34 7 c-57 12 -129 56 -176 108
l-44 49 60 58 c77 75 120 161 120 243 0 67 -9 88 -57 139 -34 35 -34 37 -15
47 27 15 86 106 106 166 56 168 8 389 -111 508 l-47 48 19 36 c11 20 56 66
100 103 107 90 161 150 191 213 30 66 30 95 -1 141 -14 20 -25 41 -25 46 0 5
14 37 32 70 25 48 29 64 21 83 -9 20 -6 24 40 47 67 33 90 66 89 127 0 43 3
50 43 85 56 50 79 98 71 153 -4 32 -1 46 10 56 31 26 47 71 41 120 -5 39 -2
50 15 65 29 26 58 92 58 134 0 19 -8 48 -18 64 -17 29 -17 31 5 74 28 54 31
144 7 200 -17 43 -61 92 -82 92 -7 0 -11 6 -8 13 56 133 40 237 -52 354 -69
86 -218 180 -316 198 -26 5 -41 16 -56 40 -63 101 -162 149 -297 143 -76 -3
-76 -3 -112 34 -49 48 -107 64 -179 50 -50 -11 -56 -10 -92 14 -55 37 -141 43
-203 16 l-46 -20 -38 20 c-71 37 -208 14 -262 -43 -15 -16 -26 -20 -47 -15
-39 10 -130 -12 -163 -40 -19 -16 -41 -24 -67 -24 -49 0 -114 -30 -140 -62
-15 -19 -24 -23 -39 -17 -31 12 -106 9 -147 -5 -35 -13 -38 -12 -64 15 -37 39
-85 53 -154 46 -46 -5 -61 -3 -71 9 -7 8 -30 24 -51 35 -25 13 -36 24 -32 32
4 7 25 38 47 70 21 32 55 93 75 135 33 68 37 86 37 152 0 85 -22 139 -75 183
-76 65 -218 60 -353 -10 -28 -15 -55 -29 -58 -31 -3 -1 -12 25 -19 60 -21 109
-90 215 -167 256 -43 23 -231 -97 -305 -194 l-40 -54 -27 42 c-110 173 -366
274 -560 222z m219 -136 c139 -84 202 -259 214 -593 6 -156 -2 -134 -28 76
-33 266 -102 426 -226 522 -48 37 -26 34 40 -5z m-304 -79 c-69 -137 -53 -352
49 -648 14 -41 23 -76 21 -78 -7 -7 -89 203 -119 302 -37 125 -43 278 -14 361
15 44 83 141 93 132 1 -2 -12 -33 -30 -69z m281 38 c78 -54 84 -69 84 -230 0
-146 -11 -289 -36 -459 -8 -54 -15 -101 -15 -105 0 -11 -38 47 -122 187 -92
155 -135 239 -183 358 l-37 92 22 54 c20 51 62 100 105 125 11 6 47 10 81 8
48 -2 71 -9 101 -30z m640 -24 c-40 -79 -93 -228 -142 -403 -55 -197 -54 -194
-60 -189 -7 7 25 170 51 261 14 49 41 128 60 175 18 48 32 88 30 90 -4 4 -106
-105 -128 -137 l-18 -25 11 29 c16 48 94 150 156 205 31 28 58 49 60 47 3 -2
-7 -26 -20 -53z m534 -180 c9 -10 14 -40 14 -82 -1 -101 -40 -163 -195 -306
-41 -38 -56 -49 -34 -25 79 86 135 162 170 233 l36 72 -54 -56 c-62 -66 -133
-119 -160 -119 -38 0 -10 105 52 195 l33 48 -39 -27 c-21 -14 -42 -26 -47 -26
-19 0 -124 -101 -198 -189 -43 -51 -127 -164 -186 -250 -122 -178 -173 -247
-173 -236 0 35 307 506 390 598 74 82 175 149 270 181 37 11 108 6 121 -11z
m-1853 -168 c28 -15 66 -41 84 -56 l33 -29 -36 20 c-33 19 -156 70 -167 70 -3
0 38 -44 90 -98 86 -89 232 -272 259 -325 11 -22 11 -22 -8 -2 -11 11 -68 77
-127 147 -136 161 -242 275 -295 313 -22 17 -41 33 -41 37 0 10 151 -46 208
-77z m3127 -287 c45 -20 29 -56 -44 -93 -23 -12 -47 -15 -75 -12 l-41 6 29
-16 c19 -10 45 -14 78 -11 26 3 48 3 48 1 0 -2 -15 -10 -34 -18 -75 -32 -164
34 -135 98 23 50 112 73 174 45z m251 -10 c16 -12 31 -23 33 -25 8 -6 -53 -64
-81 -79 -33 -17 -70 -18 -86 -2 -6 6 -14 9 -18 6 -8 -9 41 -39 79 -48 30 -8
30 -8 -14 -9 -52 -1 -75 17 -85 66 -8 38 8 69 49 93 42 26 87 25 123 -2z
m-3650 -8 c43 -11 115 -38 159 -59 131 -65 594 -371 561 -371 -10 0 -14 2
-226 132 -85 52 -189 113 -230 136 -102 56 -276 123 -325 127 -22 1 -56 5 -75
9 l-35 7 40 -22 c60 -32 120 -84 143 -124 20 -33 20 -35 3 -44 -22 -12 -115 8
-197 43 l-59 26 55 -50 c32 -30 95 -70 155 -100 55 -27 96 -50 92 -50 -16 0
-194 72 -233 95 -84 50 -146 147 -130 208 14 55 158 73 302 37z m3893 -35 c27
-13 41 -33 41 -57 0 -5 -16 4 -35 21 -20 18 -47 31 -62 31 l-26 0 27 -21 c19
-15 26 -30 26 -54 0 -37 -19 -54 -62 -57 -13 0 -3 -4 22 -8 42 -6 43 -7 17
-14 -41 -12 -97 2 -129 34 -65 66 -11 139 105 140 26 0 61 -7 76 -15z m-1684
-61 c47 -22 49 -39 10 -79 -39 -38 -90 -53 -126 -35 l-24 11 24 -20 c15 -14
37 -21 63 -21 23 0 37 -4 33 -10 -9 -15 -72 -12 -105 5 -74 38 -63 121 20 154
37 14 68 13 105 -5z m-231 -26 c16 -26 -31 -69 -86 -79 -37 -7 -34 -8 20 -5
66 4 74 -7 17 -23 -72 -20 -154 23 -136 72 18 51 158 78 185 35z m2214 -3 c64
-27 113 -87 112 -137 -1 -18 -6 -13 -22 20 -26 54 -79 90 -143 98 l-50 6 50
-25 c90 -44 130 -106 96 -148 -16 -20 -29 -24 -69 -24 -28 0 -49 -1 -48 -2 1
-2 20 -9 42 -17 39 -14 39 -14 12 -21 -77 -20 -208 87 -208 170 0 39 17 65 53
80 43 19 129 19 175 0z m-1794 -29 c20 -8 37 -25 46 -45 12 -29 11 -35 -7 -59
-57 -77 -190 -45 -181 42 2 25 11 35 48 54 52 26 51 26 94 8z m313 -55 c52
-24 80 -72 64 -107 -15 -33 -26 -30 -27 6 -2 46 -63 101 -111 100 -12 -1 -7
-5 12 -14 31 -13 55 -51 55 -86 0 -30 -36 -60 -72 -61 l-33 -1 40 -13 40 -13
-45 -1 c-58 -1 -109 26 -134 71 -17 31 -18 39 -6 68 28 67 128 91 217 51z
m1074 -46 c28 -15 70 -44 94 -66 23 -22 83 -61 131 -87 98 -53 107 -64 212
-246 12 -22 29 -47 36 -55 8 -9 21 -32 29 -51 9 -19 30 -51 48 -70 50 -55 59
-89 63 -228 2 -70 11 -158 20 -195 15 -65 15 -69 -4 -107 -15 -29 -20 -59 -20
-117 0 -69 -5 -88 -40 -168 -46 -102 -46 -102 -24 -84 15 12 16 11 11 -6 -3
-11 -9 -32 -13 -47 -3 -16 -10 -28 -14 -28 -4 0 -10 -23 -12 -50 -4 -34 -11
-55 -24 -65 -10 -7 -20 -12 -22 -10 -2 2 10 74 27 162 82 427 89 630 30 844
-85 309 -320 562 -628 681 l-76 29 63 -5 c38 -4 82 -16 113 -31z m725 -91
c112 -53 200 -217 192 -359 -4 -86 -30 -129 -88 -146 -86 -26 -175 24 -257
144 -81 119 -113 249 -78 317 34 65 143 86 231 44z m-1016 -14 c194 -56 350
-177 475 -370 47 -72 119 -210 112 -216 -2 -2 -52 19 -112 47 -160 75 -270
101 -421 97 l-122 -3 -26 47 c-34 61 -101 129 -170 173 -53 33 -55 36 -49 70
7 46 -20 117 -58 149 -39 33 -27 36 151 31 110 -2 163 -8 220 -25z m-1122 -9
c41 -14 52 -15 48 -5 -10 25 9 14 38 -22 30 -38 95 -73 134 -74 12 0 22 -4 22
-10 0 -13 3 -13 -60 6 -29 9 -70 27 -92 40 -50 32 -49 18 3 -31 115 -112 303
-397 324 -492 13 -60 20 -42 21 55 1 54 6 110 11 126 7 22 9 2 9 -75 -1 -93 2
-110 26 -159 15 -30 55 -89 90 -130 l63 -75 -50 36 c-28 19 -66 56 -85 82 -19
25 -36 44 -38 42 -2 -2 8 -28 22 -58 15 -30 36 -92 47 -138 20 -79 21 -85 5
-141 -26 -93 -16 -241 20 -293 13 -18 14 -16 14 25 0 25 4 60 10 79 12 44 51
101 68 101 9 0 4 -11 -12 -30 -48 -57 -55 -142 -19 -214 11 -22 12 -31 3 -40
-9 -8 -16 -6 -27 11 -13 19 -17 20 -31 7 -9 -7 -26 -20 -36 -28 -16 -10 -22
-35 -32 -114 -11 -91 -33 -175 -100 -382 -13 -41 -33 -107 -44 -147 -16 -56
-28 -78 -56 -103 -20 -17 -38 -29 -40 -27 -2 2 13 44 35 93 80 184 138 392
166 599 21 150 16 488 -9 635 -46 263 -163 485 -343 649 -62 57 -207 161 -265
190 -15 8 -25 18 -22 23 9 15 128 8 182 -11z m623 -16 c73 -48 97 -117 62
-176 -23 -39 -29 -37 -31 12 -2 52 -33 108 -76 137 -41 28 -57 29 -21 0 55
-43 73 -138 33 -175 -35 -31 -69 -35 -107 -12 -20 12 -31 15 -29 7 2 -6 24
-22 49 -35 l44 -22 -32 -1 c-89 -1 -173 81 -173 169 0 38 42 88 95 113 54 26
133 19 186 -17z m-1161 -75 c140 -39 327 -147 450 -259 l55 -50 -80 25 c-194
59 -480 83 -649 54 -33 -5 -61 -9 -62 -7 -1 1 -9 18 -19 37 -10 19 -45 63 -77
97 l-60 62 44 22 c100 53 250 59 398 19z m-1592 -16 c32 -22 28 -57 -13 -92
-37 -33 -100 -51 -116 -35 -7 7 3 12 28 16 21 4 47 13 58 21 18 13 15 13 -22
3 -48 -12 -89 -3 -107 25 -14 23 7 44 60 63 52 19 85 18 112 -1z m-224 -95
c44 -35 26 -113 -34 -144 -43 -22 -73 -20 -35 4 17 10 39 28 50 41 l20 23 -28
-18 c-34 -22 -129 -17 -155 9 -15 15 -15 19 -2 44 32 58 134 81 184 41z m1177
-15 c72 -65 17 -148 -108 -162 -80 -9 -123 16 -123 71 0 41 22 72 68 97 47 26
131 23 163 -6z m-439 -50 c4 -3 -5 -30 -19 -60 -14 -30 -30 -84 -36 -119 l-11
-64 -108 -35 c-184 -60 -349 -153 -505 -285 -40 -34 -73 -59 -73 -56 0 16 100
202 146 272 116 175 239 269 454 346 20 7 145 8 152 1z m2380 -16 c82 -24 158
-128 179 -245 21 -111 -21 -216 -103 -259 -35 -18 -101 -18 -137 0 -90 47
-169 259 -142 380 14 64 45 103 96 121 50 18 58 18 107 3z m-1732 -134 c189
-274 303 -726 261 -1039 -13 -94 -40 -205 -50 -205 -3 0 -3 39 1 88 10 133 9
170 -2 152 -5 -8 -10 -28 -10 -45 0 -16 -5 -37 -11 -45 -7 -11 -9 16 -5 93 2
59 1 120 -4 136 -5 18 -3 63 4 113 l12 83 7 -60 c3 -33 10 -94 13 -135 7 -71
8 -73 17 -40 15 58 2 284 -23 370 -27 95 -89 227 -122 260 -26 26 -41 51 -58
94 -13 34 -5 33 14 -1 8 -16 15 -21 15 -13 1 24 -71 179 -113 245 -53 82 -11
43 54 -51z m-1554 71 c22 -34 11 -88 -23 -115 -57 -44 -153 -16 -153 46 0 57
45 93 117 94 35 0 46 -5 59 -25z m1044 -105 c-5 -29 -10 -109 -10 -179 1 -115
2 -123 15 -96 l13 30 1 -32 c1 -18 -5 -52 -13 -75 -50 -150 -15 -402 83 -596
41 -82 70 -104 40 -31 -30 74 -70 201 -66 206 2 2 19 -26 36 -62 18 -36 36
-65 41 -65 5 0 12 -17 15 -37 4 -21 16 -58 27 -83 50 -110 67 -150 64 -150 -2
0 -18 23 -35 50 -17 28 -33 50 -36 50 -8 0 14 -49 67 -148 50 -94 50 -96 19
-67 -74 68 -171 244 -226 408 -58 174 -76 281 -82 488 -6 184 5 294 38 412 15
55 21 40 9 -23z m1230 7 c116 -28 329 -99 364 -122 12 -8 33 -34 46 -57 l24
-42 -50 41 c-89 74 -218 126 -384 154 -87 15 -367 18 -486 6 -72 -8 -82 -7
-88 9 -3 9 -4 19 -2 21 14 14 132 21 291 18 149 -3 198 -8 285 -28z m-857 -1
c47 -19 87 -70 87 -111 0 -72 -123 -139 -255 -140 -107 0 -155 41 -141 120 8
41 62 101 116 127 43 21 147 24 193 4z m-1297 -28 c-103 -145 -165 -256 -205
-372 -102 -291 -75 -586 88 -971 107 -252 253 -466 468 -685 72 -74 131 -136
129 -137 -1 -1 -19 2 -39 8 -25 7 -53 29 -94 75 -32 36 -84 96 -117 132 -32
37 -73 83 -90 102 -54 59 -100 122 -146 198 -42 71 -54 82 -112 96 -25 6 -28
4 -28 -19 0 -18 -5 -25 -19 -25 -14 0 -17 6 -13 25 7 37 -16 115 -44 153 -14
17 -42 41 -62 52 -27 14 -32 19 -17 20 40 0 93 -47 123 -111 25 -52 31 -58 36
-41 8 25 -9 127 -29 174 -7 18 -29 53 -48 78 -19 25 -41 59 -50 76 -17 32 -36
160 -38 249 l-1 50 -13 -53 c-14 -56 -60 -156 -81 -173 -7 -5 1 25 18 67 16
43 32 101 35 130 7 64 -12 174 -38 225 -11 22 -17 39 -14 39 10 0 58 -85 75
-134 l19 -51 1 70 c3 184 33 362 89 530 17 49 29 91 27 93 -2 1 -13 -12 -25
-31 -24 -39 -105 -117 -121 -117 -6 0 13 24 43 53 41 40 56 63 66 102 10 36
15 45 20 32 6 -16 10 -14 36 14 30 31 147 98 174 99 11 0 10 -5 -3 -22z m-347
1 c97 -34 50 -188 -65 -214 -28 -7 -28 -7 9 19 44 32 48 40 8 20 -74 -37 -137
61 -79 123 12 13 17 23 11 23 -16 0 -62 -58 -70 -88 -3 -14 -1 -38 5 -54 13
-35 -9 -39 -32 -6 -44 62 15 145 124 179 36 11 53 10 89 -2z m5142 -22 c49
-32 74 -87 60 -130 -21 -62 -87 -108 -154 -106 -27 0 -29 2 -12 9 18 8 18 9
-6 9 -35 1 -70 41 -76 89 -9 68 1 90 50 103 23 6 53 19 67 30 32 23 31 23 71
-4z m-1001 -70 c156 -40 380 -152 380 -190 0 -17 -5 -15 -35 12 -20 17 -57 42
-83 55 -109 55 -380 116 -517 116 -81 0 -104 8 -89 31 12 20 235 4 344 -24z
m-4896 3 c15 -5 31 -21 38 -34 23 -52 -38 -126 -105 -126 -35 0 -28 15 11 23
27 5 87 45 79 53 -2 2 -18 -3 -36 -12 -39 -20 -125 -15 -148 8 -22 23 -1 55
50 79 47 21 74 23 111 9z m1876 -65 c0 -21 -7 -26 -57 -40 -148 -40 -358 -138
-491 -227 -104 -69 -209 -178 -251 -258 l-33 -65 5 47 c6 58 22 79 150 196
180 163 352 267 559 337 57 19 106 35 111 35 4 0 7 -11 7 -25z m-2092 -55 c28
-17 32 -25 32 -60 0 -47 -34 -90 -71 -90 -19 0 -18 3 11 23 18 12 37 33 42 46
9 25 9 25 -16 -2 -19 -21 -34 -27 -66 -27 -48 0 -110 24 -110 42 0 23 31 60
64 74 44 19 76 17 114 -6z m842 -55 c75 -39 81 -156 12 -228 -29 -31 -81 -62
-89 -54 -2 3 5 10 16 16 18 10 51 59 51 76 0 3 -12 -8 -27 -25 -16 -16 -42
-33 -60 -36 -27 -5 -37 -1 -63 24 -26 26 -30 38 -30 82 0 28 5 60 10 71 18 32
1 21 -20 -13 -24 -39 -27 -120 -6 -160 8 -16 13 -28 10 -28 -16 0 -65 33 -74
49 -13 25 -13 82 1 118 14 37 66 92 104 109 41 18 129 17 165 -1z m1927 -43
c50 -26 79 -64 92 -121 14 -66 -1 -110 -57 -162 -73 -67 -151 -94 -272 -94
-83 0 -101 3 -139 25 -57 33 -82 67 -88 124 -14 122 83 217 257 250 57 11 165
-1 207 -22z m3363 -12 c48 -48 5 -127 -81 -150 -134 -36 -241 50 -160 130 27
27 36 30 95 30 62 0 66 -1 81 -30 18 -35 19 -63 4 -93 -12 -22 -12 -22 9 -3
27 23 37 72 23 109 -13 33 0 36 29 7z m-6301 -27 c18 -21 22 -34 17 -62 -7
-45 -51 -89 -96 -96 l-35 -6 33 18 c41 21 42 35 1 20 -28 -11 -33 -10 -50 12
-23 28 -24 59 -3 89 8 12 12 22 7 22 -20 -1 -55 -39 -67 -75 -12 -33 -14 -36
-20 -17 -15 45 39 106 107 122 46 12 79 3 106 -27z m273 -3 c-154 -84 -313
-253 -401 -427 -70 -141 -102 -280 -102 -447 0 -282 91 -501 374 -900 54 -76
96 -140 93 -143 -12 -13 -49 12 -69 48 -12 21 -26 39 -30 39 -10 0 -42 35 -58
64 -10 16 -9 18 5 13 9 -4 -19 28 -62 71 -63 61 -84 89 -101 136 -13 35 -36
72 -59 95 -31 29 -41 48 -51 98 -16 82 -55 197 -79 231 -30 42 -36 104 -18
180 14 59 38 215 52 337 11 92 17 106 74 180 33 43 75 109 94 149 38 79 92
140 146 165 43 19 151 103 167 129 8 14 19 18 43 14 l32 -5 -50 -27z m362 -27
c-19 -54 -17 -101 7 -150 l20 -42 -24 -33 c-51 -68 -97 -193 -97 -265 0 -25
-6 -30 -52 -47 -175 -60 -307 -160 -460 -346 l-37 -45 0 50 c-1 28 4 90 9 140
43 368 210 599 539 741 104 45 112 44 95 -3z m4141 -17 c65 -27 89 -105 50
-159 -48 -64 -187 -90 -240 -44 -62 52 -34 149 55 195 51 26 87 28 135 8z
m-4987 -151 c61 -71 -27 -265 -122 -265 -17 0 -15 4 14 30 l35 30 -37 -15
c-48 -19 -67 -19 -90 2 -46 41 -6 143 77 194 45 28 8 23 -41 -6 -58 -34 -86
-76 -94 -144 l-6 -56 -11 35 c-17 62 15 136 79 181 76 54 155 60 196 14z
m6396 12 c28 -21 23 -67 -10 -95 -28 -24 -28 -25 -4 -18 31 9 80 60 81 84 0
14 2 14 8 -3 18 -45 -32 -90 -113 -101 -84 -12 -142 36 -114 94 21 43 114 67
152 39z m-5222 -117 c54 -61 73 -125 73 -250 0 -90 -3 -112 -24 -153 -27 -56
-62 -77 -127 -77 -124 0 -216 124 -217 295 -1 70 3 87 28 133 63 115 188 140
267 52z m3829 -39 c23 -23 29 -38 29 -72 0 -83 -62 -139 -154 -139 -61 0 -92
16 -111 57 -20 42 -13 82 23 125 33 39 75 57 135 58 41 0 53 -5 78 -29z m1337
-17 c44 -12 15 -108 -36 -120 -47 -10 -48 -12 -8 -13 31 -1 45 6 72 33 22 22
34 44 34 61 0 15 4 24 10 20 19 -12 11 -71 -12 -93 -79 -73 -218 -50 -218 36
0 53 31 82 89 82 25 0 56 -3 69 -6z m-3163 -54 c53 -49 54 -130 2 -178 -53
-49 -200 -72 -251 -38 -67 44 -81 126 -30 177 64 64 228 87 279 39z m-3376
-105 c46 -39 66 -104 66 -215 0 -207 -80 -340 -204 -340 -87 0 -151 102 -159
251 -8 150 40 253 140 303 67 34 117 34 157 1z m6432 -35 c36 -20 18 -75 -31
-93 -10 -3 -6 -6 9 -6 14 -1 37 13 57 33 33 33 34 33 34 10 0 -54 -118 -86
-160 -44 -27 27 -25 56 5 85 26 27 54 31 86 15z m-1291 -72 c13 -15 20 -35 20
-63 0 -104 -119 -177 -210 -130 -72 37 -44 161 45 201 49 22 121 18 145 -8z
m-4140 -31 c0 -7 -42 -33 -93 -58 -175 -88 -391 -266 -447 -370 -22 -42 -35
-57 -40 -48 -10 15 26 70 113 176 91 112 233 220 371 284 67 31 96 36 96 16z
m481 -190 c114 -77 50 -210 -102 -210 -95 0 -149 51 -135 126 7 36 46 80 86
96 46 18 114 13 151 -12z m1937 -21 c101 -53 149 -192 139 -404 -8 -186 -21
-180 -27 13 -5 161 -6 173 -33 227 -16 32 -41 67 -58 78 -34 25 -36 21 -12
-23 33 -59 20 -358 -15 -357 -14 0 -86 107 -115 170 -20 45 -31 87 -35 134
l-5 69 -18 -34 c-42 -80 -32 -166 37 -323 71 -162 68 -152 51 -137 -25 20
-126 231 -142 296 -35 141 -1 250 90 291 40 17 109 17 143 0z m2939 -21 c-8
-51 -59 -118 -173 -230 -56 -55 -110 -112 -119 -127 -15 -24 -45 -39 -45 -23
0 31 126 216 215 315 93 105 132 125 122 65z m-1357 5 c25 -25 27 -86 4 -119
-52 -74 -179 -53 -176 28 2 83 119 144 172 91z m-1272 -130 c46 -28 72 -76 72
-134 0 -61 -23 -152 -60 -233 -29 -63 -80 -127 -87 -107 -6 18 68 318 80 326
6 4 15 4 19 2 12 -8 9 28 -5 53 -17 30 -58 60 -93 69 -28 7 -44 20 -44 37 0
15 86 6 118 -13z m-2143 -80 c118 -57 89 -190 -47 -215 -127 -24 -231 135
-131 201 58 38 119 43 178 14z m3313 4 c42 -29 21 -113 -33 -134 -14 -5 -38
-5 -59 1 -80 22 -71 104 14 138 36 14 53 13 78 -5z m-5008 -23 c43 9 48 6 71
-45 27 -59 24 -92 -10 -127 -32 -31 -27 -36 14 -17 48 22 69 99 45 164 -9 23
-8 25 4 15 22 -18 39 -68 32 -94 -16 -66 -98 -120 -181 -120 -118 0 -179 91
-124 183 28 45 33 48 77 40 20 -3 53 -3 72 1z m3210 -10 c0 -11 -10 -27 -21
-35 -39 -27 -59 -68 -59 -120 0 -42 2 -47 15 -36 12 10 18 10 31 -1 17 -14
146 -184 176 -231 17 -28 17 -28 -5 -28 -30 0 -142 94 -195 162 -95 123 -96
220 -5 283 45 30 63 32 63 6z m908 -103 c17 -36 1 -102 -44 -187 -51 -97 -61
-108 -79 -91 -21 22 34 184 76 223 29 27 29 27 10 48 -15 16 -26 19 -50 14
-17 -4 -33 -11 -36 -16 -10 -15 -45 -31 -45 -20 0 18 51 70 73 73 34 6 81 -16
95 -44z m1912 -98 c67 -15 125 -44 134 -65 3 -9 3 -27 0 -41 -6 -23 -8 -24
-63 -16 -31 4 -162 7 -291 6 -182 0 -274 -5 -410 -23 -204 -26 -709 -109 -925
-152 -82 -16 -163 -28 -180 -27 -41 4 163 53 485 117 244 49 329 68 303 70
-14 1 -677 -83 -817 -104 -191 -29 -306 -12 -133 19 50 9 211 39 356 67 498
94 792 140 1061 163 89 8 426 -2 480 -14z m-4160 -19 c14 -9 33 -34 43 -53 16
-33 17 -40 3 -72 -47 -113 -266 -67 -266 56 0 74 147 121 220 69z m-1656 -16
c52 -48 28 -111 -58 -151 -125 -58 -241 2 -189 99 l17 32 6 -42 c7 -45 42 -93
68 -93 12 0 11 5 -5 23 -50 55 -40 100 31 133 65 30 96 30 130 -1z m2851 -49
c51 -22 43 -33 -18 -28 -40 3 -56 0 -66 -12 -7 -9 -10 -16 -7 -16 4 0 2 -9 -4
-20 -10 -18 -8 -20 20 -20 23 0 42 -12 83 -52 76 -77 97 -106 91 -123 -4 -8
-8 -15 -11 -15 -15 0 -156 106 -182 137 -51 62 -40 133 24 152 17 5 31 10 33
10 1 1 18 -6 37 -13z m2938 -90 c9 -14 5 -35 -22 -108 -12 -32 -24 -88 -29
-125 l-7 -68 -35 47 c-19 26 -48 65 -63 87 -16 23 -34 41 -42 41 -20 0 -51
-49 -85 -131 l-30 -71 27 -46 c46 -82 85 -142 92 -142 8 0 80 108 112 169 l24
44 6 -76 c4 -42 19 -112 33 -157 15 -45 25 -86 23 -93 -2 -7 8 -17 22 -23 20
-8 -21 -11 -176 -10 -114 1 -198 5 -193 10 10 10 170 27 182 20 5 -3 37 -2 71
2 60 7 61 8 30 17 -18 6 -33 14 -33 18 0 5 -20 14 -45 20 -26 7 -45 17 -45 25
0 8 -8 14 -19 14 -48 0 -103 87 -120 192 -20 124 12 194 129 285 33 25 60 48
60 51 0 3 -73 2 -162 -1 -119 -4 -150 -3 -114 4 132 26 392 29 409 5z m-3948
-42 c13 -8 28 -28 35 -44 10 -25 10 -34 -5 -56 -22 -33 -75 -56 -114 -48 -33
7 -91 64 -91 90 0 69 105 104 175 58z m-1742 -16 c38 -44 4 -99 -76 -123 -61
-18 -112 -11 -132 18 -28 40 -16 50 20 18 36 -31 68 -39 95 -21 11 7 8 10 -16
10 -37 0 -56 20 -56 56 0 32 9 42 58 59 46 16 83 10 107 -17z m3636 8 c48 -25
64 -86 35 -136 -58 -96 -213 -69 -214 38 0 46 14 68 58 91 44 24 83 26 121 7z
m-281 -29 c54 -49 5 -117 -90 -124 -67 -6 -92 11 -92 60 0 44 24 72 72 85 46
12 81 5 110 -21z m1292 -36 c-19 -10 -62 -23 -95 -30 -167 -33 -181 -40 -127
-59 15 -6 21 -11 15 -11 -27 -2 -12 -20 15 -19 30 1 47 -10 125 -82 43 -40 50
-53 62 -110 14 -67 12 -96 -12 -142 -20 -42 -74 -99 -101 -109 -43 -17 -16
-21 63 -10 97 14 118 14 109 0 -4 -7 4 -10 22 -8 31 3 54 -6 54 -22 0 -5 -11
-9 -24 -9 -41 0 -310 -49 -475 -85 -85 -19 -164 -35 -175 -34 -21 1 328 92
477 124 43 10 76 19 73 22 -2 3 -54 -3 -115 -12 -93 -15 -118 -15 -163 -5 -74
18 -100 33 -146 85 -102 116 -93 276 20 385 23 22 48 40 55 40 7 0 13 4 13 10
0 10 -48 7 -214 -16 -93 -13 -131 -13 -115 -1 2 2 126 25 274 51 149 26 290
51 315 55 25 5 59 9 75 9 l30 1 -35 -18z m1251 -13 c78 -89 112 -309 65 -422
-12 -28 -12 -21 -8 66 5 102 -9 204 -34 248 -14 24 -14 24 -7 -10 4 -19 8 -78
8 -130 0 -98 -14 -153 -59 -229 l-20 -35 -32 70 c-48 104 -84 304 -54 304 6 0
10 -9 10 -20 0 -33 31 -173 42 -190 6 -11 7 -7 3 14 -17 78 3 346 25 346 5 0
18 -16 30 -36 28 -44 36 -38 16 10 -17 41 -13 46 15 14z m-839 -10 c21 -12 48
-37 60 -56 28 -46 34 -33 9 19 -26 53 -26 57 0 33 53 -47 86 -171 76 -281 -10
-103 -25 -99 -26 7 0 51 -2 95 -6 98 -3 3 -5 -15 -5 -41 0 -54 -18 -145 -30
-152 -5 -3 -6 17 -3 45 3 27 3 50 0 50 -3 0 -14 -30 -26 -68 -43 -144 -155
-211 -223 -135 -9 10 -29 45 -44 78 -31 67 -43 193 -28 282 7 44 9 38 14 -62
7 -117 36 -226 70 -267 11 -13 19 -18 20 -11 0 6 -4 15 -10 18 -5 3 -19 37
-31 76 -32 105 -25 203 21 294 49 97 88 115 162 73z m-4978 -32 c37 -15 66
-50 66 -79 0 -11 -15 -34 -33 -52 -35 -35 -102 -53 -152 -41 -33 8 -65 41 -65
66 0 25 17 26 25 1 7 -22 62 -51 98 -51 14 0 33 8 44 18 10 9 14 14 9 10 -6
-5 -24 -8 -42 -8 -24 0 -39 8 -58 31 -31 36 -33 55 -8 63 11 4 29 18 42 31 27
29 30 29 74 11z m3014 -21 c31 -37 30 -103 -2 -138 -47 -50 -132 -49 -178 3
-36 39 -36 79 -2 119 47 56 140 64 182 16z m806 -14 c54 -54 34 -125 -48 -168
-83 -43 -186 60 -142 144 35 68 133 80 190 24z m1414 -158 c7 -159 -49 -288
-135 -312 -39 -11 -42 -6 -9 20 64 50 105 232 93 414 l-4 80 25 -55 c20 -43
27 -75 30 -147z m-3413 162 c14 -13 25 -29 25 -35 0 -20 -29 -68 -45 -74 -50
-19 -113 2 -135 45 -37 68 97 123 155 64z m2857 -76 c-3 -66 0 -109 13 -157
25 -93 80 -197 128 -238 l41 -34 -41 0 c-53 0 -92 38 -140 139 l-36 74 6 111
c5 89 22 196 31 196 1 0 0 -41 -2 -91z m-1957 6 c-42 -34 -134 -66 -420 -146
-338 -94 -566 -161 -562 -166 5 -4 178 31 492 101 138 30 273 58 300 61 50 6
50 6 22 -10 -15 -9 -63 -23 -105 -31 -236 -45 -566 -132 -985 -260 -416 -127
-508 -163 -629 -245 -31 -22 -61 -39 -66 -39 -17 0 -32 49 -23 73 17 45 104
107 245 177 264 130 589 232 1196 375 157 37 344 82 415 100 159 40 157 40
120 10z m689 -20 c73 -34 128 -84 175 -160 23 -35 41 -69 41 -74 0 -5 7 -17
16 -26 17 -17 33 -79 33 -125 0 -22 -1 -23 -8 -5 -5 13 -10 -7 -15 -63 -10
-107 -30 -187 -61 -234 -26 -38 -96 -111 -102 -104 -2 2 12 26 31 54 56 84 78
154 83 267 8 161 -28 277 -117 378 -84 95 -185 127 -291 92 -119 -40 -189
-161 -189 -328 0 -157 52 -282 163 -391 39 -40 88 -79 107 -89 28 -13 31 -17
13 -17 -41 0 -131 51 -178 101 -25 27 -63 85 -85 129 -30 62 -39 76 -42 58 -3
-17 -9 -7 -21 34 -37 123 5 317 95 430 80 102 227 132 352 73z m-3245 -51 c27
-34 26 -50 -2 -78 -44 -44 -146 -40 -155 6 -3 14 2 14 38 -4 32 -16 46 -18 63
-10 l22 11 -23 0 c-60 2 -84 54 -40 85 34 24 73 20 97 -10z m3215 -58 c20 -15
49 -45 63 -67 38 -58 40 -39 3 28 l-32 58 36 -35 c76 -72 113 -200 103 -353
-8 -122 -37 -206 -92 -263 -38 -40 -46 -44 -91 -44 -64 0 -126 38 -184 111
-110 139 -161 320 -126 442 22 76 33 78 29 4 l-3 -62 13 50 c18 68 41 110 74
133 42 29 53 32 115 29 43 -2 64 -9 92 -31z m-543 -5 c43 -43 41 -101 -5 -147
-26 -26 -42 -34 -70 -34 -64 0 -126 46 -126 93 0 33 32 87 59 102 14 8 45 14
69 15 35 0 49 -6 73 -29z m1099 -9 c13 -10 23 -33 27 -57 4 -35 1 -44 -25 -68
-18 -18 -45 -31 -69 -34 -34 -4 -45 -1 -71 23 -42 39 -49 73 -21 108 12 15 31
32 43 36 36 15 93 11 116 -8z m-1360 -86 c0 -3 -73 -28 -162 -57 l-163 -53 48
-7 c89 -14 183 -86 219 -169 27 -62 22 -178 -12 -238 -43 -77 -110 -119 -245
-152 -49 -12 -94 -27 -100 -32 -7 -7 -3 -8 10 -4 11 3 133 26 270 51 138 24
264 48 280 51 20 4 27 3 20 -4 -5 -5 -91 -26 -190 -46 -99 -21 -243 -53 -320
-73 -205 -52 -189 -49 -176 -25 6 11 21 22 33 24 13 2 22 9 21 15 -3 13 49 35
125 53 55 13 70 30 26 30 -34 0 -127 46 -158 79 -27 28 -57 137 -49 174 3 12
21 56 40 98 29 64 40 78 67 87 20 6 24 10 12 11 -18 1 -18 2 3 25 12 13 19 26
14 29 -4 2 -46 -4 -93 -14 -47 -11 -111 -22 -142 -26 -130 -14 -41 17 265 91
177 43 327 80 332 81 16 5 25 5 25 1z m-2142 -147 c103 -51 273 -157 286 -178
4 -6 0 -14 -9 -17 -16 -6 -65 15 -320 137 -103 49 -153 88 -140 109 13 21 73
3 183 -51z m3545 10 c30 -16 37 -28 37 -67 0 -73 -94 -121 -167 -86 -51 26
-55 59 -13 108 42 48 102 66 143 45z m-1205 -19 c93 -57 46 -168 -66 -157 -99
10 -128 116 -44 161 37 21 71 19 110 -4z m2922 -88 c91 -30 132 -73 138 -144
3 -35 -1 -67 -12 -91 -18 -45 -29 -42 -90 23 -86 92 -201 124 -436 124 -240
-1 -406 -26 -1049 -159 -123 -25 -229 -44 -235 -42 -12 4 193 72 250 83 19 3
37 10 40 15 7 12 2 11 -96 -11 -46 -10 -86 -17 -88 -15 -8 7 92 37 208 60 141
29 163 35 157 41 -2 2 -64 -7 -137 -21 -74 -14 -166 -27 -204 -30 -150 -10
662 148 919 179 82 10 192 14 345 12 197 -3 233 -6 290 -24z m-3804 -84 c26
-35 62 -95 80 -134 30 -64 34 -81 34 -156 0 -46 -7 -107 -15 -135 -13 -44 -20
-53 -53 -66 -20 -8 -38 -14 -39 -13 -1 1 10 26 25 56 24 49 27 66 26 155 0
132 -33 239 -100 333 -9 12 -14 22 -11 22 3 0 27 -28 53 -62z m-531 13 c-6 -6
-53 -25 -105 -44 -52 -19 -119 -46 -149 -60 l-54 -26 44 -11 c125 -32 185 -63
222 -113 30 -40 70 -186 61 -224 -15 -69 -26 -91 -51 -102 -19 -9 -23 -15 -14
-20 9 -6 2 -17 -24 -39 -19 -18 -34 -34 -33 -36 2 -2 -8 -16 -21 -30 -14 -14
-22 -26 -19 -26 3 0 39 14 79 31 122 50 177 69 206 69 20 -1 4 -11 -57 -36
-47 -19 -128 -56 -180 -82 -120 -59 -118 -59 -97 -35 13 15 15 26 9 44 -5 13
-12 54 -16 92 -6 59 -27 143 -52 201 -5 14 11 6 52 -25 79 -61 151 -102 158
-91 3 6 11 56 17 112 l11 103 -58 54 c-33 30 -76 63 -96 74 l-37 19 -10 -33
c-5 -17 -14 -57 -20 -87 -5 -30 -14 -66 -19 -79 -8 -23 -10 -22 -31 23 -13 26
-50 75 -82 109 -84 88 -82 103 23 152 44 21 140 58 212 81 148 49 143 47 131
35z m346 -19 c105 -68 160 -167 169 -312 5 -83 7 -90 14 -56 18 81 -11 216
-70 331 l-25 50 26 -30 c83 -96 128 -287 89 -384 -23 -57 -58 -70 -132 -46
-44 13 -69 30 -114 76 -55 56 -66 55 -26 -3 11 -16 15 -28 10 -28 -16 0 -63
61 -89 115 -17 37 -22 42 -18 20 3 -16 19 -59 36 -94 23 -51 26 -61 11 -48
-74 67 -124 271 -87 352 13 30 13 29 15 -30 2 -58 2 -59 11 -22 14 58 37 96
72 117 42 26 55 25 108 -8z m2240 -51 c68 -69 -1 -171 -116 -171 -43 0 -93 42
-101 85 -11 59 58 114 144 115 35 0 49 -6 73 -29z m-1101 -11 c31 -31 26 -76
-14 -116 -46 -46 -104 -48 -147 -5 -32 32 -35 47 -18 85 24 53 139 76 179 36z
m-1374 -266 c58 -117 127 -193 194 -216 l45 -15 -38 -8 c-130 -26 -288 196
-286 400 l0 60 18 -62 c10 -34 40 -106 67 -159z m3320 81 c18 -38 46 -85 63
-102 16 -18 28 -33 25 -33 -3 0 -27 11 -54 25 -27 14 -52 25 -55 25 -3 0 6
-18 21 -39 14 -22 43 -88 65 -147 21 -59 46 -118 55 -131 8 -14 14 -26 12 -28
-2 -2 -27 14 -55 36 -29 21 -58 39 -65 39 -18 0 78 -96 137 -136 l50 -34 -130
0 -130 -1 47 -18 c75 -29 198 -111 198 -131 0 -5 -26 -2 -58 5 -278 65 -737
67 -920 4 -64 -22 -62 -22 -62 -10 0 15 64 48 127 66 101 30 104 35 18 32 -97
-4 -137 -23 -249 -114 -135 -109 -219 -138 -328 -113 -73 17 -110 37 -218 119
-51 39 -116 82 -144 95 -47 22 -126 42 -126 33 0 -2 35 -25 78 -50 43 -24 84
-53 92 -63 14 -16 13 -16 -5 -7 -40 21 -168 43 -315 55 -179 14 -390 1 -590
-36 l-124 -23 44 39 c44 38 140 93 190 109 15 4 -27 8 -103 8 l-129 1 54 41
c29 23 67 55 85 72 23 21 53 35 110 48 121 29 359 78 450 92 75 12 85 12 109
-4 l27 -17 -39 -8 c-21 -3 -50 -13 -64 -21 l-25 -14 25 7 c58 17 186 6 325
-27 129 -30 153 -33 305 -33 129 0 204 6 344 28 98 15 229 28 292 29 63 1 114
5 114 8 0 4 -27 12 -60 19 -83 18 -263 7 -425 -24 -71 -14 -158 -26 -192 -26
l-61 0 28 30 c16 17 38 54 50 83 20 49 24 53 50 49 44 -6 97 16 150 63 41 36
61 46 126 61 43 9 109 17 146 18 37 0 62 4 55 8 -6 4 -23 8 -36 8 -55 0 1 15
306 81 l142 30 63 -41 63 -41 -48 44 -49 45 74 12 c40 7 78 13 83 15 6 1 14
-7 19 -19 5 -11 24 -52 42 -91z m603 -75 c103 -240 253 -383 446 -423 39 -8
63 -17 55 -20 -97 -34 -230 5 -339 100 -28 24 -51 41 -51 36 -1 -4 -14 7 -30
26 -36 42 -32 51 9 21 36 -25 39 -17 10 25 -50 73 -162 330 -158 363 0 8 0 9
58 -128z m-2382 76 c22 -19 28 -32 28 -64 0 -50 -32 -87 -87 -104 -101 -30
-196 64 -142 141 38 54 152 69 201 27z m483 -78 c-25 -6 -40 -12 -35 -14 6 -2
29 -8 53 -14 53 -14 55 -36 7 -89 -46 -50 -45 -61 3 -25 l37 29 -19 -30 c-10
-17 -30 -43 -45 -58 -22 -24 -32 -28 -62 -24 -20 3 -54 17 -75 31 -40 27 -35
34 12 16 46 -18 40 -2 -7 18 -78 34 -87 67 -29 100 41 23 38 31 -11 22 -57
-11 -35 7 37 30 33 10 86 19 119 18 l60 0 -45 -10z m-2671 -53 c2 58 16 61 55
9 46 -60 93 -156 117 -237 l19 -62 -6 58 c-3 31 -14 87 -25 125 -23 80 -23 82
-5 57 53 -78 97 -365 55 -365 -4 0 -34 25 -67 55 -68 63 -117 148 -137 238
l-13 62 -1 -45 c-1 -77 36 -188 90 -267 36 -54 23 -56 -20 -3 -82 102 -126
268 -101 377 l13 58 13 -45 c11 -40 12 -41 13 -15z m1851 -6 c-43 -20 -312
-89 -343 -89 -9 0 -18 -4 -21 -9 -6 -10 9 -7 169 24 66 13 140 26 165 29 65 9
29 -10 -48 -24 -71 -12 -119 -28 -90 -29 10 -1 65 6 123 15 57 8 122 14 142
12 26 -2 -59 -24 -272 -71 -603 -133 -804 -191 -1010 -292 -116 -56 -251 -139
-297 -183 l-28 -26 -45 23 c-25 12 -45 29 -45 37 0 8 19 35 43 61 108 118 328
220 712 330 139 39 852 211 880 211 6 1 -10 -8 -35 -19z m3046 -540 c113 -117
182 -199 169 -199 -3 0 -34 23 -68 50 -34 28 -79 64 -99 81 -49 39 -122 135
-164 215 -46 88 -43 111 5 37 21 -32 92 -115 157 -184z m-2737 -44 c112 -22
188 -51 295 -115 154 -91 189 -104 286 -104 100 0 144 16 289 101 202 119 281
137 586 137 461 0 890 -106 1036 -256 128 -130 123 -281 -20 -561 -117 -231
-233 -373 -358 -436 -172 -86 -439 -112 -683 -65 -81 15 -100 30 -100 77 0 27
2 29 28 22 118 -30 179 -38 302 -38 301 1 455 80 613 316 297 442 241 684
-184 791 -175 45 -340 61 -614 61 -227 0 -258 -2 -340 -23 -164 -41 -248 -91
-286 -168 -42 -88 -23 -277 47 -448 13 -33 24 -61 24 -63 0 -2 -14 -3 -31 -3
-18 0 -66 19 -112 44 -136 74 -270 73 -396 -3 -67 -41 -139 -57 -128 -28 24
63 68 217 78 272 22 126 -2 235 -63 292 -37 35 -146 81 -249 105 -85 21 -120
23 -354 23 -353 0 -565 -33 -741 -115 -96 -44 -156 -96 -192 -164 -64 -123
-15 -307 149 -556 164 -249 318 -332 614 -332 129 -1 176 5 323 39 22 5 23 4
16 -33 -3 -22 -9 -42 -13 -46 -19 -21 -185 -41 -336 -41 -278 0 -464 65 -586
201 -94 106 -242 368 -288 512 -27 82 -36 183 -22 235 52 190 366 329 871 384
126 14 439 6 539 -14z m-1895 -161 c39 -20 74 -39 78 -43 4 -3 -6 -49 -23
-101 -27 -84 -52 -244 -36 -230 4 3 25 51 48 105 35 85 83 175 66 123 -5 -16
-17 -96 -38 -268 -16 -137 -31 -224 -40 -240 -5 -11 -24 19 -65 105 -103 217
-167 285 -271 285 -62 0 -98 -25 -114 -80 -12 -41 -4 -114 12 -105 5 4 9 21 9
40 0 43 17 82 39 87 59 15 128 -46 191 -172 45 -89 48 -100 23 -78 -41 36
-102 58 -160 58 l-58 -1 49 -19 c27 -11 65 -34 84 -52 32 -31 112 -132 112
-141 0 -3 -21 -8 -47 -11 -53 -8 -103 -25 -103 -35 0 -4 18 -7 39 -8 22 -1 57
-11 79 -22 40 -20 92 -73 92 -93 0 -7 -12 -41 -26 -76 -35 -87 -44 -260 -20
-371 9 -41 14 -76 13 -78 -8 -7 -207 323 -268 445 -201 397 -225 796 -58 936
109 92 260 107 393 40z m4745 -155 c16 -57 46 -174 66 -259 19 -85 46 -181 59
-212 13 -32 20 -58 16 -58 -4 0 -22 10 -41 23 -38 26 -57 69 -69 162 -40 298
-59 396 -90 475 -27 68 -25 76 5 19 13 -26 38 -94 54 -150z m536 162 c89 -39
140 -107 165 -222 16 -72 8 -285 -15 -388 -45 -205 -147 -429 -321 -706 -140
-223 -190 -325 -216 -432 -28 -121 -28 -122 -38 -98 -12 29 -12 107 0 100 15
-9 12 40 -4 80 -18 42 -50 52 -98 32 l-35 -15 33 89 c18 49 39 117 46 152 l12
62 13 -65 c8 -38 11 -94 7 -135 l-5 -70 21 21 c13 13 24 42 31 85 5 35 24 107
40 159 23 71 30 109 27 153 -2 31 -2 57 -1 57 1 0 11 -20 22 -44 17 -40 35
-129 44 -221 3 -26 5 -22 22 30 15 47 19 87 19 180 -1 122 -12 180 -45 248
l-18 39 26 39 c30 45 93 79 147 79 25 0 36 4 34 12 -5 13 -25 20 -106 35 l-42
8 58 75 c47 61 70 81 122 108 l65 33 -65 -3 c-52 -3 -76 -10 -117 -35 l-51
-31 35 71 c53 108 87 152 137 177 35 17 49 19 65 11 20 -11 41 -66 41 -109 0
-13 4 -20 10 -17 15 9 12 91 -4 130 -8 18 -23 38 -34 44 -30 16 -109 13 -148
-5 -66 -31 -107 -92 -209 -307 -21 -45 -41 -75 -46 -70 -13 13 -25 85 -49 288
-11 99 -24 191 -27 205 -13 55 20 -1 62 -104 31 -79 44 -101 48 -85 8 30 -7
112 -39 213 l-27 88 21 20 c11 12 51 32 89 45 88 31 221 28 298 -6z m-1828
-339 c104 -234 197 -472 185 -472 -16 0 -273 608 -272 642 1 20 16 -10 87
-170z m-3018 -64 c7 -31 29 -102 50 -157 21 -55 36 -103 33 -106 -12 -12 -33
-3 -67 26 -65 58 -96 229 -54 298 16 25 21 17 38 -61z m4127 50 c34 -66 14
-202 -41 -274 -22 -29 -70 -52 -82 -40 -3 3 14 56 37 118 23 62 47 139 53 170
6 32 12 58 14 58 1 0 10 -15 19 -32z m182 -333 c16 -33 60 -102 96 -154 37
-51 83 -119 102 -150 l36 -56 -53 51 c-30 28 -85 76 -124 106 -38 30 -76 62
-84 71 -7 10 -18 17 -24 17 -5 0 -16 8 -24 18 -74 93 -48 89 53 -7 47 -46 87
-81 90 -78 2 2 -14 35 -36 73 -22 37 -51 102 -65 144 -26 77 -34 123 -11 60 7
-19 27 -62 44 -95z m-2143 61 c33 -14 51 -33 42 -42 -3 -3 -19 2 -36 10 -32
17 -71 21 -71 8 0 -5 9 -17 20 -27 11 -10 20 -22 20 -27 0 -13 -65 -38 -100
-38 -26 0 -82 21 -99 36 -3 2 8 18 24 34 l29 30 -25 0 c-13 0 -37 -7 -53 -15
-19 -10 -33 -12 -39 -6 -11 11 42 41 93 52 46 10 154 2 195 -15z m-370 -118
c84 -23 170 -70 141 -76 -10 -2 -38 -2 -62 0 -51 4 -52 -7 -4 -39 45 -31 93
-43 176 -43 82 0 148 20 187 56 15 13 27 26 27 27 0 1 -20 1 -44 -1 -78 -7
-86 1 -36 30 112 65 291 90 390 54 49 -18 103 -65 126 -109 9 -16 19 -79 25
-140 5 -62 14 -130 19 -152 18 -74 13 -106 -22 -142 -39 -41 -18 -45 37 -7
l38 25 -6 -36 c-3 -20 -18 -52 -32 -71 -33 -43 -17 -44 30 -3 23 20 40 47 47
74 l11 41 56 -22 c59 -24 239 -64 287 -64 48 0 14 17 -101 50 -60 17 -111 32
-112 34 -1 1 37 2 85 2 48 0 139 2 202 4 130 6 133 4 218 -74 44 -40 102 -112
102 -126 0 -5 -36 10 -80 33 -44 22 -82 38 -85 35 -4 -3 32 -38 78 -77 128
-109 161 -162 160 -256 -1 -100 -34 -162 -171 -327 -52 -62 -88 -118 -75 -117
4 0 33 30 63 66 30 36 67 74 83 85 l27 20 -20 -54 c-41 -104 -68 -155 -173
-331 -59 -98 -114 -194 -122 -213 -14 -33 -16 -35 -52 -28 -21 4 -40 8 -42 10
-5 4 45 139 109 294 71 172 102 275 109 359 6 75 6 76 20 44 15 -38 26 -41 41
-14 26 49 -11 111 -76 127 -39 10 -114 -2 -133 -20 -15 -16 -12 -16 44 -10 82
9 66 -3 -85 -63 -440 -177 -843 -255 -1235 -239 -398 16 -840 121 -1168 277
l-62 29 63 -5 c34 -2 62 -3 62 0 0 13 -64 35 -102 35 -85 0 -144 -56 -122
-117 13 -36 28 -39 40 -6 9 25 11 18 22 -60 13 -92 46 -196 108 -338 93 -219
153 -375 236 -619 126 -376 189 -497 316 -615 38 -35 170 -111 178 -102 3 3
-16 22 -42 43 -71 58 -158 143 -114 111 19 -13 49 -32 67 -41 50 -25 471 -143
538 -150 87 -9 167 5 397 69 211 60 283 89 332 134 26 24 28 24 17 3 -7 -12
-35 -41 -64 -63 -79 -63 -120 -100 -114 -105 7 -8 119 55 165 93 94 77 172
203 257 413 25 62 47 115 49 117 4 4 66 -18 66 -24 0 -2 -20 -79 -45 -171 -95
-359 -152 -480 -281 -603 -115 -108 -258 -188 -417 -232 -72 -19 -105 -22
-277 -21 -177 0 -204 3 -291 26 -324 87 -514 229 -620 464 -39 86 -68 176
-129 394 -112 408 -162 531 -338 827 -105 178 -188 350 -175 363 3 3 41 -33
84 -79 43 -46 79 -79 79 -74 0 13 -50 82 -121 166 -81 97 -120 175 -127 253
-8 105 32 167 197 307 25 20 42 39 40 42 -3 2 -39 -12 -80 -32 -41 -21 -78
-39 -82 -41 -25 -12 32 67 86 119 78 76 119 98 172 91 65 -8 246 -8 305 1 88
12 40 -15 -86 -48 -120 -32 -148 -51 -58 -41 100 12 198 35 260 60 l59 24 6
-32 c6 -38 25 -67 63 -97 36 -28 41 -21 12 22 -21 30 -44 99 -34 99 2 0 19
-11 38 -25 43 -31 69 -34 41 -4 -29 32 -34 83 -16 196 8 57 15 124 15 150 1
91 32 146 106 189 78 46 188 50 319 12z m2441 -315 c12 -15 30 -55 40 -89 26
-97 16 -181 -42 -354 l-49 -145 1 -154 0 -154 -24 29 c-23 27 -24 33 -19 123
5 95 15 140 78 341 29 91 33 120 33 215 1 101 -1 114 -27 163 -30 57 -27 67 9
25z m-4398 -68 c-18 -54 -19 -67 -8 -133 6 -41 27 -126 45 -190 28 -96 74
-314 75 -356 1 -6 7 1 15 16 28 50 45 152 45 267 0 104 1 112 16 100 15 -12
16 -30 11 -134 -9 -171 -44 -288 -111 -370 l-24 -30 1 145 1 145 -46 140 c-72
217 -80 295 -40 400 15 40 32 68 38 63 1 -2 -7 -30 -18 -63z m-262 -78 c1 -37
13 -97 29 -147 14 -47 31 -111 36 -144 10 -58 33 -116 47 -116 4 0 7 51 7 113
1 67 6 120 13 132 10 18 11 17 12 -15 0 -19 18 -87 40 -150 22 -63 40 -116 40
-117 0 -1 -12 5 -27 13 -40 20 -60 18 -88 -11 -18 -18 -25 -35 -25 -65 0 -23
5 -40 11 -40 13 0 5 -88 -9 -102 -5 -5 -20 39 -34 97 -15 61 -47 149 -76 209
-46 95 -49 108 -42 148 4 23 13 72 19 108 8 50 38 150 45 150 1 0 2 -28 2 -63z
m4445 -285 c-35 -69 -44 -160 -29 -312 18 -190 17 -395 -4 -440 -15 -34 -16
-34 -21 -10 -3 14 -13 80 -22 148 -9 67 -23 146 -31 174 -7 29 -11 54 -9 57 6
6 45 -80 45 -101 0 -10 5 -18 11 -18 8 0 9 12 5 38 -4 20 -9 98 -13 172 -6
152 7 229 54 310 32 53 43 39 14 -18z m-3906 -314 c0 -114 3 -204 6 -200 3 4
14 30 24 57 27 75 87 195 96 195 5 0 4 -12 -2 -27 -14 -38 5 -177 36 -259 13
-35 53 -106 88 -158 53 -78 67 -107 76 -158 14 -82 -8 -193 -25 -122 -20 91
-32 121 -93 244 -91 180 -104 224 -104 334 1 84 0 88 -14 63 -24 -46 -51 -167
-68 -308 -10 -74 -19 -136 -21 -138 -1 -2 -11 23 -20 55 -22 73 -23 201 -5
379 8 72 12 169 9 215 -4 64 -2 78 6 60 6 -15 10 -110 11 -232z m-345 95 c47
-60 11 -210 -76 -311 -75 -88 -201 -129 -262 -86 -73 51 -66 216 13 309 l26
30 -18 -30 c-14 -23 -18 -48 -16 -123 2 -121 16 -147 76 -139 82 11 182 116
209 220 11 41 10 55 -4 94 -9 26 -15 50 -12 55 11 17 43 7 64 -19z m4602 -3
c-15 -114 -14 -128 13 -182 45 -91 136 -168 198 -168 42 0 55 28 63 127 6 82
5 96 -15 135 l-22 43 22 -25 c32 -37 68 -120 75 -173 19 -133 -87 -207 -210
-147 -59 28 -141 117 -173 187 -48 104 -30 240 30 231 17 -2 21 -9 19 -28z
m-1038 -232 c-35 -122 -82 -255 -156 -443 -44 -110 -81 -201 -83 -203 -2 -2
-13 -1 -26 3 -12 4 -17 10 -11 14 16 9 33 61 25 74 -3 7 -2 8 2 4 9 -8 50 82
41 90 -2 3 -7 -5 -11 -16 -3 -12 -11 -21 -17 -21 -6 0 1 15 14 33 14 17 33 47
43 66 28 56 98 244 97 264 0 9 3 15 8 12 11 -7 23 32 14 46 -5 8 -3 9 6 4 9
-6 10 -2 5 15 -5 17 -4 21 6 15 9 -6 11 -3 6 8 -8 22 2 49 16 40 6 -4 7 -1 3
6 -6 10 16 38 31 41 1 0 -5 -24 -13 -52z m521 -85 c-9 -31 -48 -118 -86 -193
-63 -125 -98 -222 -100 -275 0 -12 -7 -2 -16 23 -13 38 -13 47 1 89 9 26 52
110 96 187 81 143 109 208 111 255 l2 26 4 -28 c2 -15 -3 -53 -12 -84z m-3008
-165 c11 -30 21 -43 26 -35 5 7 5 2 2 -12 -5 -16 -4 -21 4 -17 7 5 8 1 4 -10
-5 -13 -3 -15 7 -9 9 6 11 4 6 -4 -5 -7 0 -19 10 -27 11 -9 13 -13 7 -9 -16 8
-11 -6 50 -135 41 -89 106 -247 121 -298 4 -12 12 -19 18 -16 7 4 8 2 4 -4 -8
-13 98 -347 118 -371 8 -11 8 -13 -1 -8 -14 9 9 -70 32 -110 l17 -28 -22 25
c-42 48 -100 190 -198 481 -54 162 -128 366 -164 454 -36 88 -69 174 -72 190
-6 34 0 23 31 -57z m-317 -127 c43 -73 73 -149 100 -256 10 -38 22 -69 28 -68
12 3 37 -57 46 -112 l6 -40 -21 25 c-35 41 -67 113 -123 278 -30 87 -66 183
-81 212 -38 75 -6 47 45 -39z m775 49 c20 -38 19 -66 -5 -115 -11 -22 -19 -48
-20 -57 0 -26 -17 -22 -37 9 -25 38 -25 143 1 172 26 29 43 26 61 -9z m113
-25 c7 -14 12 -35 12 -47 0 -18 -31 -188 -36 -196 -1 -2 -11 1 -22 7 -55 30
-53 179 4 242 22 25 28 24 42 -6z m1316 -20 c28 -56 28 -154 0 -191 -28 -38
-44 -41 -44 -10 0 14 -10 51 -21 82 -45 118 14 225 65 119z m-1174 -37 c30
-49 35 -93 16 -141 -9 -24 -16 -59 -16 -80 0 -30 -4 -37 -19 -37 -11 0 -32 11
-47 23 -32 28 -43 84 -33 165 13 99 61 132 99 70z m1042 -10 c17 -33 22 -60
23 -116 0 -69 -2 -75 -28 -98 -15 -13 -38 -24 -51 -24 -21 0 -24 6 -30 61 -11
114 -8 164 15 193 29 36 45 33 71 -16z m-889 -39 c23 -32 36 -88 37 -156 0
-73 -6 -83 -50 -83 -49 0 -72 26 -78 89 -6 63 3 107 28 149 23 37 35 37 63 1z
m734 -35 c31 -83 30 -135 -3 -174 -22 -26 -33 -31 -63 -28 l-36 3 -3 70 c-2
39 1 86 7 106 13 44 49 91 65 86 6 -2 21 -30 33 -63z m-493 2 c37 -38 66 -119
66 -180 0 -52 -25 -79 -88 -96 -90 -24 -147 16 -146 103 2 91 69 207 121 207
9 0 30 -15 47 -34z m270 13 c77 -60 103 -235 41 -275 -53 -35 -175 -13 -195
36 -22 53 14 177 68 233 31 32 50 34 86 6z m786 -314 c6 16 11 8 24 -37 18
-63 31 -78 22 -25 -7 35 -9 38 25 -38 6 -14 8 -6 4 25 l-5 45 16 -43 c20 -54
24 -51 15 11 -5 26 -4 47 0 47 4 0 10 -17 14 -38 10 -60 23 -71 19 -16 l-4 49
14 -48 c16 -55 26 -69 27 -41 0 14 4 12 15 -11 l14 -30 -5 45 -6 45 20 -40 20
-40 -4 40 -5 40 15 -35 15 -35 -6 35 c-8 43 1 37 21 -16 l15 -39 -5 35 c-5 34
-5 34 14 -10 12 -28 20 -37 21 -25 0 17 2 18 10 5 8 -11 9 -7 4 15 -3 17 -8
37 -10 45 -9 26 11 -1 24 -33 l12 -32 -5 30 -5 30 20 -35 19 -35 1 40 c1 62
20 81 20 20 0 -27 9 -87 20 -133 25 -104 25 -108 -6 -49 -28 54 -38 61 -22 16
15 -43 2 -48 -16 -5 -16 39 -27 48 -19 16 8 -29 -4 -25 -21 8 l-15 27 -1 -24
c0 -24 -1 -23 -26 10 -25 33 -25 33 -19 7 4 -16 5 -28 1 -28 -3 0 -12 12 -21
28 -13 22 -15 23 -10 5 9 -32 1 -29 -25 10 l-22 32 6 -32 c7 -43 1 -42 -24 5
-16 28 -20 31 -16 12 5 -26 4 -26 -32 27 -11 16 -12 13 -7 -17 l6 -35 -21 35
-21 35 4 -32 c2 -18 3 -33 1 -33 -1 0 -11 15 -23 33 -11 17 -21 26 -21 20 0
-8 -9 -4 -21 8 -24 24 -49 107 -48 154 2 27 2 28 7 5 4 -23 5 -23 12 -5z m546
-224 c4 -3 4 23 0 59 l-6 65 25 -65 25 -65 -3 63 c-2 34 -2 62 0 62 1 0 10
-26 19 -57 21 -76 33 -86 28 -26 l-3 48 13 -50 c20 -79 26 -85 23 -23 -2 31 0
55 5 52 4 -3 8 -13 9 -22 0 -9 7 -35 15 -57 l14 -40 -6 53 c-2 28 -3 52 0 52
2 0 12 -25 21 -55 8 -30 18 -55 20 -55 3 0 3 26 0 58 l-6 57 22 -65 c19 -60
49 -113 36 -65 -8 31 -19 135 -14 135 2 0 14 -30 27 -67 29 -89 41 -99 35 -32
l-5 54 19 -58 c27 -81 34 -83 27 -7 l-6 65 14 -48 c20 -67 29 -72 22 -12 -6
47 -5 48 6 20 l13 -30 6 40 c5 35 6 32 8 -25 1 -36 6 -96 11 -134 6 -38 8 -71
6 -73 -2 -2 -11 15 -19 39 -15 41 -15 42 -17 13 l-2 -30 -11 32 c-17 46 -23
47 -20 5 l3 -37 -20 40 -19 40 -1 -35 -1 -35 -24 45 -24 45 -1 -35 0 -35 -25
40 c-22 36 -24 38 -25 15 0 -24 -1 -24 -21 8 -26 40 -30 40 -22 2 7 -40 -4
-38 -22 3 l-14 32 -1 -30 -1 -30 -19 35 -19 35 -2 -30 -1 -30 -11 28 c-13 33
-27 36 -20 5 4 -22 3 -22 -11 2 -10 16 -16 20 -16 10 -1 -10 -4 -9 -11 5 -7
15 -8 12 -4 -15 9 -58 -11 -21 -33 60 -12 41 -23 107 -26 145 l-6 70 20 -79
c11 -44 23 -82 26 -85z m851 -18 c23 -52 29 -140 12 -185 -8 -19 -7 -32 1 -48
10 -19 8 -26 -14 -49 -14 -15 -26 -32 -26 -39 0 -6 -13 -18 -29 -26 -16 -9
-31 -22 -34 -31 -4 -8 -18 -15 -32 -15 -36 0 -72 60 -80 130 -3 30 -2 49 1 42
12 -26 22 0 12 32 -23 73 26 196 78 196 7 0 18 9 24 20 7 12 21 20 38 20 23 0
31 -8 49 -47z m-2838 -267 c46 -24 54 -42 52 -109 -1 -34 -4 -63 -6 -65 -11
-11 -76 23 -107 56 -46 47 -57 85 -33 112 21 24 55 26 94 6z m1032 4 c29 -16
25 -71 -7 -110 -26 -31 -91 -70 -116 -70 -16 0 -19 134 -3 149 17 17 69 41 88
41 10 0 27 -5 38 -10z m-803 -80 c14 -7 26 -128 14 -147 -24 -36 -81 -11 -118
52 -30 52 -27 91 9 104 22 9 70 4 95 -9z m586 10 c44 -17 30 -95 -26 -146 -30
-28 -49 -33 -70 -22 -15 7 -18 22 -18 78 0 73 3 78 54 91 17 4 32 7 33 8 1 1
13 -3 27 -9z m-376 -59 c16 -19 11 -93 -8 -116 -40 -48 -150 48 -126 110 13
35 107 39 134 6z m175 20 c14 -6 28 -19 32 -30 13 -42 -53 -121 -101 -121 -31
0 -44 27 -44 89 0 47 2 51 28 57 15 3 32 7 37 9 17 6 23 5 48 -4z"/>
<path d="M7753 9025 c2 -62 9 -93 30 -140 62 -132 201 -221 292 -186 15 6 10
9 -25 15 -127 20 -232 137 -271 301 -21 91 -29 94 -26 10z"/>
<path d="M6600 8782 c58 -60 90 -146 90 -238 0 -70 -11 -108 -42 -141 -27 -29
-15 -29 24 -1 112 79 76 313 -61 405 -56 38 -60 26 -11 -25z"/>
<path d="M4680 8603 c0 -66 -101 -92 -146 -39 -22 25 -24 26 -24 6 0 -12 5
-31 11 -42 12 -22 0 -19 -33 10 -16 13 -18 13 -18 0 0 -21 31 -47 71 -58 85
-25 210 39 208 107 0 26 -1 26 -9 7 -12 -30 -30 -40 -30 -17 0 11 -7 28 -15
39 -14 18 -14 17 -15 -13z"/>
<path d="M4869 8294 c24 -30 36 -83 27 -119 -8 -32 -26 -33 -26 -1 0 14 -4 28
-10 31 -6 3 -10 -5 -10 -19 0 -53 -105 -116 -194 -116 -42 0 -98 30 -113 60
-10 20 -13 21 -18 8 -4 -9 -2 -25 4 -37 16 -28 14 -33 -8 -21 -27 14 -44 74
-37 129 4 35 3 42 -5 28 -36 -62 -28 -125 23 -174 46 -44 97 -63 170 -63 106
0 199 57 239 145 29 63 23 101 -24 153 -28 31 -43 28 -18 -4z"/>
<path d="M2698 8003 c-33 -37 -51 -98 -52 -178 -1 -70 3 -87 29 -140 36 -70
66 -95 126 -100 24 -3 35 -2 24 2 -42 12 -78 48 -103 102 -33 72 -43 215 -19
285 18 51 17 54 -5 29z"/>
<path d="M4864 7882 c41 -47 -11 -99 -109 -109 -62 -7 -101 11 -107 49 -4 23
-4 23 -17 -4 -28 -57 23 -118 100 -118 152 0 255 131 145 187 l-31 16 19 -21z"/>
<path d="M1516 7754 c25 -58 30 -207 11 -275 -20 -67 -63 -129 -119 -169 l-41
-30 38 0 c33 0 45 7 86 50 38 39 53 64 70 120 37 123 16 279 -45 329 -14 12
-14 9 0 -25z"/>
<path d="M6885 6934 c-55 -7 -131 -20 -170 -28 l-70 -14 50 -1 c28 0 122 6
210 14 88 9 237 18 330 22 132 6 158 9 115 14 -93 12 -360 8 -465 -7z"/>
<path d="M6036 6573 c-7 -15 -24 -62 -36 -103 -13 -41 -29 -87 -37 -102 -19
-38 0 -71 76 -139 32 -28 65 -62 72 -75 7 -13 15 -24 19 -24 11 0 65 91 101
174 l36 81 -85 90 c-47 50 -96 98 -108 108 -23 17 -23 17 -38 -10z"/>
<path d="M3275 6176 c-209 -56 -364 -118 -506 -203 -89 -53 -101 -68 -18 -24
74 40 177 81 427 167 291 100 325 122 97 60z"/>
<path d="M5309 6140 c-8 -138 -72 -220 -172 -220 -53 0 -91 16 -123 52 -25 27
-66 105 -84 163 -23 69 -22 20 0 -62 28 -99 83 -204 126 -243 93 -81 216 -49
261 69 14 35 18 71 16 151 -1 58 -6 119 -11 135 -8 26 -10 19 -13 -45z"/>
<path d="M4077 6173 c-3 -5 -26 -66 -52 -137 l-46 -129 43 -45 c51 -53 155
-132 173 -132 7 0 16 12 20 28 3 15 20 57 36 94 50 113 49 116 -18 189 -74 81
-134 139 -144 139 -4 0 -10 -3 -12 -7z"/>
<path d="M5225 4675 c-2 -5 -6 -40 -9 -77 -4 -56 -20 -136 -42 -210 -5 -15 0
-15 50 3 93 32 260 25 357 -15 15 -7 15 0 -2 61 -11 37 -24 109 -30 158 l-12
90 -155 0 c-94 0 -156 -4 -157 -10z m239 -74 c2 -9 7 -28 10 -44 l7 -27 -37
15 c-61 25 -73 18 -29 -19 l40 -34 -82 -4 -82 -3 20 21 c25 26 24 38 -2 31
-19 -5 -21 -3 -15 25 3 17 6 36 6 42 0 7 28 11 80 12 64 0 81 -3 84 -15z"/>
<path d="M4844 3882 c-86 -54 -75 -234 16 -272 17 -7 33 -10 37 -6 3 3 1 6 -5
6 -19 0 -52 61 -52 95 l0 30 18 -35 c24 -49 58 -62 187 -70 112 -8 167 -24
178 -53 4 -12 -2 -13 -31 -6 -38 8 -82 3 -82 -11 0 -4 13 -10 30 -13 16 -4 49
-20 72 -38 l43 -31 120 4 c110 4 126 7 198 38 42 19 77 37 77 41 0 14 -35 18
-72 10 -41 -10 -48 -3 -20 21 27 24 50 29 169 39 125 10 152 19 176 57 16 27
16 27 17 4 0 -28 -17 -62 -39 -79 -25 -19 5 -16 35 4 62 41 84 160 41 224 -38
57 -128 72 -174 30 -10 -10 -38 -45 -63 -79 -34 -47 -63 -72 -122 -107 -43
-25 -88 -60 -101 -77 -20 -25 -34 -32 -75 -36 -86 -8 -135 4 -155 38 -11 17
-46 45 -85 66 -84 47 -106 66 -149 131 -18 29 -45 60 -58 69 -39 25 -95 28
-131 6z"/>
<path d="M4390 3001 c0 -17 222 -90 369 -122 112 -24 467 -38 511 -21 22 10
19 11 -25 11 -123 2 -429 49 -717 109 -76 16 -138 26 -138 23z"/>
<path d="M6325 2999 c-123 -37 -577 -113 -748 -125 -72 -5 -94 -10 -82 -17 27
-14 385 -2 488 17 124 24 248 61 331 100 68 33 74 44 11 25z"/>
</g>
</svg>
