<?xml version="1.0" encoding="UTF-8"?>
<svg version="1.1" xmlns="http://www.w3.org/2000/svg" width="406" height="615">
<path d="M0 0 C0.99 0 1.98 0 3 0 C3 0.66 3 1.32 3 2 C3.82177734 2.13148437 3.82177734 2.13148437 4.66015625 2.265625 C11.49401767 4.41047633 18.37096626 10.572857 23 16 C23 16.66 23 17.32 23 18 C23.60457031 18.24105469 24.20914062 18.48210938 24.83203125 18.73046875 C27.45973326 20.26921317 28.2653349 21.64313648 29.6875 24.3125 C30.31205078 25.45138672 30.31205078 25.45138672 30.94921875 26.61328125 C33.4631944 32.32346386 33.08785512 38.00149796 33 44.125 C32.97447781 45.91921026 32.95344952 47.71349161 32.9375 49.5078125 C32.92009766 50.69334717 32.92009766 50.69334717 32.90234375 51.90283203 C32.91386553 54.19452511 32.91386553 54.19452511 34 57 C35.485 56.505 35.485 56.505 37 56 C37.020625 54.741875 37.04125 53.48375 37.0625 52.1875 C37.72438383 45.88957506 41.07359489 40.85133195 45 36 C45.66 36 46.32 36 47 36 C47.33 35.01 47.66 34.02 48 33 C49.70703125 31.3515625 49.70703125 31.3515625 51.8125 29.625 C54.30441774 27.52841324 56.22844128 25.70810281 58.25 23.125 C60.14850796 20.81966891 61.0782168 20.3130482 64 20 C68.79456873 29.58913747 67.00212079 47.32464324 64.02734375 57.359375 C60.86823833 65.47935699 55.94477255 70.28368376 48.9765625 75.37109375 C48.32429688 75.90863281 47.67203125 76.44617188 47 77 C47 80.0659708 48.67390921 82.27943141 50.125 84.9296875 C51 87 51 87 51 91 C51.66 91 52.32 91 53 91 C53.23074219 90.19175781 53.46148437 89.38351563 53.69921875 88.55078125 C56.90242931 78.05488578 56.90242931 78.05488578 62 74 C63.31385246 72.81399654 64.62624331 71.62637274 65.9375 70.4375 C69.13623591 67.66566306 72.39987928 65.24007512 76 63 C76.825 62.484375 77.65 61.96875 78.5 61.4375 C83.74968507 58.41893108 87.9034016 56.60965984 94 56 C95.34036642 68.21222734 92.05455249 83.46490776 84.5 93.375 C83.36311418 94.61139443 82.19855328 95.82328823 81 97 C80.50628906 97.56589844 80.01257813 98.13179688 79.50390625 98.71484375 C75.89521354 102.71472266 71.90593042 104.88131604 67 107 C66.31808594 107.30035156 65.63617188 107.60070312 64.93359375 107.91015625 C63.29545422 108.6216714 61.64860477 109.31308135 60 110 C60.49489295 112.80439336 61.12686849 115.36567976 62.0625 118.0625 C63 121 63 121 63 125 C63.66 125 64.32 125 65 125 C65 126.98 65 128.96 65 131 C65.33 130.34 65.66 129.68 66 129 C66.66 129 67.32 129 68 129 C68.13148438 127.91912109 68.13148438 127.91912109 68.265625 126.81640625 C69.14518116 123.44321481 70.54281736 121.62179919 72.75 118.9375 C73.76320313 117.68259766 73.76320313 117.68259766 74.796875 116.40234375 C78.99892921 111.82031655 83.26350138 109.21020963 89 107 C90.05574219 106.57203125 91.11148437 106.1440625 92.19921875 105.703125 C101.48823736 102 101.48823736 102 106 102 C106.33 101.34 106.66 100.68 107 100 C109.28515625 99.5859375 109.28515625 99.5859375 112.0625 99.375 C112.98160156 99.30023438 113.90070313 99.22546875 114.84765625 99.1484375 C115.55792969 99.09945312 116.26820313 99.05046875 117 99 C116.2137429 107.64882812 113.52538671 115.10984879 110 123 C109.34 123 108.68 123 108 123 C107.87625 123.928125 107.7525 124.85625 107.625 125.8125 C107 129 107 129 105 132 C104.34 132 103.68 132 103 132 C102.67 132.99 102.34 133.98 102 135 C101.34 135 100.68 135 100 135 C100 135.66 100 136.32 100 137 C91.24570198 145.2381716 82.67928647 147.4347348 71 149 C72.485 157.415 72.485 157.415 74 166 C74.66 166 75.32 166 76 166 C76.53625 165.154375 77.0725 164.30875 77.625 163.4375 C84.15571977 153.36831752 94.3907768 149.4940622 105.6875 146.75 C113.76217089 145.1881111 121.79340135 144.84285237 130 145 C130.703125 146.6953125 130.703125 146.6953125 131 149 C129.671875 151.3671875 129.671875 151.3671875 127.75 153.875 C125.06615743 157.49631253 122.83728955 160.89311747 121 165 C120.34 165 119.68 165 119 165 C118.67 166.32 118.34 167.64 118 169 C117.34 169 116.68 169 116 169 C115.773125 169.556875 115.54625 170.11375 115.3125 170.6875 C113.62449964 173.66159588 111.53323483 175.72008865 109 178 C108.34 178 107.68 178 107 178 C107 178.66 107 179.32 107 180 C105.64871743 180.63121136 104.29377953 181.25459835 102.9375 181.875 C101.80634766 182.39707031 101.80634766 182.39707031 100.65234375 182.9296875 C94.79456248 185.29350498 89.36098663 186.29056708 83.0625 186.625 C82.37865234 186.66367188 81.69480469 186.70234375 80.99023438 186.7421875 C79.32720487 186.83522412 77.66364153 186.91863787 76 187 C76.24556641 188.51787109 76.24556641 188.51787109 76.49609375 190.06640625 C76.96810659 193.75103364 77.10074552 197.22768482 77.0625 200.9375 C77.05347656 202.08089844 77.04445313 203.22429687 77.03515625 204.40234375 C77.01775391 205.68818359 77.01775391 205.68818359 77 207 C81.64955641 205.363291 84.71933952 202.92596266 88.42578125 199.75390625 C95.05523283 195.2370265 101.94223662 194.36821 109.75 193.75 C110.71631348 193.6670166 111.68262695 193.5840332 112.67822266 193.49853516 C119.57662963 192.96450231 126.14257123 192.92943095 133 194 C133.74609375 195.60546875 133.74609375 195.60546875 134 198 C132.77894154 200.29510988 131.57810039 202.22839923 130.0625 204.3125 C129.65225586 204.89064453 129.24201172 205.46878906 128.81933594 206.06445312 C125.86616689 210.10658905 122.68722112 213.45174847 118.765625 216.5859375 C116.78843789 218.10466472 116.78843789 218.10466472 114.5 220.625 C106.68424839 228.04996403 97.64455295 230.96184491 86.9375 231.125 C83.50224656 231.01594434 80.37238987 230.602725 77 230 C76.97494385 230.57967529 76.9498877 231.15935059 76.92407227 231.7565918 C76.80753766 234.40042107 76.68507318 237.04394409 76.5625 239.6875 C76.50352539 241.05551758 76.50352539 241.05551758 76.44335938 242.45117188 C76.40146484 243.33740234 76.35957031 244.22363281 76.31640625 245.13671875 C76.27974854 245.94842529 76.24309082 246.76013184 76.20532227 247.59643555 C75.98962569 250.12144485 75.54100548 252.52600697 75 255 C75.54785156 254.54109375 76.09570312 254.0821875 76.66015625 253.609375 C88.14632615 244.71926626 101.75176224 242.47392716 116 244 C123.38270892 245.06207835 130.69907983 246.48166704 138 248 C138 248.99 138 249.98 138 251 C137.34 251 136.68 251 136 251 C136 251.99 136 252.98 136 254 C135.34 254 134.68 254 134 254 C134 254.99 134 255.98 134 257 C132.03814584 258.71140469 130.03697617 260.37873325 128 262 C127.67 262.66 127.34 263.32 127 264 C126.01 264 125.02 264 124 264 C124 264.66 124 265.32 124 266 C111.49230702 275.72264668 101.10532541 280.14635338 85 279 C82.56759171 278.59632373 80.23980945 278.10220342 77.8671875 277.4375 C75.67053935 276.84791268 75.67053935 276.84791268 72 277 C71.87882812 277.95261719 71.75765625 278.90523438 71.6328125 279.88671875 C71.46523438 281.14097656 71.29765625 282.39523437 71.125 283.6875 C70.96257812 284.92886719 70.80015625 286.17023438 70.6328125 287.44921875 C70.0719705 290.59616553 69.19039347 293.06402956 68 296 C68 297.32 68 298.64 68 300 C68.99 299.67 69.98 299.34 71 299 C71 298.34 71 297.68 71 297 C73.1843191 296.17898686 75.37262436 295.36857518 77.5625 294.5625 C78.78066406 294.11003906 79.99882812 293.65757812 81.25390625 293.19140625 C87.5891722 291.17654064 92.74902454 290.84911765 99.3125 291.8125 C99.96549072 291.90724609 100.61848145 292.00199219 101.29125977 292.09960938 C109.31204015 293.29299559 117.15486354 294.96607573 125 297 C125 297.66 125 298.32 125 299 C126.98 299.33 128.96 299.66 131 300 C131 301.32 131 302.64 131 304 C130.01 304 129.02 304 128 304 C127.67 304.99 127.34 305.98 127 307 C114.93952662 316.45879936 98.85272409 326.55732233 83 326 C75.56127393 324.93149878 68.81936527 323.09971148 62 320 C59.7941152 320.81818228 59.7941152 320.81818228 59.21875 323.109375 C58.86296875 324.41648437 58.86296875 324.41648437 58.5 325.75 C57.71328415 328.55342399 56.92546335 331.18045715 55.8125 333.875 C54.76190836 336.24352883 54.76190836 336.24352883 55 340 C56.60433809 339.52140759 58.20846416 339.04210442 59.8125 338.5625 C61.15248047 338.16224609 61.15248047 338.16224609 62.51953125 337.75390625 C64.35473055 337.19612127 66.18033726 336.60655425 68 336 C78.46059201 335.19125968 87.05294369 336.58383925 97 340 C98.80017578 340.56074219 98.80017578 340.56074219 100.63671875 341.1328125 C108.29356583 343.6326696 114.86746601 346.69582572 121 352 C121.33 352.66 121.66 353.32 122 354 C120.47582891 357.04834217 118.03961277 357.62919424 115 359 C112.625 359.6875 112.625 359.6875 111 360 C111 360.66 111 361.32 111 362 C104.8727503 365.22390417 98.62049285 367.06229477 92 369 C91.06542969 369.30421875 90.13085938 369.6084375 89.16796875 369.921875 C77.30470867 373.60417535 66.47553901 372.66193772 55 368 C53.31392081 367.03309011 51.64293036 366.03853629 50 365 C49.278125 364.649375 48.55625 364.29875 47.8125 363.9375 C46 363 46 363 44 361 C43.67 361.66 43.34 362.32 43 363 C42.34 363 41.68 363 41 363 C40.82984375 363.54527344 40.6596875 364.09054687 40.484375 364.65234375 C38.67459186 370.28384978 36.49654622 375.63939569 34 381 C35.60875 380.5359375 35.60875 380.5359375 37.25 380.0625 C38.82979658 379.69287688 40.41359043 379.34012224 42 379 C42.81339844 378.81308594 43.62679688 378.62617188 44.46484375 378.43359375 C55.69761466 376.64473066 69.01525069 380.73895826 79 386 C79 386.66 79 387.32 79 388 C79.7425 388.103125 80.485 388.20625 81.25 388.3125 C84.20363226 389.05090806 85.652899 390.1223192 88 392 C88.99 392.33 89.98 392.66 91 393 C91.33 393.66 91.66 394.32 92 395 C92.99 395.33 93.98 395.66 95 396 C96.75 397.25 96.75 397.25 98 399 C97.578125 401.609375 97.578125 401.609375 97 404 C96.45214844 404.14695312 95.90429688 404.29390625 95.33984375 404.4453125 C90.6306059 405.77768223 86.14287841 407.32665803 81.64111328 409.25683594 C73.83994738 412.58033806 66.51165195 414.31863523 58 415 C57.26394531 415.07089844 56.52789062 415.14179688 55.76953125 415.21484375 C45.34505796 415.75218773 36.43874395 411.61607916 28 406 C24.59264278 403.85254882 22.01066037 402.57295148 18 402 C18 402.66 18 403.32 18 404 C17.02870526 405.02790395 16.02171887 406.02220117 15 407 C13.76855823 408.45998446 12.56136725 409.94065792 11.375 411.4375 C10.76398438 412.19933594 10.15296875 412.96117187 9.5234375 413.74609375 C8.06158017 415.90889293 7.42959363 417.45146484 7 420 C8.14855469 419.95359375 9.29710937 419.9071875 10.48046875 419.859375 C20.24004137 419.58649048 28.96761774 419.78676709 38 424 C39.02691281 424.97234257 40.03057712 425.9703305 41 427 C42.80190614 427.97715609 42.80190614 427.97715609 44.6875 428.6875 C45.780625 429.120625 46.87375 429.55375 48 430 C48 430.66 48 431.32 48 432 C48.54140625 432.2371875 49.0828125 432.474375 49.640625 432.71875 C52.63250137 434.34347757 55.11159399 436.3501877 57.75 438.5 C58.73484375 439.2940625 59.7196875 440.088125 60.734375 440.90625 C61.48203125 441.5971875 62.2296875 442.288125 63 443 C63 443.66 63 444.32 63 445 C64.32 445.66 65.64 446.32 67 447 C66.67 448.32 66.34 449.64 66 451 C48.0283494 456.47656808 25.75252815 462.05913481 8 453 C5.08390464 451.23677955 2.55261794 449.25201024 0 447 C-0.82113281 446.28585937 -1.64226562 445.57171875 -2.48828125 444.8359375 C-4.67686259 442.90944133 -6.84576994 440.9647376 -9 439 C-10.1446875 439.4640625 -10.1446875 439.4640625 -11.3125 439.9375 C-13.18789677 440.67893593 -15.08684652 441.36228217 -17 442 C-17.68955269 443.32164266 -18.35244703 444.65727986 -19 446 C-20.28183481 447.46342808 -21.6193021 448.87945429 -23 450.25 C-24.051875 451.30960937 -24.051875 451.30960937 -25.125 452.390625 C-27 454 -27 454 -29 454 C-29 454.66 -29 455.32 -29 456 C-29.66 456 -30.32 456 -31 456 C-31 456.99 -31 457.98 -31 459 C-29.68 459 -28.36 459 -27 459 C-26.67 458.34 -26.34 457.68 -26 457 C-12.36500058 458.19340538 -2.86199815 460.56955372 8 469 C8.99 469.66 9.98 470.32 11 471 C12.24458519 471.98074379 13.47333777 472.98183461 14.6875 474 C15.62142578 474.7734375 15.62142578 474.7734375 16.57421875 475.5625 C18 477 18 477 18 479 C18.56332031 479.22558594 19.12664062 479.45117188 19.70703125 479.68359375 C22.65400053 481.37546538 24.46030412 483.50398572 26.6875 486.0625 C27.47511719 486.96097656 28.26273437 487.85945313 29.07421875 488.78515625 C29.70972656 489.51605469 30.34523438 490.24695313 31 491 C31.33 491.33 31.66 491.66 32 492 C32.04063832 493.66617115 32.042721 495.33388095 32 497 C-11.19013703 504.17397652 -11.19013703 504.17397652 -29 493 C-30.010625 492.4225 -31.02125 491.845 -32.0625 491.25 C-35.95378866 488.26943847 -38.88777636 484.76361928 -42 481 C-42.51304687 480.4121875 -43.02609375 479.824375 -43.5546875 479.21875 C-47 475.24788136 -47 475.24788136 -47 473 C-50.16832128 473.88418268 -52.6014248 474.68113984 -55.1875 476.75 C-59.25320532 480.00256426 -65.62890384 485 -71 485 C-71 485.66 -71 486.32 -71 487 C-72.32 487.33 -73.64 487.66 -75 488 C-75 488.66 -75 489.32 -75 490 C-74.17757812 490.15855469 -73.35515625 490.31710937 -72.5078125 490.48046875 C-64.99206436 492.05131218 -58.66268165 494.19806085 -52 498 C-50.96875 498.556875 -49.9375 499.11375 -48.875 499.6875 C-48.25625 500.120625 -47.6375 500.55375 -47 501 C-47 501.66 -47 502.32 -47 503 C-46.01 503.33 -45.02 503.66 -44 504 C-44 504.66 -44 505.32 -44 506 C-43.34 506 -42.68 506 -42 506 C-40.44921875 507.94140625 -40.44921875 507.94140625 -38.6875 510.5625 C-36.56248815 513.70343609 -34.41715748 516.79193095 -32.125 519.8125 C-30.16741205 522.74888192 -29.31510294 524.53386764 -29 528 C-28.34 528 -27.68 528 -27 528 C-26.34760842 529.39278017 -25.70339448 530.78939212 -25.0625 532.1875 C-24.70285156 532.96480469 -24.34320313 533.74210938 -23.97265625 534.54296875 C-22.99034559 537.02438804 -22.44318456 539.37354836 -22 542 C-40.36657908 543.32451291 -62.47652925 540.08150597 -77.18359375 528.2421875 C-78.922402 526.57442733 -80.46229967 524.85270093 -82 523 C-82.79470703 522.15115234 -82.79470703 522.15115234 -83.60546875 521.28515625 C-87.33188504 517.22750295 -89.79628527 513.03252161 -92 508 C-92.4125 507.071875 -92.825 506.14375 -93.25 505.1875 C-94 503 -94 503 -94 500 C-102.1716884 503.28889005 -102.1716884 503.28889005 -110.125 507.0625 C-121.70918367 513 -121.70918367 513 -128 513 C-128.33 513.66 -128.66 514.32 -129 515 C-129.66 514.67 -130.32 514.34 -131 514 C-131 514.99 -131 515.98 -131 517 C-126.71 517.33 -122.42 517.66 -118 518 C-118 518.66 -118 519.32 -118 520 C-117.071875 520.28875 -116.14375 520.5775 -115.1875 520.875 C-112 522 -112 522 -109 524 C-109 524.66 -109 525.32 -109 526 C-108.34 526 -107.68 526 -107 526 C-107 526.66 -107 527.32 -107 528 C-106.01 528.33 -105.02 528.66 -104 529 C-103.67 529.66 -103.34 530.32 -103 531 C-102.01 531.33 -101.02 531.66 -100 532 C-98.8125 534.5625 -98.8125 534.5625 -98 537 C-97.34 537 -96.68 537 -96 537 C-94.375 538.3125 -94.375 538.3125 -93 540 C-93 540.99 -93 541.98 -93 543 C-92.34 543 -91.68 543 -91 543 C-90.67 544.98 -90.34 546.96 -90 549 C-89.34 549 -88.68 549 -88 549 C-87.38125 550.36125 -87.38125 550.36125 -86.75 551.75 C-85.20746125 555.00608998 -85.20746125 555.00608998 -82.875 557.0625 C-80.64536293 559.36645831 -80.50233176 560.90228748 -80 564 C-79.34 564.33 -78.68 564.66 -78 565 C-77.5859375 567.06640625 -77.5859375 567.06640625 -77.375 569.5625 C-77.26285156 570.80193359 -77.26285156 570.80193359 -77.1484375 572.06640625 C-77.09945312 572.70449219 -77.05046875 573.34257813 -77 574 C-101.01692512 573.24294475 -126.50073962 570.31235733 -144 552 C-148.14955383 547.26200088 -150.72647411 542.88759998 -152.359375 536.78515625 C-152.84314785 534.79059096 -152.84314785 534.79059096 -155 534 C-156.31745857 530.12081644 -157 527.11624135 -157 523 C-166.9 524.98 -176.8 526.96 -187 529 C-185.35 529.66 -183.7 530.32 -182 531 C-172.73920163 535.43919778 -165.47999825 541.26625279 -160 550 C-160 550.66 -160 551.32 -160 552 C-159.34 552 -158.68 552 -158 552 C-153.6992569 560.1552996 -150.02200904 568.13499968 -147.06640625 576.875 C-146.19450271 579.4300287 -145.23162364 581.88852882 -144.1875 584.375 C-142.80998199 588.58005497 -142.76495871 591.6125625 -143 596 C-157.69906739 596.61792258 -177.24282387 587.57294093 -189 579 C-189 578.34 -189 577.68 -189 577 C-189.53625 576.938125 -190.0725 576.87625 -190.625 576.8125 C-194.17026157 575.59964736 -196.2592392 573.55389074 -199 571 C-199 570.34 -199 569.68 -199 569 C-199.66 569 -200.32 569 -201 569 C-209.33766531 557.50754242 -211.87823346 544.73564656 -214 531 C-223.9 531 -233.8 531 -244 531 C-244.495 529.515 -244.495 529.515 -245 528 C-234.66927199 526.471171 -224.42726018 525.52067791 -214 525 C-214.24169922 523.91912109 -214.24169922 523.91912109 -214.48828125 522.81640625 C-216.87782202 509.66481161 -214.2545083 496.13234954 -206.7265625 485.140625 C-202.31343615 479.57957561 -196.54488709 475.36649769 -191 471 C-190.17757812 470.31679688 -189.35515625 469.63359375 -188.5078125 468.9296875 C-185.9171231 466.93622868 -183.31082154 465.36705088 -180.4375 463.8125 C-179.50808594 463.30332031 -178.57867187 462.79414063 -177.62109375 462.26953125 C-175.36553123 461.17704568 -173.47037878 460.37531832 -171 460 C-170 461 -170 461 -169.88647461 463.04125977 C-169.89432983 464.35308228 -169.89432983 464.35308228 -169.90234375 465.69140625 C-169.90717773 467.10776367 -169.90717773 467.10776367 -169.91210938 468.55273438 C-169.92467773 470.04256836 -169.92467773 470.04256836 -169.9375 471.5625 C-169.94201172 472.55958984 -169.94652344 473.55667969 -169.95117188 474.58398438 C-169.96299993 477.05604849 -169.97948151 479.52799518 -170 482 C-170.66 482 -171.32 482 -172 482 C-171.94714844 483.13566406 -171.89429688 484.27132813 -171.83984375 485.44140625 C-171.84728535 490.27313394 -173.006404 494.39331185 -174.5625 498.9375 C-174.82627441 499.72366699 -175.09004883 500.50983398 -175.36181641 501.31982422 C-177.5364145 507.43786259 -180.40183212 512.34741593 -185 517 C-180.64528922 518.35470513 -177.2134609 517.25176365 -172.9375 516.0625 C-165.33415842 514 -165.33415842 514 -162 514 C-162.41588092 511.01952005 -162.85439685 508.35490768 -164 505.5625 C-167.65237673 496.20328462 -167.30851296 483.41014238 -164 474 C-162.46750143 470.58910976 -160.79414859 467.28014189 -159 464 C-158.34 464 -157.68 464 -157 464 C-156.87625 463.401875 -156.7525 462.80375 -156.625 462.1875 C-156 460 -156 460 -154 457 C-153.34 457 -152.68 457 -152 457 C-151.88398438 456.41347656 -151.76796875 455.82695312 -151.6484375 455.22265625 C-150.96109448 452.86664312 -150.07592958 451.40285006 -148.625 449.4375 C-148.20476562 448.85871094 -147.78453125 448.27992188 -147.3515625 447.68359375 C-145.98589544 445.98243045 -144.6389181 444.44172208 -143 443 C-142.34 443 -141.68 443 -141 443 C-141 442.34 -141 441.68 -141 441 C-140.01 440.67 -139.02 440.34 -138 440 C-130.72792874 451.21024165 -130.58509568 464.0748909 -130.5 477 C-130.48460678 478.01909454 -130.48460678 478.01909454 -130.46890259 479.05877686 C-130.37159993 487.1587046 -130.63309451 493.09116445 -135 500 C-135.67978378 501.32669373 -136.34974941 502.65858418 -137 504 C-135.39084669 503.35633868 -133.78170362 502.71265174 -132.17260742 502.06884766 C-130.80315786 501.52119846 -129.43352766 500.97400074 -128.0637207 500.42724609 C-124.98731711 499.19871888 -121.91386428 497.96477721 -118.84765625 496.7109375 C-117.96980469 496.35257812 -117.09195313 495.99421875 -116.1875 495.625 C-115.41792969 495.30789063 -114.64835938 494.99078125 -113.85546875 494.6640625 C-112 494 -112 494 -110 494 C-110 493.34 -110 492.68 -110 492 C-108.02 491.34 -106.04 490.68 -104 490 C-104.42089186 485.68585844 -105.53375936 482.66940951 -107.8671875 479.00390625 C-113.53332062 468.98071214 -113.9238207 456.94135031 -111.51074219 445.72607422 C-110.16534679 441.23820426 -108.17776755 437.14767875 -106 433 C-105.51926025 432.06462402 -105.51926025 432.06462402 -105.02880859 431.11035156 C-103.09836795 427.36038217 -101.08886757 423.66478836 -99 420 C-98.34 420 -97.68 420 -97 420 C-96.67 418.02 -96.34 416.04 -96 414 C-94.35 414 -92.7 414 -91 414 C-88.47069059 418.96532461 -85.97490169 423.94688973 -83.625 429 C-83.11839844 430.0828125 -83.11839844 430.0828125 -82.6015625 431.1875 C-82 433 -82 433 -83 435 C-82.34 435.33 -81.68 435.66 -81 436 C-77.37620619 443.03442329 -77.81822934 451.52684298 -77.8125 459.25 C-77.80025391 460.13429688 -77.78800781 461.01859375 -77.77539062 461.9296875 C-77.77345703 462.78304688 -77.77152344 463.63640625 -77.76953125 464.515625 C-77.76542236 465.28165039 -77.76131348 466.04767578 -77.75708008 466.83691406 C-78.03076835 469.27397749 -78.88266656 470.8378477 -80 473 C-80 473.99 -80 474.98 -80 476 C-75.77895001 473.27809315 -75.77895001 473.27809315 -72 470 C-70.55627184 468.99942392 -69.09587576 468.02272288 -67.625 467.0625 C-64.67119305 465.13116469 -61.80361382 463.14431651 -59 461 C-59.91550826 458.46474636 -60.75872178 456.31346118 -62.41015625 454.16796875 C-64.19310931 451.73666912 -65.38351529 449.30823765 -66.625 446.5625 C-67.05039063 445.63566406 -67.47578125 444.70882813 -67.9140625 443.75390625 C-73.49371018 429.60408029 -67.1953231 415.04837265 -61.71484375 401.921875 C-60.84249503 399.93329512 -59.92805779 397.96319917 -59 396 C-58.34 396 -57.68 396 -57 396 C-57 395.34 -57 394.68 -57 394 C-47.77770224 397.81750888 -44.00062369 409.85191605 -40.3828125 418.4609375 C-38.30456268 423.77984806 -37.74385005 428.56494664 -37.4375 434.25 C-37.37272461 435.36761719 -37.37272461 435.36761719 -37.30664062 436.5078125 C-37.20103275 438.338349 -37.10005799 440.16915176 -37 442 C-35.37042688 440.90259375 -33.74648772 439.79681808 -32.125 438.6875 C-30.76761719 437.76517578 -30.76761719 437.76517578 -29.3828125 436.82421875 C-26.80028615 435.05086051 -26.80028615 435.05086051 -25 432 C-24.34 432 -23.68 432 -23 432 C-22.690625 431.38125 -22.38125 430.7625 -22.0625 430.125 C-21.375 428.75 -20.6875 427.375 -20 426 C-20.66 426 -21.32 426 -22 426 C-26.06660622 421.61234592 -31 416.2101838 -31 410 C-31.66 409.67 -32.32 409.34 -33 409 C-33.6328125 407.21484375 -33.6328125 407.21484375 -34.125 404.9375 C-34.37636719 403.83728516 -34.37636719 403.83728516 -34.6328125 402.71484375 C-35.57821347 395.72491107 -34.73916277 389.66364202 -33.125 382.875 C-32.95097656 382.10285156 -32.77695313 381.33070313 -32.59765625 380.53515625 C-30.97112798 373.46277038 -28.57018671 366.77594679 -26 360 C-22.64863116 360.27928074 -21.33496642 360.61805658 -19.078125 363.19140625 C-11.59714751 373.30197545 -6.00609488 382.82181771 -2.61328125 394.93359375 C-2.05462651 397.03595335 -2.05462651 397.03595335 -1 399 C-1.28112064 401.00800456 -1.61067967 403.01014051 -2 405 C3.04395895 401.48451346 6.37975847 396.88263123 10 392 C6.82460444 388.57421051 6.82460444 388.57421051 3 386 C3 385.34 3 384.68 3 384 C2.01 383.67 1.02 383.34 0 383 C0 382.01 0 381.02 0 380 C-0.66 380 -1.32 380 -2 380 C-2.6509259 378.75264433 -3.29551669 377.50198168 -3.9375 376.25 C-4.29714844 375.55390625 -4.65679687 374.8578125 -5.02734375 374.140625 C-7.82618518 367.98092579 -7.18397573 361.4487088 -7.1875 354.8125 C-7.19974609 353.61818359 -7.21199219 352.42386719 -7.22460938 351.19335938 C-7.23572067 344.46361595 -6.76626659 338.49958179 -5 332 C-2.8125 331.1875 -2.8125 331.1875 0 331 C2.8125 333.3125 2.8125 333.3125 5 336 C5 336.66 5 337.32 5 338 C5.99 338.33 6.98 338.66 8 339 C8 339.66 8 340.32 8 341 C8.99 341.33 9.98 341.66 11 342 C18.02457163 347.54571444 20.92781484 356.53857726 23 365 C23.20625 365.804375 23.4125 366.60875 23.625 367.4375 C23.74875 367.953125 23.8725 368.46875 24 369 C24.66 369 25.32 369 26 369 C26.0825 368.46375 26.165 367.9275 26.25 367.375 C27.25948043 364.17831198 29.14665069 361.78002397 31 359 C31.95231597 356.87880872 31.95231597 356.87880872 32 355 C29.7431373 352.7431373 27.42332729 351.39371761 24.6875 349.75 C20.17331526 346.90641906 16.93676449 344.45578061 14 340 C14 339.01 14 338.02 14 337 C13.34 336.67 12.68 336.34 12 336 C7.19099788 324.39076831 5.5616762 311.49222819 6 299 C11.34844008 299.53484401 15.35796103 301.46690767 20 304 C20 304.66 20 305.32 20 306 C20.9075 306.2475 21.815 306.495 22.75 306.75 C26.22014635 308.08467167 27.56914034 309.25548103 30 312 C30.78375 312.70125 31.5675 313.4025 32.375 314.125 C37.6625556 319.91613233 41.65416987 326.04590693 42 334 C42.66 334 43.32 334 44 334 C44.103125 333.13375 44.20625 332.2675 44.3125 331.375 C45 328 45 328 46.4375 325.1875 C48.38034103 321.2241043 49.1850276 317.31455975 50 313 C49.05640625 312.76216797 49.05640625 312.76216797 48.09375 312.51953125 C38.45572808 309.89229937 30.24697811 305.47571298 24.66015625 296.95703125 C21.83106679 291.82339476 20.14607485 286.5192784 18.6875 280.875 C18.51589355 280.21838379 18.34428711 279.56176758 18.16748047 278.88525391 C17.02863501 274.12917874 16.85420571 269.84901011 17 265 C17.99 264.67 18.98 264.34 20 264 C20.99 264.66 21.98 265.32 23 266 C24.093125 266.309375 25.18625 266.61875 26.3125 266.9375 C31.04978649 268.30248085 34.90991754 270.27327836 39 273 C39 273.66 39 274.32 39 275 C39.57878906 275.26425781 40.15757812 275.52851563 40.75390625 275.80078125 C47.31993144 279.30646774 51.99200959 284.86276468 56 291 C59.21473632 287.5061129 59.90279523 283.78670844 60.6875 279.25 C60.81705078 278.55261719 60.94660156 277.85523438 61.08007812 277.13671875 C61.39639933 275.42624111 61.69952747 273.71333275 62 272 C61.30777344 271.87109375 60.61554688 271.7421875 59.90234375 271.609375 C43.72165627 268.21208396 43.72165627 268.21208396 38 262 C38 261.34 38 260.68 38 260 C37.34 259.67 36.68 259.34 36 259 C31.36710113 253.18902113 28.51938075 246.93109636 26 240 C25.54947266 238.91138672 25.54947266 238.91138672 25.08984375 237.80078125 C23.41422092 233.70914411 22.66856615 230.41911798 23 226 C26.68219236 226.59503108 30.34193579 227.27119027 34 228 C35.22009766 228.23976562 35.22009766 228.23976562 36.46484375 228.484375 C45.4702263 230.70200664 55.82013079 236.38857518 61.375 243.9375 C63 247 63 247 63 249 C63.99 249 64.98 249 66 249 C66.66 242.73 67.32 236.46 68 230 C65.586875 229.46375 63.17375 228.9275 60.6875 228.375 C53.60997301 226.67916931 46.85767133 224.48863704 41 220 C39.94921875 218.1875 39.94921875 218.1875 39 216 C37.7381092 213.99434575 36.46616103 211.99500459 35.1875 210 C25.50532146 194.53320478 25.50532146 194.53320478 26 186 C32.02738582 186.32131285 37.44184292 186.81703212 43.02734375 189.1796875 C45.21481027 190.08932704 47.4270599 190.79244873 49.6875 191.5 C55.75888195 193.52032264 59.58260886 196.35011459 64 201 C64.598125 201.53625 65.19625 202.0725 65.8125 202.625 C67 204 67 204 67 207 C67.66 206.67 68.32 206.34 69 206 C68.67 200.06 68.34 194.12 68 188 C65.21522274 187.07174091 63.75853856 186.91060248 60.91015625 187.0078125 C60.12576172 187.02457031 59.34136719 187.04132813 58.53320312 187.05859375 C56.88974227 187.10276582 55.24647373 187.1548151 53.60351562 187.21484375 C47.55032325 187.32408922 47.55032325 187.32408922 44.60546875 185.58984375 C44.07566406 185.06519531 43.54585938 184.54054687 43 184 C42.0925 183.484375 41.185 182.96875 40.25 182.4375 C39.5075 181.963125 38.765 181.48875 38 181 C38 180.34 38 179.68 38 179 C37.1646875 178.5978125 37.1646875 178.5978125 36.3125 178.1875 C32.01085954 175.97854949 28.58631048 174.21976973 26 170 C26 169.34 26 168.68 26 168 C25.01 167.67 24.02 167.34 23 167 C20.37699949 163.50266599 19.84862608 161.29613589 20 157 C47.30502277 154.40398982 47.30502277 154.40398982 57.6875 161.9375 C58.81995622 162.92685718 59.92845156 163.9449793 61 165 C62.2375 166.175625 62.2375 166.175625 63.5 167.375 C63.995 167.91125 64.49 168.4475 65 169 C65.45510807 162.32508169 63.7672426 156.40625443 62 150 C61.50628906 150.15597656 61.01257813 150.31195313 60.50390625 150.47265625 C50.65012756 152.54794505 40.83357967 152.17070287 32.29296875 146.640625 C31.53628906 146.09921875 30.77960938 145.5578125 30 145 C29.33613281 144.58234375 28.67226563 144.1646875 27.98828125 143.734375 C23.61341239 140.88738875 19.96357409 137.30966635 17 133 C17 132.34 17 131.68 17 131 C16.34 131 15.68 131 15 131 C15 130.34 15 129.68 15 129 C14.34 129 13.68 129 13 129 C12.67 128.01 12.34 127.02 12 126 C12.33 125.34 12.66 124.68 13 124 C28.58192846 119.7143083 42.72268638 122.05523263 57 129 C56.45018084 122.95198929 55.09570426 117.69398894 53 112 C52.30777344 112.28875 51.61554688 112.5775 50.90234375 112.875 C42.48169729 116.07018601 32.87437961 118.50498227 24.06640625 115.29541016 C20.17237398 113.52259025 16.57005103 111.35996628 13 109 C13 108.34 13 107.68 13 107 C12.01 107 11.02 107 10 107 C10 106.34 10 105.68 10 105 C8.35 104.67 6.7 104.34 5 104 C4.67 102.02 4.34 100.04 4 98 C5.85143394 97.3463739 7.70630758 96.70248782 9.5625 96.0625 C11.11130859 95.52302734 11.11130859 95.52302734 12.69140625 94.97265625 C18.60721257 93.23353491 24.3555865 92.84423767 30.5 92.8125 C31.7478125 92.79832031 32.995625 92.78414063 34.28125 92.76953125 C38.21826537 93.01352695 41.27031003 93.78400572 45 95 C45.33 93.68 45.66 92.36 46 91 C45.34 90.67 44.68 90.34 44 90 C41.56559758 87.47196672 41.01838895 86.31874173 40.8125 82.75 C40.874375 81.8425 40.93625 80.935 41 80 C36.2102679 79.76571687 36.2102679 79.76571687 32 82 C21.11819595 84.83552931 11.85995276 82.9520839 2 78 C1.31292969 77.67 0.62585938 77.34 -0.08203125 77 C-1.40025664 76.35786679 -2.70322135 75.68441096 -4 75 C-4 74.34 -4 73.68 -4 73 C-4.598125 72.87625 -5.19625 72.7525 -5.8125 72.625 C-8 72 -8 72 -11 70 C-10.625 67.6875 -10.625 67.6875 -9 65 C-5.77749688 63.55835387 -2.42577478 62.81444868 1 62 C2.216875 61.608125 3.43375 61.21625 4.6875 60.8125 C12.77846212 58.84353376 22.27204875 59.00393274 30 62 C29.34 60.02 28.68 58.04 28 56 C27.34 56 26.68 56 26 56 C26 55.34 26 54.68 26 54 C25.1646875 53.814375 25.1646875 53.814375 24.3125 53.625 C21.77885636 52.94023145 19.42078968 52.00866237 17 51 C17 50.34 17 49.68 17 49 C16.24847656 48.75507812 15.49695313 48.51015625 14.72265625 48.2578125 C11.66188299 46.84379673 10.4459686 45.54985145 8.4375 42.875 C7.87933594 42.15054688 7.32117188 41.42609375 6.74609375 40.6796875 C2.29692681 33.85165949 0.34571994 28.21021129 -0.25 20.0625 C-0.32734375 19.22009766 -0.4046875 18.37769531 -0.484375 17.50976562 C-0.95996329 11.99379072 -1.15391311 6.5353752 -1 1 C-0.67 0.67 -0.34 0.34 0 0 Z M57 129 C56.67 129.66 56.34 130.32 56 131 C56.66 131 57.32 131 58 131 C57.67 130.34 57.34 129.68 57 129 Z M53 341 C54 343 54 343 54 343 Z M-2 406 C-1 408 -1 408 -1 408 Z " fill="#322B3E" transform="translate(254,10)"/>
<path d="M0 0 C0.99 0 1.98 0 3 0 C2.67 2.97 2.34 5.94 2 9 C3.32 9.33 4.64 9.66 6 10 C4.42655349 13.14689302 1.2913358 13.82107702 -1.8125 15.125 C-2.44220703 15.40214844 -3.07191406 15.67929687 -3.72070312 15.96484375 C-7.10316101 17.40584889 -9.25939027 18 -13 18 C-13.33 18.66 -13.66 19.32 -14 20 C-14.99 19.67 -15.98 19.34 -17 19 C-17.639375 19.33 -18.27875 19.66 -18.9375 20 C-21 21 -21 21 -23.25 20.625 C-24.11625 20.315625 -24.11625 20.315625 -25 20 C-24.74438677 17.6568787 -24.40729228 15.32156597 -24 13 C-23.34 12.67 -22.68 12.34 -22 12 C-21.67 11.01 -21.34 10.02 -21 9 C-15.41383726 5.73262179 -9.60181383 3.76727819 -3.44140625 1.83203125 C-1.0808703 1.22793915 -1.0808703 1.22793915 0 0 Z " fill="#393343" transform="translate(139,505)"/>
<path d="M0 0 C0.33 0.66 0.66 1.32 1 2 C0.01 2 -0.98 2 -2 2 C-1.443125 3.11375 -1.443125 3.11375 -0.875 4.25 C0 7 0 7 -0.69140625 9.1015625 C-2 11 -2 11 -3.84765625 11.7578125 C-4.57855469 11.87898437 -5.30945313 12.00015625 -6.0625 12.125 C-6.86558594 12.26808594 -7.66867188 12.41117188 -8.49609375 12.55859375 C-9.32238281 12.70425781 -10.14867188 12.84992187 -11 13 C-12.5424738 13.39267636 -14.08417125 13.78841742 -15.625 14.1875 C-19.74640936 15.12187928 -22.88344516 14.87586273 -27 14 C-26.01 13.34 -25.02 12.68 -24 12 C-24.99 11.34 -25.98 10.68 -27 10 C-27 9.01 -27 8.02 -27 7 C-26.03960815 6.78851318 -26.03960815 6.78851318 -25.05981445 6.57275391 C-22.14305711 5.92787193 -19.22778562 5.27650137 -16.3125 4.625 C-15.30509766 4.40328125 -14.29769531 4.1815625 -13.25976562 3.953125 C-12.28330078 3.73398437 -11.30683594 3.51484375 -10.30078125 3.2890625 C-9.40528564 3.09006348 -8.50979004 2.89106445 -7.5871582 2.68603516 C-4.95021468 1.98679846 -2.50957644 1.06394966 0 0 Z " fill="#3D3848" transform="translate(92,523)"/>
<path d="M0 0 C2.31 0.66 4.62 1.32 7 2 C7.50642925 5.06147257 8.00399322 8.12432299 8.5 11.1875 C8.64308594 12.05181641 8.78617187 12.91613281 8.93359375 13.80664062 C9.59314262 17.90526577 10.20709266 21.83226024 10 26 C9.401875 25.690625 8.80375 25.38125 8.1875 25.0625 C5.91043228 23.89790296 5.91043228 23.89790296 3 23 C2.67 24.32 2.34 25.64 2 27 C1.86722656 25.98679688 1.73445313 24.97359375 1.59765625 23.9296875 C1.41932416 22.57811796 1.24093575 21.22655586 1.0625 19.875 C0.97548828 19.20984375 0.88847656 18.5446875 0.79882812 17.859375 C0.39200831 14.78562532 -0.04912493 11.74186525 -0.62890625 8.6953125 C-1 6 -1 6 0 3 C0 2.01 0 1.02 0 0 Z " fill="#352F3F" transform="translate(318,155)"/>
<path d="M0 0 C0.33 1.98 0.66 3.96 1 6 C-8.9 6 -18.8 6 -29 6 C-29.33 5.01 -29.66 4.02 -30 3 C-26.28158823 2.50130675 -22.56297919 2.00427956 -18.84375 1.51171875 C-16.71793544 1.22870888 -14.59248139 0.94277131 -12.46875 0.64453125 C-8.26208047 0.06861816 -4.2340468 -0.08820931 0 0 Z " fill="#4A4652" transform="translate(39,535)"/>
<path d="M0 0 C2.46313739 1.82748903 3.83428618 3.22976216 4.48828125 6.26953125 C4.72518293 8.51479346 4.90361349 10.74455578 5 13 C5.66 13 6.32 13 7 13 C7 14.65 7 16.3 7 18 C6.34 18 5.68 18 5 18 C5 18.99 5 19.98 5 21 C4.34 21 3.68 21 3 21 C-0.48120466 17.51879534 -1.21371732 16.10241651 -1.71484375 11.109375 C-2.09962034 8.26308242 -2.9944204 5.6815456 -4 3 C-2.68 2.01 -1.36 1.02 0 0 Z " fill="#413B4D" transform="translate(312,122)"/>
<path d="M0 0 C5.67087156 10.62958716 5.67087156 10.62958716 4.0625 16.3125 C3.711875 17.199375 3.36125 18.08625 3 19 C2.34 19 1.68 19 1 19 C-0.4606285 16.35261084 -1 15.10551666 -1 12 C-1.66 11.67 -2.32 11.34 -3 11 C-5.43440242 8.47196672 -5.98161105 7.31874173 -6.1875 3.75 C-6.125625 2.8425 -6.06375 1.935 -6 1 C-4 0 -4 0 0 0 Z " fill="#3D3847" transform="translate(301,89)"/>
<path d="M0 0 C-0.33 1.32 -0.66 2.64 -1 4 C-2.32 4.33 -3.64 4.66 -5 5 C-4.2575 6.1446875 -4.2575 6.1446875 -3.5 7.3125 C-2 10 -2 10 -2 13 C-2.33 12.34 -2.66 11.68 -3 11 C-3.99 11 -4.98 11 -6 11 C-6 10.34 -6 9.68 -6 9 C-7.65 8.67 -9.3 8.34 -11 8 C-11.33 6.02 -11.66 4.04 -12 2 C-10.56656 1.46809459 -9.12804633 0.94984742 -7.6875 0.4375 C-6.48673828 0.00244141 -6.48673828 0.00244141 -5.26171875 -0.44140625 C-3 -1 -3 -1 0 0 Z " fill="#3F3A45" transform="translate(270,106)"/>
<path d="M0 0 C1.98 0.66 3.96 1.32 6 2 C6.66 1.34 7.32 0.68 8 0 C8.22174933 1.45635371 8.42698698 2.91522956 8.625 4.375 C8.74101562 5.18710937 8.85703125 5.99921875 8.9765625 6.8359375 C8.98429687 7.55007813 8.99203125 8.26421875 9 9 C6.64046906 11.35953094 5.22104383 11.49141413 2 12 C-0.13586678 8.79619983 -0.23132175 7.98060033 -0.125 4.3125 C-0.10695313 3.50425781 -0.08890625 2.69601563 -0.0703125 1.86328125 C-0.04710937 1.24839844 -0.02390625 0.63351563 0 0 Z " fill="#2C2736" transform="translate(321,251)"/>
<path d="M0 0 C-0.33 1.65 -0.66 3.3 -1 5 C-1.66 5 -2.32 5 -3 5 C-3 5.66 -3 6.32 -3 7 C-3.66 7 -4.32 7 -5 7 C-5.33 7.66 -5.66 8.32 -6 9 C-6.99 9.66 -7.98 10.32 -9 11 C-8.690625 11.928125 -8.690625 11.928125 -8.375 12.875 C-8.25125 13.57625 -8.1275 14.2775 -8 15 C-8.66 15.66 -9.32 16.32 -10 17 C-10 16.34 -10 15.68 -10 15 C-10.66 15 -11.32 15 -12 15 C-12.33 15.66 -12.66 16.32 -13 17 C-12.38756458 7.11655941 -12.38756458 7.11655941 -9 4 C-8.34 4 -7.68 4 -7 4 C-6.67 3.34 -6.34 2.68 -6 2 C-3.85118612 0.75230162 -2.50320403 0 0 0 Z " fill="#2B2636" transform="translate(326,285)"/>
<path d="M0 0 C0.66 0.33 1.32 0.66 2 1 C2.40729228 3.32156597 2.74438677 5.6568787 3 8 C2.34 8 1.68 8 1 8 C0.67 9.65 0.34 11.3 0 13 C-1.32 12.67 -2.64 12.34 -4 12 C-3.34 11.67 -2.68 11.34 -2 11 C-2 10.34 -2 9.68 -2 9 C-3.65 8.67 -5.3 8.34 -7 8 C-7.33 6.35 -7.66 4.7 -8 3 C-6.865625 2.690625 -5.73125 2.38125 -4.5625 2.0625 C-1.21224901 1.37075469 -1.21224901 1.37075469 0 0 Z " fill="#1D1A2E" transform="translate(291,66)"/>
<path d="M0 0 C1.65 0 3.3 0 5 0 C6.65 3.3 8.3 6.6 10 10 C9.01 10.33 8.02 10.66 7 11 C6.67 11.99 6.34 12.98 6 14 C5.01 13.67 4.02 13.34 3 13 C3 12.34 3 11.68 3 11 C2.34 11 1.68 11 1 11 C0.375 9.125 0.375 9.125 0 7 C1.33333333 5.66666667 2.66666667 4.33333333 4 3 C2.68 3 1.36 3 0 3 C0 2.01 0 1.02 0 0 Z " fill="#3A2D46" transform="translate(158,424)"/>
<path d="M0 0 C0.33 0.66 0.66 1.32 1 2 C0.01 2 -0.98 2 -2 2 C-1.443125 3.11375 -1.443125 3.11375 -0.875 4.25 C0 7 0 7 -0.75 9.25 C-2 11 -2 11 -4 12 C-6.3329866 12.04022391 -8.66706666 12.04320247 -11 12 C-11.33 11.34 -11.66 10.68 -12 10 C-11.01 10 -10.02 10 -9 10 C-7.99782936 6.41672247 -7.99782936 6.41672247 -9 3 C-6.03 2.01 -3.06 1.02 0 0 Z " fill="#3A3548" transform="translate(92,523)"/>
<path d="M0 0 C0.33 0 0.66 0 1 0 C0.67 6.27 0.34 12.54 0 19 C-0.33 19 -0.66 19 -1 19 C-1.33 17.02 -1.66 15.04 -2 13 C-2.99 13.495 -2.99 13.495 -4 14 C-4 13.34 -4 12.68 -4 12 C-5.32 11.67 -6.64 11.34 -8 11 C-8 8.36 -8 5.72 -8 3 C-7.01 4.32 -6.02 5.64 -5 7 C-3.68 6.67 -2.36 6.34 -1 6 C-0.67 4.02 -0.34 2.04 0 0 Z " fill="#433F52" transform="translate(330,240)"/>
<path d="M0 0 C0.66 0 1.32 0 2 0 C1.98952637 0.58491211 1.97905273 1.16982422 1.96826172 1.77246094 C1.92659736 4.43159663 1.90064099 7.09066353 1.875 9.75 C1.85824219 10.67039062 1.84148437 11.59078125 1.82421875 12.5390625 C1.81777344 13.42851563 1.81132812 14.31796875 1.8046875 15.234375 C1.79421387 16.05131836 1.78374023 16.86826172 1.77294922 17.70996094 C2.02170084 20.21887518 2.74299871 21.83395625 4 24 C3 25 3 25 0.4375 25.0625 C-0.366875 25.041875 -1.17125 25.02125 -2 25 C-1.84660156 24.21367188 -1.69320313 23.42734375 -1.53515625 22.6171875 C-0.87005679 18.12169774 -0.64586315 13.66116824 -0.4375 9.125 C-0.39431641 8.24585938 -0.35113281 7.36671875 -0.30664062 6.4609375 C-0.20130661 4.30744203 -0.10022351 2.15373936 0 0 Z " fill="#4E4954" transform="translate(285,44)"/>
<path d="M0 0 C1.32 0.33 2.64 0.66 4 1 C3.95875 1.78375 3.9175 2.5675 3.875 3.375 C3.71271266 6.16116119 3.71271266 6.16116119 6 8 C6 8.99 6 9.98 6 11 C3.36 11.33 0.72 11.66 -2 12 C-2.33 11.34 -2.66 10.68 -3 10 C-2.34 10 -1.68 10 -1 10 C-1.33 7.69 -1.66 5.38 -2 3 C-1.01 3 -0.02 3 1 3 C0.67 2.01 0.34 1.02 0 0 Z " fill="#251F2E" transform="translate(92,522)"/>
<path d="M0 0 C0.66 0.66 1.32 1.32 2 2 C1.67 2.99 1.34 3.98 1 5 C0.01 5.33 -0.98 5.66 -2 6 C-3.68538601 7.99665314 -3.68538601 7.99665314 -5 10 C-5.5775 9.814375 -6.155 9.62875 -6.75 9.4375 C-9.20692525 8.95976454 -10.64397534 9.24270636 -13 10 C-13.66 9.01 -14.32 8.02 -15 7 C-14.34 7 -13.68 7 -13 7 C-12.67 6.01 -12.34 5.02 -12 4 C-9 4 -6 4 -3 4 C-1.22590192 2.07977297 -1.22590192 2.07977297 0 0 Z " fill="#292232" transform="translate(333,174)"/>
<path d="M0 0 C8.48334648 -0.1427105 16.69696769 0.12512174 25 2 C25 2.33 25 2.66 25 3 C17.08 3 9.16 3 1 3 C0.67 2.01 0.34 1.02 0 0 Z " fill="#312F37" transform="translate(9,538)"/>
<path d="M0 0 C0.99 0.99 1.98 1.98 3 3 C0.53684211 7.80315789 0.53684211 7.80315789 -1.875 8.6875 C-2.57625 8.790625 -3.2775 8.89375 -4 9 C-5.6744239 9.6469365 -7.34302621 10.30959426 -9 11 C-7.82744291 7.66272214 -6.81131596 5.22562513 -4 3 C-3.34 3 -2.68 3 -2 3 C-2 2.34 -2 1.68 -2 1 C-1.34 0.67 -0.68 0.34 0 0 Z " fill="#42404A" transform="translate(115,450)"/>
<path d="M0 0 C2.00720923 0.28674418 4.0085944 0.61866701 6 1 C5.67 2.65 5.34 4.3 5 6 C2.03 6.66 -0.94 7.32 -4 8 C-4.33 6.35 -4.66 4.7 -5 3 C-2 4 -2 4 0 5 C-0.2784375 4.0409375 -0.2784375 4.0409375 -0.5625 3.0625 C-0.706875 2.381875 -0.85125 1.70125 -1 1 C-0.67 0.67 -0.34 0.34 0 0 Z " fill="#2B2837" transform="translate(346,408)"/>
<path d="M0 0 C2.72869407 0.03287583 5.2966618 0.56397771 8 1 C8.33 1.99 8.66 2.98 9 4 C8.01 5.485 8.01 5.485 7 7 C6.236875 6.649375 5.47375 6.29875 4.6875 5.9375 C1.95240621 4.67639116 1.95240621 4.67639116 -1 6 C-1.625 4.125 -1.625 4.125 -2 2 C-1.34 1.34 -0.68 0.68 0 0 Z " fill="#3E3B4E" transform="translate(290,240)"/>
<path d="M0 0 C0.33 0 0.66 0 1 0 C1.33 2.97 1.66 5.94 2 9 C4.475 9.99 4.475 9.99 7 11 C6.67 12.98 6.34 14.96 6 17 C5.01 16.01 4.02 15.02 3 14 C2.34 15.98 1.68 17.96 1 20 C-1.67289025 16.12328894 -1.01875653 12.20732397 -0.625 7.75 C-0.56828125 7.00492188 -0.5115625 6.25984375 -0.453125 5.4921875 C-0.31223742 3.66064892 -0.15748116 1.83018648 0 0 Z " fill="#282432" transform="translate(324,200)"/>
<path d="M0 0 C1.39195915 4.17587745 -0.17676781 6.13474776 -2 10 C-3.32 9.67 -4.64 9.34 -6 9 C-5.67 8.34 -5.34 7.68 -5 7 C-6.32 6.67 -7.64 6.34 -9 6 C-7.8803014 4.99406757 -6.7540588 3.9954151 -5.625 3 C-4.68527344 2.1646875 -4.68527344 2.1646875 -3.7265625 1.3125 C-2 0 -2 0 0 0 Z " fill="#393443" transform="translate(311,37)"/>
<path d="M0 0 C3.875 1.75 3.875 1.75 5 4 C-1.57499476 5.22325484 -8.33266539 5.55017167 -15 5 C-15.66 4.34 -16.32 3.68 -17 3 C-15 2 -15 2 -13.19921875 2.4921875 C-10.4579616 3.12515984 -8.55174726 2.7157387 -5.8125 2.125 C-4.49185547 1.85042969 -4.49185547 1.85042969 -3.14453125 1.5703125 C-1.03373485 1.20094317 -1.03373485 1.20094317 0 0 Z " fill="#272332" transform="translate(267,505)"/>
<path d="M0 0 C2.22942748 0.14179038 4.45853628 0.28859698 6.6875 0.4375 C7.92886719 0.51871094 9.17023438 0.59992188 10.44921875 0.68359375 C13.39682862 0.94625205 16.15218751 1.20218982 19 2 C19.33 2.66 19.66 3.32 20 4 C5.21867882 4.3690205 5.21867882 4.3690205 -1 2 C-0.67 1.34 -0.34 0.68 0 0 Z " fill="#534F58" transform="translate(268,463)"/>
<path d="M0 0 C-0.66 1.98 -1.32 3.96 -2 6 C-2.66 6 -3.32 6 -4 6 C-4 6.66 -4 7.32 -4 8 C-5.9375 7.25 -5.9375 7.25 -8 6 C-8.75 3.875 -8.75 3.875 -9 2 C-8.34 2 -7.68 2 -7 2 C-7 1.34 -7 0.68 -7 0 C-3.86650268 -1.04449911 -3.01031744 -0.93423645 0 0 Z " fill="#2A2537" transform="translate(85,528)"/>
<path d="M0 0 C3.78611227 0.54087318 5.55400767 2.11722332 8 5 C8 5.66 8 6.32 8 7 C8.99 7.33 9.98 7.66 11 8 C8.50935112 8.68707555 6.62113708 9 4 9 C3.67 8.01 3.34 7.02 3 6 C2.01 5.67 1.02 5.34 0 5 C0 3.35 0 1.7 0 0 Z " fill="#23202C" transform="translate(251,341)"/>
<path d="M0 0 C4.05230132 2.84756309 6.2190937 5.34985578 8 10 C7.67 10.99 7.34 11.98 7 13 C6.4225 12.21625 5.845 11.4325 5.25 10.625 C3.17102363 8.19952756 1.90959667 7.14305583 -1 6 C-0.67 4.02 -0.34 2.04 0 0 Z " fill="#28232F" transform="translate(198,404)"/>
<path d="M0 0 C0.33 0 0.66 0 1 0 C1 1.65 1 3.3 1 5 C2.32 5.33 3.64 5.66 5 6 C5 6.99 5 7.98 5 9 C5.66 9.33 6.32 9.66 7 10 C6.401875 9.79375 5.80375 9.5875 5.1875 9.375 C2.71549154 8.69328085 2.71549154 8.69328085 0 11 C-0.99 10.67 -1.98 10.34 -3 10 C-2.69201674 8.51988629 -2.378482 7.04092675 -2.0625 5.5625 C-1.88847656 4.73878906 -1.71445313 3.91507812 -1.53515625 3.06640625 C-1 1 -1 1 0 0 Z " fill="#3B3644" transform="translate(250,341)"/>
<path d="M0 0 C0.66 0.99 1.32 1.98 2 3 C-0.76565382 3.92188461 -2.38283702 4.11785222 -5.23046875 4.09765625 C-6.03291016 4.09443359 -6.83535156 4.09121094 -7.66210938 4.08789062 C-8.49548828 4.07951172 -9.32886719 4.07113281 -10.1875 4.0625 C-11.03248047 4.05798828 -11.87746094 4.05347656 -12.74804688 4.04882812 C-14.83206155 4.03705403 -16.91603977 4.0191189 -19 4 C-16.35684192 1.35002966 -15.14884659 1.0030086 -11.328125 0.92578125 C-9.96727774 1.03808418 -8.60775103 1.167485 -7.25 1.3125 C-6.55261719 1.37373047 -5.85523438 1.43496094 -5.13671875 1.49804688 C-3.42310319 1.65062908 -1.7113005 1.82333589 0 2 C0 1.34 0 0.68 0 0 Z " fill="#5A5761" transform="translate(320,193)"/>
<path d="M0 0 C0.99 0.66 1.98 1.32 3 2 C2.278125 2.226875 1.55625 2.45375 0.8125 2.6875 C-2.55538115 4.25917787 -4.45032767 6.31957525 -7 9 C-9.125 10.875 -9.125 10.875 -11 12 C-11.99 11.67 -12.98 11.34 -14 11 C-14 10.34 -14 9.68 -14 9 C-13.27425781 8.74476563 -12.54851562 8.48953125 -11.80078125 8.2265625 C-8.8447016 6.93198926 -6.69435334 5.39544896 -4.1875 3.375 C-3.39730469 2.74335938 -2.60710937 2.11171875 -1.79296875 1.4609375 C-1.20128906 0.97882813 -0.60960937 0.49671875 0 0 Z " fill="#25212C" transform="translate(345,208)"/>
<path d="M0 0 C1.32 0.33 2.64 0.66 4 1 C-1.445 5.455 -1.445 5.455 -7 10 C-7.99 9.34 -8.98 8.68 -10 8 C-8.42982807 6.63059432 -6.84334609 5.27987105 -5.25 3.9375 C-3.92742187 2.80634766 -3.92742187 2.80634766 -2.578125 1.65234375 C-1.30195312 0.83443359 -1.30195312 0.83443359 0 0 Z " fill="#423D47" transform="translate(68,477)"/>
<path d="M0 0 C2.25 0.25 2.25 0.25 4 1 C4 2.65 4 4.3 4 6 C3.34 6 2.68 6 2 6 C2 6.99 2 7.98 2 9 C1.34 9 0.68 9 0 9 C-2 7 -2 7 -4 4 C-2.25 1.9375 -2.25 1.9375 0 0 Z " fill="#433F52" transform="translate(315,134)"/>
<path d="M0 0 C0.66 0 1.32 0 2 0 C2.0272367 2.52090778 2.04695207 5.04151457 2.0625 7.5625 C2.07087891 8.26697266 2.07925781 8.97144531 2.08789062 9.69726562 C2.10882603 14.24024798 1.74800682 18.51784892 1 23 C0.67 23 0.34 23 0 23 C-0.19588601 19.3545658 -0.38030536 15.7086421 -0.5625 12.0625 C-0.61857422 11.02158203 -0.67464844 9.98066406 -0.73242188 8.90820312 C-0.78076172 7.91884766 -0.82910156 6.92949219 -0.87890625 5.91015625 C-0.9260376 4.99371338 -0.97316895 4.07727051 -1.02172852 3.13305664 C-1 1 -1 1 0 0 Z " fill="#26232F" transform="translate(248,352)"/>
<path d="M0 0 C0.33 0 0.66 0 1 0 C1.33 3.3 1.66 6.6 2 10 C0.68 9.34 -0.64 8.68 -2 8 C-2.99 7.67 -3.98 7.34 -5 7 C-5.33 8.32 -5.66 9.64 -6 11 C-6 7.7 -6 4.4 -6 1 C-5.34 2.32 -4.68 3.64 -4 5 C-3.67 4.34 -3.34 3.68 -3 3 C-2.34 3 -1.68 3 -1 3 C-0.67 2.01 -0.34 1.02 0 0 Z " fill="#524A5E" transform="translate(326,171)"/>
<path d="M0 0 C0 0.33 0 0.66 0 1 C-9.405 1.495 -9.405 1.495 -19 2 C-18.67 3.32 -18.34 4.64 -18 6 C-18.66 5.67 -19.32 5.34 -20 5 C-20 4.34 -20 3.68 -20 3 C-20.66 3 -21.32 3 -22 3 C-22 2.01 -22 1.02 -22 0 C-19.27119539 -0.19555932 -16.54228931 -0.38170447 -13.8125 -0.5625 C-13.04357422 -0.61857422 -12.27464844 -0.67464844 -11.48242188 -0.73242188 C-7.45938647 -0.99141557 -3.93927628 -1.06573607 0 0 Z " fill="#504758" transform="translate(296,167)"/>
<path d="M0 0 C0.33 0.66 0.66 1.32 1 2 C1.66 2 2.32 2 3 2 C3.144375 2.763125 3.28875 3.52625 3.4375 4.3125 C3.9632594 7.08172908 3.9632594 7.08172908 5 10 C4.01 10 3.02 10 2 10 C1.67 10.99 1.34 11.98 1 13 C-1.48887372 8.31506124 -0.85687773 5.0555786 0 0 Z " fill="#3D3948" transform="translate(98,529)"/>
<path d="M0 0 C0.66 0.33 1.32 0.66 2 1 C2 1.99 2 2.98 2 4 C3.43750191 5.68798827 3.43750191 5.68798827 5 7 C4.34 7 3.68 7 3 7 C3 7.66 3 8.32 3 9 C1.35 9.33 -0.3 9.66 -2 10 C-1.85950482 8.52031676 -1.71245174 7.04125484 -1.5625 5.5625 C-1.48128906 4.73878906 -1.40007812 3.91507812 -1.31640625 3.06640625 C-1 1 -1 1 0 0 Z " fill="#1B162A" transform="translate(250,414)"/>
<path d="M0 0 C0.66 0 1.32 0 2 0 C5.62870159 8.261959 5.62870159 8.261959 4 13 C3.01 13 2.02 13 1 13 C0.29826347 8.61414671 -0.10834375 4.44209357 0 0 Z " fill="#4F4A57" transform="translate(248,401)"/>
<path d="M0 0 C0.66 0 1.32 0 2 0 C1.67 2.64 1.34 5.28 1 8 C0.01 8.33 -0.98 8.66 -2 9 C-2.99 8.34 -3.98 7.68 -5 7 C-4.1875 5.0625 -4.1875 5.0625 -3 3 C-2.01 2.67 -1.02 2.34 0 2 C0 1.34 0 0.68 0 0 Z " fill="#413C4C" transform="translate(323,290)"/>
<path d="M0 0 C0.598125 0.350625 1.19625 0.70125 1.8125 1.0625 C1.4825 2.7125 1.1525 4.3625 0.8125 6.0625 C-0.5075 6.3925 -1.8275 6.7225 -3.1875 7.0625 C-3.1875 6.4025 -3.1875 5.7425 -3.1875 5.0625 C-3.8475 5.0625 -4.5075 5.0625 -5.1875 5.0625 C-5.5175 4.0725 -5.8475 3.0825 -6.1875 2.0625 C-4.66896708 -0.97456585 -3.05066334 -1.30742714 0 0 Z " fill="#211D28" transform="translate(272.1875,133.9375)"/>
<path d="M0 0 C0.99 0.66 1.98 1.32 3 2 C5.15274948 1.69159401 5.15274948 1.69159401 7 1 C7.33 1.66 7.66 2.32 8 3 C7.34 3 6.68 3 6 3 C6 3.66 6 4.32 6 5 C5.34 5 4.68 5 4 5 C4 5.66 4 6.32 4 7 C1.83125748 6.49396008 0.00032373 6.00016187 -2 5 C-1.34 3.35 -0.68 1.7 0 0 Z " fill="#2B2730" transform="translate(245,75)"/>
<path d="M0 0 C1.98 0.66 3.96 1.32 6 2 C6 3.65 6 5.3 6 7 C5.01 6.67 4.02 6.34 3 6 C2.67 6.99 2.34 7.98 2 9 C1.87625 8.195625 1.7525 7.39125 1.625 6.5625 C1.315625 5.2940625 1.315625 5.2940625 1 4 C0.34 3.67 -0.32 3.34 -1 3 C-0.67 2.01 -0.34 1.02 0 0 Z " fill="#292335" transform="translate(320,168)"/>
<path d="M0 0 C0.66 0 1.32 0 2 0 C2.33 2.31 2.66 4.62 3 7 C2.34 7 1.68 7 1 7 C0.34 8.32 -0.32 9.64 -1 11 C-1.66 11 -2.32 11 -3 11 C-2.53199289 6.94393835 -2.12046792 3.53411321 0 0 Z " fill="#25212D" transform="translate(314,127)"/>
<path d="M0 0 C-1 3 -1 3 -3 5 C-5.32275177 5.40047444 -7.65739357 5.7397104 -10 6 C-8.20404732 1.26521567 -5.07984355 -1.69328118 0 0 Z " fill="#19132C" transform="translate(69,527)"/>
<path d="M0 0 C3.96 0 7.92 0 12 0 C11.67 0.99 11.34 1.98 11 3 C10.34 3 9.68 3 9 3 C8.67 3.66 8.34 4.32 8 5 C7.1646875 4.2265625 7.1646875 4.2265625 6.3125 3.4375 C4.05914993 1.70523302 4.05914993 1.70523302 1.25 2.3125 C0.5075 2.539375 -0.235 2.76625 -1 3 C-0.67 2.01 -0.34 1.02 0 0 Z " fill="#2B2835" transform="translate(326,347)"/>
<path d="M0 0 C0.33 0 0.66 0 1 0 C1.38888658 3.4027576 1.10380798 4.82698671 -0.6875 7.8125 C-3 10 -3 10 -5.75 10.3125 C-6.86375 10.1578125 -6.86375 10.1578125 -8 10 C-7.01 9.67 -6.02 9.34 -5 9 C-5.33 8.01 -5.66 7.02 -6 6 C-5.195625 5.38125 -4.39125 4.7625 -3.5625 4.125 C-0.96125481 2.25835959 -0.96125481 2.25835959 0 0 Z " fill="#423F4C" transform="translate(258,409)"/>
<path d="M0 0 C2.19470368 3.95046662 3 7.48763697 3 12 C3.99 12 4.98 12 6 12 C6 12.66 6 13.32 6 14 C4.35 14 2.7 14 1 14 C0 11 0 11 0.0625 8.0625 C0.00034055 5.01668705 -0.43010216 3.55108399 -2 1 C-1.34 0.67 -0.68 0.34 0 0 Z " fill="#4C4855" transform="translate(274,368)"/>
<path d="M0 0 C0.33 0 0.66 0 1 0 C1 2.31 1 4.62 1 7 C-1.35438733 8.42944945 -2.48032433 9.08661261 -5.25 8.625 C-5.8275 8.41875 -6.405 8.2125 -7 8 C-6.34 7.34 -5.68 6.68 -5 6 C-4.35232207 3.42938689 -4.35232207 3.42938689 -4 1 C-3.01 1.99 -2.02 2.98 -1 4 C-0.67 2.68 -0.34 1.36 0 0 Z " fill="#3E3747" transform="translate(330,212)"/>
<path d="M0 0 C0 0.66 0 1.32 0 2 C-0.99 2.495 -0.99 2.495 -2 3 C-2.59070014 4.94603274 -2.59070014 4.94603274 -3 7 C-3.33 7.66 -3.66 8.32 -4 9 C-3.01 9.33 -2.02 9.66 -1 10 C-3.31 10 -5.62 10 -8 10 C-8.33 9.34 -8.66 8.68 -9 8 C-8.01 8 -7.02 8 -6 8 C-4.99782936 4.41672247 -4.99782936 4.41672247 -6 1 C-3.92446352 0.4465236 -2.15634036 0 0 0 Z " fill="#46424E" transform="translate(89,525)"/>
<path d="M0 0 C1.45606519 4.52092968 0.27032841 7.51648796 -1 12 C-2.32 11.67 -3.64 11.34 -5 11 C-4.01 8.03 -3.02 5.06 -2 2 C-1.34 2 -0.68 2 0 2 C0 1.34 0 0.68 0 0 Z " fill="#393642" transform="translate(197,404)"/>
<path d="M0 0 C0.66 0 1.32 0 2 0 C3.125 3.75 3.125 3.75 2 6 C1.34 6 0.68 6 0 6 C0 6.99 0 7.98 0 9 C-0.99 9.33 -1.98 9.66 -3 10 C-2.25 3.375 -2.25 3.375 0 0 Z " fill="#23202A" transform="translate(45,499)"/>
<path d="M0 0 C2.3125 -0.3125 2.3125 -0.3125 5 0 C6.875 2.25 6.875 2.25 8 5 C7.6875 7.3125 7.6875 7.3125 7 9 C6.01 8.34 5.02 7.68 4 7 C4 5.68 4 4.36 4 3 C2.68 3 1.36 3 0 3 C0 2.01 0 1.02 0 0 Z " fill="#423E46" transform="translate(158,424)"/>
<path d="M0 0 C0.99 0 1.98 0 3 0 C3 0.99 3 1.98 3 3 C3.99 3.66 4.98 4.32 6 5 C5.34 6.32 4.68 7.64 4 9 C3.01 8.67 2.02 8.34 1 8 C-0.1875 4.4375 -0.1875 4.4375 -1 1 C-0.67 0.67 -0.34 0.34 0 0 Z " fill="#241F2F" transform="translate(39,535)"/>
<path d="M0 0 C0.93045933 2.55144824 1.08564091 3.74006478 0.22265625 6.359375 C-0.16019531 7.14828125 -0.54304687 7.9371875 -0.9375 8.75 C-1.50791016 9.94882812 -1.50791016 9.94882812 -2.08984375 11.171875 C-2.39019531 11.77515625 -2.69054687 12.3784375 -3 13 C-5 10 -5 10 -4.609375 7.7734375 C-4.18398437 6.58621094 -4.18398437 6.58621094 -3.75 5.375 C-3.47671875 4.57835937 -3.2034375 3.78171875 -2.921875 2.9609375 C-2 1 -2 1 0 0 Z " fill="#231E2A" transform="translate(193,414)"/>
<path d="M0 0 C2.125 0.9375 2.125 0.9375 4 2 C3.67 2.99 3.34 3.98 3 5 C2.34 4.67 1.68 4.34 1 4 C1.33 6.31 1.66 8.62 2 11 C1.01 11.495 1.01 11.495 0 12 C0 10.68 0 9.36 0 8 C-0.66 7.67 -1.32 7.34 -2 7 C-2 5.02 -2 3.04 -2 1 C-1.34 0.67 -0.68 0.34 0 0 Z " fill="#26232D" transform="translate(273,274)"/>
<path d="M0 0 C0.66 0 1.32 0 2 0 C2 0.66 2 1.32 2 2 C2.66 2 3.32 2 4 2 C6 5 6 5 7 7 C6.67 7.66 6.34 8.32 6 9 C4 9 4 9 1.3125 6.75 C-1 4 -1 4 -0.8125 1.6875 C-0.4103125 0.8521875 -0.4103125 0.8521875 0 0 Z " fill="#1F1828" transform="translate(315,257)"/>
<path d="M0 0 C0.33 2.31 0.66 4.62 1 7 C-2 7 -2 7 -4 6 C-4.66 5.01 -5.32 4.02 -6 3 C-2.25 0 -2.25 0 0 0 Z " fill="#2C2539" transform="translate(326,79)"/>
<path d="M0 0 C0.33 1.32 0.66 2.64 1 4 C0.360625 4.103125 -0.27875 4.20625 -0.9375 4.3125 C-1.618125 4.539375 -2.29875 4.76625 -3 5 C-3.33 5.99 -3.66 6.98 -4 8 C-4.66 8 -5.32 8 -6 8 C-6.33 7.01 -6.66 6.02 -7 5 C-2.25 0 -2.25 0 0 0 Z " fill="#161322" transform="translate(117,511)"/>
<path d="M0 0 C1.32 0.66 2.64 1.32 4 2 C3.67 3.98 3.34 5.96 3 8 C2.01 8.33 1.02 8.66 0 9 C0 7.68 0 6.36 0 5 C-0.185625 4.278125 -0.37125 3.55625 -0.5625 2.8125 C-0.706875 2.214375 -0.85125 1.61625 -1 1 C-0.67 0.67 -0.34 0.34 0 0 Z " fill="#211B2A" transform="translate(169,482)"/>
<path d="M0 0 C0.33 0.99 0.66 1.98 1 3 C-1.52788007 5.79872437 -3.20411134 7.45773019 -7 8 C-7 7.01 -7 6.02 -7 5 C-5.46875 3.61328125 -5.46875 3.61328125 -3.5 2.3125 C-2.8503125 1.87550781 -2.200625 1.43851562 -1.53125 0.98828125 C-1.0259375 0.66214844 -0.520625 0.33601563 0 0 Z " fill="#423F4A" transform="translate(227,445)"/>
<path d="M0 0 C3.71599191 -0.20086443 4.77208445 -0.1519437 8 2 C8 2.66 8 3.32 8 4 C9.32 3.67 10.64 3.34 12 3 C12.33 3.66 12.66 4.32 13 5 C12.67 5.66 12.34 6.32 12 7 C7.69235185 5.43358249 3.93828536 3.31663844 0 1 C0 0.67 0 0.34 0 0 Z " fill="#484550" transform="translate(282,415)"/>
<path d="M0 0 C0.99 0.33 1.98 0.66 3 1 C2.01 1.33 1.02 1.66 0 2 C0 2.66 0 3.32 0 4 C-2.75 5.625 -2.75 5.625 -6 7 C-8.375 6.1875 -8.375 6.1875 -10 5 C-6.77208445 2.8480563 -5.71599191 2.79913557 -2 3 C-2 2.34 -2 1.68 -2 1 C-1.34 0.67 -0.68 0.34 0 0 Z " fill="#47444E" transform="translate(365,368)"/>
<path d="M0 0 C3.63 0.33 7.26 0.66 11 1 C11 1.66 11 2.32 11 3 C8 4 8 4 5 3 C1.84979639 3.88319294 1.84979639 3.88319294 -1 5 C-1.66 4.34 -2.32 3.68 -3 3 C-1.68 3 -0.36 3 1 3 C0.67 2.01 0.34 1.02 0 0 Z " fill="#474454" transform="translate(368,306)"/>
<path d="M0 0 C0.66 0 1.32 0 2 0 C2.103125 0.598125 2.20625 1.19625 2.3125 1.8125 C3.08876455 4.28243264 4.07088921 5.32251235 6 7 C5.34 9.31 4.68 11.62 4 14 C1.90284215 10.85426323 1.47995441 8.98543749 0.875 5.3125 C0.70742188 4.31863281 0.53984375 3.32476562 0.3671875 2.30078125 C0.24601562 1.54152344 0.12484375 0.78226562 0 0 Z " fill="#595660" transform="translate(271,282)"/>
<path d="M0 0 C0 0.66 0 1.32 0 2 C-3.96 3.32 -7.92 4.64 -12 6 C-12 5.01 -12 4.02 -12 3 C-10.75336669 2.49166409 -9.50250613 1.99368855 -8.25 1.5 C-7.55390625 1.2215625 -6.8578125 0.943125 -6.140625 0.65625 C-4 0 -4 0 0 0 Z " fill="#3F3B45" transform="translate(259,72)"/>
<path d="M0 0 C1.27596315 3.82788944 0.62344752 5.36656983 -1 9 C-3.125 10.375 -3.125 10.375 -5 11 C-5.33 10.01 -5.66 9.02 -6 8 C-4.1875 4.8125 -4.1875 4.8125 -2 2 C-1.34 2 -0.68 2 0 2 C0 1.34 0 0.68 0 0 Z " fill="#444252" transform="translate(301,44)"/>
<path d="M0 0 C2.625 0.9375 2.625 0.9375 5 2 C4.67 3.32 4.34 4.64 4 6 C1.69 5.34 -0.62 4.68 -3 4 C-2.67 3.01 -2.34 2.02 -2 1 C-1.34 0.67 -0.68 0.34 0 0 Z " fill="#3D3747" transform="translate(130,570)"/>
<path d="M0 0 C0.99 0 1.98 0 3 0 C2.34 2.97 1.68 5.94 1 9 C-0.65 9.33 -2.3 9.66 -4 10 C-2.92598892 7.08482708 -2.22189824 5.22189824 0 3 C0 2.01 0 1.02 0 0 Z " fill="#3F394A" transform="translate(139,505)"/>
<path d="M0 0 C0 0.66 0 1.32 0 2 C-2.99106784 4.36503039 -5.02861582 5.91553181 -8.875 6.25 C-9.57625 6.1675 -10.2775 6.085 -11 6 C-7.87921364 2.5324596 -4.85451611 0 0 0 Z " fill="#5A5661" transform="translate(349,161)"/>
<path d="M0 0 C-0.33 2.64 -0.66 5.28 -1 8 C-1.66 7.67 -2.32 7.34 -3 7 C-3 5.68 -3 4.36 -3 3 C-4.32 3 -5.64 3 -7 3 C-7 2.34 -7 1.68 -7 1 C-4 0 -4 0 0 0 Z " fill="#3A373E" transform="translate(371,109)"/>
<path d="M0 0 C-0.61875 0.598125 -1.2375 1.19625 -1.875 1.8125 C-4.13676954 4.00811144 -4.13676954 4.00811144 -6 7 C-6.99 7 -7.98 7 -9 7 C-8.814375 6.38125 -8.62875 5.7625 -8.4375 5.125 C-7.76313824 2.95839822 -7.76313824 2.95839822 -9 1 C-5.92677456 0.08941469 -3.19902639 -0.08886184 0 0 Z " fill="#443F4D" transform="translate(268,70)"/>
<path d="M0 0 C3.875 1.875 3.875 1.875 5 3 C5.04063832 4.66617115 5.042721 6.33388095 5 8 C3.35 8 1.7 8 0 8 C0.66 6.02 1.32 4.04 2 2 C1.34 2 0.68 2 0 2 C0 1.34 0 0.68 0 0 Z " fill="#37353D" transform="translate(281,499)"/>
<path d="M0 0 C0.99 0 1.98 0 3 0 C3 0.66 3 1.32 3 2 C3.66 2 4.32 2 5 2 C4.33333333 3.33333333 3.66666667 4.66666667 3 6 C2.67 6.99 2.34 7.98 2 9 C1.34 9 0.68 9 0 9 C-0.87890625 2.84765625 -0.87890625 2.84765625 -1 1 C-0.67 0.67 -0.34 0.34 0 0 Z " fill="#2C2835" transform="translate(254,10)"/>
<path d="M0 0 C0.99 0.66 1.98 1.32 3 2 C3 2.99 3 3.98 3 5 C3.99 5.33 4.98 5.66 6 6 C5.01 6.495 5.01 6.495 4 7 C2.0546875 6.22265625 2.0546875 6.22265625 -0.125 5.0625 C-0.84945313 4.68222656 -1.57390625 4.30195313 -2.3203125 3.91015625 C-2.87460937 3.60980469 -3.42890625 3.30945313 -4 3 C-2.68 2.01 -1.36 1.02 0 0 Z " fill="#4F4C56" transform="translate(261,457)"/>
<path d="M0 0 C0 2.64 0 5.28 0 8 C-2 7 -2 7 -3 4 C-5.00016466 2.79117904 -5.00016466 2.79117904 -7 2 C-4.35261084 0.5393715 -3.10551666 0 0 0 Z " fill="#28252C" transform="translate(348,66)"/>
<path d="M0 0 C2.40921705 2.40921705 3.53812156 4.94334509 5 8 C2.36 7.67 -0.28 7.34 -3 7 C-3 6.01 -3 5.02 -3 4 C-2.34 4 -1.68 4 -1 4 C-0.67 2.68 -0.34 1.36 0 0 Z " fill="#514E59" transform="translate(165,559)"/>
<path d="M0 0 C1.96301592 3.50538557 2.95902388 7.13351728 4 11 C1 10 1 10 -0.25 7.75 C-1.07700926 4.71763271 -0.85394079 2.98879276 0 0 Z " fill="#201C26" transform="translate(44,553)"/>
<path d="M0 0 C0.66 0 1.32 0 2 0 C2 0.66 2 1.32 2 2 C2.66 2 3.32 2 4 2 C4 2.66 4 3.32 4 4 C4.66 4.33 5.32 4.66 6 5 C6.625 7.0625 6.625 7.0625 7 9 C3.64564078 7.61198929 1.88709697 6.11371 0 3 C0 2.01 0 1.02 0 0 Z " fill="#3B3742" transform="translate(207,482)"/>
<path d="M0 0 C0 1.65 0 3.3 0 5 C-1.32 5.33 -2.64 5.66 -4 6 C-4 5.01 -4 4.02 -4 3 C-4.99 3 -5.98 3 -7 3 C-7 2.34 -7 1.68 -7 1 C-4.50935112 0.31292445 -2.62113708 0 0 0 Z " fill="#494552" transform="translate(332,306)"/>
<path d="M0 0 C0 1.32 0 2.64 0 4 C-1.65 4.66 -3.3 5.32 -5 6 C-5.99 5.01 -6.98 4.02 -8 3 C-7.34 3 -6.68 3 -6 3 C-5.67 2.34 -5.34 1.68 -5 1 C-2 0 -2 0 0 0 Z " fill="#25212D" transform="translate(361,186)"/>
<path d="M0 0 C0.99 0.33 1.98 0.66 3 1 C3.33 2.98 3.66 4.96 4 7 C2.68 7.99 1.36 8.98 0 10 C-0.93423645 6.98968256 -1.04449911 6.13349732 0 3 C0 2.01 0 1.02 0 0 Z " fill="#484251" transform="translate(318,155)"/>
<path d="M0 0 C2 1 2 1 2.6875 2.875 C3 5 3 5 2 8 C0.68 7.67 -0.64 7.34 -2 7 C-1.34 4.69 -0.68 2.38 0 0 Z " fill="#262131" transform="translate(295,82)"/>
<path d="M0 0 C0 1.65 0 3.3 0 5 C-1.32 4.67 -2.64 4.34 -4 4 C-4 3.34 -4 2.68 -4 2 C-4.99 1.67 -5.98 1.34 -7 1 C-7 0.67 -7 0.34 -7 0 C-2.25 -1.125 -2.25 -1.125 0 0 Z " fill="#2F2C37" transform="translate(290,69)"/>
<path d="M0 0 C0.66 0.33 1.32 0.66 2 1 C0.515 6.445 0.515 6.445 -1 12 C-1.66 11.67 -2.32 11.34 -3 11 C-2.69217504 9.35328588 -2.37860766 7.70764424 -2.0625 6.0625 C-1.88847656 5.14597656 -1.71445312 4.22945312 -1.53515625 3.28515625 C-1 1 -1 1 0 0 Z " fill="#1C1A23" transform="translate(294,54)"/>
<path d="M0 0 C0.33 0 0.66 0 1 0 C1.24803781 2.79117245 1.47414334 5.58115074 1.6875 8.375 C1.79674805 9.56609375 1.79674805 9.56609375 1.90820312 10.78125 C2.07421875 13.0859375 2.07421875 13.0859375 2 17 C1.01 17.66 0.02 18.32 -1 19 C-0.67 12.73 -0.34 6.46 0 0 Z " fill="#4E4B54" transform="translate(215,436)"/>
<path d="M0 0 C0.99 0 1.98 0 3 0 C3.33 0.99 3.66 1.98 4 3 C4.66 3.33 5.32 3.66 6 4 C5.67 5.65 5.34 7.3 5 9 C0.57142857 3.85714286 0.57142857 3.85714286 0 0 Z " fill="#5A5860" transform="translate(248,381)"/>
<path d="M0 0 C2.64 0.66 5.28 1.32 8 2 C5.77810176 4.22189824 3.91517292 4.92598892 1 6 C0 5 0 5 -0.0625 2.4375 C-0.041875 1.633125 -0.02125 0.82875 0 0 Z " fill="#49444F" transform="translate(352,234)"/>
<path d="M0 0 C-1.65 1.98 -3.3 3.96 -5 6 C-5.99 5.67 -6.98 5.34 -8 5 C-7.25 2.5625 -7.25 2.5625 -6 0 C-3.40713222 -1.13437965 -2.55267344 -1.27633672 0 0 Z " fill="#26222F" transform="translate(374,225)"/>
<path d="M0 0 C0.33 0 0.66 0 1 0 C1.19188324 4.79708091 0.9022844 8.56133639 -1 13 C-1.99 13.495 -1.99 13.495 -3 14 C-3.33 13.01 -3.66 12.02 -4 11 C-3.00664799 9.32936253 -2.00568242 7.66324401 -1 6 C-0.28598768 2.80604974 -0.28598768 2.80604974 0 0 Z " fill="#1E1B29" transform="translate(317,58)"/>
<path d="M0 0 C1.98 0 3.96 0 6 0 C6 1.65 6 3.3 6 5 C5.01 5.495 5.01 5.495 4 6 C4 5.34 4 4.68 4 4 C3.01 4.33 2.02 4.66 1 5 C0.67 3.35 0.34 1.7 0 0 Z " fill="#3D3643" transform="translate(170,575)"/>
<path d="M0 0 C3.2542015 2.83430453 4.5206753 4.68607774 5 9 C4.34 9 3.68 9 3 9 C0.8125 6.75 0.8125 6.75 -1 4 C-0.75 1.6875 -0.75 1.6875 0 0 Z " fill="#43414A" transform="translate(284,255)"/>
<path d="M0 0 C0.99 0.33 1.98 0.66 3 1 C1.68 3.31 0.36 5.62 -1 8 C-1.66 8 -2.32 8 -3 8 C-3.36923077 3.44615385 -3.36923077 3.44615385 -1.5 1.1875 C-1.005 0.795625 -0.51 0.40375 0 0 Z " fill="#4D4953" transform="translate(312,71)"/>
<path d="M0 0 C-3.96 0 -7.92 0 -12 0 C-11.67 -0.66 -11.34 -1.32 -11 -2 C-5.60812862 -3.32253449 -4.63699315 -3.47774486 0 0 Z " fill="#494553" transform="translate(232,552)"/>
<path d="M0 0 C1.32 0.33 2.64 0.66 4 1 C4 1.66 4 2.32 4 3 C5.32 3.66 6.64 4.32 8 5 C7.67 5.99 7.34 6.98 7 8 C5 6.6875 5 6.6875 3 5 C3 4.01 3 3.02 3 2 C2.01 1.67 1.02 1.34 0 1 C0 0.67 0 0.34 0 0 Z " fill="#14111B" transform="translate(313,452)"/>
<path d="M0 0 C1.65 0.33 3.3 0.66 5 1 C3.35 2.65 1.7 4.3 0 6 C-0.66 5.01 -1.32 4.02 -2 3 C-1.34 2.01 -0.68 1.02 0 0 Z " fill="#2A2733" transform="translate(260,421)"/>
<path d="M0 0 C0.99 0.33 1.98 0.66 3 1 C0.3401439 4.44216672 -2.90288286 4.99504674 -7 6 C-6.25 4.0625 -6.25 4.0625 -5 2 C-2.9375 1.3125 -2.9375 1.3125 -1 1 C-0.67 0.67 -0.34 0.34 0 0 Z " fill="#3F3A44" transform="translate(361,326)"/>
<path d="M0 0 C1.32 0.66 2.64 1.32 4 2 C3.01 2.495 3.01 2.495 2 3 C2 3.66 2 4.32 2 5 C0.02 5.33 -1.96 5.66 -4 6 C-1.125 1.125 -1.125 1.125 0 0 Z " fill="#292436" transform="translate(367,304)"/>
<path d="M0 0 C0.33 0.99 0.66 1.98 1 3 C-0.4375 5.6875 -0.4375 5.6875 -2 8 C-2.99 7.67 -3.98 7.34 -5 7 C-5 6.01 -5 5.02 -5 4 C-4.34 4 -3.68 4 -3 4 C-3 3.34 -3 2.68 -3 2 C-2.01 1.34 -1.02 0.68 0 0 Z " fill="#201A28" transform="translate(332,263)"/>
<path d="M0 0 C1.70884005 1.62339805 3.37446717 3.29319053 5 5 C5 5.66 5 6.32 5 7 C5.66 7 6.32 7 7 7 C7 7.66 7 8.32 7 9 C6.01 9 5.02 9 4 9 C3.67 7.68 3.34 6.36 3 5 C2.34 5 1.68 5 1 5 C0.67 3.35 0.34 1.7 0 0 Z " fill="#636068" transform="translate(89,555)"/>
<path d="M0 0 C0.66 0.33 1.32 0.66 2 1 C1.34 3.97 0.68 6.94 0 10 C-1.32 9.34 -2.64 8.68 -4 8 C-3.34 7.01 -2.68 6.02 -2 5 C-1.67 5 -1.34 5 -1 5 C-0.67 3.35 -0.34 1.7 0 0 Z " fill="#433E4D" transform="translate(79,500)"/>
<path d="M0 0 C0.99 0.33 1.98 0.66 3 1 C3 3.31 3 5.62 3 8 C2.01 8 1.02 8 0 8 C-1.125 2.25 -1.125 2.25 0 0 Z " fill="#46434D" transform="translate(81,484)"/>
<path d="M0 0 C0.99 0.33 1.98 0.66 3 1 C2.21654285 2.17219543 1.42297164 3.33763668 0.625 4.5 C0.18414062 5.1496875 -0.25671875 5.799375 -0.7109375 6.46875 C-1.13632812 6.9740625 -1.56171875 7.479375 -2 8 C-2.66 8 -3.32 8 -4 8 C-3.34 6.02 -2.68 4.04 -2 2 C-1.34 2 -0.68 2 0 2 C0 1.34 0 0.68 0 0 Z " fill="#1B1823" transform="translate(269,412)"/>
<path d="M0 0 C4.75 0.75 4.75 0.75 7 3 C6.67 3.99 6.34 4.98 6 6 C4.68 5.01 3.36 4.02 2 3 C1.01 3.495 1.01 3.495 0 4 C0 2.68 0 1.36 0 0 Z " fill="#17131C" transform="translate(228,370)"/>
<path d="M0 0 C-0.99 0.495 -0.99 0.495 -2 1 C-2 1.99 -2 2.98 -2 4 C-3.9375 3.6875 -3.9375 3.6875 -6 3 C-6.33 2.01 -6.66 1.02 -7 0 C-4.3333581 -1.33332095 -2.83319697 -0.67102033 0 0 Z " fill="#2E2A36" transform="translate(392,260)"/>
<path d="M0 0 C2.64 0 5.28 0 8 0 C8 0.99 8 1.98 8 3 C5.36 3 2.72 3 0 3 C0 2.01 0 1.02 0 0 Z " fill="#78757C" transform="translate(337,238)"/>
<path d="M0 0 C0.33 0 0.66 0 1 0 C1 1.65 1 3.3 1 5 C0.34 5 -0.32 5 -1 5 C-1.33 5.99 -1.66 6.98 -2 8 C-2.66 7.34 -3.32 6.68 -4 6 C-2.84826645 3.53199953 -1.95216435 1.95216435 0 0 Z " fill="#1B1927" transform="translate(371,174)"/>
<path d="M0 0 C0.66 0 1.32 0 2 0 C2 3.63 2 7.26 2 11 C0 10 0 10 -1.25 7.6875 C-2 5 -2 5 -1.125 2.75 C-0.75375 2.1725 -0.3825 1.595 0 1 C0 0.67 0 0.34 0 0 Z " fill="#2A2634" transform="translate(283,57)"/>
<path d="M0 0 C0.66 0.66 1.32 1.32 2 2 C1.67 2.99 1.34 3.98 1 5 C-0.98 5.33 -2.96 5.66 -5 6 C-4.1875 3.5625 -4.1875 3.5625 -3 1 C-2.01 0.67 -1.02 0.34 0 0 Z " fill="#1F141D" transform="translate(317,30)"/>
<path d="M0 0 C1.3921875 0.0928125 1.3921875 0.0928125 2.8125 0.1875 C2.8125 0.8475 2.8125 1.5075 2.8125 2.1875 C-1.6425 2.6825 -1.6425 2.6825 -6.1875 3.1875 C-3.1875 0.1875 -3.1875 0.1875 0 0 Z " fill="#22202B" transform="translate(317.1875,458.8125)"/>
<path d="M0 0 C2.97 0.33 5.94 0.66 9 1 C9 1.66 9 2.32 9 3 C6 4 6 4 2.8125 2.5625 C1.884375 2.046875 0.95625 1.53125 0 1 C0 0.67 0 0.34 0 0 Z " fill="#3F3C45" transform="translate(320,393)"/>
<path d="M0 0 C1.70884005 1.62339805 3.37446717 3.29319053 5 5 C5 5.66 5 6.32 5 7 C3.125 6.75 3.125 6.75 1 6 C-0.3125 4.0625 -0.3125 4.0625 -1 2 C-0.67 1.34 -0.34 0.68 0 0 Z " fill="#1F1D29" transform="translate(264,352)"/>
<path d="M0 0 C3 3.625 3 3.625 3 7 C1.35 7 -0.3 7 -2 7 C-1.34 4.69 -0.68 2.38 0 0 Z " fill="#141025" transform="translate(310,301)"/>
<path d="M0 0 C0.99 0.33 1.98 0.66 3 1 C3.33 2.65 3.66 4.3 4 6 C2.68 5.67 1.36 5.34 0 5 C0 4.34 0 3.68 0 3 C-0.66 2.67 -1.32 2.34 -2 2 C-1.34 1.34 -0.68 0.68 0 0 Z " fill="#555260" transform="translate(292,267)"/>
<path d="M0 0 C1.8125 0.1875 1.8125 0.1875 4 1 C5.75 3.5625 5.75 3.5625 7 6 C4.625 5.8125 4.625 5.8125 2 5 C0.6875 2.4375 0.6875 2.4375 0 0 Z " fill="#3B3746" transform="translate(308,249)"/>
<path d="M0 0 C0.66 0.66 1.32 1.32 2 2 C1.67 2.99 1.34 3.98 1 5 C0.01 5.33 -0.98 5.66 -2 6 C-2.33 6.66 -2.66 7.32 -3 8 C-3.66 8 -4.32 8 -5 8 C-4.45773019 4.20411134 -2.79872437 2.52788007 0 0 Z " fill="#201A2A" transform="translate(333,174)"/>
<path d="M0 0 C0 0.99 0 1.98 0 3 C-2.5 5.1875 -2.5 5.1875 -5 7 C-5 5.02 -5 3.04 -5 1 C-3 0 -3 0 0 0 Z " fill="#45424B" transform="translate(300,89)"/>
<path d="M0 0 C1.67542976 0.28604898 3.34385343 0.61781233 5 1 C5.33 1.99 5.66 2.98 6 4 C3.625 4.1875 3.625 4.1875 1 4 C0.34 3.01 -0.32 2.02 -1 1 C-0.67 0.67 -0.34 0.34 0 0 Z " fill="#3C3843" transform="translate(288,434)"/>
<path d="M0 0 C0.66 0.33 1.32 0.66 2 1 C2 1.66 2 2.32 2 3 C1.01 3 0.02 3 -1 3 C-1.33 3.99 -1.66 4.98 -2 6 C-3.32 5.67 -4.64 5.34 -6 5 C-4.6875 3.5 -4.6875 3.5 -3 2 C-2.01 2 -1.02 2 0 2 C0 1.34 0 0.68 0 0 Z " fill="#14121B" transform="translate(383,311)"/>
<path d="M0 0 C0.66 0.33 1.32 0.66 2 1 C2 2.66666667 2 4.33333333 2 6 C0.02 6 -1.96 6 -4 6 C-3.34 4.68 -2.68 3.36 -2 2 C-1.34 2 -0.68 2 0 2 C0 1.34 0 0.68 0 0 Z " fill="#292336" transform="translate(379,267)"/>
<path d="M0 0 C2.475 0.99 2.475 0.99 5 2 C4.01 2.495 4.01 2.495 3 3 C2.67 3.99 2.34 4.98 2 6 C1.01 6.495 1.01 6.495 0 7 C0 4.69 0 2.38 0 0 Z " fill="#292535" transform="translate(323,242)"/>
<path d="M0 0 C0.33 0.66 0.66 1.32 1 2 C-0.98 4.64 -2.96 7.28 -5 10 C-5 5.88168014 -2.91010261 2.91010261 0 0 Z " fill="#4F4D57" transform="translate(335,169)"/>
<path d="M0 0 C1.32 0.33 2.64 0.66 4 1 C4 2.65 4 4.3 4 6 C3.01 6 2.02 6 1 6 C0.67 4.02 0.34 2.04 0 0 Z " fill="#3B3942" transform="translate(321,157)"/>
<path d="M0 0 C1.37562854 1.28965176 2.70766393 2.62689293 4 4 C4 4.66 4 5.32 4 6 C1.83125748 5.49396008 0.00032373 5.00016187 -2 4 C-1.34 2.68 -0.68 1.36 0 0 Z " fill="#3C3A45" transform="translate(284,150)"/>
<path d="M0 0 C2.31 0.33 4.62 0.66 7 1 C5.625 3 5.625 3 4 5 C3.34 5 2.68 5 2 5 C1.34 3.35 0.68 1.7 0 0 Z " fill="#3C3647" transform="translate(320,139)"/>
<path d="M0 0 C1.32 0 2.64 0 4 0 C4.6875 2.3125 4.6875 2.3125 5 5 C3.5625 6.8125 3.5625 6.8125 2 8 C1 5 1 5 2 2 C1.34 1.34 0.68 0.68 0 0 Z " fill="#474151" transform="translate(271,133)"/>
<path d="M0 0 C0.66 0.33 1.32 0.66 2 1 C3.11421833 4.64653273 2.94296589 7.33291043 2 11 C1.67 11 1.34 11 1 11 C1 9.35 1 7.7 1 6 C0.34 5.67 -0.32 5.34 -1 5 C-0.67 3.35 -0.34 1.7 0 0 Z " fill="#3C3643" transform="translate(317,52)"/>
<path d="M0 0 C0.33 0 0.66 0 1 0 C0.67 3.63 0.34 7.26 0 11 C-0.99 10.01 -1.98 9.02 -3 8 C-2.5359375 7.13375 -2.5359375 7.13375 -2.0625 6.25 C-1.07416636 4.15705816 -0.4831387 2.25464725 0 0 Z " fill="#2A2433" transform="translate(318,40)"/>
<path d="M0 0 C1.5625 1.1875 1.5625 1.1875 3 3 C2.6875 5.6875 2.6875 5.6875 2 8 C-0.22189824 5.77810176 -0.92598892 3.91517292 -2 1 C-1.34 0.67 -0.68 0.34 0 0 Z " fill="#1B1924" transform="translate(108,595)"/>
<path d="M0 0 C-0.8125 2.4375 -0.8125 2.4375 -2 5 C-2.99 5.33 -3.98 5.66 -5 6 C-4.625 3.5625 -4.625 3.5625 -4 1 C-2 0 -2 0 0 0 Z " fill="#34324A" transform="translate(233,441)"/>
<path d="M0 0 C0.99 0.33 1.98 0.66 3 1 C3.6875 3.0625 3.6875 3.0625 4 5 C2.35 5.33 0.7 5.66 -1 6 C-0.67 4.02 -0.34 2.04 0 0 Z " fill="#231A2C" transform="translate(243,442)"/>
<path d="M0 0 C2.4375 0.75 2.4375 0.75 5 2 C5.8125 4.125 5.8125 4.125 6 6 C5.01 6 4.02 6 3 6 C3 5.01 3 4.02 3 3 C2.34 3 1.68 3 1 3 C0.67 2.01 0.34 1.02 0 0 Z " fill="#18131D" transform="translate(231,433)"/>
<path d="M0 0 C1.32 0 2.64 0 4 0 C2.86695008 3.39914975 1.87481525 4.05254451 -1 6 C-1.33 5.01 -1.66 4.02 -2 3 C-1.34 2.01 -0.68 1.02 0 0 Z " fill="#241E31" transform="translate(158,427)"/>
<path d="M0 0 C0.99 0 1.98 0 3 0 C2.34 2.31 1.68 4.62 1 7 C0.67 6.34 0.34 5.68 0 5 C-0.66 4.67 -1.32 4.34 -2 4 C-1.34 2.68 -0.68 1.36 0 0 Z " fill="#272132" transform="translate(268,360)"/>
<path d="M0 0 C2.97 0.495 2.97 0.495 6 1 C6 1.99 6 2.98 6 4 C5.34 4 4.68 4 4 4 C4 3.34 4 2.68 4 2 C3.34 2 2.68 2 2 2 C1.67 2.66 1.34 3.32 1 4 C0.67 2.68 0.34 1.36 0 0 Z " fill="#1D1B27" transform="translate(260,309)"/>
<path d="M0 0 C0.33 0.66 0.66 1.32 1 2 C2.64363134 2.72159424 4.31050386 3.39351421 6 4 C6 4.99 6 5.98 6 7 C3.53199953 5.84826645 1.95216435 4.95216435 0 3 C0 2.01 0 1.02 0 0 Z " fill="#423E48" transform="translate(292,222)"/>
<path d="M0 0 C0.33 0.99 0.66 1.98 1 3 C1.66 3 2.32 3 3 3 C3 4.32 3 5.64 3 7 C3.66 7.33 4.32 7.66 5 8 C4.01 8.495 4.01 8.495 3 9 C2.34 8.67 1.68 8.34 1 8 C0.40644386 5.35139573 0.25790731 2.70802678 0 0 Z " fill="#211A2C" transform="translate(320,214)"/>
<path d="M0 0 C0.33 0 0.66 0 1 0 C1.25 2.8125 1.25 2.8125 1 6 C-1 7.875 -1 7.875 -3 9 C-3 7.35 -3 5.7 -3 4 C-2.01 3.67 -1.02 3.34 0 3 C0 2.01 0 1.02 0 0 Z " fill="#201D32" transform="translate(300,89)"/>
<path d="M0 0 C1.32 0.33 2.64 0.66 4 1 C4 2.65 4 4.3 4 6 C3.01 6 2.02 6 1 6 C0 3 0 3 0 0 Z " fill="#272332" transform="translate(289,83)"/>
<path d="M0 0 C2.35953094 2.35953094 2.49141413 3.77895617 3 7 C2.01 6.67 1.02 6.34 0 6 C-1.1875 3.4375 -1.1875 3.4375 -2 1 C-1.34 0.67 -0.68 0.34 0 0 Z " fill="#604B65" transform="translate(100,571)"/>
<path d="M0 0 C2.31 0 4.62 0 7 0 C7 0.66 7 1.32 7 2 C4.69 2.33 2.38 2.66 0 3 C0 2.01 0 1.02 0 0 Z " fill="#201A28" transform="translate(60,537)"/>
<path d="M0 0 C2.31 0.33 4.62 0.66 7 1 C6.01 2.485 6.01 2.485 5 4 C3.68 4 2.36 4 1 4 C0.67 2.68 0.34 1.36 0 0 Z " fill="#373540" transform="translate(24,536)"/>
<path d="M0 0 C-0.66 1.98 -1.32 3.96 -2 6 C-2.99 6 -3.98 6 -5 6 C-4.625 3.5625 -4.625 3.5625 -4 1 C-2 0 -2 0 0 0 Z " fill="#2C2237" transform="translate(118,515)"/>
<path d="M0 0 C2.00720923 0.28674418 4.0085944 0.61866701 6 1 C6 1.66 6 2.32 6 3 C4.02 3.33 2.04 3.66 0 4 C-0.33 3.01 -0.66 2.02 -1 1 C-0.67 0.67 -0.34 0.34 0 0 Z " fill="#2A2435" transform="translate(252,475)"/>
<path d="M0 0 C1.32 0.33 2.64 0.66 4 1 C3.01 1.495 3.01 1.495 2 2 C2 2.66 2 3.32 2 4 C0.35 4.33 -1.3 4.66 -3 5 C-2 3 -2 3 0 0 Z " fill="#272131" transform="translate(251,419)"/>
<path d="M0 0 C1.65 1.65 3.3 3.3 5 5 C3.68 5 2.36 5 1 5 C0.34 4.34 -0.32 3.68 -1 3 C-0.67 2.01 -0.34 1.02 0 0 Z " fill="#1E1C22" transform="translate(198,404)"/>
<path d="M0 0 C0.99 0.33 1.98 0.66 3 1 C2.01 2.485 2.01 2.485 1 4 C0.34 4 -0.32 4 -1 4 C-1.33 4.99 -1.66 5.98 -2 7 C-2 5.02 -2 3.04 -2 1 C-1.34 0.67 -0.68 0.34 0 0 Z " fill="#4E3D52" transform="translate(374,171)"/>
<path d="M0 0 C0.66 0.66 1.32 1.32 2 2 C0.515 4.475 0.515 4.475 -1 7 C-1.99 6.67 -2.98 6.34 -4 6 C-2.68 4.02 -1.36 2.04 0 0 Z " fill="#19161F" transform="translate(378,164)"/>
<path d="M0 0 C1.98 0.99 1.98 0.99 4 2 C4 2.66 4 3.32 4 4 C4.66 4.33 5.32 4.66 6 5 C5.01 5.66 4.02 6.32 3 7 C0 2.25 0 2.25 0 0 Z " fill="#2A2833" transform="translate(278,146)"/>
<path d="" fill="#FFFFFF" transform="translate(0,0)"/>
<path d="" fill="#FFFFFF" transform="translate(0,0)"/>
<path d="" fill="#FFFFFF" transform="translate(0,0)"/>
<path d="" fill="#FFFFFF" transform="translate(0,0)"/>
<path d="" fill="#FFFFFF" transform="translate(0,0)"/>
<path d="" fill="#FFFFFF" transform="translate(0,0)"/>
<path d="" fill="#FFFFFF" transform="translate(0,0)"/>
<path d="" fill="#FFFFFF" transform="translate(0,0)"/>
<path d="" fill="#FFFFFF" transform="translate(0,0)"/>
<path d="" fill="#FFFFFF" transform="translate(0,0)"/>
<path d="" fill="#FFFFFF" transform="translate(0,0)"/>
<path d="" fill="#FFFFFF" transform="translate(0,0)"/>
<path d="" fill="#FFFFFF" transform="translate(0,0)"/>
<path d="" fill="#FFFFFF" transform="translate(0,0)"/>
<path d="" fill="#FFFFFF" transform="translate(0,0)"/>
<path d="" fill="#FFFFFF" transform="translate(0,0)"/>
<path d="" fill="#FFFFFF" transform="translate(0,0)"/>
<path d="" fill="#FFFFFF" transform="translate(0,0)"/>
<path d="" fill="#FFFFFF" transform="translate(0,0)"/>
<path d="" fill="#FFFFFF" transform="translate(0,0)"/>
<path d="" fill="#7F7F7F" transform="translate(0,0)"/>
<path d="" fill="#FFFFFF" transform="translate(0,0)"/>
<path d="" fill="#FFFFFF" transform="translate(0,0)"/>
<path d="" fill="#FFFFFF" transform="translate(0,0)"/>
<path d="" fill="#FFFFFF" transform="translate(0,0)"/>
<path d="" fill="#FFFFFF" transform="translate(0,0)"/>
<path d="" fill="#FFFFFF" transform="translate(0,0)"/>
<path d="" fill="#FFFFFF" transform="translate(0,0)"/>
<path d="" fill="#FFFFFF" transform="translate(0,0)"/>
<path d="" fill="#FFFFFF" transform="translate(0,0)"/>
<path d="" fill="#FFFFFF" transform="translate(0,0)"/>
<path d="" fill="#FFFFFF" transform="translate(0,0)"/>
<path d="" fill="#FFFFFF" transform="translate(0,0)"/>
<path d="" fill="#FFFFFF" transform="translate(0,0)"/>
<path d="" fill="#FFFFFF" transform="translate(0,0)"/>
<path d="" fill="#FFFFFF" transform="translate(0,0)"/>
<path d="" fill="#FFFFFF" transform="translate(0,0)"/>
<path d="" fill="#FFFFFF" transform="translate(0,0)"/>
<path d="" fill="#FFFFFF" transform="translate(0,0)"/>
<path d="" fill="#FFFFFF" transform="translate(0,0)"/>
<path d="" fill="#FFFFFF" transform="translate(0,0)"/>
<path d="" fill="#FFFFFF" transform="translate(0,0)"/>
<path d="" fill="#FFFFFF" transform="translate(0,0)"/>
<path d="" fill="#FFFFFF" transform="translate(0,0)"/>
<path d="" fill="#FFFFFF" transform="translate(0,0)"/>
<path d="" fill="#FFFFFF" transform="translate(0,0)"/>
<path d="" fill="#FFFFFF" transform="translate(0,0)"/>
<path d="" fill="#FFFFFF" transform="translate(0,0)"/>
<path d="" fill="#FFFFFF" transform="translate(0,0)"/>
<path d="" fill="#FFFFFF" transform="translate(0,0)"/>
<path d="" fill="#FFFFFF" transform="translate(0,0)"/>
<path d="" fill="#FFFFFF" transform="translate(0,0)"/>
<path d="" fill="#FFFFFF" transform="translate(0,0)"/>
<path d="" fill="#FFFFFF" transform="translate(0,0)"/>
<path d="" fill="#FFFFFF" transform="translate(0,0)"/>
<path d="" fill="#0000FF" transform="translate(0,0)"/>
<path d="" fill="#FFFFFF" transform="translate(0,0)"/>
<path d="" fill="#FFFFFF" transform="translate(0,0)"/>
<path d="" fill="#FFFFFF" transform="translate(0,0)"/>
<path d="" fill="#FFFFFF" transform="translate(0,0)"/>
<path d="" fill="#FFFFFF" transform="translate(0,0)"/>
<path d="" fill="#FFFFFF" transform="translate(0,0)"/>
<path d="" fill="#FFFFFF" transform="translate(0,0)"/>
<path d="" fill="#FFFFFF" transform="translate(0,0)"/>
<path d="" fill="#FFFFFF" transform="translate(0,0)"/>
<path d="" fill="#FFFFFF" transform="translate(0,0)"/>
<path d="" fill="#FFFFFF" transform="translate(0,0)"/>
<path d="" fill="#FFFFFF" transform="translate(0,0)"/>
</svg>
