<?xml version="1.0" encoding="UTF-8"?>
<svg version="1.1" xmlns="http://www.w3.org/2000/svg" width="573" height="256">
<path d="M0 0 C14.85 0 29.7 0 45 0 C45 69.3 45 138.6 45 210 C30.15 210 15.3 210 0 210 C0 207.03 0 204.06 0 201 C-0.56203125 201.37511719 -1.1240625 201.75023437 -1.703125 202.13671875 C-20.14312322 213.36475447 -44.24575947 215.20191982 -65.02319336 210.50610352 C-72.94639369 208.43496661 -80.16087077 205.5702238 -87 201 C-88.36318359 200.10474609 -88.36318359 200.10474609 -89.75390625 199.19140625 C-107.24430421 187.10138152 -117.99975402 171.50319201 -123 151 C-123.24363281 150.04738281 -123.48726562 149.09476563 -123.73828125 148.11328125 C-126.63488285 134.93078825 -125.22229708 121.94858552 -122 109 C-121.77183594 108.0615625 -121.54367188 107.123125 -121.30859375 106.15625 C-119.70784714 100.22891397 -117.25436506 95.19084675 -114 90 C-113.31357422 88.86498047 -113.31357422 88.86498047 -112.61328125 87.70703125 C-101.43769609 70.45102696 -85.14539319 57.61217187 -65 53 C-64.25588867 52.82557373 -63.51177734 52.65114746 -62.74511719 52.47143555 C-56.73902705 51.15063554 -51.01773855 50.64757075 -44.875 50.6875 C-43.9662915 50.69241455 -43.05758301 50.6973291 -42.12133789 50.70239258 C-27.18840836 50.95798121 -13.89968258 54.26019045 -1 62 C-0.67 41.54 -0.34 21.08 0 0 Z M-70 103 C-77.61174199 110.61174199 -81.89291271 121.68734892 -82.03125 132.42578125 C-81.33596248 143.32441309 -77.62563307 154.9234152 -69.3984375 162.34765625 C-57.0370356 172.16970039 -45.95232505 174.32208741 -30.55078125 172.75 C-20.47087708 170.7871789 -10.67374254 162.97216497 -4.75 154.8125 C1.35169989 145.03999135 2.56281442 133.76109532 0.30859375 122.56640625 C-3.02335285 110.50726899 -9.9513931 102.37935656 -20.30859375 95.45703125 C-37.6998935 85.71904567 -55.81437296 90.42133852 -70 103 Z " fill="#000000" transform="translate(339,27)"/>
<path d="M0 0 C3.62976855 3.08316295 7.03598709 6.35757539 10.40771484 9.71923828 C11.00326172 10.29158203 11.59880859 10.86392578 12.21240234 11.45361328 C23.81228339 23.61781286 29.52473899 42.30732637 29.54052734 58.71142578 C29.54181641 59.99275391 29.54310547 61.27408203 29.54443359 62.59423828 C29.54233887 63.25037109 29.54024414 63.90650391 29.53808594 64.58251953 C29.53267293 66.60993741 29.53808267 68.63713918 29.54443359 70.66455078 C29.5425 72.57494141 29.5425 72.57494141 29.54052734 74.52392578 C29.53939941 75.68907715 29.53827148 76.85422852 29.53710938 78.0546875 C29.40771484 80.71923828 29.40771484 80.71923828 28.40771484 81.71923828 C26.86418354 81.81508827 25.31626376 81.84111898 23.76976013 81.8394928 C22.76710114 81.84086746 21.76444214 81.84224213 20.73139954 81.84365845 C19.62225693 81.84006317 18.51311432 81.8364679 17.37036133 81.83276367 C16.20954041 81.8329097 15.04871948 81.83305573 13.85272217 81.83320618 C9.99473232 81.83250645 6.13679006 81.82471126 2.27880859 81.81689453 C-0.38777244 81.81503056 -3.0543508 81.8135574 -5.72093201 81.81260681 C-12.03557395 81.80949376 -18.35019867 81.80128072 -24.66483301 81.79125732 C-31.85214149 81.78009538 -39.03945077 81.77458553 -46.22676575 81.76956189 C-61.01528105 81.75909809 -75.8037828 81.74149915 -90.59228516 81.71923828 C-89.8103868 83.6501757 -89.02294159 85.57886765 -88.2331543 87.5065918 C-87.5762838 89.11800804 -87.5762838 89.11800804 -86.90614319 90.76197815 C-83.3561103 98.75246911 -77.24538238 104.42322982 -69.21728516 107.84423828 C-55.86152618 112.67204562 -40.64606406 112.45364048 -27.59228516 106.71923828 C-21.10689299 103.62747163 -16.5102265 100.09089458 -12.16259766 94.35595703 C-10.31342044 92.42858078 -9.23978439 91.94466891 -6.59228516 91.71923828 C-3.90478516 93.34423828 -3.90478516 93.34423828 -2.33447266 94.49267578 C-0.46222792 95.81080324 1.45443008 96.88381572 3.47021484 97.96923828 C10.6326273 101.88599194 17.61606834 106.19147394 24.40771484 110.71923828 C23.16575414 114.15851407 21.85031201 116.97131647 19.40771484 119.71923828 C18.74771484 119.71923828 18.08771484 119.71923828 17.40771484 119.71923828 C17.22080078 120.42177734 17.03388672 121.12431641 16.84130859 121.84814453 C14.84435037 125.84750228 11.96716322 127.95786647 8.47021484 130.65673828 C7.78781738 131.1867041 7.10541992 131.71666992 6.40234375 132.26269531 C-13.87679928 147.74503188 -40.08758305 152.44606083 -65.20361328 149.40283203 C-77.08170835 147.44061264 -89.91860673 144.07964578 -99.59228516 136.71923828 C-100.41083984 136.16623047 -101.22939453 135.61322266 -102.07275391 135.04345703 C-119.21871589 123.24230527 -129.65473518 105.65274737 -134.10400391 85.45361328 C-134.86170376 81.21049408 -135.36940413 77.02362801 -135.59228516 72.71923828 C-135.63353516 71.94322266 -135.67478516 71.16720703 -135.71728516 70.36767578 C-136.2339967 50.53887016 -129.81839642 29.49744663 -117.33837891 13.90283203 C-115.4936775 12.05813062 -113.60528631 10.37538923 -111.59228516 8.71923828 C-110.82916016 7.89423828 -110.06603516 7.06923828 -109.27978516 6.21923828 C-81.65946053 -19.47408695 -30.34810769 -24.41063676 0 0 Z M-82.34228516 34.53173828 C-85.73051202 38.54023551 -87.76867206 42.82606526 -89.59228516 47.71923828 C-88.48670898 49.0505194 -88.48670898 49.0505194 -85.70066833 48.8394928 C-83.75874352 48.83616188 -83.75874352 48.83616188 -81.77758789 48.83276367 C-81.06543121 48.8329097 -80.35327454 48.83305573 -79.61953735 48.83320618 C-77.25495403 48.83250699 -74.89044854 48.82471434 -72.52587891 48.81689453 C-70.89063052 48.81503037 -69.25538159 48.81360646 -67.62013245 48.81260681 C-63.3079373 48.80878146 -58.99577563 48.79895103 -54.68359375 48.78790283 C-50.2866257 48.77768908 -45.88965226 48.77310927 -41.49267578 48.76806641 C-32.85919685 48.75732877 -24.22574516 48.74025215 -15.59228516 48.71923828 C-15.87701484 47.27787378 -16.17156389 45.83844682 -16.47021484 44.39990234 C-16.63318054 43.59812561 -16.79614624 42.79634888 -16.96405029 41.97027588 C-18.40557439 36.80512965 -22.86178633 33.35424653 -26.59228516 29.71923828 C-27.10017578 29.17912109 -27.60806641 28.63900391 -28.13134766 28.08251953 C-34.83416571 21.55609142 -44.84349388 21.26731316 -53.66992188 21.36791992 C-66.01006103 21.79024522 -73.98088539 25.63889362 -82.34228516 34.53173828 Z " fill="#000000" transform="translate(531.59228515625,91.28076171875)"/>
<path d="M0 0 C14.85 0 29.7 0 45 0 C45 13.2 45 26.4 45 40 C48.16464844 39.98839844 51.32929687 39.97679687 54.58984375 39.96484375 C57.64119364 39.95705406 60.69254244 39.9509768 63.74389648 39.94506836 C65.87118014 39.94002702 67.99846031 39.93319409 70.12573242 39.92456055 C73.17627826 39.91248621 76.22677845 39.90676986 79.27734375 39.90234375 C80.71327126 39.89460182 80.71327126 39.89460182 82.1782074 39.88670349 C83.05904495 39.88662796 83.93988251 39.88655243 84.84741211 39.88647461 C85.62684677 39.884254 86.40628143 39.88203339 87.20933533 39.87974548 C89 40 89 40 90 41 C90.0886126 43.81140151 90.11529584 46.59879424 90.09765625 49.41015625 C90.09664917 50.15616089 90.09564209 50.90216553 90.09460449 51.67077637 C90.08935689 54.46803313 90.07539573 57.26526804 90.0625 60.0625 C90.041875 66.311875 90.02125 72.56125 90 79 C75.15 79 60.3 79 45 79 C45.10978221 87.05147426 45.2204135 95.10286119 45.33904266 103.15419769 C45.39405873 106.90428514 45.4475672 110.65437966 45.49731445 114.40454102 C45.5453698 118.02263579 45.59772171 121.64064611 45.65294075 125.25863838 C45.67317957 126.63276605 45.69192064 128.0069167 45.70907402 129.38108635 C45.05386065 143.4903019 45.05386065 143.4903019 50 156 C54.58833888 158.79912971 58.49790638 159.45162843 63.76953125 159.4765625 C64.85194344 159.49993179 64.85194344 159.49993179 65.95622253 159.52377319 C68.24163876 159.5709871 70.5267529 159.59897357 72.8125 159.625 C75.11589009 159.66148935 77.41910863 159.70202559 79.72233582 159.74765015 C81.15119836 159.77489105 82.58018759 159.79623624 84.00923157 159.81118774 C88.88928578 159.88928578 88.88928578 159.88928578 90 161 C90.08858646 163.73894085 90.11523479 166.4525327 90.09765625 169.19140625 C90.0962413 170.01124496 90.09482635 170.83108368 90.09336853 171.67576599 C90.08775289 174.30471382 90.07519779 176.93357773 90.0625 179.5625 C90.05748701 181.34049357 90.05292376 183.11848846 90.04882812 184.89648438 C90.03777839 189.26435545 90.02050331 193.63216348 90 198 C34.30966439 199.05382003 34.30966439 199.05382003 18 187 C17.1440625 186.37351563 16.288125 185.74703125 15.40625 185.1015625 C7.64121662 178.31976386 2.66211484 167.07811418 1 157 C0.88537886 154.4466866 0.81561468 151.9178269 0.79467773 149.36401367 C0.78477814 148.61225861 0.77487854 147.86050354 0.76467896 147.08596802 C0.73321568 144.61333309 0.70836686 142.14067899 0.68359375 139.66796875 C0.6630111 137.94875096 0.64201429 136.22953809 0.62062073 134.5103302 C0.5655354 129.99439482 0.51606663 125.47841479 0.46777344 120.96240234 C0.41745932 116.35054572 0.36182507 111.73875359 0.30664062 107.12695312 C0.19922472 98.08468857 0.09823512 89.04236896 0 80 C-7.26 79.67 -14.52 79.34 -22 79 C-22 66.13 -22 53.26 -22 40 C-19.03 39.34 -16.06 38.68 -13 38 C-10.5328121 36.81485081 -10.5328121 36.81485081 -8.6875 35.25 C-8.07261719 34.78078125 -7.45773438 34.3115625 -6.82421875 33.828125 C-0.25474199 27.24458084 -0.36017826 21.71470614 -0.25 12.625 C-0.1675 8.45875 -0.085 4.2925 0 0 Z " fill="#000000" transform="translate(41,39)"/>
<path d="M0 0 C14.52 0 29.04 0 44 0 C44 52.14 44 104.28 44 158 C29.48 158 14.96 158 0 158 C0 105.86 0 53.72 0 0 Z " fill="#000000" transform="translate(152,79)"/>
<path d="M0 0 C5.50127443 4.55341972 9.78705027 11.34879144 10.61328125 18.52734375 C10.65961273 29.199027 8.13910919 34.99549666 0.6875 42.76953125 C-5.4916086 48.34902241 -12.06643557 48.52477929 -20.2109375 48.32421875 C-27.95914349 47.41010456 -33.58222023 43.86537923 -38.43359375 37.85546875 C-41.81330366 32.62270917 -43.24607544 28.33428588 -43.1875 22.1015625 C-43.18177979 21.39596191 -43.17605957 20.69036133 -43.17016602 19.96337891 C-42.92435288 12.76444736 -40.86786843 8.32861483 -36.04296875 3.1484375 C-25.98923864 -6.20175845 -11.71166945 -7.35464957 0 0 Z " fill="#000000" transform="translate(190.6875,21.0859375)"/>
<path d="M0 0 C2 1 2 1 2.8515625 3.1796875 C3.10679687 4.06914062 3.36203125 4.95859375 3.625 5.875 C4.01558594 7.20144531 4.01558594 7.20144531 4.4140625 8.5546875 C5 11 5 11 5 14 C4.34 14 3.68 14 3 14 C-0.44419134 4.58997722 -0.44419134 4.58997722 0 0 Z " fill="#0C0C0C" transform="translate(398,174)"/>
<path d="" fill="#FFFFFF" transform="translate(0,0)"/>
<path d="" fill="#FFFFFF" transform="translate(0,0)"/>
<path d="" fill="#FFFFFF" transform="translate(0,0)"/>
<path d="" fill="#FFFFFF" transform="translate(0,0)"/>
<path d="" fill="#FFFFFF" transform="translate(0,0)"/>
<path d="" fill="#FFFFFF" transform="translate(0,0)"/>
<path d="" fill="#FFFFFF" transform="translate(0,0)"/>
<path d="" fill="#FFFFFF" transform="translate(0,0)"/>
<path d="" fill="#FFFFFF" transform="translate(0,0)"/>
<path d="" fill="#FFFFFF" transform="translate(0,0)"/>
<path d="" fill="#FFFFFF" transform="translate(0,0)"/>
<path d="" fill="#FFFFFF" transform="translate(0,0)"/>
<path d="" fill="#FFFFFF" transform="translate(0,0)"/>
<path d="" fill="#FFFFFF" transform="translate(0,0)"/>
<path d="" fill="#FFFFFF" transform="translate(0,0)"/>
<path d="" fill="#FFFFFF" transform="translate(0,0)"/>
<path d="" fill="#FFFFFF" transform="translate(0,0)"/>
<path d="" fill="#FFFFFF" transform="translate(0,0)"/>
<path d="" fill="#FFFFFF" transform="translate(0,0)"/>
<path d="" fill="#FFFFFF" transform="translate(0,0)"/>
<path d="" fill="#FFFFFF" transform="translate(0,0)"/>
<path d="" fill="#FFFFFF" transform="translate(0,0)"/>
<path d="" fill="#FFFFFF" transform="translate(0,0)"/>
<path d="" fill="#FFFFFF" transform="translate(0,0)"/>
<path d="" fill="#FFFFFF" transform="translate(0,0)"/>
<path d="" fill="#FFFFFF" transform="translate(0,0)"/>
<path d="" fill="#FFFFFF" transform="translate(0,0)"/>
<path d="" fill="#FFFFFF" transform="translate(0,0)"/>
<path d="" fill="#FFFFFF" transform="translate(0,0)"/>
<path d="" fill="#FFFFFF" transform="translate(0,0)"/>
<path d="" fill="#FFFFFF" transform="translate(0,0)"/>
<path d="" fill="#FFFFFF" transform="translate(0,0)"/>
<path d="" fill="#FFFFFF" transform="translate(0,0)"/>
<path d="" fill="#FFFFFF" transform="translate(0,0)"/>
<path d="" fill="#FFFFFF" transform="translate(0,0)"/>
<path d="" fill="#FFFFFF" transform="translate(0,0)"/>
<path d="" fill="#FFFFFF" transform="translate(0,0)"/>
<path d="" fill="#FFFFFF" transform="translate(0,0)"/>
<path d="" fill="#FFFFFF" transform="translate(0,0)"/>
<path d="" fill="#FFFFFF" transform="translate(0,0)"/>
<path d="" fill="#FFFFFF" transform="translate(0,0)"/>
<path d="" fill="#FFFFFF" transform="translate(0,0)"/>
</svg>
