<?xml version="1.0" encoding="UTF-8"?>
<svg version="1.1" xmlns="http://www.w3.org/2000/svg" width="275" height="256">
<path d="M0 0 C4.53901816 3.66693828 6.18411596 7.88770521 6.9375 13.59899902 C7.34890648 18.45579177 7.22308564 23.33316046 7.1875 28.203125 C7.18182007 29.97547516 7.18182007 29.97547516 7.17602539 31.78363037 C7.16384634 35.5432913 7.14520787 39.30287417 7.125 43.0625 C7.09847052 48.02603949 7.07845871 52.98954156 7.0625 57.953125 C7.05420166 59.09686584 7.04590332 60.24060669 7.03735352 61.41900635 C7.03239868 63.0064566 7.03239868 63.0064566 7.02734375 64.62597656 C7.02210693 65.55750549 7.01687012 66.48903442 7.01147461 67.4487915 C7.02556212 69.96477351 7.02556212 69.96477351 8.125 72.8125 C9.115 73.1425 10.105 73.4725 11.125 73.8125 C12.89498538 72.76369748 12.89498538 72.76369748 14.625 71.0625 C15.31851563 70.42699219 16.01203125 69.79148437 16.7265625 69.13671875 C18.51251064 67.4060361 20.27534766 65.66273389 22.0234375 63.89453125 C22.76303711 63.14671387 22.76303711 63.14671387 23.51757812 62.38378906 C24.49883034 61.38508374 25.47421266 60.38057395 26.44335938 59.37011719 C27.63417244 58.14769718 28.87594299 56.97534264 30.125 55.8125 C30.785 55.8125 31.445 55.8125 32.125 55.8125 C32.38079834 55.22766846 32.63659668 54.64283691 32.90014648 54.0402832 C34.24444719 51.59524753 35.69160114 50.07409836 37.72265625 48.16796875 C38.44259766 47.49056641 39.16253906 46.81316406 39.90429688 46.11523438 C40.65775391 45.41720703 41.41121094 44.71917969 42.1875 44 C43.27708008 42.97036133 43.27708008 42.97036133 44.38867188 41.91992188 C57.54041031 29.62868622 57.54041031 29.62868622 63.6875 27.6875 C69.14494322 27.88595248 73.1121016 28.91207569 77.15234375 32.7265625 C81.05720152 37.11852931 83.29292833 39.97681347 83.625 45.9375 C83.6971875 46.84757812 83.769375 47.75765625 83.84375 48.6953125 C82.7252868 53.54603875 79.5166581 56.29698691 76.125 59.8125 C74.8695894 61.18221646 73.61568291 62.55331302 72.36328125 63.92578125 C65.40502449 71.39800016 58.36615201 78.63121679 50.7578125 85.44140625 C41.62692092 93.19430083 41.62692092 93.19430083 37.125 103.8125 C40.80850847 104.65762873 44.23746539 104.95083473 48.01342773 104.98608398 C49.17490829 104.99957382 50.33638885 105.01306366 51.5330658 105.02696228 C53.40195213 105.04261986 53.40195213 105.04261986 55.30859375 105.05859375 C57.27698833 105.08309857 59.24538285 105.10761462 61.21376896 105.13279057 C66.05559418 105.19339187 70.8975091 105.24423716 75.73950195 105.28930664 C78.46038037 105.31501052 81.18111248 105.34584582 83.90187073 105.38209534 C86.4604828 105.41582295 89.01921185 105.44178277 91.57798767 105.45909119 C92.74262039 105.47573318 93.90725311 105.49237518 95.10717773 105.50952148 C96.1269017 105.51982895 97.14662567 105.53013641 98.19725037 105.54075623 C103.83552425 106.06408165 108.11223002 107.79973002 112.125 111.8125 C114.75617319 116.62119583 115.70967457 120.35553738 115.125 125.8125 C113.42451968 131.00343992 111.28833079 134.27366882 107.125 137.8125 C103.96635737 138.86538088 101.68980914 138.95577068 98.37182617 138.98608398 C96.59934761 139.00631874 96.59934761 139.00631874 94.7910614 139.02696228 C93.51294083 139.03740067 92.23482025 139.04783905 90.91796875 139.05859375 C88.91132743 139.08309867 86.90468618 139.10761483 84.89805317 139.13279057 C79.9479902 139.19350532 74.99783491 139.24416132 70.04760742 139.28930664 C67.27126001 139.31500984 64.49505598 139.3458501 61.71882629 139.38209534 C59.10456887 139.41585111 56.49019635 139.44179772 53.8757782 139.45909119 C52.08911491 139.48405418 52.08911491 139.48405418 50.26635742 139.50952148 C48.70107552 139.52498268 48.70107552 139.52498268 47.10417175 139.54075623 C43.86399008 139.8363079 41.16298488 140.67325346 38.125 141.8125 C38.59009023 146.58843236 40.49725157 148.76374951 43.75390625 152.1953125 C44.23775284 152.70828888 44.72159943 153.22126526 45.22010803 153.74978638 C52.316802 161.21270602 59.69422189 168.41014217 67.03735352 175.62890625 C68.95511771 177.51640376 70.86655084 179.41013665 72.77734375 181.3046875 C73.64612404 182.15327835 73.64612404 182.15327835 74.53245544 183.01901245 C82.52074704 190.95776163 82.52074704 190.95776163 83.62109375 196.15625 C83.43826985 202.88416969 81.94301886 207.30298068 77 212.0625 C73.15435097 215.15202776 69.08253315 216.74539295 64.125 216.8125 C51.46640158 213.36865658 41.64650994 200.6180973 32.67822266 191.5715332 C30.47493024 189.3497195 28.26347369 187.13627693 26.05078125 184.92382812 C24.64535621 183.51349614 23.24039074 182.10270599 21.8359375 180.69140625 C21.17564545 180.03000137 20.51535339 179.3685965 19.83505249 178.68714905 C19.22996857 178.07568527 18.62488464 177.4642215 18.00146484 176.83422852 C17.46838715 176.29733902 16.93530945 175.76044952 16.38607788 175.20729065 C15.125 173.8125 15.125 173.8125 14.125 171.8125 C12.19861988 171.06006445 12.19861988 171.06006445 10.125 170.8125 C7.98316481 171.5966174 7.98316481 171.5966174 7.50985718 173.5083313 C7.04981141 176.2626597 6.98475213 178.88553911 6.96728516 181.67919922 C6.95702301 182.86077606 6.94676086 184.04235291 6.93618774 185.25973511 C6.92888641 186.5326944 6.92158508 187.80565369 6.9140625 189.1171875 C6.89318148 191.12165757 6.87228306 193.12612764 6.85036278 195.13058662 C6.7972792 200.06859821 6.75299484 205.00661354 6.72363281 209.94482422 C6.70670951 212.71702992 6.68199445 215.48895861 6.64877319 218.26101685 C6.61783828 220.86968778 6.59839313 223.47852605 6.59170532 226.08737183 C6.57513885 227.27525299 6.55857239 228.46313416 6.54150391 229.68701172 C6.52937363 231.24776932 6.52937363 231.24776932 6.51699829 232.84005737 C5.94097025 237.20795986 4.34704723 240.57517718 1.25 243.7109375 C-3.85791998 247.26019072 -7.95373124 248.75332441 -14.21875 248.41015625 C-19.92177402 247.12697584 -23.70633073 243.56550391 -26.875 238.8125 C-28.09798334 233.59427272 -28.10893466 228.31397514 -28.2265625 222.98046875 C-28.26129166 221.55544792 -28.26129166 221.55544792 -28.29672241 220.10163879 C-28.34424145 218.09035276 -28.38948964 216.07901195 -28.43261719 214.06762695 C-28.4989439 211.04807937 -28.57714122 208.02900178 -28.65625 205.00976562 C-28.92861114 193.55043606 -28.78784886 182.24040683 -27.875 170.8125 C-33.77457646 171.37021228 -33.77457646 171.37021228 -38.51953125 174.5859375 C-39.18807129 175.21725586 -39.85661133 175.84857422 -40.54541016 176.49902344 C-41.3141748 177.2624707 -42.08293945 178.02591797 -42.875 178.8125 C-43.84022074 179.75825162 -44.80556062 180.70388165 -45.77099609 181.64941406 C-49.05917345 184.88804731 -52.3115996 188.16152352 -55.5625 191.4375 C-56.68791457 192.56794381 -57.81356412 193.69815372 -58.93945312 194.828125 C-61.00755747 196.90432238 -63.07428792 198.9818659 -65.1394043 201.06103516 C-66.04215088 201.96901855 -66.94489746 202.87700195 -67.875 203.8125 C-68.77234863 204.71887207 -69.66969727 205.62524414 -70.59423828 206.55908203 C-72.65887063 208.59896178 -74.72750697 210.34625754 -77.0625 212.0625 C-77.73667969 212.56265625 -78.41085938 213.0628125 -79.10546875 213.578125 C-83.4199853 216.58780983 -87.76245179 216.71691277 -92.875 215.8125 C-98.5083881 212.5838405 -102.3483082 207.7081142 -104.875 201.8125 C-105.64366633 198.10892585 -105.51365886 195.93683578 -103.63256836 192.62524414 C-98.96057722 185.89459492 -93.63308454 180.24571609 -87.75 174.5625 C-81.12324766 168.2317903 -81.12324766 168.2317903 -75.0078125 161.421875 C-73.09142839 159.07728785 -71.20458777 157.22877381 -68.875 155.3125 C-62.49768325 150.1795343 -62.49768325 150.1795343 -59.5625 142.9375 C-59.665625 142.23625 -59.76875 141.535 -59.875 140.8125 C-62.59391556 139.45304222 -64.76203849 139.66524483 -67.8059082 139.63891602 C-69.67343498 139.61868126 -69.67343498 139.61868126 -71.57868958 139.59803772 C-72.24604441 139.59297777 -72.91339924 139.58791782 -73.60097694 139.58270454 C-75.69030699 139.56629215 -77.77945727 139.54305281 -79.86869812 139.51780701 C-85.8094282 139.4470491 -91.75023288 139.38700285 -97.69116211 139.33569336 C-101.32457327 139.30383351 -104.95777961 139.26253714 -108.5910244 139.21549797 C-109.97402434 139.19951584 -111.35707147 139.18717682 -112.7401371 139.17859077 C-114.67880319 139.16638521 -116.61737426 139.14119533 -118.5559082 139.11547852 C-119.65796097 139.10517105 -120.76001373 139.09486359 -121.89546204 139.08424377 C-126.36247999 138.67683688 -129.0116174 137.74988683 -132.0625 134.4375 C-136.29377929 128.30944033 -136.68702464 123.20984646 -135.875 115.8125 C-133.91454782 111.82157948 -131.74519477 109.04079396 -127.875 106.8125 C-124.06469233 105.85413371 -120.44462899 105.66217415 -116.52416992 105.60717773 C-115.2632402 105.58723251 -114.00231049 105.56728729 -112.70317078 105.54673767 C-111.33727133 105.52975732 -109.97137062 105.51287837 -108.60546875 105.49609375 C-107.20013341 105.47550526 -105.794804 105.4545083 -104.38948059 105.43312073 C-100.70212627 105.37809565 -97.01471788 105.32860067 -93.32727051 105.28027344 C-89.55992864 105.22991496 -85.79266466 105.174304 -82.02539062 105.11914062 C-74.64199317 105.01179859 -67.25853066 104.91030112 -59.875 104.8125 C-59.6235372 100.44641131 -59.6235372 100.44641131 -61.30078125 96.546875 C-61.92339844 95.89203125 -62.54601562 95.2371875 -63.1875 94.5625 C-63.80238281 93.89734375 -64.41726562 93.2321875 -65.05078125 92.546875 C-66.9614474 90.63114823 -66.9614474 90.63114823 -69.875 88.8125 C-69.875 88.1525 -69.875 87.4925 -69.875 86.8125 C-70.43872314 86.57329834 -71.00244629 86.33409668 -71.58325195 86.08764648 C-74.36938503 84.53742031 -76.28467665 82.66209272 -78.54296875 80.41015625 C-79.43693359 79.51876953 -80.33089844 78.62738281 -81.25195312 77.70898438 C-82.17943359 76.77376953 -83.10691406 75.83855469 -84.0625 74.875 C-84.97064453 73.97458984 -85.87878906 73.07417969 -86.81445312 72.14648438 C-105.60550382 53.30162967 -105.60550382 53.30162967 -105.875 44.8125 C-103.81788148 38.32159206 -100.63815264 33.42859577 -94.875 29.8125 C-90.94299452 28.1514283 -87.75323997 27.73118148 -83.5 28.125 C-71.12865271 33.88407546 -60.84210132 47.7966047 -51.37475586 57.40869141 C-49.25813653 59.555504 -47.13534266 61.69605683 -45.01171875 63.8359375 C-44.36893478 64.49218109 -43.72615082 65.14842468 -43.06388855 65.82455444 C-38.46994629 70.49590738 -38.46994629 70.49590738 -32.875 73.8125 C-30.76330602 73.41627059 -30.76330602 73.41627059 -28.875 72.8125 C-28.86913376 72.05130356 -28.86326752 71.29010712 -28.85722351 70.50584412 C-28.7991782 63.31161244 -28.72703456 56.11772243 -28.63928509 48.92379665 C-28.59466944 45.22583152 -28.55539448 41.52797432 -28.52856445 37.82983398 C-28.50244281 34.25697208 -28.4619793 30.68452747 -28.41181374 27.11192513 C-28.39520455 25.75292233 -28.38365336 24.39384745 -28.37738609 23.03475761 C-28.33301555 14.29268084 -28.22471337 7.99964171 -22.625 1 C-15.9442733 -4.31421442 -7.13216001 -4.66449283 0 0 Z " fill="#8B91CB" transform="translate(151.875,5.1875)"/>
<path d="M0 0 C4.87773605 0.45374289 7.52177888 1.52177888 11 5 C15.8737539 12.83281876 15.1275812 21.48413676 15.0625 30.390625 C15.05871338 31.57219177 15.05492676 32.75375854 15.05102539 33.97113037 C15.03884634 37.7307913 15.02020787 41.49037417 15 45.25 C14.97347052 50.21353949 14.95345871 55.17704156 14.9375 60.140625 C14.92920166 61.28436584 14.92090332 62.42810669 14.91235352 63.60650635 C14.90905029 64.66480652 14.90574707 65.72310669 14.90234375 66.81347656 C14.89710693 67.74500549 14.89187012 68.67653442 14.88647461 69.6362915 C14.90056212 72.15227351 14.90056212 72.15227351 16 75 C16.99 75.33 17.98 75.66 19 76 C20.76998538 74.95119748 20.76998538 74.95119748 22.5 73.25 C23.19351563 72.61449219 23.88703125 71.97898437 24.6015625 71.32421875 C26.38751064 69.5935361 28.15034766 67.85023389 29.8984375 66.08203125 C30.39150391 65.58348633 30.88457031 65.08494141 31.39257812 64.57128906 C32.37383034 63.57258374 33.34921266 62.56807395 34.31835938 61.55761719 C35.50917244 60.33519718 36.75094299 59.16284264 38 58 C38.66 58 39.32 58 40 58 C40.25579834 57.41516846 40.51159668 56.83033691 40.77514648 56.2277832 C42.11944719 53.78274753 43.56660114 52.26159836 45.59765625 50.35546875 C46.31759766 49.67806641 47.03753906 49.00066406 47.77929688 48.30273438 C48.53275391 47.60470703 49.28621094 46.90667969 50.0625 46.1875 C50.78888672 45.50107422 51.51527344 44.81464844 52.26367188 44.10742188 C65.41541031 31.81618622 65.41541031 31.81618622 71.5625 29.875 C77.01994322 30.07345248 80.9871016 31.09957569 85.02734375 34.9140625 C88.93220152 39.30602931 91.16792833 42.16431347 91.5 48.125 C91.60828125 49.49011719 91.60828125 49.49011719 91.71875 50.8828125 C90.6002868 55.73353875 87.3916581 58.48448691 84 62 C82.7445894 63.36971646 81.49068291 64.74081302 80.23828125 66.11328125 C73.28002449 73.58550016 66.24115201 80.81871679 58.6328125 87.62890625 C49.50192092 95.38180083 49.50192092 95.38180083 45 106 C48.68350847 106.84512873 52.11246539 107.13833473 55.88842773 107.17358398 C57.04990829 107.18707382 58.21138885 107.20056366 59.4080658 107.21446228 C61.27695213 107.23011986 61.27695213 107.23011986 63.18359375 107.24609375 C65.15198833 107.27059857 67.12038285 107.29511462 69.08876896 107.32029057 C73.93059418 107.38089187 78.7725091 107.43173716 83.61450195 107.47680664 C86.33538037 107.50251052 89.05611248 107.53334582 91.77687073 107.56959534 C94.3354828 107.60332295 96.89421185 107.62928277 99.45298767 107.64659119 C100.61762039 107.66323318 101.78225311 107.67987518 102.98217773 107.69702148 C104.0019017 107.70732895 105.02162567 107.71763641 106.07225037 107.72825623 C111.71052425 108.25158165 115.98723002 109.98723002 120 114 C122.63117319 118.80869583 123.58467457 122.54303738 123 128 C121.29951968 133.19093992 119.16333079 136.46116882 115 140 C111.84135737 141.05288088 109.56480914 141.14327068 106.24682617 141.17358398 C104.47434761 141.19381874 104.47434761 141.19381874 102.6660614 141.21446228 C101.38794083 141.22490067 100.10982025 141.23533905 98.79296875 141.24609375 C96.78632743 141.27059867 94.77968618 141.29511483 92.77305317 141.32029057 C87.8229902 141.38100532 82.87283491 141.43166132 77.92260742 141.47680664 C75.14626001 141.50250984 72.37005598 141.5333501 69.59382629 141.56959534 C66.97956887 141.60335111 64.36519635 141.62929772 61.7507782 141.64659119 C59.96411491 141.67155418 59.96411491 141.67155418 58.14135742 141.69702148 C56.57607552 141.71248268 56.57607552 141.71248268 54.97917175 141.72825623 C51.73899008 142.0238079 49.03798488 142.86075346 46 144 C46.46509023 148.77593236 48.37225157 150.95124951 51.62890625 154.3828125 C52.11275284 154.89578888 52.59659943 155.40876526 53.09510803 155.93728638 C60.191802 163.40020602 67.56922189 170.59764217 74.91235352 177.81640625 C76.83011771 179.70390376 78.74155084 181.59763665 80.65234375 183.4921875 C81.52112404 184.34077835 81.52112404 184.34077835 82.40745544 185.20651245 C90.39574704 193.14526163 90.39574704 193.14526163 91.49609375 198.34375 C91.31326985 205.07166969 89.81801886 209.49048068 84.875 214.25 C81.02935097 217.33952776 76.95753315 218.93289295 72 219 C59.34140158 215.55615658 49.52150994 202.8055973 40.55322266 193.7590332 C38.34993024 191.5372195 36.13847369 189.32377693 33.92578125 187.11132812 C32.52035621 185.70099614 31.11539074 184.29020599 29.7109375 182.87890625 C28.72049942 181.88679893 28.72049942 181.88679893 27.71005249 180.87464905 C27.10496857 180.26318527 26.49988464 179.6517215 25.87646484 179.02172852 C25.34338715 178.48483902 24.81030945 177.94794952 24.26107788 177.39479065 C23 176 23 176 22 174 C20.07361988 173.24756445 20.07361988 173.24756445 18 173 C15.85816481 173.7841174 15.85816481 173.7841174 15.38485718 175.6958313 C14.92481141 178.4501597 14.85975213 181.07303911 14.84228516 183.86669922 C14.82689194 185.63906448 14.82689194 185.63906448 14.81118774 187.44723511 C14.80388641 188.7201944 14.79658508 189.99315369 14.7890625 191.3046875 C14.76818148 193.30915757 14.74728306 195.31362764 14.72536278 197.31808662 C14.6722792 202.25609821 14.62799484 207.19411354 14.59863281 212.13232422 C14.58170951 214.90452992 14.55699445 217.67645861 14.52377319 220.44851685 C14.49283828 223.05718778 14.47339313 225.66602605 14.46670532 228.27487183 C14.45013885 229.46275299 14.43357239 230.65063416 14.41650391 231.87451172 C14.40841705 232.91501678 14.4003302 233.95552185 14.39199829 235.02755737 C13.81597025 239.39545986 12.22204723 242.76267718 9.125 245.8984375 C4.01708002 249.44769072 -0.07873124 250.94082441 -6.34375 250.59765625 C-12.04677402 249.31447584 -15.83133073 245.75300391 -19 241 C-19.125 237.8125 -19.125 237.8125 -19 235 C-17 238 -17 238 -17 242 C-16.34 242 -15.68 242 -15 242 C-14.67 242.66 -14.34 243.32 -14 244 C-8.26560813 247.17221678 -3.47283543 247.35164297 3 247 C3.33 246.34 3.66 245.68 4 245 C5.32 245 6.64 245 8 245 C8 243.68 8 242.36 8 241 C8.66 240.67 9.32 240.34 10 240 C10.00808685 239.17980881 10.01617371 238.35961761 10.02450562 237.51457214 C10.10240909 229.78938922 10.18968669 222.06439634 10.28752708 214.33944225 C10.3374977 210.36785063 10.38382755 206.39628571 10.421875 202.42456055 C10.45871833 198.59245064 10.50507543 194.76056367 10.55806351 190.92864418 C10.57661258 189.46584288 10.59171867 188.00299379 10.60334396 186.54012108 C10.62019799 184.49290455 10.64922977 182.44619917 10.68115234 180.39916992 C10.69447601 179.23334885 10.70779968 178.06752777 10.7215271 176.86637878 C11 174 11 174 13 171 C16.46268619 169.99594973 19.5231049 170.10045446 23 171 C26.24820529 173.59231768 28.74621917 176.51230565 31 180 C31 180.66 31 181.32 31 182 C31.99 182 32.98 182 34 182 C35.28125 183.49609375 35.28125 183.49609375 36.5 185.4375 C38.46619621 188.59496295 38.46619621 188.59496295 42 190 C42 190.99 42 191.98 42 193 C42.556875 193.226875 43.11375 193.45375 43.6875 193.6875 C46.64187072 195.36430501 48.63102343 197.57324352 51 200 C52.66270287 201.33827304 54.32916181 202.67189785 56 204 C58.3125 206.125 58.3125 206.125 60 208 C60 208.66 60 209.32 60 210 C60.99 210.33 61.98 210.66 63 211 C63 211.66 63 212.32 63 213 C63.969375 213.309375 64.93875 213.61875 65.9375 213.9375 C69 215 69 215 70 216 C75.79099454 216.17397838 79.98281123 214.90177031 84.58984375 211.44921875 C87.83558467 208.11356811 88.30111026 204.7844563 88.625 200.25 C88.69976562 199.26515625 88.77453125 198.2803125 88.8515625 197.265625 C88.92503906 196.14414062 88.92503906 196.14414062 89 195 C88.01 194.67 87.02 194.34 86 194 C85.67 193.34 85.34 192.68 85 192 C84.01 191.67 83.02 191.34 82 191 C80.97388051 189.34928604 79.97691857 187.68029994 79 186 C78.278125 185.278125 77.55625 184.55625 76.8125 183.8125 C76.214375 183.214375 75.61625 182.61625 75 182 C75 181.34 75 180.68 75 180 C74.1028125 179.5978125 74.1028125 179.5978125 73.1875 179.1875 C71.00152146 178.00082594 69.58667406 176.90400887 68 175 C68 174.34 68 173.68 68 173 C67.34 173 66.68 173 66 173 C66 172.34 66 171.68 66 171 C65.4225 170.74863281 64.845 170.49726563 64.25 170.23828125 C58.43651493 167.03884589 54.03721367 161.15092779 50 156 C48.35305515 154.31384218 46.68873879 152.64429829 45 151 C43 149 43 149 42.75 146.0625 C43 143 43 143 45 140 C48.35452129 138.88182624 50.86418264 138.8797413 54.39916992 138.88647461 C55.04334366 138.88632858 55.6875174 138.88618256 56.35121155 138.8860321 C58.47766502 138.88672805 60.6040306 138.89450552 62.73046875 138.90234375 C64.20591687 138.90420906 65.68136561 138.90563243 67.15681458 138.90663147 C71.03825595 138.91044774 74.91965985 138.92027044 78.80108643 138.93133545 C82.76256808 138.94156869 86.72405581 138.94613319 90.68554688 138.95117188 C98.45704833 138.9618935 106.22851891 138.97895925 114 139 C114.33 138.01 114.66 137.02 115 136 C115.66 135.67 116.32 135.34 117 135 C117.33 134.01 117.66 133.02 118 132 C118.66 132 119.32 132 120 132 C120.05406122 130.06280622 120.09282025 128.12518079 120.125 126.1875 C120.14820313 125.10855469 120.17140625 124.02960938 120.1953125 122.91796875 C120.23023717 119.80597132 120.23023717 119.80597132 118 117 C118 116.01 118 115.02 118 114 C117.0409375 113.5359375 117.0409375 113.5359375 116.0625 113.0625 C114 112 114 112 113 111 C111.00189914 110.89202358 109.00000704 110.85371257 106.99902344 110.84228516 C105.07132111 110.82689194 105.07132111 110.82689194 103.10467529 110.81118774 C102.41322166 110.80774982 101.72176804 110.8043119 101.00936127 110.80076981 C98.84869634 110.78900435 96.68823344 110.76955606 94.52764893 110.74765015 C88.38292188 110.68596818 82.23821246 110.63204946 76.09326172 110.59863281 C72.3377436 110.57765755 68.58258851 110.54232609 64.82727814 110.49787521 C63.39683566 110.48373094 61.96632889 110.47499631 60.53582001 110.47182083 C58.52998619 110.46689887 56.52423113 110.44210756 54.51855469 110.41650391 C52.80765656 110.40437363 52.80765656 110.40437363 51.06219482 110.39199829 C47.62278687 109.95171212 45.71529585 109.14125471 43 107 C42.35293471 103.57055397 42.24050241 101.27885991 44.0625 98.2109375 C45.375 96.5625 45.375 96.5625 48 94 C48.66 94 49.32 94 50 94 C50.99 92.02 50.99 92.02 52 90 C52.66 90 53.32 90 54 90 C54.495 88.515 54.495 88.515 55 87 C56.4444419 85.75252745 57.89430129 84.50997224 59.38671875 83.3203125 C61.76076029 81.3773923 63.8599638 79.19490892 66 77 C71 72 71 72 72.80078125 70.234375 C73.42339844 69.62078125 74.04601562 69.0071875 74.6875 68.375 C75.26886719 67.80523437 75.85023438 67.23546875 76.44921875 66.6484375 C78.20251898 64.87617026 78.20251898 64.87617026 80 62 C80.66 62 81.32 62 82 62 C82 61.01 82 60.02 82 59 C82.99 58.67 83.98 58.34 85 58 C85.33 57.01 85.66 56.02 86 55 C86.99 55 87.98 55 89 55 C88.93958131 52.9367016 88.85068362 50.87422586 88.75 48.8125 C88.70359375 47.66394531 88.6571875 46.51539063 88.609375 45.33203125 C87.90396417 41.47488103 86.70554546 39.78630801 84 37 C81.88339573 35.68834743 81.88339573 35.68834743 80 35 C80 34.34 80 33.68 80 33 C76.37 33.33 72.74 33.66 69 34 C69 34.66 69 35.32 69 36 C67.02 36 65.04 36 63 36 C62.67 36.99 62.34 37.98 62 39 C61.34 39 60.68 39 60 39 C59.67 40.32 59.34 41.64 59 43 C58.01 43 57.02 43 56 43 C55.67 44.32 55.34 45.64 55 47 C54.01 47 53.02 47 52 47 C51.67 47.99 51.34 48.98 51 50 C50.34 50 49.68 50 49 50 C49.33 50.99 49.66 51.98 50 53 C48.50260417 54.20442708 47.00520833 55.40885417 45.5078125 56.61328125 C43.74707893 58.12270545 43.74707893 58.12270545 42 61 C41.01 61.33 40.02 61.66 39 62 C37.64264858 63.30887458 36.31494512 64.64852862 35 66 C33.24816513 67.4842515 31.47791848 68.94480201 29.70703125 70.40625 C28.03939557 71.96321878 26.98433362 73.47188199 25.75 75.375 C22.48861529 78.48813995 21.54507224 78.375 17.1875 78.375 C15.45648337 78.27895945 13.72597775 78.16322732 12 78 C10.87340481 74.62021442 10.87979017 72.07183864 10.88647461 68.5090332 C10.88632858 67.8551059 10.88618256 67.20117859 10.8860321 66.5274353 C10.88672812 64.36851674 10.89450592 62.20968472 10.90234375 60.05078125 C10.90420904 58.55291287 10.90563242 57.05504389 10.90663147 55.55717468 C10.91044793 51.61654981 10.9202708 47.67596186 10.93133545 43.73535156 C10.94156828 39.71354675 10.9461331 35.69173596 10.95117188 31.66992188 C10.96189384 23.77993099 10.97895983 15.88997009 11 8 C10.34 8 9.68 8 9 8 C8.67 6.68 8.34 5.36 8 4 C6.8553125 4.12375 6.8553125 4.12375 5.6875 4.25 C3 4 3 4 1.1875 2 C0.795625 1.34 0.40375 0.68 0 0 Z " fill="#8B91CB" transform="translate(144,3)"/>
<path d="M0 0 C4.69128668 2.18715393 8.77642486 4.90145446 12 9 C12.65376546 12.12024425 12.51160574 14.86641483 12 18 C8.531876 20.11542798 5.75976547 20.26579988 1.734375 20.30297852 C0.46625977 20.31962051 -0.80185547 20.33626251 -2.10839844 20.35340881 C-3.4889319 20.36197096 -4.86946577 20.37046854 -6.25 20.37890625 C-7.6696079 20.39508906 -9.08920475 20.41226988 -10.50878906 20.43040466 C-14.24229815 20.47604473 -17.97582227 20.5108701 -21.70947266 20.54260254 C-27.68530191 20.59451365 -33.66096774 20.65976157 -39.63659668 20.73081779 C-41.72158373 20.75359581 -43.80655028 20.76990271 -45.89160156 20.78553772 C-47.1597168 20.79902756 -48.42783203 20.8125174 -49.734375 20.82641602 C-51.40838379 20.84068382 -51.40838379 20.84068382 -53.11621094 20.85523987 C-55.58462775 20.97914919 -57.64669274 21.28430507 -60 22 C-60 22.66 -60 23.32 -60 24 C-60.66 24 -61.32 24 -62 24 C-62.12375 24.969375 -62.2475 25.93875 -62.375 26.9375 C-62.58125 27.948125 -62.7875 28.95875 -63 30 C-63.66 30.33 -64.32 30.66 -65 31 C-65.65772428 34.02934491 -65.65772428 34.02934491 -66 37 C-65.34 37 -64.68 37 -64 37 C-63.80664062 37.56589844 -63.61328125 38.13179687 -63.4140625 38.71484375 C-63.02347656 39.81505859 -63.02347656 39.81505859 -62.625 40.9375 C-62.36976562 41.66839844 -62.11453125 42.39929688 -61.8515625 43.15234375 C-61.14728587 45.18682116 -61.14728587 45.18682116 -59 46 C-59 46.66 -59 47.32 -59 48 C-58.14222458 48.00364563 -57.28444916 48.00729126 -56.40068054 48.01104736 C-48.32221938 48.04889295 -40.24416334 48.10570609 -32.16598797 48.18390274 C-28.01274203 48.22343498 -23.85970992 48.25559496 -19.70629883 48.27099609 C-15.69897966 48.28612529 -11.69224814 48.32050296 -7.6851902 48.36830902 C-6.155415 48.38316169 -4.62555592 48.39104324 -3.09570885 48.39188385 C-0.95468661 48.39424381 1.18469862 48.42123973 3.32543945 48.45410156 C5.15411308 48.46742523 5.15411308 48.46742523 7.01972961 48.48101807 C10 49 10 49 11.93278503 50.80755615 C13.52727022 54.08320291 12.77219336 56.52512986 12 60 C11.505 60.99 11.505 60.99 11 62 C9.515 62.495 9.515 62.495 8 63 C7.34 63.99 6.68 64.98 6 66 C5.34 66 4.68 66 4 66 C4 66.99 4 67.98 4 69 C2.515 69.495 2.515 69.495 1 70 C-0.36830247 71.6336861 -0.36830247 71.6336861 -1.5625 73.5625 C-2.81640625 75.50390625 -2.81640625 75.50390625 -4 77 C-4.66 77 -5.32 77 -6 77 C-6 77.99 -6 78.98 -6 80 C-7.32 80 -8.64 80 -10 80 C-10 80.99 -10 81.98 -10 83 C-10.99 83.33 -11.98 83.66 -13 84 C-13.66 84.99 -14.32 85.98 -15 87 C-15.66 87 -16.32 87 -17 87 C-17.495 88.98 -17.495 88.98 -18 91 C-18.99 91 -19.98 91 -21 91 C-21 91.99 -21 92.98 -21 94 C-21.99 94 -22.98 94 -24 94 C-24.495 95.98 -24.495 95.98 -25 98 C-25.99 98 -26.98 98 -28 98 C-28 98.99 -28 99.98 -28 101 C-29.29103643 102.3743291 -30.6256709 103.70896357 -32 105 C-32.33 105.66 -32.66 106.32 -33 107 C-33.66 107 -34.32 107 -35 107 C-31.5847962 97.11844587 -21.63929273 89.53783921 -14.31762695 82.35400391 C-11.50872392 79.58445568 -8.78978157 76.82562024 -6.296875 73.765625 C-4.31128957 71.37481806 -2.38882481 69.46500105 0 67.5 C6.37731675 62.3670343 6.37731675 62.3670343 9.3125 55.125 C9.209375 54.42375 9.10625 53.7225 9 53 C6.28108444 51.64054222 4.11296151 51.85274483 1.0690918 51.82641602 C-0.17592606 51.81292618 -1.42094391 51.79943634 -2.70368958 51.78553772 C-3.70472182 51.7779478 -3.70472182 51.7779478 -4.72597694 51.77020454 C-6.81530699 51.75379215 -8.90445727 51.73055281 -10.99369812 51.70530701 C-16.9344282 51.6345491 -22.87523288 51.57450285 -28.81616211 51.52319336 C-32.44957327 51.49133351 -36.08277961 51.45003714 -39.7160244 51.40299797 C-41.09902434 51.38701584 -42.48207147 51.37467682 -43.8651371 51.36609077 C-45.80380319 51.35388521 -47.74237426 51.32869533 -49.6809082 51.30297852 C-50.78296097 51.29267105 -51.88501373 51.28236359 -53.02046204 51.27174377 C-57.48747999 50.86433688 -60.1366174 49.93738683 -63.1875 46.625 C-67.41877929 40.49694033 -67.81202464 35.39734646 -67 28 C-65.03954782 24.00907948 -62.87019477 21.22829396 -59 19 C-55.18969233 18.04163371 -51.56962899 17.84967415 -47.64916992 17.79467773 C-46.3882402 17.77473251 -45.12731049 17.75478729 -43.82817078 17.73423767 C-42.46227133 17.71725732 -41.09637062 17.70037837 -39.73046875 17.68359375 C-38.32513341 17.66300526 -36.919804 17.6420083 -35.51448059 17.62062073 C-31.82712627 17.56559565 -28.13971788 17.51610067 -24.45227051 17.46777344 C-20.68492864 17.41741496 -16.91766466 17.361804 -13.15039062 17.30664062 C-5.76699317 17.19929859 1.61646934 17.09780112 9 17 C9.26557459 12.63549611 9.26557459 12.63549611 7.5390625 8.76953125 C6.90742187 8.12371094 6.27578125 7.47789063 5.625 6.8125 C3.47171863 4.56617561 1.73888272 2.60832408 0 0 Z " fill="#8B91CB" transform="translate(83,93)"/>
<path d="M0 0 C0 0.66 0 1.32 0 2 C-1.546875 2.433125 -1.546875 2.433125 -3.125 2.875 C-3.76050781 3.06191406 -4.39601563 3.24882813 -5.05078125 3.44140625 C-6.79312329 3.94071469 -8.55220487 4.3807295 -10.3125 4.8125 C-13.22452962 5.76582445 -13.22452962 5.76582445 -14.375 8.625 C-14.684375 9.800625 -14.684375 9.800625 -15 11 C-15.66 11 -16.32 11 -17 11 C-16.99777939 11.83716049 -16.99555878 12.67432098 -16.99327087 13.53684998 C-16.97326968 21.40967414 -16.95802675 29.28248983 -16.94818783 37.15533352 C-16.94295959 41.20325742 -16.93586301 45.25116041 -16.92456055 49.29907227 C-16.91372957 53.20235971 -16.90772272 57.10562699 -16.90512276 61.0089283 C-16.90326889 62.50133647 -16.899649 63.99374348 -16.89426994 65.48614311 C-16.88705669 67.56948139 -16.88600917 69.65273531 -16.88647461 71.73608398 C-16.884254 72.92411118 -16.88203339 74.11213837 -16.87974548 75.33616638 C-17 78 -17 78 -18 79 C-21.80163971 79.56024164 -25.4856503 79.82155004 -28.9296875 77.953125 C-30.5625 76.625 -30.5625 76.625 -33 74 C-33 73.34 -33 72.68 -33 72 C-33.55719727 71.76732422 -34.11439453 71.53464844 -34.68847656 71.29492188 C-37.59923645 69.66430607 -39.62181133 67.63760806 -41.984375 65.28125 C-43.38623047 63.88326172 -43.38623047 63.88326172 -44.81640625 62.45703125 C-45.2973877 61.97186035 -45.77836914 61.48668945 -46.27392578 60.98681641 C-47.75204848 59.49793661 -49.24059911 58.02008349 -50.73046875 56.54296875 C-51.65988281 55.61097656 -52.58929688 54.67898437 -53.546875 53.71875 C-54.40120117 52.86216797 -55.25552734 52.00558594 -56.13574219 51.12304688 C-58 49 -58 49 -58 47 C-58.53625 46.79375 -59.0725 46.5875 -59.625 46.375 C-62.91978009 44.46749574 -65.59363628 41.95180616 -68 39 C-68 38.34 -68 37.68 -68 37 C-68.62648438 36.79503906 -69.25296875 36.59007812 -69.8984375 36.37890625 C-70.71570313 36.10949219 -71.53296875 35.84007812 -72.375 35.5625 C-73.18710938 35.29566406 -73.99921875 35.02882812 -74.8359375 34.75390625 C-77 34 -77 34 -79 33 C-78.67 32.34 -78.34 31.68 -78 31 C-64.23415524 33.09480246 -51.83569029 51.1175248 -42.49975586 60.59619141 C-40.38313653 62.743004 -38.26034266 64.88355683 -36.13671875 67.0234375 C-35.49393478 67.67968109 -34.85115082 68.33592468 -34.18888855 69.01205444 C-29.59494629 73.68340738 -29.59494629 73.68340738 -24 77 C-21.88830602 76.60377059 -21.88830602 76.60377059 -20 76 C-19.99413376 75.23880356 -19.98826752 74.47760712 -19.98222351 73.69334412 C-19.9241782 66.49911244 -19.85203456 59.30522243 -19.76428509 52.11129665 C-19.71966944 48.41333152 -19.68039448 44.71547432 -19.65356445 41.01733398 C-19.62744281 37.44447208 -19.5869793 33.87202747 -19.53681374 30.29942513 C-19.52020455 28.94042233 -19.50865336 27.58134745 -19.50238609 26.22225761 C-19.45801555 17.48018084 -19.34971337 11.18714171 -13.75 4.1875 C-9.41280955 0.73746214 -5.46620076 0 0 0 Z " fill="#8B91CB" transform="translate(143,2)"/>
<path d="M0 0 C0.90105469 0.02707031 1.80210938 0.05414063 2.73046875 0.08203125 C3.76107422 0.13423828 3.76107422 0.13423828 4.8125 0.1875 C6.17102482 2.90454964 5.89053404 4.97366195 5.83422852 8.01416016 C5.81413223 9.23527496 5.79403595 10.45638977 5.77333069 11.71450806 C5.74613242 13.05186178 5.71882161 14.38921321 5.69140625 15.7265625 C5.66710701 17.09133118 5.64326335 18.45610804 5.61985779 19.82089233 C5.55699724 23.41472689 5.48793627 27.00841678 5.41760254 30.60211182 C5.34693683 34.2685283 5.28210933 37.93504744 5.21679688 41.6015625 C5.08775916 48.79698853 4.95217382 55.99227175 4.8125 63.1875 C4.1525 63.1875 3.4925 63.1875 2.8125 63.1875 C2.64240756 57.23272185 2.48216717 51.27778121 2.33032227 45.32250977 C2.27756795 43.30453691 2.22230827 41.28662768 2.16430664 39.26879883 C1.80904792 26.84092215 1.81433011 14.58499899 2.8125 2.1875 C-3.08707646 2.74521228 -3.08707646 2.74521228 -7.83203125 5.9609375 C-8.50057129 6.59225586 -9.16911133 7.22357422 -9.85791016 7.87402344 C-10.6266748 8.6374707 -11.39543945 9.40091797 -12.1875 10.1875 C-13.15272074 11.13325162 -14.11806062 12.07888165 -15.08349609 13.02441406 C-18.37167345 16.26304731 -21.6240996 19.53652352 -24.875 22.8125 C-26.00041457 23.94294381 -27.12606412 25.07315372 -28.25195312 26.203125 C-30.32005747 28.27932238 -32.38678792 30.3568659 -34.4519043 32.43603516 C-43.52213796 41.55888508 -43.52213796 41.55888508 -48.1875 45.1875 C-48.8475 45.1875 -49.5075 45.1875 -50.1875 45.1875 C-50.0625 43.3125 -50.0625 43.3125 -49.1875 41.1875 C-47.19178677 40.50810826 -45.19155227 39.84188441 -43.1875 39.1875 C-41.76694932 37.18613756 -41.76694932 37.18613756 -41.1875 35.1875 C-40.5275 35.1875 -39.8675 35.1875 -39.1875 35.1875 C-38.8575 34.1975 -38.5275 33.2075 -38.1875 32.1875 C-37.5275 32.1875 -36.8675 32.1875 -36.1875 32.1875 C-35.5275 30.8675 -34.8675 29.5475 -34.1875 28.1875 C-33.5275 28.1875 -32.8675 28.1875 -32.1875 28.1875 C-31.8575 27.1975 -31.5275 26.2075 -31.1875 25.1875 C-29.53747172 23.83363064 -27.8700613 22.50071858 -26.1875 21.1875 C-25.5275 20.1975 -24.8675 19.2075 -24.1875 18.1875 C-23.5275 18.1875 -22.8675 18.1875 -22.1875 18.1875 C-22.1875 17.1975 -22.1875 16.2075 -22.1875 15.1875 C-21.1975 15.1875 -20.2075 15.1875 -19.1875 15.1875 C-18.8575 13.8675 -18.5275 12.5475 -18.1875 11.1875 C-17.1975 11.1875 -16.2075 11.1875 -15.1875 11.1875 C-14.754375 10.2903125 -14.754375 10.2903125 -14.3125 9.375 C-11.73922414 4.37140805 -11.73922414 4.37140805 -8.1875 3.1875 C-7.73761719 2.67574219 -7.28773437 2.16398438 -6.82421875 1.63671875 C-4.53825792 -0.3873659 -2.99860341 -0.1168287 0 0 Z " fill="#8B91CB" transform="translate(121.1875,173.8125)"/>
<path d="M0 0 C0.99 0.33 1.98 0.66 3 1 C2.34 1.33 1.68 1.66 1 2 C-0.12088671 5.36266014 -0.10447016 7.8524582 -0.07836914 11.39575195 C-0.07225437 12.73090027 -0.06632748 14.06604947 -0.06056213 15.40119934 C-0.0535538 16.46085876 -0.0535538 16.46085876 -0.04640388 17.54192543 C-0.02720807 21.29034341 -0.04243876 25.0386766 -0.05273438 28.78710938 C-0.06497972 33.5539751 -0.06666674 38.31994346 -0.02416992 43.08666992 C0.00929376 46.94215779 0.00375096 50.79587424 -0.02773857 54.65135765 C-0.03265468 56.11732322 -0.02341912 57.58340948 0.00047112 59.04918861 C0.17643025 70.51978956 0.17643025 70.51978956 -2.77511597 74.23348999 C-4.79606961 75.77719194 -6.69394589 76.94070443 -9 78 C-9.99 78.495 -9.99 78.495 -11 79 C-16.9157292 79.78677206 -21.64735385 79.83102119 -26.5625 76.1875 C-28.91609489 74.20578289 -30.26325858 72.60511212 -32 70 C-32.125 66.8125 -32.125 66.8125 -32 64 C-30 67 -30 67 -30 71 C-29.34 71 -28.68 71 -28 71 C-27.67 71.66 -27.34 72.32 -27 73 C-21.26560813 76.17221678 -16.47283543 76.35164297 -10 76 C-9.67 75.34 -9.34 74.68 -9 74 C-7.68 74 -6.36 74 -5 74 C-5 72.68 -5 71.36 -5 70 C-4.01 69.505 -4.01 69.505 -3 69 C-2.99191315 68.17980881 -2.98382629 67.35961761 -2.97549438 66.51457214 C-2.89759091 58.78938922 -2.81031331 51.06439634 -2.71247292 43.33944225 C-2.6625023 39.36785063 -2.61617245 35.39628571 -2.578125 31.42456055 C-2.54128167 27.59245064 -2.49492457 23.76056367 -2.44193649 19.92864418 C-2.42338742 18.46584288 -2.40828133 17.00299379 -2.39665604 15.54012108 C-2.37980201 13.49290455 -2.35077023 11.44619917 -2.31884766 9.39916992 C-2.30552399 8.23334885 -2.29220032 7.06752777 -2.2784729 5.86637878 C-2 3 -2 3 0 0 Z " fill="#8B91CB" transform="translate(157,174)"/>
<path d="M0 0 C1 3 1 3 0.25 5.625 C-1 8 -1 8 -4 9 C-4.66 9.99 -5.32 10.98 -6 12 C-6.66 12 -7.32 12 -8 12 C-8 12.99 -8 13.98 -8 15 C-8.99 15.33 -9.98 15.66 -11 16 C-12.36830247 17.6336861 -12.36830247 17.6336861 -13.5625 19.5625 C-14.81640625 21.50390625 -14.81640625 21.50390625 -16 23 C-16.66 23 -17.32 23 -18 23 C-18 23.99 -18 24.98 -18 26 C-19.32 26 -20.64 26 -22 26 C-22 26.99 -22 27.98 -22 29 C-22.99 29.33 -23.98 29.66 -25 30 C-25.66 30.99 -26.32 31.98 -27 33 C-27.66 33 -28.32 33 -29 33 C-29.33 34.32 -29.66 35.64 -30 37 C-30.99 37 -31.98 37 -33 37 C-33 37.99 -33 38.98 -33 40 C-33.99 40 -34.98 40 -36 40 C-36.33 41.32 -36.66 42.64 -37 44 C-37.99 44 -38.98 44 -40 44 C-40 44.99 -40 45.98 -40 47 C-41.29103643 48.3743291 -42.6256709 49.70896357 -44 51 C-44.33 51.66 -44.66 52.32 -45 53 C-45.66 53 -46.32 53 -47 53 C-43.5847962 43.11844587 -33.63929273 35.53783921 -26.31762695 28.35400391 C-23.50872392 25.58445568 -20.78978157 22.82562024 -18.296875 19.765625 C-16.31128957 17.37481806 -14.38882481 15.46500105 -12 13.5 C-9.44097977 11.33207531 -7.2127798 9.18766691 -5.125 6.5625 C-4.073125 5.2940625 -4.073125 5.2940625 -3 4 C-2.34 4 -1.68 4 -1 4 C-0.67 2.68 -0.34 1.36 0 0 Z " fill="#8B91CB" transform="translate(95,147)"/>
<path d="M0 0 C8.6837904 -0.11578527 17.36731566 -0.2046592 26.05170918 -0.25906086 C30.08414765 -0.28516951 34.11605856 -0.32058908 38.14819336 -0.37719727 C42.03857298 -0.43147429 45.92844483 -0.46141098 49.81917381 -0.47438622 C51.30442489 -0.48363409 52.78964777 -0.50169341 54.274683 -0.52865028 C56.35341324 -0.56488769 58.43003859 -0.56994822 60.5090332 -0.56762695 C61.69261917 -0.57873001 62.87620514 -0.58983307 64.09565735 -0.60127258 C67 0 67 0 68.90568542 2.53547668 C69.26680923 3.34876938 69.62793304 4.16206207 70 5 C69.01 6.32 68.02 7.64 67 9 C66.87625 8.195625 66.7525 7.39125 66.625 6.5625 C66.315625 5.2940625 66.315625 5.2940625 66 4 C63.26635853 2.63317926 61.04962521 2.83734537 57.98974609 2.79467773 C56.72858978 2.77473251 55.46743347 2.75478729 54.1680603 2.73423767 C52.78652063 2.71725335 51.40497966 2.70037454 50.0234375 2.68359375 C48.61381418 2.6630244 47.20419703 2.64202793 45.79458618 2.62062073 C42.08252965 2.56539805 38.37041743 2.51598969 34.65826416 2.46777344 C30.87108397 2.41755982 27.08398474 2.36187303 23.296875 2.30664062 C15.86465188 2.19905667 8.43236148 2.09761227 1 2 C0.67 1.34 0.34 0.68 0 0 Z " fill="#8B91CB" transform="translate(26,142)"/>
<path d="M0 0 C2.06298828 -0.34057617 2.06298828 -0.34057617 4.5703125 -0.29296875 C5.46621094 -0.28330078 6.36210937 -0.27363281 7.28515625 -0.26367188 C8.69087891 -0.2259668 8.69087891 -0.2259668 10.125 -0.1875 C11.06988281 -0.17396484 12.01476562 -0.16042969 12.98828125 -0.14648438 C15.32608779 -0.11106306 17.66276237 -0.06167271 20 0 C20 0.33 20 0.66 20 1 C19.13117188 1.04898438 18.26234375 1.09796875 17.3671875 1.1484375 C16.21476562 1.22320312 15.06234375 1.29796875 13.875 1.375 C12.16957031 1.47941406 12.16957031 1.47941406 10.4296875 1.5859375 C7.04606384 1.99443876 4.18387559 2.80967569 1 4 C1.47016829 8.74442543 3.32431401 10.90058122 6.5625 14.3125 C7.26886597 15.06225098 7.26886597 15.06225098 7.98950195 15.82714844 C14.83759932 23.03383629 21.92774412 30.01446297 29 37 C28.67 37.99 28.34 38.98 28 40 C26.29115995 38.37660195 24.62553283 36.70680947 23 35 C23 34.34 23 33.68 23 33 C22.34 33 21.68 33 21 33 C21 32.34 21 31.68 21 31 C20.4225 30.74863281 19.845 30.49726563 19.25 30.23828125 C13.43651493 27.03884589 9.03721367 21.15092779 5 16 C3.35305515 14.31384218 1.68873879 12.64429829 0 11 C-2 9 -2 9 -2.25 6.0625 C-2 3 -2 3 0 0 Z " fill="#8B91CB" transform="translate(189,143)"/>
<path d="M0 0 C0 0.66 0 1.32 0 2 C-1.546875 2.433125 -1.546875 2.433125 -3.125 2.875 C-3.76050781 3.06191406 -4.39601562 3.24882813 -5.05078125 3.44140625 C-6.79312329 3.94071469 -8.55220487 4.3807295 -10.3125 4.8125 C-13.22452962 5.76582445 -13.22452962 5.76582445 -14.375 8.625 C-14.58125 9.40875 -14.7875 10.1925 -15 11 C-15.66 11 -16.32 11 -17 11 C-17 32.45 -17 53.9 -17 76 C-17.33 76 -17.66 76 -18 76 C-18.0928245 67.49834928 -18.16382753 58.99691155 -18.20724869 50.49487877 C-18.22809247 46.54669627 -18.25635049 42.59886137 -18.30175781 38.65087891 C-18.34533152 34.83830999 -18.36916124 31.02607468 -18.37950897 27.21327591 C-18.38687981 25.76123429 -18.40127356 24.30921021 -18.42292023 22.85731125 C-18.45210976 20.81772667 -18.45594986 18.77950711 -18.45410156 16.73974609 C-18.46298401 15.58058685 -18.47186646 14.42142761 -18.48101807 13.22714233 C-17.74968601 8.32064751 -15.51312482 5.1251441 -11.5625 2.1875 C-7.56221807 0.33371081 -4.40494612 0 0 0 Z " fill="#8B91CB" transform="translate(143,2)"/>
<path d="M0 0 C4.87773605 0.45374289 7.52177888 1.52177888 11 5 C15.81382069 12.73649754 15.2077755 21.4928585 15.25 30.3125 C15.270625 31.40884766 15.29125 32.50519531 15.3125 33.63476562 C15.31765625 34.67955078 15.3228125 35.72433594 15.328125 36.80078125 C15.34214355 38.22644409 15.34214355 38.22644409 15.35644531 39.6809082 C15.23881836 40.4462085 15.12119141 41.21150879 15 42 C14.01 42.66 13.02 43.32 12 44 C11.67 32.12 11.34 20.24 11 8 C10.34 8 9.68 8 9 8 C8.67 6.68 8.34 5.36 8 4 C6.8553125 4.12375 6.8553125 4.12375 5.6875 4.25 C3 4 3 4 1.1875 2 C0.5996875 1.01 0.5996875 1.01 0 0 Z " fill="#8B91CB" transform="translate(144,3)"/>
<path d="M0 0 C0.99 0 1.98 0 3 0 C3.33 1.32 3.66 2.64 4 4 C4.99 4 5.98 4 7 4 C8.68732277 5.98260426 10.35366057 7.9832342 12 10 C12.99 10.33 13.98 10.66 15 11 C15 11.99 15 12.98 15 14 C15.66 14 16.32 14 17 14 C17.33 14.99 17.66 15.98 18 17 C19.53419823 18.26512204 19.53419823 18.26512204 21.375 19.375 C24.54375183 21.51569682 26.30250031 23.50514769 28 27 C23.78251177 26.49289579 21.78879187 24.16188072 18.8671875 21.23046875 C18.38927765 20.7530574 17.9113678 20.27564606 17.41897583 19.7837677 C16.41193673 18.77439258 15.40857834 17.76133358 14.40869141 16.74487305 C12.88205483 15.19466377 11.34255956 13.65818171 9.80078125 12.12304688 C1.61370168 3.88930415 1.61370168 3.88930415 0 0 Z " fill="#8B91CB" transform="translate(55,65)"/>
<path d="M0 0 C2 3 2 3 2 7 C2.66 7 3.32 7 4 7 C4.33 7.66 4.66 8.32 5 9 C10.73439187 12.17221678 15.52716457 12.35164297 22 12 C22.33 11.34 22.66 10.68 23 10 C24.32 10 25.64 10 27 10 C27.33 9.01 27.66 8.02 28 7 C28.99 6.67 29.98 6.34 31 6 C28.91192765 10.86178041 25.82852527 13.00441824 21 15 C16.19940548 15.94060996 11.99852833 16.03651388 7.58984375 13.75 C4.36734813 11.41062024 2.22113866 9.33170799 0 6 C-0.125 2.8125 -0.125 2.8125 0 0 Z " fill="#8B91CB" transform="translate(125,238)"/>
<path d="M0 0 C4.42864971 0.5061314 6.84889946 1.84889946 10 5 C12.63117319 9.80869583 13.58467457 13.54303738 13 19 C11.29145886 24.21554663 9.08456048 27.35701363 5 31 C4.01 30.67 3.02 30.34 2 30 C2.66 30 3.32 30 4 30 C4.33 29.01 4.66 28.02 5 27 C5.66 26.67 6.32 26.34 7 26 C7.33 25.01 7.66 24.02 8 23 C8.66 23 9.32 23 10 23 C10.05406122 21.06280622 10.09282025 19.12518079 10.125 17.1875 C10.14820313 16.10855469 10.17140625 15.02960938 10.1953125 13.91796875 C10.23023717 10.80597132 10.23023717 10.80597132 8 8 C8 7.01 8 6.02 8 5 C7.4225 4.731875 6.845 4.46375 6.25 4.1875 C3.9674132 2.98280141 2.0262058 1.59201885 0 0 Z " fill="#8B91CB" transform="translate(254,112)"/>
<path d="M0 0 C-1.65 0.33 -3.3 0.66 -5 1 C-5.33 1.99 -5.66 2.98 -6 4 C-6.61875 4.28875 -7.2375 4.5775 -7.875 4.875 C-10.89586364 6.47428075 -11.6246718 7.8563927 -13 11 C-13.52958564 14.32518677 -13.81077006 17.63953734 -14 21 C-13.34 21 -12.68 21 -12 21 C-11.71125 21.804375 -11.4225 22.60875 -11.125 23.4375 C-10.26737432 26.1326468 -10.26737432 26.1326468 -8 27 C-8.33 27.99 -8.66 28.98 -9 30 C-12.77422582 26.20203691 -16.03876059 22.55570261 -17.07421875 17.1796875 C-16.89432254 11.89641999 -13.94360222 7.07128412 -10.39453125 3.2890625 C-6.6608421 0.0992935 -4.71483558 -1.41445067 0 0 Z " fill="#8B91CB" transform="translate(63,35)"/>
<path d="M0 0 C0.66 0 1.32 0 2 0 C0.37506343 4.15704633 -2.67222824 6.89595505 -5.8125 9.9375 C-6.33392578 10.44990234 -6.85535156 10.96230469 -7.39257812 11.49023438 C-8.42867145 12.50821871 -9.46681548 13.52412041 -10.50708008 14.5378418 C-11.91243626 15.91424052 -13.30058476 17.3081463 -14.6875 18.703125 C-22.03401361 26 -22.03401361 26 -25 26 C-24.875 24.125 -24.875 24.125 -24 22 C-22.00428677 21.32060826 -20.00405227 20.65438441 -18 20 C-16.57944932 17.99863756 -16.57944932 17.99863756 -16 16 C-15.34 16 -14.68 16 -14 16 C-13.67 15.01 -13.34 14.02 -13 13 C-12.34 13 -11.68 13 -11 13 C-10.34 11.68 -9.68 10.36 -9 9 C-8.34 9 -7.68 9 -7 9 C-6.67 8.01 -6.34 7.02 -6 6 C-4.35360035 4.64172029 -2.68704193 3.30745749 -1 2 C-0.67 1.34 -0.34 0.68 0 0 Z " fill="#8B91CB" transform="translate(96,193)"/>
<path d="M0 0 C6.12329055 4.95074555 13.43322076 10.86644151 17 18 C17.06950541 19.54023996 17.08452357 21.08334988 17.0625 22.625 C17.05347656 23.44226563 17.04445312 24.25953125 17.03515625 25.1015625 C17.02355469 25.72804687 17.01195312 26.35453125 17 27 C16.34 27.33 15.68 27.66 15 28 C15 24.37 15 20.74 15 17 C14.01 16.67 13.02 16.34 12 16 C11.67 15.34 11.34 14.68 11 14 C10.01 13.67 9.02 13.34 8 13 C6.96564444 11.35443434 5.97236487 9.6829392 5 8 C4.12124751 6.92333028 3.22474681 5.8609414 2.3125 4.8125 C0 2 0 2 0 0 Z " fill="#8B91CB" transform="translate(218,181)"/>
<path d="M0 0 C0.66 0.33 1.32 0.66 2 1 C1.22914063 1.75925781 0.45828125 2.51851563 -0.3359375 3.30078125 C-1.34909096 4.30455366 -2.36210448 5.30846732 -3.375 6.3125 C-3.88289062 6.81201172 -4.39078125 7.31152344 -4.9140625 7.82617188 C-8.83754533 11.72384232 -11.10856849 14.50283904 -12 20 C-11.34 20.33 -10.68 20.66 -10 21 C-10.99 21.33 -11.98 21.66 -13 22 C-14 21 -14 21 -14.375 17.8125 C-13.88449252 12.82567393 -12.53107159 11.44699846 -9 8 C-8.34 8 -7.68 8 -7 8 C-6.34 6.68 -5.68 5.36 -5 4 C-4.34 4 -3.68 4 -3 4 C-2.67 3.01 -2.34 2.02 -2 1 C-1.34 0.67 -0.68 0.34 0 0 Z " fill="#8B91CB" transform="translate(201,89)"/>
<path d="M0 0 C0.66 0.66 1.32 1.32 2 2 C0.50260417 3.20442708 -0.99479167 4.40885417 -2.4921875 5.61328125 C-4.25292107 7.12270545 -4.25292107 7.12270545 -6 10 C-6.99 10.33 -7.98 10.66 -9 11 C-10.66710346 12.49985609 -10.66710346 12.49985609 -12 14 C-12.6875 12.1875 -12.6875 12.1875 -13 10 C-11.6875 8.25 -11.6875 8.25 -10 7 C-9.34 7 -8.68 7 -8 7 C-7.34 5.68 -6.68 4.36 -6 3 C-5.67 3.66 -5.34 4.32 -5 5 C-4.34 5 -3.68 5 -3 5 C-2.67 4.01 -2.34 3.02 -2 2 C-1.34 2 -0.68 2 0 2 C0 1.34 0 0.68 0 0 Z " fill="#8B91CB" transform="translate(192,54)"/>
<path d="M0 0 C4.69128668 2.18715393 8.77642486 4.90145446 12 9 C12.65376546 12.12024425 12.51160574 14.86641483 12 18 C10.02 18 8.04 18 6 18 C6.99 17.67 7.98 17.34 9 17 C9.59130428 14.34065953 9.59130428 14.34065953 9 11 C7.3937215 8.7613284 5.63226299 6.82007682 3.7265625 4.83203125 C2 3 2 3 0 0 Z " fill="#8B91CB" transform="translate(83,93)"/>
<path d="M0 0 C3.81661862 1.27220621 4.84824801 2.62984143 7 6 C7.390625 9.33203125 7.390625 9.33203125 7.25 12.8125 C7.21390625 13.97394531 7.1778125 15.13539062 7.140625 16.33203125 C7.09421875 17.21246094 7.0478125 18.09289062 7 19 C6.01 19 5.02 19 4 19 C3.67 20.32 3.34 21.64 3 23 C2.34 22.67 1.68 22.34 1 22 C1.3125 20.125 1.3125 20.125 2 18 C2.99 17.34 3.98 16.68 5 16 C5.57993699 13.80545319 5.57993699 13.80545319 5.6875 11.375 C5.75324219 10.55773438 5.81898438 9.74046875 5.88671875 8.8984375 C5.92410156 8.27195312 5.96148437 7.64546875 6 7 C5.38125 6.896875 4.7625 6.79375 4.125 6.6875 C2 6 2 6 0 3 C0 2.01 0 1.02 0 0 Z " fill="#8B91CB" transform="translate(226,39)"/>
<path d="M0 0 C2.06298828 -0.34057617 2.06298828 -0.34057617 4.5703125 -0.29296875 C5.46621094 -0.28330078 6.36210937 -0.27363281 7.28515625 -0.26367188 C8.69087891 -0.2259668 8.69087891 -0.2259668 10.125 -0.1875 C11.06988281 -0.17396484 12.01476562 -0.16042969 12.98828125 -0.14648438 C15.32608779 -0.11106306 17.66276237 -0.06167271 20 0 C20 0.33 20 0.66 20 1 C19.13117188 1.04898438 18.26234375 1.09796875 17.3671875 1.1484375 C16.21476562 1.22320312 15.06234375 1.29796875 13.875 1.375 C12.16957031 1.47941406 12.16957031 1.47941406 10.4296875 1.5859375 C7.00603911 1.9992709 4.17369254 2.65584787 1 4 C-0.43923199 6.50995496 -0.43923199 6.50995496 -1 9 C-1.33 9 -1.66 9 -2 9 C-2.25 3.375 -2.25 3.375 0 0 Z " fill="#8B91CB" transform="translate(189,143)"/>
<path d="M0 0 C0 0.66 0 1.32 0 2 C-1.546875 2.433125 -1.546875 2.433125 -3.125 2.875 C-3.76050781 3.06191406 -4.39601562 3.24882813 -5.05078125 3.44140625 C-6.79312329 3.94071469 -8.55220487 4.3807295 -10.3125 4.8125 C-13.22452962 5.76582445 -13.22452962 5.76582445 -14.375 8.625 C-14.58125 9.40875 -14.7875 10.1925 -15 11 C-15.66 11 -16.32 11 -17 11 C-17.33 11.99 -17.66 12.98 -18 14 C-17.72387317 10.04218214 -17.25946652 8.30043492 -14.625 5.25 C-9.68961964 1.01967398 -6.43029525 0 0 0 Z " fill="#8B91CB" transform="translate(143,2)"/>
<path d="M0 0 C3.5432211 1.5024543 5.77071524 3.56252265 8.4375 6.3125 C9.21867187 7.11171875 9.99984375 7.9109375 10.8046875 8.734375 C11.52914062 9.48203125 12.25359375 10.2296875 13 11 C14.0184839 12.02317737 15.03874585 13.04459587 16.0625 14.0625 C16.701875 14.701875 17.34125 15.34125 18 16 C15.525 15.505 15.525 15.505 13 15 C13 14.34 13 13.68 13 13 C12.34 13 11.68 13 11 13 C9.28891311 11.37897032 7.62746694 9.70496537 6 8 C5.278125 7.319375 4.55625 6.63875 3.8125 5.9375 C2.03731447 4.03988788 1.0178615 2.37501016 0 0 Z " fill="#8B91CB" transform="translate(95,62)"/>
<path d="M0 0 C4.87773605 0.45374289 7.52177888 1.52177888 11 5 C14.13043478 10.00869565 14.13043478 10.00869565 13.6875 13.375 C13.460625 13.91125 13.23375 14.4475 13 15 C11.5393715 12.35261084 11 11.10551666 11 8 C10.34 8 9.68 8 9 8 C8.67 6.68 8.34 5.36 8 4 C6.8553125 4.12375 6.8553125 4.12375 5.6875 4.25 C3 4 3 4 1.1875 2 C0.5996875 1.01 0.5996875 1.01 0 0 Z " fill="#8B91CB" transform="translate(144,3)"/>
<path d="M0 0 C0.66 0 1.32 0 2 0 C1.67 1.32 1.34 2.64 1 4 C0.34 4 -0.32 4 -1 4 C-1.144375 4.804375 -1.28875 5.60875 -1.4375 6.4375 C-2 9 -2 9 -3 10 C-3.17299981 13.20049657 -2.9097643 15.92954549 -2 19 C-2.33 18.34 -2.66 17.68 -3 17 C-3.66 17 -4.32 17 -5 17 C-5.48100538 11.68756275 -5.78293046 7.38500626 -2.625 2.875 C-1.75875 1.92625 -0.8925 0.9775 0 0 Z " fill="#8B91CB" transform="translate(54,39)"/>
<path d="M0 0 C-1.3125 1.5 -1.3125 1.5 -3 3 C-3.99 3 -4.98 3 -6 3 C-6 3.66 -6 4.32 -6 5 C-6.66 5 -7.32 5 -8 5 C-8.33 6.98 -8.66 8.96 -9 11 C-9.99 11.33 -10.98 11.66 -12 12 C-10.66516854 4.71910112 -10.66516854 4.71910112 -7.6875 1.5 C-4.79986051 -0.11170576 -3.2475536 -0.37114898 0 0 Z " fill="#8B91CB" transform="translate(29,112)"/>
<path d="M0 0 C0.33 0 0.66 0 1 0 C1.59221131 4.58728757 2.00030864 8.43059346 -0.55859375 12.4453125 C-2.29865412 14.39894164 -4.06872705 16.23623542 -6 18 C-6.99 17.67 -7.98 17.34 -9 17 C-8.34 17 -7.68 17 -7 17 C-6.67 16.01 -6.34 15.02 -6 14 C-5.34 13.67 -4.68 13.34 -4 13 C-3.67 12.01 -3.34 11.02 -3 10 C-2.34 10 -1.68 10 -1 10 C-0.67 6.7 -0.34 3.4 0 0 Z " fill="#8B91CB" transform="translate(265,125)"/>
<path d="M0 0 C0.33 0 0.66 0 1 0 C1 2.31 1 4.62 1 7 C1.66 7 2.32 7 3 7 C3.28875 7.804375 3.5775 8.60875 3.875 9.4375 C4.73262568 12.1326468 4.73262568 12.1326468 7 13 C6.67 13.99 6.34 14.98 6 16 C1.62229577 11.59552082 -0.87257508 8.49867082 -1 2 C-0.67 1.34 -0.34 0.68 0 0 Z " fill="#8B91CB" transform="translate(48,49)"/>
<path d="M0 0 C0.66 0.33 1.32 0.66 2 1 C-0.68988892 4.58651856 -3.4814365 7.24220698 -7 10 C-7.33 10.66 -7.66 11.32 -8 12 C-8.66 12 -9.32 12 -10 12 C-9.49452628 7.91944849 -7.49911118 6.33727705 -4.4375 3.75 C-3.61121094 3.04359375 -2.78492188 2.3371875 -1.93359375 1.609375 C-1.29550781 1.07828125 -0.65742188 0.5471875 0 0 Z " fill="#8B91CB" transform="translate(197,47)"/>
<path d="M0 0 C2 3 2 3 2 7 C2.66 7 3.32 7 4 7 C4.33 7.66 4.66 8.32 5 9 C5.825 9.309375 6.65 9.61875 7.5 9.9375 C8.325 10.288125 9.15 10.63875 10 11 C10.33 11.99 10.66 12.98 11 14 C6.60325886 13.49268371 4.16191891 10.88085945 1 8 C-0.35439668 5.29120665 -0.06501451 2.99066732 0 0 Z " fill="#8B91CB" transform="translate(125,238)"/>
<path d="M0 0 C0.66 0.99 1.32 1.98 2 3 C1.67 3.99 1.34 4.98 1 6 C0.34 5.01 -0.32 4.02 -1 3 C-2.96128755 2.1762044 -2.96128755 2.1762044 -5 2 C-7.33075929 2.95865509 -7.33075929 2.95865509 -9 6 C-9.33 4.68 -9.66 3.36 -10 2 C-6.32003497 -0.45331002 -4.34586828 -0.39507893 0 0 Z " fill="#8B91CB" transform="translate(167,174)"/>
<path d="M0 0 C1.98 0.99 1.98 0.99 4 2 C4 2.66 4 3.32 4 4 C4.99 4.33 5.98 4.66 7 5 C7 5.66 7 6.32 7 7 C8.32 7.33 9.64 7.66 11 8 C11 8.66 11 9.32 11 10 C7.6989701 9.40114059 5.78574977 8.30314403 3.25 6.125 C2.63640625 5.61195313 2.0228125 5.09890625 1.390625 4.5703125 C0 3 0 3 0 0 Z " fill="#8B91CB" transform="translate(200,209)"/>
<path d="M0 0 C-0.33 0.99 -0.66 1.98 -1 3 C-1.66 3 -2.32 3 -3 3 C-3 3.99 -3 4.98 -3 6 C-3.99 6.33 -4.98 6.66 -6 7 C-7.70586575 8.62652316 -9.3777546 10.29006566 -11 12 C-11 9 -11 9 -9.1015625 6.73828125 C-8.28429687 5.93777344 -7.46703125 5.13726562 -6.625 4.3125 C-5.81289062 3.50425781 -5.00078125 2.69601563 -4.1640625 1.86328125 C-2 0 -2 0 0 0 Z " fill="#8B91CB" transform="translate(76,170)"/>
<path d="M0 0 C4.24822374 0.47202486 6.19989709 2.96655518 9 6 C8.67 6.66 8.34 7.32 8 8 C7.236875 7.525625 6.47375 7.05125 5.6875 6.5625 C3.03589452 4.89893903 3.03589452 4.89893903 0 4 C0 2.68 0 1.36 0 0 Z " fill="#8B91CB" transform="translate(82,50)"/>
<path d="M0 0 C0.66 0 1.32 0 2 0 C2.12375 1.11375 2.2475 2.2275 2.375 3.375 C2.6465813 7.03103677 2.6465813 7.03103677 5 9 C4.625 11.125 4.625 11.125 4 13 C1.04952165 8.38987758 -0.5497272 5.63470383 0 0 Z " fill="#8B91CB" transform="translate(47,201)"/>
<path d="M0 0 C-0.8125 2.4375 -0.8125 2.4375 -2 5 C-2.99 5.33 -3.98 5.66 -5 6 C-5 6.99 -5 7.98 -5 9 C-5.66 8.67 -6.32 8.34 -7 8 C-7 4 -7 4 -5.1875 1.75 C-3 0 -3 0 0 0 Z " fill="#8B91CB" transform="translate(82,164)"/>
<path d="M0 0 C0.66 0 1.32 0 2 0 C0.61166236 4.41743795 -1.39713352 7.0833938 -5 10 C-7.1640625 9.6328125 -7.1640625 9.6328125 -9 9 C-8.51789063 8.68546875 -8.03578125 8.3709375 -7.5390625 8.046875 C-2.74628648 4.90611252 -2.74628648 4.90611252 0 0 Z " fill="#8B91CB" transform="translate(232,209)"/>
<path d="M0 0 C3.68802044 1.22934015 4.72356973 2.93859378 7 6 C6.67 6.66 6.34 7.32 6 8 C3.5625 6.8125 3.5625 6.8125 1 5 C0.1875 2.3125 0.1875 2.3125 0 0 Z " fill="#8B91CB" transform="translate(226,39)"/>
<path d="M0 0 C3.05890398 1.01963466 4.1269304 1.46389692 6 4 C6.29296875 6.69921875 6.29296875 6.69921875 6.1875 9.6875 C6.16042969 10.68136719 6.13335937 11.67523438 6.10546875 12.69921875 C6.07066406 13.45847656 6.03585938 14.21773437 6 15 C5.67 15 5.34 15 5 15 C4.97421875 14.39671875 4.9484375 13.7934375 4.921875 13.171875 C4.62611413 7.93018499 4.62611413 7.93018499 1.9375 3.5625 C1.298125 3.046875 0.65875 2.53125 0 2 C0 1.34 0 0.68 0 0 Z " fill="#8B91CB" transform="translate(227,194)"/>
<path d="M0 0 C4.28806873 0.47645208 6.26647487 1.65902484 9 5 C9 5.66 9 6.32 9 7 C8.34 7 7.68 7 7 7 C6.34 6.01 5.68 5.02 5 4 C2.44816596 2.79549696 2.44816596 2.79549696 0 2 C0 1.34 0 0.68 0 0 Z " fill="#8B91CB" transform="translate(67,36)"/>
<path d="M0 0 C0.68359375 1.765625 0.68359375 1.765625 1 4 C-0.21484375 5.921875 -0.21484375 5.921875 -1.9375 7.75 C-2.50339844 8.36359375 -3.06929687 8.9771875 -3.65234375 9.609375 C-4.31943359 10.29773438 -4.31943359 10.29773438 -5 11 C-5.99 10.34 -6.98 9.68 -8 9 C-7.01 9 -6.02 9 -5 9 C-4.731875 8.195625 -4.46375 7.39125 -4.1875 6.5625 C-3.795625 5.716875 -3.40375 4.87125 -3 4 C-2.01 3.67 -1.02 3.34 0 3 C0 2.01 0 1.02 0 0 Z " fill="#8B91CB" transform="translate(55,191)"/>
<path d="M0 0 C0 0.66 0 1.32 0 2 C-7.42857143 4.14285714 -7.42857143 4.14285714 -11 5 C-10.3125 3.0625 -10.3125 3.0625 -9 1 C-5.85335593 0.00632292 -3.33401374 0 0 0 Z " fill="#8B91CB" transform="translate(143,2)"/>
<path d="M0 0 C1.32 0 2.64 0 4 0 C4 0.66 4 1.32 4 2 C4.99 2.33 5.98 2.66 7 3 C7 3.99 7 4.98 7 6 C3.63279613 4.60667426 2.0140476 3.0210714 0 0 Z " fill="#8B91CB" transform="translate(52,214)"/>
<path d="M0 0 C-5.75 5 -5.75 5 -8 5 C-7.75 3.125 -7.75 3.125 -7 1 C-4.09342573 -1.03460199 -3.47133392 -1.15711131 0 0 Z " fill="#8B91CB" transform="translate(79,214)"/>
<path d="M0 0 C-1.52708963 3.43595166 -3.59927045 6.11912454 -6 9 C-6.99 8.34 -7.98 7.68 -9 7 C-8.01 7 -7.02 7 -6 7 C-6 6.01 -6 5.02 -6 4 C-2.57142857 0 -2.57142857 0 0 0 Z " fill="#8B91CB" transform="translate(93,155)"/>
<path d="M0 0 C1.32 1.65 2.64 3.3 4 5 C2.02 5.33 0.04 5.66 -2 6 C-2.33 5.01 -2.66 4.02 -3 3 C-2.01 2.01 -1.02 1.02 0 0 Z " fill="#8B91CB" transform="translate(158,75)"/>
<path d="M0 0 C0.99 0 1.98 0 3 0 C3 0.66 3 1.32 3 2 C2.34 2 1.68 2 1 2 C1 2.66 1 3.32 1 4 C1.99 4.33 2.98 4.66 4 5 C4 6.65 4 8.3 4 10 C3.34 9.67 2.68 9.34 2 9 C2 8.01 2 7.02 2 6 C1.34 6 0.68 6 0 6 C0 4.02 0 2.04 0 0 Z " fill="#8B91CB" transform="translate(17,124)"/>
<path d="M0 0 C2.97 0.495 2.97 0.495 6 1 C6 2.32 6 3.64 6 5 C4.68 5.33 3.36 5.66 2 6 C1.855625 5.38125 1.71125 4.7625 1.5625 4.125 C1.06847775 1.96741678 1.06847775 1.96741678 0 0 Z " fill="#8B91CB" transform="translate(80,88)"/>
<path d="" fill="#FFFFFF" transform="translate(0,0)"/>
<path d="" fill="#FFFFFF" transform="translate(0,0)"/>
<path d="" fill="#FFFFFF" transform="translate(0,0)"/>
<path d="" fill="#FFFFFF" transform="translate(0,0)"/>
<path d="" fill="#FFFFFF" transform="translate(0,0)"/>
<path d="" fill="#FFFFFF" transform="translate(0,0)"/>
<path d="" fill="#FFFFFF" transform="translate(0,0)"/>
<path d="" fill="#FFFFFF" transform="translate(0,0)"/>
<path d="" fill="#FFFFFF" transform="translate(0,0)"/>
<path d="" fill="#FFFFFF" transform="translate(0,0)"/>
<path d="" fill="#FFFFFF" transform="translate(0,0)"/>
<path d="" fill="#FFFFFF" transform="translate(0,0)"/>
<path d="" fill="#FFFFFF" transform="translate(0,0)"/>
<path d="" fill="#FFFFFF" transform="translate(0,0)"/>
<path d="" fill="#FFFFFF" transform="translate(0,0)"/>
<path d="" fill="#FFFFFF" transform="translate(0,0)"/>
<path d="" fill="#FFFFFF" transform="translate(0,0)"/>
<path d="" fill="#FFFFFF" transform="translate(0,0)"/>
<path d="" fill="#FFFFFF" transform="translate(0,0)"/>
<path d="" fill="#FFFFFF" transform="translate(0,0)"/>
<path d="" fill="#FFFFFF" transform="translate(0,0)"/>
<path d="" fill="#FFFFFF" transform="translate(0,0)"/>
<path d="" fill="#FFFFFF" transform="translate(0,0)"/>
<path d="" fill="#FFFFFF" transform="translate(0,0)"/>
<path d="" fill="#FFFFFF" transform="translate(0,0)"/>
<path d="" fill="#FFFFFF" transform="translate(0,0)"/>
<path d="" fill="#FFFFFF" transform="translate(0,0)"/>
<path d="" fill="#FFFFFF" transform="translate(0,0)"/>
<path d="" fill="#FFFFFF" transform="translate(0,0)"/>
<path d="" fill="#FFFFFF" transform="translate(0,0)"/>
<path d="" fill="#FFFFFF" transform="translate(0,0)"/>
<path d="" fill="#FFFFFF" transform="translate(0,0)"/>
<path d="" fill="#FFFFFF" transform="translate(0,0)"/>
<path d="" fill="#FFFFFF" transform="translate(0,0)"/>
<path d="" fill="#FFFFFF" transform="translate(0,0)"/>
<path d="" fill="#FFFFFF" transform="translate(0,0)"/>
<path d="" fill="#FFFFFF" transform="translate(0,0)"/>
</svg>
