<?xml version="1.0" standalone="no"?>
<!DOCTYPE svg PUBLIC "-//W3C//DTD SVG 1.1//EN" "http://www.w3.org/Graphics/SVG/1.1/DTD/svg11.dtd" >
<svg xmlns="http://www.w3.org/2000/svg" xmlns:xlink="http://www.w3.org/1999/xlink" version="1.1">
<metadata>
Created by FontForge 20230101 at Mon Sep 14 20:54:09 2020
 By Unknown
</metadata>
<defs>
<font id="SKReykjavikRounded-Regular" horiz-adv-x="409" >
  <font-face 
    font-family="SK Reykjavik Rounded"
    font-weight="400"
    font-stretch="normal"
    units-per-em="1000"
    panose-1="0 0 0 0 0 0 0 0 0 0"
    ascent="750"
    descent="-250"
    x-height="500"
    cap-height="700"
    bbox="-108 -296 1362 1101"
    underline-thickness="50"
    underline-position="-125"
    unicode-range="U+000D-FB05"
  />
<missing-glyph horiz-adv-x="250" 
 />
    <glyph glyph-name=".notdef" horiz-adv-x="250" 
 />
    <glyph glyph-name=".null" horiz-adv-x="0" 
 />
    <glyph glyph-name="uni000D" unicode="&#xd;" horiz-adv-x="250" 
 />
    <glyph glyph-name="space" unicode=" " 
 />
    <glyph glyph-name="exclam" unicode="!" horiz-adv-x="226" 
d="M163 245q0 -20 -12.5 -32.5t-32.5 -12.5h-10q-20 0 -32.5 12.5t-12.5 32.5v410q0 20 12.5 32.5t32.5 12.5h10q20 0 32.5 -12.5t12.5 -32.5v-410zM173 45q0 -20 -12.5 -32.5t-32.5 -12.5h-30q-20 0 -32.5 12.5t-12.5 32.5v30q0 20 12.5 32.5t32.5 12.5h30q20 0 32.5 -12.5
t12.5 -32.5v-30z" />
    <glyph glyph-name="quotedbl" unicode="&#x22;" horiz-adv-x="399" 
d="M298 474q-5 -8 -14.5 -13.5t-19.5 -5.5q-22 0 -16 21l33 104h-20q-21 0 -21 21v54q0 20 12.5 32.5t32.5 12.5h30q20 0 32.5 -12.5t12.5 -32.5v-63q0 -13 -6 -22zM98 474q-5 -8 -14.5 -13.5t-19.5 -5.5q-22 0 -16 21l33 104h-20q-21 0 -21 21v54q0 20 12.5 32.5t32.5 12.5
h30q20 0 32.5 -12.5t12.5 -32.5v-63q0 -13 -6 -22z" />
    <glyph glyph-name="numbersign" unicode="#" horiz-adv-x="631" 
d="M153 33q-5 -15 -16.5 -24t-27.5 -9h-17q-23 0 -34 13.5t-5 36.5l27 100h-32q-15 0 -24 9t-9 24v22q0 20 12.5 32.5t32.5 12.5h47l40 150h-40q-18 0 -29.5 11t-11.5 29v15q0 20 12.5 32.5t32.5 12.5h63l45 167q4 15 15.5 24t27.5 9h17q23 0 34 -13.5t5 -36.5l-40 -150h150
l45 167q4 15 15.5 24t27.5 9h17q23 0 34 -13.5t5 -36.5l-40 -150h39q17 0 28 -11t11 -28v-16q0 -20 -12.5 -32.5t-32.5 -12.5h-60l-40 -150h42q19 0 30 -11.5t11 -30.5v-13q0 -20 -12.5 -32.5t-32.5 -12.5h-65l-31 -117q-5 -15 -16.5 -24t-27.5 -9h-17q-23 0 -34 13.5
t-5 36.5l27 100h-150zM211 250h150l40 150h-150z" />
    <glyph glyph-name="dollar" unicode="$" horiz-adv-x="605" 
d="M352 -55q0 -20 -12.5 -32.5t-32.5 -12.5h-10q-20 0 -32.5 12.5t-12.5 32.5v48q-43 5 -80 18.5t-66.5 36t-49 54.5t-26.5 74q-3 20 9.5 32t32.5 12h10q20 0 32.5 -12t17.5 -32q8 -29 26 -48t43 -29.5t55 -14.5t61 -4q27 0 55.5 4.5t51.5 16.5t38 33.5t15 55.5q0 27 -8 46
t-22 32t-34.5 21.5t-45.5 14.5q-20 4 -42 8t-48 8q-44 6 -85.5 19.5t-73.5 36.5t-51.5 58t-19.5 86q0 43 17 76.5t45.5 57t65.5 37t77 17.5v47q0 20 12.5 32.5t32.5 12.5h10q20 0 32.5 -12.5t12.5 -32.5v-48q79 -9 133.5 -47.5t67.5 -114.5q3 -20 -9 -32.5t-32 -12.5h-10
q-20 0 -33 12t-18 31q-7 25 -23 40t-38 23.5t-48 11t-55 2.5q-24 0 -49 -5t-45.5 -16.5t-33 -30.5t-12.5 -48q0 -25 7 -42.5t20 -29.5t32 -19.5t42 -12.5q18 -5 40 -8.5t49 -7.5q46 -7 89.5 -19.5t77 -36.5t53.5 -61t20 -93q0 -48 -18.5 -84t-49.5 -60t-71.5 -37t-85.5 -17
v-47z" />
    <glyph glyph-name="percent" unicode="%" horiz-adv-x="866" 
d="M360 520q0 -41 -9.5 -75.5t-30 -60t-52.5 -40t-78 -14.5q-87 0 -128.5 52t-41.5 138q0 41 9.5 75.5t30 60t52.5 40t78 14.5q87 0 128.5 -52t41.5 -138zM276 21q-13 -21 -38 -21h-35q-27 0 -34.5 13.5t7.5 36.5l408 630q13 20 38 20h35q27 0 34.5 -13.5t-7.5 -36.5z
M110 520q0 -22 3 -42t11.5 -35t24.5 -24t41 -9q26 0 41.5 9t24 24t11.5 35t3 42t-3 42t-11.5 35t-24 24t-41.5 9q-25 0 -41 -9t-24.5 -24t-11.5 -35t-3 -42zM840 180q0 -41 -9.5 -75.5t-30 -60t-52.5 -40t-78 -14.5q-87 0 -128.5 52t-41.5 138q0 41 9.5 75.5t30 60t52.5 40
t78 14.5q87 0 128.5 -52t41.5 -138zM590 180q0 -22 3 -42t11.5 -35t24.5 -24t41 -9q26 0 41.5 9t24 24t11.5 35t3 42t-3 42t-11.5 35t-24 24t-41.5 9q-25 0 -41 -9t-24.5 -24t-11.5 -35t-3 -42z" />
    <glyph glyph-name="ampersand" unicode="&#x26;" horiz-adv-x="700" 
d="M523 67q-41 -34 -102 -55.5t-150 -21.5q-62 0 -104 16.5t-68 41t-41 52.5q-26 48 -27 109q0 37 13.5 68t33.5 56.5t44.5 45t46.5 32.5q-22 23 -41 57.5t-19 82.5q2 45 22 80q9 15 22 29t32 25t45.5 18t60.5 7q65 0 100 -23t50 -52q19 -33 20 -75q0 -36 -11 -64
t-28.5 -48.5t-39 -34.5t-41.5 -23l171 -170q13 32 17.5 64t4.5 57q0 22 12 35.5t35 13.5h11q17 0 29 -10.5t13 -28.5q0 -18 -1 -41.5t-6 -51t-14.5 -56.5t-25.5 -57l62 -63q14 -14 14 -31.5t-14 -31.5l-7 -7q-13 -15 -31 -15q-17 0 -32 15zM203 551q0 -16 8.5 -31.5
t20.5 -29t25 -24.5t22 -17q15 4 30.5 12t28 21t21 32t8.5 46q-1 17 -9 30q-7 11 -22.5 20.5t-44.5 9.5q-34 0 -52 -10.5t-26 -23.5q-9 -16 -10 -35zM131 209q1 -36 16 -64q13 -25 41.5 -45t82.5 -20q64 0 108.5 15.5t73.5 41.5l-216 217q-16 -8 -34.5 -21t-34.5 -31
t-26.5 -41t-10.5 -52z" />
    <glyph glyph-name="quotesingle" unicode="'" horiz-adv-x="225" 
d="M110 474q-5 -8 -14 -13.5t-20 -5.5q-21 0 -15 21l33 104h-21q-20 0 -20 21v54q0 20 12.5 32.5t32.5 12.5h30q20 0 32.5 -12.5t12.5 -32.5v-63q0 -11 -7 -22z" />
    <glyph glyph-name="parenleft" unicode="(" horiz-adv-x="268" 
d="M247 -179q-12 -26 -36 -26q-9 0 -20 6q-26 16 -54.5 47t-52 83t-39 130t-15.5 189t15.5 189t39 130t52 83t54.5 47q11 6 20 6q24 0 36 -26q8 -17 3.5 -33.5t-16.5 -29.5q-11 -11 -24 -30t-26 -47t-24 -67t-19 -91q-20 -131 0 -262q8 -52 19 -91t24 -67t26 -47t24 -30
q12 -13 16.5 -29.5t-3.5 -33.5z" />
    <glyph glyph-name="parenright" unicode=")" horiz-adv-x="269" 
d="M73 -199q-10 -6 -20 -6q-24 0 -35 26q-8 17 -4 33.5t17 29.5q11 11 24 30t25.5 47t24 67t18.5 91q20 131 0 262q-7 52 -18.5 91t-24 67t-25.5 47t-24 30q-13 13 -17 29.5t4 33.5q11 26 35 26q10 0 20 -6q26 -16 54.5 -47t52 -83t39 -130t15.5 -189t-15.5 -189t-39 -130
t-52 -83t-54.5 -47z" />
    <glyph glyph-name="asterisk" unicode="*" horiz-adv-x="551" 
d="M326 315q0 -20 -12.5 -32.5t-32.5 -12.5h-10q-20 0 -32.5 12.5t-12.5 32.5v83l-73 -41q-11 -7 -24 -7q-25 0 -37 23l-5 9q-11 17 -6 34t22 27l73 42l-73 42q-17 10 -22 27t6 34l5 9q12 23 37 23q13 0 24 -7l73 -41v83q0 20 12.5 32.5t32.5 12.5h10q20 0 32.5 -12.5
t12.5 -32.5v-83l72 41q11 7 24 7q25 0 37 -23l5 -9q11 -17 6 -34t-22 -27l-72 -42l72 -42q17 -10 22 -27t-6 -34l-5 -9q-12 -23 -37 -23q-13 0 -24 7l-72 41v-83z" />
    <glyph glyph-name="plus" unicode="+" horiz-adv-x="572" 
d="M336 45q0 -20 -12.5 -32.5t-32.5 -12.5h-10q-20 0 -32.5 12.5t-12.5 32.5v155h-155q-20 0 -32.5 12.5t-12.5 32.5v10q0 20 12.5 32.5t32.5 12.5h155v155q0 20 12.5 32.5t32.5 12.5h10q20 0 32.5 -12.5t12.5 -32.5v-155h155q20 0 32.5 -12.5t12.5 -32.5v-10
q0 -20 -12.5 -32.5t-32.5 -12.5h-155v-155z" />
    <glyph glyph-name="comma" unicode="," horiz-adv-x="213" 
d="M104 -106q-5 -9 -14 -14t-20 -5q-21 0 -15 21l33 104h-21q-20 0 -20 21v54q0 20 12.5 32.5t32.5 12.5h30q20 0 32.5 -12.5t12.5 -32.5v-63q0 -11 -7 -23z" />
    <glyph glyph-name="hyphen" unicode="-" horiz-adv-x="322" 
d="M306 250q0 -20 -12.5 -32.5t-32.5 -12.5h-200q-20 0 -32.5 12.5t-12.5 32.5v10q0 20 12.5 32.5t32.5 12.5h200q20 0 32.5 -12.5t12.5 -32.5v-10z" />
    <glyph glyph-name="period" unicode="." horiz-adv-x="268" 
d="M194 44q0 -20 -12.5 -32.5t-32.5 -12.5h-30q-20 0 -32.5 12.5t-12.5 32.5v30q0 20 12.5 32.5t32.5 12.5h30q20 0 32.5 -12.5t12.5 -32.5v-30z" />
    <glyph glyph-name="slash" unicode="/" horiz-adv-x="468" 
d="M103 23q-13 -23 -39 -23h-32q-26 0 -34 13.5t5 36.5l363 628q6 10 16.5 16t22.5 6h31q26 0 34.5 -13.5t-5.5 -36.5z" />
    <glyph glyph-name="zero" unicode="0" horiz-adv-x="565" 
d="M532 350q0 -65 -10.5 -129.5t-38.5 -115.5t-76.5 -83t-124.5 -32q-78 0 -126.5 33t-76 85t-37.5 116t-10 126q0 65 10.5 129.5t38.5 115.5t76.5 83t124.5 32q78 0 126.5 -33t76 -85t37.5 -116t10 -126zM132 350q0 -39 4.5 -86t19.5 -88t45 -68.5t81 -27.5t81 27.5
t45 68.5t19.5 88t4.5 86t-4.5 86t-19.5 88t-45 68.5t-81 27.5t-81 -27.5t-45 -68.5t-19.5 -88t-4.5 -86z" />
    <glyph glyph-name="one" unicode="1" horiz-adv-x="347" 
d="M286 45q0 -20 -12.5 -32.5t-32.5 -12.5h-10q-20 0 -32.5 12.5t-12.5 32.5v518l-67 -67q-14 -14 -32 -14q-16 0 -32 14l-7 7q-14 14 -14 31.5t14 32.5l120 120q13 13 32 13h41q20 0 32.5 -12.5t12.5 -32.5v-610z" />
    <glyph glyph-name="two" unicode="2" horiz-adv-x="541" 
d="M500 45q0 -20 -12.5 -32.5t-32.5 -12.5h-370q-20 0 -32.5 12.5t-12.5 32.5v34q0 20 17 35q15 12 38.5 31.5t51 41.5t55.5 45t51.5 43t40 33.5t20.5 17.5q37 35 56.5 73.5t19.5 90.5v10q-3 31 -16 55q-11 21 -35 38t-69 17q-28 0 -48.5 -6.5t-35 -16.5t-23 -22t-13.5 -24
q-8 -17 -21 -29t-33 -12h-10q-21 0 -32.5 12.5t-6.5 32.5q6 23 19.5 51.5t39 54t65.5 42.5t99 17q41 0 72.5 -9t55 -23.5t39.5 -33.5t26 -39q24 -46 27 -105q0 -66 -22.5 -120t-70.5 -101q-5 -5 -28.5 -24.5t-55.5 -46t-67.5 -55.5t-64.5 -53h274q20 0 32.5 -12.5
t12.5 -32.5v-10z" />
    <glyph glyph-name="three" unicode="3" horiz-adv-x="538" 
d="M499 230q-2 -67 -29 -120q-12 -22 -30 -44t-44.5 -38.5t-62.5 -27t-84 -10.5q-56 0 -95 14t-65 36.5t-40 49.5t-21 52q-6 21 6 34.5t34 13.5h12q18 0 30 -10.5t19 -26.5q11 -27 38.5 -50t81.5 -23q29 0 51 6.5t38 17t26.5 24t17.5 27.5q16 33 17 75q-1 39 -17 70
q-13 26 -44 48t-89 22h-78q-22 0 -22 22v3q0 9 4 17.5t9 14.5l173 173h-231q-20 0 -32.5 12.5t-12.5 32.5v10q0 20 12.5 32.5t32.5 12.5h310q20 0 32.5 -12.5t12.5 -32.5v-54q0 -19 -13 -32l-110 -110q32 -9 55.5 -23.5t40.5 -32t29 -37.5t19 -39q18 -45 19 -97z" />
    <glyph glyph-name="four" unicode="4" horiz-adv-x="614" 
d="M483 45q0 -20 -12.5 -32.5t-32.5 -12.5h-10q-20 0 -32.5 12.5t-12.5 32.5v150h-305q-20 0 -32.5 12.5t-12.5 32.5v46q0 17 10 29l309 369q14 16 35 16h51q20 0 32.5 -12.5t12.5 -32.5v-360h55q20 0 32.5 -12.5t12.5 -32.5v-10q0 -20 -12.5 -32.5t-32.5 -12.5h-55v-150z
M157 295h226v269z" />
    <glyph glyph-name="five" unicode="5" horiz-adv-x="548" 
d="M510 230q-2 -67 -29 -120q-12 -22 -30 -44t-44.5 -38.5t-62.5 -27t-84 -10.5q-57 0 -96 14t-65 36.5t-40 49.5t-21 52q-5 21 7 34.5t34 13.5h11q18 0 30.5 -10.5t19.5 -26.5q5 -13 14.5 -26.5t23.5 -23.5t34.5 -16.5t47.5 -6.5q29 0 50.5 6.5t37.5 17t26.5 24t17.5 27.5
q17 33 18 75q-3 45 -17 80q-6 15 -15.5 29.5t-23 25.5t-32 18t-42.5 7q-45 0 -75 -18t-48 -41q-10 -14 -24 -20.5t-31 -2.5l-27 6q-17 4 -27 17t-8 31l26 297q2 19 14 30t31 11h314q20 0 32.5 -12.5t12.5 -32.5v-10q0 -20 -12.5 -32.5t-32.5 -12.5h-263l-18 -191
q11 22 24.5 35.5t30 21.5t36.5 11t45 3q45 0 78.5 -10.5t58 -28t41 -40t26.5 -46.5q24 -55 26 -125z" />
    <glyph glyph-name="six" unicode="6" horiz-adv-x="560" 
d="M516 220q0 -51 -16 -93.5t-45.5 -73t-72 -47t-96.5 -16.5q-79 0 -128 27t-76 73t-36.5 108t-9.5 132q0 68 8.5 136t35.5 122t78.5 88t137.5 34q69 0 119.5 -30.5t70.5 -91.5q7 -21 -5 -34.5t-35 -13.5h-12q-17 0 -29.5 10t-20.5 25q-14 26 -39 35.5t-59 9.5
q-39 0 -65.5 -15.5t-42.5 -41.5t-23.5 -58.5t-8.5 -67.5v-64q11 30 35 45.5t50 23.5q30 8 65 8q51 0 91.5 -16.5t69 -47t44 -73t15.5 -93.5zM146 220q0 -68 35.5 -104t104.5 -36q66 0 98 38.5t32 101.5t-32 101.5t-98 38.5q-69 0 -104.5 -35.5t-35.5 -104.5z" />
    <glyph glyph-name="seven" unicode="7" horiz-adv-x="497" 
d="M195 26q-13 -26 -41 -26h-27q-25 0 -34 13.5t2 36.5l257 550h-277q-20 0 -32.5 12.5t-12.5 32.5v10q0 20 12.5 32.5t32.5 12.5h340q20 0 32.5 -12.5t12.5 -32.5v-49q0 -11 -4 -19z" />
    <glyph glyph-name="eight" unicode="8" horiz-adv-x="550" 
d="M515 200q0 -40 -10.5 -70.5t-27 -53t-38 -37.5t-44.5 -25q-53 -22 -120 -24q-67 2 -120 24q-22 10 -44 25t-38.5 37.5t-27 53t-10.5 70.5q1 32 10 64q8 26 27 55.5t54 52.5q-28 21 -42.5 46.5t-20.5 48.5q-8 26 -8 53q0 36 9.5 64t25 48t35 33.5t40.5 22.5q48 20 110 22
q62 -2 110 -22q21 -9 40.5 -22.5t35 -33.5t25 -48t9.5 -64q0 -27 -8 -53q-6 -23 -20.5 -48.5t-42.5 -46.5q35 -23 54 -52.5t27 -55.5q9 -32 10 -64zM155 510q0 -25 10.5 -43.5t27.5 -30.5t38.5 -18t43.5 -6t43.5 6t38.5 18t27.5 30.5t10.5 43.5q0 24 -10.5 42.5t-27.5 31
t-38.5 18.5t-43.5 6t-43.5 -6t-38.5 -18.5t-27.5 -31t-10.5 -42.5zM135 200q1 -31 16 -55q13 -20 41.5 -37.5t82.5 -17.5q55 0 83.5 17.5t40.5 37.5q15 24 16 55q0 50 -22 76.5t-48 38.5q-31 14 -70 15q-39 -1 -70 -15q-26 -11 -48 -38t-22 -77z" />
    <glyph glyph-name="nine" unicode="9" horiz-adv-x="544" 
d="M510 370q0 -68 -8.5 -136t-35.5 -122t-78.5 -88t-137.5 -34q-69 0 -119.5 30.5t-70.5 91.5q-7 21 5 34.5t35 13.5h12q17 0 29.5 -10t20.5 -25q14 -26 39 -35.5t59 -9.5q39 0 65.5 15.5t42.5 41.5t23.5 59t8.5 67v65q-10 -30 -34.5 -46t-50.5 -23q-30 -9 -65 -9
q-51 0 -91.5 16.5t-69 47t-44 73t-15.5 93.5t16 93.5t45.5 73t72 47t96.5 16.5q79 0 128 -26.5t76 -73t36.5 -108t9.5 -132.5zM130 480q0 -63 32 -101.5t98 -38.5q69 0 104.5 35.5t35.5 104.5t-36 104.5t-104 35.5q-66 0 -98 -38.5t-32 -101.5z" />
    <glyph glyph-name="colon" unicode=":" horiz-adv-x="268" 
d="M194 425q0 -20 -12.5 -32.5t-32.5 -12.5h-30q-20 0 -32.5 12.5t-12.5 32.5v30q0 20 12.5 32.5t32.5 12.5h30q20 0 32.5 -12.5t12.5 -32.5v-30zM194 45q0 -20 -12.5 -32.5t-32.5 -12.5h-30q-20 0 -32.5 12.5t-12.5 32.5v30q0 20 12.5 32.5t32.5 12.5h30q20 0 32.5 -12.5
t12.5 -32.5v-30z" />
    <glyph glyph-name="semicolon" unicode=";" horiz-adv-x="268" 
d="M194 425q0 -20 -12.5 -32.5t-32.5 -12.5h-30q-20 0 -32.5 12.5t-12.5 32.5v30q0 20 12.5 32.5t32.5 12.5h30q20 0 32.5 -12.5t12.5 -32.5v-30zM132 -106q-11 -19 -34 -19q-22 0 -16 21l33 104h-20q-21 0 -21 21v54q0 20 12.5 32.5t32.5 12.5h30q20 0 32.5 -12.5
t12.5 -32.5v-63q0 -13 -6 -23z" />
    <glyph glyph-name="less" unicode="&#x3c;" horiz-adv-x="451" 
d="M375 150q23 -23 17 -36.5t-38 -13.5h-52q-19 0 -32 13l-209 209q-14 15 -14 32.5t14 31.5l201 201q13 13 32 13h52q32 0 37.5 -13.5t-17.5 -36.5l-195 -196z" />
    <glyph glyph-name="equal" unicode="=" horiz-adv-x="572" 
d="M506 445q0 -20 -12.5 -32.5t-32.5 -12.5h-350q-20 0 -32.5 12.5t-12.5 32.5v10q0 20 12.5 32.5t32.5 12.5h350q20 0 32.5 -12.5t12.5 -32.5v-10zM506 245q0 -20 -12.5 -32.5t-32.5 -12.5h-350q-20 0 -32.5 12.5t-12.5 32.5v10q0 20 12.5 32.5t32.5 12.5h350
q20 0 32.5 -12.5t12.5 -32.5v-10z" />
    <glyph glyph-name="greater" unicode="&#x3e;" horiz-adv-x="450" 
d="M184 113q-13 -13 -32 -13h-52q-32 0 -38 13.5t17 36.5l205 204l-196 196q-23 23 -17 36.5t38 13.5h52q8 0 17 -3.5t14 -9.5l201 -201q14 -14 14 -31.5t-14 -32.5z" />
    <glyph glyph-name="question" unicode="?" horiz-adv-x="497" 
d="M292 243q-6 -19 -18.5 -31t-32.5 -12h-10q-20 0 -32.5 12.5t-9.5 32.5q5 38 23 66t54 59q11 10 21.5 18.5t19.5 16.5q28 24 43.5 50t15.5 65q0 27 -9.5 46t-25.5 31t-38 17.5t-47 5.5q-95 0 -114 -78q-5 -18 -17 -30t-32 -12h-10q-21 0 -33.5 13t-8.5 33q14 78 69 121
t146 43q44 0 84 -11.5t70 -34.5t48 -59t18 -85q0 -34 -6 -59.5t-18 -47.5t-31 -41.5t-45 -41.5q-11 -10 -20.5 -18t-17.5 -15q-28 -26 -36 -54zM296 45q0 -20 -12.5 -32.5t-32.5 -12.5h-30q-20 0 -32.5 12.5t-12.5 32.5v30q0 20 12.5 32.5t32.5 12.5h30q20 0 32.5 -12.5
t12.5 -32.5v-30z" />
    <glyph glyph-name="at" unicode="@" horiz-adv-x="951" 
d="M696 -154q-43 -24 -96.5 -40t-121.5 -16q-84 0 -148 20t-110.5 52t-78.5 73.5t-52 84.5q-47 101 -51 230q4 129 51 230q20 43 52 84.5t78.5 73.5t110.5 52t148 20q85 0 149 -20t110.5 -52t78 -73.5t51.5 -84.5q47 -101 51 -230q0 -19 -2 -40q-2 -18 -7 -40.5t-14 -45.5
q-8 -20 -20.5 -39t-30.5 -33.5t-41.5 -23t-54.5 -8.5q-38 0 -65 8.5t-46 22t-30.5 30.5t-17.5 33l-12 -16q-17 -20 -35.5 -31t-35.5 -16q-19 -6 -37 -6q-54 2 -96 24q-18 9 -35.5 24t-31 37t-22 51.5t-8.5 68.5q0 40 8.5 70t22 51.5t31 36.5t35.5 24q42 22 96 23q18 0 37 -5
q17 -5 35.5 -16t35.5 -32v21q0 21 21 21h27q20 0 32.5 -12.5t12.5 -32.5v-216q1 -23 11 -41q8 -16 26 -29t51 -13q21 0 33 23.5t18 51.5q7 33 9 75q-1 101 -37 180q-15 34 -39.5 66t-61 57.5t-86.5 41t-116 15.5q-86 0 -144.5 -26.5t-95.5 -67t-59 -86.5q-37 -79 -41 -180
q4 -101 41 -180q21 -45 58 -86.5t96.5 -67.5t144.5 -26q50 0 90.5 11.5t72.5 28.5q12 6 25 6q24 0 39 -22l5 -8q11 -17 7.5 -34t-21.5 -26zM361 250q0 -24 8 -44.5t23 -36t35 -24.5t44 -9t44 9t33.5 24.5t21 36t7.5 44.5t-7.5 44.5t-22 36t-34.5 24.5t-44 9t-44 -9
t-34 -24.5t-22 -36t-8 -44.5z" />
    <glyph glyph-name="A" unicode="A" horiz-adv-x="686" 
d="M137 30q-5 -14 -17 -22t-26 -8h-21q-24 0 -33.5 13.5t-1.5 36.5l225 620q5 14 17 22t26 8h74q14 0 26 -8t17 -22l225 -620q8 -23 -1.5 -36.5t-33.5 -13.5h-21q-14 0 -26 8t-17 22l-55 152q-35 -13 -74 -18t-77 -5t-77 5t-74 18zM226 276q27 -10 57.5 -13.5t59.5 -3.5
t59.5 3.5t57.5 13.5l-117 321z" />
    <glyph glyph-name="B" unicode="B" horiz-adv-x="605" 
d="M569 206q0 -43 -16.5 -80.5t-44.5 -65.5t-65.5 -44t-80.5 -16h-269q-20 0 -32 12.5t-12 32.5v610q0 20 12.5 32.5t32.5 12.5h263q40 0 75.5 -15.5t61.5 -41.5t41.5 -61.5t15.5 -75.5q0 -42 -16 -77.5t-44 -61.5q35 -29 56.5 -70.5t21.5 -90.5zM149 600v-206q30 18 76 18
h137q38 2 63.5 29t25.5 65q0 20 -7.5 37t-20.5 29.5t-30 20t-36 7.5h-208zM149 100h213q22 0 41.5 8.5t34 22.5t23 33.5t8.5 41.5t-8.5 41t-23 33.5t-34 23t-41.5 8.5h-137q-13 0 -26.5 -3.5t-24.5 -10.5t-18 -17.5t-7 -25.5v-155z" />
    <glyph glyph-name="C" unicode="C" horiz-adv-x="661" 
d="M625 162q-30 -85 -100.5 -128.5t-167.5 -43.5q-79 0 -140.5 26.5t-103.5 74.5t-64 114t-22 145q0 75 21 141t62 114.5t103 76.5t144 28q44 0 85.5 -10t77 -30t62.5 -50.5t42 -71.5q8 -21 -3 -34.5t-34 -13.5h-16q-15 0 -27 8.5t-19 22.5q-24 47 -69 68t-99 21
q-59 0 -102 -21t-71.5 -57.5t-42.5 -86t-14 -105.5q0 -54 13 -102.5t41 -86t71.5 -59.5t104.5 -22q60 0 102.5 24t65.5 75q7 14 18.5 22.5t26.5 8.5h17q23 0 34 -13.5t4 -34.5z" />
    <glyph glyph-name="D" unicode="D" horiz-adv-x="628" 
d="M590 270q0 -56 -21 -105t-58 -86t-85.5 -58t-104.5 -21h-236q-20 0 -32.5 12.5t-12.5 32.5v610q0 20 12.5 32.5t32.5 12.5h236q56 0 104.5 -21t85.5 -58t58 -85.5t21 -104.5v-161zM140 100h181q35 0 65.5 13.5t53.5 36.5t36.5 54t13.5 66v161q0 35 -13.5 65.5t-36.5 53.5
t-53.5 36.5t-65.5 13.5h-181v-500z" />
    <glyph glyph-name="E" unicode="E" horiz-adv-x="552" 
d="M510 45q0 -20 -12.5 -32.5t-32.5 -12.5h-380q-20 0 -32.5 12.5t-12.5 32.5v610q0 20 12.5 32.5t32.5 12.5h380q20 0 32.5 -12.5t12.5 -32.5v-10q0 -20 -12.5 -32.5t-32.5 -12.5h-325v-144q0 -20 7 -31.5t19.5 -17t29.5 -6.5t37 -1h172q20 0 32.5 -12.5t12.5 -32.5v-10
q0 -20 -12.5 -32.5t-32.5 -12.5h-159q-35 0 -61 5.5t-45 18.5v-224h325q20 0 32.5 -12.5t12.5 -32.5v-10z" />
    <glyph glyph-name="F" unicode="F" horiz-adv-x="493" 
d="M142 45q0 -20 -12.5 -32.5t-32.5 -12.5h-10q-20 0 -32.5 12.5t-12.5 32.5v610q0 20 12.5 32.5t32.5 12.5h360q20 0 32.5 -12.5t12.5 -32.5v-10q0 -20 -12.5 -32.5t-32.5 -12.5h-305v-144q0 -22 8.5 -33.5t23 -16.5t33.5 -5.5t41 -0.5h159q20 0 32.5 -12.5t12.5 -32.5v-10
q0 -20 -12.5 -32.5t-32.5 -12.5h-159q-35 0 -61 5.5t-45 18.5v-279z" />
    <glyph glyph-name="G" unicode="G" horiz-adv-x="694" 
d="M650 239q0 -63 -24.5 -109.5t-65 -77.5t-92.5 -46.5t-108 -15.5q-82 0 -144 28t-103 76.5t-62 114.5t-21 141q0 79 22 145t64 114t103.5 74.5t140.5 26.5q95 0 168.5 -39.5t107.5 -123.5q8 -20 -2.5 -33.5t-33.5 -13.5h-16q-15 0 -27 8.5t-19 22.5q-25 50 -73.5 69.5
t-104.5 19.5q-61 0 -104.5 -22t-71.5 -59.5t-41 -86t-13 -102.5q0 -56 14 -105.5t42.5 -86t71.5 -57.5t102 -21q34 0 68 8t61 25.5t44 45t17 65.5v76h-176q-20 0 -32.5 12.5t-12.5 32.5v10q0 20 12.5 32.5t32.5 12.5h231q20 0 32.5 -12.5t12.5 -32.5v-116z" />
    <glyph glyph-name="H" unicode="H" horiz-adv-x="632" 
d="M140 45q0 -20 -12.5 -32.5t-32.5 -12.5h-10q-20 0 -32.5 12.5t-12.5 32.5v610q0 20 12.5 32.5t32.5 12.5h10q20 0 32.5 -12.5t12.5 -32.5v-261q20 -8 43.5 -13t47 -7.5t45.5 -3.5t39 -1t39 1t45.5 3.5t47 7.5t43.5 13v261q0 20 12.5 32.5t32.5 12.5h10q20 0 32.5 -12.5
t12.5 -32.5v-610q0 -20 -12.5 -32.5t-32.5 -12.5h-10q-20 0 -32.5 12.5t-12.5 32.5v243q-45 -11 -92.5 -15t-82.5 -4t-82.5 4t-92.5 15v-243z" />
    <glyph glyph-name="I" unicode="I" horiz-adv-x="217" 
d="M159 45q0 -20 -12.5 -32.5t-32.5 -12.5h-10q-20 0 -32.5 12.5t-12.5 32.5v610q0 20 12.5 32.5t32.5 12.5h10q20 0 32.5 -12.5t12.5 -32.5v-610z" />
    <glyph glyph-name="J" unicode="J" horiz-adv-x="462" 
d="M420 184q0 -99 -54 -146.5t-151 -47.5q-57 0 -96 15.5t-63.5 41.5t-35 61.5t-10.5 75.5v13q0 13 13 13h74q13 0 13 -13v-13q0 -19 4.5 -38t16.5 -33.5t32.5 -23.5t51.5 -9t51.5 9t32.5 23.5t16.5 33.5t4.5 38v471q0 20 12.5 32.5t32.5 12.5h10q20 0 32.5 -12.5
t12.5 -32.5v-471z" />
    <glyph glyph-name="K" unicode="K" horiz-adv-x="584" 
d="M140 45q0 -20 -12.5 -32.5t-32.5 -12.5h-10q-20 0 -32.5 12.5t-12.5 32.5v610q0 20 12.5 32.5t32.5 12.5h10q20 0 32.5 -12.5t12.5 -32.5v-348l262 374q6 9 16 14t21 5h38q27 0 34.5 -13.5t-8.5 -36.5l-218 -310q42 7 74 -14.5t62 -74.5l116 -201q13 -23 5 -36.5
t-34 -13.5h-32q-11 0 -22 6t-17 17l-103 178q-9 16 -17 30t-17 24t-19 15.5t-23 3.5q-21 -2 -32 -19l-86 -123v-87z" />
    <glyph glyph-name="L" unicode="L" horiz-adv-x="493" 
d="M480 45q0 -20 -12.5 -32.5t-32.5 -12.5h-350q-20 0 -32.5 12.5t-12.5 32.5v610q0 20 12.5 32.5t32.5 12.5h10q20 0 32.5 -12.5t12.5 -32.5v-555h295q20 0 32.5 -12.5t12.5 -32.5v-10z" />
    <glyph glyph-name="M" unicode="M" horiz-adv-x="836" 
d="M153 45q0 -20 -12.5 -32.5t-32.5 -12.5h-10q-20 0 -32.5 12.5t-12.5 32.5v610q0 20 12.5 32.5t32.5 12.5h47q14 0 25.5 -7.5t16.5 -20.5l231 -572l231 572q5 13 16.5 20.5t25.5 7.5h47q20 0 32.5 -12.5t12.5 -32.5v-610q0 -20 -12.5 -32.5t-32.5 -12.5h-10
q-20 0 -32.5 12.5t-12.5 32.5v444l-186 -461q-5 -13 -16.5 -20.5t-25.5 -7.5h-74q-14 0 -25.5 7.5t-16.5 20.5l-186 461v-444z" />
    <glyph glyph-name="N" unicode="N" horiz-adv-x="649" 
d="M140 45q0 -20 -12.5 -32.5t-32.5 -12.5h-10q-20 0 -32.5 12.5t-12.5 32.5v610q0 20 12.5 32.5t32.5 12.5h48q25 0 38 -20l339 -523v498q0 20 12.5 32.5t32.5 12.5h10q20 0 32.5 -12.5t12.5 -32.5v-610q0 -20 -12.5 -32.5t-32.5 -12.5h-48q-11 0 -21.5 5.5t-16.5 15.5
l-339 522v-498z" />
    <glyph glyph-name="O" unicode="O" horiz-adv-x="721" 
d="M690 350q0 -79 -21.5 -145t-63.5 -114t-103.5 -74.5t-141.5 -26.5q-82 0 -144 28t-103 76.5t-62 114.5t-21 141q0 79 22 145t64 114t103.5 74.5t140.5 26.5q82 0 144 -28t103 -76.5t62 -114.5t21 -141zM130 350q0 -56 14 -105.5t42.5 -86t71.5 -57.5t102 -21
q61 0 104.5 22t71.5 59.5t41 86t13 102.5q0 56 -14 105.5t-42.5 86t-71.5 57.5t-102 21q-61 0 -104.5 -22t-71.5 -59.5t-41 -86t-13 -102.5z" />
    <glyph glyph-name="P" unicode="P" horiz-adv-x="604" 
d="M140 45q0 -20 -12.5 -32.5t-32.5 -12.5h-10q-20 0 -32.5 12.5t-12.5 32.5v610q0 20 12.5 32.5t32.5 12.5h230q53 0 92.5 -10t69 -26t49 -36.5t32.5 -42.5q29 -51 32 -115q-3 -64 -32 -115q-13 -21 -32.5 -42t-49 -37t-69 -26t-92.5 -10q-57 0 -101 10.5t-74 35.5v-241z
M140 413q0 -27 20.5 -42t49 -22t58 -8t47.5 -1q34 0 59 5.5t44 15t31.5 21t20.5 23.5q18 29 20 65q0 10 -2 22q-2 10 -7 22t-14 25q-9 12 -21.5 23t-31 19.5t-43 13.5t-56.5 5h-175v-187z" />
    <glyph glyph-name="Q" unicode="Q" horiz-adv-x="726" 
d="M667 -5q-13 -14 -31 -14t-32 14l-52 52q-43 -31 -92 -44t-102 -13q-79 0 -140.5 26.5t-103.5 74.5t-64 114t-22 145q0 75 21 141t62 114.5t103 76.5t144 28q79 0 140.5 -26.5t103.5 -74.5t64 -114t22 -145q0 -61 -15 -121t-50 -111l51 -52q15 -14 15 -32t-15 -32z
M128 350q0 -54 13 -102.5t41 -86t71.5 -59.5t104.5 -22q34 0 66 8t60 27l-105 105l70 71l102 -102q20 37 28.5 78t8.5 83q0 54 -13 102.5t-41 86t-71.5 59.5t-104.5 22q-59 0 -102 -21t-71.5 -57.5t-42.5 -86t-14 -105.5z" />
    <glyph glyph-name="R" unicode="R" horiz-adv-x="632" 
d="M140 45q0 -20 -12.5 -32.5t-32.5 -12.5h-10q-20 0 -32.5 12.5t-12.5 32.5v610q0 20 12.5 32.5t32.5 12.5h230q53 0 92.5 -10t69 -26t49 -36.5t32.5 -42.5q29 -51 32 -115q-1 -40 -14 -78q-12 -31 -38 -66t-76 -58l126 -218q13 -23 5 -36.5t-34 -13.5h-32q-26 0 -39 23
l-127 219q-11 -1 -22.5 -1.5t-23.5 -0.5q-57 0 -101 10.5t-74 35.5v-241zM140 413q0 -27 20.5 -42t48.5 -22t58 -8t48 -1q34 0 59 5.5t44 15t31.5 21t20.5 23.5q18 29 20 65q0 10 -2 22q-2 10 -7 22t-14 25q-9 12 -21.5 23t-31 19.5t-43 13.5t-56.5 5h-175v-187z" />
    <glyph glyph-name="S" unicode="S" horiz-adv-x="599" 
d="M573 190q0 -57 -24.5 -95.5t-63 -62t-86.5 -33t-96 -9.5q-51 0 -98 10.5t-84 33t-62 58t-33 84.5q-3 20 9.5 32t32.5 12h10q20 0 32.5 -12t17.5 -32q8 -29 26 -48t43 -29.5t55 -14.5t61 -4q28 0 56.5 5t51.5 17t37.5 33.5t14.5 54.5q0 28 -8 47.5t-23 32t-35 20.5t-44 14
q-19 4 -41.5 8t-48.5 8q-44 6 -85.5 19.5t-73.5 36.5t-51.5 58t-19.5 86q0 52 22.5 88.5t58.5 59t80.5 32.5t88.5 10q48 0 91.5 -9t77.5 -28.5t57 -51t30 -77.5q4 -20 -8.5 -32t-32.5 -12h-10q-20 0 -32.5 12t-18.5 31q-7 26 -23.5 41t-39 23t-48.5 10.5t-53 2.5
q-24 0 -49 -5t-45 -16.5t-33 -30.5t-13 -48q0 -25 7.5 -43t21 -30t32 -19t40.5 -12q18 -5 40.5 -8.5t48.5 -7.5q49 -7 92.5 -20t76.5 -37t52 -61.5t19 -91.5z" />
    <glyph glyph-name="T" unicode="T" horiz-adv-x="579" 
d="M340 45q0 -20 -12.5 -32.5t-32.5 -12.5h-10q-20 0 -32.5 12.5t-12.5 32.5v555h-175q-20 0 -32.5 12.5t-12.5 32.5v10q0 20 12.5 32.5t32.5 12.5h450q20 0 32.5 -12.5t12.5 -32.5v-10q0 -20 -12.5 -32.5t-32.5 -12.5h-175v-555z" />
    <glyph glyph-name="U" unicode="U" horiz-adv-x="619" 
d="M579 250q0 -64 -20 -112.5t-55.5 -81.5t-85 -49.5t-109.5 -16.5q-63 0 -113 17.5t-85 51t-53.5 82t-18.5 109.5v405q0 20 12.5 32.5t32.5 12.5h10q20 0 32.5 -12.5t12.5 -32.5v-405q0 -83 43 -126.5t127 -43.5q83 0 126.5 43.5t43.5 126.5v405q0 20 12.5 32.5t32.5 12.5
h10q20 0 32.5 -12.5t12.5 -32.5v-405z" />
    <glyph glyph-name="V" unicode="V" horiz-adv-x="658" 
d="M397 30q-5 -14 -16.5 -22t-25.5 -8h-57q-14 0 -25.5 8t-16.5 22l-226 620q-8 23 1.5 36.5t33.5 13.5h22q14 0 25.5 -8t16.5 -22l197 -542l198 542q5 14 16.5 22t25.5 8h22q24 0 33.5 -13.5t1.5 -36.5z" />
    <glyph glyph-name="W" unicode="W" horiz-adv-x="943" 
d="M342 33q-4 -15 -15.5 -24t-27.5 -9h-62q-16 0 -27.5 9t-16.5 24l-165 617q-6 23 4.5 36.5t33.5 13.5h18q15 0 27 -9t16 -24l141 -526l141 526q4 15 15.5 24t27.5 9h35q15 0 27 -9t16 -24l141 -526l141 526q4 15 15.5 24t27.5 9h17q23 0 34 -13.5t5 -36.5l-166 -617
q-4 -15 -15.5 -24t-27.5 -9h-62q-16 0 -27.5 9t-16.5 24l-127 474z" />
    <glyph glyph-name="X" unicode="X" horiz-adv-x="654" 
d="M156 20q-6 -8 -16 -13.5t-21 -5.5h-38q-28 0 -35 13.5t9 36.5l210 300l-210 300q-16 23 -9 36.5t35 13.5h38q11 0 21 -5.5t16 -13.5l170 -244l171 244q6 8 16 13.5t21 5.5h37q28 0 35 -13.5t-9 -36.5l-210 -300l210 -300q16 -23 9 -36.5t-35 -13.5h-37q-11 0 -21 5.5
t-16 13.5l-171 244z" />
    <glyph glyph-name="Y" unicode="Y" horiz-adv-x="635" 
d="M366 46q0 -20 -12.5 -32.5t-32.5 -12.5h-10q-20 0 -32.5 12.5t-12.5 32.5v289l-221 316q-16 23 -9 36.5t35 13.5h37q11 0 21 -5.5t16 -13.5l171 -244l170 244q6 8 16 13.5t21 5.5h38q27 0 34.5 -13.5t-8.5 -36.5l-221 -316v-289z" />
    <glyph glyph-name="Z" unicode="Z" horiz-adv-x="549" 
d="M521 45q0 -20 -12.5 -32.5t-32.5 -12.5h-405q-18 0 -29 11t-11 29v26q0 15 8 26l356 508h-299q-20 0 -32.5 12.5t-12.5 32.5v10q0 20 12.5 32.5t32.5 12.5h370q20 0 32.5 -12.5t12.5 -32.5v-49q0 -7 -2.5 -14t-6.5 -12l-336 -480h310q20 0 32.5 -12.5t12.5 -32.5v-10z
" />
    <glyph glyph-name="bracketleft" unicode="[" horiz-adv-x="234" 
d="M232 -155q0 -20 -12.5 -32.5t-32.5 -12.5h-110q-20 0 -32.5 12.5t-12.5 32.5v810q0 20 12.5 32.5t32.5 12.5h110q20 0 32.5 -12.5t12.5 -32.5v-10q0 -20 -12.5 -32.5t-32.5 -12.5h-55v-700h55q20 0 32.5 -12.5t12.5 -32.5v-10z" />
    <glyph glyph-name="backslash" unicode="\" horiz-adv-x="471" 
d="M465 50q14 -23 5.5 -36.5t-34.5 -13.5h-31q-26 0 -39 23l-363 627q-13 23 -5 36.5t34 13.5h32q12 0 22.5 -6t16.5 -16z" />
    <glyph glyph-name="bracketright" unicode="]" horiz-adv-x="241" 
d="M200 -155q0 -20 -12.5 -32.5t-32.5 -12.5h-110q-20 0 -32.5 12.5t-12.5 32.5v10q0 20 12.5 32.5t32.5 12.5h55v700h-55q-20 0 -32.5 12.5t-12.5 32.5v10q0 20 12.5 32.5t32.5 12.5h110q20 0 32.5 -12.5t12.5 -32.5v-810z" />
    <glyph glyph-name="asciicircum" unicode="^" horiz-adv-x="572" 
d="M214 588q-13 -13 -32 -13h-14q-15 0 -18 7t6 18l66 83q14 17 35 17h58q21 0 35 -17l66 -83q10 -11 6.5 -18t-18.5 -7h-14q-19 0 -32 13l-72 73z" />
    <glyph glyph-name="underscore" unicode="_" horiz-adv-x="556" 
d="M528 -55q0 -20 -12.5 -32.5t-32.5 -12.5h-410q-20 0 -32.5 12.5t-12.5 32.5v10q0 20 12.5 32.5t32.5 12.5h410q20 0 32.5 -12.5t12.5 -32.5v-10z" />
    <glyph glyph-name="grave" unicode="`" horiz-adv-x="281" 
d="M220 600q9 -11 5.5 -18t-18.5 -7h-14q-17 0 -31 12l-85 79q-16 16 -12.5 25t26.5 9h27q21 0 35 -17z" />
    <glyph glyph-name="a" unicode="a" horiz-adv-x="493" 
d="M347 61q-15 -26 -43 -40.5t-55 -21.5q-32 -8 -68 -9q-33 0 -62 12.5t-51 34.5t-34.5 51t-12.5 62t12.5 62t34.5 51t51 34.5t62 12.5h59q35 0 65 -9t42 -32v61q0 54 -24.5 72t-75.5 18q-38 0 -59 -10t-30 -22q-11 -14 -24.5 -26t-36.5 -12h-8q-20 0 -31.5 11.5t-6.5 28.5
q5 18 16 39t33.5 39t58 30t88.5 12q56 0 94 -13t61.5 -40t34 -68.5t10.5 -98.5v-245q0 -20 -12.5 -32.5t-32.5 -12.5h-25q-14 0 -22 8t-8 22v31zM121 150q0 -25 19 -47.5t58 -22.5q14 0 29 2q14 2 31.5 6t36.5 12q38 16 49 56q3 16 -1 30q-4 13 -13.5 20t-23 10t-29.5 3.5
t-34 0.5h-62q-32 0 -46 -22.5t-14 -47.5z" />
    <glyph glyph-name="b" unicode="b" horiz-adv-x="533" 
d="M501 250q-2 -73 -26 -130q-10 -24 -25.5 -47.5t-39 -42t-55.5 -29.5t-74 -11q-45 0 -80 17.5t-60 46.5v-27q0 -12 -7.5 -19.5t-19.5 -7.5h-28q-20 0 -32.5 12.5t-12.5 32.5v610q0 20 12.5 32.5t32.5 12.5h10q20 0 32.5 -12.5t12.5 -32.5v-209q25 29 60 46.5t80 17.5
q42 0 74 -11t55.5 -29.5t39 -42t25.5 -47.5q24 -57 26 -130zM141 197q0 -28 13.5 -48t34.5 -33t45.5 -19.5t46.5 -6.5q23 0 40.5 7t30.5 18t21.5 25.5t13.5 29.5q13 35 14 80q-1 45 -14 80q-5 15 -13.5 29.5t-21.5 25.5t-30.5 18t-40.5 7q-22 0 -46.5 -7t-45.5 -20.5
t-34.5 -33t-13.5 -45.5v-107z" />
    <glyph glyph-name="c" unicode="c" horiz-adv-x="525" 
d="M480 112q-12 -31 -32.5 -54t-48 -38t-60 -22.5t-67.5 -7.5q-58 0 -103 19t-75.5 53.5t-46 82t-15.5 105.5q0 55 15 102.5t45 82.5t75 55t105 20q35 0 67 -7t59.5 -22t48.5 -38t33 -55q8 -21 -3.5 -34.5t-34.5 -13.5h-16q-15 0 -27 9t-20 22q-17 26 -44.5 37.5t-62.5 11.5
q-39 0 -65.5 -13.5t-43 -36.5t-24 -54t-7.5 -66t7.5 -66t24 -54t43 -36.5t65.5 -13.5q34 0 62 11t45 38q8 13 20 22t27 9h16q23 0 34.5 -13.5t3.5 -34.5z" />
    <glyph glyph-name="d" unicode="d" horiz-adv-x="535" 
d="M390 54q-25 -29 -60.5 -46.5t-79.5 -17.5q-70 0 -112 28.5t-66 67.5q-19 33 -29 76t-10 88t10 88t29 76q24 39 66 67.5t112 28.5q44 0 79.5 -17.5t60.5 -46.5v209q0 20 12.5 32.5t32.5 12.5h10q20 0 32.5 -12.5t12.5 -32.5v-610q0 -20 -12.5 -32.5t-32.5 -12.5h-28
q-12 0 -19.5 7.5t-7.5 19.5v27zM130 250q1 -45 14 -80q5 -15 13.5 -29.5t21.5 -25.5t30.5 -18t40.5 -7q22 0 46.5 6.5t45.5 19.5t34.5 33t13.5 48v107q0 26 -13.5 45.5t-34.5 33t-45.5 20.5t-46.5 7q-23 0 -40.5 -7t-30.5 -18t-21.5 -25.5t-13.5 -29.5q-13 -35 -14 -80z" />
    <glyph glyph-name="e" unicode="e" horiz-adv-x="521" 
d="M468 94q-23 -45 -73.5 -74.5t-122.5 -29.5q-60 0 -105 19.5t-75 54t-45 82.5t-15 104q0 53 13.5 100t41.5 82.5t71.5 56.5t103.5 21q49 0 86.5 -14t65 -38.5t45 -58.5t25.5 -73q10 -50 4 -105l-1 -5q0 -6 -6 -6h-241q-49 0 -70 12.5t-28 33.5v-56q0 -7 3.5 -27
t16.5 -40.5t39 -36.5t71 -16q24 0 50 6.5t45 28.5q8 10 19.5 17.5t25.5 7.5h20q23 0 34.5 -13t1.5 -33zM176 294q13 -3 29.5 -3.5t34.5 -0.5h142v10q0 11 -3.5 31.5t-15.5 40t-36 34t-65 14.5q-28 0 -47.5 -7t-33 -17.5t-21.5 -24t-12 -27.5q-5 -16 3 -31t25 -19z" />
    <glyph glyph-name="f" unicode="f" horiz-adv-x="344" 
d="M208 45q0 -20 -12.5 -32.5t-32.5 -12.5h-10q-20 0 -32.5 12.5t-12.5 32.5v365h-46q-20 0 -32.5 12.5t-12.5 32.5t12.5 32.5t32.5 12.5h46v44q0 32 12.5 60.5t33.5 49.5t49.5 33.5t60.5 12.5h31q14 0 23 -9t9 -23v-29q0 -13 -7.5 -21t-21.5 -8h-28q-26 0 -44 -18t-18 -44
v-48h74q20 0 32.5 -12.5t12.5 -32.5t-12.5 -32.5t-32.5 -12.5h-74v-365z" />
    <glyph glyph-name="g" unicode="g" horiz-adv-x="547" 
d="M491 -28q-4 -25 -16.5 -56.5t-38 -59.5t-66.5 -47t-104 -19q-42 0 -73.5 7.5t-53.5 20.5t-36 30t-22 36q-10 20 1 33t34 13h18q14 0 25.5 -8t20.5 -17q11 -11 31 -18t55 -7q25 0 43.5 6t32.5 15.5t23.5 21.5t15.5 25q14 30 15 68v38q-25 -29 -60.5 -46.5t-79.5 -17.5
q-56 0 -94 19.5t-62 48.5t-38 62q-24 57 -26 130q2 73 26 130q14 33 37.5 63t62.5 48.5t94 18.5q44 0 79.5 -17.5t60.5 -46.5v27q0 12 7.5 19.5t19.5 7.5h28q20 0 32.5 -12.5t12.5 -32.5v-394q0 -20 -0.5 -44.5t-4.5 -44.5zM136 250q1 -45 14 -80q5 -15 13.5 -29.5
t21.5 -25.5t30.5 -18t40.5 -7q22 0 46.5 7t45.5 20.5t34.5 33.5t13.5 46v107q0 27 -13.5 47t-34.5 33t-45.5 19.5t-46.5 6.5q-23 0 -40.5 -7t-30.5 -18t-21.5 -25.5t-13.5 -29.5q-13 -35 -14 -80z" />
    <glyph glyph-name="h" unicode="h" horiz-adv-x="508" 
d="M139 36q0 -15 -10.5 -25.5t-24.5 -10.5h-29q-15 0 -25.5 10.5t-10.5 25.5v629q0 15 10.5 25t25.5 10h29q14 0 24.5 -10t10.5 -25v-219q28 32 68 48t82 16q51 0 85 -24.5t55 -62.5t30 -84t10 -89v-214q0 -15 -10.5 -25.5t-24.5 -10.5h-29q-15 0 -25.5 10.5t-10.5 25.5v214
q-1 23 -4 43t-10 37q-2 8 -5.5 15l-7.5 15q-9 15 -22 25q-15 14 -33 19.5t-38 5.5q-24 0 -42 -7q-33 -10 -50.5 -37.5t-17.5 -61.5v-268z" />
    <glyph glyph-name="i" unicode="i" horiz-adv-x="184" 
d="M142 645q0 -20 -12.5 -32.5t-32.5 -12.5h-10q-20 0 -32.5 12.5t-12.5 32.5v10q0 20 12.5 32.5t32.5 12.5h10q20 0 32.5 -12.5t12.5 -32.5v-10zM142 45q0 -20 -12.5 -32.5t-32.5 -12.5h-10q-20 0 -32.5 12.5t-12.5 32.5v410q0 20 12.5 32.5t32.5 12.5h10q20 0 32.5 -12.5
t12.5 -32.5v-410z" />
    <glyph glyph-name="j" unicode="j" horiz-adv-x="224" 
d="M179 645q0 -20 -12.5 -32.5t-32.5 -12.5h-10q-20 0 -32.5 12.5t-12.5 32.5v10q0 20 12.5 32.5t32.5 12.5h10q20 0 32.5 -12.5t12.5 -32.5v-10zM179 -44q0 -32 -12.5 -60.5t-33.5 -49.5t-49.5 -33.5t-60.5 -12.5h-31q-14 0 -23 9t-9 23v29q0 29 29 29h28q26 0 44 18t18 44
v503q0 20 12.5 32.5t32.5 12.5h10q20 0 32.5 -12.5t12.5 -32.5v-499z" />
    <glyph glyph-name="k" unicode="k" horiz-adv-x="503" 
d="M140 45q0 -20 -12.5 -32.5t-32.5 -12.5h-10q-20 0 -32.5 12.5t-12.5 32.5v610q0 20 12.5 32.5t32.5 12.5h10q20 0 32.5 -12.5t12.5 -32.5v-382l177 211q6 8 15.5 12t18.5 4h45q29 0 35.5 -13.5t-12.5 -36.5l-163 -194q29 -2 54.5 -22t51.5 -58l89 -126q16 -23 8.5 -36.5
t-34.5 -13.5h-38q-11 0 -21 5.5t-16 13.5l-70 100q-11 16 -21.5 30t-21.5 24q-10 9 -25 9q-18 0 -30 -14l-42 -50v-73z" />
    <glyph glyph-name="l" unicode="l" horiz-adv-x="205" 
d="M153 45q0 -20 -12.5 -32.5t-32.5 -12.5h-10q-20 0 -32.5 12.5t-12.5 32.5v610q0 20 12.5 32.5t32.5 12.5h10q20 0 32.5 -12.5t12.5 -32.5v-610z" />
    <glyph glyph-name="m" unicode="m" horiz-adv-x="787" 
d="M144 45q0 -20 -12.5 -32.5t-32.5 -12.5h-10q-20 0 -32.5 12.5t-12.5 32.5v410q0 20 12.5 32.5t32.5 12.5h28q13 0 20 -7.5t7 -19.5v-27q26 29 56 46.5t74 17.5q29 0 51 -8.5t39.5 -23.5t29.5 -34t21 -40q19 43 53.5 70.5t81.5 33.5q6 1 10.5 1.5t7.5 0.5h6q33 0 57.5 -11
t42.5 -29.5t30 -42t20 -47.5q18 -57 20 -130v-205q0 -20 -12.5 -32.5t-32.5 -12.5h-10q-20 0 -32.5 12.5t-12.5 32.5v205q0 45 -11 80q-5 15 -13 29.5t-20 25.5t-28 18t-38 7q-44 0 -67 -27t-23 -80v-258q0 -20 -12.5 -32.5t-32.5 -12.5h-10q-20 0 -32.5 12.5t-12.5 32.5
v205q0 45 -11 80q-5 15 -13 29.5t-20 25.5t-28 18t-38 7q-44 0 -67 -27t-23 -80v-258z" />
    <glyph glyph-name="n" unicode="n" horiz-adv-x="513" 
d="M140 45q0 -20 -12.5 -32.5t-32.5 -12.5h-10q-20 0 -32.5 12.5t-12.5 32.5v410q0 20 12.5 32.5t32.5 12.5h28q12 0 19.5 -7.5t7.5 -19.5v-27q26 29 71 46.5t89 17.5q33 0 57.5 -11t42.5 -29.5t30 -42t20 -47.5q18 -57 20 -130v-205q0 -20 -12.5 -32.5t-32.5 -12.5h-10
q-20 0 -32.5 12.5t-12.5 32.5v205q0 45 -12 80q-5 15 -12.5 29.5t-19.5 25.5t-28 18t-38 7t-43.5 -7t-38.5 -20.5t-27.5 -33t-10.5 -45.5v-259z" />
    <glyph glyph-name="o" unicode="o" horiz-adv-x="546" 
d="M513 250q0 -58 -15.5 -105.5t-46 -82t-75.5 -53.5t-103 -19q-60 0 -105 20t-75 55t-45 82.5t-15 102.5q0 58 16 105.5t46.5 82t75 53.5t102.5 19q60 0 105 -20t75 -55t45 -82.5t15 -102.5zM133 250q0 -35 7.5 -66t24 -54t43 -36.5t65.5 -13.5t66 13.5t43.5 36.5t23.5 54
t7 66t-7 66t-23.5 54t-43.5 36.5t-66 13.5t-65.5 -13.5t-43 -36.5t-24 -54t-7.5 -66z" />
    <glyph glyph-name="p" unicode="p" horiz-adv-x="538" 
d="M140 -155q0 -20 -12.5 -32.5t-32.5 -12.5h-10q-20 0 -32.5 12.5t-12.5 32.5v610q0 20 12.5 32.5t32.5 12.5h28q12 0 19.5 -7.5t7.5 -19.5v-27q25 29 60.5 46.5t79.5 17.5q42 0 74 -11t55.5 -29.5t39 -42t25.5 -47.5q24 -57 26 -130q-2 -73 -26 -130q-10 -24 -25.5 -47.5
t-39 -42t-55.5 -29.5t-74 -11q-44 0 -79.5 17.5t-60.5 46.5v-209zM140 197q0 -26 13.5 -46t34.5 -33.5t45.5 -20.5t46.5 -7q23 0 40.5 7t30.5 18t21.5 25.5t13.5 29.5q13 35 14 80q-1 45 -14 80q-5 15 -13.5 29.5t-21.5 25.5t-30.5 18t-40.5 7q-22 0 -46.5 -6.5t-45.5 -19.5
t-34.5 -33t-13.5 -47v-107z" />
    <glyph glyph-name="q" unicode="q" horiz-adv-x="553" 
d="M496 -155q0 -20 -12.5 -32.5t-32.5 -12.5h-10q-20 0 -32.5 12.5t-12.5 32.5v209q-25 -29 -60.5 -46.5t-79.5 -17.5q-56 0 -94 19.5t-62 48.5t-38 62q-24 57 -26 130q2 73 26 130q14 33 37.5 63t62.5 48.5t94 18.5q44 0 79.5 -17.5t60.5 -46.5v27q0 12 7.5 19.5t19.5 7.5
h28q20 0 32.5 -12.5t12.5 -32.5v-610zM136 250q1 -45 14 -80q5 -15 13.5 -29.5t21.5 -25.5t30.5 -18t40.5 -7q22 0 46.5 7t45.5 20.5t34.5 33.5t13.5 46v107q0 27 -13.5 47t-34.5 33t-45.5 19.5t-46.5 6.5q-23 0 -40.5 -7t-30.5 -18t-21.5 -25.5t-13.5 -29.5
q-13 -35 -14 -80z" />
    <glyph glyph-name="r" unicode="r" horiz-adv-x="352" 
d="M140 45q0 -20 -12.5 -32.5t-32.5 -12.5h-10q-20 0 -32.5 12.5t-12.5 32.5v410q0 20 12.5 32.5t32.5 12.5h28q12 0 19.5 -7.5t7.5 -19.5v-27q25 29 60 41.5t80 12.5h25q11 0 17.5 -7t6.5 -18v-50q0 -11 -6.5 -18t-17.5 -7h-25q-22 0 -46.5 -4.5t-45.5 -16t-34.5 -30
t-13.5 -45.5v-259z" />
    <glyph glyph-name="s" unicode="s" horiz-adv-x="471" 
d="M435 140q0 -42 -17.5 -70.5t-46 -46t-64 -25.5t-72.5 -8t-69.5 7t-58 22t-43 39t-24.5 58q-5 20 7.5 32t32.5 12h10q20 0 33 -11.5t21 -28.5q12 -23 36.5 -31.5t54.5 -8.5q16 0 33.5 2t32.5 8t24.5 18t9.5 32q0 33 -19 46t-49 20l-62 14q-31 6 -60 16t-51 27.5
t-35.5 43.5t-13.5 63q0 39 17 66t44 43.5t61 23.5t68 7q30 0 60 -5.5t55 -18.5t43.5 -33t26.5 -49q5 -20 -7.5 -32t-32.5 -12h-10q-20 0 -32.5 11t-23.5 24q-13 15 -35 20t-44 5q-13 0 -29 -1t-29.5 -6t-22.5 -15t-9 -28q0 -17 6.5 -28t17 -18.5t24.5 -12t28 -7.5
q14 -4 29.5 -7t34.5 -7q33 -6 61 -16.5t47.5 -28t30.5 -43t11 -62.5z" />
    <glyph glyph-name="t" unicode="t" horiz-adv-x="379" 
d="M341 37q0 -17 -10 -27t-26 -10h-37q-32 0 -60.5 12.5t-49.5 33.5t-33.5 49.5t-12.5 60.5v244h-47q-20 0 -32.5 12.5t-12.5 32.5v10q0 20 12.5 32.5t32.5 12.5h47v65q0 20 12.5 32.5t32.5 12.5h10q20 0 32.5 -12.5t12.5 -32.5v-65h83q20 0 32.5 -12.5t12.5 -32.5v-10
q0 -20 -12.5 -32.5t-32.5 -12.5h-83v-248q0 -26 18 -44t44 -18h33q34 0 34 -34v-19z" />
    <glyph glyph-name="u" unicode="u" horiz-adv-x="508" 
d="M359 54q-25 -29 -65 -46.5t-85 -17.5q-35 0 -61 11t-45.5 29.5t-32.5 42t-21 47.5q-19 57 -20 130v205q0 20 12.5 32.5t32.5 12.5h10q20 0 32.5 -12.5t12.5 -32.5v-205q0 -45 12 -80q10 -30 32.5 -55t65.5 -25q22 0 43.5 7t38.5 20.5t27.5 33.5t10.5 46v258
q0 20 12.5 32.5t32.5 12.5h10q20 0 32.5 -12.5t12.5 -32.5v-410q0 -20 -12.5 -32.5t-32.5 -12.5h-28q-12 0 -19.5 7.5t-7.5 19.5v27z" />
    <glyph glyph-name="v" unicode="v" horiz-adv-x="526" 
d="M333 30q-5 -14 -16.5 -22t-25.5 -8h-60q-14 0 -25.5 8t-16.5 22l-153 420q-8 23 1.5 36.5t33.5 13.5h22q14 0 25.5 -8t16.5 -22l126 -346l126 346q5 14 16.5 22t25.5 8h22q24 0 33.5 -13.5t1.5 -36.5z" />
    <glyph glyph-name="w" unicode="w" horiz-adv-x="771" 
d="M302 33q-5 -15 -16.5 -24t-27.5 -9h-68q-15 0 -27 9t-16 24l-112 417q-6 23 4.5 36.5t34.5 13.5h17q15 0 27 -9t16 -24l90 -336l90 336q5 15 16.5 24t27.5 9h52q15 0 27 -9t16 -24l90 -336l90 336q5 15 16.5 24t27.5 9h17q23 0 33.5 -13.5t4.5 -36.5l-111 -417
q-5 -15 -16.5 -24t-27.5 -9h-68q-15 0 -27 9t-16 24l-82 307z" />
    <glyph glyph-name="x" unicode="x" horiz-adv-x="513" 
d="M152 19q-6 -8 -16 -13.5t-21 -5.5h-37q-28 0 -35 13.5t9 36.5l140 200l-140 200q-16 23 -9 36.5t35 13.5h37q11 0 21 -5.5t16 -13.5l101 -144l100 144q6 8 16 13.5t21 5.5h38q28 0 35 -13.5t-9 -36.5l-140 -200l140 -200q16 -23 9 -36.5t-35 -13.5h-38q-11 0 -21 5.5
t-16 13.5l-100 144z" />
    <glyph glyph-name="y" unicode="y" horiz-adv-x="533" 
d="M301 -77q-10 -28 -27.5 -50.5t-41 -38.5t-50.5 -25t-57 -9h-24q-11 0 -18 6.5t-7 17.5v53q0 11 6.5 17t16.5 6h23q29 0 52.5 16.5t33.5 43.5l-178 490q-8 23 1.5 36.5t33.5 13.5h21q14 0 26 -8t17 -22l132 -364l133 364q5 14 16.5 22t25.5 8h22q24 0 33.5 -13.5
t1.5 -36.5z" />
    <glyph glyph-name="z" unicode="z" horiz-adv-x="463" 
d="M429 45q0 -20 -12.5 -32.5t-32.5 -12.5h-319q-20 0 -32.5 12.5t-12.5 32.5v38q0 16 12 30l258 287h-205q-20 0 -32.5 12.5t-12.5 32.5v10q0 20 12.5 32.5t32.5 12.5h299q20 0 32.5 -12.5t12.5 -32.5v-33q0 -18 -12 -30l-262 -292h229q20 0 32.5 -12.5t12.5 -32.5v-10z
" />
    <glyph glyph-name="braceleft" unicode="{" horiz-adv-x="302" 
d="M301 -155q0 -20 -12 -32.5t-32 -7.5q-33 7 -61.5 25.5t-49.5 44t-33 57.5t-12 68v120q0 23 -11 41t-29 29q-17 9 -28.5 22t-11.5 33v10q0 20 11.5 33t28.5 22q18 11 29 29t11 41v120q0 36 12 68t33 57.5t49.5 44t61.5 25.5q20 5 32 -7.5t12 -32.5v-10q0 -20 -12 -33
t-29 -21q-26 -11 -42.5 -35.5t-16.5 -55.5v-120q0 -38 -14.5 -71.5t-40.5 -58.5q26 -25 40.5 -58.5t14.5 -71.5v-120q0 -31 16.5 -55.5t42.5 -35.5q17 -8 29 -21t12 -33v-10z" />
    <glyph glyph-name="bar" unicode="|" horiz-adv-x="276" 
d="M188 -155q0 -20 -12.5 -32.5t-32.5 -12.5h-10q-20 0 -32.5 12.5t-12.5 32.5v810q0 20 12.5 32.5t32.5 12.5h10q20 0 32.5 -12.5t12.5 -32.5v-810z" />
    <glyph glyph-name="braceright" unicode="}" horiz-adv-x="304" 
d="M44 -195q-20 -5 -32 7.5t-12 32.5v10q0 20 12 33t29 21q26 11 42.5 35.5t16.5 55.5v120q0 38 15 71.5t41 58.5q-26 25 -41 58.5t-15 71.5v120q0 31 -16.5 55.5t-42.5 35.5q-17 8 -29 21t-12 33v10q0 20 12 32.5t32 7.5q33 -7 61.5 -25.5t49.5 -44t33 -57.5t12 -68v-120
q0 -23 11 -41t30 -29q16 -9 27.5 -22t11.5 -33v-10q0 -20 -11.5 -33t-27.5 -22q-19 -11 -30 -29t-11 -41v-120q0 -36 -12 -68t-33 -57.5t-49.5 -44t-61.5 -25.5z" />
    <glyph glyph-name="asciitilde" unicode="~" horiz-adv-x="811" 
d="M761 358q-19 -24 -42.5 -45t-50.5 -37t-56 -25.5t-59 -9.5q-50 0 -92 22.5t-76 56.5l-4 4q-64 65 -129 57q-21 -2 -40.5 -11t-36 -21t-30.5 -25t-24 -25q-14 -17 -32 -17q-10 0 -22 7q-14 9 -17.5 23t7.5 27q12 15 30.5 34t42.5 36t52.5 30t61.5 17q48 5 94 -13
q50 -19 96 -66l4 -4q63 -63 128 -57q36 5 71 29t60 54q14 17 33 17q9 0 21 -7q14 -9 17.5 -23t-7.5 -28z" />
    <glyph glyph-name="exclamdown" unicode="&#xa1;" horiz-adv-x="228" 
d="M174 425q0 -20 -12.5 -32.5t-32.5 -12.5h-30q-20 0 -32.5 12.5t-12.5 32.5v30q0 20 12.5 32.5t32.5 12.5h30q20 0 32.5 -12.5t12.5 -32.5v-30zM164 -155q0 -20 -12.5 -32.5t-32.5 -12.5h-10q-20 0 -32.5 12.5t-12.5 32.5v410q0 20 12.5 32.5t32.5 12.5h10
q20 0 32.5 -12.5t12.5 -32.5v-410z" />
    <glyph glyph-name="cent" unicode="&#xa2;" horiz-adv-x="525" 
d="M313 -155q0 -20 -12.5 -32.5t-32.5 -12.5h-10q-20 0 -32.5 12.5t-12.5 32.5v151q-88 18 -134.5 86t-46.5 168q0 48 11.5 90.5t34 75.5t56.5 56t79 32v151q0 20 12.5 32.5t32.5 12.5h10q20 0 32.5 -12.5t12.5 -32.5v-148q57 -8 102 -36.5t65 -82.5q8 -21 -3.5 -34.5
t-34.5 -13.5h-16q-15 0 -27 9t-20 22q-11 18 -28 29t-38 16v-332q20 5 37 15.5t29 29.5q8 13 20 22t27 9h16q23 0 34.5 -13.5t3.5 -34.5q-20 -53 -65 -82t-102 -37v-148zM132 250q0 -55 18 -98t63 -62v320q-45 -19 -63 -62t-18 -98z" />
    <glyph glyph-name="sterling" unicode="&#xa3;" horiz-adv-x="589" 
d="M560 45q0 -20 -12.5 -32.5t-32.5 -12.5h-440q-20 0 -32.5 12.5t-12.5 32.5v10q0 20 12 33t29 22q22 11 35.5 32.5t13.5 47.5v80h-45q-20 0 -32.5 12.5t-12.5 32.5v10q0 20 12.5 32.5t32.5 12.5h45v120q0 103 54.5 161.5t155.5 58.5q93 0 140.5 -44t57.5 -121
q2 -20 -10.5 -32.5t-32.5 -12.5h-10q-20 0 -32 12.5t-16 32.5q-5 36 -26.5 55.5t-70.5 19.5q-62 0 -86 -36.5t-24 -93.5v-120h165q20 0 32.5 -12.5t12.5 -32.5v-10q0 -20 -12.5 -32.5t-32.5 -12.5h-165v-75q0 -23 -5 -38t-14 -25.5t-21 -17.5t-27 -14h362q20 0 32.5 -12.5
t12.5 -32.5v-10z" />
    <glyph glyph-name="currency" unicode="&#xa4;" horiz-adv-x="612" 
d="M550 99q-14 -14 -32 -14q-16 0 -32 14l-34 34q-32 -23 -69.5 -33t-76.5 -10t-76.5 10t-69.5 33l-34 -34q-14 -14 -32 -14q-16 0 -32 14l-7 7q-14 14 -14 32t14 32l41 40q-17 33 -23.5 68.5t-6.5 71.5t6.5 71.5t23.5 68.5l-41 40q-14 14 -14 32t14 32l7 7q14 14 32 14
q19 0 32 -14l34 -34q32 23 69.5 33t76.5 10t76.5 -10t69.5 -33l34 34q14 14 32 14q19 0 32 -14l7 -7q14 -14 14 -32t-14 -32l-41 -40q17 -33 23.5 -68.5t6.5 -71.5t-6.5 -71.5t-23.5 -68.5l41 -40q14 -14 14 -32t-14 -32zM166 350q0 -35 7.5 -66t24 -54t43 -36.5t65.5 -13.5
t66 13.5t43.5 36.5t23.5 54t7 66t-7 66t-23.5 54t-43.5 36.5t-66 13.5t-65.5 -13.5t-43 -36.5t-24 -54t-7.5 -66z" />
    <glyph glyph-name="yen" unicode="&#xa5;" horiz-adv-x="647" 
d="M375 40q0 -18 -11 -29t-29 -11h-20q-18 0 -29 11t-11 29v40h-105q-20 0 -32.5 12.5t-12.5 32.5v10q0 20 12.5 32.5t32.5 12.5h105v100h-105q-20 0 -32.5 12.5t-12.5 32.5v10q0 20 12.5 32.5t32.5 12.5h73l-189 270q-16 23 -9 36.5t35 13.5h38q11 0 20.5 -5.5t15.5 -13.5
l171 -244l171 244q6 8 15.5 13.5t20.5 5.5h38q28 0 35 -13.5t-9 -36.5l-189 -270h73q20 0 32.5 -12.5t12.5 -32.5v-10q0 -20 -12.5 -32.5t-32.5 -12.5h-105v-100h105q20 0 32.5 -12.5t12.5 -32.5v-10q0 -20 -12.5 -32.5t-32.5 -12.5h-105v-40z" />
    <glyph glyph-name="brokenbar" unicode="&#xa6;" horiz-adv-x="270" 
d="M185 445q0 -20 -12.5 -32.5t-32.5 -12.5h-10q-20 0 -32.5 12.5t-12.5 32.5v210q0 20 12.5 32.5t32.5 12.5h10q20 0 32.5 -12.5t12.5 -32.5v-210zM185 -155q0 -20 -12.5 -32.5t-32.5 -12.5h-10q-20 0 -32.5 12.5t-12.5 32.5v210q0 20 12.5 32.5t32.5 12.5h10
q20 0 32.5 -12.5t12.5 -32.5v-210z" />
    <glyph glyph-name="section" unicode="&#xa7;" horiz-adv-x="609" 
d="M576 -10q0 -56 -24 -94.5t-62 -62t-86.5 -33.5t-97.5 -10t-95.5 10t-84 32t-63.5 57.5t-34 85.5q-3 20 9.5 32.5t32.5 12.5h10q20 0 32.5 -12t17.5 -32q8 -29 26 -48t43 -29.5t55 -14.5t61 -4q27 0 55.5 4.5t51.5 16.5t38 33.5t15 55.5q0 27 -8 46t-22 32t-34.5 21.5
t-45.5 14.5q-20 4 -42 8t-48 8q-44 6 -85.5 19.5t-73.5 36.5t-51.5 58t-19.5 86q0 26 7.5 51t21.5 46q-29 41 -29 103q0 51 22 87t57.5 59t80.5 33.5t90 10.5q46 0 88.5 -8t77 -27.5t58.5 -51t32 -78.5q3 -20 -9 -32.5t-32 -12.5h-10q-20 0 -33 12t-18 31q-7 25 -23 40
t-38 23.5t-48 11t-55 2.5q-24 0 -49 -5t-45.5 -16.5t-33 -30.5t-12.5 -48q0 -25 7 -42.5t20 -29.5t32 -19.5t42 -12.5q18 -5 40 -8.5t49 -7.5q46 -7 89.5 -19.5t77 -36.5t53.5 -61t20 -93q0 -26 -6 -50.5t-20 -46.5q14 -24 20 -49.5t6 -53.5zM336 200q34 -5 69 -13.5
t67 -24.5q2 7 3 13.5t1 14.5q0 27 -8 46t-22 32t-34.5 21.5t-45.5 14.5q-20 4 -42 8t-48 8q-71 10 -124 36q-6 -16 -6 -36q0 -25 7 -42.5t20 -29.5t32 -19.5t42 -12.5q18 -5 40 -8.5t49 -7.5z" />
    <glyph glyph-name="dieresis" unicode="&#xa8;" 
d="M163 645q0 -20 -12.5 -32.5t-32.5 -12.5h-10q-20 0 -32.5 12.5t-12.5 32.5v10q0 20 12.5 32.5t32.5 12.5h10q20 0 32.5 -12.5t12.5 -32.5v-10zM343 645q0 -20 -12.5 -32.5t-32.5 -12.5h-10q-20 0 -32.5 12.5t-12.5 32.5v10q0 20 12.5 32.5t32.5 12.5h10q20 0 32.5 -12.5
t12.5 -32.5v-10z" />
    <glyph glyph-name="copyright" unicode="&#xa9;" horiz-adv-x="813" 
d="M769 350q0 -74 -28 -139.5t-76.5 -114.5t-114.5 -77.5t-141 -28.5t-140.5 28t-114 76.5t-77 114t-28.5 141.5q0 74 28 139.5t76.5 114.5t114 77.5t141.5 28.5q74 0 139.5 -28t114.5 -76.5t77.5 -114t28.5 -141.5zM129 350q0 -60 20.5 -111t58 -88.5t89 -59t112.5 -21.5
q59 0 110.5 21t89 58.5t59 88.5t21.5 112q0 59 -21 110t-58.5 89t-89 59.5t-111.5 21.5q-59 0 -110.5 -21t-89 -58.5t-59 -88.5t-21.5 -112zM582 251q-17 -57 -61.5 -84t-111.5 -27q-98 0 -144 56.5t-46 153.5q0 46 10.5 84.5t33 66.5t59 43.5t87.5 15.5q64 0 110 -25.5
t63 -85.5q5 -17 -5 -28t-28 -11h-2q-17 0 -29 10.5t-19 25.5q-11 25 -33 34.5t-57 9.5q-32 0 -53.5 -11t-34 -29.5t-17.5 -44t-5 -55.5q0 -28 4.5 -53t17 -44.5t34 -31t54.5 -11.5q34 0 56 9t34 35q7 15 19 25.5t29 10.5h2q18 0 28 -11t5 -28z" />
    <glyph glyph-name="ordfeminine" unicode="&#xaa;" horiz-adv-x="414" 
d="M298 380q-16 -20 -33.5 -29.5t-32.5 -14.5q-17 -6 -34 -6q-48 2 -85 22q-16 9 -31 22.5t-27 34t-19.5 48t-7.5 63.5q0 37 7.5 64.5t19.5 48t27 34t31 22.5q37 20 85 21q17 0 34 -5q15 -5 32.5 -14.5t33.5 -29.5v20q0 19 19 19h24q20 0 31.5 -11.5t11.5 -31.5v-274
q0 -20 -11.5 -31.5t-31.5 -11.5h-23q-20 0 -20 20v20zM98 520q0 -22 7.5 -41t20.5 -33.5t32 -23t41 -8.5q23 0 41 8.5t31 23t20 33.5t7 41t-7 41.5t-20.5 33.5t-31.5 22.5t-41 8.5q-46 0 -73 -30.5t-27 -75.5z" />
    <glyph glyph-name="guillemotleft" unicode="&#xab;" horiz-adv-x="747" 
d="M375 50q23 -23 17 -36.5t-38 -13.5h-52q-19 0 -32 13l-209 209q-14 14 -14 32t14 32l201 201q6 5 15 9t17 4h52q32 0 37.5 -13.5t-17.5 -36.5l-195 -196zM661 50q23 -23 17 -36.5t-38 -13.5h-52q-19 0 -32 13l-209 209q-14 14 -14 32t14 32l201 201q6 5 14.5 9t16.5 4h53
q32 0 37.5 -13.5t-17.5 -36.5l-195 -196z" />
    <glyph glyph-name="logicalnot" unicode="&#xac;" horiz-adv-x="572" 
d="M481 125q0 -20 -12.5 -32.5t-32.5 -12.5h-10q-20 0 -32.5 12.5t-12.5 32.5v80h-245q-20 0 -32.5 12.5t-12.5 32.5v10q0 20 12.5 32.5t32.5 12.5h300q20 0 32.5 -12.5t12.5 -32.5v-135z" />
    <glyph glyph-name="registered" unicode="&#xae;" horiz-adv-x="821" 
d="M770 350q0 -74 -28 -139.5t-76.5 -114.5t-114.5 -77.5t-141 -28.5t-140.5 28t-114 76.5t-77 114t-28.5 141.5q0 75 28 140.5t76.5 114t114 77t141.5 28.5q74 0 139.5 -28t114.5 -76.5t77.5 -114t28.5 -141.5zM130 350q0 -60 20.5 -111t58 -88.5t89 -59t112.5 -21.5
q59 0 110.5 21t89 58.5t59 88.5t21.5 112q0 59 -21 110t-58.5 89t-89 59.5t-111.5 21.5q-59 0 -110.5 -21t-89 -58.5t-59 -88.5t-21.5 -112zM570 189q10 -18 4 -28.5t-26 -10.5h-19q-26 0 -39 23l-55 95l-21 -1q-57 0 -90 18v-96q0 -18 -10.5 -28.5t-27.5 -10.5
q-18 0 -28.5 10.5t-10.5 28.5v316q0 20 12.5 32.5t32.5 12.5h122q32 0 62.5 -8.5t54 -26t37.5 -44t13 -62.5q0 -37 -18.5 -69.5t-50.5 -50.5zM324 376q0 -12 11 -18.5t26 -9.5t30 -3.5t23 -0.5q51 0 73 24q7 7 10 14t5 13q2 7 2 13q0 18 -8.5 30.5t-21.5 20t-29 11t-31 3.5
h-90v-97z" />
    <glyph glyph-name="macron" unicode="&#xaf;" 
d="M390 646q0 -20 -12.5 -32.5t-32.5 -12.5h-280q-20 0 -32.5 12.5t-12.5 32.5v10q0 20 12.5 32.5t32.5 12.5h280q20 0 32.5 -12.5t12.5 -32.5v-10z" />
    <glyph glyph-name="degree" unicode="&#xb0;" horiz-adv-x="428" 
d="M424 500q0 -45 -16 -83.5t-44.5 -66.5t-67 -44t-82.5 -16q-45 0 -83.5 16t-66.5 44.5t-44 67t-16 82.5q0 45 16 83.5t44.5 66.5t67 44t82.5 16q45 0 83.5 -16t66.5 -44.5t44 -67t16 -82.5zM94 500q0 -56 31 -93t89 -37t89 37t31 93t-31 93t-89 37t-89 -37t-31 -93z" />
    <glyph glyph-name="plusminus" unicode="&#xb1;" horiz-adv-x="572" 
d="M336 245q0 -20 -12.5 -32.5t-32.5 -12.5h-10q-20 0 -32.5 12.5t-12.5 32.5v155h-155q-20 0 -32.5 12.5t-12.5 32.5v10q0 20 12.5 32.5t32.5 12.5h155v155q0 20 12.5 32.5t32.5 12.5h10q20 0 32.5 -12.5t12.5 -32.5v-155h155q20 0 32.5 -12.5t12.5 -32.5v-10
q0 -20 -12.5 -32.5t-32.5 -12.5h-155v-155zM536 45q0 -20 -12.5 -32.5t-32.5 -12.5h-410q-20 0 -32.5 12.5t-12.5 32.5v10q0 20 12.5 32.5t32.5 12.5h410q20 0 32.5 -12.5t12.5 -32.5v-10z" />
    <glyph glyph-name="twosuperior" unicode="&#xb2;" horiz-adv-x="350" 
d="M310 380q0 -18 -11 -29t-29 -11h-189q-18 0 -29.5 11.5t-11.5 29.5v29q0 12 10 20l90 60q14 10 30.5 23t27.5 27q8 11 10 23.5t2 26.5q0 40 -40 40q-23 0 -32 -14q-8 -10 -17 -18t-23 -8h-13q-20 0 -32.5 12t-6.5 31q11 40 43.5 58.5t80.5 18.5q60 0 95 -29t35 -91
q0 -46 -17.5 -75t-52.5 -55l-40 -30v-10h80q18 0 29 -11t11 -29z" />
    <glyph glyph-name="threesuperior" unicode="&#xb3;" horiz-adv-x="350" 
d="M315 460q0 -31 -11 -55t-30 -40.5t-44.5 -25.5t-54.5 -9q-47 0 -83 18.5t-50 58.5q-7 19 5.5 31t32.5 12h8q17 0 27 -9t20 -19q6 -7 16.5 -9.5t23.5 -2.5q23 0 36.5 13.5t13.5 36.5q0 24 -11 32t-25 8q-7 0 -13.5 -1t-11.5 -3q-17 -5 -30 6l-8 8q-10 9 -10.5 20t9.5 21
l60 59v10h-90q-18 0 -29 11t-11 29t11 29t29 11h145q20 0 32.5 -12.5t12.5 -32.5v-26q0 -19 -13 -32l-37 -37v-10q40 -2 60 -27t20 -63z" />
    <glyph glyph-name="acute" unicode="&#xb4;" 
d="M183 587q-5 -5 -13.5 -8.5t-16.5 -3.5h-15q-15 0 -18.5 7t6.5 18l66 83q14 17 35 17h28q22 0 25.5 -9t-12.5 -25z" />
    <glyph glyph-name="paragraph" unicode="&#xb6;" horiz-adv-x="635" 
d="M389 -155q0 -20 -12.5 -32.5t-32.5 -12.5h-10q-20 0 -32.5 12.5t-12.5 32.5v335q-60 0 -105 20t-75 55t-45 82.5t-15 102.5q0 57 15.5 105t46 82.5t75.5 53.5t103 19h255q20 0 32.5 -12.5t12.5 -32.5v-810q0 -20 -12.5 -32.5t-32.5 -12.5h-10q-20 0 -32.5 12.5
t-12.5 32.5v755h-100v-755z" />
    <glyph glyph-name="periodcentered" unicode="&#xb7;" horiz-adv-x="268" 
d="M194 335q0 -20 -12.5 -32.5t-32.5 -12.5h-30q-20 0 -32.5 12.5t-12.5 32.5v30q0 20 12.5 32.5t32.5 12.5h30q20 0 32.5 -12.5t12.5 -32.5v-30z" />
    <glyph glyph-name="cedilla" unicode="&#xb8;" 
d="M300 -122q0 -17 -8.5 -34t-23.5 -31.5t-36.5 -23.5t-47.5 -9q-30 0 -51 11t-32 21q-6 5 -5.5 12.5t6.5 12.5q5 6 12 6.5t14 -3.5q22 -10 47 -10q23 0 41 9.5t18 30.5q0 23 -14 30.5t-31 7.5q-8 0 -16 -1t-14 -3q-15 -3 -26 6q-12 10 -2 22l78 99q12 15 31 17l31 3
q22 2 25.5 -6t-12.5 -23l-77 -73q29 3 47 -2.5t28.5 -16.5t14 -25t3.5 -27z" />
    <glyph glyph-name="onesuperior" unicode="&#xb9;" horiz-adv-x="350" 
d="M300 380q0 -18 -11 -29t-29 -11h-170q-18 0 -29 11t-11 29t11 29t29 11h50v169l-19 -18q-8 -8 -18 -8q-9 0 -18 9l-9 9q-24 29 3 55l58 53q6 5 14 8t16 3h23q18 0 29 -11t11 -29v-240h35q16 0 25.5 -9.5t9.5 -25.5v-5z" />
    <glyph glyph-name="ordmasculine" unicode="&#xba;" horiz-adv-x="376" 
d="M358 520q0 -41 -9.5 -75.5t-30 -60t-52.5 -40t-78 -14.5q-87 0 -128.5 52t-41.5 138q0 41 9.5 75.5t30 60t52.5 40t78 14.5q87 0 128.5 -52t41.5 -138zM108 520q0 -22 3 -42t11.5 -35t24.5 -24t41 -9q26 0 41.5 9t24 24t11.5 35t3 42t-3 42t-11.5 35t-24 24t-41.5 9
q-25 0 -41 -9t-24.5 -24t-11.5 -35t-3 -42z" />
    <glyph glyph-name="guillemotright" unicode="&#xbb;" horiz-adv-x="739" 
d="M470 13q-13 -13 -32 -13h-52q-32 0 -38 13.5t17 36.5l204 204l-195 196q-23 23 -17.5 36.5t37.5 13.5h52q9 0 17.5 -4t14.5 -9l201 -201q14 -14 14 -32t-14 -32zM184 13q-13 -13 -32 -13h-52q-32 0 -38 13.5t17 36.5l205 204l-196 196q-23 23 -17 36.5t38 13.5h52
q8 0 17 -4t14 -9l201 -201q14 -14 14 -32t-14 -32z" />
    <glyph glyph-name="onequarter" unicode="&#xbc;" horiz-adv-x="979" 
d="M215 209q0 -15 -9.5 -24.5t-24.5 -9.5h-8q-15 0 -24 9.5t-9 24.5v389l-51 -51q-10 -10 -24 -10q-13 0 -24 10l-5 5q-11 11 -11 24t11 24l90 90q10 10 24 10h31q15 0 24.5 -9t9.5 -25v-457zM320 23q-13 -23 -39 -23h-32q-26 0 -34 13.5t5 36.5l363 628q6 10 16.5 16
t22.5 6h31q26 0 34.5 -13.5t-5.5 -36.5zM877 34q0 -15 -9 -24.5t-25 -9.5h-7q-15 0 -24.5 9.5t-9.5 24.5v112h-229q-15 0 -24 9.5t-9 24.5v35q0 12 7 22l232 276q10 12 26 12h38q34 0 34 -34v-270h41q16 0 25 -9t9 -24v-8q0 -15 -9 -24.5t-25 -9.5h-41v-112zM633 221h169
v202z" />
    <glyph glyph-name="onehalf" unicode="&#xbd;" horiz-adv-x="1025" 
d="M215 209q0 -15 -9.5 -24.5t-24.5 -9.5h-8q-15 0 -24 9.5t-9 24.5v389l-51 -51q-10 -10 -24 -10q-13 0 -24 10l-5 5q-11 11 -11 24t11 24l90 90q10 10 24 10h31q15 0 24.5 -9t9.5 -25v-457zM320 23q-13 -23 -39 -23h-32q-26 0 -34 13.5t5 36.5l363 628q6 10 16.5 16
t22.5 6h31q26 0 34.5 -13.5t-5.5 -36.5zM980 34q0 -15 -9.5 -24.5t-24.5 -9.5h-277q-15 0 -24.5 9.5t-9.5 24.5v25q0 16 12 26q17 14 47.5 38.5t61.5 50t56 46t29 24.5q27 26 42 55.5t15 68.5l-1 7q-2 23 -12 42q-8 15 -26 28t-52 13q-21 0 -36.5 -5t-26 -12.5t-17 -17
t-10.5 -18.5q-5 -13 -15 -21.5t-25 -8.5h-7q-16 0 -25 9.5t-5 24.5q5 17 15 38.5t29 40.5t49 32t74 13q62 0 95.5 -24.5t48.5 -54.5q19 -35 21 -79q0 -50 -16.5 -90.5t-52.5 -75.5q-4 -4 -21.5 -18.5t-41.5 -34t-50.5 -41.5t-48.5 -40h205q15 0 24.5 -9t9.5 -25v-7z" />
    <glyph glyph-name="threequarters" unicode="&#xbe;" horiz-adv-x="1024" 
d="M374 348q-2 -50 -22 -90q-9 -17 -22 -33t-33 -29t-47 -20.5t-63 -7.5q-42 0 -71.5 10.5t-49 27t-30 37t-15.5 39.5q-5 16 4 26t26 10h9q14 0 23 -8t14 -20q8 -20 28.5 -37.5t61.5 -17.5q44 0 66.5 17.5t32.5 39.5q12 24 13 56q-1 29 -13 53q-10 20 -32.5 36t-66.5 16h-59
q-16 0 -16 16v3q0 6 2.5 12.5t7.5 10.5l129 130h-173q-15 0 -24.5 9.5t-9.5 24.5v7q0 16 9.5 25t24.5 9h233q15 0 24 -9t9 -25v-40q0 -6 -2 -12.5t-7 -11.5l-83 -83q48 -13 72.5 -41.5t35.5 -57.5q13 -33 14 -72zM391 23q-13 -23 -39 -23h-32q-26 0 -34 13.5t5 36.5l363 628
q6 10 16.5 16t22.5 6h31q26 0 34.5 -13.5t-5.5 -36.5zM918 34q0 -15 -9 -24.5t-25 -9.5h-7q-15 0 -24.5 9.5t-9.5 24.5v112h-229q-15 0 -24 9.5t-9 24.5v35q0 12 7 22l232 276q10 12 26 12h38q34 0 34 -34v-270h41q16 0 25 -9t9 -24v-8q0 -15 -9 -24.5t-25 -9.5h-41v-112z
M674 221h169v202z" />
    <glyph glyph-name="questiondown" unicode="&#xbf;" horiz-adv-x="488" 
d="M317 425q0 -20 -12.5 -32.5t-32.5 -12.5h-30q-20 0 -32.5 12.5t-12.5 32.5v30q0 20 12.5 32.5t32.5 12.5h30q20 0 32.5 -12.5t12.5 -32.5v-30zM462 -46q-14 -79 -69 -121.5t-146 -42.5q-44 0 -84 11.5t-70 34.5t-48 59t-18 85q0 34 6 59.5t18 47.5t31 41.5t45 41.5
q11 10 20.5 18t17.5 15q14 14 22.5 26.5t13.5 27.5q6 19 18.5 31t32.5 12h10q20 0 32.5 -12.5t9.5 -32.5q-5 -38 -23 -66t-54 -59q-11 -10 -21.5 -18.5t-19.5 -16.5q-28 -24 -43.5 -50t-15.5 -65q0 -27 9.5 -46t25.5 -31t38 -17.5t47 -5.5q94 0 114 77q5 19 17 31t32 12h10
q21 0 33.5 -13t8.5 -33z" />
    <glyph glyph-name="Agrave" unicode="&#xc0;" horiz-adv-x="686" 
d="M422 800q9 -11 5.5 -18t-17.5 -7h-15q-17 0 -31 12l-84 79q-17 16 -13.5 25t26.5 9h28q21 0 35 -17zM192 30q-5 -14 -17 -22t-26 -8h-21q-24 0 -33.5 13.5t-1.5 36.5l225 620q5 14 17 22t26 8h74q14 0 26 -8t17 -22l225 -620q8 -23 -1.5 -36.5t-33.5 -13.5h-21
q-14 0 -26 8t-17 22l-55 152q-35 -13 -74 -18t-77 -5t-77 5t-74 18zM281 276q27 -10 57.5 -13.5t59.5 -3.5t59.5 3.5t57.5 13.5l-117 321z" />
    <glyph glyph-name="Aacute" unicode="&#xc1;" horiz-adv-x="686" 
d="M322 787q-14 -12 -31 -12h-15q-14 0 -17.5 7t5.5 18l66 83q14 17 35 17h28q23 0 26.5 -9t-13.5 -25zM192 30q-5 -14 -17 -22t-26 -8h-21q-24 0 -33.5 13.5t-1.5 36.5l225 620q5 14 17 22t26 8h74q14 0 26 -8t17 -22l225 -620q8 -23 -1.5 -36.5t-33.5 -13.5h-21
q-14 0 -26 8t-17 22l-55 152q-35 -13 -74 -18t-77 -5t-77 5t-74 18zM281 276q27 -10 57.5 -13.5t59.5 -3.5t59.5 3.5t57.5 13.5l-117 321z" />
    <glyph glyph-name="Acircumflex" unicode="&#xc2;" horiz-adv-x="686" 
d="M271 788q-13 -13 -32 -13h-14q-15 0 -18 7t6 18l66 83q14 17 35 17h58q21 0 35 -17l66 -83q10 -11 6.5 -18t-18.5 -7h-14q-19 0 -32 13l-72 73zM192 30q-5 -14 -17 -22t-26 -8h-21q-24 0 -33.5 13.5t-1.5 36.5l225 620q5 14 17 22t26 8h74q14 0 26 -8t17 -22l225 -620
q8 -23 -1.5 -36.5t-33.5 -13.5h-21q-14 0 -26 8t-17 22l-55 152q-35 -13 -74 -18t-77 -5t-77 5t-74 18zM281 276q27 -10 57.5 -13.5t59.5 -3.5t59.5 3.5t57.5 13.5l-117 321z" />
    <glyph glyph-name="Atilde" unicode="&#xc3;" horiz-adv-x="686" 
d="M507 875q-5 -41 -28 -68t-71 -27q-26 0 -45.5 9t-39.5 26l-27 24q-14 11 -28 11q-20 0 -28.5 -10t-10.5 -25q-3 -25 -26 -25q-11 0 -18 7t-6 18q5 40 27.5 67.5t71.5 27.5q26 0 45.5 -9t39.5 -26l28 -24q13 -11 27 -11q20 0 28.5 10t10.5 25q3 25 26 25q11 0 18 -7t6 -18
zM192 30q-5 -14 -17 -22t-26 -8h-21q-24 0 -33.5 13.5t-1.5 36.5l225 620q5 14 17 22t26 8h74q14 0 26 -8t17 -22l225 -620q8 -23 -1.5 -36.5t-33.5 -13.5h-21q-14 0 -26 8t-17 22l-55 152q-35 -13 -74 -18t-77 -5t-77 5t-74 18zM281 276q27 -10 57.5 -13.5t59.5 -3.5
t59.5 3.5t57.5 13.5l-117 321z" />
    <glyph glyph-name="Adieresis" unicode="&#xc4;" horiz-adv-x="686" 
d="M303 845q0 -20 -12.5 -32.5t-32.5 -12.5h-10q-20 0 -32.5 12.5t-12.5 32.5v10q0 20 12.5 32.5t32.5 12.5h10q20 0 32.5 -12.5t12.5 -32.5v-10zM483 845q0 -20 -12.5 -32.5t-32.5 -12.5h-10q-20 0 -32.5 12.5t-12.5 32.5v10q0 20 12.5 32.5t32.5 12.5h10q20 0 32.5 -12.5
t12.5 -32.5v-10zM192 30q-5 -14 -17 -22t-26 -8h-21q-24 0 -33.5 13.5t-1.5 36.5l225 620q5 14 17 22t26 8h74q14 0 26 -8t17 -22l225 -620q8 -23 -1.5 -36.5t-33.5 -13.5h-21q-14 0 -26 8t-17 22l-55 152q-35 -13 -74 -18t-77 -5t-77 5t-74 18zM281 276q27 -10 57.5 -13.5
t59.5 -3.5t59.5 3.5t57.5 13.5l-117 321z" />
    <glyph glyph-name="Aring" unicode="&#xc5;" horiz-adv-x="686" 
d="M443 836q0 -19 -8 -36.5t-21.5 -30t-31.5 -20t-39 -7.5t-39 7.5t-31.5 20t-21.5 30t-8 36.5q0 20 8 37t21.5 29.5t31.5 20t39 7.5t39 -7.5t31.5 -20t21.5 -29.5t8 -37zM293 836q0 -18 14.5 -31t35.5 -13t35.5 13t14.5 31t-14.5 31t-35.5 13t-35.5 -13t-14.5 -31zM192 30
q-5 -14 -17 -22t-26 -8h-21q-24 0 -33.5 13.5t-1.5 36.5l225 620q5 14 17 22t26 8h74q14 0 26 -8t17 -22l225 -620q8 -23 -1.5 -36.5t-33.5 -13.5h-21q-14 0 -26 8t-17 22l-55 152q-35 -13 -74 -18t-77 -5t-77 5t-74 18zM281 276q27 -10 57.5 -13.5t59.5 -3.5t59.5 3.5
t57.5 13.5l-117 321z" />
    <glyph glyph-name="AE" unicode="&#xc6;" horiz-adv-x="995" 
d="M150 21q-13 -21 -38 -21h-34q-26 0 -33 13.5t7 35.5l408 631q6 9 16.5 14.5t21.5 5.5h411q20 0 32.5 -12.5t12.5 -32.5v-10q0 -20 -12.5 -32.5t-32.5 -12.5h-325v-144q0 -20 7 -31.5t19.5 -17t29.5 -6.5t36 -1h173q20 0 32.5 -12.5t12.5 -32.5v-10q0 -20 -12.5 -32.5
t-32.5 -12.5h-159q-72 0 -106 24v-224h325q20 0 32.5 -12.5t12.5 -32.5v-10q0 -20 -12.5 -32.5t-32.5 -12.5h-380q-20 0 -32.5 12.5t-12.5 32.5v122q-24 -4 -48.5 -5.5t-47.5 -1.5q-34 0 -69.5 3.5t-68.5 13.5zM307 266q20 -4 40.5 -5t40.5 -1q23 0 48 2t48 7v272z" />
    <glyph glyph-name="Ccedilla" unicode="&#xc7;" horiz-adv-x="661" 
d="M426 -122q0 -17 -8.5 -34t-23.5 -31.5t-36.5 -23.5t-47.5 -9q-30 0 -51 11t-32 21q-6 5 -5.5 12.5t6.5 12.5q5 6 12 6.5t14 -3.5q22 -10 47 -10q23 0 41 9.5t18 30.5q0 23 -14 30.5t-31 7.5q-8 0 -16 -1t-14 -3q-15 -3 -26 6q-12 10 -2 22l48 61q-67 9 -119 38.5
t-87 76.5t-53.5 108.5t-18.5 133.5q0 75 21 141t62 114.5t103 76.5t144 28q44 0 85.5 -10t77 -30t62.5 -50.5t42 -71.5q8 -21 -3 -34.5t-34 -13.5h-16q-15 0 -27 8.5t-19 22.5q-24 47 -69 68t-99 21q-59 0 -102 -21t-71.5 -57.5t-42.5 -86t-14 -105.5q0 -54 13 -102.5
t41 -86t71.5 -59.5t104.5 -22q60 0 102.5 24t65.5 75q7 14 18.5 22.5t26.5 8.5h17q23 0 34 -13.5t4 -34.5q-29 -81 -93.5 -124t-155.5 -48l-43 -41q29 3 47 -2.5t28.5 -16.5t14 -25t3.5 -27z" />
    <glyph glyph-name="Egrave" unicode="&#xc8;" horiz-adv-x="552" 
d="M355 800q9 -11 5.5 -18t-17.5 -7h-15q-17 0 -31 12l-84 79q-17 16 -13.5 25t26.5 9h28q21 0 35 -17zM510 45q0 -20 -12.5 -32.5t-32.5 -12.5h-380q-20 0 -32.5 12.5t-12.5 32.5v610q0 20 12.5 32.5t32.5 12.5h380q20 0 32.5 -12.5t12.5 -32.5v-10q0 -20 -12.5 -32.5
t-32.5 -12.5h-325v-144q0 -20 7 -31.5t19.5 -17t29.5 -6.5t37 -1h172q20 0 32.5 -12.5t12.5 -32.5v-10q0 -20 -12.5 -32.5t-32.5 -12.5h-159q-35 0 -61 5.5t-45 18.5v-224h325q20 0 32.5 -12.5t12.5 -32.5v-10z" />
    <glyph glyph-name="Eacute" unicode="&#xc9;" horiz-adv-x="552" 
d="M255 787q-14 -12 -31 -12h-15q-14 0 -17.5 7t5.5 18l66 83q14 17 35 17h28q23 0 26.5 -9t-13.5 -25zM510 45q0 -20 -12.5 -32.5t-32.5 -12.5h-380q-20 0 -32.5 12.5t-12.5 32.5v610q0 20 12.5 32.5t32.5 12.5h380q20 0 32.5 -12.5t12.5 -32.5v-10q0 -20 -12.5 -32.5
t-32.5 -12.5h-325v-144q0 -20 7 -31.5t19.5 -17t29.5 -6.5t37 -1h172q20 0 32.5 -12.5t12.5 -32.5v-10q0 -20 -12.5 -32.5t-32.5 -12.5h-159q-35 0 -61 5.5t-45 18.5v-224h325q20 0 32.5 -12.5t12.5 -32.5v-10z" />
    <glyph glyph-name="Ecircumflex" unicode="&#xca;" horiz-adv-x="552" 
d="M204 788q-13 -13 -32 -13h-14q-15 0 -18 7t6 18l66 83q14 17 35 17h58q21 0 35 -17l66 -83q10 -11 6.5 -18t-18.5 -7h-14q-19 0 -32 13l-72 73zM510 45q0 -20 -12.5 -32.5t-32.5 -12.5h-380q-20 0 -32.5 12.5t-12.5 32.5v610q0 20 12.5 32.5t32.5 12.5h380
q20 0 32.5 -12.5t12.5 -32.5v-10q0 -20 -12.5 -32.5t-32.5 -12.5h-325v-144q0 -20 7 -31.5t19.5 -17t29.5 -6.5t37 -1h172q20 0 32.5 -12.5t12.5 -32.5v-10q0 -20 -12.5 -32.5t-32.5 -12.5h-159q-35 0 -61 5.5t-45 18.5v-224h325q20 0 32.5 -12.5t12.5 -32.5v-10z" />
    <glyph glyph-name="Edieresis" unicode="&#xcb;" horiz-adv-x="552" 
d="M236 845q0 -20 -12.5 -32.5t-32.5 -12.5h-10q-20 0 -32.5 12.5t-12.5 32.5v10q0 20 12.5 32.5t32.5 12.5h10q20 0 32.5 -12.5t12.5 -32.5v-10zM416 845q0 -20 -12.5 -32.5t-32.5 -12.5h-10q-20 0 -32.5 12.5t-12.5 32.5v10q0 20 12.5 32.5t32.5 12.5h10q20 0 32.5 -12.5
t12.5 -32.5v-10zM510 45q0 -20 -12.5 -32.5t-32.5 -12.5h-380q-20 0 -32.5 12.5t-12.5 32.5v610q0 20 12.5 32.5t32.5 12.5h380q20 0 32.5 -12.5t12.5 -32.5v-10q0 -20 -12.5 -32.5t-32.5 -12.5h-325v-144q0 -20 7 -31.5t19.5 -17t29.5 -6.5t37 -1h172q20 0 32.5 -12.5
t12.5 -32.5v-10q0 -20 -12.5 -32.5t-32.5 -12.5h-159q-35 0 -61 5.5t-45 18.5v-224h325q20 0 32.5 -12.5t12.5 -32.5v-10z" />
    <glyph glyph-name="Igrave" unicode="&#xcc;" horiz-adv-x="217" 
d="M188 800q9 -11 5.5 -18t-18.5 -7h-14q-17 0 -31 12l-85 79q-16 16 -12.5 25t26.5 9h27q21 0 35 -17zM159 45q0 -20 -12.5 -32.5t-32.5 -12.5h-10q-20 0 -32.5 12.5t-12.5 32.5v610q0 20 12.5 32.5t32.5 12.5h10q20 0 32.5 -12.5t12.5 -32.5v-610z" />
    <glyph glyph-name="Iacute" unicode="&#xcd;" horiz-adv-x="217" 
d="M87 787q-5 -5 -13.5 -8.5t-16.5 -3.5h-15q-15 0 -18.5 7t6.5 18l66 83q14 17 35 17h28q22 0 25.5 -9t-12.5 -25zM159 45q0 -20 -12.5 -32.5t-32.5 -12.5h-10q-20 0 -32.5 12.5t-12.5 32.5v610q0 20 12.5 32.5t32.5 12.5h10q20 0 32.5 -12.5t12.5 -32.5v-610z" />
    <glyph glyph-name="Icircumflex" unicode="&#xce;" horiz-adv-x="217" 
d="M36 788q-13 -13 -32 -13h-14q-14 0 -17.5 7t5.5 18l66 83q15 17 36 17h57q22 0 36 -17l66 -83q9 -11 5.5 -18t-17.5 -7h-14q-19 0 -32 13l-72 73zM159 45q0 -20 -12.5 -32.5t-32.5 -12.5h-10q-20 0 -32.5 12.5t-12.5 32.5v610q0 20 12.5 32.5t32.5 12.5h10
q20 0 32.5 -12.5t12.5 -32.5v-610z" />
    <glyph glyph-name="Idieresis" unicode="&#xcf;" horiz-adv-x="217" 
d="M69 845q0 -20 -12.5 -32.5t-32.5 -12.5h-10q-21 0 -33.5 12.5t-12.5 32.5v10q0 20 12.5 32.5t33.5 12.5h10q20 0 32.5 -12.5t12.5 -32.5v-10zM249 845q0 -20 -12.5 -32.5t-32.5 -12.5h-10q-20 0 -32.5 12.5t-12.5 32.5v10q0 20 12.5 32.5t32.5 12.5h10q20 0 32.5 -12.5
t12.5 -32.5v-10zM159 45q0 -20 -12.5 -32.5t-32.5 -12.5h-10q-20 0 -32.5 12.5t-12.5 32.5v610q0 20 12.5 32.5t32.5 12.5h10q20 0 32.5 -12.5t12.5 -32.5v-610z" />
    <glyph glyph-name="Eth" unicode="&#xd0;" horiz-adv-x="628" 
d="M590 270q0 -56 -21 -105t-58 -86t-85.5 -58t-104.5 -21h-236q-20 0 -32.5 12.5t-12.5 32.5v250q-18 2 -29 14t-11 31v10q0 19 11 31t29 14v260q0 20 12.5 32.5t32.5 12.5h236q56 0 104.5 -21t85.5 -58t58 -85.5t21 -104.5v-161zM140 100h181q35 0 65.5 13.5t53.5 36.5
t36.5 54t13.5 66v161q0 35 -13.5 65.5t-36.5 53.5t-53.5 36.5t-65.5 13.5h-181v-205h105q20 0 32.5 -12.5t12.5 -32.5v-10q0 -20 -12.5 -32.5t-32.5 -12.5h-105v-195z" />
    <glyph glyph-name="Ntilde" unicode="&#xd1;" horiz-adv-x="649" 
d="M488 875q-5 -41 -27.5 -68t-70.5 -27q-26 0 -46 9t-39 26l-28 24q-13 11 -27 11q-20 0 -28.5 -10t-10.5 -25q-3 -25 -26 -25q-11 0 -18.5 7t-5.5 18q5 40 27 67.5t72 27.5q26 0 45.5 -9t39.5 -26l27 -24q13 -11 28 -11q20 0 28 10t10 25q3 25 27 25q11 0 18 -7t5 -18z
M140 45q0 -20 -12.5 -32.5t-32.5 -12.5h-10q-20 0 -32.5 12.5t-12.5 32.5v610q0 20 12.5 32.5t32.5 12.5h48q25 0 38 -20l339 -523v498q0 20 12.5 32.5t32.5 12.5h10q20 0 32.5 -12.5t12.5 -32.5v-610q0 -20 -12.5 -32.5t-32.5 -12.5h-48q-11 0 -21.5 5.5t-16.5 15.5
l-339 522v-498z" />
    <glyph glyph-name="Ograve" unicode="&#xd2;" horiz-adv-x="721" 
d="M440 800q9 -11 5.5 -18t-18.5 -7h-14q-17 0 -31 12l-85 79q-16 16 -12.5 25t26.5 9h27q21 0 35 -17zM690 350q0 -79 -21.5 -145t-63.5 -114t-103.5 -74.5t-141.5 -26.5q-82 0 -144 28t-103 76.5t-62 114.5t-21 141q0 79 22 145t64 114t103.5 74.5t140.5 26.5
q82 0 144 -28t103 -76.5t62 -114.5t21 -141zM130 350q0 -56 14 -105.5t42.5 -86t71.5 -57.5t102 -21q61 0 104.5 22t71.5 59.5t41 86t13 102.5q0 56 -14 105.5t-42.5 86t-71.5 57.5t-102 21q-61 0 -104.5 -22t-71.5 -59.5t-41 -86t-13 -102.5z" />
    <glyph glyph-name="Oacute" unicode="&#xd3;" horiz-adv-x="721" 
d="M339 787q-5 -5 -13.5 -8.5t-16.5 -3.5h-15q-15 0 -18.5 7t6.5 18l66 83q14 17 35 17h28q22 0 25.5 -9t-12.5 -25zM690 350q0 -79 -21.5 -145t-63.5 -114t-103.5 -74.5t-141.5 -26.5q-82 0 -144 28t-103 76.5t-62 114.5t-21 141q0 79 22 145t64 114t103.5 74.5t140.5 26.5
q82 0 144 -28t103 -76.5t62 -114.5t21 -141zM130 350q0 -56 14 -105.5t42.5 -86t71.5 -57.5t102 -21q61 0 104.5 22t71.5 59.5t41 86t13 102.5q0 56 -14 105.5t-42.5 86t-71.5 57.5t-102 21q-61 0 -104.5 -22t-71.5 -59.5t-41 -86t-13 -102.5z" />
    <glyph glyph-name="Ocircumflex" unicode="&#xd4;" horiz-adv-x="721" 
d="M288 788q-13 -13 -32 -13h-13q-15 0 -18.5 7t5.5 18l66 83q15 17 36 17h57q22 0 36 -17l66 -83q9 -11 5.5 -18t-17.5 -7h-14q-19 0 -32 13l-72 73zM690 350q0 -79 -21.5 -145t-63.5 -114t-103.5 -74.5t-141.5 -26.5q-82 0 -144 28t-103 76.5t-62 114.5t-21 141
q0 79 22 145t64 114t103.5 74.5t140.5 26.5q82 0 144 -28t103 -76.5t62 -114.5t21 -141zM130 350q0 -56 14 -105.5t42.5 -86t71.5 -57.5t102 -21q61 0 104.5 22t71.5 59.5t41 86t13 102.5q0 56 -14 105.5t-42.5 86t-71.5 57.5t-102 21q-61 0 -104.5 -22t-71.5 -59.5t-41 -86
t-13 -102.5z" />
    <glyph glyph-name="Otilde" unicode="&#xd5;" horiz-adv-x="721" 
d="M524 875q-5 -41 -27.5 -68t-70.5 -27q-26 0 -46 9t-39 26l-28 24q-13 11 -27 11q-20 0 -28.5 -10t-10.5 -25q-3 -25 -26 -25q-11 0 -18.5 7t-5.5 18q5 40 27 67.5t72 27.5q26 0 45.5 -9t39.5 -26l27 -24q13 -11 28 -11q20 0 28 10t10 25q3 25 27 25q11 0 18 -7t5 -18z
M690 350q0 -79 -21.5 -145t-63.5 -114t-103.5 -74.5t-141.5 -26.5q-82 0 -144 28t-103 76.5t-62 114.5t-21 141q0 79 22 145t64 114t103.5 74.5t140.5 26.5q82 0 144 -28t103 -76.5t62 -114.5t21 -141zM130 350q0 -56 14 -105.5t42.5 -86t71.5 -57.5t102 -21q61 0 104.5 22
t71.5 59.5t41 86t13 102.5q0 56 -14 105.5t-42.5 86t-71.5 57.5t-102 21q-61 0 -104.5 -22t-71.5 -59.5t-41 -86t-13 -102.5z" />
    <glyph glyph-name="Odieresis" unicode="&#xd6;" horiz-adv-x="721" 
d="M321 845q0 -20 -12.5 -32.5t-32.5 -12.5h-10q-20 0 -32.5 12.5t-12.5 32.5v10q0 20 12.5 32.5t32.5 12.5h10q20 0 32.5 -12.5t12.5 -32.5v-10zM501 845q0 -20 -12.5 -32.5t-32.5 -12.5h-10q-20 0 -32.5 12.5t-12.5 32.5v10q0 20 12.5 32.5t32.5 12.5h10q20 0 32.5 -12.5
t12.5 -32.5v-10zM690 350q0 -79 -21.5 -145t-63.5 -114t-103.5 -74.5t-141.5 -26.5q-82 0 -144 28t-103 76.5t-62 114.5t-21 141q0 79 22 145t64 114t103.5 74.5t140.5 26.5q82 0 144 -28t103 -76.5t62 -114.5t21 -141zM130 350q0 -56 14 -105.5t42.5 -86t71.5 -57.5
t102 -21q61 0 104.5 22t71.5 59.5t41 86t13 102.5q0 56 -14 105.5t-42.5 86t-71.5 57.5t-102 21q-61 0 -104.5 -22t-71.5 -59.5t-41 -86t-13 -102.5z" />
    <glyph glyph-name="multiply" unicode="&#xd7;" horiz-adv-x="572" 
d="M459 70q-14 -14 -31 -14q-16 0 -32 14l-110 109l-110 -109q-14 -14 -31 -14q-16 0 -32 14l-7 7q-14 14 -14 31.5t14 31.5l109 110l-109 110q-14 14 -14 31.5t14 31.5l7 7q14 14 32 14t31 -14l110 -109l110 109q14 14 32 14t31 -14l7 -7q14 -14 14 -31.5t-14 -31.5
l-109 -110l109 -110q14 -14 14 -31.5t-14 -31.5z" />
    <glyph glyph-name="Oslash" unicode="&#xd8;" horiz-adv-x="738" 
d="M698 350q0 -75 -21 -141t-62 -114.5t-103 -76.5t-144 -28q-78 0 -140 27q-12 5 -22.5 10.5t-21.5 11.5l-17 -22q-6 -8 -15.5 -12.5t-19.5 -4.5h-36q-26 0 -32.5 12.5t10.5 33.5l42 54q-43 54 -60.5 118.5t-17.5 131.5q0 75 21 141t62 114.5t103 76.5t144 28
q55 0 96.5 -11.5t87.5 -37.5l17 22q14 17 36 17h35q26 0 32.5 -12.5t-9.5 -33.5l-43 -54q43 -54 60.5 -118.5t17.5 -131.5zM138 350q0 -43 9 -87.5t32 -81.5l315 405q-33 18 -60 26t-66 8q-59 0 -102.5 -21t-72 -57.5t-42 -85.5t-13.5 -106zM242 114q31 -17 60.5 -25.5
t65.5 -8.5q59 0 102 21t71.5 58t42.5 86t14 105q0 44 -9 87.5t-32 81.5z" />
    <glyph glyph-name="Ugrave" unicode="&#xd9;" horiz-adv-x="619" 
d="M389 800q9 -11 5.5 -18t-18.5 -7h-14q-17 0 -31 12l-85 79q-16 16 -12.5 25t26.5 9h27q21 0 35 -17zM579 250q0 -64 -20 -112.5t-55.5 -81.5t-85 -49.5t-109.5 -16.5q-63 0 -113 17.5t-85 51t-53.5 82t-18.5 109.5v405q0 20 12.5 32.5t32.5 12.5h10q20 0 32.5 -12.5
t12.5 -32.5v-405q0 -83 43 -126.5t127 -43.5q83 0 126.5 43.5t43.5 126.5v405q0 20 12.5 32.5t32.5 12.5h10q20 0 32.5 -12.5t12.5 -32.5v-405z" />
    <glyph glyph-name="Uacute" unicode="&#xda;" horiz-adv-x="619" 
d="M288 787q-5 -5 -13.5 -8.5t-16.5 -3.5h-15q-15 0 -18.5 7t6.5 18l66 83q14 17 35 17h28q22 0 25.5 -9t-12.5 -25zM579 250q0 -64 -20 -112.5t-55.5 -81.5t-85 -49.5t-109.5 -16.5q-63 0 -113 17.5t-85 51t-53.5 82t-18.5 109.5v405q0 20 12.5 32.5t32.5 12.5h10
q20 0 32.5 -12.5t12.5 -32.5v-405q0 -83 43 -126.5t127 -43.5q83 0 126.5 43.5t43.5 126.5v405q0 20 12.5 32.5t32.5 12.5h10q20 0 32.5 -12.5t12.5 -32.5v-405z" />
    <glyph glyph-name="Ucircumflex" unicode="&#xdb;" horiz-adv-x="619" 
d="M237 788q-13 -13 -32 -13h-13q-15 0 -18.5 7t5.5 18l66 83q15 17 36 17h57q22 0 36 -17l66 -83q9 -11 5.5 -18t-17.5 -7h-14q-19 0 -32 13l-72 73zM579 250q0 -64 -20 -112.5t-55.5 -81.5t-85 -49.5t-109.5 -16.5q-63 0 -113 17.5t-85 51t-53.5 82t-18.5 109.5v405
q0 20 12.5 32.5t32.5 12.5h10q20 0 32.5 -12.5t12.5 -32.5v-405q0 -83 43 -126.5t127 -43.5q83 0 126.5 43.5t43.5 126.5v405q0 20 12.5 32.5t32.5 12.5h10q20 0 32.5 -12.5t12.5 -32.5v-405z" />
    <glyph glyph-name="Udieresis" unicode="&#xdc;" horiz-adv-x="619" 
d="M270 845q0 -20 -12.5 -32.5t-32.5 -12.5h-10q-20 0 -32.5 12.5t-12.5 32.5v10q0 20 12.5 32.5t32.5 12.5h10q20 0 32.5 -12.5t12.5 -32.5v-10zM450 845q0 -20 -12.5 -32.5t-32.5 -12.5h-10q-20 0 -32.5 12.5t-12.5 32.5v10q0 20 12.5 32.5t32.5 12.5h10q20 0 32.5 -12.5
t12.5 -32.5v-10zM579 250q0 -64 -20 -112.5t-55.5 -81.5t-85 -49.5t-109.5 -16.5q-63 0 -113 17.5t-85 51t-53.5 82t-18.5 109.5v405q0 20 12.5 32.5t32.5 12.5h10q20 0 32.5 -12.5t12.5 -32.5v-405q0 -83 43 -126.5t127 -43.5q83 0 126.5 43.5t43.5 126.5v405
q0 20 12.5 32.5t32.5 12.5h10q20 0 32.5 -12.5t12.5 -32.5v-405z" />
    <glyph glyph-name="Yacute" unicode="&#xdd;" horiz-adv-x="635" 
d="M296 787q-5 -5 -13.5 -8.5t-16.5 -3.5h-15q-15 0 -18.5 7t6.5 18l66 83q14 17 35 17h28q22 0 25.5 -9t-12.5 -25zM366 46q0 -20 -12.5 -32.5t-32.5 -12.5h-10q-20 0 -32.5 12.5t-12.5 32.5v289l-221 316q-16 23 -9 36.5t35 13.5h37q11 0 21 -5.5t16 -13.5l171 -244
l170 244q6 8 16 13.5t21 5.5h38q27 0 34.5 -13.5t-8.5 -36.5l-221 -316v-289z" />
    <glyph glyph-name="Thorn" unicode="&#xde;" horiz-adv-x="500" 
d="M150 45q0 -20 -12.5 -32.5t-32.5 -12.5h-10q-20 0 -32.5 12.5t-12.5 32.5v610q0 20 12.5 32.5t32.5 12.5h10q20 0 32.5 -12.5t12.5 -32.5v-45h63q58 0 102.5 -19t75 -53.5t46.5 -82t16 -105.5q0 -55 -15 -102.5t-45 -82.5t-75 -55t-105 -20h-63v-45zM150 180h63
q39 0 66 13.5t43.5 36.5t23.5 54t7 66t-7 66t-23.5 54t-43.5 36.5t-66 13.5h-63v-340z" />
    <glyph glyph-name="germandbls" unicode="&#xdf;" horiz-adv-x="550" 
d="M507 166q-13 -81 -67 -128.5t-140 -47.5q-14 0 -28 1.5t-28 5.5q-16 5 -22.5 18.5t-2.5 29.5l2 7q4 15 16 23t28 7q8 -1 17 -1.5t18 -0.5q30 0 51 10.5t34 28.5t19 41.5t6 49.5q0 33 -8 55t-22.5 35.5t-34.5 20t-45 8.5q-18 2 -29 12.5t-11 28.5t11 29t28 14q37 7 59 29
t22 68q0 62 -32 86t-88 24q-110 0 -110 -110v-465q0 -20 -12.5 -32.5t-32.5 -12.5h-10q-20 0 -32.5 12.5t-12.5 32.5v465q0 99 57 149.5t153 50.5q47 0 87 -11.5t69.5 -34.5t46.5 -59t17 -85q0 -32 -9 -59q-8 -23 -28 -46.5t-58 -34.5q30 -6 51 -20t35 -32t21.5 -37.5
t11.5 -36.5q5 -20 5.5 -44t-2.5 -44z" />
    <glyph glyph-name="agrave" unicode="&#xe0;" horiz-adv-x="493" 
d="M326 600q9 -11 5.5 -18t-18.5 -7h-14q-17 0 -31 12l-85 79q-16 16 -12.5 25t26.5 9h27q21 0 35 -17zM347 61q-15 -26 -43 -40.5t-55 -21.5q-32 -8 -68 -9q-33 0 -62 12.5t-51 34.5t-34.5 51t-12.5 62t12.5 62t34.5 51t51 34.5t62 12.5h59q35 0 65 -9t42 -32v61
q0 54 -24.5 72t-75.5 18q-38 0 -59 -10t-30 -22q-11 -14 -24.5 -26t-36.5 -12h-8q-20 0 -31.5 11.5t-6.5 28.5q5 18 16 39t33.5 39t58 30t88.5 12q56 0 94 -13t61.5 -40t34 -68.5t10.5 -98.5v-245q0 -20 -12.5 -32.5t-32.5 -12.5h-25q-14 0 -22 8t-8 22v31zM121 150
q0 -25 19 -47.5t58 -22.5q14 0 29 2q14 2 31.5 6t36.5 12q38 16 49 56q3 16 -1 30q-4 13 -13.5 20t-23 10t-29.5 3.5t-34 0.5h-62q-32 0 -46 -22.5t-14 -47.5z" />
    <glyph glyph-name="aacute" unicode="&#xe1;" horiz-adv-x="493" 
d="M225 587q-5 -5 -13.5 -8.5t-16.5 -3.5h-15q-15 0 -18.5 7t6.5 18l66 83q14 17 35 17h28q22 0 25.5 -9t-12.5 -25zM347 61q-15 -26 -43 -40.5t-55 -21.5q-32 -8 -68 -9q-33 0 -62 12.5t-51 34.5t-34.5 51t-12.5 62t12.5 62t34.5 51t51 34.5t62 12.5h59q35 0 65 -9t42 -32
v61q0 54 -24.5 72t-75.5 18q-38 0 -59 -10t-30 -22q-11 -14 -24.5 -26t-36.5 -12h-8q-20 0 -31.5 11.5t-6.5 28.5q5 18 16 39t33.5 39t58 30t88.5 12q56 0 94 -13t61.5 -40t34 -68.5t10.5 -98.5v-245q0 -20 -12.5 -32.5t-32.5 -12.5h-25q-14 0 -22 8t-8 22v31zM121 150
q0 -25 19 -47.5t58 -22.5q14 0 29 2q14 2 31.5 6t36.5 12q38 16 49 56q3 16 -1 30q-4 13 -13.5 20t-23 10t-29.5 3.5t-34 0.5h-62q-32 0 -46 -22.5t-14 -47.5z" />
    <glyph glyph-name="acircumflex" unicode="&#xe2;" horiz-adv-x="493" 
d="M174 588q-13 -13 -32 -13h-13q-15 0 -18.5 7t5.5 18l66 83q15 17 36 17h57q22 0 36 -17l66 -83q9 -11 5.5 -18t-17.5 -7h-14q-19 0 -32 13l-72 73zM347 61q-15 -26 -43 -40.5t-55 -21.5q-32 -8 -68 -9q-33 0 -62 12.5t-51 34.5t-34.5 51t-12.5 62t12.5 62t34.5 51
t51 34.5t62 12.5h59q35 0 65 -9t42 -32v61q0 54 -24.5 72t-75.5 18q-38 0 -59 -10t-30 -22q-11 -14 -24.5 -26t-36.5 -12h-8q-20 0 -31.5 11.5t-6.5 28.5q5 18 16 39t33.5 39t58 30t88.5 12q56 0 94 -13t61.5 -40t34 -68.5t10.5 -98.5v-245q0 -20 -12.5 -32.5t-32.5 -12.5
h-25q-14 0 -22 8t-8 22v31zM121 150q0 -25 19 -47.5t58 -22.5q14 0 29 2q14 2 31.5 6t36.5 12q38 16 49 56q3 16 -1 30q-4 13 -13.5 20t-23 10t-29.5 3.5t-34 0.5h-62q-32 0 -46 -22.5t-14 -47.5z" />
    <glyph glyph-name="atilde" unicode="&#xe3;" horiz-adv-x="493" 
d="M410 675q-5 -41 -27.5 -68t-70.5 -27q-26 0 -46 9t-39 26l-28 24q-13 11 -27 11q-20 0 -28.5 -10t-10.5 -25q-3 -25 -26 -25q-11 0 -18.5 7t-5.5 18q5 40 27 67.5t72 27.5q26 0 45.5 -9t39.5 -26l27 -24q13 -11 28 -11q20 0 28 10t10 25q3 25 27 25q11 0 18 -7t5 -18z
M347 61q-15 -26 -43 -40.5t-55 -21.5q-32 -8 -68 -9q-33 0 -62 12.5t-51 34.5t-34.5 51t-12.5 62t12.5 62t34.5 51t51 34.5t62 12.5h59q35 0 65 -9t42 -32v61q0 54 -24.5 72t-75.5 18q-38 0 -59 -10t-30 -22q-11 -14 -24.5 -26t-36.5 -12h-8q-20 0 -31.5 11.5t-6.5 28.5
q5 18 16 39t33.5 39t58 30t88.5 12q56 0 94 -13t61.5 -40t34 -68.5t10.5 -98.5v-245q0 -20 -12.5 -32.5t-32.5 -12.5h-25q-14 0 -22 8t-8 22v31zM121 150q0 -25 19 -47.5t58 -22.5q14 0 29 2q14 2 31.5 6t36.5 12q38 16 49 56q3 16 -1 30q-4 13 -13.5 20t-23 10t-29.5 3.5
t-34 0.5h-62q-32 0 -46 -22.5t-14 -47.5z" />
    <glyph glyph-name="adieresis" unicode="&#xe4;" horiz-adv-x="493" 
d="M207 645q0 -20 -12.5 -32.5t-32.5 -12.5h-10q-20 0 -32.5 12.5t-12.5 32.5v10q0 20 12.5 32.5t32.5 12.5h10q20 0 32.5 -12.5t12.5 -32.5v-10zM387 645q0 -20 -12.5 -32.5t-32.5 -12.5h-10q-20 0 -32.5 12.5t-12.5 32.5v10q0 20 12.5 32.5t32.5 12.5h10q20 0 32.5 -12.5
t12.5 -32.5v-10zM347 61q-15 -26 -43 -40.5t-55 -21.5q-32 -8 -68 -9q-33 0 -62 12.5t-51 34.5t-34.5 51t-12.5 62t12.5 62t34.5 51t51 34.5t62 12.5h59q35 0 65 -9t42 -32v61q0 54 -24.5 72t-75.5 18q-38 0 -59 -10t-30 -22q-11 -14 -24.5 -26t-36.5 -12h-8
q-20 0 -31.5 11.5t-6.5 28.5q5 18 16 39t33.5 39t58 30t88.5 12q56 0 94 -13t61.5 -40t34 -68.5t10.5 -98.5v-245q0 -20 -12.5 -32.5t-32.5 -12.5h-25q-14 0 -22 8t-8 22v31zM121 150q0 -25 19 -47.5t58 -22.5q14 0 29 2q14 2 31.5 6t36.5 12q38 16 49 56q3 16 -1 30
q-4 13 -13.5 20t-23 10t-29.5 3.5t-34 0.5h-62q-32 0 -46 -22.5t-14 -47.5z" />
    <glyph glyph-name="aring" unicode="&#xe5;" horiz-adv-x="493" 
d="M347 636q0 -19 -8 -36.5t-21.5 -30t-31.5 -20t-39 -7.5t-39 7.5t-31.5 20t-21.5 30t-8 36.5q0 20 8 37t21.5 29.5t31.5 20t39 7.5t39 -7.5t31.5 -20t21.5 -29.5t8 -37zM197 636q0 -18 14.5 -31t35.5 -13q20 0 35 13t15 31t-15 31t-35 13q-21 0 -35.5 -13t-14.5 -31z
M347 61q-15 -26 -43 -40.5t-55 -21.5q-32 -8 -68 -9q-33 0 -62 12.5t-51 34.5t-34.5 51t-12.5 62t12.5 62t34.5 51t51 34.5t62 12.5h59q35 0 65 -9t42 -32v61q0 54 -24.5 72t-75.5 18q-38 0 -59 -10t-30 -22q-11 -14 -24.5 -26t-36.5 -12h-8q-20 0 -31.5 11.5t-6.5 28.5
q5 18 16 39t33.5 39t58 30t88.5 12q56 0 94 -13t61.5 -40t34 -68.5t10.5 -98.5v-245q0 -20 -12.5 -32.5t-32.5 -12.5h-25q-14 0 -22 8t-8 22v31zM121 150q0 -25 19 -47.5t58 -22.5q14 0 29 2q14 2 31.5 6t36.5 12q38 16 49 56q3 16 -1 30q-4 13 -13.5 20t-23 10t-29.5 3.5
t-34 0.5h-62q-32 0 -46 -22.5t-14 -47.5z" />
    <glyph glyph-name="ae" unicode="&#xe6;" horiz-adv-x="840" 
d="M788 94q-23 -45 -73.5 -74.5t-122.5 -29.5q-66 0 -113 22.5t-77 62.5q-28 -34 -65 -51t-70 -25q-39 -9 -80 -9q-33 0 -62 12.5t-51 34.5t-34.5 51t-12.5 62t12.5 62t34.5 51t51 34.5t62 12.5h59q35 0 64.5 -8.5t41.5 -31.5l1 10v50q0 53 -24 71q-22 19 -76 19
q-38 0 -58.5 -10t-30.5 -22q-11 -14 -24.5 -26t-36.5 -12h-8q-19 0 -31 11t-7 29t16 39t33.5 39t58 30t88.5 12q20 0 41.5 -2.5t42.5 -8.5t40 -16.5t32 -26.5l8 -11q29 30 69.5 47.5t95.5 17.5q49 0 86.5 -14t65 -38.5t45 -58.5t25.5 -73q10 -50 4 -105l-1 -5q0 -6 -6 -6
h-241q-49 0 -70 12.5t-28 33.5v-56q0 -7 3.5 -27t16.5 -40.5t39 -36.5t71 -16q24 0 50 6.5t45 28.5q8 10 19.5 17.5t25.5 7.5h20q23 0 34 -13t2 -33zM496 294q13 -3 29 -3.5t35 -0.5h142v10q0 11 -3.5 31.5t-15.5 40t-36 34t-65 14.5q-28 0 -47.5 -7t-33 -17.5t-21.5 -24
t-12 -27.5q-5 -16 3 -31t25 -19zM127 150q0 -25 19 -47.5t58 -22.5q14 0 29 2q14 2 31.5 6t36.5 12q38 16 49 56q3 16 -1 30q-4 13 -13.5 20t-23 10t-29.5 3.5t-34 0.5h-62q-32 0 -46 -22.5t-14 -47.5z" />
    <glyph glyph-name="ccedilla" unicode="&#xe7;" horiz-adv-x="525" 
d="M358 -122q0 -17 -8.5 -34t-23.5 -31.5t-36.5 -23.5t-47.5 -9q-30 0 -51 11t-32 21q-6 5 -5.5 12.5t6.5 12.5q5 6 12 6.5t14 -3.5q22 -10 47 -10q23 0 41 9.5t18 30.5q0 23 -14 30.5t-31 7.5q-8 0 -16 -1t-14 -3q-15 -3 -26 6q-12 10 -2 22l47 60q-49 6 -87.5 27t-64 54.5
t-39 78.5t-13.5 98q0 55 15 102.5t45 82.5t75 55t105 20q35 0 67 -7t59.5 -22t48.5 -38t33 -55q8 -21 -3.5 -34.5t-34.5 -13.5h-16q-15 0 -27 9t-20 22q-17 26 -44.5 37.5t-62.5 11.5q-39 0 -65.5 -13.5t-43 -36.5t-24 -54t-7.5 -66t7.5 -66t24 -54t43 -36.5t65.5 -13.5
q34 0 62 11t45 38q8 13 20 22t27 9h16q23 0 34.5 -13.5t3.5 -34.5q-20 -54 -65.5 -83t-104.5 -37l-45 -43q29 3 47 -2.5t28.5 -16.5t14 -25t3.5 -27z" />
    <glyph glyph-name="egrave" unicode="&#xe8;" horiz-adv-x="521" 
d="M340 600q9 -11 5.5 -18t-18.5 -7h-14q-17 0 -31 12l-85 79q-16 16 -12.5 25t26.5 9h27q21 0 35 -17zM468 94q-23 -45 -73.5 -74.5t-122.5 -29.5q-60 0 -105 19.5t-75 54t-45 82.5t-15 104q0 53 13.5 100t41.5 82.5t71.5 56.5t103.5 21q49 0 86.5 -14t65 -38.5t45 -58.5
t25.5 -73q10 -50 4 -105l-1 -5q0 -6 -6 -6h-241q-49 0 -70 12.5t-28 33.5v-56q0 -7 3.5 -27t16.5 -40.5t39 -36.5t71 -16q24 0 50 6.5t45 28.5q8 10 19.5 17.5t25.5 7.5h20q23 0 34.5 -13t1.5 -33zM176 294q13 -3 29.5 -3.5t34.5 -0.5h142v10q0 11 -3.5 31.5t-15.5 40
t-36 34t-65 14.5q-28 0 -47.5 -7t-33 -17.5t-21.5 -24t-12 -27.5q-5 -16 3 -31t25 -19z" />
    <glyph glyph-name="eacute" unicode="&#xe9;" horiz-adv-x="521" 
d="M239 587q-5 -5 -13.5 -8.5t-16.5 -3.5h-15q-15 0 -18.5 7t6.5 18l66 83q14 17 35 17h28q22 0 25.5 -9t-12.5 -25zM468 94q-23 -45 -73.5 -74.5t-122.5 -29.5q-60 0 -105 19.5t-75 54t-45 82.5t-15 104q0 53 13.5 100t41.5 82.5t71.5 56.5t103.5 21q49 0 86.5 -14
t65 -38.5t45 -58.5t25.5 -73q10 -50 4 -105l-1 -5q0 -6 -6 -6h-241q-49 0 -70 12.5t-28 33.5v-56q0 -7 3.5 -27t16.5 -40.5t39 -36.5t71 -16q24 0 50 6.5t45 28.5q8 10 19.5 17.5t25.5 7.5h20q23 0 34.5 -13t1.5 -33zM176 294q13 -3 29.5 -3.5t34.5 -0.5h142v10
q0 11 -3.5 31.5t-15.5 40t-36 34t-65 14.5q-28 0 -47.5 -7t-33 -17.5t-21.5 -24t-12 -27.5q-5 -16 3 -31t25 -19z" />
    <glyph glyph-name="ecircumflex" unicode="&#xea;" horiz-adv-x="521" 
d="M188 588q-13 -13 -32 -13h-13q-15 0 -18.5 7t5.5 18l66 83q15 17 36 17h57q22 0 36 -17l66 -83q9 -11 5.5 -18t-17.5 -7h-14q-19 0 -32 13l-72 73zM468 94q-23 -45 -73.5 -74.5t-122.5 -29.5q-60 0 -105 19.5t-75 54t-45 82.5t-15 104q0 53 13.5 100t41.5 82.5t71.5 56.5
t103.5 21q49 0 86.5 -14t65 -38.5t45 -58.5t25.5 -73q10 -50 4 -105l-1 -5q0 -6 -6 -6h-241q-49 0 -70 12.5t-28 33.5v-56q0 -7 3.5 -27t16.5 -40.5t39 -36.5t71 -16q24 0 50 6.5t45 28.5q8 10 19.5 17.5t25.5 7.5h20q23 0 34.5 -13t1.5 -33zM176 294q13 -3 29.5 -3.5
t34.5 -0.5h142v10q0 11 -3.5 31.5t-15.5 40t-36 34t-65 14.5q-28 0 -47.5 -7t-33 -17.5t-21.5 -24t-12 -27.5q-5 -16 3 -31t25 -19z" />
    <glyph glyph-name="edieresis" unicode="&#xeb;" horiz-adv-x="521" 
d="M221 645q0 -20 -12.5 -32.5t-32.5 -12.5h-10q-20 0 -32.5 12.5t-12.5 32.5v10q0 20 12.5 32.5t32.5 12.5h10q20 0 32.5 -12.5t12.5 -32.5v-10zM401 645q0 -20 -12.5 -32.5t-32.5 -12.5h-10q-20 0 -32.5 12.5t-12.5 32.5v10q0 20 12.5 32.5t32.5 12.5h10q20 0 32.5 -12.5
t12.5 -32.5v-10zM468 94q-23 -45 -73.5 -74.5t-122.5 -29.5q-60 0 -105 19.5t-75 54t-45 82.5t-15 104q0 53 13.5 100t41.5 82.5t71.5 56.5t103.5 21q49 0 86.5 -14t65 -38.5t45 -58.5t25.5 -73q10 -50 4 -105l-1 -5q0 -6 -6 -6h-241q-49 0 -70 12.5t-28 33.5v-56
q0 -7 3.5 -27t16.5 -40.5t39 -36.5t71 -16q24 0 50 6.5t45 28.5q8 10 19.5 17.5t25.5 7.5h20q23 0 34.5 -13t1.5 -33zM176 294q13 -3 29.5 -3.5t34.5 -0.5h142v10q0 11 -3.5 31.5t-15.5 40t-36 34t-65 14.5q-28 0 -47.5 -7t-33 -17.5t-21.5 -24t-12 -27.5q-5 -16 3 -31
t25 -19z" />
    <glyph glyph-name="igrave" unicode="&#xec;" horiz-adv-x="184" 
d="M171 600q9 -11 5.5 -18t-17.5 -7h-15q-17 0 -31 12l-84 79q-17 16 -13.5 25t26.5 9h28q21 0 35 -17zM142 45q0 -20 -12.5 -32.5t-32.5 -12.5h-10q-20 0 -32.5 12.5t-12.5 32.5v410q0 20 12.5 32.5t32.5 12.5h10q20 0 32.5 -12.5t12.5 -32.5v-410z" />
    <glyph glyph-name="iacute" unicode="&#xed;" horiz-adv-x="184" 
d="M71 587q-14 -12 -31 -12h-15q-14 0 -17.5 7t5.5 18l66 83q14 17 35 17h28q23 0 26.5 -9t-13.5 -25zM142 45q0 -20 -12.5 -32.5t-32.5 -12.5h-10q-20 0 -32.5 12.5t-12.5 32.5v410q0 20 12.5 32.5t32.5 12.5h10q20 0 32.5 -12.5t12.5 -32.5v-410z" />
    <glyph glyph-name="icircumflex" unicode="&#xee;" horiz-adv-x="184" 
d="M20 588q-13 -13 -32 -13h-14q-15 0 -18.5 7t6.5 18l66 83q14 17 35 17h58q21 0 35 -17l66 -83q10 -11 6.5 -18t-18.5 -7h-14q-19 0 -32 13l-72 73zM142 45q0 -20 -12.5 -32.5t-32.5 -12.5h-10q-20 0 -32.5 12.5t-12.5 32.5v410q0 20 12.5 32.5t32.5 12.5h10
q20 0 32.5 -12.5t12.5 -32.5v-410z" />
    <glyph glyph-name="idieresis" unicode="&#xef;" horiz-adv-x="184" 
d="M52 645q0 -20 -12.5 -32.5t-32.5 -12.5h-10q-20 0 -32.5 12.5t-12.5 32.5v10q0 20 12.5 32.5t32.5 12.5h10q20 0 32.5 -12.5t12.5 -32.5v-10zM232 645q0 -20 -12.5 -32.5t-32.5 -12.5h-10q-20 0 -32.5 12.5t-12.5 32.5v10q0 20 12.5 32.5t32.5 12.5h10q20 0 32.5 -12.5
t12.5 -32.5v-10zM142 45q0 -20 -12.5 -32.5t-32.5 -12.5h-10q-20 0 -32.5 12.5t-12.5 32.5v410q0 20 12.5 32.5t32.5 12.5h10q20 0 32.5 -12.5t12.5 -32.5v-410z" />
    <glyph glyph-name="eth" unicode="&#xf0;" horiz-adv-x="605" 
d="M543 330q0 -66 -8.5 -127t-35.5 -108.5t-76 -76t-130 -28.5q-51 0 -93.5 16t-73 45.5t-47 72t-16.5 96.5q0 50 14.5 92t43 72.5t69.5 48t93 17.5q35 0 65 -8q26 -8 50.5 -23.5t34.5 -45.5v12v19.5t-0.5 20t-0.5 12.5q0 26 -5 54t-16 52l-19 -19q-9 -9 -20 -9t-20 9
l-32 31q-18 20 0 39l20 19q-20 7 -47 7q-34 0 -59.5 -9.5t-39.5 -35.5q-8 -15 -20 -25t-29 -10h-12q-23 0 -35 13.5t-5 34.5q20 61 70 91.5t120 30.5q32 0 65 -6t62 -21l26 27q12 12 27 12q14 0 26 -12l20 -19q11 -11 11 -25t-11 -25l-25 -26q19 -29 30.5 -64.5t18 -73
t8.5 -75.5t2 -72zM163 220q0 -63 32 -101.5t98 -38.5q68 0 104 36t36 104q0 69 -35.5 104.5t-104.5 35.5q-66 0 -98 -38.5t-32 -101.5z" />
    <glyph glyph-name="ntilde" unicode="&#xf1;" horiz-adv-x="513" 
d="M420 675q-5 -41 -27.5 -68t-70.5 -27q-26 0 -46 9t-39 26l-28 24q-13 11 -27 11q-20 0 -28.5 -10t-10.5 -25q-3 -25 -26 -25q-11 0 -18.5 7t-5.5 18q5 40 27 67.5t72 27.5q26 0 45.5 -9t39.5 -26l27 -24q13 -11 28 -11q20 0 28 10t10 25q3 25 27 25q11 0 18 -7t5 -18z
M140 45q0 -20 -12.5 -32.5t-32.5 -12.5h-10q-20 0 -32.5 12.5t-12.5 32.5v410q0 20 12.5 32.5t32.5 12.5h28q12 0 19.5 -7.5t7.5 -19.5v-27q26 29 71 46.5t89 17.5q33 0 57.5 -11t42.5 -29.5t30 -42t20 -47.5q18 -57 20 -130v-205q0 -20 -12.5 -32.5t-32.5 -12.5h-10
q-20 0 -32.5 12.5t-12.5 32.5v205q0 45 -12 80q-5 15 -12.5 29.5t-19.5 25.5t-28 18t-38 7t-43.5 -7t-38.5 -20.5t-27.5 -33t-10.5 -45.5v-259z" />
    <glyph glyph-name="ograve" unicode="&#xf2;" horiz-adv-x="546" 
d="M352 600q9 -11 5.5 -18t-17.5 -7h-15q-17 0 -31 12l-84 79q-17 16 -13.5 25t26.5 9h28q21 0 35 -17zM513 250q0 -58 -15.5 -105.5t-46 -82t-75.5 -53.5t-103 -19q-60 0 -105 20t-75 55t-45 82.5t-15 102.5q0 58 16 105.5t46.5 82t75 53.5t102.5 19q60 0 105 -20t75 -55
t45 -82.5t15 -102.5zM133 250q0 -35 7.5 -66t24 -54t43 -36.5t65.5 -13.5t66 13.5t43.5 36.5t23.5 54t7 66t-7 66t-23.5 54t-43.5 36.5t-66 13.5t-65.5 -13.5t-43 -36.5t-24 -54t-7.5 -66z" />
    <glyph glyph-name="oacute" unicode="&#xf3;" horiz-adv-x="546" 
d="M252 587q-14 -12 -31 -12h-15q-14 0 -17.5 7t5.5 18l66 83q14 17 35 17h28q23 0 26.5 -9t-13.5 -25zM513 250q0 -58 -15.5 -105.5t-46 -82t-75.5 -53.5t-103 -19q-60 0 -105 20t-75 55t-45 82.5t-15 102.5q0 58 16 105.5t46.5 82t75 53.5t102.5 19q60 0 105 -20t75 -55
t45 -82.5t15 -102.5zM133 250q0 -35 7.5 -66t24 -54t43 -36.5t65.5 -13.5t66 13.5t43.5 36.5t23.5 54t7 66t-7 66t-23.5 54t-43.5 36.5t-66 13.5t-65.5 -13.5t-43 -36.5t-24 -54t-7.5 -66z" />
    <glyph glyph-name="ocircumflex" unicode="&#xf4;" horiz-adv-x="546" 
d="M201 588q-13 -13 -32 -13h-14q-15 0 -18 7t6 18l66 83q14 17 35 17h58q21 0 35 -17l66 -83q10 -11 6.5 -18t-18.5 -7h-14q-19 0 -32 13l-72 73zM513 250q0 -58 -15.5 -105.5t-46 -82t-75.5 -53.5t-103 -19q-60 0 -105 20t-75 55t-45 82.5t-15 102.5q0 58 16 105.5
t46.5 82t75 53.5t102.5 19q60 0 105 -20t75 -55t45 -82.5t15 -102.5zM133 250q0 -35 7.5 -66t24 -54t43 -36.5t65.5 -13.5t66 13.5t43.5 36.5t23.5 54t7 66t-7 66t-23.5 54t-43.5 36.5t-66 13.5t-65.5 -13.5t-43 -36.5t-24 -54t-7.5 -66z" />
    <glyph glyph-name="otilde" unicode="&#xf5;" horiz-adv-x="546" 
d="M437 675q-5 -41 -28 -68t-71 -27q-26 0 -45.5 9t-39.5 26l-27 24q-14 11 -28 11q-20 0 -28.5 -10t-10.5 -25q-3 -25 -26 -25q-11 0 -18 7t-6 18q5 40 27.5 67.5t71.5 27.5q26 0 45.5 -9t39.5 -26l28 -24q13 -11 27 -11q20 0 28.5 10t10.5 25q3 25 26 25q11 0 18 -7t6 -18
zM513 250q0 -58 -15.5 -105.5t-46 -82t-75.5 -53.5t-103 -19q-60 0 -105 20t-75 55t-45 82.5t-15 102.5q0 58 16 105.5t46.5 82t75 53.5t102.5 19q60 0 105 -20t75 -55t45 -82.5t15 -102.5zM133 250q0 -35 7.5 -66t24 -54t43 -36.5t65.5 -13.5t66 13.5t43.5 36.5t23.5 54
t7 66t-7 66t-23.5 54t-43.5 36.5t-66 13.5t-65.5 -13.5t-43 -36.5t-24 -54t-7.5 -66z" />
    <glyph glyph-name="odieresis" unicode="&#xf6;" horiz-adv-x="546" 
d="M233 645q0 -20 -12.5 -32.5t-32.5 -12.5h-10q-20 0 -32.5 12.5t-12.5 32.5v10q0 20 12.5 32.5t32.5 12.5h10q20 0 32.5 -12.5t12.5 -32.5v-10zM413 645q0 -20 -12.5 -32.5t-32.5 -12.5h-10q-20 0 -32.5 12.5t-12.5 32.5v10q0 20 12.5 32.5t32.5 12.5h10q20 0 32.5 -12.5
t12.5 -32.5v-10zM513 250q0 -58 -15.5 -105.5t-46 -82t-75.5 -53.5t-103 -19q-60 0 -105 20t-75 55t-45 82.5t-15 102.5q0 58 16 105.5t46.5 82t75 53.5t102.5 19q60 0 105 -20t75 -55t45 -82.5t15 -102.5zM133 250q0 -35 7.5 -66t24 -54t43 -36.5t65.5 -13.5t66 13.5
t43.5 36.5t23.5 54t7 66t-7 66t-23.5 54t-43.5 36.5t-66 13.5t-65.5 -13.5t-43 -36.5t-24 -54t-7.5 -66z" />
    <glyph glyph-name="divide" unicode="&#xf7;" horiz-adv-x="460" 
d="M290 425q0 -20 -12.5 -32.5t-32.5 -12.5h-30q-20 0 -32.5 12.5t-12.5 32.5v30q0 20 12.5 32.5t32.5 12.5h30q20 0 32.5 -12.5t12.5 -32.5v-30zM440 246q0 -20 -12.5 -32.5t-32.5 -12.5h-330q-20 0 -32.5 12.5t-12.5 32.5v10q0 20 12.5 32.5t32.5 12.5h330
q20 0 32.5 -12.5t12.5 -32.5v-10zM290 45q0 -20 -12.5 -32.5t-32.5 -12.5h-30q-20 0 -32.5 12.5t-12.5 32.5v30q0 20 12.5 32.5t32.5 12.5h30q20 0 32.5 -12.5t12.5 -32.5v-30z" />
    <glyph glyph-name="oslash" unicode="&#xf8;" horiz-adv-x="646" 
d="M558 250q0 -55 -15 -103t-45 -82.5t-75 -54.5t-105 -20q-35 0 -72 8.5t-66 29.5l-13 -14q-6 -6 -15 -10t-18 -4h-49q-31 0 -37 13.5t15 36.5l49 52q-18 34 -26 72t-8 76q0 55 15 102.5t45 82.5t75 55t105 20q37 0 72.5 -8.5t66.5 -29.5l13 14q14 14 32 14h49
q31 0 37 -13.5t-15 -36.5l-49 -52q19 -35 26.5 -71t7.5 -77zM178 250q0 -20 2 -36.5t6 -31.5l206 220q-30 18 -74 18q-39 0 -65.5 -13.5t-43 -36.5t-24 -54t-7.5 -66zM245 98q30 -18 73 -18q39 0 65.5 13.5t43 36.5t24 54t7.5 66q0 20 -1.5 37t-6.5 32z" />
    <glyph glyph-name="ugrave" unicode="&#xf9;" horiz-adv-x="508" 
d="M333 600q9 -11 5.5 -18t-17.5 -7h-15q-17 0 -31 12l-84 79q-17 16 -13.5 25t26.5 9h28q21 0 35 -17zM359 54q-25 -29 -65 -46.5t-85 -17.5q-35 0 -61 11t-45.5 29.5t-32.5 42t-21 47.5q-19 57 -20 130v205q0 20 12.5 32.5t32.5 12.5h10q20 0 32.5 -12.5t12.5 -32.5v-205
q0 -45 12 -80q10 -30 32.5 -55t65.5 -25q22 0 43.5 7t38.5 20.5t27.5 33.5t10.5 46v258q0 20 12.5 32.5t32.5 12.5h10q20 0 32.5 -12.5t12.5 -32.5v-410q0 -20 -12.5 -32.5t-32.5 -12.5h-28q-12 0 -19.5 7.5t-7.5 19.5v27z" />
    <glyph glyph-name="uacute" unicode="&#xfa;" horiz-adv-x="508" 
d="M233 587q-14 -12 -31 -12h-15q-14 0 -17.5 7t5.5 18l66 83q14 17 35 17h28q23 0 26.5 -9t-13.5 -25zM359 54q-25 -29 -65 -46.5t-85 -17.5q-35 0 -61 11t-45.5 29.5t-32.5 42t-21 47.5q-19 57 -20 130v205q0 20 12.5 32.5t32.5 12.5h10q20 0 32.5 -12.5t12.5 -32.5v-205
q0 -45 12 -80q10 -30 32.5 -55t65.5 -25q22 0 43.5 7t38.5 20.5t27.5 33.5t10.5 46v258q0 20 12.5 32.5t32.5 12.5h10q20 0 32.5 -12.5t12.5 -32.5v-410q0 -20 -12.5 -32.5t-32.5 -12.5h-28q-12 0 -19.5 7.5t-7.5 19.5v27z" />
    <glyph glyph-name="ucircumflex" unicode="&#xfb;" horiz-adv-x="508" 
d="M182 588q-13 -13 -32 -13h-14q-15 0 -18 7t6 18l66 83q14 17 35 17h58q21 0 35 -17l66 -83q10 -11 6.5 -18t-18.5 -7h-14q-19 0 -32 13l-72 73zM359 54q-25 -29 -65 -46.5t-85 -17.5q-35 0 -61 11t-45.5 29.5t-32.5 42t-21 47.5q-19 57 -20 130v205q0 20 12.5 32.5
t32.5 12.5h10q20 0 32.5 -12.5t12.5 -32.5v-205q0 -45 12 -80q10 -30 32.5 -55t65.5 -25q22 0 43.5 7t38.5 20.5t27.5 33.5t10.5 46v258q0 20 12.5 32.5t32.5 12.5h10q20 0 32.5 -12.5t12.5 -32.5v-410q0 -20 -12.5 -32.5t-32.5 -12.5h-28q-12 0 -19.5 7.5t-7.5 19.5v27z
" />
    <glyph glyph-name="udieresis" unicode="&#xfc;" horiz-adv-x="508" 
d="M214 645q0 -20 -12.5 -32.5t-32.5 -12.5h-10q-20 0 -32.5 12.5t-12.5 32.5v10q0 20 12.5 32.5t32.5 12.5h10q20 0 32.5 -12.5t12.5 -32.5v-10zM394 645q0 -20 -12.5 -32.5t-32.5 -12.5h-10q-20 0 -32.5 12.5t-12.5 32.5v10q0 20 12.5 32.5t32.5 12.5h10q20 0 32.5 -12.5
t12.5 -32.5v-10zM359 54q-25 -29 -65 -46.5t-85 -17.5q-35 0 -61 11t-45.5 29.5t-32.5 42t-21 47.5q-19 57 -20 130v205q0 20 12.5 32.5t32.5 12.5h10q20 0 32.5 -12.5t12.5 -32.5v-205q0 -45 12 -80q10 -30 32.5 -55t65.5 -25q22 0 43.5 7t38.5 20.5t27.5 33.5t10.5 46v258
q0 20 12.5 32.5t32.5 12.5h10q20 0 32.5 -12.5t12.5 -32.5v-410q0 -20 -12.5 -32.5t-32.5 -12.5h-28q-12 0 -19.5 7.5t-7.5 19.5v27z" />
    <glyph glyph-name="yacute" unicode="&#xfd;" horiz-adv-x="533" 
d="M245 587q-5 -5 -13.5 -8.5t-16.5 -3.5h-15q-15 0 -18.5 7t6.5 18l66 83q14 17 35 17h28q22 0 25.5 -9t-12.5 -25zM301 -77q-10 -28 -27.5 -50.5t-41 -38.5t-50.5 -25t-57 -9h-24q-11 0 -18 6.5t-7 17.5v53q0 11 6.5 17t16.5 6h23q29 0 52.5 16.5t33.5 43.5l-178 490
q-8 23 1.5 36.5t33.5 13.5h21q14 0 26 -8t17 -22l132 -364l133 364q5 14 16.5 22t25.5 8h22q24 0 33.5 -13.5t1.5 -36.5z" />
    <glyph glyph-name="thorn" unicode="&#xfe;" horiz-adv-x="557" 
d="M150 -206q0 -20 -12.5 -32.5t-32.5 -12.5h-10q-20 0 -32.5 12.5t-12.5 32.5v861q0 20 12.5 32.5t32.5 12.5h10q20 0 32.5 -12.5t12.5 -32.5v-209q26 29 61 46.5t79 17.5q42 0 74 -11t55.5 -29.5t39.5 -42t26 -47.5q23 -57 25 -130q-2 -73 -25 -130q-10 -24 -26 -47.5
t-39.5 -42t-55.5 -29.5t-74 -11q-44 0 -79 17.5t-61 46.5v-260zM150 197q0 -28 13.5 -48t34.5 -33t45.5 -19.5t46.5 -6.5q23 0 40.5 7t30.5 18t21.5 25.5t14.5 29.5q12 35 13 80q-1 45 -13 80q-6 15 -14.5 29.5t-21.5 25.5t-30.5 18t-40.5 7q-22 0 -46.5 -7t-45.5 -20.5
t-34.5 -33t-13.5 -45.5v-107z" />
    <glyph glyph-name="ydieresis" unicode="&#xff;" horiz-adv-x="533" 
d="M227 645q0 -20 -12.5 -32.5t-32.5 -12.5h-10q-20 0 -32.5 12.5t-12.5 32.5v10q0 20 12.5 32.5t32.5 12.5h10q20 0 32.5 -12.5t12.5 -32.5v-10zM407 645q0 -20 -12.5 -32.5t-32.5 -12.5h-10q-20 0 -32.5 12.5t-12.5 32.5v10q0 20 12.5 32.5t32.5 12.5h10q20 0 32.5 -12.5
t12.5 -32.5v-10zM301 -77q-10 -28 -27.5 -50.5t-41 -38.5t-50.5 -25t-57 -9h-24q-11 0 -18 6.5t-7 17.5v53q0 11 6.5 17t16.5 6h23q29 0 52.5 16.5t33.5 43.5l-178 490q-8 23 1.5 36.5t33.5 13.5h21q14 0 26 -8t17 -22l132 -364l133 364q5 14 16.5 22t25.5 8h22
q24 0 33.5 -13.5t1.5 -36.5z" />
    <glyph glyph-name="Amacron" unicode="&#x100;" horiz-adv-x="686" 
d="M528 846q0 -20 -12.5 -32.5t-32.5 -12.5h-280q-20 0 -32.5 12.5t-12.5 32.5v10q0 20 12.5 32.5t32.5 12.5h280q20 0 32.5 -12.5t12.5 -32.5v-10zM192 30q-5 -14 -17 -22t-26 -8h-21q-24 0 -33.5 13.5t-1.5 36.5l225 620q5 14 17 22t26 8h74q14 0 26 -8t17 -22l225 -620
q8 -23 -1.5 -36.5t-33.5 -13.5h-21q-14 0 -26 8t-17 22l-55 152q-35 -13 -74 -18t-77 -5t-77 5t-74 18zM281 276q27 -10 57.5 -13.5t59.5 -3.5t59.5 3.5t57.5 13.5l-117 321z" />
    <glyph glyph-name="amacron" unicode="&#x101;" horiz-adv-x="493" 
d="M432 646q0 -20 -12.5 -32.5t-32.5 -12.5h-280q-20 0 -32.5 12.5t-12.5 32.5v10q0 20 12.5 32.5t32.5 12.5h280q20 0 32.5 -12.5t12.5 -32.5v-10zM347 61q-15 -26 -43 -40.5t-55 -21.5q-32 -8 -68 -9q-33 0 -62 12.5t-51 34.5t-34.5 51t-12.5 62t12.5 62t34.5 51t51 34.5
t62 12.5h59q35 0 65 -9t42 -32v61q0 54 -24.5 72t-75.5 18q-38 0 -59 -10t-30 -22q-11 -14 -24.5 -26t-36.5 -12h-8q-20 0 -31.5 11.5t-6.5 28.5q5 18 16 39t33.5 39t58 30t88.5 12q56 0 94 -13t61.5 -40t34 -68.5t10.5 -98.5v-245q0 -20 -12.5 -32.5t-32.5 -12.5h-25
q-14 0 -22 8t-8 22v31zM121 150q0 -25 19 -47.5t58 -22.5q14 0 29 2q14 2 31.5 6t36.5 12q38 16 49 56q3 16 -1 30q-4 13 -13.5 20t-23 10t-29.5 3.5t-34 0.5h-62q-32 0 -46 -22.5t-14 -47.5z" />
    <glyph glyph-name="Abreve" unicode="&#x102;" horiz-adv-x="686" 
d="M483 890q0 -31 -11 -55t-29.5 -40.5t-44 -25.5t-55.5 -9t-55.5 9t-44 25.5t-29.5 40.5t-11 55v5q0 5 5 5h60q5 0 5 -5v-5q0 -32 20.5 -46t49.5 -14t49.5 14t20.5 46v5q0 5 5 5h60q5 0 5 -5v-5zM192 30q-5 -14 -17 -22t-26 -8h-21q-24 0 -33.5 13.5t-1.5 36.5l225 620
q5 14 17 22t26 8h74q14 0 26 -8t17 -22l225 -620q8 -23 -1.5 -36.5t-33.5 -13.5h-21q-14 0 -26 8t-17 22l-55 152q-35 -13 -74 -18t-77 -5t-77 5t-74 18zM281 276q27 -10 57.5 -13.5t59.5 -3.5t59.5 3.5t57.5 13.5l-117 321z" />
    <glyph glyph-name="abreve" unicode="&#x103;" horiz-adv-x="493" 
d="M387 690q0 -31 -11 -55t-30 -40.5t-44.5 -25.5t-54.5 -9q-30 0 -55.5 9t-44 25.5t-29.5 40.5t-11 55v5q0 5 5 5h60q5 0 5 -5v-5q0 -32 20.5 -46t49.5 -14t49.5 14t20.5 46v5q0 5 5 5h60q5 0 5 -5v-5zM347 61q-15 -26 -43 -40.5t-55 -21.5q-32 -8 -68 -9q-33 0 -62 12.5
t-51 34.5t-34.5 51t-12.5 62t12.5 62t34.5 51t51 34.5t62 12.5h59q35 0 65 -9t42 -32v61q0 54 -24.5 72t-75.5 18q-38 0 -59 -10t-30 -22q-11 -14 -24.5 -26t-36.5 -12h-8q-20 0 -31.5 11.5t-6.5 28.5q5 18 16 39t33.5 39t58 30t88.5 12q56 0 94 -13t61.5 -40t34 -68.5
t10.5 -98.5v-245q0 -20 -12.5 -32.5t-32.5 -12.5h-25q-14 0 -22 8t-8 22v31zM121 150q0 -25 19 -47.5t58 -22.5q14 0 29 2q14 2 31.5 6t36.5 12q38 16 49 56q3 16 -1 30q-4 13 -13.5 20t-23 10t-29.5 3.5t-34 0.5h-62q-32 0 -46 -22.5t-14 -47.5z" />
    <glyph glyph-name="Aogonek" unicode="&#x104;" horiz-adv-x="686" 
d="M641 -173q2 -18 -7.5 -29t-27.5 -9q-74 3 -111.5 19.5t-50 40t-4 51t25 53.5t37 48t33.5 34q5 5 13 8t15 3h33h1l-49 136q-35 -13 -74 -18t-77 -5t-77 5t-74 18l-55 -152q-5 -14 -17 -22t-26 -8h-21q-24 0 -33.5 13.5t-1.5 36.5l225 620q5 14 17 22t26 8h74q14 0 26 -8
t17 -22l225 -620q8 -23 -1.5 -36.5t-33.5 -13.5h-21q-25 0 -38 21l-3 -3q-16 -11 -34 -26t-32.5 -30.5t-22.5 -31t-3.5 -28.5t23.5 -22t59 -12q17 -2 29.5 -12t14.5 -27zM281 276q27 -10 57.5 -13.5t59.5 -3.5t59.5 3.5t57.5 13.5l-117 321z" />
    <glyph glyph-name="aogonek" unicode="&#x105;" horiz-adv-x="493" 
d="M441 -173q2 -18 -7.5 -29t-27.5 -9q-74 3 -111.5 19.5t-50 40t-4 51t25 53.5t37 48t33.5 34q4 4 11 7v19q-15 -26 -43 -40.5t-55 -21.5q-32 -8 -68 -9q-33 0 -62 12.5t-51 34.5t-34.5 51t-12.5 62t12.5 62t34.5 51t51 34.5t62 12.5h59q35 0 65 -9t42 -32v61
q0 54 -24.5 72t-75.5 18q-38 0 -59 -10t-30 -22q-11 -14 -24.5 -26t-36.5 -12h-8q-20 0 -31.5 11.5t-6.5 28.5q5 18 16 39t33.5 39t58 30t88.5 12q56 0 94 -13t61.5 -40t34 -68.5t10.5 -98.5v-245q0 -20 -12.5 -32.5t-32.5 -12.5h-21q-23 -18 -43 -39.5t-24.5 -40.5
t13 -33.5t69.5 -18.5q17 -2 29.5 -12t14.5 -27zM121 150q0 -25 19 -47.5t58 -22.5q14 0 29 2q14 2 31.5 6t36.5 12q38 16 49 56q3 16 -1 30q-4 13 -13.5 20t-23 10t-29.5 3.5t-34 0.5h-62q-32 0 -46 -22.5t-14 -47.5z" />
    <glyph glyph-name="Cacute" unicode="&#x106;" horiz-adv-x="661" 
d="M309 787q-5 -5 -13.5 -8.5t-16.5 -3.5h-15q-15 0 -18.5 7t6.5 18l66 83q14 17 35 17h28q22 0 25.5 -9t-12.5 -25zM625 162q-30 -85 -100.5 -128.5t-167.5 -43.5q-79 0 -140.5 26.5t-103.5 74.5t-64 114t-22 145q0 75 21 141t62 114.5t103 76.5t144 28q44 0 85.5 -10
t77 -30t62.5 -50.5t42 -71.5q8 -21 -3 -34.5t-34 -13.5h-16q-15 0 -27 8.5t-19 22.5q-24 47 -69 68t-99 21q-59 0 -102 -21t-71.5 -57.5t-42.5 -86t-14 -105.5q0 -54 13 -102.5t41 -86t71.5 -59.5t104.5 -22q60 0 102.5 24t65.5 75q7 14 18.5 22.5t26.5 8.5h17
q23 0 34 -13.5t4 -34.5z" />
    <glyph glyph-name="cacute" unicode="&#x107;" horiz-adv-x="525" 
d="M241 587q-5 -5 -13.5 -8.5t-16.5 -3.5h-15q-15 0 -18.5 7t6.5 18l66 83q14 17 35 17h28q22 0 25.5 -9t-12.5 -25zM480 112q-12 -31 -32.5 -54t-48 -38t-60 -22.5t-67.5 -7.5q-58 0 -103 19t-75.5 53.5t-46 82t-15.5 105.5q0 55 15 102.5t45 82.5t75 55t105 20q35 0 67 -7
t59.5 -22t48.5 -38t33 -55q8 -21 -3.5 -34.5t-34.5 -13.5h-16q-15 0 -27 9t-20 22q-17 26 -44.5 37.5t-62.5 11.5q-39 0 -65.5 -13.5t-43 -36.5t-24 -54t-7.5 -66t7.5 -66t24 -54t43 -36.5t65.5 -13.5q34 0 62 11t45 38q8 13 20 22t27 9h16q23 0 34.5 -13.5t3.5 -34.5z" />
    <glyph glyph-name="Ccircumflex" unicode="&#x108;" horiz-adv-x="661" 
d="M258 788q-13 -13 -32 -13h-13q-15 0 -18.5 7t5.5 18l66 83q15 17 36 17h57q22 0 36 -17l66 -83q9 -11 5.5 -18t-17.5 -7h-14q-19 0 -32 13l-72 73zM625 162q-30 -85 -100.5 -128.5t-167.5 -43.5q-79 0 -140.5 26.5t-103.5 74.5t-64 114t-22 145q0 75 21 141t62 114.5
t103 76.5t144 28q44 0 85.5 -10t77 -30t62.5 -50.5t42 -71.5q8 -21 -3 -34.5t-34 -13.5h-16q-15 0 -27 8.5t-19 22.5q-24 47 -69 68t-99 21q-59 0 -102 -21t-71.5 -57.5t-42.5 -86t-14 -105.5q0 -54 13 -102.5t41 -86t71.5 -59.5t104.5 -22q60 0 102.5 24t65.5 75
q7 14 18.5 22.5t26.5 8.5h17q23 0 34 -13.5t4 -34.5z" />
    <glyph glyph-name="ccircumflex" unicode="&#x109;" horiz-adv-x="525" 
d="M190 588q-13 -13 -32 -13h-13q-15 0 -18.5 7t5.5 18l66 83q15 17 36 17h57q22 0 36 -17l66 -83q9 -11 5.5 -18t-17.5 -7h-14q-19 0 -32 13l-72 73zM480 112q-12 -31 -32.5 -54t-48 -38t-60 -22.5t-67.5 -7.5q-58 0 -103 19t-75.5 53.5t-46 82t-15.5 105.5q0 55 15 102.5
t45 82.5t75 55t105 20q35 0 67 -7t59.5 -22t48.5 -38t33 -55q8 -21 -3.5 -34.5t-34.5 -13.5h-16q-15 0 -27 9t-20 22q-17 26 -44.5 37.5t-62.5 11.5q-39 0 -65.5 -13.5t-43 -36.5t-24 -54t-7.5 -66t7.5 -66t24 -54t43 -36.5t65.5 -13.5q34 0 62 11t45 38q8 13 20 22t27 9h16
q23 0 34.5 -13.5t3.5 -34.5z" />
    <glyph glyph-name="Cdotaccent" unicode="&#x10a;" horiz-adv-x="661" 
d="M391 825q0 -20 -12.5 -32.5t-32.5 -12.5h-30q-20 0 -32.5 12.5t-12.5 32.5v30q0 20 12.5 32.5t32.5 12.5h30q20 0 32.5 -12.5t12.5 -32.5v-30zM625 162q-30 -85 -100.5 -128.5t-167.5 -43.5q-79 0 -140.5 26.5t-103.5 74.5t-64 114t-22 145q0 75 21 141t62 114.5
t103 76.5t144 28q44 0 85.5 -10t77 -30t62.5 -50.5t42 -71.5q8 -21 -3 -34.5t-34 -13.5h-16q-15 0 -27 8.5t-19 22.5q-24 47 -69 68t-99 21q-59 0 -102 -21t-71.5 -57.5t-42.5 -86t-14 -105.5q0 -54 13 -102.5t41 -86t71.5 -59.5t104.5 -22q60 0 102.5 24t65.5 75
q7 14 18.5 22.5t26.5 8.5h17q23 0 34 -13.5t4 -34.5z" />
    <glyph glyph-name="cdotaccent" unicode="&#x10b;" horiz-adv-x="525" 
d="M323 625q0 -20 -12.5 -32.5t-32.5 -12.5h-30q-20 0 -32.5 12.5t-12.5 32.5v30q0 20 12.5 32.5t32.5 12.5h30q20 0 32.5 -12.5t12.5 -32.5v-30zM480 112q-12 -31 -32.5 -54t-48 -38t-60 -22.5t-67.5 -7.5q-58 0 -103 19t-75.5 53.5t-46 82t-15.5 105.5q0 55 15 102.5
t45 82.5t75 55t105 20q35 0 67 -7t59.5 -22t48.5 -38t33 -55q8 -21 -3.5 -34.5t-34.5 -13.5h-16q-15 0 -27 9t-20 22q-17 26 -44.5 37.5t-62.5 11.5q-39 0 -65.5 -13.5t-43 -36.5t-24 -54t-7.5 -66t7.5 -66t24 -54t43 -36.5t65.5 -13.5q34 0 62 11t45 38q8 13 20 22t27 9h16
q23 0 34.5 -13.5t3.5 -34.5z" />
    <glyph glyph-name="Ccaron" unicode="&#x10c;" horiz-adv-x="661" 
d="M395 792q-6 -8 -16 -12.5t-20 -4.5h-57q-22 0 -36 17l-66 83q-9 11 -5.5 18t18.5 7h13q19 0 32 -13l73 -74l72 74q13 13 32 13h14q14 0 17.5 -7t-5.5 -18zM625 162q-30 -85 -100.5 -128.5t-167.5 -43.5q-79 0 -140.5 26.5t-103.5 74.5t-64 114t-22 145q0 75 21 141
t62 114.5t103 76.5t144 28q44 0 85.5 -10t77 -30t62.5 -50.5t42 -71.5q8 -21 -3 -34.5t-34 -13.5h-16q-15 0 -27 8.5t-19 22.5q-24 47 -69 68t-99 21q-59 0 -102 -21t-71.5 -57.5t-42.5 -86t-14 -105.5q0 -54 13 -102.5t41 -86t71.5 -59.5t104.5 -22q60 0 102.5 24t65.5 75
q7 14 18.5 22.5t26.5 8.5h17q23 0 34 -13.5t4 -34.5z" />
    <glyph glyph-name="ccaron" unicode="&#x10d;" horiz-adv-x="525" 
d="M327 592q-6 -8 -16 -12.5t-20 -4.5h-57q-22 0 -36 17l-66 83q-9 11 -5.5 18t18.5 7h13q19 0 32 -13l73 -74l72 74q13 13 32 13h14q14 0 17.5 -7t-5.5 -18zM480 112q-12 -31 -32.5 -54t-48 -38t-60 -22.5t-67.5 -7.5q-58 0 -103 19t-75.5 53.5t-46 82t-15.5 105.5
q0 55 15 102.5t45 82.5t75 55t105 20q35 0 67 -7t59.5 -22t48.5 -38t33 -55q8 -21 -3.5 -34.5t-34.5 -13.5h-16q-15 0 -27 9t-20 22q-17 26 -44.5 37.5t-62.5 11.5q-39 0 -65.5 -13.5t-43 -36.5t-24 -54t-7.5 -66t7.5 -66t24 -54t43 -36.5t65.5 -13.5q34 0 62 11t45 38
q8 13 20 22t27 9h16q23 0 34.5 -13.5t3.5 -34.5z" />
    <glyph glyph-name="Dcaron" unicode="&#x10e;" horiz-adv-x="628" 
d="M378 792q-6 -8 -15.5 -12.5t-19.5 -4.5h-58q-10 0 -19.5 4.5t-15.5 12.5l-66 83q-9 11 -6 18t18 7h14q19 0 32 -13l72 -74l72 74q13 13 32 13h14q15 0 18.5 -7t-6.5 -18zM590 270q0 -56 -21 -105t-58 -86t-85.5 -58t-104.5 -21h-236q-20 0 -32.5 12.5t-12.5 32.5v610
q0 20 12.5 32.5t32.5 12.5h236q56 0 104.5 -21t85.5 -58t58 -85.5t21 -104.5v-161zM140 100h181q35 0 65.5 13.5t53.5 36.5t36.5 54t13.5 66v161q0 35 -13.5 65.5t-36.5 53.5t-53.5 36.5t-65.5 13.5h-181v-500z" />
    <glyph glyph-name="dcaron" unicode="&#x10f;" horiz-adv-x="710" 
d="M390 54q-25 -29 -60.5 -46.5t-79.5 -17.5q-70 0 -112 28.5t-66 67.5q-19 33 -29 76t-10 88t10 88t29 76q24 39 66 67.5t112 28.5q44 0 79.5 -17.5t60.5 -46.5v209q0 20 12.5 32.5t32.5 12.5h10q20 0 32.5 -12.5t12.5 -32.5v-610q0 -20 -12.5 -32.5t-32.5 -12.5h-28
q-12 0 -19.5 7.5t-7.5 19.5v27zM620 474q-5 -8 -14 -13.5t-20 -5.5q-21 0 -15 21l33 104h-21q-20 0 -20 21v54q0 20 12.5 32.5t32.5 12.5h30q20 0 32.5 -12.5t12.5 -32.5v-63q0 -11 -7 -22zM130 250q1 -45 14 -80q5 -15 13.5 -29.5t21.5 -25.5t30.5 -18t40.5 -7
q22 0 46.5 6.5t45.5 19.5t34.5 33t13.5 48v107q0 26 -13.5 45.5t-34.5 33t-45.5 20.5t-46.5 7q-23 0 -40.5 -7t-30.5 -18t-21.5 -25.5t-13.5 -29.5q-13 -35 -14 -80z" />
    <glyph glyph-name="Dcroat" unicode="&#x110;" horiz-adv-x="628" 
d="M590 270q0 -56 -21 -105t-58 -86t-85.5 -58t-104.5 -21h-236q-20 0 -32.5 12.5t-12.5 32.5v250q-18 2 -29 14t-11 31v10q0 19 11 31t29 14v260q0 20 12.5 32.5t32.5 12.5h236q56 0 104.5 -21t85.5 -58t58 -85.5t21 -104.5v-161zM140 100h181q35 0 65.5 13.5t53.5 36.5
t36.5 54t13.5 66v161q0 35 -13.5 65.5t-36.5 53.5t-53.5 36.5t-65.5 13.5h-181v-205h105q20 0 32.5 -12.5t12.5 -32.5v-10q0 -20 -12.5 -32.5t-32.5 -12.5h-105v-195z" />
    <glyph glyph-name="dcroat" unicode="&#x111;" horiz-adv-x="619" 
d="M390 54q-25 -29 -60.5 -46.5t-79.5 -17.5q-70 0 -112 28.5t-66 67.5q-19 33 -29 76t-10 88t10 88t29 76q24 39 66 67.5t112 28.5q44 0 79.5 -17.5t60.5 -46.5v155h-95q-20 0 -32.5 12.5t-12.5 32.5v10q0 20 12.5 32.5t32.5 12.5h280q20 0 32.5 -12.5t12.5 -32.5v-10
q0 -20 -12.5 -32.5t-32.5 -12.5h-85v-556q0 -20 -12.5 -32.5t-32.5 -12.5h-28q-12 0 -19.5 7.5t-7.5 19.5v27zM130 250q1 -45 14 -80q5 -15 13.5 -29.5t21.5 -25.5t30.5 -18t40.5 -7q22 0 46.5 6.5t45.5 19.5t34.5 33t13.5 48v107q0 26 -13.5 45.5t-34.5 33t-45.5 20.5
t-46.5 7q-23 0 -40.5 -7t-30.5 -18t-21.5 -25.5t-13.5 -29.5q-13 -35 -14 -80z" />
    <glyph glyph-name="Emacron" unicode="&#x112;" horiz-adv-x="552" 
d="M461 846q0 -20 -12.5 -32.5t-32.5 -12.5h-280q-20 0 -32.5 12.5t-12.5 32.5v10q0 20 12.5 32.5t32.5 12.5h280q20 0 32.5 -12.5t12.5 -32.5v-10zM510 45q0 -20 -12.5 -32.5t-32.5 -12.5h-380q-20 0 -32.5 12.5t-12.5 32.5v610q0 20 12.5 32.5t32.5 12.5h380
q20 0 32.5 -12.5t12.5 -32.5v-10q0 -20 -12.5 -32.5t-32.5 -12.5h-325v-144q0 -20 7 -31.5t19.5 -17t29.5 -6.5t37 -1h172q20 0 32.5 -12.5t12.5 -32.5v-10q0 -20 -12.5 -32.5t-32.5 -12.5h-159q-35 0 -61 5.5t-45 18.5v-224h325q20 0 32.5 -12.5t12.5 -32.5v-10z" />
    <glyph glyph-name="emacron" unicode="&#x113;" horiz-adv-x="521" 
d="M446 646q0 -20 -12.5 -32.5t-32.5 -12.5h-280q-20 0 -32.5 12.5t-12.5 32.5v10q0 20 12.5 32.5t32.5 12.5h280q20 0 32.5 -12.5t12.5 -32.5v-10zM468 94q-23 -45 -73.5 -74.5t-122.5 -29.5q-60 0 -105 19.5t-75 54t-45 82.5t-15 104q0 53 13.5 100t41.5 82.5t71.5 56.5
t103.5 21q49 0 86.5 -14t65 -38.5t45 -58.5t25.5 -73q10 -50 4 -105l-1 -5q0 -6 -6 -6h-241q-49 0 -70 12.5t-28 33.5v-56q0 -7 3.5 -27t16.5 -40.5t39 -36.5t71 -16q24 0 50 6.5t45 28.5q8 10 19.5 17.5t25.5 7.5h20q23 0 34.5 -13t1.5 -33zM176 294q13 -3 29.5 -3.5
t34.5 -0.5h142v10q0 11 -3.5 31.5t-15.5 40t-36 34t-65 14.5q-28 0 -47.5 -7t-33 -17.5t-21.5 -24t-12 -27.5q-5 -16 3 -31t25 -19z" />
    <glyph glyph-name="Ebreve" unicode="&#x114;" horiz-adv-x="552" 
d="M416 890q0 -31 -11 -55t-29.5 -40.5t-44 -25.5t-55.5 -9t-55.5 9t-44 25.5t-29.5 40.5t-11 55v5q0 5 5 5h60q5 0 5 -5v-5q0 -32 20.5 -46t49.5 -14t49.5 14t20.5 46v5q0 5 5 5h60q5 0 5 -5v-5zM510 45q0 -20 -12.5 -32.5t-32.5 -12.5h-380q-20 0 -32.5 12.5t-12.5 32.5
v610q0 20 12.5 32.5t32.5 12.5h380q20 0 32.5 -12.5t12.5 -32.5v-10q0 -20 -12.5 -32.5t-32.5 -12.5h-325v-144q0 -20 7 -31.5t19.5 -17t29.5 -6.5t37 -1h172q20 0 32.5 -12.5t12.5 -32.5v-10q0 -20 -12.5 -32.5t-32.5 -12.5h-159q-35 0 -61 5.5t-45 18.5v-224h325
q20 0 32.5 -12.5t12.5 -32.5v-10z" />
    <glyph glyph-name="ebreve" unicode="&#x115;" horiz-adv-x="521" 
d="M401 690q0 -31 -11 -55t-30 -40.5t-44.5 -25.5t-54.5 -9q-30 0 -55.5 9t-44 25.5t-29.5 40.5t-11 55v5q0 5 5 5h60q5 0 5 -5v-5q0 -32 20.5 -46t49.5 -14t49.5 14t20.5 46v5q0 5 5 5h60q5 0 5 -5v-5zM468 94q-23 -45 -73.5 -74.5t-122.5 -29.5q-60 0 -105 19.5t-75 54
t-45 82.5t-15 104q0 53 13.5 100t41.5 82.5t71.5 56.5t103.5 21q49 0 86.5 -14t65 -38.5t45 -58.5t25.5 -73q10 -50 4 -105l-1 -5q0 -6 -6 -6h-241q-49 0 -70 12.5t-28 33.5v-56q0 -7 3.5 -27t16.5 -40.5t39 -36.5t71 -16q24 0 50 6.5t45 28.5q8 10 19.5 17.5t25.5 7.5h20
q23 0 34.5 -13t1.5 -33zM176 294q13 -3 29.5 -3.5t34.5 -0.5h142v10q0 11 -3.5 31.5t-15.5 40t-36 34t-65 14.5q-28 0 -47.5 -7t-33 -17.5t-21.5 -24t-12 -27.5q-5 -16 3 -31t25 -19z" />
    <glyph glyph-name="Edotaccent" unicode="&#x116;" horiz-adv-x="552" 
d="M336 825q0 -20 -12.5 -32.5t-32.5 -12.5h-30q-20 0 -32.5 12.5t-12.5 32.5v30q0 20 12.5 32.5t32.5 12.5h30q20 0 32.5 -12.5t12.5 -32.5v-30zM510 45q0 -20 -12.5 -32.5t-32.5 -12.5h-380q-20 0 -32.5 12.5t-12.5 32.5v610q0 20 12.5 32.5t32.5 12.5h380
q20 0 32.5 -12.5t12.5 -32.5v-10q0 -20 -12.5 -32.5t-32.5 -12.5h-325v-144q0 -20 7 -31.5t19.5 -17t29.5 -6.5t37 -1h172q20 0 32.5 -12.5t12.5 -32.5v-10q0 -20 -12.5 -32.5t-32.5 -12.5h-159q-35 0 -61 5.5t-45 18.5v-224h325q20 0 32.5 -12.5t12.5 -32.5v-10z" />
    <glyph glyph-name="edotaccent" unicode="&#x117;" horiz-adv-x="521" 
d="M321 625q0 -20 -12.5 -32.5t-32.5 -12.5h-30q-20 0 -32.5 12.5t-12.5 32.5v30q0 20 12.5 32.5t32.5 12.5h30q20 0 32.5 -12.5t12.5 -32.5v-30zM468 94q-23 -45 -73.5 -74.5t-122.5 -29.5q-60 0 -105 19.5t-75 54t-45 82.5t-15 104q0 53 13.5 100t41.5 82.5t71.5 56.5
t103.5 21q49 0 86.5 -14t65 -38.5t45 -58.5t25.5 -73q10 -50 4 -105l-1 -5q0 -6 -6 -6h-241q-49 0 -70 12.5t-28 33.5v-56q0 -7 3.5 -27t16.5 -40.5t39 -36.5t71 -16q24 0 50 6.5t45 28.5q8 10 19.5 17.5t25.5 7.5h20q23 0 34.5 -13t1.5 -33zM176 294q13 -3 29.5 -3.5
t34.5 -0.5h142v10q0 11 -3.5 31.5t-15.5 40t-36 34t-65 14.5q-28 0 -47.5 -7t-33 -17.5t-21.5 -24t-12 -27.5q-5 -16 3 -31t25 -19z" />
    <glyph glyph-name="Eogonek" unicode="&#x118;" horiz-adv-x="552" 
d="M495 -173q2 -18 -7.5 -29t-27.5 -9q-61 3 -97 15t-53 29.5t-18 39t8 44t24.5 44t31.5 39.5h-271q-20 0 -32.5 12.5t-12.5 32.5v610q0 20 12.5 32.5t32.5 12.5h380q20 0 32.5 -12.5t12.5 -32.5v-10q0 -20 -12.5 -32.5t-32.5 -12.5h-325v-144q0 -20 7 -31.5t19.5 -17
t29.5 -6.5t37 -1h172q20 0 32.5 -12.5t12.5 -32.5v-10q0 -20 -12.5 -32.5t-32.5 -12.5h-159q-35 0 -61 5.5t-45 18.5v-224h325q20 0 32.5 -12.5t12.5 -32.5v-10q0 -20 -12.5 -32.5t-32.5 -12.5h-29q-23 -18 -43.5 -39.5t-25 -40.5t13 -33.5t69.5 -18.5q17 -2 29.5 -12
t14.5 -27z" />
    <glyph glyph-name="eogonek" unicode="&#x119;" horiz-adv-x="521" 
d="M415 -173q2 -18 -7.5 -29t-27.5 -9q-88 4 -125.5 26t-42 52t13.5 63t41 60q-59 1 -103 20.5t-73.5 54t-44 82t-14.5 103.5q0 53 13.5 100t41.5 82.5t71.5 56.5t103.5 21q49 0 86.5 -14t65 -38.5t45 -58.5t25.5 -73q10 -50 4 -105l-1 -5q0 -6 -6 -6h-241q-49 0 -70 12.5
t-28 33.5v-56q0 -7 3.5 -27t16.5 -40.5t39 -36.5t71 -16q24 0 50 6.5t45 28.5q8 10 19.5 17.5t25.5 7.5h20q23 0 34.5 -13t1.5 -33q-14 -29 -41 -52t-65 -37q-24 -18 -46 -40.5t-28 -42.5t11 -35t71 -19q17 -2 29.5 -12t14.5 -27zM176 294q13 -3 29.5 -3.5t34.5 -0.5h142v10
q0 11 -3.5 31.5t-15.5 40t-36 34t-65 14.5q-28 0 -47.5 -7t-33 -17.5t-21.5 -24t-12 -27.5q-5 -16 3 -31t25 -19z" />
    <glyph glyph-name="Ecaron" unicode="&#x11a;" horiz-adv-x="552" 
d="M340 792q-6 -8 -15.5 -12.5t-19.5 -4.5h-58q-10 0 -19.5 4.5t-15.5 12.5l-66 83q-9 11 -6 18t18 7h14q19 0 32 -13l72 -74l72 74q13 13 32 13h14q15 0 18.5 -7t-6.5 -18zM510 45q0 -20 -12.5 -32.5t-32.5 -12.5h-380q-20 0 -32.5 12.5t-12.5 32.5v610q0 20 12.5 32.5
t32.5 12.5h380q20 0 32.5 -12.5t12.5 -32.5v-10q0 -20 -12.5 -32.5t-32.5 -12.5h-325v-144q0 -20 7 -31.5t19.5 -17t29.5 -6.5t37 -1h172q20 0 32.5 -12.5t12.5 -32.5v-10q0 -20 -12.5 -32.5t-32.5 -12.5h-159q-35 0 -61 5.5t-45 18.5v-224h325q20 0 32.5 -12.5t12.5 -32.5
v-10z" />
    <glyph glyph-name="ecaron" unicode="&#x11b;" horiz-adv-x="521" 
d="M325 592q-6 -8 -16 -12.5t-20 -4.5h-57q-22 0 -36 17l-66 83q-9 11 -5.5 18t18.5 7h13q19 0 32 -13l73 -74l72 74q13 13 32 13h14q14 0 17.5 -7t-5.5 -18zM468 94q-23 -45 -73.5 -74.5t-122.5 -29.5q-60 0 -105 19.5t-75 54t-45 82.5t-15 104q0 53 13.5 100t41.5 82.5
t71.5 56.5t103.5 21q49 0 86.5 -14t65 -38.5t45 -58.5t25.5 -73q10 -50 4 -105l-1 -5q0 -6 -6 -6h-241q-49 0 -70 12.5t-28 33.5v-56q0 -7 3.5 -27t16.5 -40.5t39 -36.5t71 -16q24 0 50 6.5t45 28.5q8 10 19.5 17.5t25.5 7.5h20q23 0 34.5 -13t1.5 -33zM176 294
q13 -3 29.5 -3.5t34.5 -0.5h142v10q0 11 -3.5 31.5t-15.5 40t-36 34t-65 14.5q-28 0 -47.5 -7t-33 -17.5t-21.5 -24t-12 -27.5q-5 -16 3 -31t25 -19z" />
    <glyph glyph-name="Gcircumflex" unicode="&#x11c;" horiz-adv-x="694" 
d="M275 788q-13 -13 -32 -13h-14q-15 0 -18 7t6 18l66 83q14 17 35 17h58q21 0 35 -17l66 -83q10 -11 6.5 -18t-18.5 -7h-14q-19 0 -32 13l-72 73zM650 239q0 -63 -24.5 -109.5t-65 -77.5t-92.5 -46.5t-108 -15.5q-82 0 -144 28t-103 76.5t-62 114.5t-21 141q0 79 22 145
t64 114t103.5 74.5t140.5 26.5q95 0 168.5 -39.5t107.5 -123.5q8 -20 -2.5 -33.5t-33.5 -13.5h-16q-15 0 -27 8.5t-19 22.5q-25 50 -73.5 69.5t-104.5 19.5q-61 0 -104.5 -22t-71.5 -59.5t-41 -86t-13 -102.5q0 -56 14 -105.5t42.5 -86t71.5 -57.5t102 -21q34 0 68 8
t61 25.5t44 45t17 65.5v76h-176q-20 0 -32.5 12.5t-12.5 32.5v10q0 20 12.5 32.5t32.5 12.5h231q20 0 32.5 -12.5t12.5 -32.5v-116z" />
    <glyph glyph-name="gcircumflex" unicode="&#x11d;" horiz-adv-x="547" 
d="M201 588q-13 -13 -32 -13h-13q-15 0 -18.5 7t5.5 18l66 83q15 17 36 17h57q22 0 36 -17l66 -83q9 -11 5.5 -18t-17.5 -7h-14q-19 0 -32 13l-72 73zM491 -28q-4 -25 -16.5 -56.5t-38 -59.5t-66.5 -47t-104 -19q-42 0 -73.5 7.5t-53.5 20.5t-36 30t-22 36q-10 20 1 33
t34 13h18q14 0 25.5 -8t20.5 -17q11 -11 31 -18t55 -7q25 0 43.5 6t32.5 15.5t23.5 21.5t15.5 25q14 30 15 68v38q-25 -29 -60.5 -46.5t-79.5 -17.5q-56 0 -94 19.5t-62 48.5t-38 62q-24 57 -26 130q2 73 26 130q14 33 37.5 63t62.5 48.5t94 18.5q44 0 79.5 -17.5
t60.5 -46.5v27q0 12 7.5 19.5t19.5 7.5h28q20 0 32.5 -12.5t12.5 -32.5v-394q0 -20 -0.5 -44.5t-4.5 -44.5zM136 250q1 -45 14 -80q5 -15 13.5 -29.5t21.5 -25.5t30.5 -18t40.5 -7q22 0 46.5 7t45.5 20.5t34.5 33.5t13.5 46v107q0 27 -13.5 47t-34.5 33t-45.5 19.5
t-46.5 6.5q-23 0 -40.5 -7t-30.5 -18t-21.5 -25.5t-13.5 -29.5q-13 -35 -14 -80z" />
    <glyph glyph-name="Gbreve" unicode="&#x11e;" horiz-adv-x="694" 
d="M487 890q0 -31 -11 -55t-29.5 -40.5t-44 -25.5t-55.5 -9t-55.5 9t-44 25.5t-29.5 40.5t-11 55v5q0 5 5 5h60q5 0 5 -5v-5q0 -32 20.5 -46t49.5 -14t49.5 14t20.5 46v5q0 5 5 5h60q5 0 5 -5v-5zM650 239q0 -63 -24.5 -109.5t-65 -77.5t-92.5 -46.5t-108 -15.5
q-82 0 -144 28t-103 76.5t-62 114.5t-21 141q0 79 22 145t64 114t103.5 74.5t140.5 26.5q95 0 168.5 -39.5t107.5 -123.5q8 -20 -2.5 -33.5t-33.5 -13.5h-16q-15 0 -27 8.5t-19 22.5q-25 50 -73.5 69.5t-104.5 19.5q-61 0 -104.5 -22t-71.5 -59.5t-41 -86t-13 -102.5
q0 -56 14 -105.5t42.5 -86t71.5 -57.5t102 -21q34 0 68 8t61 25.5t44 45t17 65.5v76h-176q-20 0 -32.5 12.5t-12.5 32.5v10q0 20 12.5 32.5t32.5 12.5h231q20 0 32.5 -12.5t12.5 -32.5v-116z" />
    <glyph glyph-name="gbreve" unicode="&#x11f;" horiz-adv-x="547" 
d="M414 690q0 -31 -11 -55t-30 -40.5t-44.5 -25.5t-54.5 -9q-30 0 -55.5 9t-44 25.5t-29.5 40.5t-11 55v5q0 5 5 5h60q5 0 5 -5v-5q0 -32 20.5 -46t49.5 -14t49.5 14t20.5 46v5q0 5 5 5h60q5 0 5 -5v-5zM491 -28q-4 -25 -16.5 -56.5t-38 -59.5t-66.5 -47t-104 -19
q-42 0 -73.5 7.5t-53.5 20.5t-36 30t-22 36q-10 20 1 33t34 13h18q14 0 25.5 -8t20.5 -17q11 -11 31 -18t55 -7q25 0 43.5 6t32.5 15.5t23.5 21.5t15.5 25q14 30 15 68v38q-25 -29 -60.5 -46.5t-79.5 -17.5q-56 0 -94 19.5t-62 48.5t-38 62q-24 57 -26 130q2 73 26 130
q14 33 37.5 63t62.5 48.5t94 18.5q44 0 79.5 -17.5t60.5 -46.5v27q0 12 7.5 19.5t19.5 7.5h28q20 0 32.5 -12.5t12.5 -32.5v-394q0 -20 -0.5 -44.5t-4.5 -44.5zM136 250q1 -45 14 -80q5 -15 13.5 -29.5t21.5 -25.5t30.5 -18t40.5 -7q22 0 46.5 7t45.5 20.5t34.5 33.5
t13.5 46v107q0 27 -13.5 47t-34.5 33t-45.5 19.5t-46.5 6.5q-23 0 -40.5 -7t-30.5 -18t-21.5 -25.5t-13.5 -29.5q-13 -35 -14 -80z" />
    <glyph glyph-name="Gdotaccent" unicode="&#x120;" horiz-adv-x="694" 
d="M407 825q0 -20 -12.5 -32.5t-32.5 -12.5h-30q-20 0 -32.5 12.5t-12.5 32.5v30q0 20 12.5 32.5t32.5 12.5h30q20 0 32.5 -12.5t12.5 -32.5v-30zM650 239q0 -63 -24.5 -109.5t-65 -77.5t-92.5 -46.5t-108 -15.5q-82 0 -144 28t-103 76.5t-62 114.5t-21 141q0 79 22 145
t64 114t103.5 74.5t140.5 26.5q95 0 168.5 -39.5t107.5 -123.5q8 -20 -2.5 -33.5t-33.5 -13.5h-16q-15 0 -27 8.5t-19 22.5q-25 50 -73.5 69.5t-104.5 19.5q-61 0 -104.5 -22t-71.5 -59.5t-41 -86t-13 -102.5q0 -56 14 -105.5t42.5 -86t71.5 -57.5t102 -21q34 0 68 8
t61 25.5t44 45t17 65.5v76h-176q-20 0 -32.5 12.5t-12.5 32.5v10q0 20 12.5 32.5t32.5 12.5h231q20 0 32.5 -12.5t12.5 -32.5v-116z" />
    <glyph glyph-name="gdotaccent" unicode="&#x121;" horiz-adv-x="547" 
d="M334 625q0 -20 -12.5 -32.5t-32.5 -12.5h-30q-20 0 -32.5 12.5t-12.5 32.5v30q0 20 12.5 32.5t32.5 12.5h30q20 0 32.5 -12.5t12.5 -32.5v-30zM491 -28q-4 -25 -16.5 -56.5t-38 -59.5t-66.5 -47t-104 -19q-42 0 -73.5 7.5t-53.5 20.5t-36 30t-22 36q-10 20 1 33t34 13h18
q14 0 25.5 -8t20.5 -17q11 -11 31 -18t55 -7q25 0 43.5 6t32.5 15.5t23.5 21.5t15.5 25q14 30 15 68v38q-25 -29 -60.5 -46.5t-79.5 -17.5q-56 0 -94 19.5t-62 48.5t-38 62q-24 57 -26 130q2 73 26 130q14 33 37.5 63t62.5 48.5t94 18.5q44 0 79.5 -17.5t60.5 -46.5v27
q0 12 7.5 19.5t19.5 7.5h28q20 0 32.5 -12.5t12.5 -32.5v-394q0 -20 -0.5 -44.5t-4.5 -44.5zM136 250q1 -45 14 -80q5 -15 13.5 -29.5t21.5 -25.5t30.5 -18t40.5 -7q22 0 46.5 7t45.5 20.5t34.5 33.5t13.5 46v107q0 27 -13.5 47t-34.5 33t-45.5 19.5t-46.5 6.5
q-23 0 -40.5 -7t-30.5 -18t-21.5 -25.5t-13.5 -29.5q-13 -35 -14 -80z" />
    <glyph glyph-name="uni0122" unicode="&#x122;" horiz-adv-x="694" 
d="M650 239q0 -63 -24.5 -109.5t-65 -77.5t-92.5 -46.5t-108 -15.5q-82 0 -144 28t-103 76.5t-62 114.5t-21 141q0 79 22 145t64 114t103.5 74.5t140.5 26.5q95 0 168.5 -39.5t107.5 -123.5q8 -20 -2.5 -33.5t-33.5 -13.5h-16q-15 0 -27 8.5t-19 22.5q-25 50 -73.5 69.5
t-104.5 19.5q-61 0 -104.5 -22t-71.5 -59.5t-41 -86t-13 -102.5q0 -56 14 -105.5t42.5 -86t71.5 -57.5t102 -21q34 0 68 8t61 25.5t44 45t17 65.5v76h-176q-20 0 -32.5 12.5t-12.5 32.5v10q0 20 12.5 32.5t32.5 12.5h231q20 0 32.5 -12.5t12.5 -32.5v-116z" />
    <glyph glyph-name="uni0123" unicode="&#x123;" horiz-adv-x="547" 
d="M334 700q0 -20 -12.5 -32.5t-32.5 -12.5h-30q-20 0 -32.5 12.5t-12.5 32.5v62q0 14 6 23l56 96q5 8 14 13.5t20 5.5q10 0 14 -6t1 -15l-33 -104h21q9 0 15 -6t6 -15v-54zM491 -28q-4 -25 -16.5 -56.5t-38 -59.5t-66.5 -47t-104 -19q-42 0 -73.5 7.5t-53.5 20.5t-36 30
t-22 36q-10 20 1 33t34 13h18q14 0 25.5 -8t20.5 -17q11 -11 31 -18t55 -7q25 0 43.5 6t32.5 15.5t23.5 21.5t15.5 25q14 30 15 68v38q-25 -29 -60.5 -46.5t-79.5 -17.5q-56 0 -94 19.5t-62 48.5t-38 62q-24 57 -26 130q2 73 26 130q14 33 37.5 63t62.5 48.5t94 18.5
q44 0 79.5 -17.5t60.5 -46.5v27q0 12 7.5 19.5t19.5 7.5h28q20 0 32.5 -12.5t12.5 -32.5v-394q0 -20 -0.5 -44.5t-4.5 -44.5zM136 250q1 -45 14 -80q5 -15 13.5 -29.5t21.5 -25.5t30.5 -18t40.5 -7q22 0 46.5 7t45.5 20.5t34.5 33.5t13.5 46v107q0 27 -13.5 47t-34.5 33
t-45.5 19.5t-46.5 6.5q-23 0 -40.5 -7t-30.5 -18t-21.5 -25.5t-13.5 -29.5q-13 -35 -14 -80z" />
    <glyph glyph-name="Hcircumflex" unicode="&#x124;" horiz-adv-x="632" 
d="M244 788q-13 -13 -32 -13h-14q-15 0 -18 7t6 18l66 83q14 17 35 17h58q21 0 35 -17l66 -83q10 -11 6.5 -18t-18.5 -7h-14q-19 0 -32 13l-72 73zM140 45q0 -20 -12.5 -32.5t-32.5 -12.5h-10q-20 0 -32.5 12.5t-12.5 32.5v610q0 20 12.5 32.5t32.5 12.5h10q20 0 32.5 -12.5
t12.5 -32.5v-261q20 -8 43.5 -13t47 -7.5t45.5 -3.5t39 -1t39 1t45.5 3.5t47 7.5t43.5 13v261q0 20 12.5 32.5t32.5 12.5h10q20 0 32.5 -12.5t12.5 -32.5v-610q0 -20 -12.5 -32.5t-32.5 -12.5h-10q-20 0 -32.5 12.5t-12.5 32.5v243q-45 -11 -92.5 -15t-82.5 -4t-82.5 4
t-92.5 15v-243z" />
    <glyph glyph-name="hcircumflex" unicode="&#x125;" horiz-adv-x="508" 
d="M139 45q0 -20 -12.5 -32.5t-32.5 -12.5h-10q-20 0 -32.5 12.5t-12.5 32.5v610q0 20 12.5 32.5t32.5 12.5h10q20 0 32.5 -12.5t12.5 -32.5v-209q19 22 46.5 37.5t59.5 21.5q7 2 26 -18t44 -51t52 -68.5t49.5 -71.5t37.5 -59t15 -32v-160q0 -20 -12.5 -32.5t-32.5 -12.5
h-10q-20 0 -32.5 12.5t-12.5 32.5v205q-1 45 -14 80q-5 15 -13.5 29.5t-21.5 25.5t-30.5 18t-40.5 7q-22 0 -42 -7t-35 -20.5t-24 -33t-9 -45.5v-259zM272 588q-13 -13 -32 -13h-14q-15 0 -18 7t6 18l66 83q14 17 35 17h58q21 0 35 -17l66 -83q10 -11 6.5 -18t-18.5 -7h-14
q-19 0 -32 13l-72 73z" />
    <glyph glyph-name="Hbar" unicode="&#x126;" horiz-adv-x="632" 
d="M140 45q0 -20 -12.5 -32.5t-32.5 -12.5h-10q-20 0 -32.5 12.5t-12.5 32.5v455h-64q-20 0 -32.5 12.5t-12.5 32.5v10q0 20 12.5 32.5t32.5 12.5h64v55q0 20 12.5 32.5t32.5 12.5h10q20 0 32.5 -12.5t12.5 -32.5v-55h350v55q0 20 12.5 32.5t32.5 12.5h10q20 0 32.5 -12.5
t12.5 -32.5v-55h66q20 0 32.5 -12.5t12.5 -32.5v-10q0 -20 -12.5 -32.5t-32.5 -12.5h-66v-455q0 -20 -12.5 -32.5t-32.5 -12.5h-10q-20 0 -32.5 12.5t-12.5 32.5v243q-45 -11 -92.5 -15t-82.5 -4t-82.5 4t-92.5 15v-243zM140 394q20 -8 43.5 -13t47 -7.5t45.5 -3.5t39 -1
t39 1t45.5 3.5t47 7.5t43.5 13v106h-350v-106z" />
    <glyph glyph-name="hbar" unicode="&#x127;" horiz-adv-x="508" 
d="M139 45q0 -20 -12.5 -32.5t-32.5 -12.5h-10q-20 0 -32.5 12.5t-12.5 32.5v556h-84q-20 0 -32.5 12.5t-12.5 32.5v10q0 20 12.5 32.5t32.5 12.5h280q20 0 32.5 -12.5t12.5 -32.5v-10q0 -20 -12.5 -32.5t-32.5 -12.5h-96v-155q19 22 46.5 37.5t59.5 21.5q7 2 26 -18t44 -51
t52 -68.5t49.5 -71.5t37.5 -59t15 -32v-160q0 -20 -12.5 -32.5t-32.5 -12.5h-10q-20 0 -32.5 12.5t-12.5 32.5v205q-1 45 -14 80q-5 15 -13.5 29.5t-21.5 25.5t-30.5 18t-40.5 7q-22 0 -42 -7t-35 -20.5t-24 -33t-9 -45.5v-259z" />
    <glyph glyph-name="Itilde" unicode="&#x128;" horiz-adv-x="217" 
d="M272 875q-5 -41 -27.5 -68t-70.5 -27q-26 0 -46 9t-39 26l-28 24q-13 11 -27 11q-20 0 -28.5 -10t-10.5 -25q-3 -25 -27 -25q-11 0 -18 7t-5 18q5 40 27 67.5t72 27.5q26 0 45.5 -9t39.5 -26l27 -24q13 -11 28 -11q20 0 28 10t10 25q3 25 27 25q11 0 18 -7t5 -18zM159 45
q0 -20 -12.5 -32.5t-32.5 -12.5h-10q-20 0 -32.5 12.5t-12.5 32.5v610q0 20 12.5 32.5t32.5 12.5h10q20 0 32.5 -12.5t12.5 -32.5v-610z" />
    <glyph glyph-name="itilde" unicode="&#x129;" horiz-adv-x="184" 
d="M256 675q-5 -41 -28 -68t-71 -27q-26 0 -45.5 9t-39.5 26l-27 24q-14 11 -28 11q-20 0 -28.5 -10t-10.5 -25q-3 -25 -26 -25q-11 0 -18 7t-6 18q5 40 27.5 67.5t71.5 27.5q26 0 45.5 -9t39.5 -26l28 -24q13 -11 27 -11q20 0 28.5 10t10.5 25q3 25 26 25q11 0 18 -7t6 -18
zM142 45q0 -20 -12.5 -32.5t-32.5 -12.5h-10q-20 0 -32.5 12.5t-12.5 32.5v410q0 20 12.5 32.5t32.5 12.5h10q20 0 32.5 -12.5t12.5 -32.5v-410z" />
    <glyph glyph-name="Imacron" unicode="&#x12a;" horiz-adv-x="217" 
d="M294 846q0 -20 -12.5 -32.5t-32.5 -12.5h-281q-20 0 -32.5 12.5t-12.5 32.5v10q0 20 12.5 32.5t32.5 12.5h281q20 0 32.5 -12.5t12.5 -32.5v-10zM159 45q0 -20 -12.5 -32.5t-32.5 -12.5h-10q-20 0 -32.5 12.5t-12.5 32.5v610q0 20 12.5 32.5t32.5 12.5h10
q20 0 32.5 -12.5t12.5 -32.5v-610z" />
    <glyph glyph-name="imacron" unicode="&#x12b;" horiz-adv-x="184" 
d="M277 646q0 -20 -12.5 -32.5t-32.5 -12.5h-280q-20 0 -32.5 12.5t-12.5 32.5v10q0 20 12.5 32.5t32.5 12.5h280q20 0 32.5 -12.5t12.5 -32.5v-10zM142 45q0 -20 -12.5 -32.5t-32.5 -12.5h-10q-20 0 -32.5 12.5t-12.5 32.5v410q0 20 12.5 32.5t32.5 12.5h10
q20 0 32.5 -12.5t12.5 -32.5v-410z" />
    <glyph glyph-name="Ibreve" unicode="&#x12c;" horiz-adv-x="217" 
d="M249 890q0 -31 -11 -55t-30 -40.5t-44.5 -25.5t-54.5 -9q-30 0 -55.5 9t-44.5 25.5t-30 40.5t-11 55v5q0 5 5 5h61q5 0 5 -5v-5q0 -32 20.5 -46t49.5 -14t49.5 14t20.5 46v5q0 5 5 5h60q5 0 5 -5v-5zM159 45q0 -20 -12.5 -32.5t-32.5 -12.5h-10q-20 0 -32.5 12.5
t-12.5 32.5v610q0 20 12.5 32.5t32.5 12.5h10q20 0 32.5 -12.5t12.5 -32.5v-610z" />
    <glyph glyph-name="ibreve" unicode="&#x12d;" horiz-adv-x="184" 
d="M232 690q0 -31 -11 -55t-29.5 -40.5t-44 -25.5t-55.5 -9t-55.5 9t-44 25.5t-29.5 40.5t-11 55v5q0 5 5 5h60q5 0 5 -5v-5q0 -32 20.5 -46t49.5 -14t49.5 14t20.5 46v5q0 5 5 5h60q5 0 5 -5v-5zM142 45q0 -20 -12.5 -32.5t-32.5 -12.5h-10q-20 0 -32.5 12.5t-12.5 32.5
v410q0 20 12.5 32.5t32.5 12.5h10q20 0 32.5 -12.5t12.5 -32.5v-410z" />
    <glyph glyph-name="Iogonek" unicode="&#x12e;" horiz-adv-x="217" 
d="M152 -173q3 -18 -6.5 -29t-27.5 -9q-74 3 -111.5 19.5t-50 40t-4 51t25 53.5t37 48t33.5 34q4 4 11 7v3v610q0 20 12.5 32.5t32.5 12.5h10q20 0 32.5 -12.5t12.5 -32.5v-610q0 -20 -12.5 -32.5t-32.5 -12.5h-10q-7 0 -10 1q-23 -18 -43.5 -39.5t-25.5 -41t12.5 -34
t70.5 -18.5q17 -2 29.5 -12t14.5 -27v-2z" />
    <glyph glyph-name="iogonek" unicode="&#x12f;" horiz-adv-x="184" 
d="M142 645q0 -20 -12.5 -32.5t-32.5 -12.5h-10q-20 0 -32.5 12.5t-12.5 32.5v10q0 20 12.5 32.5t32.5 12.5h10q20 0 32.5 -12.5t12.5 -32.5v-10zM135 -173q3 -18 -6.5 -29t-27.5 -9q-74 3 -111.5 19.5t-50 40t-4 51t25 53.5t37 48t33.5 34q3 3 11 7v3v410q0 20 12.5 32.5
t32.5 12.5h10q20 0 32.5 -12.5t12.5 -32.5v-410q0 -20 -12.5 -32.5t-32.5 -12.5h-10q-7 0 -10 1q-23 -18 -43.5 -39.5t-25.5 -41t12.5 -34t70.5 -18.5q17 -2 29.5 -12t14.5 -27v-2z" />
    <glyph glyph-name="Idotaccent" unicode="&#x130;" horiz-adv-x="217" 
d="M169 825q0 -20 -12.5 -32.5t-32.5 -12.5h-30q-20 0 -32.5 12.5t-12.5 32.5v30q0 20 12.5 32.5t32.5 12.5h30q20 0 32.5 -12.5t12.5 -32.5v-30zM159 45q0 -20 -12.5 -32.5t-32.5 -12.5h-10q-20 0 -32.5 12.5t-12.5 32.5v610q0 20 12.5 32.5t32.5 12.5h10q20 0 32.5 -12.5
t12.5 -32.5v-610z" />
    <glyph glyph-name="dotlessi" unicode="&#x131;" horiz-adv-x="184" 
d="M142 45q0 -20 -12.5 -32.5t-32.5 -12.5h-10q-20 0 -32.5 12.5t-12.5 32.5v410q0 20 12.5 32.5t32.5 12.5h10q20 0 32.5 -12.5t12.5 -32.5v-410z" />
    <glyph glyph-name="IJ" unicode="&#x132;" horiz-adv-x="405" 
d="M159 45q0 -20 -12.5 -32.5t-32.5 -12.5h-10q-20 0 -32.5 12.5t-12.5 32.5v610q0 20 12.5 32.5t32.5 12.5h10q20 0 32.5 -12.5t12.5 -32.5v-610zM337 -56q0 -99 -54 -146.5t-151 -47.5q-57 0 -96 15.5t-63.5 41.5t-35 61.5t-10.5 75.5v13q0 13 13 13h74q13 0 13 -13v-13
q0 -20 4.5 -38.5t16.5 -33t32.5 -23.5t51.5 -9t51.5 9t32.5 23.5t16.5 33t4.5 38.5v711q0 20 12.5 32.5t32.5 12.5h10q20 0 32.5 -12.5t12.5 -32.5v-711z" />
    <glyph glyph-name="ij" unicode="&#x133;" horiz-adv-x="368" 
d="M313 645q0 -20 -12.5 -32.5t-32.5 -12.5h-10q-20 0 -32.5 12.5t-12.5 32.5v10q0 20 12.5 32.5t32.5 12.5h10q20 0 32.5 -12.5t12.5 -32.5v-10zM142 645q0 -20 -12.5 -32.5t-32.5 -12.5h-10q-20 0 -32.5 12.5t-12.5 32.5v10q0 20 12.5 32.5t32.5 12.5h10q20 0 32.5 -12.5
t12.5 -32.5v-10zM313 -44q0 -32 -12.5 -60.5t-33.5 -49.5t-49.5 -33.5t-60.5 -12.5h-31q-14 0 -23 9t-9 23v29q0 14 8 21.5t21 7.5h28q26 0 44 18t18 44v503q0 20 12.5 32.5t32.5 12.5h10q20 0 32.5 -12.5t12.5 -32.5v-499zM142 45q0 -20 -12.5 -32.5t-32.5 -12.5h-10
q-20 0 -32.5 12.5t-12.5 32.5v410q0 20 12.5 32.5t32.5 12.5h10q20 0 32.5 -12.5t12.5 -32.5v-410z" />
    <glyph glyph-name="Jcircumflex" unicode="&#x134;" horiz-adv-x="462" 
d="M159 788q-13 -13 -32 -13h-14q-15 0 -18 7t6 18l66 83q14 17 35 17h58q21 0 35 -17l66 -83q10 -11 6.5 -18t-18.5 -7h-14q-19 0 -32 13l-72 73zM420 184q0 -99 -54 -146.5t-151 -47.5q-57 0 -96 15.5t-63.5 41.5t-35 61.5t-10.5 75.5v13q0 13 13 13h74q13 0 13 -13v-13
q0 -19 4.5 -38t16.5 -33.5t32.5 -23.5t51.5 -9t51.5 9t32.5 23.5t16.5 33.5t4.5 38v471q0 20 12.5 32.5t32.5 12.5h10q20 0 32.5 -12.5t12.5 -32.5v-471z" />
    <glyph glyph-name="jcircumflex" unicode="&#x135;" horiz-adv-x="224" 
d="M40 588q-13 -13 -32 -13h-14q-15 0 -18.5 7t6.5 18l66 83q14 17 35 17h58q21 0 35 -17l66 -83q10 -11 6.5 -18t-18.5 -7h-14q-19 0 -32 13l-72 73zM179 -44q0 -32 -12.5 -60.5t-33.5 -49.5t-49.5 -33.5t-60.5 -12.5h-31q-14 0 -23 9t-9 23v29q0 29 29 29h28q26 0 44 18
t18 44v503q0 20 12.5 32.5t32.5 12.5h10q20 0 32.5 -12.5t12.5 -32.5v-499z" />
    <glyph glyph-name="uni0136" unicode="&#x136;" horiz-adv-x="584" 
d="M140 45q0 -20 -12.5 -32.5t-32.5 -12.5h-10q-20 0 -32.5 12.5t-12.5 32.5v610q0 20 12.5 32.5t32.5 12.5h10q20 0 32.5 -12.5t12.5 -32.5v-348l262 374q6 9 16 14t21 5h38q27 0 34.5 -13.5t-8.5 -36.5l-218 -310q42 7 74 -14.5t62 -74.5l116 -201q13 -23 5 -36.5
t-34 -13.5h-32q-11 0 -22 6t-17 17l-103 178q-9 16 -17 30t-17 24t-19 15.5t-23 3.5q-21 -2 -32 -19l-86 -123v-87zM271 -226q-5 -9 -14 -14.5t-20 -5.5q-22 0 -15 22l33 104h-21q-20 0 -20 20v55q0 20 12.5 32.5t32.5 12.5h30q20 0 32.5 -12.5t12.5 -32.5v-63q0 -13 -7 -23
z" />
    <glyph glyph-name="uni0137" unicode="&#x137;" horiz-adv-x="503" 
d="M140 45q0 -20 -12.5 -32.5t-32.5 -12.5h-10q-20 0 -32.5 12.5t-12.5 32.5v610q0 20 12.5 32.5t32.5 12.5h10q20 0 32.5 -12.5t12.5 -32.5v-382l177 211q6 8 15.5 12t18.5 4h45q29 0 35.5 -13.5t-12.5 -36.5l-163 -194q29 -2 54.5 -22t51.5 -58l89 -126q16 -23 8.5 -36.5
t-34.5 -13.5h-38q-11 0 -21 5.5t-16 13.5l-70 100q-11 16 -21.5 30t-21.5 24q-10 9 -25 9q-18 0 -30 -14l-42 -50v-73zM251 -226q-5 -9 -14 -14.5t-20 -5.5q-22 0 -15 22l33 104h-21q-20 0 -20 20v55q0 20 12.5 32.5t32.5 12.5h30q20 0 32.5 -12.5t12.5 -32.5v-63
q0 -13 -7 -23z" />
    <glyph glyph-name="kgreenlandic" unicode="&#x138;" horiz-adv-x="503" 
d="M140 45q0 -20 -12.5 -32.5t-32.5 -12.5h-10q-20 0 -32.5 12.5t-12.5 32.5v410q0 20 12.5 32.5t32.5 12.5h10q20 0 32.5 -12.5t12.5 -32.5v-182l177 211q6 8 15.5 12t18.5 4h45q29 0 35.5 -13.5t-12.5 -36.5l-163 -194q29 -2 54.5 -22t51.5 -58l89 -126q16 -23 8.5 -36.5
t-34.5 -13.5h-38q-11 0 -21 5.5t-16 13.5l-70 100q-11 16 -21.5 30t-21.5 24q-10 9 -25 9q-18 0 -30 -14l-42 -50v-73z" />
    <glyph glyph-name="Lacute" unicode="&#x139;" horiz-adv-x="493" 
d="M225 787q-5 -5 -13.5 -8.5t-16.5 -3.5h-15q-15 0 -18.5 7t6.5 18l66 83q14 17 35 17h28q22 0 25.5 -9t-12.5 -25zM480 45q0 -20 -12.5 -32.5t-32.5 -12.5h-350q-20 0 -32.5 12.5t-12.5 32.5v610q0 20 12.5 32.5t32.5 12.5h10q20 0 32.5 -12.5t12.5 -32.5v-555h295
q20 0 32.5 -12.5t12.5 -32.5v-10z" />
    <glyph glyph-name="lacute" unicode="&#x13a;" horiz-adv-x="205" 
d="M81 792q-5 -5 -13.5 -8.5t-16.5 -3.5h-15q-15 0 -18.5 7t6.5 19l66 82q6 8 15.5 12.5t19.5 4.5h28q22 0 26 -9t-13 -24zM153 45q0 -20 -12.5 -32.5t-32.5 -12.5h-10q-20 0 -32.5 12.5t-12.5 32.5v610q0 20 12.5 32.5t32.5 12.5h10q20 0 32.5 -12.5t12.5 -32.5v-610z" />
    <glyph glyph-name="uni013B" unicode="&#x13b;" horiz-adv-x="493" 
d="M480 45q0 -20 -12.5 -32.5t-32.5 -12.5h-350q-20 0 -32.5 12.5t-12.5 32.5v610q0 20 12.5 32.5t32.5 12.5h10q20 0 32.5 -12.5t12.5 -32.5v-555h295q20 0 32.5 -12.5t12.5 -32.5v-10zM271 -276q-5 -9 -14 -14.5t-20 -5.5q-22 0 -15 22l33 104h-21q-20 0 -20 20v55
q0 20 12.5 32.5t32.5 12.5h30q20 0 32.5 -12.5t12.5 -32.5v-63q0 -13 -7 -23z" />
    <glyph glyph-name="uni013C" unicode="&#x13c;" horiz-adv-x="205" 
d="M153 45q0 -20 -12.5 -32.5t-32.5 -12.5h-10q-20 0 -32.5 12.5t-12.5 32.5v610q0 20 12.5 32.5t32.5 12.5h10q20 0 32.5 -12.5t12.5 -32.5v-610zM100 -276q-5 -9 -14 -14.5t-20 -5.5q-22 0 -15 22l33 104h-21q-20 0 -20 20v55q0 20 12.5 32.5t32.5 12.5h30
q20 0 32.5 -12.5t12.5 -32.5v-63q0 -13 -7 -23z" />
    <glyph glyph-name="Lcaron" unicode="&#x13d;" horiz-adv-x="493" 
d="M244 674q-5 -8 -14 -13.5t-20 -5.5q-21 0 -15 21l33 104h-21q-20 0 -20 21v54q0 20 12.5 32.5t32.5 12.5h30q20 0 32.5 -12.5t12.5 -32.5v-63q0 -11 -7 -22zM480 45q0 -20 -12.5 -32.5t-32.5 -12.5h-350q-20 0 -32.5 12.5t-12.5 32.5v610q0 20 12.5 32.5t32.5 12.5h10
q20 0 32.5 -12.5t12.5 -32.5v-555h295q20 0 32.5 -12.5t12.5 -32.5v-10z" />
    <glyph glyph-name="lcaron" unicode="&#x13e;" horiz-adv-x="380" 
d="M153 45q0 -20 -12.5 -32.5t-32.5 -12.5h-10q-20 0 -32.5 12.5t-12.5 32.5v610q0 20 12.5 32.5t32.5 12.5h10q20 0 32.5 -12.5t12.5 -32.5v-610zM290 474q-5 -8 -14 -13.5t-20 -5.5q-21 0 -15 21l33 104h-21q-20 0 -20 21v54q0 20 12.5 32.5t32.5 12.5h30q20 0 32.5 -12.5
t12.5 -32.5v-63q0 -11 -7 -22z" />
    <glyph glyph-name="Ldot" unicode="&#x13f;" horiz-adv-x="493" 
d="M480 45q0 -20 -12.5 -32.5t-32.5 -12.5h-350q-20 0 -32.5 12.5t-12.5 32.5v610q0 20 12.5 32.5t32.5 12.5h10q20 0 32.5 -12.5t12.5 -32.5v-555h295q20 0 32.5 -12.5t12.5 -32.5v-10zM367 535q0 -20 -12.5 -32.5t-32.5 -12.5h-30q-20 0 -32.5 12.5t-12.5 32.5v30
q0 20 12.5 32.5t32.5 12.5h30q20 0 32.5 -12.5t12.5 -32.5v-30z" />
    <glyph glyph-name="ldot" unicode="&#x140;" horiz-adv-x="473" 
d="M153 45q0 -20 -12.5 -32.5t-32.5 -12.5h-10q-20 0 -32.5 12.5t-12.5 32.5v610q0 20 12.5 32.5t32.5 12.5h10q20 0 32.5 -12.5t12.5 -32.5v-610zM399 335q0 -20 -12.5 -32.5t-32.5 -12.5h-30q-20 0 -32.5 12.5t-12.5 32.5v30q0 20 12.5 32.5t32.5 12.5h30q20 0 32.5 -12.5
t12.5 -32.5v-30z" />
    <glyph glyph-name="Lslash" unicode="&#x141;" horiz-adv-x="493" 
d="M480 45q0 -20 -12.5 -32.5t-32.5 -12.5h-350q-20 0 -32.5 12.5t-12.5 32.5v260q-38 5 -38 45v10q0 40 38 45v250q0 20 12.5 32.5t32.5 12.5h10q20 0 32.5 -12.5t12.5 -32.5v-250h187q20 0 32.5 -12.5t12.5 -32.5v-10q0 -20 -12.5 -32.5t-32.5 -12.5h-187v-205h295
q20 0 32.5 -12.5t12.5 -32.5v-10z" />
    <glyph glyph-name="lslash" unicode="&#x142;" horiz-adv-x="205" 
d="M153 45q0 -20 -12.5 -32.5t-32.5 -12.5h-10q-20 0 -32.5 12.5t-12.5 32.5v267h-91q-20 0 -32.5 12.5t-12.5 32.5v10q0 20 12.5 32.5t32.5 12.5h91v243q0 20 12.5 32.5t32.5 12.5h10q20 0 32.5 -12.5t12.5 -32.5v-243h90q20 0 32.5 -12.5t12.5 -32.5v-10
q0 -20 -12.5 -32.5t-32.5 -12.5h-90v-267z" />
    <glyph glyph-name="Nacute" unicode="&#x143;" horiz-adv-x="649" 
d="M303 787q-5 -5 -13.5 -8.5t-16.5 -3.5h-15q-15 0 -18.5 7t6.5 18l66 83q14 17 35 17h28q22 0 25.5 -9t-12.5 -25zM140 45q0 -20 -12.5 -32.5t-32.5 -12.5h-10q-20 0 -32.5 12.5t-12.5 32.5v610q0 20 12.5 32.5t32.5 12.5h48q25 0 38 -20l339 -523v498q0 20 12.5 32.5
t32.5 12.5h10q20 0 32.5 -12.5t12.5 -32.5v-610q0 -20 -12.5 -32.5t-32.5 -12.5h-48q-11 0 -21.5 5.5t-16.5 15.5l-339 522v-498z" />
    <glyph glyph-name="nacute" unicode="&#x144;" horiz-adv-x="513" 
d="M235 587q-5 -5 -13.5 -8.5t-16.5 -3.5h-15q-15 0 -18.5 7t6.5 18l66 83q14 17 35 17h28q22 0 25.5 -9t-12.5 -25zM140 45q0 -20 -12.5 -32.5t-32.5 -12.5h-10q-20 0 -32.5 12.5t-12.5 32.5v410q0 20 12.5 32.5t32.5 12.5h28q12 0 19.5 -7.5t7.5 -19.5v-27q26 29 71 46.5
t89 17.5q33 0 57.5 -11t42.5 -29.5t30 -42t20 -47.5q18 -57 20 -130v-205q0 -20 -12.5 -32.5t-32.5 -12.5h-10q-20 0 -32.5 12.5t-12.5 32.5v205q0 45 -12 80q-5 15 -12.5 29.5t-19.5 25.5t-28 18t-38 7t-43.5 -7t-38.5 -20.5t-27.5 -33t-10.5 -45.5v-259z" />
    <glyph glyph-name="uni0145" unicode="&#x145;" horiz-adv-x="649" 
d="M140 45q0 -20 -12.5 -32.5t-32.5 -12.5h-10q-20 0 -32.5 12.5t-12.5 32.5v610q0 20 12.5 32.5t32.5 12.5h48q25 0 38 -20l339 -523v498q0 20 12.5 32.5t32.5 12.5h10q20 0 32.5 -12.5t12.5 -32.5v-610q0 -20 -12.5 -32.5t-32.5 -12.5h-48q-11 0 -21.5 5.5t-16.5 15.5
l-339 522v-498zM311 -226q-5 -9 -14 -14.5t-20 -5.5q-22 0 -15 22l33 104h-21q-20 0 -20 20v55q0 20 12.5 32.5t32.5 12.5h30q20 0 32.5 -12.5t12.5 -32.5v-63q0 -13 -7 -23z" />
    <glyph glyph-name="uni0146" unicode="&#x146;" horiz-adv-x="513" 
d="M140 45q0 -20 -12.5 -32.5t-32.5 -12.5h-10q-20 0 -32.5 12.5t-12.5 32.5v410q0 20 12.5 32.5t32.5 12.5h28q12 0 19.5 -7.5t7.5 -19.5v-27q26 29 71 46.5t89 17.5q33 0 57.5 -11t42.5 -29.5t30 -42t20 -47.5q18 -57 20 -130v-205q0 -20 -12.5 -32.5t-32.5 -12.5h-10
q-20 0 -32.5 12.5t-12.5 32.5v205q0 45 -12 80q-5 15 -12.5 29.5t-19.5 25.5t-28 18t-38 7t-43.5 -7t-38.5 -20.5t-27.5 -33t-10.5 -45.5v-259zM271 -226q-5 -9 -14 -14.5t-20 -5.5q-22 0 -15 22l33 104h-21q-20 0 -20 20v55q0 20 12.5 32.5t32.5 12.5h30q20 0 32.5 -12.5
t12.5 -32.5v-63q0 -13 -7 -23z" />
    <glyph glyph-name="Ncaron" unicode="&#x147;" horiz-adv-x="649" 
d="M389 792q-6 -8 -16 -12.5t-20 -4.5h-57q-22 0 -36 17l-66 83q-9 11 -5.5 18t18.5 7h13q19 0 32 -13l73 -74l72 74q13 13 32 13h14q14 0 17.5 -7t-5.5 -18zM140 45q0 -20 -12.5 -32.5t-32.5 -12.5h-10q-20 0 -32.5 12.5t-12.5 32.5v610q0 20 12.5 32.5t32.5 12.5h48
q25 0 38 -20l339 -523v498q0 20 12.5 32.5t32.5 12.5h10q20 0 32.5 -12.5t12.5 -32.5v-610q0 -20 -12.5 -32.5t-32.5 -12.5h-48q-11 0 -21.5 5.5t-16.5 15.5l-339 522v-498z" />
    <glyph glyph-name="ncaron" unicode="&#x148;" horiz-adv-x="513" 
d="M321 592q-6 -8 -16 -12.5t-20 -4.5h-57q-22 0 -36 17l-66 83q-9 11 -5.5 18t18.5 7h13q19 0 32 -13l73 -74l72 74q13 13 32 13h14q14 0 17.5 -7t-5.5 -18zM140 45q0 -20 -12.5 -32.5t-32.5 -12.5h-10q-20 0 -32.5 12.5t-12.5 32.5v410q0 20 12.5 32.5t32.5 12.5h28
q12 0 19.5 -7.5t7.5 -19.5v-27q26 29 71 46.5t89 17.5q33 0 57.5 -11t42.5 -29.5t30 -42t20 -47.5q18 -57 20 -130v-205q0 -20 -12.5 -32.5t-32.5 -12.5h-10q-20 0 -32.5 12.5t-12.5 32.5v205q0 45 -12 80q-5 15 -12.5 29.5t-19.5 25.5t-28 18t-38 7t-43.5 -7t-38.5 -20.5
t-27.5 -33t-10.5 -45.5v-259z" />
    <glyph glyph-name="napostrophe" unicode="&#x149;" horiz-adv-x="634" 
d="M79 471q-5 -8 -14 -13.5t-20 -5.5q-21 0 -15 21l33 104h-21q-20 0 -20 21v54q0 20 12.5 32.5t32.5 12.5h30q20 0 32.5 -12.5t12.5 -32.5v-63q0 -11 -7 -22zM282 45q0 -20 -12.5 -32.5t-32.5 -12.5h-10q-20 0 -32.5 12.5t-12.5 32.5v410q0 20 12.5 32.5t32.5 12.5h28
q12 0 19.5 -7.5t7.5 -19.5v-27q12 15 30.5 26.5t40 20t44.5 13t45 4.5q32 0 56.5 -11t42.5 -29.5t30.5 -42t20.5 -47.5q18 -57 20 -130v-205q0 -20 -12.5 -32.5t-32.5 -12.5h-10q-20 0 -32.5 12.5t-12.5 32.5v205q0 45 -12 80q-5 15 -12.5 29.5t-19.5 25.5t-28 18t-38 7
t-43.5 -7t-38.5 -20.5t-27.5 -33t-10.5 -45.5v-259z" />
    <glyph glyph-name="Eng" unicode="&#x14a;" horiz-adv-x="649" 
d="M565 700q20 0 32.5 -12.5t12.5 -32.5v-704q0 -99 -54 -146.5t-151 -47.5q-57 0 -96 15.5t-63.5 41.5t-35 61.5t-10.5 75.5v13q0 13 13 13h74q13 0 13 -13v-13q0 -20 4.5 -38.5t16.5 -33t32.5 -23.5t51.5 -9t51.5 9t32.5 23.5t16.5 33t4.5 38.5v50q-20 3 -31 20l-339 522
v-498q0 -20 -12.5 -32.5t-32.5 -12.5h-10q-20 0 -32.5 12.5t-12.5 32.5v610q0 20 12.5 32.5t32.5 12.5h48q25 0 38 -20l339 -523v498q0 20 12.5 32.5t32.5 12.5h10z" />
    <glyph glyph-name="eng" unicode="&#x14b;" horiz-adv-x="549" 
d="M487 -44q0 -32 -12.5 -60.5t-33.5 -49.5t-49.5 -33.5t-60.5 -12.5h-32q-14 0 -22.5 9t-8.5 23v29q0 13 7.5 21t20.5 8h29q26 0 44 18t18 44v298q0 45 -12 80q-5 15 -12.5 29.5t-19.5 25.5t-28 18t-38 7t-43.5 -7t-38.5 -20.5t-27.5 -33t-10.5 -45.5v-259
q0 -20 -12.5 -32.5t-32.5 -12.5h-10q-20 0 -32.5 12.5t-12.5 32.5v410q0 20 12.5 32.5t32.5 12.5h28q12 0 19.5 -7.5t7.5 -19.5v-27q12 15 30.5 26.5t40 20t44.5 13t45 4.5q48 0 78.5 -23t49.5 -56.5t27.5 -70.5t11.5 -65q2 -20 2.5 -45t0.5 -45v-249z" />
    <glyph glyph-name="Omacron" unicode="&#x14c;" horiz-adv-x="721" 
d="M546 846q0 -20 -12.5 -32.5t-32.5 -12.5h-280q-20 0 -32.5 12.5t-12.5 32.5v10q0 20 12.5 32.5t32.5 12.5h280q20 0 32.5 -12.5t12.5 -32.5v-10zM690 350q0 -79 -21.5 -145t-63.5 -114t-103.5 -74.5t-141.5 -26.5q-82 0 -144 28t-103 76.5t-62 114.5t-21 141q0 79 22 145
t64 114t103.5 74.5t140.5 26.5q82 0 144 -28t103 -76.5t62 -114.5t21 -141zM130 350q0 -56 14 -105.5t42.5 -86t71.5 -57.5t102 -21q61 0 104.5 22t71.5 59.5t41 86t13 102.5q0 56 -14 105.5t-42.5 86t-71.5 57.5t-102 21q-61 0 -104.5 -22t-71.5 -59.5t-41 -86t-13 -102.5z
" />
    <glyph glyph-name="omacron" unicode="&#x14d;" horiz-adv-x="546" 
d="M458 646q0 -20 -12.5 -32.5t-32.5 -12.5h-280q-20 0 -32.5 12.5t-12.5 32.5v10q0 20 12.5 32.5t32.5 12.5h280q20 0 32.5 -12.5t12.5 -32.5v-10zM513 250q0 -58 -15.5 -105.5t-46 -82t-75.5 -53.5t-103 -19q-60 0 -105 20t-75 55t-45 82.5t-15 102.5q0 58 16 105.5
t46.5 82t75 53.5t102.5 19q60 0 105 -20t75 -55t45 -82.5t15 -102.5zM133 250q0 -35 7.5 -66t24 -54t43 -36.5t65.5 -13.5t66 13.5t43.5 36.5t23.5 54t7 66t-7 66t-23.5 54t-43.5 36.5t-66 13.5t-65.5 -13.5t-43 -36.5t-24 -54t-7.5 -66z" />
    <glyph glyph-name="Obreve" unicode="&#x14e;" horiz-adv-x="721" 
d="M501 890q0 -31 -11 -55t-30 -40.5t-44.5 -25.5t-54.5 -9q-30 0 -55.5 9t-44 25.5t-29.5 40.5t-11 55v5q0 5 5 5h60q5 0 5 -5v-5q0 -32 20.5 -46t49.5 -14t49.5 14t20.5 46v5q0 5 5 5h60q5 0 5 -5v-5zM690 350q0 -79 -21.5 -145t-63.5 -114t-103.5 -74.5t-141.5 -26.5
q-82 0 -144 28t-103 76.5t-62 114.5t-21 141q0 79 22 145t64 114t103.5 74.5t140.5 26.5q82 0 144 -28t103 -76.5t62 -114.5t21 -141zM130 350q0 -56 14 -105.5t42.5 -86t71.5 -57.5t102 -21q61 0 104.5 22t71.5 59.5t41 86t13 102.5q0 56 -14 105.5t-42.5 86t-71.5 57.5
t-102 21q-61 0 -104.5 -22t-71.5 -59.5t-41 -86t-13 -102.5z" />
    <glyph glyph-name="obreve" unicode="&#x14f;" horiz-adv-x="546" 
d="M413 690q0 -31 -11 -55t-29.5 -40.5t-44 -25.5t-55.5 -9t-55.5 9t-44 25.5t-29.5 40.5t-11 55v5q0 5 5 5h60q5 0 5 -5v-5q0 -32 20.5 -46t49.5 -14t49.5 14t20.5 46v5q0 5 5 5h60q5 0 5 -5v-5zM513 250q0 -58 -15.5 -105.5t-46 -82t-75.5 -53.5t-103 -19q-60 0 -105 20
t-75 55t-45 82.5t-15 102.5q0 58 16 105.5t46.5 82t75 53.5t102.5 19q60 0 105 -20t75 -55t45 -82.5t15 -102.5zM133 250q0 -35 7.5 -66t24 -54t43 -36.5t65.5 -13.5t66 13.5t43.5 36.5t23.5 54t7 66t-7 66t-23.5 54t-43.5 36.5t-66 13.5t-65.5 -13.5t-43 -36.5t-24 -54
t-7.5 -66z" />
    <glyph glyph-name="Ohungarumlaut" unicode="&#x150;" horiz-adv-x="721" 
d="M257 787q-14 -12 -31 -12h-15q-14 0 -17.5 7t5.5 18l66 83q14 17 35 17h28q22 0 26 -9t-13 -25zM422 787q-14 -12 -31 -12h-15q-14 0 -17.5 7t5.5 18l66 83q14 17 36 17h27q23 0 26.5 -9t-12.5 -25zM690 350q0 -79 -21.5 -145t-63.5 -114t-103.5 -74.5t-141.5 -26.5
q-82 0 -144 28t-103 76.5t-62 114.5t-21 141q0 79 22 145t64 114t103.5 74.5t140.5 26.5q82 0 144 -28t103 -76.5t62 -114.5t21 -141zM130 350q0 -56 14 -105.5t42.5 -86t71.5 -57.5t102 -21q61 0 104.5 22t71.5 59.5t41 86t13 102.5q0 56 -14 105.5t-42.5 86t-71.5 57.5
t-102 21q-61 0 -104.5 -22t-71.5 -59.5t-41 -86t-13 -102.5z" />
    <glyph glyph-name="ohungarumlaut" unicode="&#x151;" horiz-adv-x="546" 
d="M169 587q-14 -12 -31 -12h-14q-15 0 -18.5 7t5.5 18l67 83q14 17 35 17h27q23 0 26.5 -9t-12.5 -25zM334 587q-5 -5 -13.5 -8.5t-16.5 -3.5h-15q-15 0 -18 7t6 18l66 83q14 17 35 17h28q22 0 26 -9t-13 -25zM513 250q0 -58 -15.5 -105.5t-46 -82t-75.5 -53.5t-103 -19
q-60 0 -105 20t-75 55t-45 82.5t-15 102.5q0 58 16 105.5t46.5 82t75 53.5t102.5 19q60 0 105 -20t75 -55t45 -82.5t15 -102.5zM133 250q0 -35 7.5 -66t24 -54t43 -36.5t65.5 -13.5t66 13.5t43.5 36.5t23.5 54t7 66t-7 66t-23.5 54t-43.5 36.5t-66 13.5t-65.5 -13.5
t-43 -36.5t-24 -54t-7.5 -66z" />
    <glyph glyph-name="OE" unicode="&#x152;" horiz-adv-x="1102" 
d="M597 83q-42 -45 -101.5 -69t-135.5 -24q-82 0 -144 28t-103 76.5t-62 114.5t-21 141q0 79 22 145t64 114t103.5 74.5t140.5 26.5q78 0 136.5 -24.5t100.5 -68.5v38q0 20 12.5 32.5t32.5 12.5h380q20 0 32.5 -12.5t12.5 -32.5v-10q0 -20 -12.5 -32.5t-32.5 -12.5h-325
v-144q0 -20 7 -31.5t19.5 -17t29.5 -6.5t36 -1h173q20 0 32.5 -12.5t12.5 -32.5v-10q0 -20 -12.5 -32.5t-32.5 -12.5h-159q-72 0 -106 24v-224h325q20 0 32.5 -12.5t12.5 -32.5v-10q0 -20 -12.5 -32.5t-32.5 -12.5h-380q-20 0 -32.5 12.5t-12.5 32.5v38zM130 350
q0 -56 14 -105.5t42.5 -86t71.5 -57.5t102 -21q61 0 104.5 22t71.5 59.5t41 86t13 102.5q0 56 -14 105.5t-42.5 86t-71.5 57.5t-102 21q-61 0 -104.5 -22t-71.5 -59.5t-41 -86t-13 -102.5z" />
    <glyph glyph-name="oe" unicode="&#x153;" horiz-adv-x="920" 
d="M854 94q-23 -45 -73.5 -74.5t-122.5 -29.5q-67 0 -115 24t-78 66q-30 -43 -78 -66.5t-114 -23.5q-60 0 -105 20t-75 55t-45 82.5t-15 102.5q0 58 16 105.5t46.5 82t75 53.5t102.5 19q66 0 114 -23.5t77 -65.5q28 41 73 65t111 24q49 0 86.5 -14t65 -38.5t45 -58.5
t25.5 -73q10 -50 4 -105l-1 -5q0 -6 -6 -6h-241q-49 0 -70 12.5t-28 33.5v-56q0 -7 3.5 -27t16.5 -40.5t39 -36.5t71 -16q24 0 50 6.5t45 28.5q8 10 19.5 17.5t25.5 7.5h20q23 0 34 -13t2 -33zM133 250q0 -35 7.5 -66t24 -54t43 -36.5t65.5 -13.5t66 13.5t43.5 36.5t23.5 54
t7 66t-7 66t-23.5 54t-43.5 36.5t-66 13.5t-65.5 -13.5t-43 -36.5t-24 -54t-7.5 -66zM562 294q13 -3 29 -3.5t35 -0.5h142v10q0 11 -3.5 31.5t-15.5 40t-36 34t-65 14.5q-28 0 -47.5 -7t-33 -17.5t-21.5 -24t-12 -27.5q-5 -16 3 -31t25 -19z" />
    <glyph glyph-name="Racute" unicode="&#x154;" horiz-adv-x="632" 
d="M295 787q-14 -12 -31 -12h-15q-14 0 -17.5 7t5.5 18l66 83q14 17 35 17h28q23 0 26.5 -9t-13.5 -25zM140 45q0 -20 -12.5 -32.5t-32.5 -12.5h-10q-20 0 -32.5 12.5t-12.5 32.5v610q0 20 12.5 32.5t32.5 12.5h230q53 0 92.5 -10t69 -26t49 -36.5t32.5 -42.5
q29 -51 32 -115q-1 -40 -14 -78q-12 -31 -38 -66t-76 -58l126 -218q13 -23 5 -36.5t-34 -13.5h-32q-26 0 -39 23l-127 219q-11 -1 -22.5 -1.5t-23.5 -0.5q-57 0 -101 10.5t-74 35.5v-241zM140 413q0 -27 20.5 -42t48.5 -22t58 -8t48 -1q34 0 59 5.5t44 15t31.5 21t20.5 23.5
q18 29 20 65q0 10 -2 22q-2 10 -7 22t-14 25q-9 12 -21.5 23t-31 19.5t-43 13.5t-56.5 5h-175v-187z" />
    <glyph glyph-name="racute" unicode="&#x155;" horiz-adv-x="352" 
d="M155 587q-14 -12 -31 -12h-15q-14 0 -17.5 7t5.5 18l66 83q14 17 35 17h28q23 0 26.5 -9t-13.5 -25zM140 45q0 -20 -12.5 -32.5t-32.5 -12.5h-10q-20 0 -32.5 12.5t-12.5 32.5v410q0 20 12.5 32.5t32.5 12.5h28q12 0 19.5 -7.5t7.5 -19.5v-27q25 29 60 41.5t80 12.5h25
q11 0 17.5 -7t6.5 -18v-50q0 -11 -6.5 -18t-17.5 -7h-25q-22 0 -46.5 -4.5t-45.5 -16t-34.5 -30t-13.5 -45.5v-259z" />
    <glyph glyph-name="uni0156" unicode="&#x156;" horiz-adv-x="632" 
d="M140 45q0 -20 -12.5 -32.5t-32.5 -12.5h-10q-20 0 -32.5 12.5t-12.5 32.5v610q0 20 12.5 32.5t32.5 12.5h230q53 0 92.5 -10t69 -26t49 -36.5t32.5 -42.5q29 -51 32 -115q-1 -40 -14 -78q-12 -31 -38 -66t-76 -58l126 -218q13 -23 5 -36.5t-34 -13.5h-32q-26 0 -39 23
l-127 219q-11 -1 -22.5 -1.5t-23.5 -0.5q-57 0 -101 10.5t-74 35.5v-241zM140 413q0 -27 20.5 -42t48.5 -22t58 -8t48 -1q34 0 59 5.5t44 15t31.5 21t20.5 23.5q18 29 20 65q0 10 -2 22q-2 10 -7 22t-14 25q-9 12 -21.5 23t-31 19.5t-43 13.5t-56.5 5h-175v-187zM301 -226
q-5 -9 -14 -14.5t-20 -5.5q-22 0 -15 22l33 104h-21q-20 0 -20 20v55q0 20 12.5 32.5t32.5 12.5h30q20 0 32.5 -12.5t12.5 -32.5v-63q0 -13 -7 -23z" />
    <glyph glyph-name="uni0157" unicode="&#x157;" horiz-adv-x="352" 
d="M140 45q0 -20 -12.5 -32.5t-32.5 -12.5h-10q-20 0 -32.5 12.5t-12.5 32.5v410q0 20 12.5 32.5t32.5 12.5h28q12 0 19.5 -7.5t7.5 -19.5v-27q25 29 60 41.5t80 12.5h25q11 0 17.5 -7t6.5 -18v-50q0 -11 -6.5 -18t-17.5 -7h-25q-22 0 -46.5 -4.5t-45.5 -16t-34.5 -30
t-13.5 -45.5v-259zM271 -226q-5 -9 -14 -14.5t-20 -5.5q-22 0 -15 22l33 104h-21q-20 0 -20 20v55q0 20 12.5 32.5t32.5 12.5h30q20 0 32.5 -12.5t12.5 -32.5v-63q0 -13 -7 -23z" />
    <glyph glyph-name="Rcaron" unicode="&#x158;" horiz-adv-x="632" 
d="M380 792q-6 -8 -15.5 -12.5t-19.5 -4.5h-58q-10 0 -19.5 4.5t-15.5 12.5l-66 83q-9 11 -6 18t18 7h14q19 0 32 -13l72 -74l72 74q13 13 32 13h14q15 0 18.5 -7t-6.5 -18zM140 45q0 -20 -12.5 -32.5t-32.5 -12.5h-10q-20 0 -32.5 12.5t-12.5 32.5v610q0 20 12.5 32.5
t32.5 12.5h230q53 0 92.5 -10t69 -26t49 -36.5t32.5 -42.5q29 -51 32 -115q-1 -40 -14 -78q-12 -31 -38 -66t-76 -58l126 -218q13 -23 5 -36.5t-34 -13.5h-32q-26 0 -39 23l-127 219q-11 -1 -22.5 -1.5t-23.5 -0.5q-57 0 -101 10.5t-74 35.5v-241zM140 413q0 -27 20.5 -42
t48.5 -22t58 -8t48 -1q34 0 59 5.5t44 15t31.5 21t20.5 23.5q18 29 20 65q0 10 -2 22q-2 10 -7 22t-14 25q-9 12 -21.5 23t-31 19.5t-43 13.5t-56.5 5h-175v-187z" />
    <glyph glyph-name="rcaron" unicode="&#x159;" horiz-adv-x="352" 
d="M240 592q-6 -8 -15.5 -12.5t-19.5 -4.5h-58q-10 0 -19.5 4.5t-15.5 12.5l-66 83q-9 11 -6 18t18 7h14q19 0 32 -13l72 -74l72 74q13 13 32 13h14q15 0 18.5 -7t-6.5 -18zM140 45q0 -20 -12.5 -32.5t-32.5 -12.5h-10q-20 0 -32.5 12.5t-12.5 32.5v410q0 20 12.5 32.5
t32.5 12.5h28q12 0 19.5 -7.5t7.5 -19.5v-27q25 29 60 41.5t80 12.5h25q11 0 17.5 -7t6.5 -18v-50q0 -11 -6.5 -18t-17.5 -7h-25q-22 0 -46.5 -4.5t-45.5 -16t-34.5 -30t-13.5 -45.5v-259z" />
    <glyph glyph-name="Sacute" unicode="&#x15a;" horiz-adv-x="599" 
d="M278 787q-5 -5 -13.5 -8.5t-16.5 -3.5h-15q-15 0 -18.5 7t6.5 18l66 83q14 17 35 17h28q22 0 25.5 -9t-12.5 -25zM573 190q0 -57 -24.5 -95.5t-63 -62t-86.5 -33t-96 -9.5q-51 0 -98 10.5t-84 33t-62 58t-33 84.5q-3 20 9.5 32t32.5 12h10q20 0 32.5 -12t17.5 -32
q8 -29 26 -48t43 -29.5t55 -14.5t61 -4q28 0 56.5 5t51.5 17t37.5 33.5t14.5 54.5q0 28 -8 47.5t-23 32t-35 20.5t-44 14q-19 4 -41.5 8t-48.5 8q-44 6 -85.5 19.5t-73.5 36.5t-51.5 58t-19.5 86q0 52 22.5 88.5t58.5 59t80.5 32.5t88.5 10q48 0 91.5 -9t77.5 -28.5t57 -51
t30 -77.5q4 -20 -8.5 -32t-32.5 -12h-10q-20 0 -32.5 12t-18.5 31q-7 26 -23.5 41t-39 23t-48.5 10.5t-53 2.5q-24 0 -49 -5t-45 -16.5t-33 -30.5t-13 -48q0 -25 7.5 -43t21 -30t32 -19t40.5 -12q18 -5 40.5 -8.5t48.5 -7.5q49 -7 92.5 -20t76.5 -37t52 -61.5t19 -91.5z" />
    <glyph glyph-name="sacute" unicode="&#x15b;" horiz-adv-x="471" 
d="M214 587q-5 -5 -13.5 -8.5t-16.5 -3.5h-15q-15 0 -18.5 7t6.5 18l66 83q14 17 35 17h28q22 0 25.5 -9t-12.5 -25zM435 140q0 -42 -17.5 -70.5t-46 -46t-64 -25.5t-72.5 -8t-69.5 7t-58 22t-43 39t-24.5 58q-5 20 7.5 32t32.5 12h10q20 0 33 -11.5t21 -28.5
q12 -23 36.5 -31.5t54.5 -8.5q16 0 33.5 2t32.5 8t24.5 18t9.5 32q0 33 -19 46t-49 20l-62 14q-31 6 -60 16t-51 27.5t-35.5 43.5t-13.5 63q0 39 17 66t44 43.5t61 23.5t68 7q30 0 60 -5.5t55 -18.5t43.5 -33t26.5 -49q5 -20 -7.5 -32t-32.5 -12h-10q-20 0 -32.5 11
t-23.5 24q-13 15 -35 20t-44 5q-13 0 -29 -1t-29.5 -6t-22.5 -15t-9 -28q0 -17 6.5 -28t17 -18.5t24.5 -12t28 -7.5q14 -4 29.5 -7t34.5 -7q33 -6 61 -16.5t47.5 -28t30.5 -43t11 -62.5z" />
    <glyph glyph-name="Scircumflex" unicode="&#x15c;" horiz-adv-x="599" 
d="M227 788q-13 -13 -32 -13h-13q-15 0 -18.5 7t5.5 18l66 83q15 17 36 17h57q22 0 36 -17l66 -83q9 -11 5.5 -18t-17.5 -7h-14q-19 0 -32 13l-72 73zM573 190q0 -57 -24.5 -95.5t-63 -62t-86.5 -33t-96 -9.5q-51 0 -98 10.5t-84 33t-62 58t-33 84.5q-3 20 9.5 32t32.5 12
h10q20 0 32.5 -12t17.5 -32q8 -29 26 -48t43 -29.5t55 -14.5t61 -4q28 0 56.5 5t51.5 17t37.5 33.5t14.5 54.5q0 28 -8 47.5t-23 32t-35 20.5t-44 14q-19 4 -41.5 8t-48.5 8q-44 6 -85.5 19.5t-73.5 36.5t-51.5 58t-19.5 86q0 52 22.5 88.5t58.5 59t80.5 32.5t88.5 10
q48 0 91.5 -9t77.5 -28.5t57 -51t30 -77.5q4 -20 -8.5 -32t-32.5 -12h-10q-20 0 -32.5 12t-18.5 31q-7 26 -23.5 41t-39 23t-48.5 10.5t-53 2.5q-24 0 -49 -5t-45 -16.5t-33 -30.5t-13 -48q0 -25 7.5 -43t21 -30t32 -19t40.5 -12q18 -5 40.5 -8.5t48.5 -7.5q49 -7 92.5 -20
t76.5 -37t52 -61.5t19 -91.5z" />
    <glyph glyph-name="scircumflex" unicode="&#x15d;" horiz-adv-x="471" 
d="M163 588q-13 -13 -32 -13h-13q-15 0 -18.5 7t5.5 18l66 83q15 17 36 17h57q22 0 36 -17l66 -83q9 -11 5.5 -18t-17.5 -7h-14q-19 0 -32 13l-72 73zM435 140q0 -42 -17.5 -70.5t-46 -46t-64 -25.5t-72.5 -8t-69.5 7t-58 22t-43 39t-24.5 58q-5 20 7.5 32t32.5 12h10
q20 0 33 -11.5t21 -28.5q12 -23 36.5 -31.5t54.5 -8.5q16 0 33.5 2t32.5 8t24.5 18t9.5 32q0 33 -19 46t-49 20l-62 14q-31 6 -60 16t-51 27.5t-35.5 43.5t-13.5 63q0 39 17 66t44 43.5t61 23.5t68 7q30 0 60 -5.5t55 -18.5t43.5 -33t26.5 -49q5 -20 -7.5 -32t-32.5 -12h-10
q-20 0 -32.5 11t-23.5 24q-13 15 -35 20t-44 5q-13 0 -29 -1t-29.5 -6t-22.5 -15t-9 -28q0 -17 6.5 -28t17 -18.5t24.5 -12t28 -7.5q14 -4 29.5 -7t34.5 -7q33 -6 61 -16.5t47.5 -28t30.5 -43t11 -62.5z" />
    <glyph glyph-name="Scedilla" unicode="&#x15e;" horiz-adv-x="599" 
d="M395 -122q0 -17 -8.5 -34t-23.5 -31.5t-36.5 -23.5t-47.5 -9q-30 0 -51 11t-32 21q-6 5 -5.5 12.5t6.5 12.5q5 6 12 6.5t14 -3.5q22 -10 47 -10q23 0 41 9.5t18 30.5q0 23 -14 30.5t-31 7.5q-8 0 -16 -1t-14 -3q-15 -3 -26 6q-12 10 -2 22l46 59q-46 3 -87.5 15.5t-74 35
t-54.5 56t-30 78.5q-3 20 9.5 32t32.5 12h10q20 0 32.5 -12t17.5 -32q8 -29 26 -48t43 -29.5t55 -14.5t61 -4q28 0 56.5 5t51.5 17t37.5 33.5t14.5 54.5q0 28 -8 47.5t-23 32t-35 20.5t-44 14q-19 4 -41.5 8t-48.5 8q-44 6 -85.5 19.5t-73.5 36.5t-51.5 58t-19.5 86
q0 52 22.5 88.5t58.5 59t80.5 32.5t88.5 10q48 0 91.5 -9t77.5 -28.5t57 -51t30 -77.5q4 -20 -8.5 -32t-32.5 -12h-10q-20 0 -32.5 12t-18.5 31q-7 26 -23.5 41t-39 23t-48.5 10.5t-53 2.5q-24 0 -49 -5t-45 -16.5t-33 -30.5t-13 -48q0 -25 7.5 -43t21 -30t32 -19t40.5 -12
q18 -5 40.5 -8.5t48.5 -7.5q49 -7 92.5 -20t76.5 -37t52 -61.5t19 -91.5q0 -51 -19.5 -87t-51 -59.5t-72 -35.5t-83.5 -16l-45 -43q29 3 47 -2.5t28.5 -16.5t14 -25t3.5 -27z" />
    <glyph glyph-name="scedilla" unicode="&#x15f;" horiz-adv-x="471" 
d="M331 -122q0 -17 -8.5 -34t-23.5 -31.5t-36.5 -23.5t-47.5 -9q-30 0 -51 11t-32 21q-6 5 -5.5 12.5t6.5 12.5q5 6 12 6.5t14 -3.5q22 -10 47 -10q23 0 41 9.5t18 30.5q0 23 -14 30.5t-31 7.5q-8 0 -16 -1t-14 -3q-15 -3 -26 6q-12 10 -2 22l46 59q-64 4 -110 33.5
t-58 91.5q-5 20 7.5 32t32.5 12h10q20 0 33 -11.5t21 -28.5q12 -23 36.5 -31.5t54.5 -8.5q16 0 33.5 2t32.5 8t24.5 18t9.5 32q0 33 -19 46t-49 20l-62 14q-31 6 -60 16t-51 27.5t-35.5 43.5t-13.5 63q0 39 17 66t44 43.5t61 23.5t68 7q30 0 60 -5.5t55 -18.5t43.5 -33
t26.5 -49q5 -20 -7.5 -32t-32.5 -12h-10q-20 0 -32.5 11t-23.5 24q-13 15 -35 20t-44 5q-13 0 -29 -1t-29.5 -6t-22.5 -15t-9 -28q0 -17 6.5 -28t17 -18.5t24.5 -12t28 -7.5q14 -4 29.5 -7t34.5 -7q33 -6 61 -16.5t47.5 -28t30.5 -43t11 -62.5q0 -34 -12.5 -60t-33 -43.5
t-48 -28t-57.5 -14.5l-46 -45q29 3 47 -2.5t28.5 -16.5t14 -25t3.5 -27z" />
    <glyph glyph-name="Scaron" unicode="&#x160;" horiz-adv-x="599" 
d="M364 792q-6 -8 -16 -12.5t-20 -4.5h-57q-22 0 -36 17l-66 83q-9 11 -5.5 18t18.5 7h13q19 0 32 -13l73 -74l72 74q13 13 32 13h14q14 0 17.5 -7t-5.5 -18zM573 190q0 -57 -24.5 -95.5t-63 -62t-86.5 -33t-96 -9.5q-51 0 -98 10.5t-84 33t-62 58t-33 84.5q-3 20 9.5 32
t32.5 12h10q20 0 32.5 -12t17.5 -32q8 -29 26 -48t43 -29.5t55 -14.5t61 -4q28 0 56.5 5t51.5 17t37.5 33.5t14.5 54.5q0 28 -8 47.5t-23 32t-35 20.5t-44 14q-19 4 -41.5 8t-48.5 8q-44 6 -85.5 19.5t-73.5 36.5t-51.5 58t-19.5 86q0 52 22.5 88.5t58.5 59t80.5 32.5
t88.5 10q48 0 91.5 -9t77.5 -28.5t57 -51t30 -77.5q4 -20 -8.5 -32t-32.5 -12h-10q-20 0 -32.5 12t-18.5 31q-7 26 -23.5 41t-39 23t-48.5 10.5t-53 2.5q-24 0 -49 -5t-45 -16.5t-33 -30.5t-13 -48q0 -25 7.5 -43t21 -30t32 -19t40.5 -12q18 -5 40.5 -8.5t48.5 -7.5
q49 -7 92.5 -20t76.5 -37t52 -61.5t19 -91.5z" />
    <glyph glyph-name="scaron" unicode="&#x161;" horiz-adv-x="471" 
d="M300 592q-6 -8 -16 -12.5t-20 -4.5h-57q-22 0 -36 17l-66 83q-9 11 -5.5 18t18.5 7h13q19 0 32 -13l73 -74l72 74q13 13 32 13h14q14 0 17.5 -7t-5.5 -18zM435 140q0 -42 -17.5 -70.5t-46 -46t-64 -25.5t-72.5 -8t-69.5 7t-58 22t-43 39t-24.5 58q-5 20 7.5 32t32.5 12
h10q20 0 33 -11.5t21 -28.5q12 -23 36.5 -31.5t54.5 -8.5q16 0 33.5 2t32.5 8t24.5 18t9.5 32q0 33 -19 46t-49 20l-62 14q-31 6 -60 16t-51 27.5t-35.5 43.5t-13.5 63q0 39 17 66t44 43.5t61 23.5t68 7q30 0 60 -5.5t55 -18.5t43.5 -33t26.5 -49q5 -20 -7.5 -32t-32.5 -12
h-10q-20 0 -32.5 11t-23.5 24q-13 15 -35 20t-44 5q-13 0 -29 -1t-29.5 -6t-22.5 -15t-9 -28q0 -17 6.5 -28t17 -18.5t24.5 -12t28 -7.5q14 -4 29.5 -7t34.5 -7q33 -6 61 -16.5t47.5 -28t30.5 -43t11 -62.5z" />
    <glyph glyph-name="uni0162" unicode="&#x162;" horiz-adv-x="579" 
d="M340 45q0 -20 -12.5 -32.5t-32.5 -12.5h-10q-20 0 -32.5 12.5t-12.5 32.5v555h-175q-20 0 -32.5 12.5t-12.5 32.5v10q0 20 12.5 32.5t32.5 12.5h450q20 0 32.5 -12.5t12.5 -32.5v-10q0 -20 -12.5 -32.5t-32.5 -12.5h-175v-555z" />
    <glyph glyph-name="uni0163" unicode="&#x163;" horiz-adv-x="379" 
d="M341 37q0 -17 -10 -27t-26 -10h-37q-32 0 -60.5 12.5t-49.5 33.5t-33.5 49.5t-12.5 60.5v244h-47q-20 0 -32.5 12.5t-12.5 32.5v10q0 20 12.5 32.5t32.5 12.5h47v65q0 20 12.5 32.5t32.5 12.5h10q20 0 32.5 -12.5t12.5 -32.5v-65h83q20 0 32.5 -12.5t12.5 -32.5v-10
q0 -20 -12.5 -32.5t-32.5 -12.5h-83v-248q0 -26 18 -44t44 -18h33q34 0 34 -34v-19z" />
    <glyph glyph-name="Tcaron" unicode="&#x164;" horiz-adv-x="579" 
d="M354 792q-6 -8 -16 -12.5t-20 -4.5h-57q-22 0 -36 17l-66 83q-9 11 -5.5 18t18.5 7h13q19 0 32 -13l73 -74l72 74q13 13 32 13h14q14 0 17.5 -7t-5.5 -18zM340 45q0 -20 -12.5 -32.5t-32.5 -12.5h-10q-20 0 -32.5 12.5t-12.5 32.5v555h-175q-20 0 -32.5 12.5t-12.5 32.5
v10q0 20 12.5 32.5t32.5 12.5h450q20 0 32.5 -12.5t12.5 -32.5v-10q0 -20 -12.5 -32.5t-32.5 -12.5h-175v-555z" />
    <glyph glyph-name="tcaron" unicode="&#x165;" horiz-adv-x="554" 
d="M464 474q-5 -8 -14 -13.5t-20 -5.5q-21 0 -15 21l33 104h-21q-20 0 -20 21v54q0 20 12.5 32.5t32.5 12.5h30q20 0 32.5 -12.5t12.5 -32.5v-63q0 -11 -7 -22zM341 37q0 -17 -10 -27t-26 -10h-37q-32 0 -60.5 12.5t-49.5 33.5t-33.5 49.5t-12.5 60.5v244h-47
q-20 0 -32.5 12.5t-12.5 32.5v10q0 20 12.5 32.5t32.5 12.5h47v65q0 20 12.5 32.5t32.5 12.5h10q20 0 32.5 -12.5t12.5 -32.5v-65h83q20 0 32.5 -12.5t12.5 -32.5v-10q0 -20 -12.5 -32.5t-32.5 -12.5h-83v-248q0 -26 18 -44t44 -18h33q34 0 34 -34v-19z" />
    <glyph glyph-name="Tbar" unicode="&#x166;" horiz-adv-x="579" 
d="M340 45q0 -20 -12.5 -32.5t-32.5 -12.5h-10q-20 0 -32.5 12.5t-12.5 32.5v256h-90q-20 0 -32.5 12.5t-12.5 32.5v10q0 20 12.5 32.5t32.5 12.5h90v199h-175q-20 0 -32.5 12.5t-12.5 32.5v10q0 20 12.5 32.5t32.5 12.5h450q20 0 32.5 -12.5t12.5 -32.5v-10
q0 -20 -12.5 -32.5t-32.5 -12.5h-175v-199h90q20 0 32.5 -12.5t12.5 -32.5v-10q0 -20 -12.5 -32.5t-32.5 -12.5h-90v-256z" />
    <glyph glyph-name="tbar" unicode="&#x167;" horiz-adv-x="379" 
d="M341 37q0 -17 -10 -27t-26 -10h-37q-32 0 -60.5 12.5t-49.5 33.5t-33.5 49.5t-12.5 60.5v62h-47q-20 0 -32.5 12.5t-12.5 32.5v10q0 20 12.5 32.5t32.5 12.5h47v82h-47q-20 0 -32.5 12.5t-12.5 32.5v10q0 20 12.5 32.5t32.5 12.5h47v65q0 20 12.5 32.5t32.5 12.5h10
q20 0 32.5 -12.5t12.5 -32.5v-65h83q20 0 32.5 -12.5t12.5 -32.5v-10q0 -20 -12.5 -32.5t-32.5 -12.5h-83v-82h82q20 0 32.5 -12.5t12.5 -32.5v-10q0 -20 -12.5 -32.5t-32.5 -12.5h-82v-66q0 -26 18 -44t44 -18h33q34 0 34 -34v-19z" />
    <glyph glyph-name="Utilde" unicode="&#x168;" horiz-adv-x="619" 
d="M473 875q-5 -41 -27.5 -68t-70.5 -27q-26 0 -46 9t-39 26l-28 24q-13 11 -27 11q-20 0 -28.5 -10t-10.5 -25q-3 -25 -26 -25q-11 0 -18.5 7t-5.5 18q5 40 27 67.5t72 27.5q26 0 45.5 -9t39.5 -26l27 -24q13 -11 28 -11q20 0 28 10t10 25q3 25 27 25q11 0 18 -7t5 -18z
M579 250q0 -64 -20 -112.5t-55.5 -81.5t-85 -49.5t-109.5 -16.5q-63 0 -113 17.5t-85 51t-53.5 82t-18.5 109.5v405q0 20 12.5 32.5t32.5 12.5h10q20 0 32.5 -12.5t12.5 -32.5v-405q0 -83 43 -126.5t127 -43.5q83 0 126.5 43.5t43.5 126.5v405q0 20 12.5 32.5t32.5 12.5h10
q20 0 32.5 -12.5t12.5 -32.5v-405z" />
    <glyph glyph-name="utilde" unicode="&#x169;" horiz-adv-x="508" 
d="M418 675q-5 -41 -28 -68t-71 -27q-26 0 -45.5 9t-39.5 26l-27 24q-14 11 -28 11q-20 0 -28.5 -10t-10.5 -25q-3 -25 -26 -25q-11 0 -18 7t-6 18q5 40 27.5 67.5t71.5 27.5q26 0 45.5 -9t39.5 -26l28 -24q13 -11 27 -11q20 0 28.5 10t10.5 25q3 25 26 25q11 0 18 -7t6 -18
zM359 54q-25 -29 -65 -46.5t-85 -17.5q-35 0 -61 11t-45.5 29.5t-32.5 42t-21 47.5q-19 57 -20 130v205q0 20 12.5 32.5t32.5 12.5h10q20 0 32.5 -12.5t12.5 -32.5v-205q0 -45 12 -80q10 -30 32.5 -55t65.5 -25q22 0 43.5 7t38.5 20.5t27.5 33.5t10.5 46v258q0 20 12.5 32.5
t32.5 12.5h10q20 0 32.5 -12.5t12.5 -32.5v-410q0 -20 -12.5 -32.5t-32.5 -12.5h-28q-12 0 -19.5 7.5t-7.5 19.5v27z" />
    <glyph glyph-name="Umacron" unicode="&#x16a;" horiz-adv-x="619" 
d="M495 846q0 -20 -12.5 -32.5t-32.5 -12.5h-280q-20 0 -32.5 12.5t-12.5 32.5v10q0 20 12.5 32.5t32.5 12.5h280q20 0 32.5 -12.5t12.5 -32.5v-10zM579 250q0 -64 -20 -112.5t-55.5 -81.5t-85 -49.5t-109.5 -16.5q-63 0 -113 17.5t-85 51t-53.5 82t-18.5 109.5v405
q0 20 12.5 32.5t32.5 12.5h10q20 0 32.5 -12.5t12.5 -32.5v-405q0 -83 43 -126.5t127 -43.5q83 0 126.5 43.5t43.5 126.5v405q0 20 12.5 32.5t32.5 12.5h10q20 0 32.5 -12.5t12.5 -32.5v-405z" />
    <glyph glyph-name="umacron" unicode="&#x16b;" horiz-adv-x="508" 
d="M439 646q0 -20 -12.5 -32.5t-32.5 -12.5h-280q-20 0 -32.5 12.5t-12.5 32.5v10q0 20 12.5 32.5t32.5 12.5h280q20 0 32.5 -12.5t12.5 -32.5v-10zM359 54q-25 -29 -65 -46.5t-85 -17.5q-35 0 -61 11t-45.5 29.5t-32.5 42t-21 47.5q-19 57 -20 130v205q0 20 12.5 32.5
t32.5 12.5h10q20 0 32.5 -12.5t12.5 -32.5v-205q0 -45 12 -80q10 -30 32.5 -55t65.5 -25q22 0 43.5 7t38.5 20.5t27.5 33.5t10.5 46v258q0 20 12.5 32.5t32.5 12.5h10q20 0 32.5 -12.5t12.5 -32.5v-410q0 -20 -12.5 -32.5t-32.5 -12.5h-28q-12 0 -19.5 7.5t-7.5 19.5v27z
" />
    <glyph glyph-name="Ubreve" unicode="&#x16c;" horiz-adv-x="619" 
d="M450 890q0 -31 -11 -55t-30 -40.5t-44.5 -25.5t-54.5 -9q-30 0 -55.5 9t-44 25.5t-29.5 40.5t-11 55v5q0 5 5 5h60q5 0 5 -5v-5q0 -32 20.5 -46t49.5 -14t49.5 14t20.5 46v5q0 5 5 5h60q5 0 5 -5v-5zM579 250q0 -64 -20 -112.5t-55.5 -81.5t-85 -49.5t-109.5 -16.5
q-63 0 -113 17.5t-85 51t-53.5 82t-18.5 109.5v405q0 20 12.5 32.5t32.5 12.5h10q20 0 32.5 -12.5t12.5 -32.5v-405q0 -83 43 -126.5t127 -43.5q83 0 126.5 43.5t43.5 126.5v405q0 20 12.5 32.5t32.5 12.5h10q20 0 32.5 -12.5t12.5 -32.5v-405z" />
    <glyph glyph-name="ubreve" unicode="&#x16d;" horiz-adv-x="508" 
d="M394 690q0 -31 -11 -55t-29.5 -40.5t-44 -25.5t-55.5 -9t-55.5 9t-44 25.5t-29.5 40.5t-11 55v5q0 5 5 5h60q5 0 5 -5v-5q0 -32 20.5 -46t49.5 -14t49.5 14t20.5 46v5q0 5 5 5h60q5 0 5 -5v-5zM359 54q-25 -29 -65 -46.5t-85 -17.5q-35 0 -61 11t-45.5 29.5t-32.5 42
t-21 47.5q-19 57 -20 130v205q0 20 12.5 32.5t32.5 12.5h10q20 0 32.5 -12.5t12.5 -32.5v-205q0 -45 12 -80q10 -30 32.5 -55t65.5 -25q22 0 43.5 7t38.5 20.5t27.5 33.5t10.5 46v258q0 20 12.5 32.5t32.5 12.5h10q20 0 32.5 -12.5t12.5 -32.5v-410q0 -20 -12.5 -32.5
t-32.5 -12.5h-28q-12 0 -19.5 7.5t-7.5 19.5v27z" />
    <glyph glyph-name="Uring" unicode="&#x16e;" horiz-adv-x="619" 
d="M410 836q0 -19 -8 -36.5t-21.5 -30t-31.5 -20t-39 -7.5t-39 7.5t-31.5 20t-21.5 30t-8 36.5q0 20 8 37t21.5 29.5t31.5 20t39 7.5t39 -7.5t31.5 -20t21.5 -29.5t8 -37zM260 836q0 -18 14.5 -31t35.5 -13q20 0 35 13t15 31t-15 31t-35 13q-21 0 -35.5 -13t-14.5 -31z
M579 250q0 -64 -20 -112.5t-55.5 -81.5t-85 -49.5t-109.5 -16.5q-63 0 -113 17.5t-85 51t-53.5 82t-18.5 109.5v405q0 20 12.5 32.5t32.5 12.5h10q20 0 32.5 -12.5t12.5 -32.5v-405q0 -83 43 -126.5t127 -43.5q83 0 126.5 43.5t43.5 126.5v405q0 20 12.5 32.5t32.5 12.5h10
q20 0 32.5 -12.5t12.5 -32.5v-405z" />
    <glyph glyph-name="uring" unicode="&#x16f;" horiz-adv-x="508" 
d="M354 636q0 -19 -8 -36.5t-21.5 -30t-31.5 -20t-39 -7.5t-39 7.5t-31.5 20t-21.5 30t-8 36.5q0 20 8 37t21.5 29.5t31.5 20t39 7.5t39 -7.5t31.5 -20t21.5 -29.5t8 -37zM204 636q0 -18 14.5 -31t35.5 -13t35.5 13t14.5 31t-14.5 31t-35.5 13t-35.5 -13t-14.5 -31zM359 54
q-25 -29 -65 -46.5t-85 -17.5q-35 0 -61 11t-45.5 29.5t-32.5 42t-21 47.5q-19 57 -20 130v205q0 20 12.5 32.5t32.5 12.5h10q20 0 32.5 -12.5t12.5 -32.5v-205q0 -45 12 -80q10 -30 32.5 -55t65.5 -25q22 0 43.5 7t38.5 20.5t27.5 33.5t10.5 46v258q0 20 12.5 32.5
t32.5 12.5h10q20 0 32.5 -12.5t12.5 -32.5v-410q0 -20 -12.5 -32.5t-32.5 -12.5h-28q-12 0 -19.5 7.5t-7.5 19.5v27z" />
    <glyph glyph-name="Uhungarumlaut" unicode="&#x170;" horiz-adv-x="619" 
d="M206 787q-14 -12 -31 -12h-15q-14 0 -17.5 7t5.5 18l66 83q14 17 35 17h28q22 0 26 -9t-13 -25zM371 787q-14 -12 -31 -12h-15q-14 0 -17.5 7t5.5 18l66 83q14 17 36 17h27q23 0 26.5 -9t-12.5 -25zM579 250q0 -64 -20 -112.5t-55.5 -81.5t-85 -49.5t-109.5 -16.5
q-63 0 -113 17.5t-85 51t-53.5 82t-18.5 109.5v405q0 20 12.5 32.5t32.5 12.5h10q20 0 32.5 -12.5t12.5 -32.5v-405q0 -83 43 -126.5t127 -43.5q83 0 126.5 43.5t43.5 126.5v405q0 20 12.5 32.5t32.5 12.5h10q20 0 32.5 -12.5t12.5 -32.5v-405z" />
    <glyph glyph-name="uhungarumlaut" unicode="&#x171;" horiz-adv-x="508" 
d="M150 587q-14 -12 -31 -12h-14q-15 0 -18.5 7t5.5 18l67 83q14 17 35 17h27q23 0 26.5 -9t-12.5 -25zM315 587q-5 -5 -13.5 -8.5t-16.5 -3.5h-15q-15 0 -18 7t6 18l66 83q14 17 35 17h28q22 0 26 -9t-13 -25zM359 54q-25 -29 -65 -46.5t-85 -17.5q-35 0 -61 11t-45.5 29.5
t-32.5 42t-21 47.5q-19 57 -20 130v205q0 20 12.5 32.5t32.5 12.5h10q20 0 32.5 -12.5t12.5 -32.5v-205q0 -45 12 -80q10 -30 32.5 -55t65.5 -25q22 0 43.5 7t38.5 20.5t27.5 33.5t10.5 46v258q0 20 12.5 32.5t32.5 12.5h10q20 0 32.5 -12.5t12.5 -32.5v-410
q0 -20 -12.5 -32.5t-32.5 -12.5h-28q-12 0 -19.5 7.5t-7.5 19.5v27z" />
    <glyph glyph-name="Uogonek" unicode="&#x172;" horiz-adv-x="619" 
d="M483 -173q2 -18 -7.5 -29t-27.5 -9q-59 3 -94.5 14t-53 27.5t-20 37t5 42t21.5 42.5t29 39q-7 -1 -13.5 -1h-13.5q-63 0 -113 17.5t-85 51t-53.5 82t-18.5 109.5v405q0 20 12.5 32.5t32.5 12.5h10q20 0 32.5 -12.5t12.5 -32.5v-405q0 -83 43 -126.5t127 -43.5
q83 0 126.5 43.5t43.5 126.5v405q0 20 12.5 32.5t32.5 12.5h10q20 0 32.5 -12.5t12.5 -32.5v-405q0 -85 -34.5 -142.5t-94.5 -87.5l-2 -2q-16 -11 -34 -26t-32.5 -30.5t-22.5 -31t-3.5 -28.5t23.5 -22t59 -12q17 -2 29.5 -12t14.5 -27z" />
    <glyph glyph-name="uogonek" unicode="&#x173;" horiz-adv-x="508" 
d="M451 -173q3 -18 -6.5 -29t-27.5 -9q-74 3 -111.5 19.5t-50 40t-4.5 51t25 53.5t37 48t33 34q8 6 13 8v11q-25 -29 -65 -46.5t-85 -17.5q-35 0 -61 11t-45.5 29.5t-32.5 42t-21 47.5q-19 57 -20 130v205q0 20 12.5 32.5t32.5 12.5h10q20 0 32.5 -12.5t12.5 -32.5v-205
q0 -45 12 -80q10 -30 32.5 -55t65.5 -25q22 0 43.5 7t38.5 20.5t27.5 33.5t10.5 46v258q0 20 12.5 32.5t32.5 12.5h10q20 0 32.5 -12.5t12.5 -32.5v-410q0 -20 -12.5 -32.5t-32.5 -12.5h-22q-23 -18 -43 -39.5t-24.5 -40.5t13 -33.5t69.5 -18.5q17 -2 29.5 -12t14.5 -27v-2z
" />
    <glyph glyph-name="Wcircumflex" unicode="&#x174;" horiz-adv-x="943" 
d="M399 788q-13 -13 -32 -13h-13q-15 0 -18.5 7t5.5 18l66 83q15 17 36 17h57q22 0 36 -17l66 -83q9 -11 5.5 -18t-17.5 -7h-14q-19 0 -32 13l-72 73zM342 33q-4 -15 -15.5 -24t-27.5 -9h-62q-16 0 -27.5 9t-16.5 24l-165 617q-6 23 4.5 36.5t33.5 13.5h18q15 0 27 -9
t16 -24l141 -526l141 526q4 15 15.5 24t27.5 9h35q15 0 27 -9t16 -24l141 -526l141 526q4 15 15.5 24t27.5 9h17q23 0 34 -13.5t5 -36.5l-166 -617q-4 -15 -15.5 -24t-27.5 -9h-62q-16 0 -27.5 9t-16.5 24l-127 474z" />
    <glyph glyph-name="wcircumflex" unicode="&#x175;" horiz-adv-x="771" 
d="M313 588q-13 -13 -32 -13h-13q-15 0 -18.5 7t5.5 18l66 83q15 17 36 17h57q22 0 36 -17l66 -83q9 -11 5.5 -18t-17.5 -7h-14q-19 0 -32 13l-72 73zM302 33q-5 -15 -16.5 -24t-27.5 -9h-68q-15 0 -27 9t-16 24l-112 417q-6 23 4.5 36.5t34.5 13.5h17q15 0 27 -9t16 -24
l90 -336l90 336q5 15 16.5 24t27.5 9h52q15 0 27 -9t16 -24l90 -336l90 336q5 15 16.5 24t27.5 9h17q23 0 33.5 -13.5t4.5 -36.5l-111 -417q-5 -15 -16.5 -24t-27.5 -9h-68q-15 0 -27 9t-16 24l-82 307z" />
    <glyph glyph-name="Ycircumflex" unicode="&#x176;" horiz-adv-x="635" 
d="M245 788q-13 -13 -32 -13h-13q-15 0 -18.5 7t5.5 18l66 83q15 17 36 17h57q22 0 36 -17l66 -83q9 -11 5.5 -18t-17.5 -7h-14q-19 0 -32 13l-72 73zM366 46q0 -20 -12.5 -32.5t-32.5 -12.5h-10q-20 0 -32.5 12.5t-12.5 32.5v289l-221 316q-16 23 -9 36.5t35 13.5h37
q11 0 21 -5.5t16 -13.5l171 -244l170 244q6 8 16 13.5t21 5.5h38q27 0 34.5 -13.5t-8.5 -36.5l-221 -316v-289z" />
    <glyph glyph-name="ycircumflex" unicode="&#x177;" horiz-adv-x="533" 
d="M194 588q-13 -13 -32 -13h-13q-15 0 -18.5 7t5.5 18l66 83q15 17 36 17h57q22 0 36 -17l66 -83q9 -11 5.5 -18t-17.5 -7h-14q-19 0 -32 13l-72 73zM301 -77q-10 -28 -27.5 -50.5t-41 -38.5t-50.5 -25t-57 -9h-24q-11 0 -18 6.5t-7 17.5v53q0 11 6.5 17t16.5 6h23
q29 0 52.5 16.5t33.5 43.5l-178 490q-8 23 1.5 36.5t33.5 13.5h21q14 0 26 -8t17 -22l132 -364l133 364q5 14 16.5 22t25.5 8h22q24 0 33.5 -13.5t1.5 -36.5z" />
    <glyph glyph-name="Ydieresis" unicode="&#x178;" horiz-adv-x="635" 
d="M278 845q0 -20 -12.5 -32.5t-32.5 -12.5h-10q-20 0 -32.5 12.5t-12.5 32.5v10q0 20 12.5 32.5t32.5 12.5h10q20 0 32.5 -12.5t12.5 -32.5v-10zM458 845q0 -20 -12.5 -32.5t-32.5 -12.5h-10q-20 0 -32.5 12.5t-12.5 32.5v10q0 20 12.5 32.5t32.5 12.5h10q20 0 32.5 -12.5
t12.5 -32.5v-10zM366 46q0 -20 -12.5 -32.5t-32.5 -12.5h-10q-20 0 -32.5 12.5t-12.5 32.5v289l-221 316q-16 23 -9 36.5t35 13.5h37q11 0 21 -5.5t16 -13.5l171 -244l170 244q6 8 16 13.5t21 5.5h38q27 0 34.5 -13.5t-8.5 -36.5l-221 -316v-289z" />
    <glyph glyph-name="Zacute" unicode="&#x179;" horiz-adv-x="549" 
d="M253 787q-5 -5 -13.5 -8.5t-16.5 -3.5h-15q-15 0 -18.5 7t6.5 18l66 83q14 17 35 17h28q22 0 25.5 -9t-12.5 -25zM521 45q0 -20 -12.5 -32.5t-32.5 -12.5h-405q-18 0 -29 11t-11 29v26q0 15 8 26l356 508h-299q-20 0 -32.5 12.5t-12.5 32.5v10q0 20 12.5 32.5t32.5 12.5
h370q20 0 32.5 -12.5t12.5 -32.5v-49q0 -7 -2.5 -14t-6.5 -12l-336 -480h310q20 0 32.5 -12.5t12.5 -32.5v-10z" />
    <glyph glyph-name="zacute" unicode="&#x17a;" horiz-adv-x="463" 
d="M210 587q-5 -5 -13.5 -8.5t-16.5 -3.5h-15q-15 0 -18.5 7t6.5 18l66 83q14 17 35 17h28q22 0 25.5 -9t-12.5 -25zM429 45q0 -20 -12.5 -32.5t-32.5 -12.5h-319q-20 0 -32.5 12.5t-12.5 32.5v38q0 16 12 30l258 287h-205q-20 0 -32.5 12.5t-12.5 32.5v10q0 20 12.5 32.5
t32.5 12.5h299q20 0 32.5 -12.5t12.5 -32.5v-33q0 -18 -12 -30l-262 -292h229q20 0 32.5 -12.5t12.5 -32.5v-10z" />
    <glyph glyph-name="Zdotaccent" unicode="&#x17b;" horiz-adv-x="549" 
d="M335 825q0 -20 -12.5 -32.5t-32.5 -12.5h-30q-20 0 -32.5 12.5t-12.5 32.5v30q0 20 12.5 32.5t32.5 12.5h30q20 0 32.5 -12.5t12.5 -32.5v-30zM521 45q0 -20 -12.5 -32.5t-32.5 -12.5h-405q-18 0 -29 11t-11 29v26q0 15 8 26l356 508h-299q-20 0 -32.5 12.5t-12.5 32.5
v10q0 20 12.5 32.5t32.5 12.5h370q20 0 32.5 -12.5t12.5 -32.5v-49q0 -7 -2.5 -14t-6.5 -12l-336 -480h310q20 0 32.5 -12.5t12.5 -32.5v-10z" />
    <glyph glyph-name="zdotaccent" unicode="&#x17c;" horiz-adv-x="463" 
d="M292 625q0 -20 -12.5 -32.5t-32.5 -12.5h-30q-20 0 -32.5 12.5t-12.5 32.5v30q0 20 12.5 32.5t32.5 12.5h30q20 0 32.5 -12.5t12.5 -32.5v-30zM429 45q0 -20 -12.5 -32.5t-32.5 -12.5h-319q-20 0 -32.5 12.5t-12.5 32.5v38q0 16 12 30l258 287h-205q-20 0 -32.5 12.5
t-12.5 32.5v10q0 20 12.5 32.5t32.5 12.5h299q20 0 32.5 -12.5t12.5 -32.5v-33q0 -18 -12 -30l-262 -292h229q20 0 32.5 -12.5t12.5 -32.5v-10z" />
    <glyph glyph-name="Zcaron" unicode="&#x17d;" horiz-adv-x="549" 
d="M339 792q-6 -8 -16 -12.5t-20 -4.5h-57q-22 0 -36 17l-66 83q-9 11 -5.5 18t18.5 7h13q19 0 32 -13l73 -74l72 74q13 13 32 13h14q14 0 17.5 -7t-5.5 -18zM521 45q0 -20 -12.5 -32.5t-32.5 -12.5h-405q-18 0 -29 11t-11 29v26q0 15 8 26l356 508h-299q-20 0 -32.5 12.5
t-12.5 32.5v10q0 20 12.5 32.5t32.5 12.5h370q20 0 32.5 -12.5t12.5 -32.5v-49q0 -7 -2.5 -14t-6.5 -12l-336 -480h310q20 0 32.5 -12.5t12.5 -32.5v-10z" />
    <glyph glyph-name="zcaron" unicode="&#x17e;" horiz-adv-x="463" 
d="M296 592q-6 -8 -16 -12.5t-20 -4.5h-57q-22 0 -36 17l-66 83q-9 11 -5.5 18t18.5 7h13q19 0 32 -13l73 -74l72 74q13 13 32 13h14q14 0 17.5 -7t-5.5 -18zM429 45q0 -20 -12.5 -32.5t-32.5 -12.5h-319q-20 0 -32.5 12.5t-12.5 32.5v38q0 16 12 30l258 287h-205
q-20 0 -32.5 12.5t-12.5 32.5v10q0 20 12.5 32.5t32.5 12.5h299q20 0 32.5 -12.5t12.5 -32.5v-33q0 -18 -12 -30l-262 -292h229q20 0 32.5 -12.5t12.5 -32.5v-10z" />
    <glyph glyph-name="longs" unicode="&#x17f;" horiz-adv-x="307" 
d="M151 45q0 -20 -12.5 -32.5t-32.5 -12.5h-10q-20 0 -32.5 12.5t-12.5 32.5v499q0 32 12.5 60.5t33.5 49.5t49.5 33.5t60.5 12.5h31q14 0 23 -8.5t9 -22.5v-30q0 -13 -7.5 -21t-21.5 -8h-28q-26 0 -44 -18t-18 -44v-503z" />
    <glyph glyph-name="uni0182" unicode="&#x182;" horiz-adv-x="562" 
d="M435 36q-23 -17 -53.5 -26.5t-71.5 -9.5h-225q-20 0 -32.5 12.5t-12.5 32.5v610q0 20 12.5 32.5t32.5 12.5h358q20 0 32.5 -12.5t12.5 -32.5v-10q0 -20 -12.5 -32.5t-32.5 -12.5h-303v-100h170q42 0 74 -10.5t55.5 -28t39 -40t25.5 -46.5q24 -55 26 -125q-1 -42 -11 -81
q-8 -34 -27.5 -70.5t-56.5 -62.5zM140 100h170q23 0 40.5 6.5t30.5 17t21.5 24t14.5 27.5q12 33 13 75q-1 42 -13 75q-6 14 -14.5 27.5t-21.5 24t-30.5 17t-40.5 6.5h-170v-300z" />
    <glyph glyph-name="uni0183" unicode="&#x183;" horiz-adv-x="569" 
d="M435 36q-23 -17 -53.5 -26.5t-71.5 -9.5h-225q-20 0 -32.5 12.5t-12.5 32.5v610q0 20 12.5 32.5t32.5 12.5h358q20 0 32.5 -12.5t12.5 -32.5v-10q0 -20 -12.5 -32.5t-32.5 -12.5h-303v-100h170q42 0 74 -10.5t55.5 -28t39 -40t25.5 -46.5q24 -55 26 -125q-1 -42 -11 -81
q-8 -34 -27.5 -70.5t-56.5 -62.5zM140 100h170q23 0 40.5 6.5t30.5 17t21.5 24t14.5 27.5q12 33 13 75q-1 42 -13 75q-6 14 -14.5 27.5t-21.5 24t-30.5 17t-40.5 6.5h-170v-300z" />
    <glyph glyph-name="uni0184" unicode="&#x184;" horiz-adv-x="537" 
d="M501 250q-2 -73 -26 -130q-10 -24 -25.5 -47.5t-39 -42t-55.5 -29.5t-74 -11q-45 0 -80 17.5t-60 46.5v-27q0 -12 -7.5 -19.5t-19.5 -7.5h-28q-20 0 -32.5 12.5t-12.5 32.5v610q0 20 12.5 32.5t32.5 12.5h10q20 0 32.5 -12.5t12.5 -32.5v-209q25 29 60 46.5t80 17.5
q42 0 74 -11t55.5 -29.5t39 -42t25.5 -47.5q24 -57 26 -130zM141 197q0 -28 13.5 -48t34.5 -33t45.5 -19.5t46.5 -6.5q23 0 40.5 7t30.5 18t21.5 25.5t13.5 29.5q13 35 14 80q-1 45 -14 80q-5 15 -13.5 29.5t-21.5 25.5t-30.5 18t-40.5 7q-22 0 -46.5 -7t-45.5 -20.5
t-34.5 -33t-13.5 -45.5v-107z" />
    <glyph glyph-name="uni0185" unicode="&#x185;" horiz-adv-x="539" 
d="M501 250q-2 -73 -26 -130q-10 -24 -25.5 -47.5t-39 -42t-55.5 -29.5t-74 -11q-45 0 -80 17.5t-60 46.5v-27q0 -12 -7.5 -19.5t-19.5 -7.5h-28q-20 0 -32.5 12.5t-12.5 32.5v610q0 20 12.5 32.5t32.5 12.5h10q20 0 32.5 -12.5t12.5 -32.5v-209q25 29 60 46.5t80 17.5
q42 0 74 -11t55.5 -29.5t39 -42t25.5 -47.5q24 -57 26 -130zM141 197q0 -28 13.5 -48t34.5 -33t45.5 -19.5t46.5 -6.5q23 0 40.5 7t30.5 18t21.5 25.5t13.5 29.5q13 35 14 80q-1 45 -14 80q-5 15 -13.5 29.5t-21.5 25.5t-30.5 18t-40.5 7q-22 0 -46.5 -7t-45.5 -20.5
t-34.5 -33t-13.5 -45.5v-107z" />
    <glyph glyph-name="uni0186" unicode="&#x186;" horiz-adv-x="664" 
d="M637 350q0 -79 -22 -145t-64 -114t-103.5 -74.5t-140.5 -26.5q-97 0 -168 43.5t-100 128.5q-7 21 4 34.5t34 13.5h17q15 0 26.5 -8.5t18.5 -22.5q23 -51 65.5 -75t102.5 -24q61 0 104.5 22t71.5 59.5t41 86t13 102.5q0 56 -14 105.5t-42.5 86t-71.5 57.5t-102 21
q-54 0 -99 -21t-69 -68q-7 -14 -19 -22.5t-27 -8.5h-16q-23 0 -34 13.5t-3 34.5q15 41 42 71.5t62 50.5t76.5 30t86.5 10q82 0 144 -28t103 -76.5t62 -114.5t21 -141z" />
    <glyph glyph-name="uni0189" unicode="&#x189;" horiz-adv-x="628" 
d="M590 270q0 -56 -21 -105t-58 -86t-85.5 -58t-104.5 -21h-236q-20 0 -32.5 12.5t-12.5 32.5v250q-18 2 -29 14t-11 31v10q0 19 11 31t29 14v260q0 20 12.5 32.5t32.5 12.5h236q56 0 104.5 -21t85.5 -58t58 -85.5t21 -104.5v-161zM140 100h181q35 0 65.5 13.5t53.5 36.5
t36.5 54t13.5 66v161q0 35 -13.5 65.5t-36.5 53.5t-53.5 36.5t-65.5 13.5h-181v-205h105q20 0 32.5 -12.5t12.5 -32.5v-10q0 -20 -12.5 -32.5t-32.5 -12.5h-105v-195z" />
    <glyph glyph-name="uni018B" unicode="&#x18b;" horiz-adv-x="583" 
d="M535 45q0 -20 -12.5 -32.5t-32.5 -12.5h-225q-40 0 -71 9.5t-54 26.5q-37 26 -56.5 62.5t-27.5 70.5q-10 39 -11 81q2 70 26 125q10 24 26 46.5t39 40t55 28t74 10.5h170v100h-302q-20 0 -32.5 12.5t-12.5 32.5v10q0 20 12.5 32.5t32.5 12.5h357q20 0 32.5 -12.5
t12.5 -32.5v-610zM145 250q1 -42 14 -75q6 -14 14.5 -27.5t21.5 -24t30 -17t40 -6.5h170v300h-170q-23 0 -40 -6.5t-30 -17t-21.5 -24t-14.5 -27.5q-13 -33 -14 -75z" />
    <glyph glyph-name="uni018C" unicode="&#x18c;" horiz-adv-x="579" 
d="M535 45q0 -20 -12.5 -32.5t-32.5 -12.5h-225q-40 0 -71 9.5t-54 26.5q-37 26 -56.5 62.5t-27.5 70.5q-10 39 -11 81q2 70 26 125q10 24 26 46.5t39 40t55 28t74 10.5h170v100h-302q-20 0 -32.5 12.5t-12.5 32.5v10q0 20 12.5 32.5t32.5 12.5h357q20 0 32.5 -12.5
t12.5 -32.5v-610zM145 250q1 -42 14 -75q6 -14 14.5 -27.5t21.5 -24t30 -17t40 -6.5h170v300h-170q-23 0 -40 -6.5t-30 -17t-21.5 -24t-14.5 -27.5q-13 -33 -14 -75z" />
    <glyph glyph-name="uni018E" unicode="&#x18e;" horiz-adv-x="556" 
d="M510 45q0 -20 -12.5 -32.5t-32.5 -12.5h-380q-20 0 -32.5 12.5t-12.5 32.5v10q0 20 12.5 32.5t32.5 12.5h325v224q-19 -13 -45 -18.5t-61 -5.5h-159q-20 0 -32.5 12.5t-12.5 32.5v10q0 20 12.5 32.5t32.5 12.5h172q20 0 37 1t29.5 6.5t19.5 17t7 31.5v144h-325
q-20 0 -32.5 12.5t-12.5 32.5v10q0 20 12.5 32.5t32.5 12.5h380q20 0 32.5 -12.5t12.5 -32.5v-610z" />
    <glyph glyph-name="uni0190" unicode="&#x190;" horiz-adv-x="545" 
d="M496 142q-7 -25 -21 -52t-40 -49.5t-65 -36.5t-96 -14q-48 0 -84 10.5t-62 27t-44 38.5t-30 44q-27 53 -30 120q2 52 19 97q8 19 20 39t29.5 37.5t41 32t54.5 23.5l-110 110q-14 14 -14 32v54q0 20 12.5 32.5t32.5 12.5h310q20 0 32.5 -12.5t12.5 -32.5v-10
q0 -20 -12.5 -32.5t-32.5 -12.5h-231l173 -173q13 -13 13 -32v-3q0 -22 -22 -22h-78q-28 0 -50 -6t-38 -16t-26.5 -22.5t-17.5 -25.5q-17 -31 -18 -70q1 -42 18 -75q14 -28 44.5 -51.5t87.5 -23.5q27 0 47.5 6.5t35 16.5t23.5 23.5t15 26.5q6 16 18.5 26.5t30.5 10.5h11
q23 0 34.5 -13.5t6.5 -34.5z" />
    <glyph glyph-name="florin" unicode="&#x192;" horiz-adv-x="344" 
d="M208 45q0 -20 -12.5 -32.5t-32.5 -12.5h-10q-20 0 -32.5 12.5t-12.5 32.5v365h-46q-20 0 -32.5 12.5t-12.5 32.5t12.5 32.5t32.5 12.5h46v44q0 32 12.5 60.5t33.5 49.5t49.5 33.5t60.5 12.5h31q14 0 23 -9t9 -23v-29q0 -13 -7.5 -21t-21.5 -8h-28q-26 0 -44 -18t-18 -44
v-48h74q20 0 32.5 -12.5t12.5 -32.5t-12.5 -32.5t-32.5 -12.5h-74v-365z" />
    <glyph glyph-name="uni01A9" unicode="&#x1a9;" horiz-adv-x="570" 
d="M511 45q0 -20 -12.5 -32.5t-32.5 -12.5h-375q-18 0 -29 11t-11 29v24q0 16 10 29l210 244l-209 242q-11 13 -11 29v47q0 20 12.5 32.5t32.5 12.5h370q20 0 32.5 -12.5t12.5 -32.5v-10q0 -20 -12.5 -32.5t-32.5 -12.5h-299l196 -242q11 -13 10.5 -29t-11.5 -29l-175 -200
h279q20 0 32.5 -12.5t12.5 -32.5v-10z" />
    <glyph glyph-name="uni01B1" unicode="&#x1b1;" horiz-adv-x="728" 
d="M691 350q0 -75 -21 -141t-62.5 -114.5t-103 -76.5t-143.5 -28q-79 0 -140.5 26.5t-103.5 74.5t-64 114t-22 145q0 67 17.5 131.5t60.5 118.5h-39q-18 0 -28.5 11t-10.5 28v16q0 20 12.5 32.5t32.5 12.5l137 -1q20 0 32.5 -12.5t12.5 -32.5v-26q0 -13 -6.5 -24t-17.5 -18
q-58 -42 -80.5 -104.5t-22.5 -131.5q0 -54 13 -102.5t41 -86t71.5 -59.5t104.5 -22q59 0 102 21t71.5 58t42.5 86t14 105q0 71 -22 131.5t-81 104.5q-11 7 -18 18t-7 24v26q0 20 12.5 32.5t32.5 12.5l137 1q20 0 33 -12.5t13 -32.5v-16q0 -17 -11 -28t-29 -11h-39
q43 -54 61 -118t18 -132z" />
    <glyph glyph-name="uni01B7" unicode="&#x1b7;" horiz-adv-x="537" 
d="M499 230q-2 -67 -29 -120q-12 -22 -30 -44t-44.5 -38.5t-62.5 -27t-84 -10.5q-56 0 -95 14t-65 36.5t-40 49.5t-21 52q-6 21 6 34.5t34 13.5h12q18 0 30 -10.5t19 -26.5q11 -27 38.5 -50t81.5 -23q29 0 51 6.5t38 17t26.5 24t17.5 27.5q16 33 17 75q-1 39 -17 70
q-13 26 -44 48t-89 22h-78q-22 0 -22 22v3q0 9 4 17.5t9 14.5l173 173h-231q-20 0 -32.5 12.5t-12.5 32.5v10q0 20 12.5 32.5t32.5 12.5h310q20 0 32.5 -12.5t12.5 -32.5v-54q0 -19 -13 -32l-110 -110q32 -9 55.5 -23.5t40.5 -32t29 -37.5t19 -39q18 -45 19 -97z" />
    <glyph glyph-name="uni01B8" unicode="&#x1b8;" horiz-adv-x="533" 
d="M496 142q-7 -25 -21 -52t-40 -49.5t-65 -36.5t-96 -14q-48 0 -84 10.5t-62 27t-44 38.5t-30 44q-27 53 -30 120q2 52 19 97q8 19 20 39t29.5 37.5t41 32t54.5 23.5l-110 110q-14 14 -14 32v54q0 20 12.5 32.5t32.5 12.5h310q20 0 32.5 -12.5t12.5 -32.5v-10
q0 -20 -12.5 -32.5t-32.5 -12.5h-231l173 -173q13 -13 13 -32v-3q0 -22 -22 -22h-78q-28 0 -50 -6t-38 -16t-26.5 -22.5t-17.5 -25.5q-17 -31 -18 -70q1 -42 18 -75q14 -28 44.5 -51.5t87.5 -23.5q27 0 47.5 6.5t35 16.5t23.5 23.5t15 26.5q6 16 18.5 26.5t30.5 10.5h11
q23 0 34.5 -13.5t6.5 -34.5z" />
    <glyph glyph-name="uni01B9" unicode="&#x1b9;" horiz-adv-x="530" 
d="M496 -58q-7 -26 -21 -52.5t-40 -49t-65 -36.5t-96 -14q-48 0 -84 10.5t-62 27t-44 38t-30 44.5q-27 53 -30 120q2 52 19 97q8 19 20 39t29.5 37.5t41 32t54.5 23.5l-110 110q-14 14 -14 32v54q0 20 12.5 32.5t32.5 12.5h310q20 0 32.5 -12.5t12.5 -32.5v-10
q0 -20 -12.5 -32.5t-32.5 -12.5h-231l173 -173q13 -13 13 -32v-3q0 -22 -22 -22h-78q-28 0 -50 -6t-38 -16t-26.5 -22.5t-17.5 -25.5q-17 -31 -18 -70q1 -42 18 -75q14 -29 44.5 -52t87.5 -23q27 0 47.5 6.5t35 16.5t23.5 23t15 27q6 16 18.5 26.5t30.5 10.5h11
q23 0 34.5 -13.5t6.5 -34.5z" />
    <glyph glyph-name="uni01C0" unicode="&#x1c0;" horiz-adv-x="336" 
d="M218 45q0 -20 -12.5 -32.5t-32.5 -12.5h-10q-20 0 -32.5 12.5t-12.5 32.5v661q0 20 12.5 32.5t32.5 12.5h10q20 0 32.5 -12.5t12.5 -32.5v-661z" />
    <glyph glyph-name="uni01C1" unicode="&#x1c1;" horiz-adv-x="524" 
d="M218 45q0 -20 -12.5 -32.5t-32.5 -12.5h-10q-20 0 -32.5 12.5t-12.5 32.5v661q0 20 12.5 32.5t32.5 12.5h10q20 0 32.5 -12.5t12.5 -32.5v-661zM416 45q0 -20 -12.5 -32.5t-32.5 -12.5h-10q-20 0 -32.5 12.5t-12.5 32.5v661q0 20 12.5 32.5t32.5 12.5h10q20 0 32.5 -12.5
t12.5 -32.5v-661z" />
    <glyph glyph-name="uni01C2" unicode="&#x1c2;" horiz-adv-x="516" 
d="M308 45q0 -20 -12.5 -32.5t-32.5 -12.5h-10q-20 0 -32.5 12.5t-12.5 32.5v160h-50q-20 0 -32.5 12.5t-12.5 32.5v10q0 20 12.5 32.5t32.5 12.5h50v95h-50q-20 0 -32.5 12.5t-12.5 32.5v10q0 20 12.5 32.5t32.5 12.5h50v155q0 20 12.5 32.5t32.5 12.5h10q20 0 32.5 -12.5
t12.5 -32.5v-155h50q20 0 32.5 -12.5t12.5 -32.5v-10q0 -20 -12.5 -32.5t-32.5 -12.5h-50v-95h50q20 0 32.5 -12.5t12.5 -32.5v-10q0 -20 -12.5 -32.5t-32.5 -12.5h-50v-160z" />
    <glyph glyph-name="uni01C3" unicode="&#x1c3;" horiz-adv-x="269" 
d="M185 245q0 -20 -12.5 -32.5t-32.5 -12.5h-10q-20 0 -32.5 12.5t-12.5 32.5v410q0 20 12.5 32.5t32.5 12.5h10q20 0 32.5 -12.5t12.5 -32.5v-410zM195 45q0 -20 -12.5 -32.5t-32.5 -12.5h-30q-20 0 -32.5 12.5t-12.5 32.5v30q0 20 12.5 32.5t32.5 12.5h30q20 0 32.5 -12.5
t12.5 -32.5v-30z" />
    <glyph glyph-name="uni01C4" unicode="&#x1c4;" horiz-adv-x="1112" 
d="M902 791q-6 -8 -15.5 -12.5t-19.5 -4.5h-58q-21 0 -36 17l-66 83q-19 26 13 26h13q18 0 32 -14l73 -73l72 73q14 14 32 14h14q14 0 17.5 -7t-5.5 -19zM590 270q0 -56 -21 -105t-58 -86t-85.5 -58t-104.5 -21h-236q-20 0 -32.5 12.5t-12.5 32.5v610q0 20 12.5 32.5
t32.5 12.5h236q56 0 104.5 -21t85.5 -58t58 -85.5t21 -104.5v-161zM1084 45q0 -20 -12.5 -32.5t-32.5 -12.5h-405q-18 0 -29 11t-11 29v26q0 15 8 26l356 508h-299q-20 0 -32.5 12.5t-12.5 32.5v10q0 20 12.5 32.5t32.5 12.5h370q20 0 32.5 -12.5t12.5 -32.5v-49
q0 -7 -2.5 -14t-6.5 -12l-335 -480h309q20 0 32.5 -12.5t12.5 -32.5v-10zM140 100h181q35 0 65.5 13.5t53.5 36.5t36.5 54t13.5 66v161q0 35 -13.5 65.5t-36.5 53.5t-53.5 36.5t-65.5 13.5h-181v-500z" />
    <glyph glyph-name="uni01C5" unicode="&#x1c5;" horiz-adv-x="1091" 
d="M590 270q0 -56 -21 -105t-58 -86t-85.5 -58t-104.5 -21h-236q-20 0 -32.5 12.5t-12.5 32.5v610q0 20 12.5 32.5t32.5 12.5h236q56 0 104.5 -21t85.5 -58t58 -85.5t21 -104.5v-161zM911 592q-6 -8 -15.5 -12.5t-19.5 -4.5h-58q-10 0 -19.5 4.5t-15.5 12.5l-67 83
q-9 11 -5.5 18t18.5 7h13q19 0 32 -13l73 -74l72 74q13 13 32 13h14q14 0 17.5 -7t-5.5 -18zM140 100h181q35 0 65.5 13.5t53.5 36.5t36.5 54t13.5 66v161q0 35 -13.5 65.5t-36.5 53.5t-53.5 36.5t-65.5 13.5h-181v-500zM1057 45q0 -20 -12.5 -32.5t-32.5 -12.5h-319
q-20 0 -32.5 12.5t-12.5 32.5v38q0 16 12 30l258 287h-205q-20 0 -32.5 12.5t-12.5 32.5v10q0 20 12.5 32.5t32.5 12.5h299q20 0 32.5 -12.5t12.5 -32.5v-33q0 -18 -12 -30l-262 -292h229q20 0 32.5 -12.5t12.5 -32.5v-10z" />
    <glyph glyph-name="uni01C6" unicode="&#x1c6;" horiz-adv-x="998" 
d="M390 54q-25 -29 -60.5 -46.5t-79.5 -17.5q-70 0 -112 28.5t-66 67.5q-19 33 -29 76t-10 88t10 88t29 76q24 39 66 67.5t112 28.5q44 0 79.5 -17.5t60.5 -46.5v209q0 20 12.5 32.5t32.5 12.5h10q20 0 32.5 -12.5t12.5 -32.5v-610q0 -20 -12.5 -32.5t-32.5 -12.5h-28
q-12 0 -19.5 7.5t-7.5 19.5v27zM831 592q-6 -8 -15.5 -12.5t-19.5 -4.5h-58q-10 0 -19.5 4.5t-15.5 12.5l-66 83q-9 11 -5.5 18t17.5 7h14q19 0 32 -13l72 -74l72 74q13 13 32 13h14q15 0 18.5 -7t-6.5 -18zM964 45q0 -20 -12.5 -32.5t-32.5 -12.5h-319q-20 0 -32.5 12.5
t-12.5 32.5v38q0 16 12 30l258 287h-205q-20 0 -32.5 12.5t-12.5 32.5v10q0 20 12.5 32.5t32.5 12.5h299q20 0 32.5 -12.5t12.5 -32.5v-33q0 -18 -12 -30l-262 -292h229q20 0 32.5 -12.5t12.5 -32.5v-10zM130 250q1 -45 14 -80q5 -15 13.5 -29.5t21.5 -25.5t30.5 -18
t40.5 -7q22 0 46.5 6.5t45.5 19.5t34.5 33t13.5 48v107q0 26 -13.5 45.5t-34.5 33t-45.5 20.5t-46.5 7q-23 0 -40.5 -7t-30.5 -18t-21.5 -25.5t-13.5 -29.5q-13 -35 -14 -80z" />
    <glyph glyph-name="uni01C7" unicode="&#x1c7;" horiz-adv-x="720" 
d="M480 45q0 -20 -12.5 -32.5t-32.5 -12.5h-350q-20 0 -32.5 12.5t-12.5 32.5v610q0 20 12.5 32.5t32.5 12.5h10q20 0 32.5 -12.5t12.5 -32.5v-555h295q20 0 32.5 -12.5t12.5 -32.5v-10zM657 -56q0 -99 -54 -146.5t-151 -47.5q-57 0 -96 15.5t-63.5 41.5t-35 61.5
t-10.5 75.5v13q0 13 13 13h74q13 0 13 -13v-13q0 -26 8.5 -50t32 -39t64.5 -15q31 0 51.5 9t32.5 23.5t16.5 33t4.5 38.5v711q0 20 12.5 32.5t32.5 12.5h10q20 0 32.5 -12.5t12.5 -32.5v-711z" />
    <glyph glyph-name="uni01C8" unicode="&#x1c8;" horiz-adv-x="670" 
d="M480 45q0 -20 -12.5 -32.5t-32.5 -12.5h-350q-20 0 -32.5 12.5t-12.5 32.5v610q0 20 12.5 32.5t32.5 12.5h10q20 0 32.5 -12.5t12.5 -32.5v-555h295q20 0 32.5 -12.5t12.5 -32.5v-10zM627 645q0 -20 -12.5 -32.5t-32.5 -12.5h-10q-20 0 -32.5 12.5t-12.5 32.5v10
q0 20 12.5 32.5t32.5 12.5h10q20 0 32.5 -12.5t12.5 -32.5v-10zM627 -44q0 -32 -12.5 -60.5t-33.5 -49.5t-49.5 -33.5t-60.5 -12.5h-31q-14 0 -23 9t-9 23v29q0 13 8 21t21 8h28q26 0 44 18t18 44v503q0 20 12.5 32.5t32.5 12.5h10q20 0 32.5 -12.5t12.5 -32.5v-499z" />
    <glyph glyph-name="uni01C9" unicode="&#x1c9;" horiz-adv-x="375" 
d="M153 45q0 -20 -12.5 -32.5t-32.5 -12.5h-10q-20 0 -32.5 12.5t-12.5 32.5v610q0 20 12.5 32.5t32.5 12.5h10q20 0 32.5 -12.5t12.5 -32.5v-610zM327 645q0 -20 -12.5 -32.5t-32.5 -12.5h-10q-20 0 -32.5 12.5t-12.5 32.5v10q0 20 12.5 32.5t32.5 12.5h10q20 0 32.5 -12.5
t12.5 -32.5v-10zM327 -44q0 -32 -12.5 -60.5t-33.5 -49.5t-49.5 -33.5t-60.5 -12.5h-31q-14 0 -23 9t-9 23v29q0 13 8 21t21 8h28q26 0 44 18t18 44v503q0 20 12.5 32.5t32.5 12.5h10q20 0 32.5 -12.5t12.5 -32.5v-499z" />
    <glyph glyph-name="uni01CA" unicode="&#x1ca;" horiz-adv-x="857" 
d="M140 45q0 -20 -12.5 -32.5t-32.5 -12.5h-10q-20 0 -32.5 12.5t-12.5 32.5v610q0 20 12.5 32.5t32.5 12.5h48q25 0 38 -20l339 -523v498q0 20 12.5 32.5t32.5 12.5h10q20 0 32.5 -12.5t12.5 -32.5v-610q0 -20 -12.5 -32.5t-32.5 -12.5h-48q-11 0 -21.5 5.5t-16.5 15.5
l-339 522v-498zM790 -56q0 -99 -54 -146.5t-151 -47.5q-57 0 -96 15.5t-63.5 41.5t-35 61.5t-10.5 75.5v13q0 13 13 13h74q13 0 13 -13v-13q0 -26 8.5 -50t32 -39t64.5 -15q31 0 51.5 9t32.5 23.5t16.5 33t4.5 38.5v711q0 20 12.5 32.5t32.5 12.5h10q20 0 32.5 -12.5
t12.5 -32.5v-711z" />
    <glyph glyph-name="uni01CB" unicode="&#x1cb;" horiz-adv-x="821" 
d="M778 645q0 -20 -12.5 -32.5t-32.5 -12.5h-10q-20 0 -32.5 12.5t-12.5 32.5v10q0 20 12.5 32.5t32.5 12.5h10q20 0 32.5 -12.5t12.5 -32.5v-10zM140 45q0 -20 -12.5 -32.5t-32.5 -12.5h-10q-20 0 -32.5 12.5t-12.5 32.5v610q0 20 12.5 32.5t32.5 12.5h48q25 0 38 -20
l339 -523v498q0 20 12.5 32.5t32.5 12.5h10q20 0 32.5 -12.5t12.5 -32.5v-610q0 -20 -12.5 -32.5t-32.5 -12.5h-48q-11 0 -21.5 5.5t-16.5 15.5l-339 522v-498zM778 -44q0 -32 -12.5 -60.5t-33.5 -49.5t-49.5 -33.5t-60.5 -12.5h-31q-14 0 -23 9t-9 23v29q0 14 8 21.5
t21 7.5h28q26 0 44 18t18 44v503q0 20 12.5 32.5t32.5 12.5h10q20 0 32.5 -12.5t12.5 -32.5v-499z" />
    <glyph glyph-name="uni01CC" unicode="&#x1cc;" horiz-adv-x="693" 
d="M642 645q0 -20 -12.5 -32.5t-32.5 -12.5h-10q-20 0 -32.5 12.5t-12.5 32.5v10q0 20 12.5 32.5t32.5 12.5h10q20 0 32.5 -12.5t12.5 -32.5v-10zM140 45q0 -20 -12.5 -32.5t-32.5 -12.5h-10q-20 0 -32.5 12.5t-12.5 32.5v410q0 20 12.5 32.5t32.5 12.5h28q12 0 19.5 -7.5
t7.5 -19.5v-27q26 29 71 46.5t89 17.5q33 0 57.5 -11t42.5 -29.5t30 -42t20 -47.5q18 -57 20 -130v-205q0 -20 -12.5 -32.5t-32.5 -12.5h-10q-20 0 -32.5 12.5t-12.5 32.5v205q0 45 -12 80q-5 15 -12.5 29.5t-19.5 25.5t-28 18t-38 7t-43.5 -7t-38.5 -20.5t-27.5 -33
t-10.5 -45.5v-259zM642 -44q0 -32 -12.5 -60.5t-33.5 -49.5t-49.5 -33.5t-60.5 -12.5h-31q-14 0 -23 9t-9 23v29q0 14 8 21.5t21 7.5h28q26 0 44 18t18 44v503q0 20 12.5 32.5t32.5 12.5h10q20 0 32.5 -12.5t12.5 -32.5v-499z" />
    <glyph glyph-name="uni01CD" unicode="&#x1cd;" horiz-adv-x="686" 
d="M407 792q-6 -8 -15.5 -12.5t-19.5 -4.5h-58q-10 0 -19.5 4.5t-15.5 12.5l-66 83q-9 11 -6 18t18 7h14q19 0 32 -13l72 -74l72 74q13 13 32 13h14q15 0 18.5 -7t-6.5 -18zM192 30q-5 -14 -17 -22t-26 -8h-21q-24 0 -33.5 13.5t-1.5 36.5l225 620q5 14 17 22t26 8h74
q14 0 26 -8t17 -22l225 -620q8 -23 -1.5 -36.5t-33.5 -13.5h-21q-14 0 -26 8t-17 22l-55 152q-35 -13 -74 -18t-77 -5t-77 5t-74 18zM281 276q27 -10 57.5 -13.5t59.5 -3.5t59.5 3.5t57.5 13.5l-117 321z" />
    <glyph glyph-name="uni01CE" unicode="&#x1ce;" horiz-adv-x="493" 
d="M311 592q-6 -8 -16 -12.5t-20 -4.5h-57q-22 0 -36 17l-66 83q-9 11 -5.5 18t18.5 7h13q19 0 32 -13l73 -74l72 74q13 13 32 13h14q14 0 17.5 -7t-5.5 -18zM347 61q-15 -26 -43 -40.5t-55 -21.5q-32 -8 -68 -9q-33 0 -62 12.5t-51 34.5t-34.5 51t-12.5 62t12.5 62t34.5 51
t51 34.5t62 12.5h59q35 0 65 -9t42 -32v61q0 54 -24.5 72t-75.5 18q-38 0 -59 -10t-30 -22q-11 -14 -24.5 -26t-36.5 -12h-8q-20 0 -31.5 11.5t-6.5 28.5q5 18 16 39t33.5 39t58 30t88.5 12q56 0 94 -13t61.5 -40t34 -68.5t10.5 -98.5v-245q0 -20 -12.5 -32.5t-32.5 -12.5
h-25q-14 0 -22 8t-8 22v31zM121 150q0 -25 19 -47.5t58 -22.5q14 0 29 2q14 2 31.5 6t36.5 12q38 16 49 56q3 16 -1 30q-4 13 -13.5 20t-23 10t-29.5 3.5t-34 0.5h-62q-32 0 -46 -22.5t-14 -47.5z" />
    <glyph glyph-name="uni01CF" unicode="&#x1cf;" horiz-adv-x="217" 
d="M173 792q-6 -8 -16 -12.5t-20 -4.5h-57q-22 0 -36 17l-66 83q-9 11 -5.5 18t17.5 7h14q19 0 32 -13l73 -74l72 74q13 13 32 13h14q14 0 17.5 -7t-5.5 -18zM159 45q0 -20 -12.5 -32.5t-32.5 -12.5h-10q-20 0 -32.5 12.5t-12.5 32.5v610q0 20 12.5 32.5t32.5 12.5h10
q20 0 32.5 -12.5t12.5 -32.5v-610z" />
    <glyph glyph-name="uni01D0" unicode="&#x1d0;" horiz-adv-x="184" 
d="M156 592q-6 -8 -15.5 -12.5t-19.5 -4.5h-58q-10 0 -19.5 4.5t-15.5 12.5l-66 83q-10 11 -6.5 18t18.5 7h14q19 0 32 -13l72 -74l72 74q13 13 32 13h14q15 0 18.5 -7t-6.5 -18zM142 45q0 -20 -12.5 -32.5t-32.5 -12.5h-10q-20 0 -32.5 12.5t-12.5 32.5v410q0 20 12.5 32.5
t32.5 12.5h10q20 0 32.5 -12.5t12.5 -32.5v-410z" />
    <glyph glyph-name="uni01D1" unicode="&#x1d1;" horiz-adv-x="721" 
d="M425 792q-6 -8 -16 -12.5t-20 -4.5h-57q-22 0 -36 17l-66 83q-9 11 -5.5 18t18.5 7h13q19 0 32 -13l73 -74l72 74q13 13 32 13h14q14 0 17.5 -7t-5.5 -18zM690 350q0 -79 -21.5 -145t-63.5 -114t-103.5 -74.5t-141.5 -26.5q-82 0 -144 28t-103 76.5t-62 114.5t-21 141
q0 79 22 145t64 114t103.5 74.5t140.5 26.5q82 0 144 -28t103 -76.5t62 -114.5t21 -141zM130 350q0 -56 14 -105.5t42.5 -86t71.5 -57.5t102 -21q61 0 104.5 22t71.5 59.5t41 86t13 102.5q0 56 -14 105.5t-42.5 86t-71.5 57.5t-102 21q-61 0 -104.5 -22t-71.5 -59.5t-41 -86
t-13 -102.5z" />
    <glyph glyph-name="uni01D2" unicode="&#x1d2;" horiz-adv-x="546" 
d="M337 592q-6 -8 -15.5 -12.5t-19.5 -4.5h-58q-10 0 -19.5 4.5t-15.5 12.5l-66 83q-9 11 -6 18t18 7h14q19 0 32 -13l72 -74l72 74q13 13 32 13h14q15 0 18.5 -7t-6.5 -18zM513 250q0 -58 -15.5 -105.5t-46 -82t-75.5 -53.5t-103 -19q-60 0 -105 20t-75 55t-45 82.5
t-15 102.5q0 58 16 105.5t46.5 82t75 53.5t102.5 19q60 0 105 -20t75 -55t45 -82.5t15 -102.5zM133 250q0 -35 7.5 -66t24 -54t43 -36.5t65.5 -13.5t66 13.5t43.5 36.5t23.5 54t7 66t-7 66t-23.5 54t-43.5 36.5t-66 13.5t-65.5 -13.5t-43 -36.5t-24 -54t-7.5 -66z" />
    <glyph glyph-name="uni01D3" unicode="&#x1d3;" horiz-adv-x="619" 
d="M374 792q-6 -8 -16 -12.5t-20 -4.5h-57q-22 0 -36 17l-66 83q-9 11 -5.5 18t18.5 7h13q19 0 32 -13l73 -74l72 74q13 13 32 13h14q14 0 17.5 -7t-5.5 -18zM579 250q0 -64 -20 -112.5t-55.5 -81.5t-85 -49.5t-109.5 -16.5q-63 0 -113 17.5t-85 51t-53.5 82t-18.5 109.5
v405q0 20 12.5 32.5t32.5 12.5h10q20 0 32.5 -12.5t12.5 -32.5v-405q0 -83 43 -126.5t127 -43.5q83 0 126.5 43.5t43.5 126.5v405q0 20 12.5 32.5t32.5 12.5h10q20 0 32.5 -12.5t12.5 -32.5v-405z" />
    <glyph glyph-name="uni01D4" unicode="&#x1d4;" horiz-adv-x="508" 
d="M318 592q-6 -8 -15.5 -12.5t-19.5 -4.5h-58q-10 0 -19.5 4.5t-15.5 12.5l-66 83q-9 11 -6 18t18 7h14q19 0 32 -13l72 -74l72 74q13 13 32 13h14q15 0 18.5 -7t-6.5 -18zM359 54q-25 -29 -65 -46.5t-85 -17.5q-35 0 -61 11t-45.5 29.5t-32.5 42t-21 47.5q-19 57 -20 130
v205q0 20 12.5 32.5t32.5 12.5h10q20 0 32.5 -12.5t12.5 -32.5v-205q0 -45 12 -80q10 -30 32.5 -55t65.5 -25q22 0 43.5 7t38.5 20.5t27.5 33.5t10.5 46v258q0 20 12.5 32.5t32.5 12.5h10q20 0 32.5 -12.5t12.5 -32.5v-410q0 -20 -12.5 -32.5t-32.5 -12.5h-28
q-12 0 -19.5 7.5t-7.5 19.5v27z" />
    <glyph glyph-name="uni01D5" unicode="&#x1d5;" horiz-adv-x="619" 
d="M495 1046q0 -20 -12.5 -32.5t-32.5 -12.5h-280q-20 0 -32.5 12.5t-12.5 32.5v10q0 20 12.5 32.5t32.5 12.5h280q20 0 32.5 -12.5t12.5 -32.5v-10zM270 845q0 -20 -12.5 -32.5t-32.5 -12.5h-10q-20 0 -32.5 12.5t-12.5 32.5v10q0 20 12.5 32.5t32.5 12.5h10
q20 0 32.5 -12.5t12.5 -32.5v-10zM450 845q0 -20 -12.5 -32.5t-32.5 -12.5h-10q-20 0 -32.5 12.5t-12.5 32.5v10q0 20 12.5 32.5t32.5 12.5h10q20 0 32.5 -12.5t12.5 -32.5v-10zM579 250q0 -64 -20 -112.5t-55.5 -81.5t-85 -49.5t-109.5 -16.5q-63 0 -113 17.5t-85 51
t-53.5 82t-18.5 109.5v405q0 20 12.5 32.5t32.5 12.5h10q20 0 32.5 -12.5t12.5 -32.5v-405q0 -83 43 -126.5t127 -43.5q83 0 126.5 43.5t43.5 126.5v405q0 20 12.5 32.5t32.5 12.5h10q20 0 32.5 -12.5t12.5 -32.5v-405z" />
    <glyph glyph-name="uni01D6" unicode="&#x1d6;" horiz-adv-x="508" 
d="M439 846q0 -20 -12.5 -32.5t-32.5 -12.5h-280q-20 0 -32.5 12.5t-12.5 32.5v10q0 20 12.5 32.5t32.5 12.5h280q20 0 32.5 -12.5t12.5 -32.5v-10zM214 645q0 -20 -12.5 -32.5t-32.5 -12.5h-10q-20 0 -32.5 12.5t-12.5 32.5v10q0 20 12.5 32.5t32.5 12.5h10
q20 0 32.5 -12.5t12.5 -32.5v-10zM394 645q0 -20 -12.5 -32.5t-32.5 -12.5h-10q-20 0 -32.5 12.5t-12.5 32.5v10q0 20 12.5 32.5t32.5 12.5h10q20 0 32.5 -12.5t12.5 -32.5v-10zM359 54q-25 -29 -65 -46.5t-85 -17.5q-35 0 -61 11t-45.5 29.5t-32.5 42t-21 47.5
q-19 57 -20 130v205q0 20 12.5 32.5t32.5 12.5h10q20 0 32.5 -12.5t12.5 -32.5v-205q0 -45 12 -80q10 -30 32.5 -55t65.5 -25q22 0 43.5 7t38.5 20.5t27.5 33.5t10.5 46v258q0 20 12.5 32.5t32.5 12.5h10q20 0 32.5 -12.5t12.5 -32.5v-410q0 -20 -12.5 -32.5t-32.5 -12.5
h-28q-12 0 -19.5 7.5t-7.5 19.5v27z" />
    <glyph glyph-name="uni01D7" unicode="&#x1d7;" horiz-adv-x="619" 
d="M288 987q-5 -5 -13.5 -8.5t-16.5 -3.5h-15q-15 0 -18.5 7t6.5 18l66 83q14 17 35 17h28q22 0 25.5 -9t-12.5 -25zM270 845q0 -20 -12.5 -32.5t-32.5 -12.5h-10q-20 0 -32.5 12.5t-12.5 32.5v10q0 20 12.5 32.5t32.5 12.5h10q20 0 32.5 -12.5t12.5 -32.5v-10zM450 845
q0 -20 -12.5 -32.5t-32.5 -12.5h-10q-20 0 -32.5 12.5t-12.5 32.5v10q0 20 12.5 32.5t32.5 12.5h10q20 0 32.5 -12.5t12.5 -32.5v-10zM579 250q0 -64 -20 -112.5t-55.5 -81.5t-85 -49.5t-109.5 -16.5q-63 0 -113 17.5t-85 51t-53.5 82t-18.5 109.5v405q0 20 12.5 32.5
t32.5 12.5h10q20 0 32.5 -12.5t12.5 -32.5v-405q0 -83 43 -126.5t127 -43.5q83 0 126.5 43.5t43.5 126.5v405q0 20 12.5 32.5t32.5 12.5h10q20 0 32.5 -12.5t12.5 -32.5v-405z" />
    <glyph glyph-name="uni01D8" unicode="&#x1d8;" horiz-adv-x="508" 
d="M233 787q-14 -12 -31 -12h-15q-14 0 -17.5 7t5.5 18l66 83q14 17 35 17h28q23 0 26.5 -9t-13.5 -25zM214 645q0 -20 -12.5 -32.5t-32.5 -12.5h-10q-20 0 -32.5 12.5t-12.5 32.5v10q0 20 12.5 32.5t32.5 12.5h10q20 0 32.5 -12.5t12.5 -32.5v-10zM394 645
q0 -20 -12.5 -32.5t-32.5 -12.5h-10q-20 0 -32.5 12.5t-12.5 32.5v10q0 20 12.5 32.5t32.5 12.5h10q20 0 32.5 -12.5t12.5 -32.5v-10zM359 54q-25 -29 -65 -46.5t-85 -17.5q-35 0 -61 11t-45.5 29.5t-32.5 42t-21 47.5q-19 57 -20 130v205q0 20 12.5 32.5t32.5 12.5h10
q20 0 32.5 -12.5t12.5 -32.5v-205q0 -45 12 -80q10 -30 32.5 -55t65.5 -25q22 0 43.5 7t38.5 20.5t27.5 33.5t10.5 46v258q0 20 12.5 32.5t32.5 12.5h10q20 0 32.5 -12.5t12.5 -32.5v-410q0 -20 -12.5 -32.5t-32.5 -12.5h-28q-12 0 -19.5 7.5t-7.5 19.5v27z" />
    <glyph glyph-name="uni01D9" unicode="&#x1d9;" horiz-adv-x="619" 
d="M270 845q0 -20 -12.5 -32.5t-32.5 -12.5h-10q-20 0 -32.5 12.5t-12.5 32.5v10q0 20 12.5 32.5t32.5 12.5h10q20 0 32.5 -12.5t12.5 -32.5v-10zM450 845q0 -20 -12.5 -32.5t-32.5 -12.5h-10q-20 0 -32.5 12.5t-12.5 32.5v10q0 20 12.5 32.5t32.5 12.5h10q20 0 32.5 -12.5
t12.5 -32.5v-10zM579 250q0 -64 -20 -112.5t-55.5 -81.5t-85 -49.5t-109.5 -16.5q-63 0 -113 17.5t-85 51t-53.5 82t-18.5 109.5v405q0 20 12.5 32.5t32.5 12.5h10q20 0 32.5 -12.5t12.5 -32.5v-405q0 -83 43 -126.5t127 -43.5q83 0 126.5 43.5t43.5 126.5v405
q0 20 12.5 32.5t32.5 12.5h10q20 0 32.5 -12.5t12.5 -32.5v-405z" />
    <glyph glyph-name="uni01DA" unicode="&#x1da;" horiz-adv-x="508" 
d="M214 645q0 -20 -12.5 -32.5t-32.5 -12.5h-10q-20 0 -32.5 12.5t-12.5 32.5v10q0 20 12.5 32.5t32.5 12.5h10q20 0 32.5 -12.5t12.5 -32.5v-10zM394 645q0 -20 -12.5 -32.5t-32.5 -12.5h-10q-20 0 -32.5 12.5t-12.5 32.5v10q0 20 12.5 32.5t32.5 12.5h10q20 0 32.5 -12.5
t12.5 -32.5v-10zM359 54q-25 -29 -65 -46.5t-85 -17.5q-35 0 -61 11t-45.5 29.5t-32.5 42t-21 47.5q-19 57 -20 130v205q0 20 12.5 32.5t32.5 12.5h10q20 0 32.5 -12.5t12.5 -32.5v-205q0 -45 12 -80q10 -30 32.5 -55t65.5 -25q22 0 43.5 7t38.5 20.5t27.5 33.5t10.5 46v258
q0 20 12.5 32.5t32.5 12.5h10q20 0 32.5 -12.5t12.5 -32.5v-410q0 -20 -12.5 -32.5t-32.5 -12.5h-28q-12 0 -19.5 7.5t-7.5 19.5v27z" />
    <glyph glyph-name="uni01DB" unicode="&#x1db;" horiz-adv-x="619" 
d="M389 1000q9 -11 5.5 -18t-18.5 -7h-14q-17 0 -31 12l-85 79q-16 16 -12.5 25t26.5 9h27q21 0 35 -17zM270 845q0 -20 -12.5 -32.5t-32.5 -12.5h-10q-20 0 -32.5 12.5t-12.5 32.5v10q0 20 12.5 32.5t32.5 12.5h10q20 0 32.5 -12.5t12.5 -32.5v-10zM450 845
q0 -20 -12.5 -32.5t-32.5 -12.5h-10q-20 0 -32.5 12.5t-12.5 32.5v10q0 20 12.5 32.5t32.5 12.5h10q20 0 32.5 -12.5t12.5 -32.5v-10zM579 250q0 -64 -20 -112.5t-55.5 -81.5t-85 -49.5t-109.5 -16.5q-63 0 -113 17.5t-85 51t-53.5 82t-18.5 109.5v405q0 20 12.5 32.5
t32.5 12.5h10q20 0 32.5 -12.5t12.5 -32.5v-405q0 -83 43 -126.5t127 -43.5q83 0 126.5 43.5t43.5 126.5v405q0 20 12.5 32.5t32.5 12.5h10q20 0 32.5 -12.5t12.5 -32.5v-405z" />
    <glyph glyph-name="uni01DC" unicode="&#x1dc;" horiz-adv-x="508" 
d="M333 800q9 -11 5.5 -18t-18.5 -7h-14q-17 0 -31 12l-85 79q-16 16 -12.5 25t26.5 9h27q21 0 35 -17zM214 645q0 -20 -12.5 -32.5t-32.5 -12.5h-10q-20 0 -32.5 12.5t-12.5 32.5v10q0 20 12.5 32.5t32.5 12.5h10q20 0 32.5 -12.5t12.5 -32.5v-10zM394 645
q0 -20 -12.5 -32.5t-32.5 -12.5h-10q-20 0 -32.5 12.5t-12.5 32.5v10q0 20 12.5 32.5t32.5 12.5h10q20 0 32.5 -12.5t12.5 -32.5v-10zM359 54q-25 -29 -65 -46.5t-85 -17.5q-35 0 -61 11t-45.5 29.5t-32.5 42t-21 47.5q-19 57 -20 130v205q0 20 12.5 32.5t32.5 12.5h10
q20 0 32.5 -12.5t12.5 -32.5v-205q0 -45 12 -80q10 -30 32.5 -55t65.5 -25q22 0 43.5 7t38.5 20.5t27.5 33.5t10.5 46v258q0 20 12.5 32.5t32.5 12.5h10q20 0 32.5 -12.5t12.5 -32.5v-410q0 -20 -12.5 -32.5t-32.5 -12.5h-28q-12 0 -19.5 7.5t-7.5 19.5v27z" />
    <glyph glyph-name="uni01DD" unicode="&#x1dd;" horiz-adv-x="535" 
d="M492 250q0 -52 -13.5 -99.5t-41.5 -83t-71.5 -56.5t-103.5 -21q-49 0 -86.5 14t-65 38.5t-45 58.5t-25.5 73q-10 51 -4 105l1 6q0 5 6 5h241q49 0 70 -12.5t28 -33.5v56q0 8 -3.5 27.5t-16.5 40t-39 36.5t-71 16q-24 0 -50 -6.5t-44 -28.5q-9 -10 -20.5 -17.5t-25.5 -7.5
h-20q-23 0 -34 13t-2 33q23 45 73.5 74.5t122.5 29.5q60 0 105 -19.5t75 -54t45 -82.5t15 -104zM142 200q0 -11 3.5 -31.5t15.5 -40t36 -34t65 -14.5q28 0 47.5 7t33 17.5t21.5 24.5t12 27q5 16 -3 31t-25 19q-13 3 -29 3.5t-35 0.5h-142v-10z" />
    <glyph glyph-name="uni01DE" unicode="&#x1de;" horiz-adv-x="686" 
d="M529 1046q0 -20 -12.5 -32.5t-32.5 -12.5h-280q-20 0 -32.5 12.5t-12.5 32.5v10q0 20 12.5 32.5t32.5 12.5h280q20 0 32.5 -12.5t12.5 -32.5v-10zM303 845q0 -20 -12.5 -32.5t-32.5 -12.5h-10q-20 0 -32.5 12.5t-12.5 32.5v10q0 20 12.5 32.5t32.5 12.5h10
q20 0 32.5 -12.5t12.5 -32.5v-10zM483 845q0 -20 -12.5 -32.5t-32.5 -12.5h-10q-20 0 -32.5 12.5t-12.5 32.5v10q0 20 12.5 32.5t32.5 12.5h10q20 0 32.5 -12.5t12.5 -32.5v-10zM192 30q-5 -14 -17 -22t-26 -8h-21q-24 0 -33.5 13.5t-1.5 36.5l225 620q5 14 17 22t26 8h74
q14 0 26 -8t17 -22l225 -620q8 -23 -1.5 -36.5t-33.5 -13.5h-21q-14 0 -26 8t-17 22l-55 152q-35 -13 -74 -18t-77 -5t-77 5t-74 18zM281 276q27 -10 57.5 -13.5t59.5 -3.5t59.5 3.5t57.5 13.5l-117 321z" />
    <glyph glyph-name="uni01DF" unicode="&#x1df;" horiz-adv-x="493" 
d="M432 846q0 -20 -12.5 -32.5t-32.5 -12.5h-280q-20 0 -32.5 12.5t-12.5 32.5v10q0 20 12.5 32.5t32.5 12.5h280q20 0 32.5 -12.5t12.5 -32.5v-10zM207 645q0 -20 -12.5 -32.5t-32.5 -12.5h-10q-20 0 -32.5 12.5t-12.5 32.5v10q0 20 12.5 32.5t32.5 12.5h10
q20 0 32.5 -12.5t12.5 -32.5v-10zM387 645q0 -20 -12.5 -32.5t-32.5 -12.5h-10q-20 0 -32.5 12.5t-12.5 32.5v10q0 20 12.5 32.5t32.5 12.5h10q20 0 32.5 -12.5t12.5 -32.5v-10zM347 61q-15 -26 -43 -40.5t-55 -21.5q-32 -8 -68 -9q-33 0 -62 12.5t-51 34.5t-34.5 51
t-12.5 62t12.5 62t34.5 51t51 34.5t62 12.5h59q35 0 65 -9t42 -32v61q0 54 -24.5 72t-75.5 18q-38 0 -59 -10t-30 -22q-11 -14 -24.5 -26t-36.5 -12h-8q-20 0 -31.5 11.5t-6.5 28.5q5 18 16 39t33.5 39t58 30t88.5 12q56 0 94 -13t61.5 -40t34 -68.5t10.5 -98.5v-245
q0 -20 -12.5 -32.5t-32.5 -12.5h-25q-14 0 -22 8t-8 22v31zM121 150q0 -25 19 -47.5t58 -22.5q14 0 29 2q14 2 31.5 6t36.5 12q38 16 49 56q3 16 -1 30q-4 13 -13.5 20t-23 10t-29.5 3.5t-34 0.5h-62q-32 0 -46 -22.5t-14 -47.5z" />
    <glyph glyph-name="uni01E0" unicode="&#x1e0;" horiz-adv-x="686" 
d="M529 1046q0 -20 -12.5 -32.5t-32.5 -12.5h-280q-20 0 -32.5 12.5t-12.5 32.5v10q0 20 12.5 32.5t32.5 12.5h280q20 0 32.5 -12.5t12.5 -32.5v-10zM403 825q0 -20 -12.5 -32.5t-32.5 -12.5h-30q-20 0 -32.5 12.5t-12.5 32.5v30q0 20 12.5 32.5t32.5 12.5h30
q20 0 32.5 -12.5t12.5 -32.5v-30zM192 30q-5 -14 -17 -22t-26 -8h-21q-24 0 -33.5 13.5t-1.5 36.5l225 620q5 14 17 22t26 8h74q14 0 26 -8t17 -22l225 -620q8 -23 -1.5 -36.5t-33.5 -13.5h-21q-14 0 -26 8t-17 22l-55 152q-35 -13 -74 -18t-77 -5t-77 5t-74 18zM281 276
q27 -10 57.5 -13.5t59.5 -3.5t59.5 3.5t57.5 13.5l-117 321z" />
    <glyph glyph-name="uni01E1" unicode="&#x1e1;" horiz-adv-x="493" 
d="M432 846q0 -20 -12.5 -32.5t-32.5 -12.5h-280q-20 0 -32.5 12.5t-12.5 32.5v10q0 20 12.5 32.5t32.5 12.5h280q20 0 32.5 -12.5t12.5 -32.5v-10zM307 625q0 -20 -12.5 -32.5t-32.5 -12.5h-30q-20 0 -32.5 12.5t-12.5 32.5v30q0 20 12.5 32.5t32.5 12.5h30
q20 0 32.5 -12.5t12.5 -32.5v-30zM347 61q-15 -26 -43 -40.5t-55 -21.5q-32 -8 -68 -9q-33 0 -62 12.5t-51 34.5t-34.5 51t-12.5 62t12.5 62t34.5 51t51 34.5t62 12.5h59q35 0 65 -9t42 -32v61q0 54 -24.5 72t-75.5 18q-38 0 -59 -10t-30 -22q-11 -14 -24.5 -26t-36.5 -12
h-8q-20 0 -31.5 11.5t-6.5 28.5q5 18 16 39t33.5 39t58 30t88.5 12q56 0 94 -13t61.5 -40t34 -68.5t10.5 -98.5v-245q0 -20 -12.5 -32.5t-32.5 -12.5h-25q-14 0 -22 8t-8 22v31zM121 150q0 -25 19 -47.5t58 -22.5q14 0 29 2q14 2 31.5 6t36.5 12q38 16 49 56q3 16 -1 30
q-4 13 -13.5 20t-23 10t-29.5 3.5t-34 0.5h-62q-32 0 -46 -22.5t-14 -47.5z" />
    <glyph glyph-name="uni01E2" unicode="&#x1e2;" horiz-adv-x="995" 
d="M683 846q0 -20 -12.5 -32.5t-32.5 -12.5h-280q-20 0 -32.5 12.5t-12.5 32.5v10q0 20 12.5 32.5t32.5 12.5h280q20 0 32.5 -12.5t12.5 -32.5v-10zM150 21q-13 -21 -38 -21h-34q-26 0 -33 13.5t7 35.5l408 631q6 9 16.5 14.5t21.5 5.5h411q20 0 32.5 -12.5t12.5 -32.5v-10
q0 -20 -12.5 -32.5t-32.5 -12.5h-325v-144q0 -20 7 -31.5t19.5 -17t29.5 -6.5t36 -1h173q20 0 32.5 -12.5t12.5 -32.5v-10q0 -20 -12.5 -32.5t-32.5 -12.5h-159q-72 0 -106 24v-224h325q20 0 32.5 -12.5t12.5 -32.5v-10q0 -20 -12.5 -32.5t-32.5 -12.5h-380
q-20 0 -32.5 12.5t-12.5 32.5v122q-24 -4 -48.5 -5.5t-47.5 -1.5q-34 0 -69.5 3.5t-68.5 13.5zM307 266q20 -4 40.5 -5t40.5 -1q23 0 48 2t48 7v272z" />
    <glyph glyph-name="uni01E3" unicode="&#x1e3;" horiz-adv-x="840" 
d="M605 646q0 -20 -12.5 -32.5t-32.5 -12.5h-280q-20 0 -32.5 12.5t-12.5 32.5v10q0 20 12.5 32.5t32.5 12.5h280q20 0 32.5 -12.5t12.5 -32.5v-10zM788 94q-23 -45 -73.5 -74.5t-122.5 -29.5q-66 0 -113 22.5t-77 62.5q-28 -34 -65 -51t-70 -25q-39 -9 -80 -9
q-33 0 -62 12.5t-51 34.5t-34.5 51t-12.5 62t12.5 62t34.5 51t51 34.5t62 12.5h59q35 0 64.5 -8.5t41.5 -31.5l1 10v50q0 53 -24 71q-22 19 -76 19q-38 0 -58.5 -10t-30.5 -22q-11 -14 -24.5 -26t-36.5 -12h-8q-19 0 -31 11t-7 29t16 39t33.5 39t58 30t88.5 12
q20 0 41.5 -2.5t42.5 -8.5t40 -16.5t32 -26.5l8 -11q29 30 69.5 47.5t95.5 17.5q49 0 86.5 -14t65 -38.5t45 -58.5t25.5 -73q10 -50 4 -105l-1 -5q0 -6 -6 -6h-241q-49 0 -70 12.5t-28 33.5v-56q0 -7 3.5 -27t16.5 -40.5t39 -36.5t71 -16q24 0 50 6.5t45 28.5
q8 10 19.5 17.5t25.5 7.5h20q23 0 34 -13t2 -33zM496 294q13 -3 29 -3.5t35 -0.5h142v10q0 11 -3.5 31.5t-15.5 40t-36 34t-65 14.5q-28 0 -47.5 -7t-33 -17.5t-21.5 -24t-12 -27.5q-5 -16 3 -31t25 -19zM127 150q0 -25 19 -47.5t58 -22.5q14 0 29 2q14 2 31.5 6t36.5 12
q38 16 49 56q3 16 -1 30q-4 13 -13.5 20t-23 10t-29.5 3.5t-34 0.5h-62q-32 0 -46 -22.5t-14 -47.5z" />
    <glyph glyph-name="Gcaron" unicode="&#x1e6;" horiz-adv-x="694" 
d="M411 792q-6 -8 -15.5 -12.5t-19.5 -4.5h-58q-10 0 -19.5 4.5t-15.5 12.5l-66 83q-9 11 -6 18t18 7h14q19 0 32 -13l72 -74l72 74q13 13 32 13h14q15 0 18.5 -7t-6.5 -18zM650 239q0 -63 -24.5 -109.5t-65 -77.5t-92.5 -46.5t-108 -15.5q-82 0 -144 28t-103 76.5
t-62 114.5t-21 141q0 79 22 145t64 114t103.5 74.5t140.5 26.5q95 0 168.5 -39.5t107.5 -123.5q8 -20 -2.5 -33.5t-33.5 -13.5h-16q-15 0 -27 8.5t-19 22.5q-25 50 -73.5 69.5t-104.5 19.5q-61 0 -104.5 -22t-71.5 -59.5t-41 -86t-13 -102.5q0 -56 14 -105.5t42.5 -86
t71.5 -57.5t102 -21q34 0 68 8t61 25.5t44 45t17 65.5v76h-176q-20 0 -32.5 12.5t-12.5 32.5v10q0 20 12.5 32.5t32.5 12.5h231q20 0 32.5 -12.5t12.5 -32.5v-116z" />
    <glyph glyph-name="gcaron" unicode="&#x1e7;" horiz-adv-x="547" 
d="M338 592q-6 -8 -16 -12.5t-20 -4.5h-57q-22 0 -36 17l-66 83q-9 11 -5.5 18t18.5 7h13q19 0 32 -13l73 -74l72 74q13 13 32 13h14q14 0 17.5 -7t-5.5 -18zM491 -28q-4 -25 -16.5 -56.5t-38 -59.5t-66.5 -47t-104 -19q-42 0 -73.5 7.5t-53.5 20.5t-36 30t-22 36
q-10 20 1 33t34 13h18q14 0 25.5 -8t20.5 -17q11 -11 31 -18t55 -7q25 0 43.5 6t32.5 15.5t23.5 21.5t15.5 25q14 30 15 68v38q-25 -29 -60.5 -46.5t-79.5 -17.5q-56 0 -94 19.5t-62 48.5t-38 62q-24 57 -26 130q2 73 26 130q14 33 37.5 63t62.5 48.5t94 18.5
q44 0 79.5 -17.5t60.5 -46.5v27q0 12 7.5 19.5t19.5 7.5h28q20 0 32.5 -12.5t12.5 -32.5v-394q0 -20 -0.5 -44.5t-4.5 -44.5zM136 250q1 -45 14 -80q5 -15 13.5 -29.5t21.5 -25.5t30.5 -18t40.5 -7q22 0 46.5 7t45.5 20.5t34.5 33.5t13.5 46v107q0 27 -13.5 47t-34.5 33
t-45.5 19.5t-46.5 6.5q-23 0 -40.5 -7t-30.5 -18t-21.5 -25.5t-13.5 -29.5q-13 -35 -14 -80z" />
    <glyph glyph-name="uni01E8" unicode="&#x1e8;" horiz-adv-x="584" 
d="M356 792q-6 -8 -15.5 -12.5t-19.5 -4.5h-58q-10 0 -19.5 4.5t-15.5 12.5l-66 83q-9 11 -6 18t18 7h14q19 0 32 -13l72 -74l72 74q13 13 32 13h14q15 0 18.5 -7t-6.5 -18zM140 45q0 -20 -12.5 -32.5t-32.5 -12.5h-10q-20 0 -32.5 12.5t-12.5 32.5v610q0 20 12.5 32.5
t32.5 12.5h10q20 0 32.5 -12.5t12.5 -32.5v-348l262 374q6 9 16 14t21 5h38q27 0 34.5 -13.5t-8.5 -36.5l-218 -310q42 7 74 -14.5t62 -74.5l116 -201q13 -23 5 -36.5t-34 -13.5h-32q-11 0 -22 6t-17 17l-103 178q-9 16 -17 30t-17 24t-19 15.5t-23 3.5q-21 -2 -32 -19
l-86 -123v-87z" />
    <glyph glyph-name="uni01E9" unicode="&#x1e9;" horiz-adv-x="503" 
d="M140 45q0 -20 -12.5 -32.5t-32.5 -12.5h-10q-20 0 -32.5 12.5t-12.5 32.5v610q0 20 12.5 32.5t32.5 12.5h10q20 0 32.5 -12.5t12.5 -32.5v-382l177 211q6 8 15.5 12t18.5 4h45q29 0 35.5 -13.5t-12.5 -36.5l-163 -194q29 -2 54.5 -22t51.5 -58l89 -126q16 -23 8.5 -36.5
t-34.5 -13.5h-38q-11 0 -21 5.5t-16 13.5l-70 100q-11 16 -21.5 30t-21.5 24q-10 9 -25 9q-18 0 -30 -14l-42 -50v-73zM399 592q-6 -8 -15.5 -12.5t-19.5 -4.5h-58q-10 0 -19.5 4.5t-15.5 12.5l-66 83q-9 11 -6 18t18 7h14q19 0 32 -13l72 -74l72 74q13 13 32 13h14
q15 0 18 -7t-6 -18z" />
    <glyph glyph-name="uni01EA" unicode="&#x1ea;" horiz-adv-x="721" 
d="M534 -173q3 -18 -6.5 -29t-27.5 -9q-59 3 -95 14t-53.5 27.5t-20 37t5 42t21.5 42.5t29 39q-7 -1 -13.5 -1h-13.5q-82 0 -144 28t-103 76.5t-62 114.5t-21 141q0 79 22 145t64 114t103.5 74.5t140.5 26.5q82 0 144 -28t103 -76.5t62 -114.5t21 -141q0 -121 -50.5 -210
t-147.5 -127q-24 -18 -49 -41t-34 -45t7 -38.5t73 -20.5q18 -2 30 -12t15 -27v-2zM130 350q0 -56 14 -105.5t42.5 -86t71.5 -57.5t102 -21q61 0 104.5 22t71.5 59.5t41 86t13 102.5q0 56 -14 105.5t-42.5 86t-71.5 57.5t-102 21q-61 0 -104.5 -22t-71.5 -59.5t-41 -86
t-13 -102.5z" />
    <glyph glyph-name="uni01EB" unicode="&#x1eb;" horiz-adv-x="546" 
d="M424 -173q2 -18 -7.5 -29t-27.5 -9q-88 4 -125.5 26t-42 52t13.5 63t41 60q-60 0 -105 19t-76 53.5t-46.5 82.5t-15.5 105q0 58 16 105.5t46.5 82t75 53.5t102.5 19q60 0 105 -20t75 -55t45 -82.5t15 -102.5q0 -88 -35 -150.5t-102 -90.5q-24 -18 -47.5 -41t-31 -43.5
t9 -36.5t72.5 -20q17 -2 29.5 -12t14.5 -27zM133 250q0 -35 7.5 -66t24 -54t43 -36.5t65.5 -13.5t66 13.5t43.5 36.5t23.5 54t7 66t-7 66t-23.5 54t-43.5 36.5t-66 13.5t-65.5 -13.5t-43 -36.5t-24 -54t-7.5 -66z" />
    </font>
</defs>
</svg>
