<?xml version="1.0" encoding="UTF-8"?>
<svg version="1.1" xmlns="http://www.w3.org/2000/svg" width="263" height="270">
<path d="M0 0 C4.20462978 2.45785344 5.83767941 4.37821136 7.375 9.0546875 C7.58618164 12.03955078 7.58618164 12.03955078 7.53515625 15.375 C7.51775391 17.24369751 7.51775391 17.24369751 7.5 19.15014648 C7.4896875 19.80763885 7.479375 20.46513123 7.46875 21.14254761 C7.41561102 24.60659705 7.39640807 28.07076847 7.37890625 31.53515625 C7.37496857 32.24078201 7.37103088 32.94640778 7.36697388 33.67341614 C7.32998353 44.80885867 7.86109199 55.93322612 8.375 67.0546875 C9.13296875 67.35375 9.8909375 67.6528125 10.671875 67.9609375 C12.67838771 68.77282125 14.65968243 69.64761785 16.625 70.5546875 C21.4715685 71.20089663 23.09553879 70.0077584 26.9140625 67.16015625 C33.72583698 61.33230475 39.80974833 54.83510231 45.625 48.02734375 C48.38467517 44.9165492 51.34155675 42.01337546 54.30859375 39.1015625 C55.93978563 37.48578831 57.5126842 35.81117221 59.0625 34.1171875 C62.89866426 30.6957437 66.06086577 30.12039421 71.125 29.8671875 C77.21510594 30.84113508 81.43423664 35.63386751 85.375 40.0546875 C87.59101184 43.27503219 88.33225547 46.05019099 88.5 49.9921875 C85.51343139 58.12229094 76.98293139 64.63309895 70.98461914 70.63037109 C69.54218144 72.07503746 68.10798435 73.52758604 66.67382812 74.98046875 C65.76439453 75.89183594 64.85496094 76.80320312 63.91796875 77.7421875 C63.09321045 78.57105469 62.26845215 79.39992188 61.41870117 80.25390625 C59.375 82.0546875 59.375 82.0546875 57.375 82.0546875 C56.99021484 82.92287109 56.99021484 82.92287109 56.59765625 83.80859375 C54.86216574 86.99679517 52.42984287 89.34660858 49.93359375 91.95703125 C48.09958541 94.42535826 47.60942305 95.99781097 47.375 99.0546875 C47.87967266 101.526853 47.87967266 101.526853 48.8125 103.8671875 C49.33333333 105.26302083 49.85416667 106.65885417 50.375 108.0546875 C63.0041895 111.13418524 76.0388565 110.15704867 88.92822266 109.93823242 C92.00162148 109.88993547 95.0747973 109.86010497 98.1484375 109.83203125 C99.55480972 109.7993943 99.55480972 109.7993943 100.98959351 109.76609802 C107.07936094 109.71995025 111.13661363 110.62589772 116.125 114.3671875 C119.77394423 119.29326221 120.02141543 125.16733467 119.375 131.0546875 C118.42788916 135.03670096 117.34183518 138.11806592 114.375 140.9921875 C110.15143979 143.23595386 106.21226554 143.25084178 101.55078125 143.3359375 C100.77171921 143.35434692 99.99265717 143.37275635 99.18998718 143.39172363 C96.68923458 143.4504157 94.18840816 143.50308261 91.6875 143.5546875 C82.30214639 143.75384126 72.91776482 143.95611808 63.54296875 144.4609375 C62.30184326 144.52603516 61.06071777 144.59113281 59.78198242 144.65820312 C53.75116356 145.31268831 53.75116356 145.31268831 49 148.6796875 C48.01592087 152.4191882 47.39911366 155.29784402 48.375 159.0546875 C53.43738133 167.61627859 61.76541183 174.60350996 68.81396484 181.50927734 C86.83330967 199.18547083 86.83330967 199.18547083 87.8125 206.1796875 C87.03874486 213.03294735 82.60500335 217.27361748 77.4375 221.5546875 C74.64634193 223.49682411 73.26481017 224.07401905 69.8125 224.6796875 C60.43425452 222.97455196 54.61246102 215.6474149 48.25 209.1171875 C47.26503258 208.11713908 46.27936026 207.11778443 45.29296875 206.11914062 C43.47456493 204.27642762 41.66127456 202.42918845 39.85107422 200.57836914 C31.65652054 191.09341805 31.65652054 191.09341805 20.93359375 185.69140625 C17.27806463 185.96240923 14.96293842 186.64765321 11.9375 188.7421875 C7.83373213 194.81576394 8.08118584 201.09012283 8.06640625 208.1484375 C8.04125481 210.33463818 8.01585667 212.52083604 7.99023438 214.70703125 C7.96146795 218.13687459 7.93743456 221.56666904 7.91870117 224.99658203 C7.89703272 228.31828395 7.85760314 231.63942875 7.81640625 234.9609375 C7.81629044 235.98296265 7.81617462 237.00498779 7.8160553 238.0579834 C7.74132921 243.44277535 7.49456181 247.44847039 4.375 252.0546875 C-0.10810837 255.1368245 -4.31778268 255.54705535 -9.625 255.4921875 C-10.31078125 255.51216797 -10.9965625 255.53214844 -11.703125 255.55273438 C-16.82737835 255.54784482 -19.78399359 254.40998525 -23.625 251.0546875 C-26.79566186 246.05360808 -27.01903567 242.11041555 -26.8828125 236.39453125 C-26.87288773 235.15504478 -26.87288773 235.15504478 -26.86276245 233.89051819 C-26.83947698 231.25735275 -26.79588968 228.6250476 -26.75 225.9921875 C-24.90096909 205.66830489 -24.90096909 205.66830489 -31.625 188.0546875 C-35.10524091 186.31456704 -38.81962328 186.60889634 -42.625 187.0546875 C-47.45491222 189.42035879 -50.86420579 193.18518441 -54.57421875 197 C-56.42281169 198.85211407 -58.31634209 200.55280754 -60.3125 202.2421875 C-64.76159814 206.04814869 -68.82290452 210.22211934 -72.8815918 214.4362793 C-81.85844287 223.61099759 -81.85844287 223.61099759 -87.9375 223.6796875 C-93.55039786 223.42326069 -97.48168416 220.6650457 -101.625 217.0546875 C-104.6903194 213.31882949 -105.46192507 209.86539799 -105.625 205.0546875 C-104.59002238 198.99093629 -101.40463431 195.35809435 -96.953125 191.3046875 C-94.977361 189.3952243 -93.22252109 187.46134472 -91.4375 185.37890625 C-86.58868099 179.77302739 -81.25280746 174.6686544 -75.9453125 169.50195312 C-75.17445312 168.74205078 -74.40359375 167.98214844 -73.609375 167.19921875 C-72.91553711 166.52221924 -72.22169922 165.84521973 -71.50683594 165.14770508 C-68.45567227 161.75413656 -66.75732546 159.11329115 -66.1875 154.5546875 C-66.71521644 150.33295598 -67.42777132 148.8522626 -70.625 146.0546875 C-77.23324636 143.8962672 -83.47580144 143.7600649 -90.38671875 143.74609375 C-92.66211215 143.72095339 -94.93750272 143.69555511 -97.21289062 143.66992188 C-100.77448914 143.64110595 -104.33603875 143.61706408 -107.89770508 143.59838867 C-111.35261905 143.57676427 -114.80699169 143.53735197 -118.26171875 143.49609375 C-119.32637863 143.49597794 -120.39103851 143.49586212 -121.48796082 143.4957428 C-130.80509997 143.37082137 -130.80509997 143.37082137 -134.625 140.0546875 C-138.52494204 133.86857255 -138.30463448 127.19084949 -137.625 120.0546875 C-136.13277401 115.72723213 -134.60628561 113.29564591 -130.625 111.0546875 C-127.62387804 110.58824004 -124.64216675 110.58976049 -121.609375 110.578125 C-120.27643402 110.55475571 -120.27643402 110.55475571 -118.91656494 110.53091431 C-116.06938712 110.48344786 -113.22244719 110.45573122 -110.375 110.4296875 C-106.66136406 110.38079001 -102.94786341 110.32462281 -99.234375 110.265625 C-98.33086304 110.2513446 -97.42735107 110.23706421 -96.49645996 110.22235107 C-90.83089951 110.12234945 -85.17402388 109.96229855 -79.515625 109.65625 C-78.27329102 109.59002441 -77.03095703 109.52379883 -75.75097656 109.45556641 C-72.84556348 109.08297282 -71.06252021 108.6288892 -68.625 107.0546875 C-66.38534666 104.14313815 -66.02402671 100.81550031 -66.11653137 97.18292236 C-66.75610211 94.50594945 -67.8397722 93.27164436 -69.69799805 91.25292969 C-70.3349057 90.55792358 -70.97181335 89.86291748 -71.62802124 89.14685059 C-74.70713041 85.92097825 -77.8377595 82.75734699 -81.01953125 79.6328125 C-82.40051949 78.26445296 -83.7813751 76.89595955 -85.16210938 75.52734375 C-87.31086341 73.40351496 -89.46120834 71.2813435 -91.61401367 69.16162109 C-93.71189495 67.09388929 -95.80355458 65.02002292 -97.89453125 62.9453125 C-98.54033646 62.31296692 -99.18614166 61.68062134 -99.85151672 61.02911377 C-100.44941513 60.43459412 -101.04731354 59.84007446 -101.66333008 59.22753906 C-102.18848709 58.70983948 -102.7136441 58.19213989 -103.25471497 57.65875244 C-105.93880833 54.51673457 -106.625 52.54398962 -106.625 48.3671875 C-105.59152414 41.86236885 -101.60177644 36.98439784 -97 32.4921875 C-91.76052178 30.26055789 -87.20491467 29.80291957 -81.625 31.0546875 C-77.65161549 33.4838568 -74.7372636 36.61762381 -71.625 40.0546875 C-70.6865025 41.05229516 -69.74635086 42.04834886 -68.8046875 43.04296875 C-64.73322532 47.38507726 -60.79974463 51.83782788 -56.9375 56.3671875 C-53.49180461 60.33221019 -49.70352627 63.75183187 -45.625 67.0546875 C-45.08746094 67.50328125 -44.54992187 67.951875 -43.99609375 68.4140625 C-41.37509058 70.41232079 -39.88593932 71.06001279 -36.5625 70.9921875 C-33.53388501 70.02560825 -31.20953423 68.90078338 -28.625 67.0546875 C-25.68679045 61.17826841 -26.49581994 53.17260523 -26.5625 46.7421875 C-26.56628662 45.88842529 -26.57007324 45.03466309 -26.57397461 44.1550293 C-26.5860697 41.45486092 -26.60468381 38.75480573 -26.625 36.0546875 C-26.65180489 32.49218986 -26.67169926 28.92974913 -26.6875 25.3671875 C-26.69994751 24.16678833 -26.69994751 24.16678833 -26.71264648 22.94213867 C-26.77670264 7.9889322 -26.77670264 7.9889322 -23.3125 3.6171875 C-17.06900534 -2.33591206 -8.06882358 -2.90573706 0 0 Z " fill="#F3F13E" transform="translate(139.625,0.9453125)"/>
<path d="M0 0 C4.20950451 2.46070301 5.81567863 4.38416055 7.375 9.0546875 C7.60205078 11.82543945 7.60205078 11.82543945 7.5703125 14.79296875 C7.56064453 16.39301758 7.56064453 16.39301758 7.55078125 18.02539062 C7.52564453 19.67958008 7.52564453 19.67958008 7.5 21.3671875 C7.49097656 22.48931641 7.48195312 23.61144531 7.47265625 24.76757812 C7.44914486 27.53016659 7.41628155 30.29231682 7.375 33.0546875 C5.18757986 29.7735573 4.83057194 27.72384394 4.25 23.8671875 C4.08242187 22.78050781 3.91484375 21.69382812 3.7421875 20.57421875 C3.62101563 19.74277344 3.49984375 18.91132813 3.375 18.0546875 C2.715 18.7146875 2.055 19.3746875 1.375 20.0546875 C1.375 15.7646875 1.375 11.4746875 1.375 7.0546875 C0.715 7.0546875 0.055 7.0546875 -0.625 7.0546875 C-0.625 6.3946875 -0.625 5.7346875 -0.625 5.0546875 C-1.285 5.0546875 -1.945 5.0546875 -2.625 5.0546875 C-2.625 4.3946875 -2.625 3.7346875 -2.625 3.0546875 C-4.1050841 3.16831012 -5.58410074 3.29591658 -7.0625 3.4296875 C-7.88621094 3.49929687 -8.70992187 3.56890625 -9.55859375 3.640625 C-10.24050781 3.77726563 -10.92242187 3.91390625 -11.625 4.0546875 C-11.955 4.7146875 -12.285 5.3746875 -12.625 6.0546875 C-14.94656597 6.46197978 -17.2818787 6.79907427 -19.625 7.0546875 C-20.45280149 17.53524571 -20.73327313 27.9786505 -20.75 38.4921875 C-20.75451172 39.69528564 -20.75902344 40.89838379 -20.76367188 42.13793945 C-20.76173828 43.26417725 -20.75980469 44.39041504 -20.7578125 45.55078125 C-20.75612061 47.06949829 -20.75612061 47.06949829 -20.75439453 48.61889648 C-20.78703954 51.0632225 -20.78703954 51.0632225 -19.625 53.0546875 C-18.61027571 60.92295945 -20.80458428 67.12625132 -25.375 73.4921875 C-29.89989369 76.63447478 -36.20622051 77.93681439 -41.625 77.0546875 C-42.305625 75.91 -42.305625 75.91 -43 74.7421875 C-45.10239379 71.26515162 -47.00260691 70.91287844 -50.78515625 69.828125 C-52.625 69.0546875 -52.625 69.0546875 -54.625 66.0546875 C-55.615 66.0546875 -56.605 66.0546875 -57.625 66.0546875 C-57.955 65.0646875 -58.285 64.0746875 -58.625 63.0546875 C-59.285 62.7246875 -59.945 62.3946875 -60.625 62.0546875 C-60.625 61.3946875 -60.625 60.7346875 -60.625 60.0546875 C-62.11 59.5596875 -62.11 59.5596875 -63.625 59.0546875 C-64.0271875 57.8790625 -64.0271875 57.8790625 -64.4375 56.6796875 C-66.04784761 53.11997173 -68.18115852 52.70486154 -71.625 51.0546875 C-72.875 48.9296875 -72.875 48.9296875 -73.625 47.0546875 C-74.615 46.5596875 -74.615 46.5596875 -75.625 46.0546875 C-75.625 45.0646875 -75.625 44.0746875 -75.625 43.0546875 C-76.93837396 42.0286141 -78.27164105 41.02741425 -79.625 40.0546875 C-79.625 39.3946875 -79.625 38.7346875 -79.625 38.0546875 C-86.46268041 37.78654317 -90.91413078 37.88599212 -96.4375 42.3046875 C-98.91520476 44.90560192 -98.91520476 44.90560192 -98.9375 48.3671875 C-98.7828125 49.6975 -98.7828125 49.6975 -98.625 51.0546875 C-97.635 51.3846875 -96.645 51.7146875 -95.625 52.0546875 C-95.58375 53.1271875 -95.5425 54.1996875 -95.5 55.3046875 C-95.00356376 59.23993152 -95.00356376 59.23993152 -91.8125 61.1796875 C-90.760625 61.7984375 -89.70875 62.4171875 -88.625 63.0546875 C-84.625 67.26521382 -84.625 67.26521382 -84.625 72.0546875 C-83.26375 72.1475 -83.26375 72.1475 -81.875 72.2421875 C-77.85618116 73.24689221 -76.9486806 74.73514379 -74.625 78.0546875 C-73.965 78.3846875 -73.305 78.7146875 -72.625 79.0546875 C-72.295 80.0446875 -71.965 81.0346875 -71.625 82.0546875 C-70.14 83.0446875 -70.14 83.0446875 -68.625 84.0546875 C-68.625 84.7146875 -68.625 85.3746875 -68.625 86.0546875 C-68.0475 86.2815625 -67.47 86.5084375 -66.875 86.7421875 C-62.86335837 89.08231179 -60.40077785 92.82739333 -58.625 97.0546875 C-58.06017045 103.31488167 -60.1666549 107.60255171 -63.95703125 112.42578125 C-67.10772487 115.50268813 -69.98648231 116.30268524 -74.32666016 116.35766602 C-75.25507721 116.37430801 -76.18349426 116.39095001 -77.14004517 116.40809631 C-78.13797089 116.41651047 -79.13589661 116.42492462 -80.1640625 116.43359375 C-81.71811295 116.45908546 -81.71811295 116.45908546 -83.30355835 116.48509216 C-86.61897666 116.5382018 -89.93438507 116.5784548 -93.25 116.6171875 C-96.54412312 116.66135047 -99.83815721 116.70834544 -103.13217163 116.75999451 C-105.18013824 116.79152224 -107.22818118 116.81853804 -109.27627563 116.84022522 C-112.06133133 116.879884 -114.84153055 116.9534585 -117.625 117.0546875 C-118.55656921 117.08690399 -119.48813843 117.11912048 -120.44793701 117.15231323 C-121.33829651 117.20767242 -122.22865601 117.26303162 -123.14599609 117.32006836 C-123.93702728 117.364254 -124.72805847 117.40843964 -125.5430603 117.45396423 C-128.39918417 118.27807074 -129.17335224 119.50714777 -130.625 122.0546875 C-130.99489022 124.86698264 -131.22538059 127.48699692 -131.3125 130.3046875 C-131.36374023 131.42230469 -131.36374023 131.42230469 -131.41601562 132.5625 C-131.49814054 134.39271242 -131.56325653 136.22367419 -131.625 138.0546875 C-130.635 138.0546875 -129.645 138.0546875 -128.625 138.0546875 C-128.295 137.0646875 -127.965 136.0746875 -127.625 135.0546875 C-126.305 135.3846875 -124.985 135.7146875 -123.625 136.0546875 C-123.295 137.3746875 -122.965 138.6946875 -122.625 140.0546875 C-118.005 139.7246875 -113.385 139.3946875 -108.625 139.0546875 C-108.295 140.0446875 -107.965 141.0346875 -107.625 142.0546875 C-99.045 142.0546875 -90.465 142.0546875 -81.625 142.0546875 C-81.625 141.3946875 -81.625 140.7346875 -81.625 140.0546875 C-76.675 140.0546875 -71.725 140.0546875 -66.625 140.0546875 C-66.625 140.7146875 -66.625 141.3746875 -66.625 142.0546875 C-65.635 142.3846875 -64.645 142.7146875 -63.625 143.0546875 C-62.4375 146.6171875 -62.4375 146.6171875 -61.625 150.0546875 C-60.965 150.0546875 -60.305 150.0546875 -59.625 150.0546875 C-59.32950457 153.43646854 -59.19868797 156.68058376 -59.625 160.0546875 C-61.9375 162.8046875 -61.9375 162.8046875 -64.625 165.0546875 C-65.12 166.0446875 -65.615 167.0346875 -66.125 168.0546875 C-67.84174373 171.48817496 -69.88945597 173.36577206 -72.625 176.0546875 C-73.5402763 177.07268546 -74.44639253 178.0989846 -75.34375 179.1328125 C-75.80136719 179.65359375 -76.25898437 180.174375 -76.73046875 180.7109375 C-77.6679241 181.78231504 -78.59753091 182.86060621 -79.51953125 183.9453125 C-82.45554273 187.25349444 -84.28685415 188.4476432 -88.625 189.0546875 C-90.80446646 191.90720135 -90.80446646 191.90720135 -92.625 195.0546875 C-94.25 196.9296875 -94.25 196.9296875 -95.625 198.0546875 C-96.285 198.0546875 -96.945 198.0546875 -97.625 198.0546875 C-99.89158385 201.98343284 -101.10134853 205.85157555 -100.125 210.3671875 C-97.75044379 213.03856323 -95.05159975 212.8008653 -91.625 213.0546875 C-91.13 215.5296875 -91.13 215.5296875 -90.625 218.0546875 C-85.15264604 217.40321679 -80.59010537 216.01979287 -76.625 212.0546875 C-75.903125 211.8278125 -75.18125 211.6009375 -74.4375 211.3671875 C-70.29033141 209.43184216 -67.36738716 206.71120371 -64.625 203.0546875 C-63.7919813 200.8161483 -63.7919813 200.8161483 -63.25 198.4921875 C-61.89314995 193.45733511 -59.12051928 191.9806066 -54.74609375 189.4609375 C-52.32635086 188.07970223 -52.32635086 188.07970223 -50.75 184.8671875 C-47.82868355 181.00073926 -44.86418292 180.55437222 -40.28125 179.40234375 C-35.21049268 178.7386711 -31.17366271 180.90441058 -26.625 183.0546875 C-24.1007517 185.07408614 -23.67666468 185.89969346 -22.625 189.0546875 C-21.965 188.3946875 -21.305 187.7346875 -20.625 187.0546875 C-19.80335353 194.83098443 -19.56914593 202.49349522 -19.625 210.3046875 C-19.7112439 222.57288171 -19.2030381 234.80212459 -18.625 247.0546875 C-17.635 247.0546875 -16.645 247.0546875 -15.625 247.0546875 C-14.965 248.0446875 -14.305 249.0346875 -13.625 250.0546875 C-10.03943129 250.36647608 -7.0646519 249.99277438 -3.625 249.0546875 C-1.29319649 248.71081551 1.04007098 248.37665338 3.375 248.0546875 C3.42911124 245.63771878 3.46872278 243.22196963 3.5 240.8046875 C3.52513672 239.78181641 3.52513672 239.78181641 3.55078125 238.73828125 C3.58825397 234.87859106 3.23933936 232.39668843 1.375 229.0546875 C-0.03360545 222.20125631 0.15223096 215.33491 0.125 208.3671875 C0.10425955 207.02278502 0.08342705 205.67838396 0.0625 204.33398438 C0.05476563 202.42649414 0.05476563 202.42649414 0.046875 200.48046875 C0.0375293 199.31942627 0.02818359 198.15838379 0.01855469 196.9621582 C0.41335492 193.74183217 0.91206302 193.01995483 3.375 191.0546875 C3.684375 190.3740625 3.99375 189.6934375 4.3125 188.9921875 C5.63622864 186.5783294 6.95054156 186.22781255 9.375 185.0546875 C9.705 184.0646875 10.035 183.0746875 10.375 182.0546875 C26.67927892 181.29042443 26.67927892 181.29042443 33.375 186.0546875 C35.41204624 188.74884543 36.31001321 190.85972712 37.375 194.0546875 C38.365 194.3846875 39.355 194.7146875 40.375 195.0546875 C40.375 195.7146875 40.375 196.3746875 40.375 197.0546875 C40.890625 197.1371875 41.40625 197.2196875 41.9375 197.3046875 C45.41955732 198.37608975 48.24700885 200.18992355 51.375 202.0546875 C51.375 203.3746875 51.375 204.6946875 51.375 206.0546875 C51.973125 206.1165625 52.57125 206.1784375 53.1875 206.2421875 C56.29766847 207.39739293 56.97917708 209.12345937 58.375 212.0546875 C58.375 213.0446875 58.375 214.0346875 58.375 215.0546875 C60.33264383 215.24925455 62.29115321 215.43512997 64.25 215.6171875 C65.34054688 215.72160156 66.43109375 215.82601562 67.5546875 215.93359375 C70.32652023 216.28108154 70.32652023 216.28108154 72.375 215.0546875 C75.0473621 214.92053278 77.69750488 215.01150209 80.375 215.0546875 C79.85094437 208.36461568 79.27036075 201.7059388 78.375 195.0546875 C77.385 195.0546875 76.395 195.0546875 75.375 195.0546875 C72.375 190.83246528 72.375 190.83246528 72.375 188.0546875 C70.9828125 187.714375 70.9828125 187.714375 69.5625 187.3671875 C65.67588276 185.7668157 65.43337291 184.617256 63.375 181.0546875 C61.42171165 179.17969552 59.38829856 177.44082 57.3125 175.703125 C55.56346988 174.21503889 53.89617814 172.77552027 52.375 171.0546875 C52.375 170.3946875 52.375 169.7346875 52.375 169.0546875 C51.715 169.0546875 51.055 169.0546875 50.375 169.0546875 C50.045 167.7346875 49.715 166.4146875 49.375 165.0546875 C48.715 165.0546875 48.055 165.0546875 47.375 165.0546875 C45.01023307 158.6559064 44.81813583 152.49927513 47.09985352 145.98535156 C48.375 144.0546875 48.375 144.0546875 50.4987793 143.24194336 C61.24106806 141.64820802 72.00562672 141.67509762 82.84350586 141.59838867 C85.42333291 141.57666934 88.002452 141.53727771 90.58203125 141.49609375 C91.36133499 141.49597794 92.14063873 141.49586212 92.94355774 141.4957428 C98.14959727 141.40209793 101.69443199 140.33820305 106.375 138.0546875 C107.798125 137.6215625 107.798125 137.6215625 109.25 137.1796875 C111.57919142 136.24837781 111.57919142 136.24837781 112.1875 133.8671875 C112.40804712 130.55898068 112.56257526 127.36851704 112.375 124.0546875 C111.715 123.3946875 111.055 122.7346875 110.375 122.0546875 C109.75 119.4296875 109.75 119.4296875 109.375 117.0546875 C108.78999222 117.04438004 108.20498444 117.03407257 107.60224915 117.02345276 C101.45276013 116.91434622 95.30338745 116.79984844 89.15405273 116.68237305 C86.86631735 116.63935415 84.57855662 116.59765964 82.29077148 116.55737305 C74.98424229 116.42818098 67.67963964 116.26549508 60.375 116.0546875 C59.23342438 116.02577423 59.23342438 116.02577423 58.06878662 115.99627686 C56.22607773 115.94264005 54.38433875 115.85790258 52.54296875 115.76953125 C51.61121826 115.72820068 50.67946777 115.68687012 49.71948242 115.64428711 C46.01056031 114.71155287 44.17607873 112.28692007 42.1484375 109.16796875 C40.30727831 104.13732672 40.35804725 97.70318618 42.2734375 92.71484375 C43.375 90.8046875 43.375 90.8046875 45.375 88.0546875 C46.365 88.0546875 47.355 88.0546875 48.375 88.0546875 C49.365 86.0746875 49.365 86.0746875 50.375 84.0546875 C51.035 84.0546875 51.695 84.0546875 52.375 84.0546875 C52.705 82.4046875 53.035 80.7546875 53.375 79.0546875 C53.9525 78.9928125 54.53 78.9309375 55.125 78.8671875 C58.2786885 77.72835554 59.33748151 75.69147614 61.375 73.0546875 C62.41617322 72.134154 63.47955547 71.23819539 64.5625 70.3671875 C67.39147233 68.36078499 67.39147233 68.36078499 68.375 66.0546875 C69.365 66.0546875 70.355 66.0546875 71.375 66.0546875 C71.6225 65.4359375 71.87 64.8171875 72.125 64.1796875 C73.58128639 61.70400063 74.75312506 61.10343748 77.375 60.0546875 C77.375 58.7346875 77.375 57.4146875 77.375 56.0546875 C78.035 56.0546875 78.695 56.0546875 79.375 56.0546875 C79.72048714 49.72075668 78.66842747 44.95207242 76.375 39.0546875 C71.27584642 37.24531042 67.10630955 38.96531358 62.375 41.0546875 C59.18026334 43.16030939 57.30005066 45.1507764 54.9375 48.1796875 C52.10198799 51.36099366 50.3834454 51.92186597 46.375 53.0546875 C44.79166667 54.47135417 44.79166667 54.47135417 43.375 56.0546875 C42.1684375 56.704375 42.1684375 56.704375 40.9375 57.3671875 C37.74996872 59.46629346 36.42246166 61.85552866 34.375 65.0546875 C32.7290349 66.74180173 31.06262851 68.4092497 29.375 70.0546875 C28.80394531 70.91578125 28.23289063 71.776875 27.64453125 72.6640625 C25.375 75.0546875 25.375 75.0546875 22.16796875 75.75390625 C11.22231946 75.71832993 11.22231946 75.71832993 7.125 72.6171875 C3.09304789 67.97238983 2.25883437 62.951903 2.50195312 56.88842773 C2.84368974 53.40935916 3.27468547 49.95546713 3.75 46.4921875 C3.90210938 45.29271484 4.05421875 44.09324219 4.2109375 42.85742188 C4.58528702 39.92111782 4.97359164 36.98739357 5.375 34.0546875 C5.705 34.0546875 6.035 34.0546875 6.375 34.0546875 C7.15038632 38.24342926 7.54954013 42.29089151 7.69140625 46.546875 C7.75424805 48.34511719 7.75424805 48.34511719 7.81835938 50.1796875 C7.85767578 51.4171875 7.89699219 52.6546875 7.9375 53.9296875 C7.98068359 55.19039062 8.02386719 56.45109375 8.06835938 57.75 C8.17409102 60.85146173 8.27618571 63.95299895 8.375 67.0546875 C9.13296875 67.35375 9.8909375 67.6528125 10.671875 67.9609375 C12.67838771 68.77282125 14.65968243 69.64761785 16.625 70.5546875 C21.4715685 71.20089663 23.09553879 70.0077584 26.9140625 67.16015625 C33.72583698 61.33230475 39.80974833 54.83510231 45.625 48.02734375 C48.38467517 44.9165492 51.34155675 42.01337546 54.30859375 39.1015625 C55.93978563 37.48578831 57.5126842 35.81117221 59.0625 34.1171875 C62.89866426 30.6957437 66.06086577 30.12039421 71.125 29.8671875 C77.21510594 30.84113508 81.43423664 35.63386751 85.375 40.0546875 C87.59101184 43.27503219 88.33225547 46.05019099 88.5 49.9921875 C85.51343139 58.12229094 76.98293139 64.63309895 70.98461914 70.63037109 C69.54218144 72.07503746 68.10798435 73.52758604 66.67382812 74.98046875 C65.76439453 75.89183594 64.85496094 76.80320312 63.91796875 77.7421875 C63.09321045 78.57105469 62.26845215 79.39992188 61.41870117 80.25390625 C59.375 82.0546875 59.375 82.0546875 57.375 82.0546875 C56.99021484 82.92287109 56.99021484 82.92287109 56.59765625 83.80859375 C54.86216574 86.99679517 52.42984287 89.34660858 49.93359375 91.95703125 C48.09958541 94.42535826 47.60942305 95.99781097 47.375 99.0546875 C47.87967266 101.526853 47.87967266 101.526853 48.8125 103.8671875 C49.33333333 105.26302083 49.85416667 106.65885417 50.375 108.0546875 C63.0041895 111.13418524 76.0388565 110.15704867 88.92822266 109.93823242 C92.00162148 109.88993547 95.0747973 109.86010497 98.1484375 109.83203125 C99.55480972 109.7993943 99.55480972 109.7993943 100.98959351 109.76609802 C107.07936094 109.71995025 111.13661363 110.62589772 116.125 114.3671875 C119.77394423 119.29326221 120.02141543 125.16733467 119.375 131.0546875 C118.42788916 135.03670096 117.34183518 138.11806592 114.375 140.9921875 C110.15143979 143.23595386 106.21226554 143.25084178 101.55078125 143.3359375 C100.77171921 143.35434692 99.99265717 143.37275635 99.18998718 143.39172363 C96.68923458 143.4504157 94.18840816 143.50308261 91.6875 143.5546875 C82.30214639 143.75384126 72.91776482 143.95611808 63.54296875 144.4609375 C62.30184326 144.52603516 61.06071777 144.59113281 59.78198242 144.65820312 C53.75116356 145.31268831 53.75116356 145.31268831 49 148.6796875 C48.01592087 152.4191882 47.39911366 155.29784402 48.375 159.0546875 C53.43738133 167.61627859 61.76541183 174.60350996 68.81396484 181.50927734 C86.83330967 199.18547083 86.83330967 199.18547083 87.8125 206.1796875 C87.03874486 213.03294735 82.60500335 217.27361748 77.4375 221.5546875 C74.64634193 223.49682411 73.26481017 224.07401905 69.8125 224.6796875 C60.43425452 222.97455196 54.61246102 215.6474149 48.25 209.1171875 C47.26503258 208.11713908 46.27936026 207.11778443 45.29296875 206.11914062 C43.47456493 204.27642762 41.66127456 202.42918845 39.85107422 200.57836914 C31.65652054 191.09341805 31.65652054 191.09341805 20.93359375 185.69140625 C17.27806463 185.96240923 14.96293842 186.64765321 11.9375 188.7421875 C7.83373213 194.81576394 8.08118584 201.09012283 8.06640625 208.1484375 C8.04125481 210.33463818 8.01585667 212.52083604 7.99023438 214.70703125 C7.96146795 218.13687459 7.93743456 221.56666904 7.91870117 224.99658203 C7.89703272 228.31828395 7.85760314 231.63942875 7.81640625 234.9609375 C7.81629044 235.98296265 7.81617462 237.00498779 7.8160553 238.0579834 C7.74132921 243.44277535 7.49456181 247.44847039 4.375 252.0546875 C-0.10810837 255.1368245 -4.31778268 255.54705535 -9.625 255.4921875 C-10.31078125 255.51216797 -10.9965625 255.53214844 -11.703125 255.55273438 C-16.82737835 255.54784482 -19.78399359 254.40998525 -23.625 251.0546875 C-26.79566186 246.05360808 -27.01903567 242.11041555 -26.8828125 236.39453125 C-26.87288773 235.15504478 -26.87288773 235.15504478 -26.86276245 233.89051819 C-26.83947698 231.25735275 -26.79588968 228.6250476 -26.75 225.9921875 C-24.90096909 205.66830489 -24.90096909 205.66830489 -31.625 188.0546875 C-35.10524091 186.31456704 -38.81962328 186.60889634 -42.625 187.0546875 C-47.45491222 189.42035879 -50.86420579 193.18518441 -54.57421875 197 C-56.42281169 198.85211407 -58.31634209 200.55280754 -60.3125 202.2421875 C-64.76159814 206.04814869 -68.82290452 210.22211934 -72.8815918 214.4362793 C-81.85844287 223.61099759 -81.85844287 223.61099759 -87.9375 223.6796875 C-93.55039786 223.42326069 -97.48168416 220.6650457 -101.625 217.0546875 C-104.6903194 213.31882949 -105.46192507 209.86539799 -105.625 205.0546875 C-104.59002238 198.99093629 -101.40463431 195.35809435 -96.953125 191.3046875 C-94.977361 189.3952243 -93.22252109 187.46134472 -91.4375 185.37890625 C-86.58868099 179.77302739 -81.25280746 174.6686544 -75.9453125 169.50195312 C-75.17445312 168.74205078 -74.40359375 167.98214844 -73.609375 167.19921875 C-72.91553711 166.52221924 -72.22169922 165.84521973 -71.50683594 165.14770508 C-68.45567227 161.75413656 -66.75732546 159.11329115 -66.1875 154.5546875 C-66.71521644 150.33295598 -67.42777132 148.8522626 -70.625 146.0546875 C-77.23324636 143.8962672 -83.47580144 143.7600649 -90.38671875 143.74609375 C-92.66211215 143.72095339 -94.93750272 143.69555511 -97.21289062 143.66992188 C-100.77448914 143.64110595 -104.33603875 143.61706408 -107.89770508 143.59838867 C-111.35261905 143.57676427 -114.80699169 143.53735197 -118.26171875 143.49609375 C-119.32637863 143.49597794 -120.39103851 143.49586212 -121.48796082 143.4957428 C-130.80509997 143.37082137 -130.80509997 143.37082137 -134.625 140.0546875 C-138.52494204 133.86857255 -138.30463448 127.19084949 -137.625 120.0546875 C-136.13277401 115.72723213 -134.60628561 113.29564591 -130.625 111.0546875 C-127.62387804 110.58824004 -124.64216675 110.58976049 -121.609375 110.578125 C-120.27643402 110.55475571 -120.27643402 110.55475571 -118.91656494 110.53091431 C-116.06938712 110.48344786 -113.22244719 110.45573122 -110.375 110.4296875 C-106.66136406 110.38079001 -102.94786341 110.32462281 -99.234375 110.265625 C-98.33086304 110.2513446 -97.42735107 110.23706421 -96.49645996 110.22235107 C-90.83089951 110.12234945 -85.17402388 109.96229855 -79.515625 109.65625 C-78.27329102 109.59002441 -77.03095703 109.52379883 -75.75097656 109.45556641 C-72.84556348 109.08297282 -71.06252021 108.6288892 -68.625 107.0546875 C-66.38534666 104.14313815 -66.02402671 100.81550031 -66.11653137 97.18292236 C-66.75610211 94.50594945 -67.8397722 93.27164436 -69.69799805 91.25292969 C-70.3349057 90.55792358 -70.97181335 89.86291748 -71.62802124 89.14685059 C-74.70713041 85.92097825 -77.8377595 82.75734699 -81.01953125 79.6328125 C-82.40051949 78.26445296 -83.7813751 76.89595955 -85.16210938 75.52734375 C-87.31086341 73.40351496 -89.46120834 71.2813435 -91.61401367 69.16162109 C-93.71189495 67.09388929 -95.80355458 65.02002292 -97.89453125 62.9453125 C-98.54033646 62.31296692 -99.18614166 61.68062134 -99.85151672 61.02911377 C-100.44941513 60.43459412 -101.04731354 59.84007446 -101.66333008 59.22753906 C-102.18848709 58.70983948 -102.7136441 58.19213989 -103.25471497 57.65875244 C-105.93880833 54.51673457 -106.625 52.54398962 -106.625 48.3671875 C-105.59152414 41.86236885 -101.60177644 36.98439784 -97 32.4921875 C-91.76052178 30.26055789 -87.20491467 29.80291957 -81.625 31.0546875 C-77.65161549 33.4838568 -74.7372636 36.61762381 -71.625 40.0546875 C-70.6865025 41.05229516 -69.74635086 42.04834886 -68.8046875 43.04296875 C-64.73322532 47.38507726 -60.79974463 51.83782788 -56.9375 56.3671875 C-53.49180461 60.33221019 -49.70352627 63.75183187 -45.625 67.0546875 C-45.08746094 67.50328125 -44.54992187 67.951875 -43.99609375 68.4140625 C-41.37509058 70.41232079 -39.88593932 71.06001279 -36.5625 70.9921875 C-33.53388501 70.02560825 -31.20953423 68.90078338 -28.625 67.0546875 C-25.68679045 61.17826841 -26.49581994 53.17260523 -26.5625 46.7421875 C-26.56628662 45.88842529 -26.57007324 45.03466309 -26.57397461 44.1550293 C-26.5860697 41.45486092 -26.60468381 38.75480573 -26.625 36.0546875 C-26.65180489 32.49218986 -26.67169926 28.92974913 -26.6875 25.3671875 C-26.69994751 24.16678833 -26.69994751 24.16678833 -26.71264648 22.94213867 C-26.77670264 7.9889322 -26.77670264 7.9889322 -23.3125 3.6171875 C-17.06900534 -2.33591206 -8.06882358 -2.90573706 0 0 Z " fill="#EFED57" transform="translate(139.625,0.9453125)"/>
<path d="M0 0 C0.99 0.33 1.98 0.66 3 1 C2.195625 1.886875 1.39125 2.77375 0.5625 3.6875 C-1.72233201 6.48658195 -3 8.27099036 -3 12 C-2.17445658 15.07372143 -1.12154936 18.0242007 0 21 C12.6291895 24.07949774 25.6638565 23.10236117 38.55322266 22.88354492 C41.62662148 22.83524797 44.6997973 22.80541747 47.7734375 22.77734375 C49.17980972 22.7447068 49.17980972 22.7447068 50.61459351 22.71141052 C56.70436094 22.66526275 60.76161363 23.57121022 65.75 27.3125 C69.39894423 32.23857471 69.64641543 38.11264717 69 44 C68.05288916 47.98201346 66.96683518 51.06337842 64 53.9375 C59.77643979 56.18126636 55.83726554 56.19615428 51.17578125 56.28125 C50.39671921 56.29965942 49.61765717 56.31806885 48.81498718 56.33703613 C46.31423458 56.3957282 43.81340816 56.44839511 41.3125 56.5 C31.92714639 56.69915376 22.54276482 56.90143058 13.16796875 57.40625 C11.92684326 57.47134766 10.68571777 57.53644531 9.40698242 57.60351562 C3.37616356 58.25800081 3.37616356 58.25800081 -1.375 61.625 C-2.35899699 65.36418857 -2.98482151 68.2449709 -2 72 C4.19973967 82.27719648 14.471902 90.67603618 23 99 C17.4073917 99 13.8287334 95.12727835 9.875 91.5 C9.02679688 90.7265625 8.17859375 89.953125 7.3046875 89.15625 C6.16386719 88.08890625 6.16386719 88.08890625 5 87 C4.40445313 86.4534375 3.80890625 85.906875 3.1953125 85.34375 C2 84 2 84 2 82 C1.34 82 0.68 82 0 82 C-0.33 80.68 -0.66 79.36 -1 78 C-1.66 78 -2.32 78 -3 78 C-5.36075475 71.61207539 -5.57977176 65.42607566 -3.26123047 58.93017578 C-2 57 -2 57 -0.00146484 56.19165039 C11.05981566 54.50480005 22.2080293 54.57702214 33.375 54.4375 C36.51387515 54.39337539 39.65265604 54.34660239 42.79141235 54.29469299 C44.73239921 54.26305996 46.67346919 54.23607342 48.61459351 54.21446228 C53.18014705 54.14461568 57.50753115 53.92218725 62 53 C62 52.34 62 51.68 62 51 C62.66 51 63.32 51 64 51 C64 44.4 64 37.8 64 31 C63.34 31 62.68 31 62 31 C62 30.01 62 29.02 62 28 C60.89578957 27.98786972 60.89578957 27.98786972 59.76927185 27.97549438 C52.81057593 27.89735088 45.85204894 27.81000139 38.89359951 27.71247292 C35.31671924 27.66266034 31.73986637 27.61632991 28.1628418 27.578125 C24.70676723 27.54108098 21.25093061 27.49467115 17.79506111 27.44193649 C15.8437952 27.41455644 13.89240286 27.3967199 11.94102478 27.37905884 C0.35657753 27.18735714 0.35657753 27.18735714 -5 25 C-8.27894253 19.84088821 -7.76106379 12.86998707 -7 7 C-4.625 3.8125 -4.625 3.8125 -2 2 C-1.34 1.34 -0.68 0.68 0 0 Z " fill="#E4DE70" transform="translate(190,88)"/>
<path d="M0 0 C5.99738854 4.17945799 11.22300803 8.75534044 13 16 C13.18450159 20.3357874 11.77033604 22.55564968 9.0625 25.75 C4.51747047 30.63590675 -0.23916428 35.3253766 -5 40 C-5.495 38.02 -5.495 38.02 -6 36 C-5.28457031 35.59910156 -4.56914062 35.19820312 -3.83203125 34.78515625 C1.71156367 31.29077987 7.66625388 26.74236781 9.92578125 20.40234375 C10.24653037 16.33323242 9.69144492 13.95605255 7.28515625 10.62890625 C3.11719722 6.27466972 -0.12386789 3.9159307 -6.25 3.5625 C-10.89911291 3.62278023 -13.09292341 5.00871491 -16.3671875 8.19921875 C-18.57122217 10.62998426 -20.70404753 13.10484921 -22.73828125 15.6796875 C-23.36283203 16.33324219 -23.36283203 16.33324219 -24 17 C-24.66 17 -25.32 17 -26 17 C-26 17.99 -26 18.98 -26 20 C-28.78481355 22.59052423 -31.29506789 24.61396575 -34.625 26.4375 C-37.70294902 28.46246646 -39.02382137 30.91222088 -41 34 C-42.6459651 35.68711423 -44.31237149 37.3545622 -46 39 C-46.57105469 39.86109375 -47.14210937 40.7221875 -47.73046875 41.609375 C-50 44 -50 44 -53.20703125 44.69921875 C-64.15268054 44.66364243 -64.15268054 44.66364243 -68.25 41.5625 C-72.28195211 36.91770233 -73.11616563 31.8972155 -72.87304688 25.83374023 C-72.53131026 22.35467166 -72.10031453 18.90077963 -71.625 15.4375 C-71.47289062 14.23802734 -71.32078125 13.03855469 -71.1640625 11.80273438 C-70.78971298 8.86643032 -70.40140836 5.93270607 -70 3 C-69.67 3 -69.34 3 -69 3 C-68.22461368 7.18874176 -67.82545987 11.23620401 -67.68359375 15.4921875 C-67.62075195 17.29042969 -67.62075195 17.29042969 -67.55664062 19.125 C-67.51732422 20.3625 -67.47800781 21.6 -67.4375 22.875 C-67.39431641 24.13570312 -67.35113281 25.39640625 -67.30664062 26.6953125 C-67.20090898 29.79677423 -67.09881429 32.89831145 -67 36 C-66.24203125 36.2990625 -65.4840625 36.598125 -64.703125 36.90625 C-62.69661229 37.71813375 -60.71531757 38.59293035 -58.75 39.5 C-53.9034315 40.14620913 -52.27946121 38.9530709 -48.4609375 36.10546875 C-41.64916302 30.27761725 -35.56525167 23.78041481 -29.75 16.97265625 C-26.99032483 13.8618617 -24.03344325 10.95868796 -21.06640625 8.046875 C-19.43521437 6.43110081 -17.8623158 4.75648471 -16.3125 3.0625 C-11.63727605 -1.10729433 -5.89823119 -2.29087714 0 0 Z " fill="#F1EC88" transform="translate(215,32)"/>
<path d="M0 0 C4.20950451 2.46070301 5.81567863 4.38416055 7.375 9.0546875 C7.60205078 11.82543945 7.60205078 11.82543945 7.5703125 14.79296875 C7.56386719 15.85966797 7.55742187 16.92636719 7.55078125 18.02539062 C7.53402344 19.12818359 7.51726562 20.23097656 7.5 21.3671875 C7.49097656 22.48931641 7.48195312 23.61144531 7.47265625 24.76757812 C7.44914486 27.53016659 7.41628155 30.29231682 7.375 33.0546875 C5.18757986 29.7735573 4.83057194 27.72384394 4.25 23.8671875 C3.99863281 22.23716797 3.99863281 22.23716797 3.7421875 20.57421875 C3.56042969 19.32705078 3.56042969 19.32705078 3.375 18.0546875 C2.715 18.7146875 2.055 19.3746875 1.375 20.0546875 C1.375 15.7646875 1.375 11.4746875 1.375 7.0546875 C0.715 7.0546875 0.055 7.0546875 -0.625 7.0546875 C-0.625 6.3946875 -0.625 5.7346875 -0.625 5.0546875 C-1.285 5.0546875 -1.945 5.0546875 -2.625 5.0546875 C-2.625 4.3946875 -2.625 3.7346875 -2.625 3.0546875 C-4.1050841 3.16831012 -5.58410074 3.29591658 -7.0625 3.4296875 C-7.88621094 3.49929687 -8.70992187 3.56890625 -9.55859375 3.640625 C-10.24050781 3.77726563 -10.92242187 3.91390625 -11.625 4.0546875 C-11.955 4.7146875 -12.285 5.3746875 -12.625 6.0546875 C-14.295625 6.27125 -14.295625 6.27125 -16 6.4921875 C-19.46830774 6.75531391 -19.46830774 6.75531391 -21.32553101 8.25498962 C-23.10178727 10.7150134 -23.0161708 12.39132542 -23.04150391 15.41235352 C-23.05807037 16.5068129 -23.07463684 17.60127228 -23.09170532 18.72889709 C-23.09495819 19.91019699 -23.09821106 21.09149689 -23.1015625 22.30859375 C-23.11714203 23.52038803 -23.13272156 24.73218231 -23.14877319 25.98069763 C-23.19639332 29.85952094 -23.22409026 33.73816344 -23.25 37.6171875 C-23.28644834 41.49965479 -23.32703718 45.38201868 -23.37265015 49.26438904 C-23.39994402 51.68267289 -23.42126582 54.1010326 -23.43618774 56.51942444 C-23.45158096 58.15638527 -23.45158096 58.15638527 -23.46728516 59.82641602 C-23.47378082 60.78999527 -23.48027649 61.75357452 -23.48696899 62.74635315 C-23.625 65.0546875 -23.625 65.0546875 -24.625 67.0546875 C-25.285 67.0546875 -25.945 67.0546875 -26.625 67.0546875 C-26.625 67.7146875 -26.625 68.3746875 -26.625 69.0546875 C-27.615 69.5496875 -27.615 69.5496875 -28.625 70.0546875 C-28.955 71.0446875 -29.285 72.0346875 -29.625 73.0546875 C-32.925 73.0546875 -36.225 73.0546875 -39.625 73.0546875 C-37.645 72.0646875 -37.645 72.0646875 -35.625 71.0546875 C-30.89004982 68.84962238 -30.89004982 68.84962238 -27.625 65.0546875 C-26.58560885 58.97905452 -26.49877092 52.8880215 -26.5625 46.7421875 C-26.56628662 45.88842529 -26.57007324 45.03466309 -26.57397461 44.1550293 C-26.5860697 41.45486092 -26.60468381 38.75480573 -26.625 36.0546875 C-26.65180489 32.49218986 -26.67169926 28.92974913 -26.6875 25.3671875 C-26.69579834 24.56692139 -26.70409668 23.76665527 -26.71264648 22.94213867 C-26.77670264 7.9889322 -26.77670264 7.9889322 -23.3125 3.6171875 C-17.06900534 -2.33591206 -8.06882358 -2.90573706 0 0 Z " fill="#EFEA89" transform="translate(139.625,0.9453125)"/>
<path d="M0 0 C1.21087784 0.00141495 2.42175568 0.0028299 3.66932678 0.00428772 C7.52046219 0.00986599 11.37153854 0.02241455 15.22265625 0.03515625 C17.84049395 0.04017406 20.45833256 0.04473647 23.07617188 0.04882812 C29.47918667 0.05982831 35.88216724 0.07654481 42.28515625 0.09765625 C42.28515625 0.42765625 42.28515625 0.75765625 42.28515625 1.09765625 C41.70601471 1.10796371 41.12687317 1.11827118 40.53018188 1.12889099 C34.46224334 1.23769146 28.39443152 1.35222215 22.32666016 1.4699707 C20.0669217 1.51308562 17.80715556 1.55477547 15.54736328 1.5949707 C12.28539717 1.65324579 9.02356743 1.71677047 5.76171875 1.78125 C4.7633902 1.79796249 3.76506165 1.81467499 2.73648071 1.83189392 C-0.08270168 1.89045133 -2.89745094 1.98212567 -5.71484375 2.09765625 C-6.64935364 2.13134308 -7.58386353 2.16502991 -8.54669189 2.19973755 C-9.88217072 2.28274612 -9.88217072 2.28274612 -11.24462891 2.36743164 C-12.03439117 2.41098282 -12.82415344 2.454534 -13.6378479 2.49940491 C-16.49122645 3.32128308 -17.26459451 4.55336895 -18.71484375 7.09765625 C-19.08473397 9.90995139 -19.31522434 12.52996567 -19.40234375 15.34765625 C-19.43650391 16.09273437 -19.47066406 16.8378125 -19.50585938 17.60546875 C-19.58798429 19.43568117 -19.65310028 21.26664294 -19.71484375 23.09765625 C-18.72484375 23.09765625 -17.73484375 23.09765625 -16.71484375 23.09765625 C-16.38484375 22.10765625 -16.05484375 21.11765625 -15.71484375 20.09765625 C-14.39484375 20.42765625 -13.07484375 20.75765625 -11.71484375 21.09765625 C-11.38484375 22.41765625 -11.05484375 23.73765625 -10.71484375 25.09765625 C-6.09484375 24.76765625 -1.47484375 24.43765625 3.28515625 24.09765625 C3.61515625 25.08765625 3.94515625 26.07765625 4.28515625 27.09765625 C12.86515625 27.09765625 21.44515625 27.09765625 30.28515625 27.09765625 C30.28515625 26.43765625 30.28515625 25.77765625 30.28515625 25.09765625 C35.23515625 25.09765625 40.18515625 25.09765625 45.28515625 25.09765625 C45.28515625 25.75765625 45.28515625 26.41765625 45.28515625 27.09765625 C46.77015625 27.59265625 46.77015625 27.59265625 48.28515625 28.09765625 C49.47265625 31.66015625 49.47265625 31.66015625 50.28515625 35.09765625 C50.94515625 35.09765625 51.60515625 35.09765625 52.28515625 35.09765625 C52.58065168 38.47943729 52.71146828 41.72355251 52.28515625 45.09765625 C49.97265625 47.84765625 49.97265625 47.84765625 47.28515625 50.09765625 C46.79015625 51.08765625 46.29515625 52.07765625 45.78515625 53.09765625 C43.53418927 57.59959022 40.43415634 60.33165619 36.28515625 63.09765625 C36.59453125 62.33453125 36.90390625 61.57140625 37.22265625 60.78515625 C37.96409218 58.90975948 38.64743842 57.01080973 39.28515625 55.09765625 C39.94515625 55.09765625 40.60515625 55.09765625 41.28515625 55.09765625 C41.51203125 54.54078125 41.73890625 53.98390625 41.97265625 53.41015625 C43.28515625 51.09765625 43.28515625 51.09765625 45.84765625 48.91015625 C49.15092159 45.09869625 49.42879124 42.04038989 49.28515625 37.09765625 C48.84460329 33.21374403 48.84460329 33.21374403 47.28515625 30.09765625 C43.58525884 28.1285532 40.44871584 27.85284443 36.30151367 27.87060547 C35.12066696 27.87075653 33.93982025 27.87090759 32.72319031 27.87106323 C31.45844376 27.8813858 30.1936972 27.89170837 28.890625 27.90234375 C27.58813309 27.90517365 26.28564117 27.90800354 24.94367981 27.91091919 C21.49293241 27.91852928 18.04235527 27.9381549 14.5916748 27.96032715 C11.06569725 27.98084237 7.539692 27.98993301 4.01367188 28 C-2.89590296 28.02140353 -9.80536516 28.05550751 -16.71484375 28.09765625 C-16.71484375 27.43765625 -16.71484375 26.77765625 -16.71484375 26.09765625 C-18.03484375 25.76765625 -19.35484375 25.43765625 -20.71484375 25.09765625 C-22.76594057 18.04701092 -24.01999861 11.2444663 -21.65234375 4.09765625 C-19.71484375 1.09765625 -19.71484375 1.09765625 -16.88842773 0.41625977 C-11.28208234 -0.15905739 -5.6282577 -0.02489359 0 0 Z M36.28515625 63.09765625 C34.69169381 67.24065861 31.80992414 70.46054384 28.28515625 73.09765625 C25.41015625 73.47265625 25.41015625 73.47265625 23.28515625 73.09765625 C26.13441266 69.10869727 30.9087161 63.09765625 36.28515625 63.09765625 Z " fill="#ECEA58" transform="translate(27.71484375,115.90234375)"/>
<path d="M0 0 C0.33 0 0.66 0 1 0 C0.99777939 0.54679413 0.99555878 1.09358826 0.99327087 1.6569519 C0.97119314 7.33428292 0.95608295 13.0116018 0.94506836 18.68896484 C0.94003128 20.80941259 0.93320141 22.92985685 0.92456055 25.05029297 C0.91246766 28.09343322 0.90676553 31.13652766 0.90234375 34.1796875 C0.89718246 35.13181122 0.89202118 36.08393494 0.88670349 37.06491089 C0.88662796 37.94567291 0.88655243 38.82643494 0.88647461 39.73388672 C0.884254 40.51110077 0.88203339 41.28831482 0.87974548 42.08908081 C0.88069314 44.08651572 0.88069314 44.08651572 2 46 C3.01472429 53.86827195 0.82041572 60.07156382 -3.75 66.4375 C-8.27489369 69.57978728 -14.58122051 70.88212689 -20 70 C-20.680625 68.8553125 -20.680625 68.8553125 -21.375 67.6875 C-23.47739379 64.21046412 -25.37760691 63.85819094 -29.16015625 62.7734375 C-31 62 -31 62 -33 59 C-33.99 59 -34.98 59 -36 59 C-36.33 58.01 -36.66 57.02 -37 56 C-37.66 55.67 -38.32 55.34 -39 55 C-39 54.34 -39 53.68 -39 53 C-39.99 52.67 -40.98 52.34 -42 52 C-42.268125 51.21625 -42.53625 50.4325 -42.8125 49.625 C-44.42284761 46.06528423 -46.55615852 45.65017404 -50 44 C-51.25 41.875 -51.25 41.875 -52 40 C-52.66 39.67 -53.32 39.34 -54 39 C-53.67 38.01 -53.34 37.02 -53 36 C-52.34 36 -51.68 36 -51 36 C-50.649375 36.680625 -50.29875 37.36125 -49.9375 38.0625 C-46.08345817 43.90572472 -40.4154979 47.47429734 -34 50 C-32.28641357 51.61838719 -30.6292274 53.29671681 -29 55 C-27.4491841 56.4294477 -25.88581025 57.84534861 -24.3125 59.25 C-23.54550781 59.93578125 -22.77851562 60.6215625 -21.98828125 61.328125 C-20.10201336 63.04622145 -20.10201336 63.04622145 -18 64 C-18 64.66 -18 65.32 -18 66 C-14.7 66 -11.4 66 -8 66 C-7.505 64.02 -7.505 64.02 -7 62 C-6.34 62 -5.68 62 -5 62 C-5 61.34 -5 60.68 -5 60 C-4.34 60 -3.68 60 -3 60 C-2.99191315 59.29256149 -2.98382629 58.58512299 -2.97549438 57.85624695 C-2.89756663 51.19061419 -2.81028162 44.52517742 -2.71247292 37.85980511 C-2.66251828 34.43302652 -2.61618843 31.00627864 -2.578125 27.5793457 C-2.53421113 23.63995917 -2.47456272 19.70088692 -2.4140625 15.76171875 C-2.40251129 14.53039719 -2.39096008 13.29907562 -2.37905884 12.03044128 C-2.35918915 10.88948502 -2.33931946 9.74852875 -2.31884766 8.57299805 C-2.30552399 7.567061 -2.29220032 6.56112396 -2.2784729 5.52470398 C-2 3 -2 3 0 0 Z " fill="#F0ED5E" transform="translate(118,8)"/>
<path d="M0 0 C0.68126953 -0.020625 1.36253906 -0.04125 2.06445312 -0.0625 C7.04926829 -0.1015583 7.04926829 -0.1015583 9.41015625 1.515625 C11.81060066 5.12849726 12.8117235 7.76183316 12.83374023 12.13525391 C12.84392685 13.10371246 12.85411346 14.07217102 12.86460876 15.06997681 C12.86674881 16.11165009 12.86888885 17.15332336 12.87109375 18.2265625 C12.89626732 20.44661706 12.92166514 22.66666908 12.94726562 24.88671875 C12.97591824 28.37548078 12.99994162 31.86419852 13.01879883 35.35302734 C13.0405946 38.72777857 13.08005881 42.10199808 13.12109375 45.4765625 C13.12120956 46.50609039 13.12132538 47.53561829 13.1214447 48.59634399 C13.2116423 55.27300901 14.29318747 60.96838554 16.5625 67.25 C17.5525 67.25 18.5425 67.25 19.5625 67.25 C19.5625 67.91 19.5625 68.57 19.5625 69.25 C17.875 70 17.875 70 15.5625 70.25 C11.58505223 67.78777043 9.88593606 65.68420457 8.5625 61.25 C8.40766144 58.36015748 8.35296217 55.5730248 8.40234375 52.6875 C8.40754532 51.85976074 8.41274689 51.03202148 8.41810608 50.17919922 C8.43585632 47.5359512 8.46694319 44.89309742 8.5 42.25 C8.67908952 28.52764814 8.67908952 28.52764814 8.31640625 14.8125 C8.26943604 13.84441406 8.22246582 12.87632812 8.17407227 11.87890625 C7.39340881 8.52314415 5.8998528 6.74141871 3.5625 4.25 C0.08225909 2.50987954 -3.63212328 2.80420884 -7.4375 3.25 C-12.3451901 5.65376658 -15.80448318 9.50401824 -19.5078125 13.4453125 C-21.40259239 15.21735361 -23.06892422 16.22888067 -25.4375 17.25 C-25.1075 15.93 -24.7775 14.61 -24.4375 13.25 C-23.7775 13.25 -23.1175 13.25 -22.4375 13.25 C-22.06625 12.2909375 -22.06625 12.2909375 -21.6875 11.3125 C-20.4375 9.25 -20.4375 9.25 -18.3125 8.5 C-17.384375 8.37625 -17.384375 8.37625 -16.4375 8.25 C-16.4375 7.26 -16.4375 6.27 -16.4375 5.25 C-10.52031692 1.8530986 -6.91527299 0.05204345 0 0 Z " fill="#EDEC7E" transform="translate(104.4375,184.75)"/>
<path d="M0 0 C3.97452629 2.42986734 6.88343009 5.56551106 10 9 C10.99659265 10.04498059 11.99536811 11.08788294 12.99609375 12.12890625 C21.266274 20.8528486 21.266274 20.8528486 23 25 C19.02191941 23.63628854 16.32168326 21.85363833 13.1875 19.0625 C12.39730469 18.37285156 11.60710937 17.68320312 10.79296875 16.97265625 C9 15 9 15 9 12 C8.21625 11.9175 7.4325 11.835 6.625 11.75 C5.325625 11.37875 5.325625 11.37875 4 11 C3.30062468 9.68352881 2.63270867 8.34977849 2 7 C-0.05000871 6.19471111 -0.05000871 6.19471111 -2 6 C-2 5.34 -2 4.68 -2 4 C-5.96 4.66 -9.92 5.32 -14 6 C-14 7.32 -14 8.64 -14 10 C-17.21428571 13 -17.21428571 13 -20 13 C-19.98782225 20.4888945 -19.98782225 20.4888945 -16.6875 26.9375 C-15.800625 27.618125 -14.91375 28.29875 -14 29 C-10.10810811 32.67567568 -10.10810811 32.67567568 -9 36 C-8.0409375 36.185625 -8.0409375 36.185625 -7.0625 36.375 C-6.381875 36.58125 -5.70125 36.7875 -5 37 C-4.28752268 38.6476038 -3.62599617 40.31763529 -3 42 C-0.97959252 44.27191416 -0.97959252 44.27191416 1 46 C-2 46 -2 46 -4.23657227 44.13574219 C-5.51359009 42.85425293 -5.51359009 42.85425293 -6.81640625 41.546875 C-7.74517578 40.61746094 -8.67394531 39.68804687 -9.63085938 38.73046875 C-10.11192139 38.2411084 -10.5929834 37.75174805 -11.08862305 37.24755859 C-12.55174009 35.7609328 -14.02762559 34.28798466 -15.50585938 32.81640625 C-25 23.24969054 -25 23.24969054 -25 17.3125 C-23.96652414 10.80768135 -19.97677644 5.92971034 -15.375 1.4375 C-10.13552178 -0.79412961 -5.57991467 -1.25176793 0 0 Z " fill="#ECEA72" transform="translate(58,32)"/>
<path d="M0 0 C0.33 0 0.66 0 1 0 C1.62334158 9.73105464 1.62334158 9.73105464 -0.75 14.5625 C-3.62282262 17.67472451 -5.5208399 18.85069649 -9.7588501 19.2784729 C-10.81586121 19.29179657 -11.87287231 19.30512024 -12.96191406 19.31884766 C-14.16285706 19.33871735 -15.36380005 19.35858704 -16.60113525 19.37905884 C-17.89291687 19.39061005 -19.18469849 19.40216125 -20.515625 19.4140625 C-21.85513495 19.43277987 -23.19463318 19.45235371 -24.53411865 19.4727478 C-28.05213503 19.52401524 -31.57018962 19.56366952 -35.08837891 19.60089111 C-38.68141082 19.64096474 -42.27428454 19.69204171 -45.8671875 19.7421875 C-52.91134242 19.83888278 -59.9555966 19.9233079 -67 20 C-67.24230347 21.90362305 -67.24230347 21.90362305 -67.48950195 23.84570312 C-67.58036575 24.55956177 -67.67122955 25.27342041 -67.7648468 26.00891113 C-68.547218 32.63340357 -68.14771418 38.66989505 -66 45 C-65.01 45.33 -64.02 45.66 -63 46 C-63.33 46.66 -63.66 47.32 -64 48 C-67.87896695 46.21777194 -69.9813166 44.3525715 -71.49609375 40.29296875 C-72.87737021 34.00762546 -72.84561779 27.4522916 -70.75 21.375 C-68.57299147 18.42048842 -66.92535636 16.29924728 -63.12878418 15.70916748 C-60.74357423 15.57194627 -58.37353627 15.53260366 -55.984375 15.5234375 C-55.09574768 15.50785797 -54.20712036 15.49227844 -53.29156494 15.47622681 C-50.44438712 15.42876036 -47.59744719 15.40104372 -44.75 15.375 C-41.03636406 15.32610251 -37.32286341 15.26993531 -33.609375 15.2109375 C-32.70586304 15.1966571 -31.80235107 15.18237671 -30.87145996 15.16766357 C-25.20589951 15.06766195 -19.54902388 14.90761105 -13.890625 14.6015625 C-12.64829102 14.53533691 -11.40595703 14.46911133 -10.12597656 14.40087891 C-7.22163503 14.02842274 -5.43540916 13.57657652 -3 12 C-0.42222525 8.47251876 -0.42237688 4.22376877 0 0 Z " fill="#F1EB8A" transform="translate(74,96)"/>
<path d="M0 0 C1.03769531 -0.01417969 2.07539063 -0.02835938 3.14453125 -0.04296875 C6.1875 0.1875 6.1875 0.1875 8.578125 1.1953125 C12.09957403 2.53430659 15.42055857 2.36350656 19.125 2.25 C23.92821358 2.12891058 28.45515643 2.23214426 33.1875 3.1875 C33.1875 3.5175 33.1875 3.8475 33.1875 4.1875 C32.09920898 4.21255615 31.01091797 4.2376123 29.88964844 4.26342773 C25.7967841 4.3586166 21.70404628 4.45855055 17.61132812 4.55981445 C15.85029082 4.60274697 14.08922292 4.64444497 12.328125 4.68481445 C2.5834667 4.90905233 -7.10907154 5.1874628 -16.8125 6.1875 C-18.64239471 13.50797893 -18.86519369 19.70483943 -17.8125 27.1875 C-17.1525 27.1875 -16.4925 27.1875 -15.8125 27.1875 C-15.4825 28.5075 -15.1525 29.8275 -14.8125 31.1875 C-14.1525 31.1875 -13.4925 31.1875 -12.8125 31.1875 C-12.1525 33.1675 -11.4925 35.1475 -10.8125 37.1875 C-11.4725 36.8575 -12.1325 36.5275 -12.8125 36.1875 C-12.8125 35.5275 -12.8125 34.8675 -12.8125 34.1875 C-13.740625 34.0946875 -13.740625 34.0946875 -14.6875 34 C-15.38875 33.731875 -16.09 33.46375 -16.8125 33.1875 C-17.51461894 31.53545544 -18.18221413 29.86826231 -18.8125 28.1875 C-19.8025 27.8575 -20.7925 27.5275 -21.8125 27.1875 C-21.8125 26.5275 -21.8125 25.8675 -21.8125 25.1875 C-22.4725 25.1875 -23.1325 25.1875 -23.8125 25.1875 C-23.91402799 18.4189676 -23.84276944 11.88425136 -22.8125 5.1875 C-22.008125 4.878125 -21.20375 4.56875 -20.375 4.25 C-17.92169595 3.42414655 -17.92169595 3.42414655 -16.8125 2.1875 C-15.33853261 1.97981771 -13.8575874 1.82033983 -12.375 1.6875 C-8.00157876 1.29438348 -4.46220028 0.02751048 0 0 Z " fill="#F0ED51" transform="translate(204.8125,138.8125)"/>
<path d="M0 0 C0.33 0 0.66 0 1 0 C1.82164647 7.77629693 2.05585407 15.43880772 2 23.25 C1.9137561 35.51819421 2.4219619 47.74743709 3 60 C3.99 60 4.98 60 6 60 C6.66 60.99 7.32 61.98 8 63 C11.58556871 63.31178858 14.5603481 62.93808688 18 62 C21.465 61.505 21.465 61.505 25 61 C25.33 47.47 25.66 33.94 26 20 C26.33 20 26.66 20 27 20 C27.14836451 25.76567303 27.25722333 31.53023468 27.32958984 37.29736328 C27.35975617 39.25882317 27.40069608 41.22014824 27.45263672 43.18115234 C27.52546116 46.00131462 27.55945652 48.81969385 27.5859375 51.640625 C27.61690521 52.51680481 27.64787292 53.39298462 27.67977905 54.29571533 C27.68109422 56.67698748 27.61902522 58.70006385 27 61 C23.86458659 63.84470927 22.25060647 65 18 65 C18 65.66 18 66.32 18 67 C13.38 67 8.76 67 4 67 C4.99 66.505 4.99 66.505 6 66 C6 65.34 6 64.68 6 64 C5.01 64 4.02 64 3 64 C0.28331263 58.80285894 -1.12389929 54.97417246 -1.12939453 49.12719727 C-1.13254669 48.162621 -1.13569885 47.19804474 -1.13894653 46.20423889 C-1.1369223 45.16875412 -1.13489807 44.13326935 -1.1328125 43.06640625 C-1.13376923 41.99631821 -1.13472595 40.92623016 -1.13571167 39.82371521 C-1.13639184 37.56175681 -1.13454889 35.29979644 -1.13037109 33.0378418 C-1.12502584 29.57921958 -1.13031892 26.12072753 -1.13671875 22.66210938 C-1.13605784 20.46354138 -1.1347764 18.26497347 -1.1328125 16.06640625 C-1.13483673 15.03294571 -1.13686096 13.99948517 -1.13894653 12.93470764 C-1.13579437 11.96697922 -1.13264221 10.99925079 -1.12939453 10.00219727 C-1.12859894 9.15488541 -1.12780334 8.30757355 -1.12698364 7.43458557 C-0.99346015 4.87461507 -0.56180096 2.49813045 0 0 Z " fill="#EFEC5A" transform="translate(118,188)"/>
<path d="M0 0 C4.21124988 -0.24772058 7.8802497 -0.41382076 11.875 1.0625 C15.39776013 4.27442836 16.77672473 7.56973458 17.203125 12.2109375 C17.03908773 17.01722954 15.93055945 19.54223437 12.5 22.9375 C11.8709375 23.48277344 11.241875 24.02804688 10.59375 24.58984375 C8.87950676 25.92972586 8.87950676 25.92972586 8 28 C7.34 28 6.68 28 6 28 C5.9071875 29.0828125 5.9071875 29.0828125 5.8125 30.1875 C3.9884858 36.50139531 -3.53424563 41.60712564 -9 45 C-10.32 45 -11.64 45 -13 45 C-13.226875 45.556875 -13.45375 46.11375 -13.6875 46.6875 C-15.35896766 49.63246684 -17.55276352 51.68156544 -20 54 C-20.66 53.67 -21.32 53.34 -22 53 C-13.43288132 43.79387385 -4.82868344 34.65635454 4.21313477 25.91186523 C8.375552 21.83188344 11.68751487 18.49988104 12.4375 12.5 C11.90978356 8.27826848 11.19722868 6.7975751 8 4 C5.32227982 3.01885062 2.82545894 2.51800081 0 2 C0 1.34 0 0.68 0 0 Z " fill="#EBE795" transform="translate(61,143)"/>
<path d="M0 0 C0.99 0.33 1.98 0.66 3 1 C2.195625 1.886875 1.39125 2.77375 0.5625 3.6875 C-1.72233201 6.48658195 -3 8.27099036 -3 12 C-2.29124323 15.13034242 -1.48569045 18.14653105 0 21 C0.99 21.33 1.98 21.66 3 22 C3 22.66 3 23.32 3 24 C4.05782684 24.00879936 4.05782684 24.00879936 5.13702393 24.01777649 C11.7876921 24.07571462 18.43803959 24.14779735 25.08838272 24.23571491 C28.50730272 24.28041555 31.92610365 24.31967187 35.34521484 24.34643555 C39.2772773 24.37745412 43.20883626 24.43224353 47.140625 24.48828125 C48.36678528 24.49467117 49.59294556 24.5010611 50.85626221 24.50764465 C52.56758331 24.53733589 52.56758331 24.53733589 54.31347656 24.56762695 C55.31719299 24.57873001 56.32090942 24.58983307 57.3550415 24.60127258 C60.36391068 25.05485952 61.7583402 25.99226067 64 28 C63.67 28.66 63.34 29.32 63 30 C62.18249016 29.51388245 62.18249016 29.51388245 61.34846497 29.01794434 C58.54436002 27.80250242 56.47736018 27.73554347 53.42456055 27.71289062 C52.30627365 27.69947632 51.18798676 27.68606201 50.03581238 27.67224121 C48.22951103 27.66432556 48.22951103 27.66432556 46.38671875 27.65625 C45.14380569 27.6416272 43.90089264 27.62700439 42.62031555 27.61193848 C38.64276232 27.56540298 34.66519708 27.5308451 30.6875 27.5 C25.46207545 27.45936167 20.23694314 27.40508284 15.01171875 27.34375 C13.21452644 27.33583435 13.21452644 27.33583435 11.38102722 27.32775879 C5.59106863 27.25888826 0.41065572 27.17835303 -5 25 C-8.27894253 19.84088821 -7.76106379 12.86998707 -7 7 C-4.625 3.8125 -4.625 3.8125 -2 2 C-1.34 1.34 -0.68 0.68 0 0 Z " fill="#F3F074" transform="translate(190,88)"/>
<path d="M0 0 C0 0.66 0 1.32 0 2 C-0.61488281 2.12117188 -1.22976562 2.24234375 -1.86328125 2.3671875 C-2.67152344 2.53476562 -3.47976562 2.70234375 -4.3125 2.875 C-5.11300781 3.03742187 -5.91351563 3.19984375 -6.73828125 3.3671875 C-9.25301118 3.94478999 -9.25301118 3.94478999 -12 6 C-12 4.68 -12 3.36 -12 2 C-7.8794254 0.00214565 -4.54805635 -0.17835515 0 0 Z M-14 6 C-13.34 6.33 -12.68 6.66 -12 7 C-12.495 7.37125 -12.99 7.7425 -13.5 8.125 C-15.59755514 10.74694393 -15.21743835 12.73842472 -15 16 C-14.01 16.33 -13.02 16.66 -12 17 C-11.95875 18.0725 -11.9175 19.145 -11.875 20.25 C-11.37856376 24.18524402 -11.37856376 24.18524402 -8.1875 26.125 C-7.135625 26.74375 -6.08375 27.3625 -5 28 C-1 32.21052632 -1 32.21052632 -1 37 C0.36125 37.0928125 0.36125 37.0928125 1.75 37.1875 C5.76881884 38.19220471 6.6763194 39.68045629 9 43 C9.66 43.33 10.32 43.66 11 44 C11.625 46.0625 11.625 46.0625 12 48 C7.10832797 47.58071383 5.23375968 45.55713565 2 42 C1.071875 41.154375 0.14375 40.30875 -0.8125 39.4375 C-3 37 -3 37 -3 33 C-4.1446875 32.9071875 -4.1446875 32.9071875 -5.3125 32.8125 C-8 32 -8 32 -9.6875 29.6875 C-10.47289566 28.07930889 -11.23249175 26.45751926 -11.9375 24.8125 C-13.2744148 22.53188063 -14.60169394 22.00574125 -17 21 C-18.73478558 19.26521442 -18.25366416 16.98462677 -18.3125 14.625 C-18.34988281 13.64789063 -18.38726562 12.67078125 -18.42578125 11.6640625 C-18 9 -18 9 -15.98046875 7.1484375 C-15.32691406 6.76945312 -14.67335937 6.39046875 -14 6 Z " fill="#EDED54" transform="translate(56,36)"/>
<path d="M0 0 C0.99 0 1.98 0 3 0 C1.72768281 4.97360357 -0.08584614 7.67296922 -4 11 C-4.66 11 -5.32 11 -6 11 C-6.309375 11.61875 -6.61875 12.2375 -6.9375 12.875 C-7.625 14.25 -8.3125 15.625 -9 17 C-9.09585131 18.64356807 -9.12983511 20.29114642 -9.125 21.9375 C-9.12757812 22.81277344 -9.13015625 23.68804687 -9.1328125 24.58984375 C-9.09822003 27.14459056 -9.09822003 27.14459056 -8 30 C-6.02 30 -4.04 30 -2 30 C-1.67 31.65 -1.34 33.3 -1 35 C-5.60244104 33.42202021 -9.44075456 31.5562351 -12.05078125 27.27734375 C-14.48600085 21.88124041 -14.04574719 17.48779803 -12 12 C-10 9 -10 9 -7.6875 7.6875 C-5.21415379 6.13446866 -4.11653518 5.05387155 -2.375 2.8125 C-1.59125 1.884375 -0.8075 0.95625 0 0 Z " fill="#EFEB5E" transform="translate(48,188)"/>
<path d="M0 0 C0.33 0 0.66 0 1 0 C1.07619033 6.86841714 1.12865885 13.7367249 1.16479492 20.60546875 C1.17986261 22.94112216 1.20032049 25.27674737 1.22631836 27.61230469 C1.26278958 30.97337819 1.2797469 34.33407692 1.29296875 37.6953125 C1.30845261 38.73615997 1.32393646 39.77700745 1.33988953 40.84939575 C1.34114949 46.30178304 1.1855189 50.34228158 -2 55 C-6.71813488 58.29992718 -10.84661788 58.38244295 -16.375 58.1875 C-17.11105469 58.17396484 -17.84710938 58.16042969 -18.60546875 58.14648438 C-20.40396743 58.11144869 -22.20208422 58.05765288 -24 58 C-24 57.67 -24 57.34 -24 57 C-19.38 57 -14.76 57 -10 57 C-10 56.34 -10 55.68 -10 55 C-7.36 53.68 -4.72 52.36 -2 51 C-1.9845388 50.0637252 -1.9845388 50.0637252 -1.96876526 49.10853577 C-1.86093467 42.63645448 -1.74631853 36.16451907 -1.62768555 29.69262695 C-1.58426122 27.27436361 -1.54259188 24.8560681 -1.50268555 22.43774414 C-1.44516397 18.97011604 -1.38141813 15.50265097 -1.31640625 12.03515625 C-1.29969376 10.94662857 -1.28298126 9.85810089 -1.26576233 8.73658752 C-1.24581711 7.73562546 -1.22587189 6.73466339 -1.20532227 5.70336914 C-1.18977798 4.81734512 -1.1742337 3.93132111 -1.15821838 3.01844788 C-1 1 -1 1 0 0 Z " fill="#E3DF7A" transform="translate(146,198)"/>
<path d="M0 0 C0 0.66 0 1.32 0 2 C0.928125 2.0825 1.85625 2.165 2.8125 2.25 C6 3 6 3 7.6809082 4.69433594 C9.31597342 7.55229558 9.34529461 9.36153759 9.29296875 12.640625 C9.28330078 13.71054687 9.27363281 14.78046875 9.26367188 15.8828125 C9.23853516 16.99398438 9.21339844 18.10515625 9.1875 19.25 C9.16719727 20.93996094 9.16719727 20.93996094 9.14648438 22.6640625 C9.11115645 25.44319264 9.0618252 28.22135363 9 31 C6.81257986 27.7188698 6.45557194 25.66915644 5.875 21.8125 C5.70742187 20.72582031 5.53984375 19.63914062 5.3671875 18.51953125 C5.24601562 17.68808594 5.12484375 16.85664063 5 16 C4.34 16.66 3.68 17.32 3 18 C3 13.71 3 9.42 3 5 C2.34 5 1.68 5 1 5 C1 4.34 1 3.68 1 3 C0.34 3 -0.32 3 -1 3 C-1 2.34 -1 1.68 -1 1 C-2.4800841 1.11362262 -3.95910074 1.24122908 -5.4375 1.375 C-6.67306641 1.47941406 -6.67306641 1.47941406 -7.93359375 1.5859375 C-8.95646484 1.79089844 -8.95646484 1.79089844 -10 2 C-10.33 2.66 -10.66 3.32 -11 4 C-13.64860427 4.59355614 -16.29197322 4.74209269 -19 5 C-19 4.34 -19 3.68 -19 3 C-12.47059106 0.04328652 -7.12600133 -0.35368021 0 0 Z " fill="#E7E36C" transform="translate(138,3)"/>
<path d="M0 0 C3.14191424 1.53604696 6.08596738 3.05731159 9 5 C9 6.32 9 7.64 9 9 C9.598125 9.061875 10.19625 9.12375 10.8125 9.1875 C13.92266847 10.34270543 14.60417708 12.06877187 16 15 C16 15.99 16 16.98 16 18 C17.95764383 18.19456705 19.91615321 18.38044247 21.875 18.5625 C22.96554688 18.66691406 24.05609375 18.77132812 25.1796875 18.87890625 C27.95152023 19.22639404 27.95152023 19.22639404 30 18 C32.6723621 17.86584528 35.32250488 17.95681459 38 18 C38 18.66 38 19.32 38 20 C36.44033782 20.508783 34.87710759 21.00663469 33.3125 21.5 C32.44238281 21.7784375 31.57226562 22.056875 30.67578125 22.34375 C28.00608323 22.99850805 25.73603316 23.11831495 23 23 C23 22.34 23 21.68 23 21 C21.948125 20.938125 20.89625 20.87625 19.8125 20.8125 C15.16383663 19.82180125 14.09426773 18.5470874 11 15 C9.62955188 13.66198852 8.25421622 12.32897155 6.875 11 C4.07605289 8.20105289 1.70460209 5.62227945 0 2 C0 1.34 0 0.68 0 0 Z " fill="#EFED59" transform="translate(182,198)"/>
<path d="M0 0 C0.33 0 0.66 0 1 0 C1.79997078 4.2358912 2.13255839 8.26233038 2.17578125 12.5703125 C2.19962891 13.79621094 2.22347656 15.02210937 2.24804688 16.28515625 C2.29114388 18.85269306 2.32232399 21.4204566 2.34179688 23.98828125 C2.36951172 25.21160156 2.39722656 26.43492188 2.42578125 27.6953125 C2.44036377 28.80922363 2.45494629 29.92313477 2.4699707 31.07080078 C3.11019424 34.60898687 4.35658519 35.67037775 7 38 C7 38.66 7 39.32 7 40 C7.66 40.33 8.32 40.66 9 41 C4.78284874 40.51340562 1.63120223 38.21607589 -1 35 C-4.12404347 27.72615229 -2.66523877 20.01698167 -1.625 12.4375 C-1.47289062 11.23802734 -1.32078125 10.03855469 -1.1640625 8.80273438 C-0.78971298 5.86643032 -0.40140836 2.93270607 0 0 Z " fill="#EEEE60" transform="translate(145,35)"/>
<path d="M0 0 C3.28075879 2.05047424 5.38218587 3.48226482 6.85546875 7.1015625 C7.3817966 10.90350723 7.04839805 13.5555949 4.74609375 16.72753906 C1.27624794 20.76047389 -2.57143516 25.0128509 -7 28 C-7.99 28 -8.98 28 -10 28 C-9.84917969 29.07314453 -9.84917969 29.07314453 -9.6953125 30.16796875 C-10.12768953 34.18685785 -11.99328111 35.55731551 -14.875 38.3125 C-15.77992188 39.19550781 -16.68484375 40.07851562 -17.6171875 40.98828125 C-20 43 -20 43 -22 43 C-22.28875 43.639375 -22.5775 44.27875 -22.875 44.9375 C-24 47 -24 47 -26 48 C-25.125 43.25 -25.125 43.25 -24 41 C-22.68 41 -21.36 41 -20 41 C-19.9175 40.38125 -19.835 39.7625 -19.75 39.125 C-19 37 -19 37 -17 35.875 C-16.34 35.58625 -15.68 35.2975 -15 35 C-14.67 34.34 -14.34 33.68 -14 33 C-13.34 33 -12.68 33 -12 33 C-11.67 31.02 -11.34 29.04 -11 27 C-10.01 27 -9.02 27 -8 27 C-7.79375 26.443125 -7.5875 25.88625 -7.375 25.3125 C-5.80831699 22.67762403 -3.83367534 21.24156317 -1.46484375 19.34765625 C1.74554218 16.39410119 2.8668909 13.10924248 3.375 8.875 C2.95607915 5.6632735 2.07165788 4.41693419 0 2 C0 1.34 0 0.68 0 0 Z " fill="#EEEC62" transform="translate(219,40)"/>
<path d="M0 0 C2.82399102 2.7012088 3.88140013 4.15285807 4.4375 8.125 C3.66374486 14.97825985 -0.76999665 19.21892998 -5.9375 23.5 C-8.72865807 25.44213661 -10.11018983 26.01933155 -13.5625 26.625 C-18.72312747 25.6867041 -22.44109368 23.81034282 -25.9375 19.75 C-26.4634375 18.88375 -26.4634375 18.88375 -27 18 C-22.545 18.99 -22.545 18.99 -18 20 C-18 20.66 -18 21.32 -18 22 C-7.61460468 20.36703255 -7.61460468 20.36703255 0.5 14.5 C2.08791491 10.79486521 2.09923397 10.52301074 1 7 C0.6503582 4.66905466 0.31445513 2.33595238 0 0 Z " fill="#E3DE7C" transform="translate(223,199)"/>
<path d="M0 0 C0.66 0.33 1.32 0.66 2 1 C2 1.66 2 2.32 2 3 C2.556875 3.226875 3.11375 3.45375 3.6875 3.6875 C6.66159588 5.37550036 8.72008865 7.46676517 11 10 C11 10.66 11 11.32 11 12 C11.86625 11.979375 12.7325 11.95875 13.625 11.9375 C18.14003663 13.35890042 18.97457599 15.5681793 21.34375 19.5 C24.01427603 23.53098269 27.47619911 26.71767785 31 30 C30.67 30.66 30.34 31.32 30 32 C25.47526042 27.47526042 20.95052083 22.95052083 16.42578125 18.42578125 C15.65282715 17.65331055 14.87987305 16.88083984 14.08349609 16.08496094 C12.44661518 14.44692919 10.81425114 12.80438361 9.18359375 11.16015625 C3.25653744 4.87540855 3.25653744 4.87540855 -4.44140625 1.63671875 C-8.1352909 1.91056522 -10.41388433 2.579199 -13.4375 4.75 C-15.06675314 7.09612453 -16.09827158 9.29481475 -17 12 C-17.33 12 -17.66 12 -18 12 C-18.51972221 7.58236118 -18.49909217 5.65159255 -15.75 2.0625 C-11.18544353 -1.28410991 -5.37626475 -0.56338104 0 0 Z " fill="#EDE984" transform="translate(165,185)"/>
<path d="M0 0 C0.9796875 -0.00257813 1.959375 -0.00515625 2.96875 -0.0078125 C5.5 0.125 5.5 0.125 7.5 1.125 C7.5 1.785 7.5 2.445 7.5 3.125 C8.985 3.62 8.985 3.62 10.5 4.125 C12.78260444 8.15269236 12.58170249 11.41614532 12.125 15.9375 C12.01414063 17.09894531 11.90328125 18.26039063 11.7890625 19.45703125 C11.69367188 20.33746094 11.59828125 21.21789062 11.5 22.125 C11.17 22.125 10.84 22.125 10.5 22.125 C10.47421875 21.24457031 10.4484375 20.36414063 10.421875 19.45703125 C10.36515625 18.29558594 10.3084375 17.13414062 10.25 15.9375 C10.20359375 14.78894531 10.1571875 13.64039063 10.109375 12.45703125 C9.40517707 8.60651307 8.20313907 6.9043554 5.5 4.125 C2.01975909 2.38487954 -1.69462328 2.67920884 -5.5 3.125 C-10.4076901 5.52876658 -13.86698318 9.37901824 -17.5703125 13.3203125 C-19.46509239 15.09235361 -21.13142422 16.10388067 -23.5 17.125 C-23.17 15.805 -22.84 14.485 -22.5 13.125 C-21.84 13.125 -21.18 13.125 -20.5 13.125 C-20.12875 12.1659375 -20.12875 12.1659375 -19.75 11.1875 C-18.5 9.125 -18.5 9.125 -16.375 8.375 C-15.446875 8.25125 -15.446875 8.25125 -14.5 8.125 C-14.5 7.135 -14.5 6.145 -14.5 5.125 C-5.54715227 -0.01459777 -5.54715227 -0.01459777 0 0 Z " fill="#EAE88F" transform="translate(102.5,184.875)"/>
<path d="M0 0 C7.72291745 -0.07613917 15.44573788 -0.12863758 23.16894531 -0.16479492 C25.79560971 -0.1798702 28.42224899 -0.20033366 31.04882812 -0.22631836 C34.82688604 -0.26275576 38.60461077 -0.27973938 42.3828125 -0.29296875 C43.55490265 -0.30845261 44.7269928 -0.32393646 45.93460083 -0.33988953 C52.68840396 -0.3412799 57.21170104 0.15877578 62.75 4.3125 C66.329843 9.14528806 66.19766352 14.26775792 66 20 C65.34 20 64.68 20 64 20 C63.94392578 19.00419922 63.94392578 19.00419922 63.88671875 17.98828125 C63.39660619 11.00716451 63.39660619 11.00716451 60 5 C56.73554687 2.82369792 55.75112416 2.74028152 51.96533203 2.69702148 C50.94061798 2.68037949 49.91590393 2.66373749 48.86013794 2.64659119 C47.20073685 2.63396996 47.20073685 2.63396996 45.5078125 2.62109375 C44.36972137 2.60409927 43.23163025 2.5871048 42.05905151 2.56959534 C38.41442442 2.5163858 34.7698083 2.47615197 31.125 2.4375 C27.48739284 2.39352576 23.84987263 2.34674092 20.21237183 2.29469299 C17.94756581 2.26283137 15.68268368 2.23591192 13.41775513 2.21446228 C12.38673676 2.20097244 11.35571838 2.1874826 10.29345703 2.17358398 C9.38983429 2.16407211 8.48621155 2.15456024 7.5552063 2.14476013 C4.95419287 1.99740489 2.53853129 1.57244543 0 1 C0 0.67 0 0.34 0 0 Z " fill="#ECE598" transform="translate(193,111)"/>
<path d="M0 0 C16.30427892 -0.76426307 16.30427892 -0.76426307 23 4 C25.03704624 6.69415793 25.93501321 8.80503962 27 12 C27.99 12.33 28.98 12.66 30 13 C28.68 13.33 27.36 13.66 26 14 C25.9175 13.38125 25.835 12.7625 25.75 12.125 C25.20746992 9.85973865 25.20746992 9.85973865 23.1875 8.9375 C22.465625 8.628125 21.74375 8.31875 21 8 C18.75 6.5 18.75 6.5 17 5 C17 4.34 17 3.68 17 3 C14.77191841 2.89146017 12.54230068 2.81416693 10.3125 2.75 C9.07113281 2.70359375 7.82976562 2.6571875 6.55078125 2.609375 C2.40911836 3.06500348 0.79429469 3.94440676 -2 7 C-2.45304091 9.03074872 -2.45304091 9.03074872 -2.0625 11.0625 C-2.041875 12.361875 -2.02125 13.66125 -2 15 C-3.99609375 16.74609375 -3.99609375 16.74609375 -6 18 C-5.94011859 15.87420987 -5.85137256 13.74921587 -5.75 11.625 C-5.70359375 10.44164062 -5.6571875 9.25828125 -5.609375 8.0390625 C-5.40828125 7.03617188 -5.2071875 6.03328125 -5 5 C-3.015625 3.7734375 -3.015625 3.7734375 -1 3 C-0.67 2.01 -0.34 1.02 0 0 Z " fill="#EFEE62" transform="translate(150,183)"/>
<path d="M0 0 C0.66 0 1.32 0 2 0 C2.350625 0.680625 2.70125 1.36125 3.0625 2.0625 C6.15137751 6.74563687 10.96947039 10.4847352 16 13 C16.33 13.99 16.66 14.98 17 16 C18.76571027 17.45536291 18.76571027 17.45536291 20.875 18.8125 C24.53445878 21.42920977 26.36843866 23.71715149 28 28 C22.25 26.375 22.25 26.375 20 23 C19.01 23 18.02 23 17 23 C16.67 22.01 16.34 21.02 16 20 C15.34 19.67 14.68 19.34 14 19 C14 18.34 14 17.68 14 17 C13.01 16.67 12.02 16.34 11 16 C10.5978125 14.824375 10.5978125 14.824375 10.1875 13.625 C8.57715239 10.06528423 6.44384148 9.65017404 3 8 C1.75 5.875 1.75 5.875 1 4 C0.34 3.67 -0.32 3.34 -1 3 C-0.67 2.01 -0.34 1.02 0 0 Z " fill="#F0ED52" transform="translate(65,44)"/>
<path d="M0 0 C2.46800047 1.15173355 4.04783565 2.04783565 6 4 C8.31765729 4.71927295 10.65095874 5.3909893 13 6 C13 6.66 13 7.32 13 8 C13.639375 8.309375 14.27875 8.61875 14.9375 8.9375 C17 10 17 10 18 11 C19.158478 18.90553972 19.92358659 25.85346727 16 33 C14.515 33.495 14.515 33.495 13 34 C14.875 29.125 14.875 29.125 16 28 C16.23363881 26.15108054 16.41303635 24.29511969 16.5625 22.4375 C16.64628906 21.42558594 16.73007813 20.41367188 16.81640625 19.37109375 C16.90728516 18.19740234 16.90728516 18.19740234 17 17 C16.34 17 15.68 17 15 17 C13.5546875 15.53125 13.5546875 15.53125 11.875 13.5 C8.60638428 9.6395928 5.13397576 6.08626492 1.50390625 2.56640625 C0 1 0 1 0 0 Z " fill="#F1EE77" transform="translate(58,79)"/>
<path d="M0 0 C0.350625 0.639375 0.70125 1.27875 1.0625 1.9375 C3.77184206 4.82163832 6.15858911 4.7100822 10 5 C10.33 6.65 10.66 8.3 11 10 C15.58625609 9.45401713 18.95174647 8.20013779 23 6 C24.33333333 5.33333333 25.66666667 4.66666667 27 4 C25.71076872 7.86769385 24.38797758 8.74134828 21 11 C17.01464735 12.65007584 13.33587666 14 9 14 C8.67 12.35 8.34 10.7 8 9 C6.02 9 4.04 9 2 9 C2 8.34 2 7.68 2 7 C1.34 6.67 0.68 6.34 0 6 C0 4.02 0 2.04 0 0 Z " fill="#EFEE4F" transform="translate(38,209)"/>
<path d="M0 0 C-0.50423306 5.882719 -3.90070251 8.2075517 -8.19140625 11.87109375 C-14.4554829 17 -14.4554829 17 -19 17 C-19.226875 17.556875 -19.45375 18.11375 -19.6875 18.6875 C-21.35896766 21.63246684 -23.55276352 23.68156544 -26 26 C-26.66 25.67 -27.32 25.34 -28 25 C-26.44523615 23.22183318 -24.88183976 21.45272898 -23.3125 19.6875 C-22.44238281 18.70136719 -21.57226562 17.71523437 -20.67578125 16.69921875 C-18.21537568 14.21726218 -16.03656315 12.66958799 -13 11 C-12.443125 10.443125 -11.88625 9.88625 -11.3125 9.3125 C-10.879375 8.879375 -10.44625 8.44625 -10 8 C-9.34 8 -8.68 8 -8 8 C-7.7525 7.4225 -7.505 6.845 -7.25 6.25 C-5.58207452 3.24773413 -3.67725381 0 0 0 Z " fill="#EEEB80" transform="translate(67,171)"/>
<path d="M0 0 C-3.20782685 0.338329 -6.41633098 0.66976146 -9.625 1 C-10.52863281 1.09539062 -11.43226563 1.19078125 -12.36328125 1.2890625 C-16.93063039 1.75579891 -21.40117188 2.12222799 -26 2 C-27.700773 8.73281213 -28.10765663 14.13252891 -27 21 C-29.0078125 19.38671875 -29.0078125 19.38671875 -31 17 C-31.2421875 14.01953125 -31.2421875 14.01953125 -30.875 10.8125 C-30.71644531 9.21341797 -30.71644531 9.21341797 -30.5546875 7.58203125 C-30.37164062 6.72996094 -30.18859375 5.87789062 -30 5 C-29.34 4.67 -28.68 4.34 -28 4 C-27.71769531 3.34515625 -27.43539062 2.6903125 -27.14453125 2.015625 C-26 0 -26 0 -24.07421875 -0.828125 C-6.02716688 -4.01811125 -6.02716688 -4.01811125 0 0 Z " fill="#F0EB60" transform="translate(214,143)"/>
<path d="M0 0 C0.66 0.33 1.32 0.66 2 1 C-0.27594829 4.98290951 -2.35022738 7.42015916 -6.125 10.0625 C-9.461322 12.4121094 -10.78581031 14.02628829 -12 18 C-15 20 -15 20 -18 20 C-18.66 21.32 -19.32 22.64 -20 24 C-20.66 23.67 -21.32 23.34 -22 23 C-20.87970983 21.51726301 -19.75361382 20.03891114 -18.625 18.5625 C-17.99851563 17.73878906 -17.37203125 16.91507813 -16.7265625 16.06640625 C-15 14 -15 14 -13 13 C-11.9935725 11.33720673 -10.99414593 9.67016516 -10 8 C-7.71326532 5.29749538 -5.03209607 3.78815922 -2 2 C-1.34 1.34 -0.68 0.68 0 0 Z " fill="#EFEE58" transform="translate(187,52)"/>
<path d="M0 0 C3.10347722 1.14943601 4.26941338 2.32467766 6.4375 4.9375 C8.70288956 8.00206505 8.70288956 8.00206505 11.265625 9.3046875 C14.79411447 11.49235097 17.4353911 14.21949823 20.3125 17.1875 C20.86228516 17.74630859 21.41207031 18.30511719 21.97851562 18.88085938 C23.32363696 20.24937412 24.66246643 21.62406833 26 23 C20.4073917 23 16.8287334 19.12727835 12.875 15.5 C12.02679688 14.7265625 11.17859375 13.953125 10.3046875 13.15625 C9.54414063 12.4446875 8.78359375 11.733125 8 11 C7.40445313 10.4534375 6.80890625 9.906875 6.1953125 9.34375 C5 8 5 8 5 6 C4.34 6 3.68 6 3 6 C2.67 4.68 2.34 3.36 2 2 C1.34 2 0.68 2 0 2 C0 1.34 0 0.68 0 0 Z " fill="#E6E777" transform="translate(187,164)"/>
<path d="M0 0 C1.15628906 -0.02126953 1.15628906 -0.02126953 2.3359375 -0.04296875 C4.84334888 0.20948393 6.45761902 0.93556533 8.625 2.1875 C6.24184918 3.37907541 4.95175806 3.19557183 2.3125 3.0625 C-1.742489 3.01679159 -4.17913234 3.49098666 -7.375 6.1875 C-7.705 7.1775 -8.035 8.1675 -8.375 9.1875 C-9.99839805 10.89634005 -11.66819053 12.56196717 -13.375 14.1875 C-14.179375 15.0846875 -14.179375 15.0846875 -15 16 C-16.375 17.1875 -16.375 17.1875 -19.375 17.1875 C-19.375 14.1875 -19.375 14.1875 -17 11.5 C-14.375 9.1875 -14.375 9.1875 -12.375 9.1875 C-12.106875 8.548125 -11.83875 7.90875 -11.5625 7.25 C-10.375 5.1875 -10.375 5.1875 -7.375 4.1875 C-7.045 3.1975 -6.715 2.2075 -6.375 1.1875 C-4.04904054 0.02452027 -2.58776769 0.02149309 0 0 Z " fill="#EFEC63" transform="translate(208.375,34.8125)"/>
<path d="M0 0 C0 0.33 0 0.66 0 1 C-3.63 1.33 -7.26 1.66 -11 2 C-11 2.66 -11 3.32 -11 4 C-11.9075 4.391875 -12.815 4.78375 -13.75 5.1875 C-17.43362712 7.24183051 -18.96137145 8.3002667 -21 12 C-21.62058345 15.99468005 -21.87119219 19.96187522 -22 24 C-23.49609375 22.7265625 -23.49609375 22.7265625 -25 21 C-25.12165433 13.94404913 -22.44905176 9.35358711 -18 4 C-12.70917379 -1.16485416 -6.95718831 -0.40527311 0 0 Z " fill="#E9E391" transform="translate(58,32)"/>
<path d="M0 0 C0.99 0.33 1.98 0.66 3 1 C0.30009537 3.75838307 -2.41136814 6.50512567 -5.125 9.25 C-5.88554688 10.02730469 -6.64609375 10.80460938 -7.4296875 11.60546875 C-17.33071793 21.5918529 -17.33071793 21.5918529 -22.5546875 22.390625 C-23.32039063 22.34421875 -24.08609375 22.2978125 -24.875 22.25 C-25.65617187 22.21390625 -26.43734375 22.1778125 -27.2421875 22.140625 C-27.82226562 22.09421875 -28.40234375 22.0478125 -29 22 C-26.31765469 20.2117698 -24.04485923 19.14809618 -21.0625 18 C-16.40350248 16.26614185 -16.40350248 16.26614185 -12 14 C-11.67 13.01 -11.34 12.02 -11 11 C-9.2578125 9.31640625 -9.2578125 9.31640625 -7.125 7.5625 C-4.31138586 5.24204701 -2.09258206 2.99410327 0 0 Z " fill="#E4DF71" transform="translate(76,202)"/>
<path d="M0 0 C0.99 0.33 1.98 0.66 3 1 C2.195625 1.886875 1.39125 2.77375 0.5625 3.6875 C-1.72233201 6.48658195 -3 8.27099036 -3 12 C-2.24881297 15.1059719 -1.3584978 18.10346724 0 21 C0.66 21.33 1.32 21.66 2 22 C2 22.99 2 23.98 2 25 C-0.375 24.75 -0.375 24.75 -3 24 C-5.2056083 20.75285444 -5.37387412 17.60059681 -5.625 13.75 C-5.69976562 12.67234375 -5.77453125 11.5946875 -5.8515625 10.484375 C-5.90054688 9.66453125 -5.94953125 8.8446875 -6 8 C-5.34 8 -4.68 8 -4 8 C-3.896875 7.236875 -3.79375 6.47375 -3.6875 5.6875 C-2.95635961 2.82940576 -2.23048087 1.84257115 0 0 Z " fill="#EBE886" transform="translate(190,88)"/>
<path d="M0 0 C4.21124988 -0.24772058 7.8802497 -0.41382076 11.875 1.0625 C15.39776013 4.27442836 16.77672473 7.56973458 17.203125 12.2109375 C17.03908773 17.01722954 15.93055945 19.54223437 12.5 22.9375 C11.8709375 23.48277344 11.241875 24.02804688 10.59375 24.58984375 C8.87950676 25.92972586 8.87950676 25.92972586 8 28 C7.34 27.67 6.68 27.34 6 27 C6.49371094 26.43152344 6.98742187 25.86304688 7.49609375 25.27734375 C11.38274262 20.59303253 14 17.32519408 14 11 C13.7397104 8.65739357 13.42579972 6.3182429 13 4 C8.49646738 2.24252386 4.82360189 1.80705592 0 2 C0 1.34 0 0.68 0 0 Z " fill="#F1EB77" transform="translate(61,143)"/>
<path d="M0 0 C2.64 0 5.28 0 8 0 C8 0.33 8 0.66 8 1 C6.576875 1.37125 6.576875 1.37125 5.125 1.75 C2.03294039 2.70353647 2.03294039 2.70353647 0.625 4.625 C-0.35878914 8.36339874 -1.05131669 11.25854941 0 15 C2.69821678 18.95134118 5.8228234 22.43243308 9 26 C9.33 26.66 9.66 27.32 10 28 C5.78295862 26.43813282 3.7421201 23.44522782 1 20 C0.4225 19.525625 -0.155 19.05125 -0.75 18.5625 C-2.88007849 15.89990189 -2.83319485 13.33610297 -3 10 C-2.125 6.25 -2.125 6.25 -1 3 C-0.67 2.01 -0.34 1.02 0 0 Z " fill="#E8E28A" transform="translate(188,145)"/>
<path d="M0 0 C0.33 0 0.66 0 1 0 C1.80395025 4.22282518 2.11811363 8.19613764 2.09765625 12.4921875 C2.09443359 13.69101562 2.09121094 14.88984375 2.08789062 16.125 C2.07951172 17.3625 2.07113281 18.6 2.0625 19.875 C2.05798828 21.13570312 2.05347656 22.39640625 2.04882812 23.6953125 C2.0370796 26.79692386 2.02065167 29.89843725 2 33 C1.67 33 1.34 33 1 33 C1 29.04 1 25.08 1 21 C0.34 21 -0.32 21 -1 21 C-2.07558786 16.17113701 -1.81674203 11.95964459 -1.0625 7.125 C-0.96259766 6.43664063 -0.86269531 5.74828125 -0.75976562 5.0390625 C-0.51463547 3.35817003 -0.25845587 1.67889513 0 0 Z " fill="#E8E466" transform="translate(145,35)"/>
<path d="M0 0 C0.83287017 2.86662292 1.0605683 5.27495752 0.9375 8.25 C0.89173483 12.85702728 1.5165426 16.6277045 3 21 C3.99 21.33 4.98 21.66 6 22 C5.67 22.66 5.34 23.32 5 24 C0.99082553 22.15794686 -0.99738663 20.21530233 -2.56640625 16.03125 C-3.73094255 10.57576463 -2.39528228 4.95025004 0 0 Z " fill="#E9E97A" transform="translate(5,120)"/>
<path d="M0 0 C0.99 0.33 1.98 0.66 3 1 C2.03562012 1.70044434 2.03562012 1.70044434 1.05175781 2.41503906 C-1.95906089 6.20829803 -1.7035573 9.63503376 -1.828125 14.359375 C-1.8668573 15.26375305 -1.9055896 16.1681311 -1.94549561 17.09991455 C-2.06486479 19.9828951 -2.15775929 22.86603649 -2.25 25.75 C-2.32638095 27.70710009 -2.40448572 29.66413373 -2.484375 31.62109375 C-2.67624625 36.41352135 -2.84438386 41.20626372 -3 46 C-3.33 46 -3.66 46 -4 46 C-4.18874646 19.72939666 -4.18874646 19.72939666 -3.6875 8.9375 C-3.62949219 7.62652344 -3.57148437 6.31554687 -3.51171875 4.96484375 C-3.25841797 3.49724609 -3.25841797 3.49724609 -3 2 C-2.01 1.34 -1.02 0.68 0 0 Z " fill="#F1EE4F" transform="translate(122,6)"/>
<path d="M0 0 C1 3 1 3 0.875 6.3125 C1.01224358 10.36118568 2.0507567 12.50760575 4 16 C4 16.66 4 17.32 4 18 C5.98 18 7.96 18 10 18 C10.33 19.65 10.66 21.3 11 23 C6.39755896 21.42202021 2.55924544 19.5562351 -0.05078125 15.27734375 C-2.52930733 9.78527936 -1.80839147 5.62032455 0 0 Z " fill="#E6DE7E" transform="translate(36,200)"/>
<path d="M0 0 C1.79158489 -0.02696365 3.58328473 -0.04637917 5.375 -0.0625 C6.37273437 -0.07410156 7.37046875 -0.08570313 8.3984375 -0.09765625 C11 0 11 0 13 1 C13 1.66 13 2.32 13 3 C13.99 3.33 14.98 3.66 16 4 C18.28260444 8.02769236 18.08170249 11.29114532 17.625 15.8125 C17.45871094 17.55466797 17.45871094 17.55466797 17.2890625 19.33203125 C17.19367188 20.21246094 17.09828125 21.09289062 17 22 C16.67 22 16.34 22 16 22 C15.98582031 21.14277344 15.97164062 20.28554687 15.95703125 19.40234375 C15.70657944 10.67447438 15.70657944 10.67447438 11.7421875 3.16796875 C8.23376794 0.81591169 4.1065815 0.94418239 0 1 C0 0.67 0 0.34 0 0 Z " fill="#EFEE96" transform="translate(97,185)"/>
<path d="M0 0 C0.33 1.65 0.66 3.3 1 5 C1.66 5 2.32 5 3 5 C3.66 6.65 4.32 8.3 5 10 C4.01 9.34 3.02 8.68 2 8 C2 7.34 2 6.68 2 6 C0.68 5.67 -0.64 5.34 -2 5 C-2 4.34 -2 3.68 -2 3 C-5.96 3.66 -9.92 4.32 -14 5 C-13.67 4.34 -13.34 3.68 -13 3 C-12.34 3 -11.68 3 -11 3 C-11 2.34 -11 1.68 -11 1 C-7.32589215 -0.17571451 -3.83070817 -0.07366746 0 0 Z " fill="#EFEB6F" transform="translate(58,33)"/>
<path d="M0 0 C1.2065625 0.0309375 1.2065625 0.0309375 2.4375 0.0625 C2.7675 1.0525 3.0975 2.0425 3.4375 3.0625 C5.9125 3.5575 5.9125 3.5575 8.4375 4.0625 C8.1075 4.7225 7.7775 5.3825 7.4375 6.0625 C6.7775 5.7325 6.1175 5.4025 5.4375 5.0625 C2.88592345 4.9908265 0.36277029 4.96941558 -2.1875 5 C-3.24710938 5.00676758 -3.24710938 5.00676758 -4.328125 5.01367188 C-6.07295275 5.02546125 -7.817737 5.04339676 -9.5625 5.0625 C-10.2225 6.3825 -10.8825 7.7025 -11.5625 9.0625 C-12.2225 8.7325 -12.8825 8.4025 -13.5625 8.0625 C-12.5 5.6875 -12.5 5.6875 -10.5625 3.0625 C-6.9375 1.8125 -6.9375 1.8125 -3.5625 1.0625 C-2.5625 0.0625 -2.5625 0.0625 0 0 Z " fill="#EFEE4F" transform="translate(159.5625,178.9375)"/>
<path d="M0 0 C4.2498709 -0.08708752 8.49951239 -0.14042181 12.75 -0.1875 C13.9565625 -0.21263672 15.163125 -0.23777344 16.40625 -0.26367188 C17.56640625 -0.27333984 18.7265625 -0.28300781 19.921875 -0.29296875 C20.99018555 -0.3086792 22.05849609 -0.32438965 23.15917969 -0.34057617 C26.33115522 0.03970106 27.67217242 0.87106908 30 3 C29.67 3.66 29.34 4.32 29 5 C28.42942871 4.67781494 27.85885742 4.35562988 27.27099609 4.02368164 C24.88147911 2.94657514 23.26517806 2.70954192 20.6640625 2.62109375 C19.84679687 2.58693359 19.02953125 2.55277344 18.1875 2.51757812 C17.341875 2.49115234 16.49625 2.46472656 15.625 2.4375 C10.33347721 2.2461911 5.21236806 2.02719305 0 1 C0 0.67 0 0.34 0 0 Z " fill="#F6F081" transform="translate(224,113)"/>
<path d="M0 0 C3.06740944 1.02246981 4.22362894 2.11978164 6.40234375 4.3984375 C9.14526063 7.14806078 12.09566573 9.66728265 15.01171875 12.23046875 C16.37818443 13.44659636 17.70651734 14.70651734 19 16 C12.54782609 15.39130435 12.54782609 15.39130435 10.25 13.75 C9 12 9 12 7.6875 9.5625 C6.07432791 6.75041594 6.07432791 6.75041594 2.8125 4.875 C1.884375 4.25625 0.95625 3.6375 0 3 C0 2.01 0 1.02 0 0 Z " fill="#ECE582" transform="translate(81,57)"/>
<path d="M0 0 C0 0.33 0 0.66 0 1 C-1.8253125 1.12375 -1.8253125 1.12375 -3.6875 1.25 C-7.83069535 1.80193544 -10.26125052 2.66214907 -13 6 C-13.20423824 7.96715896 -13.20423824 7.96715896 -13.0625 10.0625 C-13.041875 11.361875 -13.02125 12.66125 -13 14 C-14.99609375 15.74609375 -14.99609375 15.74609375 -17 17 C-17.11636726 5.49626537 -17.11636726 5.49626537 -14.69140625 2.24609375 C-10.15582934 -0.59256986 -5.18511476 -0.42327467 0 0 Z " fill="#F2EF6F" transform="translate(161,184)"/>
<path d="M0 0 C3.37253003 2.82826005 6.6429508 5.62634386 9.6875 8.8125 C11.75449273 11.13878678 11.75449273 11.13878678 14.1875 11.5 C14.785625 11.665 15.38375 11.83 16 12 C16.71247732 13.6476038 17.37400383 15.31763529 18 17 C20.02040748 19.27191416 20.02040748 19.27191416 22 21 C19 21 19 21 16.9152832 19.28759766 C16.13499756 18.50433105 15.35471191 17.72106445 14.55078125 16.9140625 C13.70322266 16.06585938 12.85566406 15.21765625 11.98242188 14.34375 C11.10134766 13.4465625 10.22027344 12.549375 9.3125 11.625 C8.41982422 10.73554687 7.52714844 9.84609375 6.60742188 8.9296875 C0 2.26674107 0 2.26674107 0 0 Z " fill="#E6E380" transform="translate(37,57)"/>
<path d="M0 0 C-0.41688475 4.86365546 -2.41219465 6.82938132 -6 10 C-7.31175986 11.02813611 -8.6369893 12.04084432 -10 13 C-10.66 12.67 -11.32 12.34 -12 12 C-11.566875 11.608125 -11.13375 11.21625 -10.6875 10.8125 C-8.88828613 9.01033527 -8.88828613 9.01033527 -7.5625 6.5625 C-3.56097561 0 -3.56097561 0 0 0 Z " fill="#F4EE71" transform="translate(67,171)"/>
<path d="M0 0 C0.66 0.33 1.32 0.66 2 1 C0.38113585 2.67262717 -1.2452729 4.33795537 -2.875 6 C-4.23238281 7.3921875 -4.23238281 7.3921875 -5.6171875 8.8125 C-8 11 -8 11 -10 11 C-10.28875 11.639375 -10.5775 12.27875 -10.875 12.9375 C-12 15 -12 15 -14 16 C-13.125 11.25 -13.125 11.25 -12 9 C-10.68 9 -9.36 9 -8 9 C-7.9175 8.38125 -7.835 7.7625 -7.75 7.125 C-7 5 -7 5 -5.125 3.9375 C-4.42375 3.628125 -3.7225 3.31875 -3 3 C-1.29078411 1.4587688 -1.29078411 1.4587688 0 0 Z " fill="#F0EC73" transform="translate(207,72)"/>
<path d="M0 0 C0.33 1.32 0.66 2.64 1 4 C0.34 4 -0.32 4 -1 4 C-0.71653722 5.91789713 -0.4228972 7.83429183 -0.125 9.75 C0.03742188 10.81734375 0.19984375 11.8846875 0.3671875 12.984375 C0.93797604 15.70442903 1.52781076 17.66181708 3 20 C5.0335948 21.26804566 5.0335948 21.26804566 7 22 C5.02 22 3.04 22 1 22 C-2.95996334 16.22505347 -2.69979597 9.80710627 -2 3 C-1.34 2.01 -0.68 1.02 0 0 Z " fill="#EFED64" transform="translate(185,92)"/>
<path d="M0 0 C4.84974351 -0.34641025 8.09470508 -0.01772789 12 3 C13.59480459 7.09193284 14.77093675 11.15659077 13.03125 15.31640625 C12.6909375 15.87199219 12.350625 16.42757812 12 17 C11.97421875 16.40832031 11.9484375 15.81664062 11.921875 15.20703125 C11.54954748 10.01983199 11.11788659 6.57605941 7 3 C3.37526891 1.64164329 3.37526891 1.64164329 0 1 C0 0.67 0 0.34 0 0 Z " fill="#E6DE82" transform="translate(62,144)"/>
<path d="M0 0 C4.21704138 1.56186718 6.2578799 4.55477218 9 8 C9.98290968 9.01680311 10.97334787 10.02738219 12 11 C11.67 11.99 11.34 12.98 11 14 C6.2 10.55384615 6.2 10.55384615 5.1875 7.75 C5.125625 7.1725 5.06375 6.595 5 6 C4.34 6 3.68 6 3 6 C2.67 4.68 2.34 3.36 2 2 C1.34 2 0.68 2 0 2 C0 1.34 0 0.68 0 0 Z " fill="#F4EF6A" transform="translate(187,164)"/>
<path d="M0 0 C3 1 3 1 5 4 C5.1953125 6.48046875 5.1953125 6.48046875 5.125 9.1875 C5.10695313 10.08855469 5.08890625 10.98960938 5.0703125 11.91796875 C5.03550781 12.94857422 5.03550781 12.94857422 5 14 C5.66 14.33 6.32 14.66 7 15 C6.01 15.495 6.01 15.495 5 16 C4.34 17.32 3.68 18.64 3 20 C2.67 14.06 2.34 8.12 2 2 C1.34 2 0.68 2 0 2 C0 1.34 0 0.68 0 0 Z " fill="#EFE979" transform="translate(252,117)"/>
<path d="M0 0 C0.33 0.99 0.66 1.98 1 3 C3.19932935 4.16513613 3.19932935 4.16513613 6 5 C7.155 5.4125 8.31 5.825 9.5 6.25 C13.26811499 7.05745321 14.67989103 6.81096853 18 5 C17.67 6.32 17.34 7.64 17 9 C10.8531925 9.43905768 5.998262 8.90138655 1 5 C0 2.25 0 2.25 0 0 Z " fill="#F1ED95" transform="translate(147,65)"/>
<path d="M0 0 C0 0.66 0 1.32 0 2 C-6.93 2 -13.86 2 -21 2 C-21 1.67 -21 1.34 -21 1 C-17.87605066 0.63611825 -14.75074918 0.28555397 -11.625 -0.0625 C-10.73554688 -0.16626953 -9.84609375 -0.27003906 -8.9296875 -0.37695312 C-8.07890625 -0.47041016 -7.228125 -0.56386719 -6.3515625 -0.66015625 C-5.56604004 -0.74918213 -4.78051758 -0.83820801 -3.97119141 -0.92993164 C-2 -1 -2 -1 0 0 Z " fill="#EAE34E" transform="translate(32,141)"/>
<path d="M0 0 C2.97 0.99 5.94 1.98 9 3 C9 4.32 9 5.64 9 7 C10.98 7 12.96 7 15 7 C12.35261084 8.4606285 11.10551666 9 8 9 C7.67 7.35 7.34 5.7 7 4 C5.02 4 3.04 4 1 4 C1 3.34 1 2.68 1 2 C0.34 1.67 -0.32 1.34 -1 1 C-0.67 0.67 -0.34 0.34 0 0 Z " fill="#F0EB5F" transform="translate(39,214)"/>
<path d="M0 0 C0.8971875 0.309375 0.8971875 0.309375 1.8125 0.625 C-3.2815919 6.50683807 -3.2815919 6.50683807 -7.0625 7 C-7.76375 6.87625 -8.465 6.7525 -9.1875 6.625 C-3.65359043 -0.62632979 -3.65359043 -0.62632979 0 0 Z " fill="#EFEF4D" transform="translate(60.1875,182.375)"/>
<path d="M0 0 C0 3 0 3 -1.28515625 4.62573242 C-2.16494141 5.4819519 -2.16494141 5.4819519 -3.0625 6.35546875 C-3.69414062 6.97744141 -4.32578125 7.59941406 -4.9765625 8.24023438 C-5.64429688 8.88283203 -6.31203125 9.52542969 -7 10.1875 C-8.00160156 11.16879883 -8.00160156 11.16879883 -9.0234375 12.16992188 C-10.67578441 13.78686135 -12.33471601 15.39640491 -14 17 C-14.33 15.68 -14.66 14.36 -15 13 C-14.28457031 12.61199219 -13.56914062 12.22398438 -12.83203125 11.82421875 C-9.67625579 9.79146407 -7.30425582 7.49903597 -4.6875 4.8125 C-3.36298828 3.46091797 -3.36298828 3.46091797 -2.01171875 2.08203125 C-1.34785156 1.39496094 -0.68398437 0.70789062 0 0 Z " fill="#E7E378" transform="translate(224,55)"/>
<path d="M0 0 C0.99 0.33 1.98 0.66 3 1 C2.34 1 1.68 1 1 1 C0.731875 1.804375 0.46375 2.60875 0.1875 3.4375 C-0.204375 4.283125 -0.59625 5.12875 -1 6 C-1.99 6.33 -2.98 6.66 -4 7 C-4.33 7.99 -4.66 8.98 -5 10 C-5.99 10.33 -6.98 10.66 -8 11 C-9.66710346 12.49985609 -9.66710346 12.49985609 -11 14 C-10.8125 11.6875 -10.8125 11.6875 -10 9 C-8.36209288 7.95355934 -6.68991979 6.9601817 -5 6 C-3.18428594 4.09079389 -1.6210465 2.08420265 0 0 Z " fill="#F0EB6E" transform="translate(48,188)"/>
<path d="M0 0 C1.84577344 2.07649512 2.90845859 3.57662099 3.5 6.3125 C2.7626333 10.27584602 0.49509347 12.9078663 -2 16 C-2.33 15.34 -2.66 14.68 -3 14 C-2.33333333 12 -1.66666667 10 -1 8 C-0.55915591 5.33576831 -0.27811185 2.68841457 0 0 Z " fill="#EEE86C" transform="translate(223,201)"/>
<path d="M0 0 C0.66 0.33 1.32 0.66 2 1 C1.20928784 2.75043149 0.41739082 4.50032778 -0.375 6.25 C-0.81585937 7.22453125 -1.25671875 8.1990625 -1.7109375 9.203125 C-2.76638138 11.49311839 -3.85543935 13.75366601 -5 16 C-5.29209024 10.35292212 -5.0637112 6.94907193 -2 2 C-1.34 1.34 -0.68 0.68 0 0 Z " fill="#EEEC95" transform="translate(7,113)"/>
<path d="M0 0 C3.14191424 1.53604696 6.08596738 3.05731159 9 5 C9 6.32 9 7.64 9 9 C9.66 9.33 10.32 9.66 11 10 C9.0625 9.625 9.0625 9.625 7 9 C6.67 8.34 6.34 7.68 6 7 C5.01 6.67 4.02 6.34 3 6 C0 2.55555556 0 2.55555556 0 0 Z " fill="#EEED4C" transform="translate(182,198)"/>
<path d="M0 0 C-4.32547034 3.25050138 -8.09689352 3.36927717 -13.3125 3.1875 C-14.05306641 3.17396484 -14.79363281 3.16042969 -15.55664062 3.14648438 C-17.37141075 3.11135979 -19.18580288 3.05755972 -21 3 C-21 2.67 -21 2.34 -21 2 C-16.38 2 -11.76 2 -7 2 C-7 1.34 -7 0.68 -7 0 C-3.86650268 -1.04449911 -3.01031744 -0.93423645 0 0 Z " fill="#E1DC78" transform="translate(143,253)"/>
<path d="M0 0 C-1.65 0.66 -3.3 1.32 -5 2 C-5 2.66 -5 3.32 -5 4 C-8.375 4.125 -8.375 4.125 -12 4 C-12.66 3.34 -13.32 2.68 -14 2 C-12.04396149 1.47061343 -10.08507711 0.95173199 -8.125 0.4375 C-7.03445312 0.14746094 -5.94390625 -0.14257812 -4.8203125 -0.44140625 C-2 -1 -2 -1 0 0 Z " fill="#ECE563" transform="translate(219,219)"/>
<path d="M0 0 C-1.39750048 3.15835107 -3.05198234 5.32272825 -5.5 7.75 C-6.41265625 8.67039063 -6.41265625 8.67039063 -7.34375 9.609375 C-9 11 -9 11 -11 11 C-11 10.01 -11 9.02 -11 8 C-10.38125 7.7525 -9.7625 7.505 -9.125 7.25 C-6.60421533 5.76718549 -6.2147002 4.59136042 -5 2 C-2 0 -2 0 0 0 Z " fill="#F1ED59" transform="translate(76,202)"/>
<path d="M0 0 C0.33 1.98 0.66 3.96 1 6 C-0.98 6.99 -0.98 6.99 -3 8 C-4 7 -4 7 -4.0625 3.9375 C-4.041875 2.968125 -4.02125 1.99875 -4 1 C-2 0 -2 0 0 0 Z " fill="#F6F427" transform="translate(53,55)"/>
<path d="M0 0 C0.33 0 0.66 0 1 0 C0.98839844 0.66386719 0.97679687 1.32773438 0.96484375 2.01171875 C0.88106591 8.56306787 0.88106591 8.56306787 2 15 C-0.0625 13.5625 -0.0625 13.5625 -2 11 C-2.13569211 7.18026697 -1.71763261 3.43526523 0 0 Z " fill="#F4F07C" transform="translate(185,149)"/>
<path d="M0 0 C1.9375 0.3125 1.9375 0.3125 4 1 C5.1845131 4.55353929 5.26641894 7.27013478 5 11 C4.01 11.99 3.02 12.98 2 14 C2 9.71 2 5.42 2 1 C1.34 0.67 0.68 0.34 0 0 Z " fill="#EEEC56" transform="translate(139,7)"/>
<path d="M0 0 C1.17755859 -0.00773438 1.17755859 -0.00773438 2.37890625 -0.015625 C4.4375 0.25 4.4375 0.25 6.4375 2.25 C5.42429687 2.34087891 5.42429687 2.34087891 4.390625 2.43359375 C3.49859375 2.51738281 2.6065625 2.60117188 1.6875 2.6875 C0.80578125 2.76871094 -0.0759375 2.84992188 -0.984375 2.93359375 C-3.25600452 3.21238465 -5.36101823 3.63790577 -7.5625 4.25 C-7.5625 3.59 -7.5625 2.93 -7.5625 2.25 C-4.42838698 0.16059132 -3.58799528 -0.02364412 0 0 Z " fill="#F1F070" transform="translate(100.5625,182.75)"/>
<path d="M0 0 C3.80635497 3.20760251 7.54563567 6.40746109 11 10 C10.67 10.99 10.34 11.98 10 13 C9.1028125 11.7934375 9.1028125 11.7934375 8.1875 10.5625 C6.19052724 7.77672016 6.19052724 7.77672016 3 7 C0.67734388 4.41927097 0 3.54823932 0 0 Z " fill="#EDF054" transform="translate(195,174)"/>
<path d="M0 0 C2.46800047 1.15173355 4.04783565 2.04783565 6 4 C8.06874034 4.6425235 8.06874034 4.6425235 10 5 C10 6.65 10 8.3 10 10 C2.51708428 3.84965831 2.51708428 3.84965831 0 0 Z " fill="#F0ED7D" transform="translate(58,79)"/>
<path d="M0 0 C2 3 2 3 2 7 C0.68 6.67 -0.64 6.34 -2 6 C-2.33 4.35 -2.66 2.7 -3 1 C-2.01 0.67 -1.02 0.34 0 0 Z " fill="#F0F52D" transform="translate(179,146)"/>
<path d="M0 0 C1.98 0.495 1.98 0.495 4 1 C4 2.65 4 4.3 4 6 C2.35 5.67 0.7 5.34 -1 5 C-0.67 3.35 -0.34 1.7 0 0 Z " fill="#F4EC51" transform="translate(12,136)"/>
<path d="M0 0 C3.96 0.33 7.92 0.66 12 1 C12 1.33 12 1.66 12 2 C10.35 2 8.7 2 7 2 C7 2.66 7 3.32 7 4 C2.25 3.125 2.25 3.125 0 2 C0 1.34 0 0.68 0 0 Z " fill="#EFE969" transform="translate(96,73)"/>
<path d="M0 0 C5.875 3.75 5.875 3.75 7 6 C5.02 6.33 3.04 6.66 1 7 C0 2.25 0 2.25 0 0 Z " fill="#F1EF4F" transform="translate(144,70)"/>
<path d="M0 0 C1.17539996 0.92652701 2.34010577 1.86663387 3.5 2.8125 C4.1496875 3.33457031 4.799375 3.85664063 5.46875 4.39453125 C7 6 7 6 7 9 C6.01 8.67 5.02 8.34 4 8 C4 7.34 4 6.68 4 6 C3.34 6 2.68 6 2 6 C1.34 4.02 0.68 2.04 0 0 Z " fill="#E9E36C" transform="translate(216,192)"/>
<path d="M0 0 C0 3.58912412 -0.66436554 4.10857029 -3 6.6875 C-3.556875 7.31011719 -4.11375 7.93273437 -4.6875 8.57421875 C-5.120625 9.04472656 -5.55375 9.51523438 -6 10 C-6.66 9.34 -7.32 8.68 -8 8 C-6 5 -6 5 -3 4 C-1.31461399 2.00334686 -1.31461399 2.00334686 0 0 Z " fill="#EFED54" transform="translate(78,107)"/>
<path d="M0 0 C0.99 0.33 1.98 0.66 3 1 C3 1.66 3 2.32 3 3 C4.32 3.66 5.64 4.32 7 5 C3.98968256 5.93423645 3.13349732 6.04449911 0 5 C0 3.35 0 1.7 0 0 Z " fill="#F0EC58" transform="translate(68,84)"/>
<path d="M0 0 C5.66153846 2.33846154 5.66153846 2.33846154 7.375 5.6875 C7.684375 6.8321875 7.684375 6.8321875 8 8 C7.34 7.67 6.68 7.34 6 7 C6 6.34 6 5.68 6 5 C3.03 4.505 3.03 4.505 0 4 C0 2.68 0 1.36 0 0 Z " fill="#E8E58C" transform="translate(138,1)"/>
<path d="M0 0 C0.33 0.66 0.66 1.32 1 2 C-3.625 7.875 -3.625 7.875 -7 9 C-5.44499019 5.18315774 -2.96404505 2.80804268 0 0 Z " fill="#F1F14D" transform="translate(46,196)"/>
<path d="M0 0 C0.66 0.33 1.32 0.66 2 1 C-2 7.57142857 -2 7.57142857 -6 9 C-5.67 7.68 -5.34 6.36 -5 5 C-4.34 5 -3.68 5 -3 5 C-2.5359375 4.0409375 -2.5359375 4.0409375 -2.0625 3.0625 C-1 1 -1 1 0 0 Z " fill="#ECE87C" transform="translate(85,193)"/>
<path d="M0 0 C0 3.77910478 -0.99703962 4.46106101 -3.5 7.1875 C-4.1496875 7.90292969 -4.799375 8.61835938 -5.46875 9.35546875 C-5.9740625 9.89816406 -6.479375 10.44085938 -7 11 C-7.66 10.67 -8.32 10.34 -9 10 C-7.87970983 8.51726301 -6.75361382 7.03891114 -5.625 5.5625 C-4.99851562 4.73878906 -4.37203125 3.91507813 -3.7265625 3.06640625 C-2 1 -2 1 0 0 Z " fill="#F4F47F" transform="translate(76,160)"/>
<path d="M0 0 C2.70438996 0.36405249 3.74406383 0.68142682 5.484375 2.84765625 C5.90203125 3.57855469 6.3196875 4.30945313 6.75 5.0625 C7.39195313 6.16271484 7.39195313 6.16271484 8.046875 7.28515625 C8.36140625 7.85105469 8.6759375 8.41695312 9 9 C5.15625 7.328125 5.15625 7.328125 3.75 4.375 C3.5025 3.59125 3.255 2.8075 3 2 C2.01 2 1.02 2 0 2 C0 1.34 0 0.68 0 0 Z " fill="#F3EE66" transform="translate(84,63)"/>
<path d="M0 0 C3.057952 1.73559438 5.63379989 3.38472619 8 6 C7.67 6.66 7.34 7.32 7 8 C6.34 7.34 5.68 6.68 5 6 C2.93125966 5.3574765 2.93125966 5.3574765 1 5 C0.67 3.35 0.34 1.7 0 0 Z " fill="#EAE592" transform="translate(58,33)"/>
<path d="M0 0 C0.99 0.33 1.98 0.66 3 1 C-1.75 6.75 -1.75 6.75 -4 9 C-4.25 6.75 -4.25 6.75 -4 4 C-2 1.6875 -2 1.6875 0 0 Z " fill="#EFEB79" transform="translate(190,88)"/>
<path d="M0 0 C-0.33 1.32 -0.66 2.64 -1 4 C-3.97 4 -6.94 4 -10 4 C-6.86268382 1.90845588 -3.85464592 0 0 0 Z " fill="#E8DE61" transform="translate(57,220)"/>
<path d="M0 0 C0.66 0.99 1.32 1.98 2 3 C-2.625 6 -2.625 6 -6 6 C-2.25 1.125 -2.25 1.125 0 0 Z " fill="#ECE79E" transform="translate(43,34)"/>
<path d="M0 0 C3.82946843 1.45255699 5.12050295 3.42895561 7 7 C6.01 7.495 6.01 7.495 5 8 C5 7.34 5 6.68 5 6 C4.34 6 3.68 6 3 6 C2.67 4.68 2.34 3.36 2 2 C1.34 2 0.68 2 0 2 C0 1.34 0 0.68 0 0 Z " fill="#F4F17F" transform="translate(187,164)"/>
<path d="M0 0 C0.33 0.66 0.66 1.32 1 2 C1.66 2 2.32 2 3 2 C2.25 7.75 2.25 7.75 0 10 C0 6.7 0 3.4 0 0 Z " fill="#EEE785" transform="translate(225,46)"/>
<path d="M0 0 C0.33 0 0.66 0 1 0 C1.04241723 2.33294775 1.04092937 4.66702567 1 7 C0 8 0 8 -3.0625 8.0625 C-4.031875 8.041875 -5.00125 8.02125 -6 8 C-4 6 -4 6 -1 5 C-0.67 3.35 -0.34 1.7 0 0 Z " fill="#EDEE4B" transform="translate(252,132)"/>
<path d="M0 0 C5.75 1.625 5.75 1.625 8 5 C4.62537285 4.45276317 2.91765 3.9451 0 2 C0 1.34 0 0.68 0 0 Z " fill="#F4F088" transform="translate(61,38)"/>
<path d="" fill="#FFFFFF" transform="translate(0,0)"/>
<path d="" fill="#FFFFFF" transform="translate(0,0)"/>
<path d="" fill="#FFFFFF" transform="translate(0,0)"/>
<path d="" fill="#FFFFFF" transform="translate(0,0)"/>
<path d="" fill="#FFFFFF" transform="translate(0,0)"/>
<path d="" fill="#FFFFFF" transform="translate(0,0)"/>
<path d="" fill="#FFFFFF" transform="translate(0,0)"/>
<path d="" fill="#FFFFFF" transform="translate(0,0)"/>
<path d="" fill="#FFFFFF" transform="translate(0,0)"/>
<path d="" fill="#FFFFFF" transform="translate(0,0)"/>
<path d="" fill="#FFFFFF" transform="translate(0,0)"/>
<path d="" fill="#FFFFFF" transform="translate(0,0)"/>
<path d="" fill="#FFFFFF" transform="translate(0,0)"/>
<path d="" fill="#FFFFFF" transform="translate(0,0)"/>
<path d="" fill="#FFFFFF" transform="translate(0,0)"/>
<path d="" fill="#FFFFFF" transform="translate(0,0)"/>
<path d="" fill="#FFFFFF" transform="translate(0,0)"/>
<path d="" fill="#FFFFFF" transform="translate(0,0)"/>
<path d="" fill="#FFFFFF" transform="translate(0,0)"/>
<path d="" fill="#FFFFFF" transform="translate(0,0)"/>
<path d="" fill="#FFFFFF" transform="translate(0,0)"/>
<path d="" fill="#FFFFFF" transform="translate(0,0)"/>
<path d="" fill="#FFFFFF" transform="translate(0,0)"/>
<path d="" fill="#FFFFFF" transform="translate(0,0)"/>
<path d="" fill="#FFFFFF" transform="translate(0,0)"/>
<path d="" fill="#FFFFFF" transform="translate(0,0)"/>
<path d="" fill="#FFFFFF" transform="translate(0,0)"/>
<path d="" fill="#FFFFFF" transform="translate(0,0)"/>
<path d="" fill="#FFFFFF" transform="translate(0,0)"/>
<path d="" fill="#FFFFFF" transform="translate(0,0)"/>
<path d="" fill="#FFFFFF" transform="translate(0,0)"/>
<path d="" fill="#FFFFFF" transform="translate(0,0)"/>
<path d="" fill="#FFFFFF" transform="translate(0,0)"/>
</svg>
