<?xml version="1.0" encoding="UTF-8"?>
<svg version="1.1" xmlns="http://www.w3.org/2000/svg" width="512" height="512">
<path d="M0 0 C7.20959463 5.67021882 12.66048373 13.19135771 18.2109375 20.421875 C20.89016664 23.89529751 23.70297671 27.23699154 26.5625 30.5625 C31.21818396 35.97888946 35.55283705 41.58520709 39.80859375 47.3203125 C41.815121 49.77392693 43.3070461 51.37859718 46 53 C48.24660756 53.04283573 48.24660756 53.04283573 50.56787109 52.37744141 C51.89005646 52.06120819 51.89005646 52.06120819 53.23895264 51.73858643 C54.15009827 51.49485291 55.0612439 51.25111938 56 51 C56.86844543 50.7706073 57.73689087 50.5412146 58.63165283 50.30487061 C61.40019871 49.54884094 64.15700747 48.75780011 66.9140625 47.9609375 C68.99580103 47.37396085 71.07784235 46.78805723 73.16015625 46.203125 C76.38799812 45.29359828 79.61361084 44.37830256 82.83447266 43.44433594 C113.14904392 34.67946066 113.14904392 34.67946066 124.6875 39.6875 C131.423245 43.90659302 136.47245536 50.08782202 138.5559082 57.79931641 C139.51640247 62.55901699 139.69766893 67.41270293 140 72.25 C140.12616699 74.044375 140.12616699 74.044375 140.25488281 75.875 C140.6905095 82.27071765 141.04200453 88.66077708 141.27160645 95.06732178 C141.38760258 98.26173273 141.5236088 101.45519273 141.65966797 104.64880371 C141.71968714 106.21100547 141.76891611 107.77366064 141.80712891 109.33654785 C141.86123196 111.53865985 141.95063668 113.73688436 142.046875 115.9375 C142.08651367 117.20464844 142.12615234 118.47179687 142.16699219 119.77734375 C142.72509763 123.1631473 142.72509763 123.1631473 145.46142578 125.20922852 C149.74146801 127.37523581 154.06039227 129.09259446 158.5703125 130.71484375 C159.48779266 131.05246231 160.40527283 131.39008087 161.35055542 131.7379303 C164.27271156 132.8118826 167.19858489 133.87521421 170.125 134.9375 C204.25670902 147.40103851 204.25670902 147.40103851 209.5625 152.4375 C210.34753906 153.15808594 211.13257813 153.87867188 211.94140625 154.62109375 C217.00384145 160.47123234 218.12421262 166.4644344 218 174 C215.9221778 190.84129569 200.00100442 208.40186728 190.56640625 221.93359375 C189.73363159 223.14341919 189.73363159 223.14341919 188.8840332 224.37768555 C187.82003197 225.92241884 186.74485153 227.45953038 185.65698242 228.98754883 C183.57462048 232.02664331 182.13182094 234.37425741 181.3671875 238.00390625 C182.28877367 242.36721856 184.41538232 245.50971455 186.875 249.1875 C187.65629272 250.3930957 187.65629272 250.3930957 188.45336914 251.62304688 C191.39902585 256.14375584 194.41257281 260.61856456 197.43200684 265.09016418 C198.63558212 266.87317105 199.83665219 268.65784803 201.03759766 270.44262695 C202.60278185 272.76812389 204.18053032 275.08431038 205.76708984 277.39526367 C212.88054045 287.90182243 219.64150494 298.46310161 217.58984375 311.6328125 C215.13449458 321.24837154 209.93272568 326.91187179 201.64306641 332.06225586 C193.88937129 336.39846713 185.24999041 339.13155304 176.9375 342.1875 C174.11756671 343.23822482 171.2989605 344.29245691 168.48036194 345.34675598 C166.73946562 345.99642396 164.99754572 346.64335899 163.25437927 347.28691101 C158.9957321 348.86118009 154.74691881 350.46074895 150.51391602 352.1027832 C149.69721939 352.41794388 148.88052277 352.73310455 148.03907776 353.05781555 C145.83679021 353.93301055 145.83679021 353.93301055 144 356 C143.60541819 358.32303028 143.60541819 358.32303028 143.52929688 361.05371094 C143.47584106 362.10951355 143.42238525 363.16531616 143.36730957 364.25311279 C143.31828491 365.40192932 143.26926025 366.55074585 143.21875 367.734375 C143.15973511 368.91912415 143.10072021 370.10387329 143.03991699 371.32452393 C142.85102051 375.13264441 142.67446019 378.94119275 142.5 382.75 C142.32458368 386.51589352 142.14625424 390.28155812 141.96008301 394.04693604 C141.84444957 396.39082187 141.73490132 398.7350193 141.63269043 401.07952881 C140.37653205 426.77871172 140.37653205 426.77871172 133 435 C125.5505135 440.82847824 118.44769134 442.88291429 109 442 C104.13000722 441.02748281 99.35213277 439.74100904 94.5625 438.4375 C93.19631939 438.07513548 91.82985978 437.71382136 90.46313477 437.35351562 C83.76353751 435.58053048 77.07984631 433.75030785 70.3984375 431.91015625 C69.2220874 431.58797119 68.0457373 431.26578613 66.83374023 430.93383789 C64.62009104 430.3251679 62.40853026 429.70883485 60.19946289 429.08374023 C53.16052535 426.85068938 53.16052535 426.85068938 46 427 C43.60575742 429.05666999 41.81031222 431.47173256 39.9375 434 C38.79350875 435.47698091 37.6489618 436.95353155 36.50390625 438.4296875 C35.92398926 439.18991211 35.34407227 439.95013672 34.74658203 440.73339844 C32.03038288 444.25830659 29.19982324 447.68704011 26.375 451.125 C23.2156928 454.98979275 20.08273928 458.86709223 17.0546875 462.8359375 C3.0790088 481.14848084 3.0790088 481.14848084 -7.45703125 483.6640625 C-16.09700483 484.8054415 -22.87325102 482.60889162 -29.88671875 477.671875 C-35.47622195 473.18213206 -39.67291392 467.5498356 -44 461.89453125 C-47.14858534 457.77980752 -50.40944577 453.76189029 -53.6875 449.75 C-54.7840442 448.40510284 -55.88040347 447.06005486 -56.9765625 445.71484375 C-57.49250977 445.08175293 -58.00845703 444.44866211 -58.54003906 443.79638672 C-67.71587582 432.50611802 -67.71587582 432.50611802 -69.58984375 429.16796875 C-71.7164652 426.7919869 -71.7164652 426.7919869 -74.0664978 426.91378784 C-80.28141024 427.63642688 -86.13100946 428.91332116 -92.13671875 430.65234375 C-93.06039749 430.91253799 -93.98407623 431.17273224 -94.93574524 431.44081116 C-97.85529119 432.26518459 -100.7713763 433.10111116 -103.6875 433.9375 C-105.65407876 434.49491073 -107.62087411 435.05155788 -109.58789062 435.60742188 C-113.19886061 436.62935774 -116.80866293 437.65518024 -120.41674805 438.68725586 C-121.19866013 438.91044495 -121.9805722 439.13363403 -122.78617859 439.36358643 C-124.20841972 439.77244215 -125.62930378 440.18606522 -127.04841614 440.60565186 C-135.71545075 443.15409858 -144.4966198 443.15720513 -152.78125 439.32421875 C-159.73017071 435.17688755 -164.20124157 428.98596212 -166.52032471 421.26844788 C-167.11898039 418.43732603 -167.26023815 415.70139899 -167.40136719 412.81030273 C-167.46523621 411.55898056 -167.52910522 410.30765839 -167.59490967 409.01841736 C-167.64380466 408.02000981 -167.64380466 408.02000981 -167.69368744 407.00143242 C-167.8700608 403.46697868 -168.06991633 399.93381688 -168.265625 396.40039062 C-168.51302226 391.90852979 -168.75339382 387.41661793 -168.96875 382.9230957 C-169.14366616 379.28617002 -169.34189238 375.65117521 -169.55582428 372.01634407 C-169.63295369 370.63211051 -169.70144549 369.24736761 -169.76113129 367.86227226 C-169.84561286 365.92718779 -169.96259773 363.99360483 -170.08105469 362.06030273 C-170.137995 360.95984116 -170.1949353 359.85937958 -170.25360107 358.72557068 C-170.75505621 355.81724746 -170.75505621 355.81724746 -173.31704712 354.22064209 C-176.55183837 352.74225379 -176.55183837 352.74225379 -179.84619141 351.40942383 C-180.56529694 351.13516068 -181.28440247 350.86089752 -182.02529907 350.57832336 C-182.792966 350.29079697 -183.56063293 350.00327057 -184.3515625 349.70703125 C-185.16507172 349.39730881 -185.97858093 349.08758636 -186.81674194 348.76847839 C-189.41780547 347.77863206 -192.02114949 346.79498929 -194.625 345.8125 C-200.57001089 343.56578604 -206.50874227 341.30449872 -212.43127441 338.99908447 C-214.16430948 338.32503488 -215.89897506 337.65516454 -217.63513184 336.98919678 C-220.21015207 335.9951584 -222.77371288 334.97572559 -225.3359375 333.94921875 C-226.10467194 333.65658646 -226.87340637 333.36395416 -227.66543579 333.06245422 C-234.73245819 330.17457416 -239.7379477 325.63504106 -243.4375 318.9375 C-246.11530498 312.06173874 -246.71185902 304.13874695 -243.8684082 297.26416016 C-240.42352356 290.15410182 -236.32504189 283.55827508 -231.9375 277 C-230.62088444 275.00664865 -229.30448265 273.01315609 -227.98828125 271.01953125 C-227.32779785 270.0238916 -226.66731445 269.02825195 -225.98681641 268.00244141 C-222.8403694 263.24758698 -219.73200521 258.46818154 -216.625 253.6875 C-216.07191162 252.83994141 -215.51882324 251.99238281 -214.94897461 251.11914062 C-214.18919312 249.9522168 -214.18919312 249.9522168 -213.4140625 248.76171875 C-212.9701416 248.08069092 -212.5262207 247.39966309 -212.06884766 246.69799805 C-209.87835955 243.218134 -209.49645873 241.150686 -210 237 C-211.60745582 233.76339739 -213.63870207 230.84629333 -215.6875 227.875 C-216.88313431 226.09005927 -218.07843727 224.30489655 -219.2734375 222.51953125 C-219.89057617 221.60768066 -220.50771484 220.69583008 -221.14355469 219.75634766 C-225.71144949 212.97418928 -230.12797907 206.09038755 -234.56347656 199.22119141 C-235.47621668 197.80988794 -236.3918988 196.40047946 -237.31152344 194.99365234 C-243.1897747 185.98680725 -247.79953616 178.03039964 -245.5703125 166.84375 C-243.59121409 159.70922241 -239.8547871 154.24800733 -233.39259338 150.47943115 C-226.44735039 147.07660624 -219.44746283 144.06337692 -212.21484375 141.328125 C-210.61957603 140.71538727 -210.61957603 140.71538727 -208.99208069 140.090271 C-205.64271057 138.80446034 -202.29039768 137.52658081 -198.9375 136.25 C-195.55281078 134.95828078 -192.16883823 133.66478292 -188.78651428 132.36688232 C-186.69343536 131.56396775 -184.59894861 130.7647113 -182.50291443 129.96954346 C-181.56085648 129.60866638 -180.61879852 129.24778931 -179.64819336 128.87597656 C-178.82056992 128.56098206 -177.99294647 128.24598755 -177.14024353 127.92144775 C-174.77119247 126.97779372 -174.77119247 126.97779372 -172 125 C-170.82825845 121.87715676 -170.79274677 118.67422164 -170.64282227 115.36450195 C-170.58929092 114.23264969 -170.53575958 113.10079742 -170.48060608 111.93464661 C-170.39932716 110.10494576 -170.39932716 110.10494576 -170.31640625 108.23828125 C-170.19226364 105.64907864 -170.06790793 103.05988624 -169.94335938 100.47070312 C-169.75094862 96.39380921 -169.56237493 92.31675272 -169.37768555 88.23950195 C-169.19881407 84.30119018 -169.00747008 80.36352051 -168.81640625 76.42578125 C-168.76424454 75.21610184 -168.71208282 74.00642242 -168.65834045 72.76008606 C-168.13310107 62.12609989 -167.04534413 53.37370257 -160 45 C-152.44357063 38.72977137 -143.57222131 38.24146717 -134.10162354 38.79058838 C-127.48195272 39.45019081 -121.07540982 41.41070511 -114.6875 43.1875 C-113.13824053 43.60248423 -111.58851207 44.01572134 -110.03833008 44.42724609 C-103.65179361 46.13220847 -97.28571414 47.90338515 -90.9375 49.74609375 C-90.10903564 49.98497314 -89.28057129 50.22385254 -88.42700195 50.4699707 C-86.99693396 50.88824961 -85.57045756 51.31915146 -84.14916992 51.76635742 C-80.06935452 52.98391643 -77.05894158 53.41012276 -73 52 C-71.04507224 49.99687679 -69.53847518 48.19272861 -67.9375 45.9375 C-66.97693371 44.6510926 -66.01462388 43.36598569 -65.05078125 42.08203125 C-64.55271973 41.40994629 -64.0546582 40.73786133 -63.54150391 40.04541016 C-60.99360996 36.66462848 -58.30893097 33.39809639 -55.625 30.125 C-52.23707426 25.98161391 -48.85924458 21.83240244 -45.53125 17.640625 C-44.96067871 16.92632324 -44.39010742 16.21202148 -43.80224609 15.47607422 C-42.72174849 14.12254258 -41.64615197 12.76507658 -40.57666016 11.40283203 C-29.98742363 -1.80882806 -16.12651003 -8.56511736 0 0 Z M39.1875 178.47192383 C38.23131235 179.4289593 37.27446044 180.3853315 36.31700134 181.34109497 C33.73848485 183.91875613 31.16927742 186.50551394 28.60172653 189.09409165 C25.90990269 191.8047599 23.20949326 194.50684826 20.51000977 197.20988464 C15.40786933 202.32132284 10.31342003 207.44035502 5.22173595 212.56220692 C-0.57890213 218.39645991 -6.38813361 224.22212429 -12.19807816 230.04710734 C-24.14159315 242.0219199 -36.07435171 254.00739452 -48 266 C-49.10425307 265.06402975 -50.20698623 264.12626618 -51.30909729 263.18777466 C-52.23047407 262.40474566 -52.23047407 262.40474566 -53.17046452 261.6058979 C-55.95374804 259.16283559 -58.5178909 256.52889138 -61.08984375 253.8671875 C-62.21504506 252.71961094 -63.34071018 251.57248901 -64.46679688 250.42578125 C-66.2068937 248.64860885 -67.9436788 246.86860994 -69.67260742 245.08056641 C-71.36488615 243.33340425 -73.0699429 241.59955836 -74.77734375 239.8671875 C-75.28281235 239.33793671 -75.78828094 238.80868591 -76.30906677 238.26339722 C-80.72969149 233.8113977 -85.68886494 230.6453153 -91.90625 229.43359375 C-98.56457195 229.44362134 -102.91024142 230.62016046 -108 235 C-112.19961559 239.31013179 -113.71556449 243.4400804 -114.375 249.375 C-113.04916296 262.19142468 -100.65703788 271.49815813 -92.08984375 280.11328125 C-90.87223106 281.33944405 -90.87223106 281.33944405 -89.63002014 282.59037781 C-87.92977405 284.29998652 -86.22813534 286.0082113 -84.52514648 287.71508789 C-81.93335961 290.31665602 -79.35244296 292.92871036 -76.77148438 295.54101562 C-75.1074303 297.21159465 -73.44273859 298.88153882 -71.77734375 300.55078125 C-71.01566391 301.32480789 -70.25398407 302.09883453 -69.46922302 302.89631653 C-63.60682538 308.73465072 -57.40675608 314.5759407 -48.8125 315.25 C-38.05705048 314.54472462 -32.46666887 308.17387108 -25.29150391 300.90673828 C-24.13207036 299.75080922 -22.97155913 298.59596025 -21.81005859 297.44210815 C-18.67083365 294.31709035 -15.54742247 291.17669988 -12.42707872 288.03284311 C-9.15563692 284.74125056 -5.87116685 281.46270383 -2.58847046 278.18234253 C2.91924027 272.67457829 8.41702972 267.15706467 13.90869141 261.63330078 C20.25658021 255.24848538 26.6184483 248.87787405 32.98830736 242.51498234 C39.1207927 236.38880204 45.24471101 230.25413169 51.36427689 224.11504745 C53.96697015 221.5041828 56.5723731 218.8960672 59.17994308 216.29007339 C62.24857141 213.22232404 65.30954353 210.1471321 68.36476135 207.06602859 C69.48688784 205.93674147 70.61156337 204.80998065 71.73895645 203.68595123 C73.27755706 202.15106662 74.80661155 200.60725884 76.33358765 199.06082153 C77.19152609 198.19915438 78.04946453 197.33748722 78.93340111 196.44970894 C82.98950346 191.6416786 83.56095828 186.97643481 83.4453125 180.85546875 C82.58877524 175.36311142 79.52556896 171.18640382 75.37109375 167.58984375 C71.32629457 164.76152553 67.67006664 163.80313361 62.8125 163.625 C61.46091797 163.55152344 61.46091797 163.55152344 60.08203125 163.4765625 C51.36458272 164.95709242 45.1229373 172.46359394 39.1875 178.47192383 Z " fill="#08B285" transform="translate(270,16)"/>
</svg>
