<?xml version="1.0" encoding="UTF-8"?>
<svg version="1.1" xmlns="http://www.w3.org/2000/svg" width="512" height="512">
<!-- Main large bubble with white fill -->
<path d="M0 0 C19.74845318 16.10213613 33.34211237 37.55172567 37 63 C37.26623547 67.36282643 37.27305239 71.63874647 37 76 C37.72960937 75.74605469 38.45921875 75.49210937 39.2109375 75.23046875 C64.16584448 67.004592 94.41221624 65.40272587 120 72 C120.76812012 72.18804199 121.53624023 72.37608398 122.32763672 72.56982422 C141.82305292 77.45436442 159.8731562 86.01637729 176 98 C176.93585938 98.69351563 177.87171875 99.38703125 178.8359375 100.1015625 C206.58660368 121.83008998 225.59750032 151.84561399 234 186 C234.32097656 187.28003906 234.64195312 188.56007813 234.97265625 189.87890625 C239.4736263 210.35656375 239.23121154 235.71054301 234 256 C233.81195801 256.76812012 233.62391602 257.53624023 233.43017578 258.32763672 C223.76376712 296.90868067 198.72291553 330.91871736 164.75 351.625 C150.53875373 359.99706254 136.00015277 365.97301728 120 370 C119.30986816 370.17934082 118.61973633 370.35868164 117.90869141 370.54345703 C97.1113932 375.70053147 70.70704802 375.33887864 50 370 C49.23187988 369.81195801 48.46375977 369.62391602 47.67236328 369.43017578 C28.17694708 364.54563558 10.1268438 355.98362271 -6 344 C-6.93585938 343.30648438 -7.87171875 342.61296875 -8.8359375 341.8984375 C-41.06235342 316.66543735 -62.04782831 279.6610535 -67 239 C-67.46289188 233.19311174 -67.43731131 227.38349488 -67.375 221.5625 C-67.37101196 220.80096619 -67.36702393 220.03943237 -67.36291504 219.25482178 C-67.26341164 203.02513684 -65.35279164 188.37908665 -60 173 C-60.74121094 173.04640625 -61.48242188 173.0928125 -62.24609375 173.140625 C-85.4337526 173.93530609 -107.36672895 163.9191726 -124.3125 148.5 C-142.38159319 131.54293965 -154.27127966 109.29505609 -155.3828125 84.2890625 C-156.09445376 55.78869783 -149.21659255 31.57486407 -129.3359375 10.37109375 C-94.83017582 -24.65398542 -39.47352935 -30.18232772 0 0 Z" fill="#FFFFFF" fill-rule="evenodd" transform="translate(211,107)"/>

<!-- Medium bubble with white fill -->
<path d="M0 0 C2.44225447 1.66159248 4.74768159 3.38773224 7.0390625 5.25 C7.87179687 5.87648438 8.70453125 6.50296875 9.5625 7.1484375 C18.76036546 14.95356624 26.15845232 28.59050337 27.26025391 40.67626953 C27.73579386 51.65011278 27.93683722 62.18235196 23.0390625 72.25 C22.58015625 73.21164063 22.12125 74.17328125 21.6484375 75.1640625 C13.91897924 90.25684678 1.74462952 98.78970206 -14.12109375 104.359375 C-26.20509403 107.16217466 -40.75813646 106.70001132 -51.9609375 101.25 C-52.92257812 100.79109375 -53.88421875 100.3321875 -54.875 99.859375 C-69.96778428 92.12991674 -78.50063956 79.95556702 -84.0703125 64.08984375 C-86.87311216 52.00584347 -86.41094882 37.45280104 -80.9609375 26.25 C-80.50203125 25.28835937 -80.043125 24.32671875 -79.5703125 23.3359375 C-71.84651061 8.25419803 -59.66331626 -0.32293942 -43.7890625 -5.85546875 C-29.15360965 -9.27538579 -12.98077044 -7.67201208 0 0 Z" fill="#FFFFFF" fill-rule="evenodd" transform="translate(356.9609375,38.75)"/>

<!-- Shine line - made transparent -->
<path d="M0 0 C2.5 1.5 2.5 1.5 4 4 C4.5625 7.4375 4.5625 7.4375 4 11 C0.15037198 15.87370382 -3.64698016 17.19862174 -9.375 18.8125 C-23.06367553 23.04870865 -34.37811221 29.27714347 -45 39 C-45.80179688 39.7321875 -46.60359375 40.464375 -47.4296875 41.21875 C-58.90541015 52.19216829 -67.4061618 66.67349653 -72.11328125 81.828125 C-73.0995162 84.24374893 -73.90255343 85.45141795 -76 87 C-79.07088466 87.67864854 -81.91403557 87.57271052 -85 87 C-87.625 85.0625 -87.625 85.0625 -89 82 C-89.60562213 63.2257139 -74.60063952 43.58082124 -62.44042969 30.51464844 C-50.15599405 17.59725205 -19.32532635 -6.5788345 0 0 Z " fill="none" fill-opacity="0" transform="translate(277,219)"/>

<!-- Shine line - made transparent -->
<path d="M0 0 C0.69826904 -0.02618408 1.39653809 -0.05236816 2.1159668 -0.0793457 C5.51091455 -0.09039883 7.42300079 0.13860248 10.203125 2.1484375 C11.8317784 4.49271133 12.29397396 5.5606664 12.25 8.375 C12.26546875 9.365 12.26546875 9.365 12.28125 10.375 C11.47480248 13.41103772 10.26834585 14.50014315 7.75 16.375 C4.98190826 17.04256474 2.42917892 17.51621204 -0.375 17.875 C-14.35930352 20.03599525 -24.47560387 25.17917424 -33.68359375 36.203125 C-40.12011217 45.12757448 -42.3026126 54.61726938 -43.4921875 65.38671875 C-44.38079361 68.89075829 -45.37795869 70.21839551 -48.25 72.375 C-50.25 72.90625 -50.25 72.90625 -52.25 72.875 C-52.91 72.8853125 -53.57 72.895625 -54.25 72.90625 C-57.27447574 72.10287363 -58.40739738 70.89241542 -60.25 68.375 C-60.66069912 65.72055493 -60.82244145 63.58082882 -60.75 60.9375 C-60.73718994 60.22811279 -60.72437988 59.51872559 -60.71118164 58.7878418 C-60.10715514 42.79458229 -52.25354885 28.25176302 -41.140625 17.03515625 C-29.76292421 6.56459647 -15.39028867 0.35263319 0 0 Z " fill="none" fill-opacity="0" transform="translate(148.25,119.625)"/>

<!-- Small bubbles - white fill -->
<path d="M0 0 C5.33289941 1.08465751 7.93250995 3.9605605 11.6875 7.75 C12.50347656 8.54148437 13.31945312 9.33296875 14.16015625 10.1484375 C21.5798613 17.41528017 21.5798613 17.41528017 22 22.625 C21.94090627 25.57968653 21.75314964 26.64058393 20.1875 29.25 C17.37101116 30.93989331 15.11998193 31.50307201 11.82421875 31.3203125 C7.48566557 30.16230745 4.74114761 26.88340706 1.6875 23.75 C0.8728125 22.95851563 0.058125 22.16703125 -0.78125 21.3515625 C-8.15501209 14.14114325 -8.15501209 14.14114325 -8.6875 9.4375 C-8.3125 5.75 -8.3125 5.75 -6.25 2.8125 C-3.3125 0.75 -3.3125 0.75 0 0 Z " fill="#FFFFFF" fill-rule="evenodd" transform="translate(90.3125,401.25)"/>
<path d="M0 0 C3.57632467 2.51103647 4.78325846 4.04272488 5.75 8.3125 C4.66534249 13.64539941 1.7894395 16.24500995 -2 20 C-2.79148437 20.81597656 -3.58296875 21.63195312 -4.3984375 22.47265625 C-11.66528017 29.8923613 -11.66528017 29.8923613 -16.875 30.3125 C-19.82968653 30.25340627 -20.89058393 30.06564964 -23.5 28.5 C-25.18989331 25.68351116 -25.75307201 23.43248193 -25.5703125 20.13671875 C-24.41230745 15.79816557 -21.13340706 13.05364761 -18 10 C-17.20851563 9.1853125 -16.41703125 8.370625 -15.6015625 7.53125 C-7.49211204 -0.7619097 -7.49211204 -0.7619097 0 0 Z " fill="#FFFFFF" fill-rule="evenodd" transform="translate(73,402)"/>
<path d="M0 0 C2.5 1.5 2.5 1.5 4 4 C4.75359756 8.11053216 5.00055086 10.42459849 2.7421875 13.98046875 C0.92128098 16.10203657 -0.99765502 18.0486238 -3 20 C-3.79148437 20.8146875 -4.58296875 21.629375 -5.3984375 22.46875 C-12.60885675 29.84251209 -12.60885675 29.84251209 -17.3125 30.375 C-21 30 -21 30 -23.9375 27.9375 C-26 25 -26 25 -26.75 21.6875 C-25.66534249 16.35460059 -22.7894395 13.75499005 -19 10 C-18.20851563 9.18402344 -17.41703125 8.36804688 -16.6015625 7.52734375 C-8.14191186 -1.11026071 -8.14191186 -1.11026071 0 0 Z " fill="#FFFFFF" fill-rule="evenodd" transform="translate(108,368)"/>
<path d="M0 0 C4.33855318 1.15800505 7.08307114 4.43690544 10.13671875 7.5703125 C10.95140625 8.36179687 11.76609375 9.15328125 12.60546875 9.96875 C19.97923084 17.17916925 19.97923084 17.17916925 20.51171875 21.8828125 C20.13671875 25.5703125 20.13671875 25.5703125 18.07421875 28.5078125 C15.13671875 30.5703125 15.13671875 30.5703125 11.82421875 31.3203125 C6.49131934 30.23565499 3.8917088 27.359752 0.13671875 23.5703125 C-1.08724609 22.38308594 -1.08724609 22.38308594 -2.3359375 21.171875 C-9.75564255 13.90503233 -9.75564255 13.90503233 -10.17578125 8.6953125 C-10.11668752 5.74062597 -9.92893089 4.67972857 -8.36328125 2.0703125 C-5.54679241 0.38041919 -3.29576318 -0.18275951 0 0 Z " fill="#FFFFFF" fill-rule="evenodd" transform="translate(57.86328125,367.4296875)"/>
<path d="M0 0 C5.33289941 1.08465751 7.93250995 3.9605605 11.6875 7.75 C12.50347656 8.54148438 13.31945312 9.33296875 14.16015625 10.1484375 C21.5798613 17.41528017 21.5798613 17.41528017 22 22.625 C21.94090627 25.57968653 21.75314964 26.64058393 20.1875 29.25 C17.37101116 30.93989331 15.11998193 31.50307201 11.82421875 31.3203125 C7.48566557 30.16230745 4.74114761 26.88340706 1.6875 23.75 C0.8728125 22.95851562 0.058125 22.16703125 -0.78125 21.3515625 C-8.15501209 14.14114325 -8.15501209 14.14114325 -8.6875 9.4375 C-8.3125 5.75 -8.3125 5.75 -6.25 2.8125 C-3.3125 0.75 -3.3125 0.75 0 0 Z " fill="#FFFFFF" fill-rule="evenodd" transform="translate(442.3125,153.25)"/>
<path d="M0 0 C3.57632467 2.51103647 4.78325846 4.04272488 5.75 8.3125 C4.66534249 13.64539941 1.7894395 16.24500995 -2 20 C-2.79148437 20.81597656 -3.58296875 21.63195312 -4.3984375 22.47265625 C-11.66528017 29.8923613 -11.66528017 29.8923613 -16.875 30.3125 C-19.82968653 30.25340627 -20.89058393 30.06564964 -23.5 28.5 C-25.18989331 25.68351116 -25.75307201 23.43248193 -25.5703125 20.13671875 C-24.41230745 15.79816557 -21.13340706 13.05364761 -18 10 C-17.20851563 9.1853125 -16.41703125 8.370625 -15.6015625 7.53125 C-7.49211204 -0.7619097 -7.49211204 -0.7619097 0 0 Z " fill="#FFFFFF" fill-rule="evenodd" transform="translate(425,154)"/>
<path d="M0 0 C2.5 1.5 2.5 1.5 4 4 C4.75359756 8.11053216 5.00055086 10.42459849 2.7421875 13.98046875 C0.92128098 16.10203657 -0.99765502 18.0486238 -3 20 C-3.79148437 20.8146875 -4.58296875 21.629375 -5.3984375 22.46875 C-12.60885675 29.84251209 -12.60885675 29.84251209 -17.3125 30.375 C-21 30 -21 30 -23.9375 27.9375 C-26 25 -26 25 -26.75 21.6875 C-25.66534249 16.35460059 -22.7894395 13.75499005 -19 10 C-18.20851563 9.18402344 -17.41703125 8.36804688 -16.6015625 7.52734375 C-8.14191186 -1.11026071 -8.14191186 -1.11026071 0 0 Z " fill="#FFFFFF" fill-rule="evenodd" transform="translate(460,120)"/>
<path d="M0 0 C4.33855318 1.15800505 7.08307114 4.43690544 10.13671875 7.5703125 C10.95140625 8.36179687 11.76609375 9.15328125 12.60546875 9.96875 C19.97923084 17.17916925 19.97923084 17.17916925 20.51171875 21.8828125 C20.13671875 25.5703125 20.13671875 25.5703125 18.07421875 28.5078125 C15.13671875 30.5703125 15.13671875 30.5703125 11.82421875 31.3203125 C6.49131934 30.23565499 3.8917088 27.359752 0.13671875 23.5703125 C-1.08724609 22.38308594 -1.08724609 22.38308594 -2.3359375 21.171875 C-9.75564255 13.90503233 -9.75564255 13.90503233 -10.17578125 8.6953125 C-10.11668752 5.74062597 -9.92893089 4.67972857 -8.36328125 2.0703125 C-5.54679241 0.38041919 -3.29576318 -0.18275951 0 0 Z " fill="#FFFFFF" fill-rule="evenodd" transform="translate(409.86328125,119.4296875)"/>
<path d="M0 0 C2.4375 1.625 2.4375 1.625 4 4 C4.5625 7.4375 4.5625 7.4375 4 11 C0.15037198 15.87370382 -3.64698016 17.19862174 -9.375 18.8125 C-23.06367553 23.04870865 -34.37811221 29.27714347 -45 39 C-45.80179688 39.7321875 -46.60359375 40.464375 -47.4296875 41.21875 C-58.90541015 52.19216829 -67.4061618 66.67349653 -72.11328125 81.828125 C-73.0995162 84.24374893 -73.90255343 85.45141795 -76 87 C-79.07088466 87.67864854 -81.91403557 87.57271052 -85 87 C-87.625 85.0625 -87.625 85.0625 -89 82 C-89.60562213 63.2257139 -74.60063952 43.58082124 -62.44042969 30.51464844 C-50.15599405 17.59725205 -19.32532635 -6.5788345 0 0 Z " transform="translate(277,219)"/>

<path d="M0 0 C0.69826904 -0.02618408 1.39653809 -0.05236816 2.1159668 -0.0793457 C5.51091455 -0.09039883 7.42300079 0.13860248 10.203125 2.1484375 C11.8317784 4.49271133 12.29397396 5.5606664 12.25 8.375 C12.26546875 9.365 12.26546875 9.365 12.28125 10.375 C11.47480248 13.41103772 10.26834585 14.50014315 7.75 16.375 C4.98190826 17.04256474 2.42917892 17.51621204 -0.375 17.875 C-14.35930352 20.03599525 -24.47560387 25.17917424 -33.68359375 36.203125 C-40.12011217 45.12757448 -42.3026126 54.61726938 -43.4921875 65.38671875 C-44.38079361 68.89075829 -45.37795869 70.21839551 -48.25 72.375 C-50.25 72.90625 -50.25 72.90625 -52.25 72.875 C-52.91 72.8853125 -53.57 72.895625 -54.25 72.90625 C-57.27447574 72.10287363 -58.40739738 70.89241542 -60.25 68.375 C-60.66069912 65.72055493 -60.82244145 63.58082882 -60.75 60.9375 C-60.73718994 60.22811279 -60.72437988 59.51872559 -60.71118164 58.7878418 C-60.10715514 42.79458229 -52.25354885 28.25176302 -41.140625 17.03515625 C-29.76292421 6.56459647 -15.39028867 0.35263319 0 0 Z " fill="" transform="translate(148.25,119.625)"/>

</svg>
