<?xml version="1.0" encoding="UTF-8"?>
<svg version="1.1" xmlns="http://www.w3.org/2000/svg" width="406" height="615">
<path d="M0 0 C0.56976563 0.23074219 1.13953125 0.46148437 1.7265625 0.69921875 C2.27335363 17.01182068 0.87587019 33.87095649 -10.2734375 46.69921875 C-14.75725823 49.76709609 -19.77993576 51.79602163 -24.7265625 54.00390625 C-27.51103404 55.47465868 -27.51103404 55.47465868 -28.1328125 58.39453125 C-28.17921875 59.15507813 -28.225625 59.915625 -28.2734375 60.69921875 C-27.40976563 60.539375 -26.54609375 60.37953125 -25.65625 60.21484375 C-15.75628883 58.70584274 -6.79459367 59.80147557 2.7265625 62.69921875 C3.9228125 63.04984375 5.1190625 63.40046875 6.3515625 63.76171875 C8.7265625 64.69921875 8.7265625 64.69921875 10.7265625 66.69921875 C10.47148521 70.52537808 8.51772934 72.25460618 5.7265625 74.69921875 C2.78125 76.18359375 2.78125 76.18359375 -0.3984375 77.44921875 C-1.45289063 77.8771875 -2.50734375 78.30515625 -3.59375 78.74609375 C-6.2734375 79.69921875 -6.2734375 79.69921875 -8.2734375 79.69921875 C-8.2734375 80.35921875 -8.2734375 81.01921875 -8.2734375 81.69921875 C-16.16396334 83.28464125 -22.547592 84.15816342 -30.2734375 81.69921875 C-31.60498117 81.35880672 -32.93786055 81.02344567 -34.2734375 80.69921875 C-34.2734375 80.03921875 -34.2734375 79.37921875 -34.2734375 78.69921875 C-36.2534375 78.69921875 -38.2334375 78.69921875 -40.2734375 78.69921875 C-40.3559375 79.68921875 -40.4384375 80.67921875 -40.5234375 81.69921875 C-41.13651757 86.17378823 -43.09311795 89.7949256 -45.2734375 93.69921875 C-44.9434375 94.02921875 -44.6134375 94.35921875 -44.2734375 94.69921875 C-43.25443359 94.21195313 -43.25443359 94.21195313 -42.21484375 93.71484375 C-30.85377147 89.79202995 -15.35055925 92.77877308 -4.8203125 97.89453125 C-4.30984375 98.16007812 -3.799375 98.425625 -3.2734375 98.69921875 C-3.9334375 100.34921875 -4.5934375 101.99921875 -5.2734375 103.69921875 C-6.2634375 103.69921875 -7.2534375 103.69921875 -8.2734375 103.69921875 C-8.6034375 104.68921875 -8.9334375 105.67921875 -9.2734375 106.69921875 C-11.63154278 108.21052313 -13.92399314 109.53505213 -16.3984375 110.82421875 C-17.37683594 111.36369141 -17.37683594 111.36369141 -18.375 111.9140625 C-26.74868695 116.35012285 -35.05592977 116.08539922 -44.2734375 114.69921875 C-46.54415918 113.90151169 -48.21885735 112.9763902 -50.2734375 111.69921875 C-50.9334375 111.69921875 -51.5934375 111.69921875 -52.2734375 111.69921875 C-52.9429631 114.32351999 -53.60917468 116.94858532 -54.2734375 119.57421875 C-54.55960938 120.69376953 -54.55960938 120.69376953 -54.8515625 121.8359375 C-55.89513293 125.71871625 -55.89513293 125.71871625 -56.2734375 129.69921875 C-55.6134375 129.03921875 -54.9534375 128.37921875 -54.2734375 127.69921875 C-40.5771684 121.40951577 -26.98284112 120.48153671 -12.2734375 123.69921875 C-12.2734375 125.34921875 -12.2734375 126.99921875 -12.2734375 128.69921875 C-12.9334375 128.69921875 -13.5934375 128.69921875 -14.2734375 128.69921875 C-14.5003125 129.25609375 -14.7271875 129.81296875 -14.9609375 130.38671875 C-17.87542981 135.52177662 -22.79232956 138.98085259 -27.2734375 142.69921875 C-27.8715625 143.37984375 -28.4696875 144.06046875 -29.0859375 144.76171875 C-37.09220171 151.85298133 -46.20878171 151.17844495 -56.30981445 150.8762207 C-58.2734375 150.69921875 -58.2734375 150.69921875 -62.2734375 149.69921875 C-63.2634375 155.63921875 -64.2534375 161.57921875 -65.2734375 167.69921875 C-64.2834375 167.69921875 -63.2934375 167.69921875 -62.2734375 167.69921875 C-61.9434375 166.70921875 -61.6134375 165.71921875 -61.2734375 164.69921875 C-57.21488206 159.60361918 -49.68908185 158.19053624 -43.5859375 156.94921875 C-39.41138272 156.58318263 -35.21183717 156.60230682 -31.0234375 156.57421875 C-30.32516846 156.56938477 -29.62689941 156.56455078 -28.9074707 156.55957031 C-25.55464091 156.57089061 -22.47831755 156.65845873 -19.2734375 157.69921875 C-19.79953 161.48708472 -20.65447661 163.87074099 -23.2734375 166.69921875 C-23.9334375 166.69921875 -24.5934375 166.69921875 -25.2734375 166.69921875 C-25.6034375 168.01921875 -25.9334375 169.33921875 -26.2734375 170.69921875 C-26.9334375 170.69921875 -27.5934375 170.69921875 -28.2734375 170.69921875 C-28.53125 171.28832031 -28.7890625 171.87742188 -29.0546875 172.484375 C-32.31375996 178.40711246 -39.07777306 182.94617022 -45.06640625 185.83203125 C-52.27382129 187.78093032 -59.89136205 186.95915098 -67.2734375 186.69921875 C-67.2734375 192.96921875 -67.2734375 199.23921875 -67.2734375 205.69921875 C-66.2834375 204.04921875 -65.2934375 202.39921875 -64.2734375 200.69921875 C-62.09228286 198.51806411 -59.93714074 197.24788342 -57.2734375 195.69921875 C-56.4896875 195.20421875 -55.7059375 194.70921875 -54.8984375 194.19921875 C-49.00952971 190.83412859 -43.08955903 188.96183313 -36.5234375 187.44921875 C-35.76933594 187.26359375 -35.01523438 187.07796875 -34.23828125 186.88671875 C-28.64506485 185.57534297 -28.64506485 185.57534297 -25.2734375 186.69921875 C-26.92675927 197.65652773 -30.60082809 205.90748666 -37.2734375 214.69921875 C-37.6034375 215.35921875 -37.9334375 216.01921875 -38.2734375 216.69921875 C-38.9334375 216.69921875 -39.5934375 216.69921875 -40.2734375 216.69921875 C-40.6034375 217.68921875 -40.9334375 218.67921875 -41.2734375 219.69921875 C-43.1640625 221.234375 -43.1640625 221.234375 -45.5234375 222.76171875 C-46.29171875 223.26832031 -47.06 223.77492187 -47.8515625 224.296875 C-51.90455827 226.64369029 -55.88193742 227.96537683 -60.4609375 228.88671875 C-61.32074219 229.06589844 -62.18054688 229.24507812 -63.06640625 229.4296875 C-65.2734375 229.69921875 -65.2734375 229.69921875 -67.2734375 228.69921875 C-66.2834375 239.09421875 -66.2834375 239.09421875 -65.2734375 249.69921875 C-63.08937874 248.84937195 -63.08937874 248.84937195 -62.1484375 246.57421875 C-58.66015286 241.22551564 -53.52731431 236.4581216 -47.2734375 234.69921875 C-47.2734375 234.03921875 -47.2734375 233.37921875 -47.2734375 232.69921875 C-44.54912429 231.70062708 -41.82326656 230.70695762 -39.09375 229.72265625 C-37.06265586 228.98561101 -35.04010755 228.22486108 -33.0234375 227.44921875 C-29.69808604 226.54230471 -26.70362902 226.56201109 -23.2734375 226.69921875 C-22.9434375 228.01921875 -22.6134375 229.33921875 -22.2734375 230.69921875 C-22.9334375 230.69921875 -23.5934375 230.69921875 -24.2734375 230.69921875 C-24.40298828 231.68148437 -24.40298828 231.68148437 -24.53515625 232.68359375 C-26.01860411 242.31920003 -29.07653906 252.00651724 -35.2734375 259.69921875 C-35.9334375 259.69921875 -36.5934375 259.69921875 -37.2734375 259.69921875 C-37.6034375 260.68921875 -37.9334375 261.67921875 -38.2734375 262.69921875 C-40.79204754 266.06311572 -44.1505741 266.96954765 -48.0234375 268.32421875 C-49.21453125 268.74960937 -50.405625 269.175 -51.6328125 269.61328125 C-55.24748628 270.69147794 -58.53992751 271.26842914 -62.2734375 271.69921875 C-62.12197266 272.25907471 -61.97050781 272.81893066 -61.81445312 273.39575195 C-61.13024299 275.93338207 -60.4517809 278.47251439 -59.7734375 281.01171875 C-59.53496094 281.89279297 -59.29648438 282.77386719 -59.05078125 283.68164062 C-58.82519531 284.52919922 -58.59960938 285.37675781 -58.3671875 286.25 C-58.05297852 287.42042847 -58.05297852 287.42042847 -57.73242188 288.61450195 C-57.2734375 290.69921875 -57.2734375 290.69921875 -57.2734375 293.69921875 C-56.6134375 293.36921875 -55.9534375 293.03921875 -55.2734375 292.69921875 C-55.2734375 292.03921875 -55.2734375 291.37921875 -55.2734375 290.69921875 C-54.6134375 290.69921875 -53.9534375 290.69921875 -53.2734375 290.69921875 C-53.0465625 290.01859375 -52.8196875 289.33796875 -52.5859375 288.63671875 C-48.81512386 280.1972787 -43.28358591 276.14849687 -35.3984375 271.63671875 C-34.79902344 271.28544922 -34.19960937 270.93417969 -33.58203125 270.57226562 C-28.95785241 267.91913048 -24.67242476 265.69921875 -19.2734375 265.69921875 C-19.2734375 265.03921875 -19.2734375 264.37921875 -19.2734375 263.69921875 C-18.2834375 264.02921875 -17.2934375 264.35921875 -16.2734375 264.69921875 C-16.89024478 279.65147804 -20.27970542 294.08402664 -30.75 305.49609375 C-33.10098829 307.35277168 -35.34076305 307.62939317 -38.2734375 307.69921875 C-38.2734375 308.35921875 -38.2734375 309.01921875 -38.2734375 309.69921875 C-39.73050476 310.20289632 -41.18913846 310.70204431 -42.6484375 311.19921875 C-43.46054688 311.47765625 -44.27265625 311.75609375 -45.109375 312.04296875 C-47.2734375 312.69921875 -47.2734375 312.69921875 -49.2734375 312.69921875 C-49.2734375 314.67921875 -49.2734375 316.65921875 -49.2734375 318.69921875 C-48.6134375 319.02921875 -47.9534375 319.35921875 -47.2734375 319.69921875 C-46.45703125 321.66015625 -46.45703125 321.66015625 -45.7109375 324.07421875 C-45.46214844 324.86570312 -45.21335937 325.6571875 -44.95703125 326.47265625 C-44.73144531 327.20742188 -44.50585938 327.9421875 -44.2734375 328.69921875 C-43.7784375 330.18421875 -43.7784375 330.18421875 -43.2734375 331.69921875 C-41.6872885 329.31999525 -40.39587116 327.03770004 -39.0859375 324.51171875 C-36.40951548 319.64981603 -33.09870145 315.69563545 -29.2734375 311.69921875 C-28.69722656 311.04953125 -28.12101562 310.39984375 -27.52734375 309.73046875 C-24.55046025 307.04766213 -21.31723651 305.34554873 -17.7734375 303.51171875 C-17.10957031 303.15658203 -16.44570312 302.80144531 -15.76171875 302.43554688 C-12.62677852 300.786731 -9.72719113 299.46266511 -6.2734375 298.69921875 C-5.74439944 314.53117259 -5.61586885 332.1091952 -16.97265625 344.5625 C-20.60335091 347.85052236 -26.24720476 352.69921875 -31.2734375 352.69921875 C-28.80245103 361.98994798 -28.80245103 361.98994798 -23.2734375 369.69921875 C-23.16386719 369.14234375 -23.05429688 368.58546875 -22.94140625 368.01171875 C-21.83068502 362.66580844 -20.30118224 357.76858059 -18.2734375 352.69921875 C-17.6134375 352.69921875 -16.9534375 352.69921875 -16.2734375 352.69921875 C-16.0053125 351.72984375 -15.7371875 350.76046875 -15.4609375 349.76171875 C-15.0690625 348.75109375 -14.6771875 347.74046875 -14.2734375 346.69921875 C-13.2834375 346.36921875 -12.2934375 346.03921875 -11.2734375 345.69921875 C-11.2734375 345.03921875 -11.2734375 344.37921875 -11.2734375 343.69921875 C-10.6134375 343.69921875 -9.9534375 343.69921875 -9.2734375 343.69921875 C-8.6134375 342.04921875 -7.9534375 340.39921875 -7.2734375 338.69921875 C-6.6134375 338.69921875 -5.9534375 338.69921875 -5.2734375 338.69921875 C-4.9846875 338.05984375 -4.6959375 337.42046875 -4.3984375 336.76171875 C-3.2734375 334.69921875 -3.2734375 334.69921875 -1.2734375 333.69921875 C-0.9434375 332.70921875 -0.6134375 331.71921875 -0.2734375 330.69921875 C1.3765625 330.69921875 3.0265625 330.69921875 4.7265625 330.69921875 C8.93846604 343.44774822 12.05123724 359.75000975 6.7265625 372.69921875 C1.81054526 382.24953304 1.81054526 382.24953304 -2.2734375 385.69921875 C-2.9334375 385.69921875 -3.5934375 385.69921875 -4.2734375 385.69921875 C-4.6034375 386.68921875 -4.9334375 387.67921875 -5.2734375 388.69921875 C-5.9334375 388.69921875 -6.5934375 388.69921875 -7.2734375 388.69921875 C-7.2734375 392.58793559 -7.06053906 393.52214931 -5.2734375 396.69921875 C-5.0259375 397.33859375 -4.7784375 397.97796875 -4.5234375 398.63671875 C-2.65816712 401.71441488 -0.10056204 403.48668651 2.7265625 405.69921875 C2.85611328 404.40951172 2.85611328 404.40951172 2.98828125 403.09375 C4.55081482 389.94839881 9.06727035 379.11841731 15.7265625 367.69921875 C16.3865625 367.69921875 17.0465625 367.69921875 17.7265625 367.69921875 C18.0359375 367.08046875 18.3453125 366.46171875 18.6640625 365.82421875 C19.3515625 364.44921875 20.0390625 363.07421875 20.7265625 361.69921875 C21.3865625 361.69921875 22.0465625 361.69921875 22.7265625 361.69921875 C22.7265625 361.03921875 22.7265625 360.37921875 22.7265625 359.69921875 C24.5390625 359.76171875 24.5390625 359.76171875 26.7265625 360.69921875 C27.93574492 363.07107658 28.86109584 365.21036197 29.7265625 367.69921875 C30.314375 369.21515625 30.314375 369.21515625 30.9140625 370.76171875 C31.77405577 373.87092518 31.87942398 376.48912767 31.7265625 379.69921875 C32.3865625 380.02921875 33.0465625 380.35921875 33.7265625 380.69921875 C36.09538974 390.58451703 36.29101105 403.44353141 31.7265625 412.69921875 C31.33984375 413.51261719 30.953125 414.32601563 30.5546875 415.1640625 C27.09211762 421.9288981 27.09211762 421.9288981 22.7265625 423.69921875 C22.24724384 426.33547139 22.34115962 428.08542897 23.78125 430.37890625 C27.11514095 434.43363848 30.86408839 437.48235911 35.1875 440.4375 C35.94933594 441.06205078 35.94933594 441.06205078 36.7265625 441.69921875 C36.7265625 442.35921875 36.7265625 443.01921875 36.7265625 443.69921875 C37.3865625 443.69921875 38.0465625 443.69921875 38.7265625 443.69921875 C38.69175781 442.64863281 38.65695313 441.59804688 38.62109375 440.515625 C38.43643714 432.65319037 38.46736353 425.98750621 41.7265625 418.69921875 C42.13648438 417.69890625 42.54640625 416.69859375 42.96875 415.66796875 C43.81469656 413.60566117 44.67177987 411.54786568 45.54296875 409.49609375 C46.32226871 407.65457965 47.07194726 405.80020253 47.7890625 403.93359375 C48.79742548 401.53032865 49.8685346 400.48292553 51.7265625 398.69921875 C52.76013397 397.05316049 53.76716582 395.38958433 54.7265625 393.69921875 C57.30764138 394.05522963 58.46078228 394.39697265 60.20703125 396.3828125 C67.94592403 408.18014777 71.56313477 425.77187903 69.7265625 439.69921875 C67.6050227 447.0656764 64.30520853 453.93955402 60.7265625 460.69921875 C65.3813599 465.83554692 70.92198811 469.93232104 76.7265625 473.69921875 C77.3865625 473.69921875 78.0465625 473.69921875 78.7265625 473.69921875 C78.7265625 474.35921875 78.7265625 475.01921875 78.7265625 475.69921875 C80.0465625 475.69921875 81.3665625 475.69921875 82.7265625 475.69921875 C82.2521875 474.85359375 81.7778125 474.00796875 81.2890625 473.13671875 C76.41238253 462.40802281 78.92012557 449.89267613 80.7265625 438.69921875 C81.3865625 438.69921875 82.0465625 438.69921875 82.7265625 438.69921875 C82.6440625 437.91546875 82.5615625 437.13171875 82.4765625 436.32421875 C83.04550536 428.0745473 87.59904719 420.70246194 91.7265625 413.69921875 C93.0465625 413.69921875 94.3665625 413.69921875 95.7265625 413.69921875 C95.7265625 414.35921875 95.7265625 415.01921875 95.7265625 415.69921875 C96.3865625 415.69921875 97.0465625 415.69921875 97.7265625 415.69921875 C101.7265625 420.9933364 101.7265625 420.9933364 101.7265625 424.69921875 C102.3865625 424.69921875 103.0465625 424.69921875 103.7265625 424.69921875 C105.22977151 428.66399334 106.72296742 432.63158971 108.19140625 436.609375 C109.00873522 438.81720534 109.84769014 440.97563824 110.79296875 443.1328125 C115.14805045 453.58921639 113.75492807 467.02546826 109.796875 477.31640625 C108.82695754 479.47571154 107.81238955 481.59604023 106.7265625 483.69921875 C106.0665625 483.69921875 105.4065625 483.69921875 104.7265625 483.69921875 C104.7265625 485.67921875 104.7265625 487.65921875 104.7265625 489.69921875 C112.6072074 493.74173976 120.43698758 497.55350058 128.7265625 500.69921875 C130.60280753 501.44609866 132.47783207 502.19605259 134.3515625 502.94921875 C135.60839844 503.45195313 135.60839844 503.45195313 136.890625 503.96484375 C137.49648438 504.2071875 138.10234375 504.44953125 138.7265625 504.69921875 C137.52274802 502.20560304 136.27227528 500.01778792 134.7265625 497.69921875 C126.51219769 483.41603218 131.08170261 462.18682571 134.9453125 447.15234375 C135.67943052 444.84721318 136.57563731 442.82247729 137.7265625 440.69921875 C139.8515625 440.69921875 139.8515625 440.69921875 142.7265625 441.69921875 C144.41415006 443.55026374 145.80798637 445.50421382 147.234375 447.5625 C148.59668957 449.51324887 150.03735322 451.28465729 151.6015625 453.07421875 C153.7265625 455.69921875 153.7265625 455.69921875 153.7265625 457.69921875 C154.3865625 457.69921875 155.0465625 457.69921875 155.7265625 457.69921875 C161.51212153 465.46839802 166.01974877 474.98052991 166.7265625 484.69921875 C166.80390625 485.65828125 166.80390625 485.65828125 166.8828125 486.63671875 C167.15391801 492.78177689 165.82557138 498.41580713 164.3828125 504.3671875 C163.7506764 507.57678331 163.60782622 510.43891852 163.7265625 513.69921875 C165.53722553 514.15188451 167.34816636 514.60345637 169.16015625 515.05078125 C171.05246814 515.52889963 172.93984873 516.02663773 174.82421875 516.53515625 C176.41556641 516.95667969 176.41556641 516.95667969 178.0390625 517.38671875 C179.04582031 517.65871094 180.05257813 517.93070313 181.08984375 518.2109375 C183.82080752 518.93651825 183.82080752 518.93651825 186.7265625 517.69921875 C186.26765625 517.23773437 185.80875 516.77625 185.3359375 516.30078125 C180.48077208 511.13961801 177.82784013 506.43593287 175.7265625 499.69921875 C175.35402344 498.58160156 174.98148437 497.46398437 174.59765625 496.3125 C171.11032204 484.48958644 171.30810317 472.94398259 171.7265625 460.69921875 C172.50902344 460.85777344 173.29148437 461.01632812 174.09765625 461.1796875 C175.65572808 461.48759768 177.21877916 461.77379703 178.7890625 462.01171875 C180.7265625 462.69921875 180.7265625 462.69921875 182.53515625 464.51953125 C184.79144156 466.76375087 187.09965686 468.47173884 189.7265625 470.26171875 C191.39560113 471.40409428 193.06238986 472.54976617 194.7265625 473.69921875 C195.4896875 474.22386719 196.2528125 474.74851562 197.0390625 475.2890625 C197.5959375 475.75441406 198.1528125 476.21976562 198.7265625 476.69921875 C198.7265625 477.35921875 198.7265625 478.01921875 198.7265625 478.69921875 C199.7165625 478.69921875 200.7065625 478.69921875 201.7265625 478.69921875 C209.204317 484.8552394 214.7347515 495.12311255 215.7265625 504.69921875 C215.83308769 508.15912817 215.82115541 511.61312205 215.7890625 515.07421875 C215.78229492 516.46447266 215.78229492 516.46447266 215.77539062 517.8828125 C215.76367824 520.15501584 215.74727622 522.42708263 215.7265625 524.69921875 C216.32082031 524.75456787 216.91507812 524.80991699 217.52734375 524.86694336 C220.26053839 525.12225052 222.99354971 525.37947255 225.7265625 525.63671875 C226.66113281 525.72373047 227.59570312 525.81074219 228.55859375 525.90039062 C233.96229597 526.41053034 239.34468157 526.99475085 244.7265625 527.69921875 C244.7265625 528.68921875 244.7265625 529.67921875 244.7265625 530.69921875 C243.41667358 530.73680298 243.41667358 530.73680298 242.08032227 530.77514648 C238.85053698 530.87009584 235.62092096 530.96933904 232.39135742 531.0715332 C230.99167051 531.11493309 229.59192891 531.15660439 228.19213867 531.1965332 C226.18394755 531.2541132 224.17595101 531.31835875 222.16796875 531.3828125 C220.35341187 531.43779907 220.35341187 531.43779907 218.50219727 531.49389648 C215.81950794 531.38860141 215.81950794 531.38860141 214.7265625 532.69921875 C214.39562669 534.46983072 214.07007575 536.24167276 213.77612305 538.01879883 C212.60101059 545.09562239 211.18652833 551.35023855 207.7265625 557.69921875 C206.93958984 559.17648437 206.93958984 559.17648437 206.13671875 560.68359375 C204.68866173 563.36846183 203.21851872 566.0385635 201.7265625 568.69921875 C201.0665625 568.69921875 200.4065625 568.69921875 199.7265625 568.69921875 C199.3553125 569.56546875 199.3553125 569.56546875 198.9765625 570.44921875 C197.53262551 573.04830533 195.99134263 574.77758713 193.7265625 576.69921875 C192.7365625 576.69921875 191.7465625 576.69921875 190.7265625 576.69921875 C190.7265625 577.35921875 190.7265625 578.01921875 190.7265625 578.69921875 C164.16090593 593.39618845 164.16090593 593.39618845 156.7265625 592.69921875 C156.3965625 593.35921875 156.0665625 594.01921875 155.7265625 594.69921875 C151.9306845 596.21756995 147.7388603 595.76609038 143.7265625 595.69921875 C144.2010037 580.7543208 151.23135744 566.90101129 157.7265625 553.69921875 C158.3865625 553.69921875 159.0465625 553.69921875 159.7265625 553.69921875 C159.8090625 552.97734375 159.8915625 552.25546875 159.9765625 551.51171875 C160.88370081 548.10995007 162.32667129 546.24455791 164.7265625 543.69921875 C165.3865625 543.69921875 166.0465625 543.69921875 166.7265625 543.69921875 C167.3865625 542.37921875 168.0465625 541.05921875 168.7265625 539.69921875 C169.3865625 539.69921875 170.0465625 539.69921875 170.7265625 539.69921875 C170.7265625 539.03921875 170.7265625 538.37921875 170.7265625 537.69921875 C184.48518319 530.69921875 184.48518319 530.69921875 187.7265625 530.69921875 C187.7265625 529.70921875 187.7265625 528.71921875 187.7265625 527.69921875 C183.4365625 527.36921875 179.1465625 527.03921875 174.7265625 526.69921875 C174.7265625 526.03921875 174.7265625 525.37921875 174.7265625 524.69921875 C174.14648438 524.72242188 173.56640625 524.745625 172.96875 524.76953125 C168.11245084 524.88172298 164.29723855 524.5743679 159.7265625 522.69921875 C159.4171875 523.85421875 159.1078125 525.00921875 158.7890625 526.19921875 C157.16561571 531.10077926 154.81065812 535.46592716 152.2890625 539.94921875 C151.90564697 540.63435547 151.52223145 541.31949219 151.12719727 542.02539062 C148.9412865 545.84154313 146.70645064 549.43462792 143.7265625 552.69921875 C143.0665625 552.69921875 142.4065625 552.69921875 141.7265625 552.69921875 C141.66726563 553.28960938 141.60796875 553.88 141.546875 554.48828125 C139.72725505 559.39259026 133.22456246 561.50019655 128.7265625 563.69921875 C121.91983543 566.81125711 115.17893624 569.64052499 107.7265625 570.69921875 C106.38989305 571.01891182 105.05616711 571.35131004 103.7265625 571.69921875 C94.96289367 573.76569488 86.68018754 573.91671571 77.7265625 573.69921875 C80.04558682 563.90020421 84.14310308 556.01624684 89.7265625 547.69921875 C91.57310118 544.70976198 93.41367097 541.71687881 95.24609375 538.71875 C95.73464844 538.05230469 96.22320312 537.38585937 96.7265625 536.69921875 C97.3865625 536.69921875 98.0465625 536.69921875 98.7265625 536.69921875 C99.0565625 536.03921875 99.3865625 535.37921875 99.7265625 534.69921875 C100.68005266 533.47052297 101.66264033 532.26417272 102.6640625 531.07421875 C103.18871094 530.44257812 103.71335938 529.8109375 104.25390625 529.16015625 C105.7265625 527.69921875 105.7265625 527.69921875 107.7265625 527.69921875 C107.7265625 527.03921875 107.7265625 526.37921875 107.7265625 525.69921875 C109.3765625 525.03921875 111.0265625 524.37921875 112.7265625 523.69921875 C112.7265625 523.03921875 112.7265625 522.37921875 112.7265625 521.69921875 C117.99738527 519.41188057 123.27292686 517.5170973 128.7265625 515.69921875 C128.7265625 514.70921875 128.7265625 513.71921875 128.7265625 512.69921875 C127.39625 512.79203125 127.39625 512.79203125 126.0390625 512.88671875 C122.23520064 512.67140581 120.92971608 511.67180829 117.7265625 509.69921875 C115.49129588 508.68686974 113.23984397 507.70978221 110.9765625 506.76171875 C105.53225079 504.46613196 100.1181753 502.11614863 94.7265625 499.69921875 C94.59677002 500.2826001 94.46697754 500.86598145 94.33325195 501.46704102 C93.34975017 505.08561517 91.59196488 508.29613996 89.9140625 511.63671875 C89.57052734 512.33990234 89.22699219 513.04308594 88.87304688 513.76757812 C86.8667831 517.78386977 84.81797291 521.38745623 81.7265625 524.69921875 C81.0665625 524.69921875 80.4065625 524.69921875 79.7265625 524.69921875 C79.3965625 525.68921875 79.0665625 526.67921875 78.7265625 527.69921875 C76.25371567 529.66639615 73.47377273 531.14582239 70.7265625 532.69921875 C70.08074219 533.075625 69.43492187 533.45203125 68.76953125 533.83984375 C64.26930576 536.29617864 59.97416057 537.45668658 54.92578125 538.3046875 C52.56107596 538.67452373 52.56107596 538.67452373 49.7265625 539.69921875 C46.67013107 540.24258434 43.60586429 540.7181518 40.5390625 541.19921875 C37.65932041 541.64091345 37.65932041 541.64091345 34.7265625 542.69921875 C32.83185434 542.76776825 30.9348791 542.78402247 29.0390625 542.76171875 C28.04519531 542.75269531 27.05132812 542.74367188 26.02734375 542.734375 C24.88845703 542.71697266 24.88845703 542.71697266 23.7265625 542.69921875 C22.7265625 540.69921875 22.7265625 540.69921875 23.40625 538.40625 C25.98608185 532.15901014 28.95581847 526.3077246 32.4140625 520.51171875 C32.8064209 519.85212158 33.1987793 519.19252441 33.60302734 518.51293945 C36.46696333 513.82901833 36.46696333 513.82901833 38.7265625 512.69921875 C39.0565625 511.70921875 39.3865625 510.71921875 39.7265625 509.69921875 C41.37086079 508.01047996 43.04040468 506.3461636 44.7265625 504.69921875 C45.2834375 503.87421875 45.8403125 503.04921875 46.4140625 502.19921875 C49.88811334 498.44348811 54.11894905 496.79235288 58.7265625 494.69921875 C59.49742187 494.3021875 60.26828125 493.90515625 61.0625 493.49609375 C66.54099331 490.76645849 70.61757539 490.31134655 76.7265625 490.69921875 C75.33460335 487.91530045 73.57080471 487.72022878 70.7265625 486.69921875 C70.7265625 486.03921875 70.7265625 485.37921875 70.7265625 484.69921875 C68.60326732 483.59825088 66.54344789 482.6334853 64.2890625 481.82421875 C61.31604046 480.51898956 59.22563367 478.76095246 56.7265625 476.69921875 C53.75142726 474.73998335 51.24099592 473.35003975 47.7265625 472.69921875 C47.6646875 473.23546875 47.6028125 473.77171875 47.5390625 474.32421875 C46.32620986 477.86948032 44.28045324 479.95845795 41.7265625 482.69921875 C41.0665625 482.69921875 40.4065625 482.69921875 39.7265625 482.69921875 C39.7265625 483.35921875 39.7265625 484.01921875 39.7265625 484.69921875 C39.0665625 484.69921875 38.4065625 484.69921875 37.7265625 484.69921875 C37.7265625 485.35921875 37.7265625 486.01921875 37.7265625 486.69921875 C35.4140625 489.32421875 35.4140625 489.32421875 32.7265625 491.69921875 C31.7365625 491.69921875 30.7465625 491.69921875 29.7265625 491.69921875 C29.3965625 492.35921875 29.0665625 493.01921875 28.7265625 493.69921875 C15.67711788 503.41043335 -5.61686254 500.42705966 -20.8359375 498.19921875 C-23.98515887 497.71879227 -27.13084369 497.22121048 -30.2734375 496.69921875 C-30.96875 494.44921875 -30.96875 494.44921875 -31.2734375 491.69921875 C-30.015625 489.63671875 -30.015625 489.63671875 -28.1484375 487.69921875 C-27.50261719 487.01859375 -26.85679688 486.33796875 -26.19140625 485.63671875 C-25.55847656 484.99734375 -24.92554687 484.35796875 -24.2734375 483.69921875 C-23.52513672 482.89484375 -23.52513672 482.89484375 -22.76171875 482.07421875 C-21.64984276 480.89890238 -20.46750261 479.79093542 -19.2734375 478.69921875 C-18.6134375 478.69921875 -17.9534375 478.69921875 -17.2734375 478.69921875 C-16.9434375 477.70921875 -16.6134375 476.71921875 -16.2734375 475.69921875 C-15.2834375 475.69921875 -14.2934375 475.69921875 -13.2734375 475.69921875 C-12.9434375 474.70921875 -12.6134375 473.71921875 -12.2734375 472.69921875 C-6.80832122 467.69921875 -6.80832122 467.69921875 -4.2734375 467.69921875 C-4.2734375 467.03921875 -4.2734375 466.37921875 -4.2734375 465.69921875 C7.86719512 458.74296438 18.88540556 457.25031636 32.7265625 457.69921875 C31.7365625 457.36921875 30.7465625 457.03921875 29.7265625 456.69921875 C26.7265625 453.25477431 26.7265625 453.25477431 26.7265625 450.69921875 C25.7365625 450.36921875 24.7465625 450.03921875 23.7265625 449.69921875 C23.7265625 449.03921875 23.7265625 448.37921875 23.7265625 447.69921875 C22.7365625 447.69921875 21.7465625 447.69921875 20.7265625 447.69921875 C20.7265625 446.70921875 20.7265625 445.71921875 20.7265625 444.69921875 C20.1696875 444.43109375 19.6128125 444.16296875 19.0390625 443.88671875 C16.7265625 442.69921875 16.7265625 442.69921875 14.2265625 440.94921875 C13.4015625 440.53671875 12.5765625 440.12421875 11.7265625 439.69921875 C7.98419215 441.05562372 4.98357513 443.67539991 1.8515625 446.07421875 C-0.1806804 447.62828685 -2.22238439 449.17006211 -4.2734375 450.69921875 C-5.22476563 451.41335938 -6.17609375 452.1275 -7.15625 452.86328125 C-20.22336607 460.55945237 -38.24750763 458.29043 -52.20581055 454.79272461 C-57.1043316 453.47324635 -61.66369781 451.81434897 -66.2734375 449.69921875 C-64.93326234 445.44434569 -63.31794969 443.58815603 -59.7109375 441.01171875 C-56.45947983 438.8125476 -56.45947983 438.8125476 -54.2734375 435.69921875 C-53.6134375 435.69921875 -52.9534375 435.69921875 -52.2734375 435.69921875 C-52.2734375 435.03921875 -52.2734375 434.37921875 -52.2734375 433.69921875 C-50.819375 433.29703125 -50.819375 433.29703125 -49.3359375 432.88671875 C-48.3253125 432.49484375 -47.3146875 432.10296875 -46.2734375 431.69921875 C-45.9434375 430.70921875 -45.6134375 429.71921875 -45.2734375 428.69921875 C-42.91015625 427.09375 -42.91015625 427.09375 -39.9609375 425.51171875 C-38.99542969 424.98191406 -38.02992187 424.45210938 -37.03515625 423.90625 C-34.2734375 422.69921875 -34.2734375 422.69921875 -30.2734375 422.69921875 C-30.2734375 422.03921875 -30.2734375 421.37921875 -30.2734375 420.69921875 C-25.30677035 419.88859691 -20.57237629 419.56408032 -15.5234375 419.57421875 C-14.22921875 419.57164062 -12.935 419.5690625 -11.6015625 419.56640625 C-8.2734375 419.69921875 -8.2734375 419.69921875 -5.2734375 420.69921875 C-10.3392363 410.99461797 -10.3392363 410.99461797 -17.2734375 402.69921875 C-22.42255336 402.23111731 -25.8166947 405.31238597 -29.8359375 408.13671875 C-40.00937233 414.65815133 -52.67010689 416.63896434 -64.48535156 414.25244141 C-68.87535357 413.14198397 -73.17355968 411.77036946 -77.45996094 410.31445312 C-78.97616428 409.80007073 -80.50266505 409.31617334 -82.03125 408.83984375 C-87.29318261 407.18976035 -92.27767441 405.02585073 -97.2734375 402.69921875 C-97.0859375 400.38671875 -97.0859375 400.38671875 -96.2734375 397.69921875 C-92.23895474 394.69921875 -92.23895474 394.69921875 -89.2734375 394.69921875 C-89.2734375 394.03921875 -89.2734375 393.37921875 -89.2734375 392.69921875 C-88.314375 392.26609375 -88.314375 392.26609375 -87.3359375 391.82421875 C-85.12137671 390.87098424 -85.12137671 390.87098424 -84.2734375 388.69921875 C-82.3046875 387.76953125 -82.3046875 387.76953125 -79.7734375 386.82421875 C-76.35094712 385.51948558 -73.02199636 384.13923423 -69.7109375 382.57421875 C-63.02238039 379.57793391 -56.57430198 378.38854367 -49.2734375 378.69921875 C-48.9434375 378.03921875 -48.6134375 377.37921875 -48.2734375 376.69921875 C-47.4896875 376.96734375 -46.7059375 377.23546875 -45.8984375 377.51171875 C-41.38104581 378.99155396 -36.83073412 380.34824149 -32.2734375 381.69921875 C-34.87361437 374.51049446 -38.16234983 368.13992276 -42.2734375 361.69921875 C-42.9953125 362.15296875 -43.7171875 362.60671875 -44.4609375 363.07421875 C-47.03913193 364.5638422 -49.49328291 365.65395002 -52.2734375 366.69921875 C-53.52833984 367.21162109 -53.52833984 367.21162109 -54.80859375 367.734375 C-55.64261719 368.07339844 -56.47664063 368.41242188 -57.3359375 368.76171875 C-58.59083984 369.27412109 -58.59083984 369.27412109 -59.87109375 369.796875 C-71.46561977 374.15189209 -84.03132239 372.01167031 -95.2734375 367.69921875 C-96.58054687 367.23128906 -96.58054687 367.23128906 -97.9140625 366.75390625 C-106.17690823 363.66183505 -113.7438234 359.25483805 -121.2734375 354.69921875 C-121.19140625 352.92578125 -121.19140625 352.92578125 -120.2734375 350.69921875 C-118.03514767 349.29398778 -115.96695679 348.1712837 -113.5859375 347.07421875 C-112.66651367 346.625625 -112.66651367 346.625625 -111.72851562 346.16796875 C-108.84043916 344.78365214 -105.98745832 343.60601569 -102.94140625 342.61328125 C-100.15984456 341.87879554 -100.15984456 341.87879554 -98.2734375 339.69921875 C-95.47698756 338.89266371 -92.73654058 338.1945141 -89.8984375 337.57421875 C-89.08858398 337.39608643 -88.27873047 337.2179541 -87.44433594 337.03442383 C-78.99253849 335.27880532 -70.76555135 334.81208234 -62.2734375 336.69921875 C-62.2734375 337.35921875 -62.2734375 338.01921875 -62.2734375 338.69921875 C-58.9734375 339.35921875 -55.6734375 340.01921875 -52.2734375 340.69921875 C-55.96818445 330.07984438 -55.96818445 330.07984438 -60.2734375 319.69921875 C-61.12164062 320.04855469 -61.96984375 320.39789063 -62.84375 320.7578125 C-73.03324495 324.71044076 -82.31942647 325.76041434 -93.2734375 325.69921875 C-93.2734375 325.03921875 -93.2734375 324.37921875 -93.2734375 323.69921875 C-94.29179688 323.60382813 -95.31015625 323.5084375 -96.359375 323.41015625 C-100.49888429 322.65826933 -103.25188082 321.38682957 -106.8984375 319.32421875 C-107.98382813 318.71835937 -109.06921875 318.1125 -110.1875 317.48828125 C-111.20585938 316.89789063 -112.22421875 316.3075 -113.2734375 315.69921875 C-114.22992188 315.17070312 -115.18640625 314.6421875 -116.171875 314.09765625 C-116.86539063 313.63617188 -117.55890625 313.1746875 -118.2734375 312.69921875 C-118.2734375 312.03921875 -118.2734375 311.37921875 -118.2734375 310.69921875 C-119.0159375 310.43109375 -119.7584375 310.16296875 -120.5234375 309.88671875 C-123.16405699 308.74645124 -125.12896594 307.60541569 -127.2734375 305.69921875 C-127.2734375 305.03921875 -127.2734375 304.37921875 -127.2734375 303.69921875 C-128.2634375 303.69921875 -129.2534375 303.69921875 -130.2734375 303.69921875 C-130.15625 301.859375 -130.15625 301.859375 -129.2734375 299.69921875 C-115.94351363 292.71781945 -97.23156427 289.18441956 -82.54296875 292.2734375 C-77.08594543 294.00103785 -72.03242811 296.52655834 -67.2734375 299.69921875 C-67.78942934 291.81699855 -69.3655828 284.3546357 -71.2734375 276.69921875 C-71.96566406 276.84359375 -72.65789062 276.98796875 -73.37109375 277.13671875 C-85.49017343 279.43599078 -97.09435633 280.58007089 -108.2734375 274.69921875 C-109.18867187 274.25191406 -110.10390625 273.80460937 -111.046875 273.34375 C-117.07453259 270.26386469 -122.70873517 266.77401676 -127.2734375 261.69921875 C-127.2734375 261.03921875 -127.2734375 260.37921875 -127.2734375 259.69921875 C-128.5934375 259.03921875 -129.9134375 258.37921875 -131.2734375 257.69921875 C-131.2734375 257.03921875 -131.2734375 256.37921875 -131.2734375 255.69921875 C-131.8921875 255.43109375 -132.5109375 255.16296875 -133.1484375 254.88671875 C-135.2734375 253.69921875 -135.2734375 253.69921875 -137.2734375 250.69921875 C-137.2734375 249.70921875 -137.2734375 248.71921875 -137.2734375 247.69921875 C-135.48337809 247.33701609 -133.69131693 246.98469406 -131.8984375 246.63671875 C-130.90070313 246.43949219 -129.90296875 246.24226562 -128.875 246.0390625 C-126.2734375 245.69921875 -126.2734375 245.69921875 -124.2734375 246.69921875 C-124.2734375 246.03921875 -124.2734375 245.37921875 -124.2734375 244.69921875 C-91.70894119 242.07990057 -91.70894119 242.07990057 -79.5234375 251.38671875 C-76.66663284 253.89247042 -76.66663284 253.89247042 -74.2734375 253.69921875 C-75.2634375 241.81921875 -75.2634375 241.81921875 -76.2734375 229.69921875 C-77.9234375 230.02921875 -79.5734375 230.35921875 -81.2734375 230.69921875 C-89.58568679 231.24826133 -98.91953618 231.06307228 -106.2734375 226.69921875 C-106.7684375 225.70921875 -106.7684375 225.70921875 -107.2734375 224.69921875 C-108.92395038 223.58287723 -108.92395038 223.58287723 -110.8359375 222.57421875 C-111.9703125 221.95546875 -113.1046875 221.33671875 -114.2734375 220.69921875 C-114.2734375 220.03921875 -114.2734375 219.37921875 -114.2734375 218.69921875 C-114.9334375 218.69921875 -115.5934375 218.69921875 -116.2734375 218.69921875 C-116.2734375 218.03921875 -116.2734375 217.37921875 -116.2734375 216.69921875 C-117.2634375 216.36921875 -118.2534375 216.03921875 -119.2734375 215.69921875 C-123.2734375 211.24207589 -123.2734375 211.24207589 -123.2734375 208.69921875 C-123.9334375 208.69921875 -124.5934375 208.69921875 -125.2734375 208.69921875 C-127.25390625 206.43359375 -127.25390625 206.43359375 -129.4609375 203.44921875 C-130.19699219 202.4746875 -130.93304688 201.50015625 -131.69140625 200.49609375 C-133.2734375 197.69921875 -133.2734375 197.69921875 -133.13671875 195.40234375 C-132.2734375 193.69921875 -132.2734375 193.69921875 -130.2734375 192.69921875 C-126.62557926 192.60908212 -122.9801428 192.8453479 -119.3359375 193.01171875 C-118.34013672 193.04716797 -117.34433594 193.08261719 -116.31835938 193.11914062 C-108.11546627 193.47578815 -100.22337955 194.64417081 -92.2734375 196.69921875 C-92.2734375 197.35921875 -92.2734375 198.01921875 -92.2734375 198.69921875 C-91.21576172 198.80556641 -91.21576172 198.80556641 -90.13671875 198.9140625 C-86.42974603 199.93057207 -84.37068927 201.77265398 -81.4609375 204.26171875 C-79.99720703 205.50115234 -79.99720703 205.50115234 -78.50390625 206.765625 C-77.76785156 207.40371094 -77.03179687 208.04179687 -76.2734375 208.69921875 C-76.28503906 208.00957031 -76.29664063 207.31992188 -76.30859375 206.609375 C-76.45782512 191.06799399 -76.45782512 191.06799399 -74.2734375 186.69921875 C-75.21703125 186.66183594 -76.160625 186.62445313 -77.1328125 186.5859375 C-99.4412061 185.44364024 -99.4412061 185.44364024 -107.2734375 178.69921875 C-107.2734375 178.03921875 -107.2734375 177.37921875 -107.2734375 176.69921875 C-108.5934375 176.03921875 -109.9134375 175.37921875 -111.2734375 174.69921875 C-111.2734375 174.03921875 -111.2734375 173.37921875 -111.2734375 172.69921875 C-111.84835938 172.6528125 -112.42328125 172.60640625 -113.015625 172.55859375 C-116.41008327 171.26658541 -117.46371771 168.96532184 -119.3984375 165.94921875 C-120.42324219 164.37914062 -120.42324219 164.37914062 -121.46875 162.77734375 C-123.03169053 160.11154908 -124.14331949 157.55951744 -125.2734375 154.69921875 C-125.9334375 154.03921875 -126.5934375 153.37921875 -127.2734375 152.69921875 C-127.2734375 151.70921875 -127.2734375 150.71921875 -127.2734375 149.69921875 C-128.2634375 149.36921875 -129.2534375 149.03921875 -130.2734375 148.69921875 C-129.2834375 146.71921875 -129.2834375 146.71921875 -128.2734375 144.69921875 C-125.43939165 144.81427617 -122.60664131 144.940996 -119.7734375 145.07421875 C-118.98195313 145.10515625 -118.19046875 145.13609375 -117.375 145.16796875 C-112.07499622 145.42862467 -107.38940485 146.29232773 -102.2734375 147.69921875 C-100.44326122 148.08933527 -98.61032715 148.46704576 -96.7734375 148.82421875 C-95.48953125 149.07558594 -95.48953125 149.07558594 -94.1796875 149.33203125 C-93.550625 149.45320312 -92.9215625 149.574375 -92.2734375 149.69921875 C-92.2734375 150.35921875 -92.2734375 151.01921875 -92.2734375 151.69921875 C-91.5515625 151.78171875 -90.8296875 151.86421875 -90.0859375 151.94921875 C-84.57684557 153.41830993 -81.66027257 157.35983632 -78.2734375 161.69921875 C-75.7984375 164.17421875 -75.7984375 164.17421875 -73.2734375 166.69921875 C-71.9534375 160.42921875 -70.6334375 154.15921875 -69.2734375 147.69921875 C-71.1709375 147.65796875 -73.0684375 147.61671875 -75.0234375 147.57421875 C-82.49524074 147.0044734 -87.91679538 144.52627201 -94.2734375 140.69921875 C-94.97597656 140.29445312 -95.67851563 139.8896875 -96.40234375 139.47265625 C-107.45084901 132.45697473 -114.07183762 113.86529831 -117.2734375 101.69921875 C-116.9434375 101.03921875 -116.6134375 100.37921875 -116.2734375 99.69921875 C-110.34523804 99.41692354 -105.87257093 99.85036516 -100.31640625 101.9453125 C-98.32008762 102.6820037 -96.3448785 103.21976162 -94.2734375 103.69921875 C-94.2734375 104.35921875 -94.2734375 105.01921875 -94.2734375 105.69921875 C-93.4071875 105.80234375 -92.5409375 105.90546875 -91.6484375 106.01171875 C-88.10660627 106.73320289 -85.43031708 107.97045136 -82.2734375 109.69921875 C-82.2734375 110.35921875 -82.2734375 111.01921875 -82.2734375 111.69921875 C-81.4484375 111.84359375 -80.6234375 111.98796875 -79.7734375 112.13671875 C-74.63370298 114.43124309 -71.48123433 118.12868246 -68.2734375 122.69921875 C-67.2734375 126.26171875 -67.2734375 126.26171875 -67.2734375 128.69921875 C-66.6134375 128.69921875 -65.9534375 128.69921875 -65.2734375 128.69921875 C-65.10328125 128.16554687 -64.933125 127.631875 -64.7578125 127.08203125 C-62.83880426 121.18210165 -60.63289511 115.43617406 -58.2734375 109.69921875 C-60.77414566 108.68819899 -63.27600888 107.69827578 -65.80859375 106.76953125 C-70.48518877 105.0203257 -74.01074959 103.64163331 -77.2734375 99.69921875 C-78.2634375 99.20421875 -78.2634375 99.20421875 -79.2734375 98.69921875 C-79.2734375 98.03921875 -79.2734375 97.37921875 -79.2734375 96.69921875 C-80.2634375 96.36921875 -81.2534375 96.03921875 -82.2734375 95.69921875 C-85.26604266 91.11787533 -87.29208332 86.49568488 -88.8984375 81.26171875 C-89.11008545 80.58302734 -89.3217334 79.90433594 -89.53979492 79.20507812 C-91.72027784 71.8221138 -92.59214802 64.3459305 -93.2734375 56.69921875 C-91.71875 55.9921875 -91.71875 55.9921875 -89.2734375 55.69921875 C-86.77044026 56.70793242 -84.51518729 57.75026551 -82.1484375 59.01171875 C-81.51550781 59.33333984 -80.88257813 59.65496094 -80.23046875 59.98632812 C-77.57958528 61.35679548 -75.39516814 62.57748811 -73.2734375 64.69921875 C-72.6134375 64.36921875 -71.9534375 64.03921875 -71.2734375 63.69921875 C-70.83773437 64.21871094 -70.40203125 64.73820312 -69.953125 65.2734375 C-67.15556336 68.54937007 -64.59323548 71.45617228 -61.1484375 74.07421875 C-56.8560925 77.99331636 -54.05943751 83.24921873 -52.76171875 88.9453125 C-52.60058594 89.52410156 -52.43945312 90.10289063 -52.2734375 90.69921875 C-51.6134375 91.02921875 -50.9534375 91.35921875 -50.2734375 91.69921875 C-50.1703125 90.66796875 -50.0671875 89.63671875 -49.9609375 88.57421875 C-49.28041751 84.7385606 -47.99699639 82.14633654 -46.2734375 78.69921875 C-46.96114307 75.55112998 -46.96114307 75.55112998 -49.546875 74.3359375 C-56.92588112 69.9064195 -61.9864174 61.84672787 -64.2734375 53.69921875 C-64.45632324 53.06798096 -64.63920898 52.43674316 -64.82763672 51.78637695 C-65.33966699 49.38914433 -65.40302081 47.1933722 -65.40625 44.7421875 C-65.40753906 43.79408203 -65.40882812 42.84597656 -65.41015625 41.86914062 C-65.40628906 40.88494141 -65.40242188 39.90074219 -65.3984375 38.88671875 C-65.40230469 37.91412109 -65.40617187 36.94152344 -65.41015625 35.93945312 C-65.40313051 30.75094124 -65.17178048 25.81121809 -64.2734375 20.69921875 C-60.59075011 21.19687921 -58.62314983 21.76207834 -56.2734375 24.69921875 C-55.7784375 25.68921875 -55.7784375 25.68921875 -55.2734375 26.69921875 C-54.6134375 26.69921875 -53.9534375 26.69921875 -53.2734375 26.69921875 C-51.1484375 28.57421875 -51.1484375 28.57421875 -49.2734375 30.69921875 C-49.2734375 31.35921875 -49.2734375 32.01921875 -49.2734375 32.69921875 C-47.7884375 33.19421875 -47.7884375 33.19421875 -46.2734375 33.69921875 C-45.9434375 34.68921875 -45.6134375 35.67921875 -45.2734375 36.69921875 C-44.5103125 37.37984375 -43.7471875 38.06046875 -42.9609375 38.76171875 C-37.88162795 44.31352221 -35.9162972 51.30633221 -35.2734375 58.69921875 C-34.9434375 57.37921875 -34.6134375 56.05921875 -34.2734375 54.69921875 C-33.2834375 54.69921875 -32.2934375 54.69921875 -31.2734375 54.69921875 C-31.4384375 53.77109375 -31.6034375 52.84296875 -31.7734375 51.88671875 C-33.17582554 41.96983187 -33.46894186 30.50898701 -28.2734375 21.69921875 C-27.6134375 21.69921875 -26.9534375 21.69921875 -26.2734375 21.69921875 C-26.1703125 21.05984375 -26.0671875 20.42046875 -25.9609375 19.76171875 C-25.7340625 19.08109375 -25.5071875 18.40046875 -25.2734375 17.69921875 C-24.2834375 17.36921875 -23.2934375 17.03921875 -22.2734375 16.69921875 C-21.0560339 15.21859275 -19.84068072 13.73613015 -18.64453125 12.23828125 C-16.52985898 9.86454657 -13.94911147 8.39724261 -11.2734375 6.69921875 C-8.97289235 4.81549711 -6.68643911 2.91905346 -4.421875 0.9921875 C-2.2734375 -0.30078125 -2.2734375 -0.30078125 0 0 Z M-30.2734375 60.69921875 C-30.6034375 61.68921875 -30.9334375 62.67921875 -31.2734375 63.69921875 C-30.2834375 63.36921875 -29.2934375 63.03921875 -28.2734375 62.69921875 C-28.2734375 62.03921875 -28.2734375 61.37921875 -28.2734375 60.69921875 C-28.9334375 60.69921875 -29.5934375 60.69921875 -30.2734375 60.69921875 Z M131.7265625 514.69921875 C131.0665625 515.35921875 130.4065625 516.01921875 129.7265625 516.69921875 C130.7165625 516.69921875 131.7065625 516.69921875 132.7265625 516.69921875 C132.3965625 516.03921875 132.0665625 515.37921875 131.7265625 514.69921875 Z " fill="#322B3E" transform="translate(151.2734375,10.30078125)"/>
<path d="M0 0 C0.763125 0.309375 1.52625 0.61875 2.3125 0.9375 C4.18789677 1.67893593 6.08684652 2.36228217 8 3 C8 3.66 8 4.32 8 5 C9.98 5.66 11.96 6.32 14 7 C14 9.31 14 11.62 14 14 C13.01 14 12.02 14 11 14 C10.67 14.99 10.34 15.98 10 17 C9.34 17 8.68 17 8 17 C7.67 17.99 7.34 18.98 7 20 C6.34 19.34 5.68 18.68 5 18 C3.35008418 17.29289322 1.68437744 16.62056011 0 16 C0 15.34 0 14.68 0 14 C-2.12953208 12.89579818 -4.15701249 11.9476625 -6.4375 11.1875 C-9.66141641 9.69348996 -11.6102132 7.59462567 -14 5 C-13.34 5 -12.68 5 -12 5 C-11.67 4.01 -11.34 3.02 -11 2 C-9.02 1.67 -7.04 1.34 -5 1 C-5 1.66 -5 2.32 -5 3 C-3.02463255 2.65213292 -3.02463255 2.65213292 -1 2 C-0.67 1.34 -0.34 0.68 0 0 Z " fill="#352E40" transform="translate(222,481)"/>
<path d="M0 0 C3.43925601 0.56090871 4.76659773 1.51026824 6.875 4.25 C9.63509614 7.66491487 12.55128082 10.29029207 16 13 C12.65820721 14.11393093 11.35008877 13.75376997 8 13 C7.01 13 6.02 13 5 13 C4.67 15.31 4.34 17.62 4 20 C3.34 20 2.68 20 2 20 C2 19.01 2 18.02 2 17 C1.4225 16.7525 0.845 16.505 0.25 16.25 C-2.37223092 14.79320504 -4.09253081 13.31621258 -6 11 C-6 7 -6 7 -4 5 C-3.01 5 -2.02 5 -1 5 C-0.67 3.35 -0.34 1.7 0 0 Z " fill="#332D3E" transform="translate(170,438)"/>
<path d="M0 0 C11.52164009 0.77904328 11.52164009 0.77904328 17 3 C17.125 8.75 17.125 8.75 16 11 C13.36 11 10.72 11 8 11 C8 10.34 8 9.68 8 9 C7.38511719 9.02320313 6.77023437 9.04640625 6.13671875 9.0703125 C4.92435547 9.09738281 4.92435547 9.09738281 3.6875 9.125 C2.88699219 9.14820313 2.08648437 9.17140625 1.26171875 9.1953125 C-1 9 -1 9 -4 7 C-3.01 6.34 -2.02 5.68 -1 5 C-0.27034634 2.43717258 -0.27034634 2.43717258 0 0 Z " fill="#383241" transform="translate(318,526)"/>
<path d="M0 0 C2.97 0.495 2.97 0.495 6 1 C7.46670113 6.22512279 8.22577402 10.5814234 8 16 C7.05125 16.103125 6.1025 16.20625 5.125 16.3125 C1.70892499 16.68539295 1.70892499 16.68539295 0 20 C-1.4977672 17.00446561 -1.45527197 13.85394534 -1.6875 10.5625 C-1.74744141 9.88123047 -1.80738281 9.19996094 -1.86914062 8.49804688 C-2.1418634 4.683664 -2.18515658 3.27773487 0 0 Z " fill="#3C3647" transform="translate(77,237)"/>
<path d="M0 0 C6.71700347 -0.31985731 11.75726932 0.5206176 18 3 C15.44710991 6.82933514 13.55909672 6.9232502 9.2890625 8.05859375 C6.51342402 9.2001106 4.99034508 10.78699074 3 13 C2.30329584 11.21189234 1.61788811 9.41937948 0.9375 7.625 C0.55464844 6.62726563 0.17179687 5.62953125 -0.22265625 4.6015625 C-1 2 -1 2 0 0 Z " fill="#383342" transform="translate(35,110)"/>
<path d="M0 0 C1.32 0.66 2.64 1.32 4 2 C3.01 2 2.02 2 1 2 C0.01 8.6 -0.98 15.2 -2 22 C-2.33 20.68 -2.66 19.36 -3 18 C-4.98 18.66 -6.96 19.32 -9 20 C-8.42978066 14.6496441 -7.79265639 9.32212148 -7 4 C-6.67 4.66 -6.34 5.32 -6 6 C-5.566875 5.505 -5.13375 5.01 -4.6875 4.5 C-3 3 -3 3 0 3 C0 2.01 0 1.02 0 0 Z " fill="#413C4C" transform="translate(88,158)"/>
<path d="M0 0 C2.64 0 5.28 0 8 0 C9.0625 1.875 9.0625 1.875 10 4 C9.67 4.66 9.34 5.32 9 6 C9.99 6.33 10.98 6.66 12 7 C12 7.99 12 8.98 12 10 C10.35 10 8.7 10 7 10 C7 9.34 7 8.68 7 8 C5.68 8 4.36 8 3 8 C3 8.99 3 9.98 3 11 C2.34 11 1.68 11 1 11 C0.01 8.03 -0.98 5.06 -2 2 C-1.34 2 -0.68 2 0 2 C0 1.34 0 0.68 0 0 Z " fill="#2C2738" transform="translate(98,339)"/>
<path d="M0 0 C0.66 0 1.32 0 2 0 C2.66 1.32 3.32 2.64 4 4 C4.99 4 5.98 4 7 4 C7.33 3.01 7.66 2.02 8 1 C10 2 10 2 10.73828125 3.9609375 C10.92777344 4.75757813 11.11726563 5.55421875 11.3125 6.375 C11.61607422 7.56222656 11.61607422 7.56222656 11.92578125 8.7734375 C12 11 12 11 10.54296875 12.7890625 C10.03378906 13.18867188 9.52460937 13.58828125 9 14 C7.20963542 12.95833333 5.41927083 11.91666667 3.62890625 10.875 C2.16134961 9.92113038 2.16134961 9.92113038 1 10 C0.67 6.7 0.34 3.4 0 0 Z M3 5 C4 7 4 7 4 7 Z " fill="#3F3848" transform="translate(83,295)"/>
<path d="M0 0 C0.99 1.32 1.98 2.64 3 4 C1.35 4.66 -0.3 5.32 -2 6 C-1.42655063 8.86724686 -1.1385485 9.8614515 1 12 C0.01 12.33 -0.98 12.66 -2 13 C-2.66 12.67 -3.32 12.34 -4 12 C-4 11.34 -4 10.68 -4 10 C-5.98 10 -7.96 10 -10 10 C-9.34 7.69 -8.68 5.38 -8 3 C-8.66 2.67 -9.32 2.34 -10 2 C-6.7 1.34 -3.4 0.68 0 0 Z " fill="#282330" transform="translate(343,528)"/>
<path d="M0 0 C0.99 0.33 1.98 0.66 3 1 C4.51403812 5.84492197 3.36602172 9.2591011 2 14 C1.01 13.67 0.02 13.34 -1 13 C-3.14255793 13.38932856 -3.14255793 13.38932856 -5 14 C-4.74412595 12.22694336 -4.46972261 10.45655392 -4.1875 8.6875 C-4.03667969 7.70136719 -3.88585937 6.71523437 -3.73046875 5.69921875 C-2.96563295 2.87300731 -2.24741238 1.8040872 0 0 Z " fill="#3C3643" transform="translate(93,124)"/>
<path d="M0 0 C0.66 0.66 1.32 1.32 2 2 C4.10820797 1.6814823 4.10820797 1.6814823 6 1 C8.29633824 4.44450737 8.54016485 6.93812283 9 11 C7.35 11.66 5.7 12.32 4 13 C3.01 11.35 2.02 9.7 1 8 C1 9.65 1 11.3 1 13 C0.34 12.67 -0.32 12.34 -1 12 C-0.67 8.04 -0.34 4.08 0 0 Z " fill="#413A4C" transform="translate(75,209)"/>
<path d="M0 0 C5.94 0.33 11.88 0.66 18 1 C18 1.33 18 1.66 18 2 C16.783125 2.0825 15.56625 2.165 14.3125 2.25 C10.19003601 2.76074775 7.98184754 4.01815246 5 7 C4.01 8.485 4.01 8.485 3 10 C2.34 9.34 1.68 8.68 1 8 C1 7.01 1 6.02 1 5 C0.01 4.67 -0.98 4.34 -2 4 C-1.34 2.68 -0.68 1.36 0 0 Z " fill="#44404B" transform="translate(23,155)"/>
<path d="M0 0 C3.63 0.33 7.26 0.66 11 1 C11 1.66 11 2.32 11 3 C10.34 3 9.68 3 9 3 C8.67 4.32 8.34 5.64 8 7 C6.02 7 4.04 7 2 7 C2.33 7.66 2.66 8.32 3 9 C0.69 8.67 -1.62 8.34 -4 8 C-3.525625 7.608125 -3.05125 7.21625 -2.5625 6.8125 C-0.52332645 4.74741744 -0.52332645 4.74741744 0 0 Z " fill="#453E4E" transform="translate(318,526)"/>
<path d="M0 0 C0 0.66 0 1.32 0 2 C-4.39716186 4.93144124 -9.35198992 5.45209928 -14.5625 4.5625 C-15.366875 4.376875 -16.17125 4.19125 -17 4 C-19.67321863 3.90955275 -22.32411363 3.95464599 -25 4 C-25 3.67 -25 3.34 -25 3 C-16.51311539 0.70032804 -8.79393628 -0.42781312 0 0 Z " fill="#423F4A" transform="translate(83,346)"/>
<path d="M0 0 C13.10679612 1.10679612 13.10679612 1.10679612 17 5 C16.625 7.125 16.625 7.125 16 9 C15.34 8.01 14.68 7.02 14 6 C13.62875 6.515625 13.2575 7.03125 12.875 7.5625 C11 9 11 9 7.8125 8.6875 C6.884375 8.460625 5.95625 8.23375 5 8 C5 7.34 5 6.68 5 6 C5.66 6 6.32 6 7 6 C4.78065836 2.67098753 3.65316671 2.24976756 0 1 C0 0.67 0 0.34 0 0 Z " fill="#4D4854" transform="translate(145,72)"/>
<path d="M0 0 C0.66 0.33 1.32 0.66 2 1 C2 1.66 2 2.32 2 3 C1.34 3 0.68 3 0 3 C0.680625 3.928125 1.36125 4.85625 2.0625 5.8125 C2.701875 6.864375 3.34125 7.91625 4 9 C3.67 9.99 3.34 10.98 3 12 C-1.455 10.02 -1.455 10.02 -6 8 C-5.8125 5.6875 -5.8125 5.6875 -5 3 C-2.5625 1.125 -2.5625 1.125 0 0 Z " fill="#1D1A27" transform="translate(60,405)"/>
<path d="M0 0 C1.4540625 0.0309375 1.4540625 0.0309375 2.9375 0.0625 C2.9375 2.7025 2.9375 5.3425 2.9375 8.0625 C1.6175 7.7325 0.2975 7.4025 -1.0625 7.0625 C-1.3925 8.0525 -1.7225 9.0425 -2.0625 10.0625 C-3.0525 10.0625 -4.0425 10.0625 -5.0625 10.0625 C-4.92200482 8.58281676 -4.77495174 7.10375484 -4.625 5.625 C-4.54378906 4.80128906 -4.46257812 3.97757812 -4.37890625 3.12890625 C-3.8690239 -0.20106615 -3.4903173 0.07123097 0 0 Z " fill="#2B2636" transform="translate(82.0625,252.9375)"/>
<path d="M0 0 C2.66753731 0.36793618 3.81998328 0.81998328 5.75 2.75 C7.21079991 5.37943983 7.24687966 7.0374441 7 10 C4.525 9.01 4.525 9.01 2 8 C2 7.34 2 6.68 2 6 C1.01 6.66 0.02 7.32 -1 8 C-1.99 8.495 -1.99 8.495 -3 9 C-2.5020163 5.26512223 -2.12508244 3.18762365 0 0 Z " fill="#2B2634" transform="translate(206,404)"/>
<path d="M0 0 C0 0.33 0 0.66 0 1 C-0.98742187 1.03738281 -1.97484375 1.07476562 -2.9921875 1.11328125 C-4.91417969 1.21189453 -4.91417969 1.21189453 -6.875 1.3125 C-8.15117188 1.37050781 -9.42734375 1.42851562 -10.7421875 1.48828125 C-11.81726563 1.65714844 -12.89234375 1.82601562 -14 2 C-15.93798263 4.77260299 -15.93798263 4.77260299 -17 7 C-18.9375 6.625 -18.9375 6.625 -21 6 C-21.33 5.34 -21.66 4.68 -22 4 C-22.78375 4.20625 -23.5675 4.4125 -24.375 4.625 C-25.24125 4.74875 -26.1075 4.8725 -27 5 C-27.66 4.34 -28.32 3.68 -29 3 C-19.52421176 -0.55342059 -9.95055214 -0.11660803 0 0 Z " fill="#595562" transform="translate(127,167)"/>
<path d="M0 0 C0.33 0.66 0.66 1.32 1 2 C0.34 2.66 -0.32 3.32 -1 4 C-0.34 4.66 0.32 5.32 1 6 C1 7.32 1 8.64 1 10 C2.32 10.33 3.64 10.66 5 11 C3.265625 11.65234375 3.265625 11.65234375 1 12 C-1.140625 11.00390625 -1.140625 11.00390625 -3.25 9.5625 C-3.95640625 9.08941406 -4.6628125 8.61632812 -5.390625 8.12890625 C-5.92171875 7.75636719 -6.4528125 7.38382812 -7 7 C-6.69140625 5.109375 -6.69140625 5.109375 -6 3 C-2.9375 1.25 -2.9375 1.25 0 0 Z " fill="#2A2732" transform="translate(37,358)"/>
<path d="M0 0 C0.66 0 1.32 0 2 0 C3.32870256 7.80612754 3.32870256 15.19387246 2 23 C1.34 23 0.68 23 0 23 C0.33 18.05 0.66 13.1 1 8 C0.01 7.67 -0.98 7.34 -2 7 C-1.34 4.69 -0.68 2.38 0 0 Z " fill="#292631" transform="translate(315,488)"/>
<path d="M0 0 C0.99 0 1.98 0 3 0 C3 1.65 3 3.3 3 5 C2.34 5 1.68 5 1 5 C0.731875 5.5775 0.46375 6.155 0.1875 6.75 C-1.02929189 9.05550043 -2.30333879 11.02056192 -4 13 C-4.66 13 -5.32 13 -6 13 C-5.38331854 6.46317657 -5.38331854 6.46317657 -3.5 4.1875 C-3.005 3.795625 -2.51 3.40375 -2 3 C-1.67 2.34 -1.34 1.68 -1 1 C-0.67 0.67 -0.34 0.34 0 0 Z " fill="#4E4B55" transform="translate(136,134)"/>
<path d="M0 0 C0.66 0.99 1.32 1.98 2 3 C-1.06117568 5.62386487 -1.73173127 6 -6 6 C-6 6.66 -6 7.32 -6 8 C-10.625 10.125 -10.625 10.125 -14 9 C-13.34 9 -12.68 9 -12 9 C-11.67 8.01 -11.34 7.02 -11 6 C-9.35 5.67 -7.7 5.34 -6 5 C-6 4.34 -6 3.68 -6 3 C-4.02 2.01 -2.04 1.02 0 0 Z " fill="#393540" transform="translate(119,312)"/>
<path d="M0 0 C4.29 0.33 8.58 0.66 13 1 C13.33 2.32 13.66 3.64 14 5 C12.948125 4.979375 11.89625 4.95875 10.8125 4.9375 C7.67295096 4.98896802 5.03116604 5.26517187 2 6 C1.34 4.02 0.68 2.04 0 0 Z " fill="#413E4B" transform="translate(367,535)"/>
<path d="M0 0 C0.66 0.33 1.32 0.66 2 1 C4.09821215 0.60061233 4.09821215 0.60061233 6 0 C6 2 6 4 6 6 C6.33 6.99 6.66 7.98 7 9 C5.68 9 4.36 9 3 9 C3 8.01 3 7.02 3 6 C1.35 6 -0.3 6 -2 6 C-2 5.01 -2 4.02 -2 3 C-1.34 3 -0.68 3 0 3 C0 2.01 0 1.02 0 0 Z " fill="#514E59" transform="translate(101,99)"/>
<path d="M0 0 C0.33 0.66 0.66 1.32 1 2 C3.02463255 2.65213292 3.02463255 2.65213292 5 3 C3.625 4.5 3.625 4.5 2 6 C1.34 6 0.68 6 0 6 C0 5.34 0 4.68 0 4 C-0.99 4 -1.98 4 -3 4 C-3.33 4.66 -3.66 5.32 -4 6 C-4.66 5.01 -5.32 4.02 -6 3 C-5.67 2.34 -5.34 1.68 -5 1 C-1.125 1.875 -1.125 1.875 0 3 C0 2.01 0 1.02 0 0 Z M-8 5 C-7.01 5 -6.02 5 -5 5 C-5 6.32 -5 7.64 -5 9 C-5.99 9 -6.98 9 -8 9 C-8 7.68 -8 6.36 -8 5 Z " fill="#575265" transform="translate(85,258)"/>
<path d="M0 0 C1.65 0 3.3 0 5 0 C5.66 1.65 6.32 3.3 7 5 C5.01432292 5.22786458 3.02864583 5.45572917 1.04296875 5.68359375 C-1.19396393 5.97170735 -1.19396393 5.97170735 -4 7 C-4.33 6.01 -4.66 5.02 -5 4 C-4.0409375 3.8453125 -4.0409375 3.8453125 -3.0625 3.6875 C-2.381875 3.460625 -1.70125 3.23375 -1 3 C-0.67 2.01 -0.34 1.02 0 0 Z " fill="#3B3644" transform="translate(100,334)"/>
<path d="M0 0 C-0.66 1.65 -1.32 3.3 -2 5 C-2.7425 4.79375 -3.485 4.5875 -4.25 4.375 C-7.32330841 3.95591249 -8.42786866 4.38050989 -11 6 C-11.66 5.34 -12.32 4.68 -13 4 C-11.59248779 3.13083113 -10.1735479 2.28014851 -8.75 1.4375 C-7.96109375 0.96183594 -7.1721875 0.48617188 -6.359375 -0.00390625 C-3.69155375 -1.13022151 -2.65498232 -1.0169313 0 0 Z " fill="#3D3948" transform="translate(143,312)"/>
<path d="M0 0 C2.475 0.495 2.475 0.495 5 1 C5.33 1.99 5.66 2.98 6 4 C6.66 4.66 7.32 5.32 8 6 C8.125 8.625 8.125 8.625 8 11 C7.34 10.67 6.68 10.34 6 10 C6 9.34 6 8.68 6 8 C5.38125 7.731875 4.7625 7.46375 4.125 7.1875 C2 6 2 6 0 3 C0 2.01 0 1.02 0 0 Z " fill="#524F59" transform="translate(14,258)"/>
<path d="M0 0 C0.99 0 1.98 0 3 0 C3.2358396 5.77807024 2.86783046 10.51324804 1 16 C0.34 15.34 -0.32 14.68 -1 14 C-0.70241581 11.6618385 -0.36760731 9.32817964 0 7 C-0.33 6.01 -0.66 5.02 -1 4 C-0.5625 1.8125 -0.5625 1.8125 0 0 Z " fill="#484552" transform="translate(313,506)"/>
<path d="M0 0 C1.32 0.33 2.64 0.66 4 1 C1.89851796 4.98175544 -0.36905358 7.35039045 -4 10 C-4.66 9.34 -5.32 8.68 -6 8 C-4.7260411 5.96166576 -3.38938077 3.96147874 -2 2 C-1.34 2 -0.68 2 0 2 C0 1.34 0 0.68 0 0 Z " fill="#494850" transform="translate(250,545)"/>
<path d="M0 0 C1.32 0.33 2.64 0.66 4 1 C4 1.99 4 2.98 4 4 C4.33 4.99 4.66 5.98 5 7 C4.34 7.66 3.68 8.32 3 9 C1.02 7.35 -0.96 5.7 -3 4 C-2.34 3.67 -1.68 3.34 -1 3 C-0.67 2.01 -0.34 1.02 0 0 Z " fill="#484352" transform="translate(211,483)"/>
<path d="M0 0 C0.99 0.33 1.98 0.66 3 1 C3 2.65 3 4.3 3 6 C1.35 6.33 -0.3 6.66 -2 7 C-2 6.34 -2 5.68 -2 5 C-2.99 4.67 -3.98 4.34 -5 4 C-2.6875 1.9375 -2.6875 1.9375 0 0 Z " fill="#262030" transform="translate(67,400)"/>
<path d="M0 0 C1.32 0.33 2.64 0.66 4 1 C4 4.96 4 8.92 4 13 C3.67 13 3.34 13 3 13 C2.67 10.36 2.34 7.72 2 5 C-1.13349732 3.95550089 -1.98968256 4.06576355 -5 5 C-2.75 2.4375 -2.75 2.4375 0 0 Z " fill="#76767E" transform="translate(149,10)"/>
<path d="M0 0 C0.66 0.33 1.32 0.66 2 1 C2.625 3.5625 2.625 3.5625 3 6 C2.34 6 1.68 6 1 6 C1 6.66 1 7.32 1 8 C-0.65 8.33 -2.3 8.66 -4 9 C-4 8.01 -4 7.02 -4 6 C-3.34 6 -2.68 6 -2 6 C-1.34 4.02 -0.68 2.04 0 0 Z " fill="#423C4C" transform="translate(123,374)"/>
<path d="M0 0 C0 3.19633438 -0.33810135 4.34096216 -2 7 C-4.60319658 9.35127433 -5.42129926 10 -9 10 C-7.95125002 7.37812506 -7.35068687 6.20628639 -4.875 4.75 C-4.25625 4.5025 -3.6375 4.255 -3 4 C-3 3.34 -3 2.68 -3 2 C-2.01 1.34 -1.02 0.68 0 0 Z " fill="#564C5D" transform="translate(262,534)"/>
<path d="M0 0 C0.99 0 1.98 0 3 0 C4 3 4 3 3.109375 4.7890625 C2.66078125 5.39492188 2.2121875 6.00078125 1.75 6.625 C1.31171875 7.23601563 0.8734375 7.84703125 0.421875 8.4765625 C-1 10 -1 10 -4 11 C-3.6875 8.625 -3.6875 8.625 -3 6 C-2.01 5.34 -1.02 4.68 0 4 C0 2.68 0 1.36 0 0 Z " fill="#262231" transform="translate(234,525)"/>
<path d="M0 0 C1.65 0.33 3.3 0.66 5 1 C4.01 2.485 4.01 2.485 3 4 C0.3984375 4.29296875 0.3984375 4.29296875 -2.625 4.1875 C-4.12933594 4.14689453 -4.12933594 4.14689453 -5.6640625 4.10546875 C-6.82035156 4.05326172 -6.82035156 4.05326172 -8 4 C-8 3.01 -8 2.02 -8 1 C-5.36 1.33 -2.72 1.66 0 2 C0 1.34 0 0.68 0 0 Z " fill="#65616C" transform="translate(67,237)"/>
<path d="M0 0 C0.99 0 1.98 0 3 0 C3.33 1.98 3.66 3.96 4 6 C0.535 7.485 0.535 7.485 -3 9 C-3.33 8.01 -3.66 7.02 -4 6 C-2.35 5.34 -0.7 4.68 1 4 C0.34 3.01 -0.32 2.02 -1 1 C-0.67 0.67 -0.34 0.34 0 0 Z " fill="#403648" transform="translate(126,57)"/>
<path d="M0 0 C2.8326134 1.4163067 3.01707833 3.14497293 4.125 6.0625 C4.47820312 6.98160156 4.83140625 7.90070313 5.1953125 8.84765625 C5.46085937 9.55792969 5.72640625 10.26820313 6 11 C4.0625 10.1875 4.0625 10.1875 2 9 C1.67 8.01 1.34 7.02 1 6 C0.34 5.67 -0.32 5.34 -1 5 C-0.67 3.35 -0.34 1.7 0 0 Z " fill="#3F3C45" transform="translate(359,497)"/>
<path d="M0 0 C0.33 1.32 0.66 2.64 1 4 C-0.8125 4.6875 -0.8125 4.6875 -3 5 C-4 4 -5 3 -6 2 C-8.16299211 2.22757731 -8.16299211 2.22757731 -10 3 C-6.81859267 -0.48439851 -4.56758339 -1.41752588 0 0 Z " fill="#443E52" transform="translate(85,394)"/>
<path d="M0 0 C0.66 0 1.32 0 2 0 C2 0.66 2 1.32 2 2 C3.60875 1.690625 3.60875 1.690625 5.25 1.375 C8.87619096 1.0123809 10.08291076 1.01637931 13 3 C8.27685687 3.77112541 3.78478822 4.09764874 -1 4 C-0.67 2.68 -0.34 1.36 0 0 Z " fill="#24222E" transform="translate(230,580)"/>
<path d="M0 0 C0.66 0.33 1.32 0.66 2 1 C1.195625 1.763125 0.39125 2.52625 -0.4375 3.3125 C-3.16799024 5.79430898 -3.16799024 5.79430898 -4 9 C-4.99 9 -5.98 9 -7 9 C-7.33 9.66 -7.66 10.32 -8 11 C-8 9.68 -8 8.36 -8 7 C-7.34 7 -6.68 7 -6 7 C-5.34 5.68 -4.68 4.36 -4 3 C-3.34 3 -2.68 3 -2 3 C-2 2.34 -2 1.68 -2 1 C-1.34 0.67 -0.68 0.34 0 0 Z " fill="#44414B" transform="translate(324,547)"/>
<path d="M0 0 C1.125 2.0625 1.125 2.0625 2 4 C0.35 3.67 -1.3 3.34 -3 3 C-3.33 3.99 -3.66 4.98 -4 6 C-4.66 6 -5.32 6 -6 6 C-7 3 -7 3 -7 0 C-2.25 -1.125 -2.25 -1.125 0 0 Z " fill="#4E4857" transform="translate(144,404)"/>
<path d="M0 0 C2.30143236 3.45214853 2.13833854 4.23479324 1.625 8.1875 C1.51414063 9.08855469 1.40328125 9.98960937 1.2890625 10.91796875 C1.19367188 11.60503906 1.09828125 12.29210937 1 13 C0.34 13 -0.32 13 -1 13 C-2.2077558 9.37673261 -1.54311128 8.35853631 0 5 C-0.99 4.67 -1.98 4.34 -3 4 C-2.01 2.68 -1.02 1.36 0 0 Z " fill="#25222C" transform="translate(133,276)"/>
<path d="M0 0 C-3.0684847 2.97550031 -4.46236331 3.96474513 -8.8125 4.25 C-9.864375 4.1675 -10.91625 4.085 -12 4 C-12 3.34 -12 2.68 -12 2 C-8.09971775 -0.60018816 -4.52565431 -0.15085514 0 0 Z " fill="#47434E" transform="translate(178,504)"/>
<path d="M0 0 C0.66 0 1.32 0 2 0 C2.20496094 0.69867188 2.40992188 1.39734375 2.62109375 2.1171875 C2.89050781 3.02726562 3.15992188 3.93734375 3.4375 4.875 C3.70433594 5.77992188 3.97117187 6.68484375 4.24609375 7.6171875 C4.92613826 9.98275381 4.92613826 9.98275381 6 12 C5.34 12 4.68 12 4 12 C3.67 12.66 3.34 13.32 3 14 C2.49528803 12.23050388 1.99639315 10.45934777 1.5 8.6875 C1.2215625 7.70136719 0.943125 6.71523438 0.65625 5.69921875 C0 3 0 3 0 0 Z " fill="#5C5A63" transform="translate(325,499)"/>
<path d="M0 0 C2.85356058 1.42678029 3.67172689 3.14421282 5 6 C4.1875 8.3125 4.1875 8.3125 3 10 C1.02696226 8.02696226 0.22854066 6.45708131 -1 4 C-1.66 3.34 -2.32 2.68 -3 2 C-2.01 2 -1.02 2 0 2 C0 1.34 0 0.68 0 0 Z " fill="#1F1A28" transform="translate(235,484)"/>
<path d="M0 0 C0.33 2.31 0.66 4.62 1 7 C-0.65 7 -2.3 7 -4 7 C-4.33 5.35 -4.66 3.7 -5 2 C-2 0 -2 0 0 0 Z " fill="#2C2738" transform="translate(99,331)"/>
<path d="M0 0 C0.78375 0.04125 1.5675 0.0825 2.375 0.125 C1.5625 2.5625 1.5625 2.5625 0.375 5.125 C-0.615 5.455 -1.605 5.785 -2.625 6.125 C-3.285 4.805 -3.945 3.485 -4.625 2.125 C-2.625 0.125 -2.625 0.125 0 0 Z " fill="#2C2637" transform="translate(89.625,293.875)"/>
<path d="M0 0 C0.99 0.33 1.98 0.66 3 1 C3.625 3.375 3.625 3.375 4 6 C3.34 6.66 2.68 7.32 2 8 C0.35 6.35 -1.3 4.7 -3 3 C-2.01 2.01 -1.02 1.02 0 0 Z " fill="#252031" transform="translate(93,124)"/>
<path d="M0 0 C1.32 0.66 2.64 1.32 4 2 C3.625 3.9375 3.625 3.9375 3 6 C2.01 6.495 2.01 6.495 1 7 C-1 6 -1 6 -1.75 4.0625 C-1.8325 3.381875 -1.915 2.70125 -2 2 C-1.34 1.34 -0.68 0.68 0 0 Z " fill="#2E2937" transform="translate(218,478)"/>
<path d="M0 0 C0.33 0.99 0.66 1.98 1 3 C1.33 2.01 1.66 1.02 2 0 C2 2.64 2 5.28 2 8 C1.67 6.68 1.34 5.36 1 4 C-0.98 4.66 -2.96 5.32 -5 6 C-5 4.35 -5 2.7 -5 1 C-3 0 -3 0 0 0 Z " fill="#504957" transform="translate(84,172)"/>
<path d="M0 0 C0.66 0 1.32 0 2 0 C1.625 2.4375 1.625 2.4375 1 5 C0.01 5.495 0.01 5.495 -1 6 C-1 5.34 -1 4.68 -1 4 C-2.32 4 -3.64 4 -5 4 C-4.67 5.32 -4.34 6.64 -4 8 C-4.99 8 -5.98 8 -7 8 C-6.67 6.35 -6.34 4.7 -6 3 C-5.195625 2.87625 -4.39125 2.7525 -3.5625 2.625 C-2.716875 2.41875 -1.87125 2.2125 -1 2 C-0.67 1.34 -0.34 0.68 0 0 Z " fill="#27222F" transform="translate(123,71)"/>
<path d="M0 0 C0.66 0 1.32 0 2 0 C2 3.96 2 7.92 2 12 C1.34 10.68 0.68 9.36 0 8 C-0.66 7.67 -1.32 7.34 -2 7 C-1.34 7 -0.68 7 0 7 C-0.185625 6.030625 -0.37125 5.06125 -0.5625 4.0625 C-0.706875 3.051875 -0.85125 2.04125 -1 1 C-0.67 0.67 -0.34 0.34 0 0 Z " fill="#3A3741" transform="translate(365,515)"/>
<path d="M0 0 C0.99 0.33 1.98 0.66 3 1 C2.67 1.99 2.34 2.98 2 4 C2.38932856 6.14255793 2.38932856 6.14255793 3 8 C0.525 7.01 0.525 7.01 -2 6 C-1.125 1.125 -1.125 1.125 0 0 Z " fill="#3A3440" transform="translate(56,407)"/>
<path d="M0 0 C2.625 1.4375 2.625 1.4375 5 3 C2 5 2 5 0 6 C-0.99 5.67 -1.98 5.34 -3 5 C-2.625 3.0625 -2.625 3.0625 -2 1 C-1.34 0.67 -0.68 0.34 0 0 Z " fill="#231E2D" transform="translate(77,177)"/>
<path d="M0 0 C1.67667436 0.64108137 3.34089996 1.31471955 5 2 C7.98909878 2.46720367 10.98558767 2.75044081 14 3 C14 3.33 14 3.66 14 4 C11.54137599 4.05383848 9.0839245 4.09359038 6.625 4.125 C5.57699219 4.15013672 5.57699219 4.15013672 4.5078125 4.17578125 C2.67102514 4.19344267 0.83398037 4.10303261 -1 4 C-1.66 3.34 -2.32 2.68 -3 2 C-2.01 1.34 -1.02 0.68 0 0 Z " fill="#706C78" transform="translate(90,421)"/>
<path d="M0 0 C3.96 0 7.92 0 12 0 C12 0.66 12 1.32 12 2 C8.90521121 3.03159626 7.47368607 2.97482862 4.3125 2.5625 C3.10013672 2.40974609 3.10013672 2.40974609 1.86328125 2.25390625 C1.24839844 2.17011719 0.63351563 2.08632813 0 2 C0 1.34 0 0.68 0 0 Z " fill="#75747A" transform="translate(71,346)"/>
<path d="M0 0 C0.66 0.66 1.32 1.32 2 2 C1.175 2.45375 0.35 2.9075 -0.5 3.375 C-1.7375 4.179375 -1.7375 4.179375 -3 5 C-3 5.66 -3 6.32 -3 7 C-3.99 7 -4.98 7 -6 7 C-5.8125 4.625 -5.8125 4.625 -5 2 C-2.4375 0.6875 -2.4375 0.6875 0 0 Z " fill="#292633" transform="translate(126,59)"/>
<path d="M0 0 C0.99 0 1.98 0 3 0 C2.44271087 3.34373475 1.64826111 6.03312999 0 9 C-0.99 8.34 -1.98 7.68 -3 7 C-2.01 4.69 -1.02 2.38 0 0 Z " fill="#27212C" transform="translate(234,569)"/>
<path d="M0 0 C1.65 0.33 3.3 0.66 5 1 C3.07423885 3.43929746 1.19909405 5.80090595 -1 8 C-1.625 5.6875 -1.625 5.6875 -2 3 C-1.34 2.01 -0.68 1.02 0 0 Z " fill="#39373F" transform="translate(289,451)"/>
<path d="M0 0 C0.33 0.99 0.66 1.98 1 3 C-4.75 8 -4.75 8 -7 8 C-5.50902342 4.2047869 -3.24299151 2.38957269 0 0 Z " fill="#23212C" transform="translate(99,445)"/>
<path d="M0 0 C2.31 0.33 4.62 0.66 7 1 C4.59563974 4.60654039 3.05320393 4.85452932 -1 6 C-1.33 5.01 -1.66 4.02 -2 3 C-1.34 3 -0.68 3 0 3 C0 2.01 0 1.02 0 0 Z " fill="#453D4D" transform="translate(46,112)"/>
<path d="M0 0 C1.65 0 3.3 0 5 0 C5 0.66 5 1.32 5 2 C3.5437455 2.67119549 2.08492133 3.33681807 0.625 4 C-0.59316406 4.556875 -0.59316406 4.556875 -1.8359375 5.125 C-4 6 -4 6 -6 6 C-5.67 5.01 -5.34 4.02 -5 3 C-3.68 3 -2.36 3 -1 3 C-0.67 2.01 -0.34 1.02 0 0 Z " fill="#54525A" transform="translate(152,83)"/>
<path d="M0 0 C6.75 1.75 6.75 1.75 9 4 C9 4.99 9 5.98 9 7 C5.88626628 5.50079488 2.87771795 3.91847864 0 2 C0 1.34 0 0.68 0 0 Z " fill="#23202F" transform="translate(99,81)"/>
<path d="M0 0 C0.99 1.32 1.98 2.64 3 4 C0.39417629 4.93065133 -0.64198224 5.14917407 -3.25 4.0625 C-3.8275 3.711875 -4.405 3.36125 -5 3 C-4.67 2.34 -4.34 1.68 -4 1 C-1.9375 0.375 -1.9375 0.375 0 0 Z " fill="#191522" transform="translate(343,528)"/>
<path d="M0 0 C0.66 0 1.32 0 2 0 C2.05395478 1.62463842 2.09277195 3.24978541 2.125 4.875 C2.14820313 5.77992188 2.17140625 6.68484375 2.1953125 7.6171875 C2 10 2 10 0 12 C-1.53166168 7.91556885 -0.63081652 4.20544343 0 0 Z " fill="#423F4A" transform="translate(219,440)"/>
<path d="M0 0 C0 0.66 0 1.32 0 2 C-6.625 5 -6.625 5 -10 5 C-10 4.01 -10 3.02 -10 2 C-6.49223216 0.39644899 -3.85645121 -0.22036864 0 0 Z " fill="#564859" transform="translate(134,410)"/>
<path d="M0 0 C0.66 0 1.32 0 2 0 C2.33 0.66 2.66 1.32 3 2 C3.66 2 4.32 2 5 2 C4.49396008 4.16874252 4.00016187 5.99967627 3 8 C2.01 7.67 1.02 7.34 0 7 C0 4.69 0 2.38 0 0 Z " fill="#251D2C" transform="translate(83,176)"/>
<path d="M0 0 C4.455 0.99 4.455 0.99 9 2 C8.67 2.66 8.34 3.32 8 4 C5.36 4 2.72 4 0 4 C0 2.68 0 1.36 0 0 Z " fill="#3C3A41" transform="translate(295,602)"/>
<path d="M0 0 C0.33 0.99 0.66 1.98 1 3 C-0.98 4.32 -2.96 5.64 -5 7 C-5.33 5.68 -5.66 4.36 -6 3 C-5.34 3 -4.68 3 -4 3 C-3.34 2.34 -2.68 1.68 -2 1 C-1.34 0.67 -0.68 0.34 0 0 Z " fill="#28252F" transform="translate(123,413)"/>
<path d="M0 0 C2.25 -0.25 2.25 -0.25 5 0 C7.3125 2 7.3125 2 9 4 C8.34 4.66 7.68 5.32 7 6 C6.01 5.67 5.02 5.34 4 5 C4 4.01 4 3.02 4 2 C2.68 1.67 1.36 1.34 0 1 C0 0.67 0 0.34 0 0 Z " fill="#4E4856" transform="translate(62,258)"/>
<path d="M0 0 C0.66 0.33 1.32 0.66 2 1 C4.09821215 0.60061233 4.09821215 0.60061233 6 0 C6.33 1.32 6.66 2.64 7 4 C6.236875 3.95875 5.47375 3.9175 4.6875 3.875 C1.77281584 3.77919176 1.77281584 3.77919176 -1 6 C-0.67 4.02 -0.34 2.04 0 0 Z " fill="#554C5C" transform="translate(87,136)"/>
<path d="M0 0 C2.97 0.495 2.97 0.495 6 1 C6 2.65 6 4.3 6 6 C5.01 6.33 4.02 6.66 3 7 C2.87625 6.030625 2.7525 5.06125 2.625 4.0625 C2.41875 3.051875 2.2125 2.04125 2 1 C1.34 0.67 0.68 0.34 0 0 Z " fill="#5E5C65" transform="translate(117,65)"/>
<path d="M0 0 C0.598125 0.226875 1.19625 0.45375 1.8125 0.6875 C0.8225 2.1725 0.8225 2.1725 -0.1875 3.6875 C-0.8475 3.6875 -1.5075 3.6875 -2.1875 3.6875 C-2.1875 4.3475 -2.1875 5.0075 -2.1875 5.6875 C-3.1775 5.6875 -4.1675 5.6875 -5.1875 5.6875 C-5.1875 2.6875 -5.1875 2.6875 -3.9375 0.9375 C-2.1875 -0.3125 -2.1875 -0.3125 0 0 Z " fill="#282531" transform="translate(144.1875,480.3125)"/>
<path d="M0 0 C0.86625 0.3403125 0.86625 0.3403125 1.75 0.6875 C0.47536799 3.23676402 -0.68417043 3.55551636 -3.25 4.6875 C-4.24 5.0175 -5.23 5.3475 -6.25 5.6875 C-6.25 4.6975 -6.25 3.7075 -6.25 2.6875 C-4.08146295 0.51896295 -3.10906228 -0.43181421 0 0 Z " fill="#100D17" transform="translate(162.25,447.3125)"/>
<path d="M0 0 C0.66 0 1.32 0 2 0 C2.38133299 1.9914056 2.71325582 3.99279077 3 6 C2.67 6.33 2.34 6.66 2 7 C1.63239269 9.32817964 1.29758419 11.6618385 1 14 C0.67 14 0.34 14 0 14 C0 9.38 0 4.76 0 0 Z " fill="#241F2C" transform="translate(156,402)"/>
<path d="M0 0 C2.31 0.33 4.62 0.66 7 1 C7 1.66 7 2.32 7 3 C7.66 3.33 8.32 3.66 9 4 C6.03 3.67 3.06 3.34 0 3 C0 2.01 0 1.02 0 0 Z " fill="#6B6874" transform="translate(66,378)"/>
<path d="M0 0 C0.66 0.33 1.32 0.66 2 1 C0.26440562 4.057952 -1.38472619 6.63379989 -4 9 C-4 7.35 -4 5.7 -4 4 C-3.34 4 -2.68 4 -2 4 C-1.34 2.68 -0.68 1.36 0 0 Z " fill="#3B3943" transform="translate(171,374)"/>
<path d="M0 0 C0.33 0.99 0.66 1.98 1 3 C1.66 3.33 2.32 3.66 3 4 C0.525 5.485 0.525 5.485 -2 7 C-2.33 6.01 -2.66 5.02 -3 4 C-1.5625 1.8125 -1.5625 1.8125 0 0 Z " fill="#4F4C56" transform="translate(116,329)"/>
<path d="M0 0 C0 0.99 0 1.98 0 3 C-4.625 5.125 -4.625 5.125 -8 4 C-7.34 4 -6.68 4 -6 4 C-5.67 3.01 -5.34 2.02 -5 1 C-3 0 -3 0 0 0 Z " fill="#5E5A72" transform="translate(113,317)"/>
<path d="M0 0 C0.66 0.33 1.32 0.66 2 1 C1.67 2.32 1.34 3.64 1 5 C-1.86724686 4.42655063 -2.8614515 4.1385485 -5 2 C-2.625 0.9375 -2.625 0.9375 0 0 Z " fill="#3D3847" transform="translate(30,314)"/>
<path d="M0 0 C0.928125 0.515625 1.85625 1.03125 2.8125 1.5625 C2.4825 2.2225 2.1525 2.8825 1.8125 3.5625 C-1.87504757 3.06418276 -3.79240662 2.46182357 -6.1875 -0.4375 C-3.1875 -1.4375 -3.1875 -1.4375 0 0 Z " fill="#4A4852" transform="translate(76.1875,305.4375)"/>
<path d="M0 0 C0 0.66 0 1.32 0 2 C-0.66 2 -1.32 2 -2 2 C-2 2.66 -2 3.32 -2 4 C-3.98 4.33 -5.96 4.66 -8 5 C-7 2 -7 2 -5.125 0.8125 C-3 0 -3 0 0 0 Z " fill="#4A4651" transform="translate(124,279)"/>
<path d="M0 0 C0 1.65 0 3.3 0 5 C-0.99 5 -1.98 5 -3 5 C-3.33 5.33 -3.66 5.66 -4 6 C-4.66 5.67 -5.32 5.34 -6 5 C-5.1875 3.0625 -5.1875 3.0625 -4 1 C-1 0 -1 0 0 0 Z " fill="#524E59" transform="translate(126,33)"/>
<path d="M0 0 C0.763125 0.309375 1.52625 0.61875 2.3125 0.9375 C4.18789677 1.67893593 6.08684652 2.36228217 8 3 C8 3.66 8 4.32 8 5 C6.35 5.66 4.7 6.32 3 7 C3.33 6.01 3.66 5.02 4 4 C2.68 3.67 1.36 3.34 0 3 C0 2.01 0 1.02 0 0 Z " fill="#605D66" transform="translate(222,481)"/>
<path d="M0 0 C0.66 0.33 1.32 0.66 2 1 C-0.25 3.5625 -0.25 3.5625 -3 6 C-5.3125 5.8125 -5.3125 5.8125 -7 5 C-6.01 4.67 -5.02 4.34 -4 4 C-4 3.34 -4 2.68 -4 2 C-2.125 0.9375 -2.125 0.9375 0 0 Z " fill="#4D4653" transform="translate(151,474)"/>
<path d="M0 0 C2.97 0.33 5.94 0.66 9 1 C8.67 1.99 8.34 2.98 8 4 C5.36 3.34 2.72 2.68 0 2 C0 1.34 0 0.68 0 0 Z " fill="#4C4B5D" transform="translate(105,464)"/>
<path d="M0 0 C0.99 0 1.98 0 3 0 C3.33 1.32 3.66 2.64 4 4 C3.01 4.66 2.02 5.32 1 6 C0.01 5.67 -0.98 5.34 -2 5 C-1.34 3.35 -0.68 1.7 0 0 Z " fill="#59465F" transform="translate(140,459)"/>
<path d="M0 0 C1.875 0.3125 1.875 0.3125 4 1 C4.66 1.99 5.32 2.98 6 4 C3.69 4 1.38 4 -1 4 C-0.67 2.68 -0.34 1.36 0 0 Z " fill="#413747" transform="translate(170,438)"/>
<path d="M0 0 C0.99 0.33 1.98 0.66 3 1 C3.33 3.31 3.66 5.62 4 8 C3.34 8 2.68 8 2 8 C0.74335022 5.09399739 0 3.20395416 0 0 Z " fill="#16131A" transform="translate(209,406)"/>
<path d="M0 0 C0.99 0.99 1.98 1.98 3 3 C2.34 4.32 1.68 5.64 1 7 C0.01 6.67 -0.98 6.34 -2 6 C-1.34 4.02 -0.68 2.04 0 0 Z " fill="#403C56" transform="translate(163,385)"/>
<path d="M0 0 C0.99 0.33 1.98 0.66 3 1 C1.35 3.64 -0.3 6.28 -2 9 C-2.66 8.67 -3.32 8.34 -4 8 C-3.34 6.02 -2.68 4.04 -2 2 C-1.34 2 -0.68 2 0 2 C0 1.34 0 0.68 0 0 Z " fill="#5B5861" transform="translate(135,361)"/>
<path d="M0 0 C2.7824349 1.39121745 3.55210065 3.30164212 5 6 C5 6.66 5 7.32 5 8 C1.17053157 6.54744301 -0.12050295 4.57104439 -2 1 C-1.34 0.67 -0.68 0.34 0 0 Z " fill="#393541" transform="translate(23,210)"/>
<path d="M0 0 C1.65 0 3.3 0 5 0 C5 1.32 5 2.64 5 4 C3.35 4 1.7 4 0 4 C-0.33 3.34 -0.66 2.68 -1 2 C-0.67 1.34 -0.34 0.68 0 0 Z " fill="#45414B" transform="translate(54,160)"/>
<path d="M0 0 C0.99 1.32 1.98 2.64 3 4 C-0.625 7 -0.625 7 -4 7 C-3.67 5.68 -3.34 4.36 -3 3 C-2.34 3 -1.68 3 -1 3 C-0.67 2.01 -0.34 1.02 0 0 Z " fill="#494352" transform="translate(96,138)"/>
<path d="M0 0 C2 2 2 2 2 5 C1.01 4.67 0.02 4.34 -1 4 C-3.14255793 4.38932856 -3.14255793 4.38932856 -5 5 C-5 4.01 -5 3.02 -5 2 C-3.35 1.34 -1.7 0.68 0 0 Z " fill="#241E31" transform="translate(93,133)"/>
<path d="M0 0 C0.185625 0.9590625 0.185625 0.9590625 0.375 1.9375 C0.684375 2.9584375 0.684375 2.9584375 1 4 C1.66 4.33 2.32 4.66 3 5 C3 5.99 3 6.98 3 8 C1.68 8 0.36 8 -1 8 C-1 7.01 -1 6.02 -1 5 C-1.33 4.01 -1.66 3.02 -2 2 C-1.34 1.34 -0.68 0.68 0 0 Z " fill="#272130" transform="translate(98,101)"/>
<path d="M0 0 C4.455 0.99 4.455 0.99 9 2 C7.68 2.33 6.36 2.66 5 3 C5 3.66 5 4.32 5 5 C3.35 4.67 1.7 4.34 0 4 C0 2.68 0 1.36 0 0 Z " fill="#201C28" transform="translate(245,578)"/>
<path d="M0 0 C0.99 0 1.98 0 3 0 C1.125 5.75 1.125 5.75 0 8 C-0.66 8 -1.32 8 -2 8 C-1.33333333 5.33333333 -0.66666667 2.66666667 0 0 Z " fill="#26232C" transform="translate(356,566)"/>
<path d="M0 0 C2.125 0.375 2.125 0.375 4 1 C2.35830472 3.02054804 0.69088222 5.02043058 -1 7 C-1.33 7 -1.66 7 -2 7 C-2.125 4.625 -2.125 4.625 -2 2 C-1.34 1.34 -0.68 0.68 0 0 Z " fill="#25202D" transform="translate(242,557)"/>
<path d="M0 0 C0.33 0 0.66 0 1 0 C1 3.96 1 7.92 1 12 C0.34 12 -0.32 12 -1 12 C-2.45606519 7.47907032 -1.27032841 4.48351204 0 0 Z " fill="#231E2C" transform="translate(362,548)"/>
<path d="M0 0 C3.29456702 1.09818901 4.45501927 1.91003854 6 5 C5.01 5 4.02 5 3 5 C2.67 5.66 2.34 6.32 2 7 C0.5393715 4.35261084 0 3.10551666 0 0 Z " fill="#514B57" transform="translate(284,501)"/>
<path d="M0 0 C0.99 0.33 1.98 0.66 3 1 C2.01 1.33 1.02 1.66 0 2 C0 2.66 0 3.32 0 4 C0.99 4 1.98 4 3 4 C2.67 4.99 2.34 5.98 2 7 C0.68 6.34 -0.64 5.68 -2 5 C-1.34 3.35 -0.68 1.7 0 0 Z " fill="#18161F" transform="translate(87,455)"/>
<path d="M0 0 C1.32 0.33 2.64 0.66 4 1 C3.67 1.99 3.34 2.98 3 4 C1.35 4.33 -0.3 4.66 -2 5 C-1.34 3.35 -0.68 1.7 0 0 Z " fill="#353438" transform="translate(206,404)"/>
<path d="M0 0 C0.66 0 1.32 0 2 0 C2 0.66 2 1.32 2 2 C2.66 2.33 3.32 2.66 4 3 C3.67 4.32 3.34 5.64 3 7 C2.34 6.67 1.68 6.34 1 6 C1.33 5.34 1.66 4.68 2 4 C0.68 3.67 -0.64 3.34 -2 3 C-1.34 2.01 -0.68 1.02 0 0 Z " fill="#2A2634" transform="translate(119,383)"/>
<path d="M0 0 C0.66 0 1.32 0 2 0 C2.66 1.32 3.32 2.64 4 4 C3.01 4.99 2.02 5.98 1 7 C-0.32 6.34 -1.64 5.68 -3 5 C-2.01 5 -1.02 5 0 5 C0 3.35 0 1.7 0 0 Z " fill="#282232" transform="translate(66,282)"/>
<path d="M0 0 C0.99 0 1.98 0 3 0 C2.67 0.99 2.34 1.98 2 3 C1.34 3 0.68 3 0 3 C-0.66 4.32 -1.32 5.64 -2 7 C-2.33 6.01 -2.66 5.02 -3 4 C-1.75 1.8125 -1.75 1.8125 0 0 Z " fill="#3D3B45" transform="translate(123,178)"/>
<path d="M0 0 C0.33 1.32 0.66 2.64 1 4 C-1.475 5.485 -1.475 5.485 -4 7 C-4 4 -4 4 -2 1.8125 C-1.34 1.214375 -0.68 0.61625 0 0 Z " fill="#2C2935" transform="translate(159,77)"/>
<path d="M0 0 C0.66 0 1.32 0 2 0 C2.33 3.3 2.66 6.6 3 10 C2.34 10 1.68 10 1 10 C-0.1577506 6.52674819 -0.06866652 3.63932552 0 0 Z " fill="#282433" transform="translate(60,70)"/>
<path d="M0 0 C1.32 0 2.64 0 4 0 C4.33 0.99 4.66 1.98 5 3 C3.02 3.33 1.04 3.66 -1 4 C-0.67 2.68 -0.34 1.36 0 0 Z " fill="#2B2735" transform="translate(326,547)"/>
<path d="M0 0 C0.66 0 1.32 0 2 0 C0.90931332 3.77545388 0.0916909 6.47043472 -3 9 C-2.44271087 5.65626525 -1.64826111 2.96687001 0 0 Z " fill="#4D4955" transform="translate(305,542)"/>
<path d="M0 0 C2.64 0 5.28 0 8 0 C8 0.99 8 1.98 8 3 C5.36 2.67 2.72 2.34 0 2 C0 1.34 0 0.68 0 0 Z " fill="#1C1B21" transform="translate(388,538)"/>
<path d="M0 0 C3.125 -0.1875 3.125 -0.1875 6 0 C5.67 1.32 5.34 2.64 5 4 C2.69 3.67 0.38 3.34 -2 3 C-1.34 2.01 -0.68 1.02 0 0 Z " fill="#716E77" transform="translate(271,528)"/>
<path d="M0 0 C2.475 0.495 2.475 0.495 5 1 C5.33 1.99 5.66 2.98 6 4 C5.01 4.33 4.02 4.66 3 5 C1.5 3.625 1.5 3.625 0 2 C0 1.34 0 0.68 0 0 Z " fill="#27232E" transform="translate(265,515)"/>
<path d="M0 0 C1.9451 2.91765 2.45276317 4.62537285 3 8 C1.68 8 0.36 8 -1 8 C-0.67 5.36 -0.34 2.72 0 0 Z " fill="#4C4651" transform="translate(180,379)"/>
<path d="M0 0 C1.65 0.99 3.3 1.98 5 3 C4.67 3.99 4.34 4.98 4 6 C2.02 5.01 0.04 4.02 -2 3 C-1.34 2.01 -0.68 1.02 0 0 Z " fill="#1D1825" transform="translate(99,351)"/>
<path d="M0 0 C0.66 0.33 1.32 0.66 2 1 C1.625 3.9375 1.625 3.9375 1 7 C0.01 7.495 0.01 7.495 -1 8 C-1.93065133 5.39417629 -2.14917407 4.35801776 -1.0625 1.75 C-0.711875 1.1725 -0.36125 0.595 0 0 Z " fill="#44414B" transform="translate(131,288)"/>
<path d="M0 0 C0.99 0.33 1.98 0.66 3 1 C2.67 2.65 2.34 4.3 2 6 C1.01 6 0.02 6 -1 6 C-0.67 4.02 -0.34 2.04 0 0 Z " fill="#2B2434" transform="translate(34,273)"/>
<path d="M0 0 C0.33 0.66 0.66 1.32 1 2 C0.06553465 4.03144641 -0.93224776 6.03533587 -2 8 C-2.66 7.67 -3.32 7.34 -4 7 C-2.92598892 4.08482708 -2.22189824 2.22189824 0 0 Z " fill="#423C4A" transform="translate(122,255)"/>
<path d="M0 0 C2.475 0.495 2.475 0.495 5 1 C5.33 2.32 5.66 3.64 6 5 C5.01 5 4.02 5 3 5 C3 4.34 3 3.68 3 3 C2.34 3 1.68 3 1 3 C0.67 2.01 0.34 1.02 0 0 Z " fill="#393642" transform="translate(34,226)"/>
<path d="M0 0 C0.33 0 0.66 0 1 0 C1 4.29 1 8.58 1 13 C0.01 12.01 -0.98 11.02 -2 10 C-1.85546875 7.51953125 -1.85546875 7.51953125 -1.1875 4.8125 C-0.97480469 3.91144531 -0.76210937 3.01039063 -0.54296875 2.08203125 C-0.36378906 1.39496094 -0.18460937 0.70789063 0 0 Z " fill="#2A2331" transform="translate(82,200)"/>
<path d="M0 0 C2.31 0.33 4.62 0.66 7 1 C5.625 2.5 5.625 2.5 4 4 C3.34 4 2.68 4 2 4 C2 3.34 2 2.68 2 2 C1.34 2 0.68 2 0 2 C0 1.34 0 0.68 0 0 Z M0 3 C0.66 3.66 1.32 4.32 2 5 C1.34 5 0.68 5 0 5 C0 4.34 0 3.68 0 3 Z " fill="#282231" transform="translate(105,200)"/>
<path d="M0 0 C-0.66 1.98 -1.32 3.96 -2 6 C-2.66 5.67 -3.32 5.34 -4 5 C-3.67 4.34 -3.34 3.68 -3 3 C-3.99 3 -4.98 3 -6 3 C-4.60722783 0.21445565 -3.01148006 0 0 0 Z " fill="#292332" transform="translate(87,169)"/>
<path d="M0 0 C1.32 0.66 2.64 1.32 4 2 C3.01 2 2.02 2 1 2 C0.67 3.65 0.34 5.3 0 7 C-0.99 6.67 -1.98 6.34 -3 6 C-3 5.01 -3 4.02 -3 3 C-2.01 3 -1.02 3 0 3 C0 2.01 0 1.02 0 0 Z " fill="#4F4D68" transform="translate(88,158)"/>
<path d="M0 0 C2.96 4.44 2.96 4.44 4 7 C3.67 7.99 3.34 8.98 3 10 C2.34 10 1.68 10 1 10 C0.67 6.7 0.34 3.4 0 0 Z " fill="#4A4051" transform="translate(60,77)"/>
<path d="M0 0 C0.66 0.33 1.32 0.66 2 1 C2 2.33333333 2 3.66666667 2 5 C0.35 5 -1.3 5 -3 5 C-2.67 4.01 -2.34 3.02 -2 2 C-1.34 2 -0.68 2 0 2 C0 1.34 0 0.68 0 0 Z " fill="#282234" transform="translate(316,528)"/>
<path d="M0 0 C5.75 0.875 5.75 0.875 8 2 C8 2.66 8 3.32 8 4 C4.31245243 3.50168276 2.39509338 2.89932357 0 0 Z " fill="#3D3340" transform="translate(270,519)"/>
<path d="M0 0 C0.598125 0.20625 1.19625 0.4125 1.8125 0.625 C0.3275 2.11 0.3275 2.11 -1.1875 3.625 C-2.5075 2.965 -3.8275 2.305 -5.1875 1.625 C-2.1875 -0.375 -2.1875 -0.375 0 0 Z " fill="#252230" transform="translate(133.1875,490.375)"/>
<path d="M0 0 C1.98 0.66 3.96 1.32 6 2 C6.33 3.65 6.66 5.3 7 7 C6.34 7 5.68 7 5 7 C5 6.01 5 5.02 5 4 C4.360625 3.71125 3.72125 3.4225 3.0625 3.125 C1 2 1 2 0 0 Z " fill="#5E5C63" transform="translate(167,451)"/>
<path d="M0 0 C1.32 0.66 2.64 1.32 4 2 C3.67 2.99 3.34 3.98 3 5 C2.01 5 1.02 5 0 5 C-0.33 4.01 -0.66 3.02 -1 2 C-0.67 1.34 -0.34 0.68 0 0 Z " fill="#1F1926" transform="translate(170,433)"/>
<path d="M0 0 C0 0.66 0 1.32 0 2 C-0.66 2 -1.32 2 -2 2 C-2 2.66 -2 3.32 -2 4 C-3.65 4.33 -5.3 4.66 -7 5 C-7 4.34 -7 3.68 -7 3 C-6.34 3 -5.68 3 -5 3 C-5 2.34 -5 1.68 -5 1 C-3 0 -3 0 0 0 Z " fill="#201A27" transform="translate(146,397)"/>
<path d="M0 0 C0.33 1.32 0.66 2.64 1 4 C0.01 4.33 -0.98 4.66 -2 5 C-2 5.66 -2 6.32 -2 7 C-2.99 6.67 -3.98 6.34 -5 6 C-4.67 5.01 -4.34 4.02 -4 3 C-3.01 2.67 -2.02 2.34 -1 2 C-0.67 1.34 -0.34 0.68 0 0 Z " fill="#4A4550" transform="translate(52,350)"/>
<path d="M0 0 C1.65 0 3.3 0 5 0 C4.67 0.66 4.34 1.32 4 2 C3.34 2 2.68 2 2 2 C1.67 3.32 1.34 4.64 1 6 C-0.0625 4.125 -0.0625 4.125 -1 2 C-0.67 1.34 -0.34 0.68 0 0 Z " fill="#191620" transform="translate(100,321)"/>
<path d="M0 0 C0.66 0 1.32 0 2 0 C3.0625 2.375 3.0625 2.375 4 5 C3.67 5.66 3.34 6.32 3 7 C2.34 7 1.68 7 1 7 C0.67 4.69 0.34 2.38 0 0 Z " fill="#45414D" transform="translate(83,295)"/>
<path d="M0 0 C1.32 1.65 2.64 3.3 4 5 C3.01 5.66 2.02 6.32 1 7 C0.01 5.35 -0.98 3.7 -2 2 C-1.34 2 -0.68 2 0 2 C0 1.34 0 0.68 0 0 Z " fill="#1D1927" transform="translate(76,264)"/>
<path d="M0 0 C0.99 0.33 1.98 0.66 3 1 C1.68 2.65 0.36 4.3 -1 6 C-1.66 5.67 -2.32 5.34 -3 5 C-1.125 1.125 -1.125 1.125 0 0 Z " fill="#27242F" transform="translate(117,263)"/>
<path d="M0 0 C1.32 1.32 2.64 2.64 4 4 C3.67 4.66 3.34 5.32 3 6 C0.9375 6.625 0.9375 6.625 -1 7 C-1.04254356 5.00045254 -1.04080783 2.99958364 -1 1 C-0.67 0.67 -0.34 0.34 0 0 Z " fill="#292131" transform="translate(103,105)"/>
<path d="" fill="#FFFFFF" transform="translate(0,0)"/>
<path d="" fill="#FFFFFF" transform="translate(0,0)"/>
<path d="" fill="#FFFFFF" transform="translate(0,0)"/>
<path d="" fill="#FFFFFF" transform="translate(0,0)"/>
<path d="" fill="#FFFFFF" transform="translate(0,0)"/>
<path d="" fill="#FFFFFF" transform="translate(0,0)"/>
<path d="" fill="#FFFFFF" transform="translate(0,0)"/>
<path d="" fill="#FFFFFF" transform="translate(0,0)"/>
<path d="" fill="#FFFFFF" transform="translate(0,0)"/>
<path d="" fill="#FFFFFF" transform="translate(0,0)"/>
<path d="" fill="#000000" transform="translate(0,0)"/>
<path d="" fill="#000000" transform="translate(0,0)"/>
<path d="" fill="#FFFFFF" transform="translate(0,0)"/>
<path d="" fill="#FFFFFF" transform="translate(0,0)"/>
<path d="" fill="#FFFFFF" transform="translate(0,0)"/>
<path d="" fill="#FFFFFF" transform="translate(0,0)"/>
<path d="" fill="#7F7F7F" transform="translate(0,0)"/>
<path d="" fill="#FFFFFF" transform="translate(0,0)"/>
<path d="" fill="#FFFFFF" transform="translate(0,0)"/>
<path d="" fill="#FFFFFF" transform="translate(0,0)"/>
<path d="" fill="#FFFFFF" transform="translate(0,0)"/>
<path d="" fill="#FFFFFF" transform="translate(0,0)"/>
<path d="" fill="#FFFFFF" transform="translate(0,0)"/>
<path d="" fill="#FFFFFF" transform="translate(0,0)"/>
<path d="" fill="#FFFFFF" transform="translate(0,0)"/>
<path d="" fill="#FFFFFF" transform="translate(0,0)"/>
<path d="" fill="#000000" transform="translate(0,0)"/>
<path d="" fill="#FFFFFF" transform="translate(0,0)"/>
<path d="" fill="#FFFFFF" transform="translate(0,0)"/>
<path d="" fill="#FFFFFF" transform="translate(0,0)"/>
<path d="" fill="#FFFFFF" transform="translate(0,0)"/>
<path d="" fill="#FFFFFF" transform="translate(0,0)"/>
<path d="" fill="#FFFFFF" transform="translate(0,0)"/>
<path d="" fill="#FFFFFF" transform="translate(0,0)"/>
<path d="" fill="#000000" transform="translate(0,0)"/>
<path d="" fill="#FFFFFF" transform="translate(0,0)"/>
<path d="" fill="#FFFFFF" transform="translate(0,0)"/>
<path d="" fill="#FFFFFF" transform="translate(0,0)"/>
<path d="" fill="#FFFFFF" transform="translate(0,0)"/>
<path d="" fill="#FFFFFF" transform="translate(0,0)"/>
<path d="" fill="#FFFFFF" transform="translate(0,0)"/>
<path d="" fill="#FFFFFF" transform="translate(0,0)"/>
<path d="" fill="#FFFFFF" transform="translate(0,0)"/>
<path d="" fill="#FFFFFF" transform="translate(0,0)"/>
<path d="" fill="#FFFFFF" transform="translate(0,0)"/>
<path d="" fill="#FFFFFF" transform="translate(0,0)"/>
<path d="" fill="#FFFFFF" transform="translate(0,0)"/>
<path d="" fill="#FFFFFF" transform="translate(0,0)"/>
<path d="" fill="#FFFFFF" transform="translate(0,0)"/>
<path d="" fill="#FFFFFF" transform="translate(0,0)"/>
<path d="" fill="#FFFFFF" transform="translate(0,0)"/>
<path d="" fill="#FFFFFF" transform="translate(0,0)"/>
<path d="" fill="#FFFFFF" transform="translate(0,0)"/>
<path d="" fill="#FFFFFF" transform="translate(0,0)"/>
<path d="" fill="#FFFFFF" transform="translate(0,0)"/>
<path d="" fill="#000000" transform="translate(0,0)"/>
<path d="" fill="#FFFFFF" transform="translate(0,0)"/>
<path d="" fill="#FFFFFF" transform="translate(0,0)"/>
<path d="" fill="#FFFFFF" transform="translate(0,0)"/>
<path d="" fill="#FFFFFF" transform="translate(0,0)"/>
<path d="" fill="#FFFFFF" transform="translate(0,0)"/>
<path d="" fill="#FFFFFF" transform="translate(0,0)"/>
<path d="" fill="#FFFFFF" transform="translate(0,0)"/>
<path d="" fill="#FFFFFF" transform="translate(0,0)"/>
<path d="" fill="#FFFFFF" transform="translate(0,0)"/>
<path d="" fill="#FFFFFF" transform="translate(0,0)"/>
<path d="" fill="#FFFFFF" transform="translate(0,0)"/>
<path d="" fill="#FFFFFF" transform="translate(0,0)"/>
<path d="" fill="#FFFFFF" transform="translate(0,0)"/>
<path d="" fill="#FFFFFF" transform="translate(0,0)"/>
<path d="" fill="#FFFFFF" transform="translate(0,0)"/>
<path d="" fill="#FFFFFF" transform="translate(0,0)"/>
<path d="" fill="#FFFFFF" transform="translate(0,0)"/>
<path d="" fill="#FFFFFF" transform="translate(0,0)"/>
<path d="" fill="#FFFFFF" transform="translate(0,0)"/>
<path d="" fill="#FFFFFF" transform="translate(0,0)"/>
<path d="" fill="#FFFFFF" transform="translate(0,0)"/>
<path d="" fill="#FFFFFF" transform="translate(0,0)"/>
</svg>
